<svg width="30" height="30" viewBox="0 0 30 30" fill="none" xmlns="http://www.w3.org/2000/svg">
<g clip-path="url(#clip0_674_21124)">
<path fill-rule="evenodd" clip-rule="evenodd" d="M30 11.1034V11.8966H26.0526V11.1034H30ZM20.5263 11.1034V11.8966H16.5789V11.1034H20.5263ZM23.6061 11.1034L23.2886 11.8966L22.9752 11.1034H23.6061ZM14.7632 11.1034C14.1968 11.596 13.4498 11.8966 12.6158 11.8966H6.31579V11.1034H14.7632ZM5.52632 11.1034V11.8966H0V11.1034H5.52632ZM20.5263 9.51724V10.3103H16.5789V9.51724H20.5263ZM24.2234 9.51724L23.9161 10.3103H22.6662L22.3565 9.51724H24.2234ZM15.5526 9.51724C15.4814 9.79923 15.3675 10.0655 15.2211 10.3103H6.31579V9.51724H15.5526ZM5.52632 9.51724V10.3103H0V9.51724H5.52632ZM30 9.51724V10.3103H26.0526V9.51724H30ZM28.4211 7.93103V8.72414H26.0526V7.93103H28.4211ZM20.5263 7.93103V8.72414H18.1579V7.93103H20.5263ZM24.8427 7.93103L24.5325 8.72414H22.0466L21.734 7.93103H24.8427ZM15.4421 7.93103C15.5131 8.18389 15.5526 8.44951 15.5526 8.72414H12.6316V7.93103H15.4421ZM10.2632 7.93103V8.72414H7.89474V7.93103H10.2632ZM3.94737 7.93103V8.72414H1.57895V7.93103H3.94737ZM28.4211 6.34483V7.13793H26.0526V6.34483H28.4211ZM20.5263 6.34483V7.13793H18.1579V6.34483H20.5263ZM25.4613 6.34483L25.1527 7.13793H21.4184L21.1121 6.34483H25.4613ZM14.4711 6.34483C14.7433 6.5687 14.9778 6.83698 15.1579 7.13793H7.89474V6.34483H14.4711ZM3.94737 6.34483V7.13793H1.57895V6.34483H3.94737ZM23.0683 4.75862L23.2895 5.39966L23.5105 4.75862H28.4211V5.55172H26.0526V4.82293L25.7842 5.55172H20.7868L20.5263 4.82286V5.55172H18.1579V4.75862H23.0683ZM3.94737 4.75862V5.55172H1.57895V4.75862H3.94737ZM15.1579 4.75862C14.9778 5.05957 14.7433 5.32778 14.4711 5.55172H7.89474V4.75862H15.1579ZM28.4211 3.17241V3.96552H23.7844L24.0638 3.17241H28.4211ZM22.5177 3.17241L22.7972 3.96552H18.1579V3.17241H22.5177ZM15.5526 3.17241C15.5526 3.44697 15.5131 3.71259 15.4421 3.96552H12.6316V3.17241H15.5526ZM10.2632 3.17241V3.96552H7.89474V3.17241H10.2632ZM3.94737 3.17241V3.96552H1.57895V3.17241H3.94737ZM21.9711 1.58621L22.2455 2.37931H16.579L16.5789 1.58621H21.9711ZM30 1.58621V2.37931H24.3305L24.6157 1.58621H30ZM15.2211 1.58621C15.3675 1.83106 15.4814 2.09733 15.5526 2.37931H6.31579V1.58621H15.2211ZM5.52632 1.58621V2.37931H0V1.58621H5.52632ZM21.4167 0L21.6963 0.793103H16.579L16.5789 0H21.4167ZM30 0V0.793103H24.8891L25.1621 0H30ZM12.6158 0C13.4437 0 14.1969 0.300586 14.7632 0.793103H6.31579V0H12.6158ZM5.52632 0V0.793103H0V0H5.52632Z" fill="#161616"/>
<rect y="14" width="30" height="16" fill="black"/>
<path d="M3.98401 17.624H7.03201C7.57601 17.624 8.06801 17.712 8.50801 17.888C8.95601 18.064 9.33601 18.328 9.64801 18.68C9.96801 19.024 10.212 19.46 10.38 19.988C10.556 20.508 10.644 21.116 10.644 21.812C10.644 22.508 10.556 23.12 10.38 23.648C10.212 24.168 9.96801 24.604 9.64801 24.956C9.33601 25.3 8.95601 25.56 8.50801 25.736C8.06801 25.912 7.57601 26 7.03201 26H3.98401V17.624ZM7.03201 24.596C7.62401 24.596 8.09201 24.424 8.43601 24.08C8.78801 23.728 8.96401 23.192 8.96401 22.472V21.152C8.96401 20.432 8.78801 19.9 8.43601 19.556C8.09201 19.204 7.62401 19.028 7.03201 19.028H5.56801V24.596H7.03201Z" fill="white"/>
<path d="M12.1614 17.12H13.6974V20.768H13.7454C13.8574 20.408 14.0694 20.124 14.3814 19.916C14.6934 19.7 15.0574 19.592 15.4734 19.592C16.2734 19.592 16.8814 19.876 17.2974 20.444C17.7214 21.004 17.9334 21.808 17.9334 22.856C17.9334 23.912 17.7214 24.724 17.2974 25.292C16.8814 25.86 16.2734 26.144 15.4734 26.144C15.0574 26.144 14.6934 26.036 14.3814 25.82C14.0774 25.604 13.8654 25.316 13.7454 24.956H13.6974V26H12.1614V17.12ZM14.9814 24.872C15.3814 24.872 15.7054 24.74 15.9534 24.476C16.2014 24.212 16.3254 23.856 16.3254 23.408V22.328C16.3254 21.88 16.2014 21.524 15.9534 21.26C15.7054 20.988 15.3814 20.852 14.9814 20.852C14.6134 20.852 14.3054 20.944 14.0574 21.128C13.8174 21.312 13.6974 21.556 13.6974 21.86V23.852C13.6974 24.18 13.8174 24.432 14.0574 24.608C14.3054 24.784 14.6134 24.872 14.9814 24.872Z" fill="white"/>
<path d="M25.0208 26H19.2128V24.536L21.8408 22.232C22.2888 21.84 22.6168 21.488 22.8248 21.176C23.0328 20.856 23.1368 20.512 23.1368 20.144V19.988C23.1368 19.62 23.0168 19.34 22.7768 19.148C22.5368 18.948 22.2448 18.848 21.9008 18.848C21.4688 18.848 21.1408 18.972 20.9168 19.22C20.6928 19.46 20.5328 19.752 20.4368 20.096L19.0688 19.568C19.1568 19.288 19.2808 19.024 19.4408 18.776C19.6008 18.52 19.8008 18.296 20.0408 18.104C20.2888 17.912 20.5768 17.76 20.9048 17.648C21.2328 17.536 21.6088 17.48 22.0328 17.48C22.4728 17.48 22.8648 17.544 23.2088 17.672C23.5528 17.792 23.8408 17.964 24.0728 18.188C24.3128 18.412 24.4928 18.676 24.6128 18.98C24.7408 19.284 24.8048 19.616 24.8048 19.976C24.8048 20.328 24.7488 20.648 24.6368 20.936C24.5248 21.224 24.3728 21.5 24.1808 21.764C23.9888 22.02 23.7648 22.268 23.5088 22.508C23.2528 22.74 22.9808 22.976 22.6928 23.216L20.9288 24.668H25.0208V26Z" fill="white"/>
</g>
<defs>
<clipPath id="clip0_674_21124">
<rect width="30" height="30" fill="white"/>
</clipPath>
</defs>
</svg>
