<svg width="72" height="71" viewBox="0 0 72 71" fill="none" xmlns="http://www.w3.org/2000/svg">
<path d="M68.2434 28.5361H45.7731C45.4027 28.5384 45.0356 28.4672 44.693 28.3265C44.3503 28.1859 44.039 27.9786 43.7771 27.7167C43.5152 27.4548 43.3079 27.1435 43.1673 26.8008C43.0266 26.4582 42.9554 26.0911 42.9577 25.7207V3.25041C42.9577 2.88151 42.8848 2.51625 42.7431 2.17566C42.6014 1.83506 42.3937 1.52585 42.1321 1.26582C41.8704 1.00579 41.5599 0.800079 41.2184 0.660516C40.8769 0.520953 40.5112 0.450299 40.1424 0.452619H31.7314C31.3625 0.450299 30.9968 0.520953 30.6553 0.660516C30.3138 0.800079 30.0033 1.00579 29.7417 1.26582C29.48 1.52585 29.2724 1.83506 29.1307 2.17566C28.989 2.51625 28.916 2.88151 28.916 3.25041V25.7207C28.9184 26.0911 28.8471 26.4582 28.7065 26.8008C28.5658 27.1435 28.3585 27.4548 28.0966 27.7167C27.8347 27.9786 27.5234 28.1859 27.1808 28.3265C26.8382 28.4672 26.471 28.5384 26.1006 28.5361H17.6897C17.3193 28.5384 16.9522 28.4672 16.6095 28.3265C16.2669 28.1859 15.9556 27.9786 15.6937 27.7167C15.4318 27.4548 15.2245 27.1435 15.0838 26.8008C14.9432 26.4582 14.872 26.0911 14.8743 25.7207V3.25041C14.8766 2.88003 14.8054 2.51288 14.6647 2.17025C14.5241 1.82761 14.3168 1.51632 14.0549 1.25442C13.793 0.992521 13.4817 0.78523 13.1391 0.644571C12.7964 0.503913 12.4293 0.432686 12.0589 0.435023H3.63036C3.26147 0.435015 2.89621 0.507961 2.55562 0.649662C2.21502 0.791363 1.90581 0.999022 1.64578 1.26069C1.38575 1.52235 1.18004 1.83286 1.04047 2.17433C0.90091 2.51581 0.830255 2.88152 0.832575 3.25041V67.8634C0.830238 68.2338 0.901465 68.601 1.04212 68.9436C1.18278 69.2862 1.39007 69.5975 1.65197 69.8594C1.91387 70.1213 2.22517 70.3286 2.5678 70.4693C2.91043 70.6099 3.27758 70.6812 3.64796 70.6788H68.2434C68.6138 70.6812 68.9809 70.6099 69.3235 70.4693C69.6662 70.3286 69.9775 70.1213 70.2394 69.8594C70.5013 69.5975 70.7086 69.2862 70.8492 68.9436C70.9899 68.601 71.0611 68.2338 71.0588 67.8634V31.4042C71.0682 31.0295 71.0022 30.6566 70.8648 30.3078C70.7273 29.959 70.5211 29.6414 70.2585 29.3739C69.9959 29.1064 69.6822 28.8943 69.336 28.7504C68.9898 28.6065 68.6183 28.5336 68.2434 28.5361ZM56.9467 52.3964C56.949 52.9502 56.8419 53.4989 56.6316 54.0112C56.4213 54.5235 56.1119 54.9891 55.7212 55.3815C55.3304 55.7739 54.866 56.0853 54.3546 56.2977C53.8432 56.5101 53.2949 56.6195 52.7412 56.6195H47.1104C46.5567 56.6195 46.0084 56.5101 45.497 56.2977C44.9856 56.0853 44.5212 55.7739 44.1305 55.3815C43.7397 54.9891 43.4303 54.5235 43.22 54.0112C43.0097 53.4989 42.9026 52.9502 42.9049 52.3964V46.7833C42.9026 46.2295 43.0097 45.6808 43.22 45.1685C43.4303 44.6562 43.7397 44.1905 44.1305 43.7982C44.5212 43.4058 44.9856 43.0944 45.497 42.882C46.0084 42.6695 46.5567 42.5602 47.1104 42.5602H52.7412C53.2949 42.5602 53.8432 42.6695 54.3546 42.882C54.866 43.0944 55.3304 43.4058 55.7212 43.7982C56.1119 44.1905 56.4213 44.6562 56.6316 45.1685C56.8419 45.6808 56.949 46.2295 56.9467 46.7833V52.3964Z" fill="#FF6600"/>
</svg>
