<svg width="60" height="60" viewBox="0 0 60 60" fill="none" xmlns="http://www.w3.org/2000/svg">
<g clip-path="url(#clip0_860_10228)">
<path d="M60.126 30.1197C60.126 42.3563 52.8061 52.8827 42.31 57.5559L32.3434 47.5132C31.9273 47.0937 31.6938 46.527 31.6938 45.9365V41.6459C31.6938 41.0276 32.195 40.5268 32.813 40.5268H42.4358L45.0688 41.6742C45.5443 41.8812 46.1011 41.6909 46.3504 41.235L52.0624 30.8279C52.2437 30.4978 52.3387 30.1274 52.3387 29.7511V27.3028C52.3387 27.0232 52.2241 26.7546 52.0226 26.5613L40.4802 15.0466C40.3852 14.9543 40.2646 14.8871 40.1334 14.8563L28.8962 12.1853C28.5451 12.1019 28.2193 11.9347 27.9464 11.6978L27.2365 11.0815L23.6324 7.9589C23.5079 7.85114 23.3151 7.8567 23.1928 7.96746C21.8012 9.22815 21.0468 10.2656 20.6829 11.6413C20.0757 13.7902 20.5961 15.6958 21.4527 16.8513C21.5057 16.924 21.5592 16.9941 21.6148 17.0583L25.913 21.3646C26.123 21.5716 26.2376 21.8543 26.2376 22.151L26.2406 27.116C26.2406 27.4388 25.8505 27.6005 25.6222 27.3726L18.6166 20.3669C18.4275 20.1779 18.1209 20.1775 17.9315 20.3665L15.0479 23.2411C14.858 23.4306 14.858 23.7376 15.0475 23.9275L25.0042 33.8843C26.1508 35.0308 26.7952 36.5861 26.7952 38.2077V48.0991C26.7952 48.7619 27.0586 49.3978 27.5273 49.8665L37.003 59.3452C35.2121 59.7647 33.3599 60.0251 31.4599 60.1064L23.98 52.6265C22.9375 51.5839 22.3516 50.1697 22.3516 48.6952V38.4596C22.3516 37.8699 22.1172 37.3045 21.7007 36.888L11.8906 27.0779C11.7016 26.8889 11.3945 26.8885 11.2055 27.0779L8.30185 29.9748C8.11197 30.1642 8.11197 30.4712 8.30185 30.6607L16.7478 39.1066C16.9547 39.3166 17.0723 39.5993 17.0723 39.893V44.8456C17.0723 45.1676 16.6832 45.3292 16.4553 45.1013L5.28141 33.9381C5.10608 33.7632 4.80673 33.8868 4.8063 34.1344L4.79262 40.0641C4.79176 40.4361 4.9393 40.7928 5.2023 41.0562L23.5545 59.411C9.78833 56.3333 -0.407505 43.7884 0.149712 28.9617C0.720614 13.7761 12.8366 1.2274 27.9969 0.180103C45.5281 -1.03098 60.126 12.8387 60.126 30.1197Z" fill="black"/>
</g>
<defs>
<clipPath id="clip0_860_10228">
<rect width="60" height="60" fill="white"/>
</clipPath>
</defs>
</svg>