<svg width="100" height="100" viewBox="0 0 100 100" fill="none" xmlns="http://www.w3.org/2000/svg">
<g clip-path="url(#clip0_1885_167239)">
<path d="M10.5286 19.5078C25.8796 0.0430984 56.112 -2.26671 78.0547 14.3487C99.9973 30.9641 105.341 60.2128 89.9899 79.6775C74.639 99.1422 44.4065 101.452 22.4639 84.8365C0.521233 68.2211 -4.82237 38.9725 10.5286 19.5078Z" fill="#F2F4FE"/>
<g clip-path="url(#clip1_1885_167239)">
<path d="M49.8557 34L36 42.0008V57.9993L49.8557 66L63.7115 57.9993V42.0008L49.8557 34ZM49.8557 43.0767L55.8467 46.5355V53.4661L49.8557 56.9233L43.8648 53.4661V46.5355L49.8557 43.0767H49.8557Z" fill="#16D6C7"/>
<path d="M39.9324 44.2637V55.7418L43.8648 53.4664V46.5357L49.8557 43.0769V38.5361L39.9324 44.2637Z" fill="#027F9E"/>
<path d="M63.7115 42.0008L49.8557 34L36 42.0008L39.9324 44.2634L49.8557 38.5359L59.7791 44.2634L63.7115 42.0008Z" fill="#17A6B2"/>
<path d="M63.7115 42.001L59.7791 44.2636V55.7417L49.8557 61.4651V66.0002L63.7115 57.9995V42.001Z" fill="#027F9E"/>
<path d="M55.8467 53.4658L49.8557 56.923L43.8648 53.4658L39.9324 55.7412L49.8557 61.4646L59.7791 55.7412L55.8467 53.4658Z" fill="#17A6B2"/>
</g>
</g>
<defs>
<clipPath id="clip0_1885_167239">
<rect width="100" height="100" fill="white"/>
</clipPath>
<clipPath id="clip1_1885_167239">
<rect width="27.7115" height="32" fill="white" transform="translate(36 34)"/>
</clipPath>
</defs>
</svg>
