<svg width="30" height="30" viewBox="0 0 30 30" fill="none" xmlns="http://www.w3.org/2000/svg">
<path d="M26.8206 2.71741H3.17483C2.33357 2.71987 1.52747 3.05515 0.932612 3.65001C0.33775 4.24487 0.00246745 5.05096 0 5.89222L0 24.1078C0.00246745 24.9491 0.33775 25.7552 0.932612 26.35C1.52747 26.9449 2.33357 27.2802 3.17483 27.2826H26.8206C27.6619 27.2802 28.468 26.9449 29.0629 26.35C29.6577 25.7552 29.993 24.9491 29.9955 24.1078V5.89222C29.993 5.05096 29.6577 4.24487 29.0629 3.65001C28.468 3.05515 27.6619 2.71987 26.8206 2.71741V2.71741ZM12.6746 20.5808L6.9039 23.9343C6.72857 24.0362 6.5349 24.1026 6.33394 24.1296C6.13297 24.1566 5.92865 24.1438 5.73264 24.0919C5.33677 23.987 4.99878 23.7292 4.79302 23.3751C4.58726 23.021 4.53058 22.5997 4.63545 22.2039C4.74033 21.808 4.99816 21.47 5.35224 21.2642L11.1229 17.9107C11.2983 17.8086 11.492 17.7421 11.693 17.7149C11.8941 17.6877 12.0985 17.7005 12.2947 17.7523C12.4908 17.8042 12.6748 17.8942 12.8361 18.0172C12.9975 18.1403 13.133 18.2939 13.2349 18.4693C13.3368 18.6447 13.4032 18.8385 13.4302 19.0395C13.4572 19.2406 13.4443 19.445 13.3923 19.6411C13.3403 19.8372 13.2501 20.0212 13.1269 20.1824C13.0038 20.3436 12.8501 20.479 12.6746 20.5808V20.5808ZM14.9448 15.4715H14.9378C14.7351 15.4706 14.5344 15.4298 14.3474 15.3514C14.1604 15.273 13.9907 15.1585 13.848 15.0145C13.7052 14.8705 13.5922 14.6997 13.5154 14.5121C13.4387 14.3244 13.3996 14.1234 13.4005 13.9206L13.4295 7.27272C13.4313 6.86439 13.5947 6.47341 13.8841 6.18529C14.1734 5.89717 14.5651 5.73538 14.9734 5.73531H14.9804C15.3899 5.7371 15.7819 5.9015 16.0702 6.19234C16.3585 6.48317 16.5195 6.87663 16.5177 7.28614L16.4887 13.9341C16.4869 14.3424 16.3235 14.7334 16.0341 15.0215C15.7448 15.3096 15.3531 15.4714 14.9448 15.4715V15.4715ZM25.1552 23.3708C25.0539 23.5464 24.919 23.7004 24.7581 23.8239C24.5972 23.9474 24.4136 24.038 24.2177 24.0904C24.0218 24.1429 23.8175 24.1563 23.6165 24.1298C23.4154 24.1033 23.2215 24.0374 23.046 23.9359L17.2668 20.5993C17.091 20.498 16.9369 20.3631 16.8133 20.2022C16.6896 20.0413 16.5989 19.8577 16.5463 19.6617C16.4937 19.4658 16.4803 19.2614 16.5067 19.0602C16.5331 18.859 16.599 18.665 16.7004 18.4893C16.8019 18.3136 16.9369 18.1596 17.0979 18.0361C17.2589 17.9127 17.4427 17.8221 17.6387 17.7697C17.8347 17.7173 18.0391 17.704 18.2403 17.7306C18.4414 17.7573 18.6353 17.8233 18.8109 17.9249L24.5901 21.2615C24.7657 21.3628 24.9196 21.4978 25.0431 21.6587C25.1665 21.8196 25.2571 22.0032 25.3095 22.199C25.362 22.3949 25.3754 22.5992 25.3489 22.8002C25.3225 23.0013 25.2566 23.1951 25.1552 23.3708V23.3708Z" fill="#FFC61C"/>
</svg>
