<svg width="71" height="71" viewBox="0 0 71 71" fill="none" xmlns="http://www.w3.org/2000/svg">
<g clip-path="url(#clip0_149_10544)">
<path fill-rule="evenodd" clip-rule="evenodd" d="M59.1056 41.8529C59.2114 44.0308 57.6466 45.9339 55.4898 46.251C51.3666 46.97 42.7394 47.414 35.4866 47.414C28.2339 47.414 19.6067 46.97 15.4834 46.251C13.3266 45.9127 11.783 44.0308 11.8676 41.8529V28.1509C11.8887 26.0152 13.39 24.1967 15.4834 23.7315C17.5767 23.4567 19.6701 23.3086 21.7846 23.3298C22.6516 23.3298 23.3282 24.0487 23.3071 24.9157C23.3071 24.9368 23.3071 24.9791 23.3071 25.0002V34.6001C27.5572 34.6001 31.2576 34.3464 35.5289 34.3464C39.8002 34.3464 43.4794 34.579 47.7296 34.6001V25.0002C47.6662 24.1544 48.3005 23.3932 49.1675 23.3298C49.1886 23.3298 49.2309 23.3298 49.252 23.3298C51.3454 23.3298 53.4388 23.4567 55.511 23.7315C57.6043 24.1756 59.1056 26.0152 59.1268 28.1509V41.8529H59.1056ZM35.5078 0.577702C16.1177 0.450832 0.301221 16.077 0.174351 35.4671C0.0474807 54.8571 15.6737 70.6947 35.0637 70.8005C54.4537 70.9273 70.2914 55.3011 70.3971 35.9111C70.3971 35.8477 70.3971 35.7631 70.3971 35.6997C70.4817 16.3731 54.8555 0.641137 35.5289 0.577702H35.5078Z" fill="#EA2328"/>
</g>
<defs>
<clipPath id="clip0_149_10544">
<rect width="70.2439" height="70.2439" fill="white" transform="translate(0.174316 0.577789)"/>
</clipPath>
</defs>
</svg>
