<svg width="60" height="60" viewBox="0 0 60 60" fill="none" xmlns="http://www.w3.org/2000/svg">
<path d="M42.3226 14.9786C34.3799 7.00712 21.5003 7.00712 13.5576 14.9786L0.575557 28.0074C-0.191852 28.7785 -0.191852 30.0199 0.575557 30.7909L13.5576 43.8198C21.5003 51.7913 34.3799 51.7913 42.3226 43.8329C50.2781 35.8744 50.2781 22.9501 42.3226 14.9786ZM39.253 40.0039C33.4206 45.8584 23.956 45.8584 18.1236 40.0039L8.5694 30.425C8.00663 29.8631 8.00663 28.9483 8.5694 28.3734L18.1109 18.8076C23.9431 12.9531 33.4079 12.9531 39.2401 18.8076C45.0853 24.662 45.0853 34.1495 39.253 40.0039Z" fill="#4FC4F9"/>
<path d="M59.3334 28.0204L53.6162 22.179C53.2708 21.8261 52.6952 22.1528 52.8104 22.6363C53.7952 27.0925 53.7952 31.7448 52.8104 36.201C52.708 36.6845 53.2836 36.998 53.6162 36.6583L59.3334 30.817C60.0879 30.0329 60.0879 28.7914 59.3334 28.0204Z" fill="#4FC4F9"/>
<path d="M28.7517 39.6511C34.2827 39.6511 38.7664 35.0699 38.7664 29.4188C38.7664 23.7677 34.2827 19.1865 28.7517 19.1865C23.2207 19.1865 18.7371 23.7677 18.7371 29.4188C18.7371 35.0699 23.2207 39.6511 28.7517 39.6511Z" fill="#4FC4F9"/>
</svg>