<svg width="30" height="30" viewBox="0 0 30 30" fill="none" xmlns="http://www.w3.org/2000/svg">
<g clip-path="url(#clip0_561_19694)">
<path d="M30 17.9005C29.9278 14.8018 28.8109 12.1986 26.7548 10.1714C27.0747 9.28367 27.0892 8.62718 27.0892 8.62718C25.4212 3.55699 22.7477 1.21183 21.7857 0.421156C21.5896 0.260132 21.1994 0.194071 20.9558 0.266326C20.9558 0.266326 20.448 0.400512 20.2684 0.456251C19.9009 0.567729 20.1486 0.375739 20.1569 0.317936C20.2519 0.14659 20.0496 0.0598846 19.9319 0.0392405C19.0752 -0.119719 18.2762 0.212651 17.9026 0.767977C17.8964 0.778299 17.8757 0.798943 17.8757 0.798943L17.3142 1.7238C17.1842 1.75476 17.0727 1.82908 17.0004 1.93437C16.9344 2.03759 16.924 2.15939 16.9467 2.27706C16.9984 2.54543 17.2234 2.77871 17.533 2.79523C17.8592 2.81381 18.0058 2.69201 18.0058 2.69201C18.1028 2.96244 18.2762 3.18127 18.4785 3.3423C17.7519 3.0925 16.9282 2.94386 16.1065 2.94386C13.7861 2.94386 11.8084 4.02974 10.8485 5.56566C10.161 6.666 10.1486 8.04502 10.1445 8.22256C10.2766 8.05328 10.4088 7.90671 10.4088 7.90671L10.0537 8.72421L11.0941 9.54172C9.4612 10.9104 8.23288 12.7477 7.58878 14.9112C7.28325 14.4674 7.21925 13.7387 7.21925 13.7387C7.16764 13.3795 7.21925 12.6012 7.21925 12.6012L6.89307 12.7209C6.80843 12.3927 6.47606 11.8931 6.14369 11.4554C5.65236 10.8031 5.02891 10.2622 4.31256 9.86789C4.038 9.71719 3.76343 9.57475 3.51364 9.45088C2.73742 9.06277 1.88482 8.84808 1.01776 8.84601C0.801002 8.84601 0.706039 8.86046 0.706039 8.86046C0.689524 8.86253 0.670944 8.86253 0.656493 8.86459C0.468632 8.88317 0.293157 8.974 0.165164 9.11851C0.142455 9.14535 0.121811 9.17219 0.101167 9.20316C0.0784583 9.23412 0.0557498 9.27128 0.0371702 9.3105C0.0268481 9.33115 0.0165261 9.35386 0.0123972 9.37244C0.00620401 9.38895 0.0041396 9.4096 0.0020752 9.42817C0.0020752 9.44675 0.0020752 9.46327 0.0020752 9.48185C0.0020752 9.56649 0.0309769 9.6532 0.0805228 9.73784C0.086716 9.75435 0.0949736 9.7688 0.103231 9.78325C0.117682 9.81009 0.136262 9.8328 0.154841 9.85757C0.179614 9.88441 0.202323 9.91331 0.231225 9.93808C0.243611 9.9546 0.255998 9.96492 0.268384 9.97731C0.274577 9.98144 0.278706 9.9835 0.282835 9.98763C0.282835 9.98763 0.282835 9.98969 0.284899 9.98969C0.293157 10 0.305543 10.0083 0.313801 10.0165C0.326187 10.0248 0.336509 10.033 0.346832 10.0392C0.346832 10.0392 0.346832 10.0413 0.348896 10.0413C0.365411 10.0578 0.38812 10.0723 0.406699 10.0847C0.437666 10.1094 0.464503 10.1301 0.493405 10.1507C0.495469 10.1507 0.495469 10.1528 0.497533 10.1548L0.511984 10.1693C0.511984 10.1693 0.520242 10.1734 0.522306 10.1755C0.586303 10.225 0.652364 10.2766 0.718425 10.3303C0.747327 10.353 0.7721 10.3757 0.801002 10.3984C0.82371 10.4191 0.846419 10.4377 0.869127 10.4583C0.914544 10.4934 0.957897 10.5306 0.999185 10.5657C1.02396 10.5863 1.04873 10.6111 1.0735 10.6297C1.11479 10.6689 1.15814 10.6999 1.19324 10.7349C1.19737 10.7391 1.19943 10.7391 1.2015 10.7411C1.23659 10.77 1.26549 10.7969 1.29233 10.8217C1.3171 10.8444 1.33775 10.8629 1.35426 10.8774C1.35839 10.8795 1.36252 10.8836 1.36459 10.8856C1.37491 10.896 1.38317 10.9022 1.39142 10.9104C1.39349 10.9125 1.39555 10.9146 1.39555 10.9166L1.39968 10.9187H1.40174C1.45335 10.96 1.50497 10.9971 1.55451 11.0405C1.65567 11.121 1.75269 11.2036 1.84766 11.2903C1.88688 11.3274 1.92817 11.3687 1.96946 11.4059C2.01075 11.4451 2.04997 11.4864 2.08713 11.5277C2.12222 11.5607 2.15525 11.5958 2.18828 11.6309C2.28531 11.7382 2.38027 11.8477 2.46904 11.9591C2.47524 11.9695 2.48143 11.9757 2.48762 11.9839C2.53511 12.0438 2.58259 12.1057 2.62594 12.1656C2.67136 12.2275 2.71264 12.2853 2.75187 12.3452C2.756 12.3514 2.76013 12.3576 2.76426 12.3638C2.78283 12.3906 2.79935 12.4174 2.81793 12.4443C2.82206 12.4505 2.82412 12.4525 2.82825 12.4587L2.7498 12.5599L2.63626 12.7003C2.53923 12.8221 2.50827 12.9872 2.55369 13.1359L2.69613 13.6107L2.28944 14.1515C2.20067 14.2733 2.18828 14.4344 2.2626 14.5686L2.36582 14.7523L2.14493 14.936C1.9323 15.1136 1.86624 15.4129 1.98391 15.6648L2.62181 16.6144C2.62181 16.6144 2.52891 16.7114 2.20686 16.5236C2.11809 16.474 2.02107 16.4472 1.91991 16.4472H1.8043C1.70315 16.4472 1.62883 16.5401 1.65154 16.6392L2.09745 18.3609C2.12429 18.4765 2.24196 18.5529 2.35963 18.5178C2.47111 18.4868 2.58878 18.4228 2.60323 18.3051C2.60323 18.3051 3.98226 18.3444 4.43849 18.2618L5.15691 18.6994L6.36665 20.9435C6.94675 21.9447 7.64246 22.7539 8.33197 23.3939C10.1961 27.2254 14.1288 29.8658 18.6767 29.8658C20.8299 29.8658 22.8448 29.2733 24.5665 28.2432C24.5974 29.0814 25.1569 29.775 26.0033 29.775C26.8497 29.775 27.242 29.0339 27.242 28.5302V26.0425C27.3307 25.9435 27.4195 25.8423 27.5041 25.7391V27.2853C27.5041 27.9232 27.7663 28.6272 28.6045 28.6788C28.621 28.6809 28.6354 28.6829 28.6519 28.6829C28.6705 28.685 28.6891 28.685 28.7098 28.685C29.5169 28.685 30.0021 28.1359 30.0021 27.3349C30.0021 27.3349 30.0041 17.9026 30.0021 17.9005H30ZM19.4695 3.38978L19.4633 3.39597C19.4633 3.39597 19.4571 3.38978 19.455 3.38565C19.4591 3.38565 19.4633 3.38771 19.4695 3.38978ZM22.2172 7.41331C22.1532 7.38854 22.1181 7.37409 22.0995 7.36789C22.0995 7.37202 22.0727 7.36789 21.955 7.3328C21.9963 7.1532 22.0169 6.96946 22.0169 6.77747C22.0169 6.58548 21.9942 6.38524 21.9509 6.19944C21.8229 5.64411 21.5132 5.16104 21.09 4.81835H21.088C20.6689 4.47566 20.1425 4.27334 19.5665 4.27334C19.5293 4.27334 19.488 4.27334 19.4509 4.27334C19.3497 4.27954 19.2506 4.29192 19.1536 4.30844C19.2073 4.28367 19.261 4.26096 19.3146 4.24238C19.3766 4.21761 19.4984 4.166 19.6346 4.11026C19.9835 3.98846 20.8402 3.86253 21.2965 4.00497C21.5442 4.08342 21.9529 5.1115 21.9529 5.1115C22.469 6.30266 22.2647 7.22958 22.2172 7.41125V7.41331Z" fill="white"/>
<path d="M21.507 2.34726C21.4699 1.94057 21.0714 1.47608 20.45 1.17467C19.6119 0.765919 18.687 0.803079 18.3815 1.25725C18.3134 1.3584 18.2824 1.47401 18.2824 1.59375C18.2886 2.01076 18.6953 2.50209 19.3435 2.82001C19.519 2.90465 19.6986 2.97071 19.8741 3.01613H19.8761C20.2023 2.83652 20.834 2.60118 21.313 2.43603C21.3481 2.42364 21.3811 2.41125 21.4141 2.40093C21.4472 2.38855 21.4781 2.37822 21.5091 2.36584C21.5091 2.35964 21.5091 2.35345 21.5091 2.34726H21.507ZM21.6742 7.57434C21.5772 8.02438 21.3543 8.42488 21.0446 8.7366C21.0363 8.74899 21.0281 8.75518 21.0178 8.76344C20.8588 8.93479 20.673 9.0793 20.4728 9.19697C20.8877 9.09788 21.2614 8.88524 21.5628 8.5921C21.5318 8.72215 21.4967 8.85015 21.4534 8.97401H21.4616C21.6701 8.86666 21.86 8.72835 22.0293 8.56319C21.9075 9.09581 21.6639 9.59333 21.3212 10.0434C21.3543 10.0496 21.3873 10.0578 21.4203 10.0661C21.635 9.82248 21.9034 9.4736 22.1429 9.04214C22.1945 8.94511 22.2461 8.84602 22.2956 8.7428C22.4174 8.48475 22.5248 8.19986 22.6012 7.89433C22.2998 7.77459 21.9901 7.66724 21.6742 7.57434ZM11.313 11.5814L11.6887 9.75229L11.5359 9.61604C9.48803 11.2965 8.05533 13.7015 7.63006 16.4389C7.65897 16.4658 7.68993 16.4905 7.72296 16.5174C7.72296 16.5174 9.3332 17.3576 10.4645 18.1297C10.4686 16.4327 10.9992 14.8576 11.8993 13.5611C11.4451 12.6796 11.313 11.5814 11.313 11.5814ZM6.40587 14.1825V14.1763C6.31916 13.8584 6.25723 13.4228 6.46367 13.1627C6.46161 13.1565 6.45954 13.1482 6.45748 13.14C6.45335 13.1193 6.44716 13.1008 6.4389 13.0781C6.44096 13.0719 6.4389 13.0677 6.4389 13.0595C6.40381 12.9377 6.36252 12.8159 6.3171 12.6961C6.19736 12.4505 6.05698 12.2151 5.89596 11.986C5.80719 11.8601 5.71223 11.7362 5.61107 11.6165L5.60694 11.6103C5.5863 11.5876 5.56565 11.5628 5.54501 11.538C5.45418 11.4348 5.35921 11.3336 5.26012 11.2366C5.24774 11.2222 5.23328 11.2077 5.21883 11.1974C5.08465 11.0653 4.9422 10.9393 4.78944 10.8217C4.36623 10.4872 3.88316 10.2023 3.35261 9.98557C3.21016 9.92983 3.07185 9.87822 2.92734 9.83074C2.80347 9.79358 2.67755 9.74817 2.55781 9.69656L2.52684 9.68623C2.50207 9.67178 2.47317 9.66146 2.44633 9.65114C2.35137 9.61191 2.25228 9.57682 2.15525 9.54379C2.31008 9.61398 2.47523 9.70275 2.65897 9.81423C2.65897 9.81423 3.70356 10.3696 4.33114 11.0591C4.40133 11.1354 4.38275 11.1726 4.28366 11.0859C3.83568 10.6854 2.89018 9.99796 1.48845 9.73165C1.48845 9.73165 2.42362 10.2994 3.36912 11.4699C3.40009 11.507 3.42693 11.5421 3.45583 11.5814C3.46409 11.5896 3.47234 11.5999 3.4806 11.6103C3.59414 11.7548 3.70562 11.9075 3.81504 12.0686C3.8171 12.0748 3.82123 12.0789 3.82742 12.0851C3.84187 12.1078 3.85632 12.1305 3.87284 12.1532C3.87284 12.1553 3.87284 12.1573 3.87697 12.1594C3.88729 12.18 3.90174 12.1966 3.91413 12.2151C3.93477 12.2502 3.95954 12.2874 3.98225 12.3225C3.98638 12.3307 3.99051 12.3369 3.9967 12.3452C4.00083 12.3555 4.00703 12.3638 4.01322 12.3741C4.01322 12.3782 4.01941 12.3844 4.02354 12.3885C4.11025 12.531 4.19902 12.6796 4.28159 12.8324C4.28159 12.8324 4.3621 13.0079 4.46532 13.2762C4.48597 13.3299 4.50661 13.3857 4.52726 13.4455C5.07433 13.9823 5.72049 14.5355 6.17259 14.6738L6.39555 14.6078L6.53799 14.5644C6.53799 14.5644 6.4678 14.4034 6.40793 14.1825H6.40587ZM3.31545 17.0376C3.30513 17.0397 3.2948 17.0417 3.28448 17.0438C2.63006 17.2461 2.47936 17.0273 2.47936 17.0273L2.27292 17.0665L2.41949 17.756V17.7601C2.43188 17.7663 2.4422 17.7705 2.45253 17.7725C2.46285 17.7767 2.47317 17.7787 2.48143 17.7808H2.48762C2.52478 17.7787 2.56194 17.7601 2.59497 17.7354C2.6569 17.6899 2.73328 17.6755 2.8076 17.692C2.85302 17.7023 2.9005 17.7065 2.95005 17.7065C2.98101 17.7065 3.01198 17.7065 3.04088 17.7023C3.12965 17.6941 3.22049 17.6776 3.29687 17.6569C3.42486 17.6239 3.55905 17.6115 3.68704 17.6363C3.87697 17.6714 4.1185 17.659 4.30637 17.6383L3.31545 17.0376ZM3.87697 12.5331C3.86045 12.5103 3.84807 12.4856 3.83155 12.4608C3.83155 12.4608 3.82329 12.4463 3.8171 12.4402C3.81297 12.4298 3.80471 12.4174 3.79646 12.4051C3.77581 12.372 3.75517 12.339 3.73246 12.3039C3.72007 12.2833 3.70562 12.2626 3.69117 12.242C3.68085 12.2255 3.66846 12.2069 3.65608 12.1924C3.65814 12.1904 3.65608 12.1904 3.65401 12.1883C3.56318 12.052 3.46202 11.9137 3.35467 11.7795C3.34229 11.763 3.3299 11.7486 3.31958 11.7321C3.25764 11.6577 3.19571 11.5834 3.13172 11.507C3.08836 11.4596 3.04501 11.41 2.99959 11.3605C2.50207 10.8196 1.87036 10.3014 1.0735 9.86997C1.0735 9.86997 0.986794 9.82868 0.912476 9.75229C0.951699 9.89474 1.05492 10.0496 1.22627 10.1714H1.22833C1.24691 10.1879 1.26755 10.2003 1.28407 10.2147C1.31297 10.2354 1.33981 10.2581 1.36665 10.2767C1.36665 10.2767 1.36871 10.278 1.37284 10.2808C1.37284 10.2808 1.38316 10.289 1.38729 10.2932C1.67218 10.5141 2.04584 10.8423 2.18415 10.9662C2.20686 10.9868 2.22338 11.0033 2.23163 11.0095C2.23163 11.0095 2.23576 11.0116 2.23576 11.0136H2.23783C2.45872 11.1809 2.66516 11.3625 2.85508 11.5545C2.95624 11.6577 3.05533 11.763 3.14823 11.8724C3.18126 11.9117 3.21429 11.9509 3.24732 11.9922C3.25764 12.0066 3.27003 12.0211 3.28035 12.0355C3.34641 12.116 3.40835 12.2007 3.46615 12.2874C3.47854 12.2998 3.48473 12.3122 3.49299 12.3245C3.52189 12.3638 3.55079 12.4051 3.57556 12.4463H3.57763C3.70149 12.5888 3.92032 12.8324 4.19076 13.1111C4.09992 12.9253 3.99464 12.7312 3.87697 12.5331ZM29.5603 17.9026C29.5603 17.9026 29.5624 17.8943 29.5603 17.8923C29.4922 14.9216 28.2494 12.242 26.2779 10.2973C25.9352 11.2511 25.4439 12.3885 24.8989 12.915C24.9525 12.8737 25.7969 12.2131 26.0487 11.6681C26.0343 11.7486 25.8547 12.5805 25.1734 13.5859C26.0694 14.8844 26.5917 16.4575 26.5917 18.1544C26.5917 22.6053 22.9831 26.216 18.5281 26.216C16.5297 26.216 14.7007 25.4893 13.2948 24.2837C12.5888 24.775 12.0252 25.2436 11.8291 25.5884L10.9538 25.0062L11.1437 25.7948L9.91743 24.0339H9.91537L8.60653 22.979C10.3943 26.6536 14.166 29.1866 18.5281 29.1866C20.9393 29.1866 23.1709 28.4125 24.9856 27.0995V28.2226C24.9856 28.7056 25.3778 29.0999 25.865 29.0999C26.3522 29.0999 26.7424 28.7056 26.7424 28.2226V25.5203C27.1325 25.0867 27.4876 24.6222 27.8055 24.1309V27.2544C27.8055 27.7395 28.1998 28.1338 28.685 28.1338C29.1701 28.1338 29.5644 27.7395 29.5644 27.2544V18.1544C29.5644 18.0698 29.5644 17.9872 29.5603 17.9026Z" fill="#F3B922"/>
<path d="M2.45247 17.7725C2.45247 17.7725 2.43182 17.7663 2.4215 17.7601C2.44008 17.7746 2.46073 17.7808 2.48137 17.7808C2.47311 17.7787 2.46279 17.7766 2.45247 17.7725ZM13.4454 9.7275C14.1783 9.48183 14.5499 9.61602 14.5499 9.61602L14.9958 8.79851L13.4454 9.7275ZM8.60647 22.9789C9.05652 23.4021 9.50243 23.7469 9.90086 24.0235C9.90499 24.0277 9.91118 24.0297 9.91531 24.0318L8.60647 22.9789ZM2.45247 17.7725C2.45247 17.7725 2.43182 17.7663 2.4215 17.7601C2.44008 17.7746 2.46073 17.7808 2.48137 17.7808C2.47311 17.7787 2.46279 17.7766 2.45247 17.7725ZM19.4549 3.32576C19.4549 3.32576 19.4591 3.33196 19.4632 3.33608C19.4653 3.33402 19.4673 3.33196 19.4694 3.32989C19.4632 3.32783 19.4591 3.32576 19.4549 3.32576ZM13.4454 9.7275C14.1783 9.48183 14.5499 9.61602 14.5499 9.61602L14.9958 8.79851L13.4454 9.7275ZM13.4454 9.7275C14.1783 9.48183 14.5499 9.61602 14.5499 9.61602L14.9958 8.79851L13.4454 9.7275ZM13.4454 9.7275C14.1783 9.48183 14.5499 9.61602 14.5499 9.61602L14.9958 8.79851L13.4454 9.7275ZM2.45247 17.7725C2.45247 17.7725 2.43182 17.7663 2.4215 17.7601C2.44008 17.7746 2.46073 17.7808 2.48137 17.7808C2.47311 17.7787 2.46279 17.7766 2.45247 17.7725ZM13.4454 9.7275C14.1783 9.48183 14.5499 9.61602 14.5499 9.61602L14.9958 8.79851L13.4454 9.7275ZM20.4954 1.07969C20.1651 0.918661 19.7976 0.834021 19.4467 0.834021H19.4446C19.3765 0.834021 19.3104 0.838149 19.2444 0.844343L19.2052 0.850536C18.9368 0.881502 18.6952 0.962014 18.4971 1.09001L18.5363 1.02808L18.4248 1.00537L18.1833 0.957885C18.5074 0.514037 19.1597 0.280759 19.8967 0.348884C19.9545 0.355078 20.0041 0.311725 20.0103 0.255986C20.0144 0.198183 19.9731 0.148637 19.9153 0.142444C19.0834 0.0660604 18.3443 0.348884 17.9851 0.881502C17.9789 0.891824 17.9727 0.902146 17.9727 0.914533H17.9603L17.4339 1.72378C17.308 1.75268 17.2006 1.82494 17.1325 1.92609C17.0685 2.02518 17.0499 2.14286 17.0809 2.25433C17.118 2.38233 17.213 2.49174 17.3472 2.55367C17.4256 2.59083 17.5123 2.61148 17.6011 2.61148C17.7828 2.61148 17.9479 2.5289 18.0408 2.39471C18.1812 2.78489 18.5218 3.13997 18.9925 3.36912C19.0441 3.39389 19.0999 3.4166 19.1494 3.43724C19.1618 3.40627 19.1783 3.37737 19.199 3.34641C19.2175 3.3175 19.2402 3.2886 19.265 3.2597C19.2547 3.25764 19.2464 3.25351 19.2361 3.24938C19.1845 3.2308 19.135 3.21016 19.0834 3.18332C18.5466 2.92114 18.1977 2.48348 18.1771 2.0417C18.1709 1.93848 18.1853 1.83319 18.2184 1.73617L18.2287 1.70314C18.2452 1.66391 18.2617 1.62675 18.2824 1.59372C18.2927 1.57514 18.303 1.55863 18.3154 1.54211C18.3402 1.50289 18.3711 1.46573 18.4021 1.42857C18.5796 1.24071 18.8439 1.11478 19.1556 1.0673L19.1577 1.06523C19.1928 1.06111 19.2258 1.05698 19.263 1.05285L19.2981 1.04665C19.6655 1.01775 20.0557 1.0962 20.4046 1.26548C20.9269 1.52147 21.2737 1.94674 21.3088 2.3782V2.39678C21.3459 2.38646 21.379 2.3782 21.412 2.36994C21.445 2.36168 21.476 2.35343 21.507 2.34723C21.507 2.34517 21.5111 2.34517 21.5132 2.34517C21.4657 1.84765 21.0776 1.36251 20.4954 1.07969ZM17.8984 2.2213C17.8922 2.23988 17.8839 2.25846 17.8715 2.27704C17.7931 2.39471 17.5887 2.44013 17.4339 2.36788C17.3554 2.33072 17.2997 2.26878 17.2791 2.1986C17.2646 2.14286 17.2729 2.08712 17.3038 2.03964C17.3575 1.96119 17.4587 1.91371 17.5722 1.91164C17.6321 1.91164 17.6919 1.92403 17.7435 1.9488C17.789 1.97151 17.8261 1.99835 17.853 2.03551C17.8839 2.07267 17.9004 2.11395 17.9046 2.1635C17.8984 2.18414 17.8963 2.20272 17.8984 2.2213ZM26.7733 8.74071C25.1734 3.87902 22.4339 1.30883 21.5111 0.549132C21.3232 0.396366 21.0734 0.344756 20.8402 0.412881L19.68 0.761766C20.0041 0.790668 20.3385 0.879438 20.6544 1.03427C21.2613 1.33361 21.6618 1.80223 21.7774 2.27704C21.7547 2.2853 21.7279 2.29356 21.699 2.30182C21.6453 2.3204 21.5834 2.34104 21.5152 2.36375C21.5132 2.36375 21.5111 2.36375 21.509 2.36375C21.4781 2.37613 21.4471 2.38646 21.4141 2.39884C21.381 2.40916 21.348 2.42155 21.3129 2.43394C20.834 2.59909 20.2023 2.83443 19.8761 3.01404H19.874C19.8183 3.045 19.7729 3.0739 19.7378 3.10074C19.7378 3.10074 19.5912 3.19777 19.4694 3.32783C19.4673 3.32989 19.4653 3.33196 19.4632 3.33402C19.4384 3.35879 19.4157 3.3877 19.3951 3.41453C19.3724 3.44343 19.3538 3.4744 19.3393 3.50537C19.3104 3.55904 19.296 3.61478 19.3042 3.66639C19.3104 3.70561 19.329 3.74484 19.3662 3.782C19.3889 3.80264 19.4178 3.82535 19.457 3.84393C19.4942 3.86251 19.5891 3.85425 19.7151 3.83154C19.7687 3.82329 19.8265 3.8109 19.8905 3.79645C20.2539 3.72213 20.7328 3.60033 20.9207 3.64162C20.9496 3.64781 20.9764 3.654 21.0033 3.65813C21.2035 3.70148 21.379 3.73452 21.5297 3.75929C21.8538 3.81296 22.0747 3.82741 22.2233 3.82329C22.0891 3.88522 21.9075 3.94715 21.6701 3.98224C21.9446 4.42609 22.1573 4.83072 22.1573 4.83072C22.789 5.96821 22.8199 7.01693 22.6011 7.89224C22.5247 8.19777 22.4174 8.48266 22.2956 8.74071C22.246 8.84393 22.1944 8.94302 22.1428 9.04005C21.9033 9.47151 21.635 9.82039 21.4203 10.064C22.0912 10.2333 22.7126 10.6854 23.2514 11.3666C23.0904 11.3398 22.9335 11.3171 22.7848 11.2985C22.758 11.2964 22.7291 11.2923 22.7023 11.2903L22.6279 11.2035C22.2233 10.737 21.7733 10.3964 21.2964 10.2023C21.1519 10.1445 21.0053 10.1012 20.8567 10.0702C21.1147 9.72956 21.3191 9.3621 21.4554 8.97192C21.4987 8.84806 21.5338 8.72006 21.5648 8.59001C21.2634 8.88315 20.8897 9.09579 20.4748 9.19488C20.675 9.07721 20.8608 8.9327 21.0198 8.76135C21.0301 8.75309 21.0383 8.7469 21.0466 8.73452C21.3563 8.42279 21.5792 8.02229 21.6763 7.57225C21.7155 7.40091 21.7361 7.22337 21.7361 7.03963C21.7361 6.8559 21.7134 6.66391 21.6721 6.48637C21.5503 5.95376 21.253 5.48926 20.8464 5.16102H20.8443C20.4438 4.83278 19.938 4.63873 19.3848 4.63873C19.3497 4.63873 19.3104 4.63873 19.2753 4.64079C19.1783 4.64698 19.0834 4.65731 18.9905 4.67382C19.04 4.65111 19.0916 4.6284 19.1432 4.60983C19.2898 4.55409 19.4467 4.5128 19.6036 4.49009C19.2237 4.33732 18.7737 4.263 18.2555 4.35384C18.2555 4.35384 18.4537 4.07721 18.8645 3.96367V3.95747C18.0408 3.57968 17.085 3.36292 16.0673 3.36292C13.8418 3.36292 11.9219 4.391 11.0239 5.87737C10.772 6.29025 10.6007 6.73823 10.5264 7.21305C10.4975 7.3782 10.483 7.54129 10.4789 7.71057C10.6069 7.54954 10.7328 7.40916 10.7328 7.40916L10.289 8.49298L10.6234 8.79232L11.5379 9.61395L11.6907 9.7502L11.315 11.5793C11.315 11.5793 11.4471 12.6775 11.9013 13.559C11.9116 13.5797 11.924 13.6003 11.9343 13.621C12.4834 14.552 13.1833 14.8204 13.2679 14.8514L12.9562 15.3716C12.9562 15.3716 12.9789 15.3571 13.0161 15.3365C13.0966 15.289 13.2431 15.2085 13.3794 15.1548C13.4331 15.1342 13.4867 15.1177 13.5342 15.1094C13.5342 15.1094 13.5198 15.1424 13.495 15.1982C13.4351 15.3406 13.3113 15.6317 13.208 15.9145V15.9187C13.208 15.9187 13.2039 15.9372 13.2018 15.9455C13.7799 15.5305 14.4446 15.2023 15.1796 15.0805C15.1796 15.0805 15.3695 13.9141 16.0445 12.8695L13.2658 14.5892C13.2555 14.5871 13.2493 14.5851 13.2369 14.583L12.3018 13.0306L11.7052 12.0396L11.6556 11.9529L11.4182 11.5607L12.2914 9.91329L11.8559 9.36209L11.0425 8.32783C11.6246 8.35054 12.1903 8.50537 12.7002 8.782C12.8241 8.84806 12.9459 8.92238 13.0635 9.00495L12.8901 9.39925L13.6044 8.77787C14.2382 8.31544 14.9876 8.03262 15.7679 7.96036L15.9578 7.94178L15.2064 9.40545L15.9165 10.5202L16.6453 11.6618L16.7898 11.1437L17.0251 11.5153L17.1573 11.7217C17.4628 11.5277 17.8117 11.379 18.2122 11.3068C16.8414 11.9447 16.1829 13.5611 15.9165 14.4509C15.8051 14.8183 15.7617 15.0599 15.7617 15.0599C15.7308 15.064 15.6998 15.0702 15.6709 15.0764C14.6573 15.2684 13.7819 15.8526 13.0862 16.4988C11.957 17.5516 11.3005 18.7758 11.3005 18.7758C11.1994 18.6767 11.0693 18.5673 10.9227 18.4538C10.7844 18.3485 10.6317 18.2391 10.4665 18.1276C9.33521 17.3555 7.72497 16.5153 7.72497 16.5153C7.69194 16.4884 7.66097 16.4637 7.63207 16.4368C7.16758 16.0198 7.21506 15.5904 7.28112 15.3757C7.31209 15.2787 7.30177 15.1775 7.25429 15.0867C6.76502 14.1453 6.91985 13.0202 6.91985 13.0202L6.7196 13.045C6.7196 13.045 6.62051 12.7436 6.61845 12.7415C6.47394 12.3741 6.28195 12.019 6.04661 11.6846L5.98674 11.6061C5.95577 11.5628 5.92274 11.5215 5.89178 11.4802C5.84842 11.4224 5.80301 11.3666 5.75552 11.3109C5.70804 11.2531 5.65643 11.1953 5.60482 11.1396C5.59656 11.1272 5.58624 11.1168 5.57592 11.1065C5.43554 10.9558 5.28277 10.8092 5.12382 10.673C5.08872 10.642 5.05363 10.6131 5.01853 10.5863C4.97311 10.5491 4.92976 10.514 4.88228 10.4789C4.83686 10.4418 4.78938 10.4067 4.7419 10.3737C4.69648 10.3386 4.64694 10.3035 4.59946 10.2725C4.5561 10.2415 4.51275 10.2126 4.46733 10.1858C4.40334 10.1445 4.33934 10.1053 4.27328 10.0661C4.2196 10.0351 4.16386 10.0041 4.11019 9.97316C4.05858 9.94632 4.00903 9.91949 3.95949 9.89471C3.85627 9.8431 3.75305 9.79356 3.6457 9.74814C3.62092 9.73575 3.59615 9.72543 3.57344 9.71511C3.54867 9.70479 3.52596 9.69653 3.50119 9.68621C3.47435 9.67382 3.44339 9.6635 3.41448 9.65318C3.3959 9.64492 3.37732 9.63873 3.35875 9.63253L3.34636 9.6284C3.30094 9.60982 3.25346 9.59125 3.20598 9.57473C3.16056 9.55822 3.11308 9.5417 3.0656 9.52518C3.06147 9.52518 3.05734 9.52518 3.05321 9.52106C2.99334 9.50454 2.93554 9.4839 2.87774 9.46119C2.84058 9.4488 2.80342 9.43435 2.76626 9.41783C2.73942 9.40751 2.71052 9.39719 2.68162 9.38687L2.65478 9.37448C2.62794 9.3621 2.60111 9.34971 2.57427 9.33939C2.51027 9.31461 2.44628 9.28984 2.38434 9.26713C2.32035 9.24442 2.25429 9.22378 2.19235 9.20314C2.149 9.19075 2.10358 9.17836 2.06023 9.16598C2.00656 9.14946 1.94875 9.13501 1.89508 9.12262H1.89095C1.87237 9.11643 1.85379 9.1123 1.83521 9.10817C1.77947 9.09579 1.72373 9.08546 1.66799 9.07514C1.62464 9.06688 1.57922 9.05863 1.53587 9.0545C1.51936 9.05037 1.50491 9.04831 1.48839 9.04624C1.48426 9.04624 1.4822 9.04624 1.476 9.04624C1.46981 9.04418 1.46568 9.04211 1.45949 9.04211C1.4471 9.04005 1.43265 9.03798 1.42026 9.03798C1.4182 9.03592 1.41407 9.03592 1.40994 9.03798H1.39549L1.39343 9.03592C1.38517 9.03592 1.37898 9.03592 1.36453 9.03798C1.34182 9.03592 1.32117 9.03798 1.29846 9.04005C1.28195 9.04211 1.26543 9.04211 1.25098 9.04418C1.07138 9.06276 0.902098 9.14946 0.780297 9.28778C0.757589 9.31255 0.736945 9.33939 0.718365 9.36829C0.695657 9.39925 0.675013 9.43435 0.656433 9.47151C0.646111 9.49215 0.637853 9.5128 0.633724 9.53138C0.627531 9.54789 0.625467 9.56647 0.623402 9.58505C0.623402 9.60157 0.621338 9.61808 0.621338 9.63666C0.623402 9.71717 0.648175 9.79975 0.695657 9.88233C0.70185 9.89678 0.710108 9.91123 0.718365 9.92568C0.732816 9.95045 0.749331 9.97316 0.767911 9.99587C0.790619 10.0227 0.813328 10.0495 0.840165 10.0743C0.852552 10.0888 0.864938 10.0991 0.877325 10.1115C0.881453 10.1156 0.885582 10.1177 0.889711 10.1218C0.889711 10.1218 0.889711 10.1239 0.891776 10.1239C0.900033 10.1321 0.91242 10.1404 0.920677 10.1486C0.930999 10.1569 0.941321 10.1652 0.951643 10.1713C0.951643 10.1713 0.951643 10.1734 0.953708 10.1734C0.970223 10.1879 0.990867 10.2023 1.00945 10.2147C1.03835 10.2374 1.06519 10.258 1.09202 10.2766C1.09409 10.2766 1.09409 10.2787 1.09615 10.2808L1.1106 10.2952C1.1106 10.2952 1.11886 10.2993 1.12092 10.3014C1.18079 10.3489 1.24479 10.3984 1.30879 10.45C1.33562 10.4707 1.3604 10.4934 1.38723 10.5161C1.40994 10.5347 1.43059 10.5533 1.45329 10.5718C1.49665 10.6069 1.53794 10.642 1.57716 10.6751C1.60193 10.6957 1.62464 10.7184 1.64941 10.737C1.68864 10.7742 1.72993 10.8051 1.76296 10.8381C1.76709 10.8423 1.76915 10.8423 1.77121 10.8443C1.80424 10.8712 1.83315 10.898 1.85792 10.9207C1.88269 10.9434 1.90127 10.9599 1.91779 10.9744C1.92192 10.9765 1.92604 10.9806 1.92811 10.9827C1.93843 10.993 1.94669 10.9992 1.95288 11.0054C1.95495 11.0074 1.95701 11.0095 1.95701 11.0116C1.95908 11.0116 1.96114 11.0136 1.96114 11.0136H1.9632C2.01275 11.0528 2.0623 11.09 2.10978 11.1313C2.2068 11.2077 2.2997 11.2882 2.39054 11.3708C2.42976 11.4059 2.46898 11.4451 2.50821 11.4822C2.54743 11.5194 2.58459 11.5586 2.62175 11.5979C2.65478 11.6309 2.68575 11.6639 2.71878 11.6969C2.81168 11.8002 2.90251 11.9054 2.98715 12.0128C2.99334 12.0211 2.99954 12.0272 3.00573 12.0355C3.05115 12.0933 3.09656 12.1532 3.13785 12.211C3.18121 12.2688 3.22043 12.3245 3.25759 12.3823C3.26172 12.3885 3.26585 12.3947 3.26998 12.4009C3.28855 12.4257 3.30301 12.4525 3.32159 12.4773C3.32571 12.4835 3.32778 12.4855 3.33191 12.4917L3.25552 12.5888L3.14818 12.723C3.13166 12.7436 3.11721 12.7663 3.10482 12.789C3.05734 12.8737 3.03876 12.9727 3.05321 13.0698C3.05528 13.0925 3.06147 13.1173 3.06766 13.14L3.20598 13.5962L2.81581 14.1144C2.7291 14.232 2.71878 14.3869 2.78897 14.5149L2.88806 14.6903L2.67543 14.8679C2.47311 15.0372 2.40912 15.3241 2.52266 15.5656L3.13372 16.8724C3.13372 16.8724 2.84677 16.9653 2.53711 16.7857C2.45247 16.7382 2.35957 16.7135 2.26254 16.7135H2.15107C2.05404 16.7135 1.98385 16.8022 2.00449 16.8972L2.23571 17.9542C2.26048 18.0656 2.37402 18.1379 2.4855 18.1049C2.59285 18.0739 2.70639 18.014 2.72084 17.9005C2.72084 17.9005 4.24025 17.9377 4.6779 17.8592L5.36742 18.2783L6.7258 20.6296C7.28112 21.5896 7.94999 22.3658 8.6106 22.9789L9.91944 24.0318H9.9215C10.803 24.6449 11.4616 24.9133 11.4616 24.9133L11.3872 24.6078L11.2716 24.1226L11.7691 24.455L12.1469 24.7068C12.2708 24.488 12.5433 24.2196 12.9066 23.9265C13.3009 23.6065 13.8026 23.2597 14.3373 22.9149C16.0074 21.8373 17.9933 20.7948 17.9933 20.7948C20.7266 19.6718 22.118 18.2267 22.7683 16.8167C22.3265 18.4847 20.9847 20.32 17.6734 21.6784C17.6734 21.6784 16.1787 22.4608 14.6924 23.3712C15.1052 23.8625 15.5429 24.2795 15.9207 24.6016C16.4987 25.097 17.2398 25.3613 18.0016 25.3592C18.111 25.3592 18.2204 25.3571 18.3278 25.3509C23.1358 25.1383 26.4698 20.4294 25.2477 15.7742C25.0846 15.1507 24.9029 14.5644 24.7233 14.1846C24.6903 14.1123 24.6552 14.0421 24.6201 13.9719C24.2485 13.2349 23.8129 12.628 23.3319 12.1862C23.0945 11.9653 22.8468 11.7836 22.5908 11.6474C22.4421 11.5153 22.2791 11.4079 22.1077 11.3212C22.7064 11.3811 23.2762 11.6742 23.7923 12.1573C24.2464 12.5743 24.6593 13.1358 25.0144 13.8171C25.0722 13.7386 25.1259 13.6623 25.1775 13.5859C25.8587 12.5805 26.0383 11.7486 26.0528 11.668C25.8009 12.213 24.9566 12.8737 24.9029 12.9149C25.4479 12.3885 25.9393 11.251 26.2819 10.2973C26.5895 9.44674 26.7774 8.74071 26.7774 8.74071H26.7733ZM3.2803 12.0355C3.26998 12.0211 3.25759 12.0066 3.24727 11.9922C3.21424 11.9509 3.18121 11.9116 3.14818 11.8724C3.05528 11.763 2.95619 11.6577 2.85503 11.5545C2.6651 11.3625 2.45866 11.1808 2.23777 11.0136H2.23571C2.23571 11.0136 2.23364 11.0095 2.23158 11.0095C2.22332 11.0033 2.2068 10.9868 2.1841 10.9661C2.04578 10.8423 1.67212 10.514 1.38723 10.2931C1.3831 10.289 1.37691 10.2849 1.37278 10.2808C1.37278 10.2808 1.37072 10.2794 1.36659 10.2766C1.33975 10.258 1.31292 10.2353 1.28401 10.2147C1.2675 10.2002 1.24685 10.1879 1.22827 10.1734H1.22621C1.05486 10.0495 0.951643 9.89471 0.91242 9.75227C0.986738 9.82865 1.07344 9.86994 1.07344 9.86994C1.87031 10.3014 2.50201 10.8196 2.99954 11.3604C3.04495 11.41 3.08831 11.4595 3.13166 11.507C3.19566 11.5834 3.25759 11.6577 3.31952 11.732C3.32984 11.7486 3.34223 11.763 3.35462 11.7795C3.46197 11.9137 3.56312 12.052 3.65396 12.1883C3.65602 12.1903 3.65808 12.1903 3.65602 12.1924C3.66841 12.2069 3.68079 12.2254 3.69111 12.2419C3.70557 12.2626 3.72002 12.2832 3.7324 12.3039C3.75511 12.339 3.77576 12.372 3.7964 12.405C3.80466 12.4174 3.81291 12.4298 3.81704 12.4401C3.82324 12.4463 3.82737 12.4546 3.83149 12.4587C3.84801 12.4855 3.8604 12.5103 3.87691 12.533C3.99458 12.7312 4.09987 12.9253 4.1907 13.1111C3.92026 12.8324 3.70144 12.5888 3.57757 12.4484H3.57551C3.55073 12.405 3.52183 12.3637 3.49293 12.3245C3.48467 12.3121 3.47848 12.2998 3.46609 12.2874C3.40829 12.2007 3.34636 12.116 3.2803 12.0355ZM3.68699 17.6362C3.55899 17.6115 3.42481 17.6239 3.29681 17.6569C3.22043 17.6775 3.1296 17.694 3.04083 17.7023C3.01192 17.7044 2.98096 17.7064 2.94999 17.7064C2.90045 17.7064 2.85296 17.7023 2.80755 17.692C2.73323 17.6755 2.65685 17.6899 2.59491 17.7353C2.56188 17.7601 2.52472 17.7787 2.48756 17.7808H2.48137C2.46073 17.7808 2.44008 17.7746 2.4215 17.7601V17.756L2.27287 17.0665L2.47931 17.0272C2.47931 17.0272 2.63001 17.2461 3.28443 17.0438C3.29475 17.0417 3.30507 17.0396 3.31539 17.0376L4.30631 17.6383C4.11845 17.659 3.87691 17.6713 3.68699 17.6362ZM6.39343 14.6078L6.17047 14.6738C5.71836 14.5355 5.07221 13.9822 4.52514 13.4476C4.50449 13.3856 4.48385 13.3299 4.4632 13.2762C4.35998 13.0078 4.27947 12.8324 4.27947 12.8324C4.1969 12.6796 4.10813 12.531 4.02142 12.3885C4.01729 12.3844 4.01316 12.3782 4.0111 12.3741C4.00491 12.3637 3.99871 12.3555 3.99458 12.3452C3.98839 12.3369 3.98426 12.3307 3.98013 12.3225C3.95742 12.2874 3.93265 12.2502 3.91201 12.2151C3.89962 12.1965 3.88517 12.18 3.87485 12.1594C3.87278 12.1594 3.87072 12.1552 3.87072 12.1532C3.8542 12.1305 3.83975 12.1078 3.8253 12.0851C3.81911 12.0789 3.81498 12.0747 3.81291 12.0685C3.7035 11.9075 3.59202 11.7547 3.47848 11.6102C3.47022 11.5999 3.46197 11.5896 3.45371 11.5813C3.42481 11.5421 3.39797 11.507 3.367 11.4699C2.4215 10.2993 1.48633 9.73162 1.48633 9.73162C2.88806 9.99793 3.83356 10.6854 4.28154 11.0859C4.38063 11.1726 4.39921 11.1354 4.32902 11.059C3.70144 10.3695 2.65685 9.8142 2.65685 9.8142C2.47311 9.70272 2.30796 9.61395 2.15313 9.54376C2.25016 9.57679 2.34925 9.61189 2.44421 9.65111C2.47105 9.66144 2.49995 9.67176 2.52472 9.68621L2.55569 9.69653C2.67543 9.74814 2.80135 9.79356 2.92522 9.83072C3.06973 9.8782 3.20804 9.92981 3.35049 9.98555C3.88104 10.2023 4.36411 10.4872 4.78732 10.8216C4.94008 10.9393 5.08253 11.0652 5.21671 11.1974C5.23116 11.2077 5.24562 11.2221 5.258 11.2366C5.35709 11.3336 5.45206 11.4348 5.54289 11.538C5.56353 11.5628 5.58418 11.5875 5.60482 11.6102L5.60895 11.6164C5.71011 11.7362 5.80507 11.86 5.89384 11.986C6.05486 12.2151 6.19524 12.4505 6.31498 12.6961C6.3604 12.8159 6.46155 13.1565 6.46362 13.1627C6.25718 13.4228 6.31911 13.8584 6.40581 14.1763V14.1825C6.46568 14.4034 6.53587 14.5644 6.53587 14.5644L6.39343 14.6078ZM19.8802 8.54253C19.8802 8.54253 19.3827 8.4104 19.3827 7.91082C19.3827 7.91082 19.5355 7.57845 19.5478 7.16556C19.552 7.07267 19.5478 6.97564 19.5334 6.87861C19.5334 6.87861 19.1329 5.59661 19.8802 5.69364C19.8802 5.69364 19.8926 5.69364 19.9174 5.69364C19.9194 5.69364 19.9215 5.69364 19.9236 5.69777H19.9298C19.9298 5.69777 19.9339 5.69364 19.936 5.69777C20.0165 5.7019 20.1796 5.73493 20.4087 5.87531H20.4108C20.5202 5.94137 20.642 6.02807 20.7762 6.14987C20.772 6.13749 20.739 6.07349 20.6771 5.98885C20.4954 5.72873 20.0639 5.26424 19.3827 5.38191C19.3827 5.38191 19.8616 4.71717 20.8918 5.73286C20.8918 5.73286 21.0569 5.92485 21.1952 6.23039C21.3398 6.55037 21.4554 6.99628 21.3232 7.47729C21.2407 7.78076 21.059 8.10074 20.7204 8.4104C20.7204 8.4104 20.4149 8.69736 19.8802 8.54253Z" fill="#240F0D"/>
</g>
<defs>
<clipPath id="clip0_561_19694">
<rect width="30" height="30" fill="white"/>
</clipPath>
</defs>
</svg>
