<svg width="30" height="30" viewBox="0 0 30 30" fill="none" xmlns="http://www.w3.org/2000/svg">
<g clip-path="url(#clip0_279_17717)">
<path d="M11.6445 26.5941C12.0865 26.301 10.9288 26.4115 10.8327 26.2146C10.3743 26.1763 9.92071 26.0943 9.478 25.9696C8.64694 25.7582 6.67736 24.4275 6.4708 23.1785C6.26423 21.9295 6.4708 19.5036 7.3499 18.0817C7.91138 17.2103 8.6336 16.4539 9.478 15.8527C9.478 15.8527 7.76303 11.7742 7.61411 8.69496C7.46519 5.61569 7.68617 0.10088 9.723 -8.15489e-07C11.7598 -0.100882 11.3995 5.03443 11.0777 8.3731C10.8712 10.5913 10.8374 12.8222 10.9768 15.0456C11.8332 14.7717 12.7247 14.6229 13.6237 14.6037C14.4143 14.5857 15.2042 14.6599 15.9776 14.8247C15.9776 14.8247 16.6117 10.0881 18.735 7.13851C20.8583 4.18895 23.0585 1.15292 24.4996 2.01281C25.9408 2.8727 24.1105 5.94716 22.8375 7.54684C21.5645 9.14652 19.3547 11.5484 18.6197 12.8311C18.1387 13.685 17.7135 14.5691 17.3467 15.478C18.658 16.1517 19.731 17.2113 20.4212 18.514C21.4155 20.5701 21.5116 23.1209 20.9736 24.197C20.6933 24.6957 20.3064 25.1264 19.8406 25.4586C19.3748 25.7907 18.8415 26.016 18.2786 26.1185C17.6445 26.1665 14.9592 26.8295 14.9592 26.8295L11.6445 26.5941Z" fill="white"/>
<path d="M16.333 14.8631C16.333 14.8631 17.9327 10.6838 19.369 8.32987C20.8054 5.97598 22.7317 4.20337 23.337 4.56365C23.9423 4.92394 22.0976 7.13371 20.4931 9.28103C19.1756 11.1831 17.9818 13.168 16.9191 15.2234L16.333 14.8631Z" fill="#DD00A1"/>
<path d="M9.91515 15.5837L10.3715 15.2234C10.3715 15.2234 10.3091 11.044 10.3715 8.49801C10.434 5.95198 10.5685 2.77664 9.7182 2.81026C8.86792 2.84389 8.27704 5.28424 8.60851 8.75742C8.8536 11.0652 9.29066 13.3485 9.91515 15.5837Z" fill="#DD00A1"/>
<path d="M8.4787 24.5524C8.9934 24.5524 9.41064 24.1352 9.41064 23.6205C9.41064 23.1058 8.9934 22.6885 8.4787 22.6885C7.964 22.6885 7.54675 23.1058 7.54675 23.6205C7.54675 24.1352 7.964 24.5524 8.4787 24.5524Z" fill="#F9D8D2"/>
<path d="M19.4892 24.5524C20.0039 24.5524 20.4211 24.1352 20.4211 23.6205C20.4211 23.1058 20.0039 22.6885 19.4892 22.6885C18.9745 22.6885 18.5573 23.1058 18.5573 23.6205C18.5573 24.1352 18.9745 24.5524 19.4892 24.5524Z" fill="#F9D8D2"/>
<path d="M15.5308 23.5389C15.5142 23.5243 15.4928 23.5163 15.4707 23.5163C15.4487 23.5163 15.4273 23.5243 15.4107 23.5389C15.4107 23.5389 15.1369 24.0192 14.7333 24.0481C14.5968 24.0435 14.4625 24.0113 14.3387 23.9535C14.2149 23.8958 14.104 23.8135 14.0128 23.7118V23.0585C14.2722 22.9192 14.6901 22.4868 14.6901 22.3379C14.6545 22.1778 14.5616 22.0361 14.4289 21.9397C14.2962 21.8433 14.1328 21.7987 13.9695 21.8143C13.4891 21.8143 13.1529 22.1265 13.1529 22.3859C13.1529 22.6453 13.6813 22.9768 13.8302 23.0777V23.7742C13.7565 23.8719 13.6625 23.9526 13.5547 24.0106C13.4469 24.0686 13.3279 24.1027 13.2057 24.1105C12.8214 24.1105 12.5332 23.5917 12.5332 23.5869C12.522 23.5663 12.5032 23.5508 12.4808 23.5436C12.4585 23.5364 12.4342 23.5382 12.4131 23.5485C12.394 23.5587 12.3795 23.5758 12.3724 23.5962C12.3652 23.6167 12.3661 23.6391 12.3747 23.659C12.3747 23.6878 12.7157 24.2786 13.2057 24.2786C13.3432 24.274 13.4783 24.2408 13.6023 24.1813C13.7263 24.1218 13.8367 24.0371 13.9263 23.9328C14.1293 24.1393 14.4011 24.2641 14.6901 24.2835H14.7574C14.9302 24.2505 15.0936 24.1796 15.2357 24.0757C15.3778 23.9719 15.495 23.8377 15.5788 23.683C15.5944 23.6669 15.6031 23.6453 15.6031 23.6229C15.6031 23.6005 15.5944 23.579 15.5788 23.5629C15.5649 23.5512 15.5485 23.543 15.5308 23.5389Z" fill="#10110E"/>
<path d="M9.47795 15.8527C9.47795 15.8527 8.16651 12.49 7.88788 10.7078C7.60926 8.92552 7.4075 6.00959 7.74377 4.05443C7.87884 3.14839 8.06976 2.25157 8.31542 1.36908C8.31542 1.36908 7.68612 5.92793 7.92151 7.92152C8.1569 9.91512 9.47795 15.8527 9.47795 15.8527Z" fill="#E5E5E5"/>
<path d="M15.9775 14.8199C15.9775 14.8199 16.9383 9.73262 18.3362 7.72942C19.7341 5.72621 21.4875 3.31468 22.3474 2.69979L23.2217 2.0849C23.2217 2.0849 19.6957 5.76464 18.3362 8.81028C16.9767 11.8559 15.9775 14.8199 15.9775 14.8199Z" fill="#E5E5E5"/>
<path d="M10.3763 20.5845C10.2319 20.5845 10.0907 20.6273 9.97063 20.7075C9.85056 20.7878 9.75697 20.9018 9.7017 21.0352C9.64643 21.1687 9.63197 21.3155 9.66015 21.4571C9.68832 21.5988 9.75787 21.7289 9.85998 21.831C9.9621 21.9331 10.0922 22.0026 10.2339 22.0308C10.3755 22.059 10.5223 22.0445 10.6557 21.9893C10.7892 21.934 10.9032 21.8404 10.9834 21.7203C11.0637 21.6002 11.1065 21.4591 11.1065 21.3147C11.1065 21.1227 11.0309 20.9384 10.896 20.8017C10.7612 20.665 10.5779 20.587 10.3859 20.5845H10.3763ZM10.5685 21.2618C10.5286 21.2618 10.4895 21.25 10.4564 21.2278C10.4232 21.2056 10.3973 21.1741 10.3821 21.1373C10.3668 21.1004 10.3628 21.0598 10.3706 21.0207C10.3784 20.9816 10.3976 20.9456 10.4258 20.9174C10.454 20.8892 10.49 20.87 10.5291 20.8622C10.5682 20.8544 10.6088 20.8584 10.6457 20.8736C10.6825 20.8889 10.714 20.9148 10.7362 20.948C10.7584 20.9811 10.7702 21.0201 10.7702 21.0601C10.7709 21.0866 10.7663 21.1129 10.7567 21.1376C10.7472 21.1624 10.7328 21.185 10.7145 21.2041C10.6962 21.2233 10.6744 21.2387 10.6501 21.2494C10.6259 21.2602 10.5998 21.266 10.5733 21.2666L10.5685 21.2618Z" fill="#10110E"/>
<path d="M17.558 20.5845C17.4136 20.5835 17.2721 20.6254 17.1515 20.7049C17.0309 20.7843 16.9366 20.8977 16.8804 21.0308C16.8243 21.1639 16.8089 21.3106 16.8361 21.4524C16.8634 21.5942 16.932 21.7248 17.0335 21.8276C17.1349 21.9304 17.2646 22.0008 17.406 22.0299C17.5475 22.059 17.6944 22.0455 17.8282 21.9911C17.9619 21.9367 18.0766 21.8439 18.1576 21.7243C18.2386 21.6048 18.2824 21.4639 18.2834 21.3195C18.284 21.2236 18.2657 21.1285 18.2296 21.0397C18.1935 20.9508 18.1402 20.87 18.0729 20.8017C18.0055 20.7335 17.9254 20.6792 17.837 20.6419C17.7487 20.6046 17.6539 20.5851 17.558 20.5845ZM17.7741 21.2618C17.7476 21.2625 17.7213 21.2579 17.6966 21.2483C17.6718 21.2388 17.6492 21.2244 17.6301 21.2062C17.6109 21.1879 17.5955 21.166 17.5848 21.1417C17.574 21.1175 17.5682 21.0914 17.5676 21.0649C17.5675 21.0117 17.588 20.9606 17.6246 20.9221C17.6613 20.8836 17.7114 20.8608 17.7645 20.8583C17.791 20.8577 17.8174 20.8623 17.8421 20.8718C17.8668 20.8814 17.8894 20.8957 17.9086 20.914C17.9278 20.9323 17.9432 20.9542 17.9539 20.9784C17.9646 21.0027 17.9705 21.0288 17.9711 21.0553C17.9717 21.0811 17.9673 21.1069 17.958 21.131C17.9486 21.1552 17.9347 21.1772 17.9168 21.196C17.899 21.2147 17.8776 21.2297 17.854 21.2402C17.8303 21.2507 17.8048 21.2564 17.7789 21.257L17.7741 21.2618Z" fill="#10110E"/>
<path opacity="0.2" d="M14.1041 26.474C17.845 26.474 20.8775 24.2888 20.8775 21.5933C20.8775 18.8978 17.845 16.7126 14.1041 16.7126C10.3633 16.7126 7.33069 18.8978 7.33069 21.5933C7.33069 24.2888 10.3633 26.474 14.1041 26.474Z" fill="#8ACCCE"/>
<path d="M22.3042 18.8791V15.6509C22.5565 15.5933 22.7829 15.4544 22.9487 15.2557C23.1144 15.057 23.2104 14.8093 23.2218 14.5508C23.1884 14.2384 23.0406 13.9493 22.807 13.7393C22.5733 13.5292 22.2702 13.413 21.956 13.413C21.6417 13.413 21.3386 13.5292 21.105 13.7393C20.8713 13.9493 20.7235 14.2384 20.6901 14.5508C20.7037 14.8102 20.8015 15.058 20.9689 15.2566C21.1363 15.4552 21.364 15.5936 21.6173 15.6509V18.7974H21.5212C20.5604 15.4635 17.7214 13.3787 14.0128 13.3787C10.3042 13.3787 7.45075 15.4443 6.5092 18.7974H6.18734C5.84035 18.7816 5.501 18.9026 5.24228 19.1343C4.98356 19.3661 4.82613 19.6902 4.80383 20.0368V22.506C4.82369 22.8539 4.98024 23.1799 5.23938 23.413C5.49852 23.646 5.83924 23.7672 6.18734 23.7502H6.62449C6.99135 24.6964 7.58329 25.539 8.34907 26.2049L7.72937 26.767C7.69182 26.7988 7.6609 26.8377 7.6384 26.8815C7.6159 26.9253 7.60225 26.9731 7.59823 27.0222C7.59422 27.0713 7.59992 27.1207 7.615 27.1676C7.63008 27.2144 7.65426 27.2579 7.68614 27.2954C9.09367 28.9912 11.3947 29.9855 13.9936 29.9855C16.5925 29.9855 18.8983 29.0248 20.3058 27.2954C20.3705 27.2188 20.4023 27.1198 20.3942 27.0199C20.3861 26.92 20.3388 26.8273 20.2626 26.7622L19.6381 26.1905C20.402 25.5286 20.9938 24.6912 21.3627 23.7502H21.8431C22.1915 23.7671 22.5324 23.6451 22.7909 23.411C23.0494 23.1768 23.2044 22.8495 23.2218 22.5012V20.0368C23.2133 19.7709 23.1196 19.5148 22.9543 19.3063C22.7891 19.0978 22.5612 18.948 22.3042 18.8791ZM14.0128 16.9575C17.4427 16.9575 20.229 19.2153 20.229 21.9871C20.229 24.9896 17.1017 26.3106 14.0128 26.3106C10.9239 26.3106 7.79663 24.9799 7.79663 21.9631C7.79663 19.2153 10.5684 16.9335 14.0128 16.9335V16.9575Z" fill="white"/>
<path d="M22.5348 21.6941H21.6173V21.2138C21.6173 20.6021 21.5545 19.992 21.4299 19.3931H21.8238C21.9952 19.3812 22.1642 19.4377 22.2939 19.5503C22.4236 19.6629 22.5033 19.8223 22.5156 19.9936L22.5348 21.6941Z" fill="#515151"/>
<path d="M21.8431 23.1449H21.3627C21.4539 22.8009 21.5213 22.451 21.5644 22.0977H22.5252V22.506C22.5239 22.5905 22.5061 22.674 22.4725 22.7516C22.439 22.8292 22.3906 22.8995 22.3299 22.9584C22.2692 23.0172 22.1975 23.0636 22.119 23.0948C22.0404 23.126 21.9564 23.1414 21.8719 23.1401H21.8431V23.1449Z" fill="#515151"/>
<path d="M14.0129 29.3515C11.7118 29.3515 9.6606 28.5252 8.37317 27.0553L8.99767 26.474C10.474 27.4593 12.2194 27.9628 13.9937 27.9152C15.7685 27.9673 17.5153 27.4634 18.9897 26.474L19.6382 27.0553C18.3652 28.5252 16.3331 29.3515 14.0129 29.3515Z" fill="#515151"/>
<path d="M6.18734 19.4171H6.59567C6.47503 20.0165 6.41389 20.6264 6.41312 21.2378C6.40352 21.3978 6.40352 21.5582 6.41312 21.7182H5.51961V20.0368C5.51703 19.8758 5.5782 19.7203 5.68978 19.6042C5.80137 19.4882 5.95431 19.4209 6.11529 19.4171H6.18734Z" fill="#515151"/>
<path d="M14.0128 16.5204C13.2342 16.5248 12.46 16.6364 11.7118 16.8519V14.3395C12.4606 14.1294 13.2352 14.0259 14.0128 14.0321C14.7921 14.0259 15.5683 14.1294 16.3187 14.3395V16.8663C15.5723 16.6338 14.7946 16.5171 14.0128 16.5204Z" fill="black"/>
<path d="M5.49565 22.0977H6.45642C6.50349 22.4475 6.57248 22.7941 6.66298 23.1353H6.1826C6.01129 23.1472 5.84225 23.0906 5.71257 22.9781C5.58289 22.8655 5.50315 22.7061 5.49084 22.5348V22.0977H5.49565Z" fill="#515151"/>
<path d="M21.9584 15.0697C22.2768 15.0697 22.5349 14.8374 22.5349 14.5509C22.5349 14.2643 22.2768 14.032 21.9584 14.032C21.64 14.032 21.382 14.2643 21.382 14.5509C21.382 14.8374 21.64 15.0697 21.9584 15.0697Z" fill="#515151"/>
</g>
<defs>
<clipPath id="clip0_279_17717">
<rect width="30" height="30" fill="white"/>
</clipPath>
</defs>
</svg>
