<svg width="30" height="30" viewBox="0 0 30 30" fill="none" xmlns="http://www.w3.org/2000/svg">
<path d="M10.4182 2.04499H18.5551L10.1082 27.0722C10.0214 27.3293 9.85615 27.5528 9.63567 27.7111C9.41519 27.8694 9.15061 27.9546 8.87918 27.9547H2.54668C2.34103 27.9547 2.13833 27.9058 1.95534 27.8119C1.77236 27.718 1.61435 27.5819 1.4944 27.4149C1.37444 27.2479 1.29598 27.0547 1.26551 26.8513C1.23505 26.6479 1.25344 26.4402 1.31918 26.2453L9.18887 2.92749C9.27565 2.67021 9.44096 2.44664 9.6615 2.28826C9.88205 2.12989 10.1467 2.04469 10.4182 2.04468V2.04499Z" fill="url(#paint0_linear_269_12817)"/>
<path d="M22.2422 18.8315H9.33906C9.2191 18.8314 9.10188 18.8674 9.00267 18.9348C8.90346 19.0023 8.82686 19.098 8.78285 19.2096C8.73884 19.3212 8.72946 19.4435 8.75593 19.5605C8.7824 19.6775 8.84349 19.7838 8.93125 19.8656L17.2225 27.6044C17.4639 27.8295 17.7817 27.9547 18.1119 27.9547H25.4181L22.2422 18.8315Z" fill="#0078D4"/>
<path d="M10.4181 2.04499C10.1436 2.04394 9.87594 2.13068 9.65426 2.29254C9.43257 2.45441 9.26845 2.68291 9.18587 2.94468L1.32868 26.2241C1.25852 26.4196 1.23649 26.6292 1.26446 26.8351C1.29243 27.041 1.36958 27.2371 1.48938 27.4069C1.60917 27.5766 1.7681 27.715 1.9527 27.8104C2.1373 27.9058 2.34216 27.9552 2.54993 27.9547H9.04587C9.28781 27.9115 9.51393 27.8048 9.70115 27.6456C9.88837 27.4863 10.03 27.2803 10.1115 27.0484L11.6784 22.4306L17.2752 27.6509C17.5098 27.8449 17.804 27.9522 18.1084 27.9547H25.3874L22.1949 18.8316L12.8884 18.8337L18.5843 2.04499H10.4181Z" fill="url(#paint1_linear_269_12817)"/>
<path d="M20.8108 2.92623C20.7242 2.66937 20.5591 2.44617 20.3389 2.28807C20.1187 2.12997 19.8544 2.04495 19.5833 2.04498H10.5149C10.786 2.045 11.0502 2.13004 11.2704 2.28813C11.4906 2.44622 11.6557 2.66939 11.7424 2.92623L19.6124 26.245C19.6782 26.4399 19.6966 26.6476 19.6662 26.8511C19.6357 27.0545 19.5573 27.2478 19.4373 27.4149C19.3174 27.582 19.1594 27.7181 18.9764 27.8121C18.7933 27.906 18.5906 27.955 18.3849 27.955H27.4536C27.6593 27.9549 27.862 27.9059 28.045 27.812C28.228 27.718 28.386 27.5819 28.5059 27.4148C28.6258 27.2477 28.7042 27.0544 28.7346 26.851C28.7651 26.6476 28.7466 26.4399 28.6808 26.245L20.8108 2.92623Z" fill="url(#paint2_linear_269_12817)"/>
<defs>
<linearGradient id="paint0_linear_269_12817" x1="13.3839" y1="3.96499" x2="4.93356" y2="28.9294" gradientUnits="userSpaceOnUse">
<stop stop-color="#114A8B"/>
<stop offset="1" stop-color="#0669BC"/>
</linearGradient>
<linearGradient id="paint1_linear_269_12817" x1="16.0234" y1="15.5991" x2="14.0687" y2="16.26" gradientUnits="userSpaceOnUse">
<stop stop-opacity="0.3"/>
<stop offset="0.071" stop-opacity="0.2"/>
<stop offset="0.321" stop-opacity="0.1"/>
<stop offset="0.623" stop-opacity="0.05"/>
<stop offset="1" stop-opacity="0"/>
</linearGradient>
<linearGradient id="paint2_linear_269_12817" x1="14.9483" y1="3.23686" x2="24.2243" y2="27.9497" gradientUnits="userSpaceOnUse">
<stop stop-color="#3CCBF4"/>
<stop offset="1" stop-color="#2892DF"/>
</linearGradient>
</defs>
</svg>
