<svg width="31" height="30" viewBox="0 0 31 30" fill="none" xmlns="http://www.w3.org/2000/svg">
<path d="M4.25396 10.0952H3.01587V11.4285H4.25396V10.0952Z" fill="#CA1C59"/>
<path d="M4.44451 12.381H3.23816V13.6508H4.44451V12.381Z" fill="#CA1C59"/>
<path d="M8.69845 13.0159H7.33337V14.4762H8.69845V13.0159Z" fill="#CA1C59"/>
<path d="M6.88888 11.5237H8.15872V9.87292H6.66665V10.5713H5.55554V11.9682H6.88888V11.5237Z" fill="#CA1C59"/>
<path d="M10.3492 15.3334H9.11108V16.6667H10.3492V15.3334Z" fill="#CA1C59"/>
<path d="M6.25405 14.6031H5.17468V15.746H6.25405V14.6031Z" fill="#CA1C59"/>
<path d="M2.06349 9.42859H1.01587V10.508H2.06349V9.42859Z" fill="#CA1C59"/>
<path d="M1.14286 11.3651H0V12.6032H1.14286V11.3651Z" fill="#CA1C59"/>
<path d="M11.2064 13.5238H10.4762V14.3492H11.2064V13.5238Z" fill="#CA1C59"/>
<path d="M5.5238 9.04761V8.25396H4.88888V7.5238H4.03174V8.47618H4.7619V9.04761H5.5238Z" fill="#CA1C59"/>
<path d="M2.19048 14.0952H1.49207V14.8889H2.19048V14.0952Z" fill="#CA1C59"/>
<path d="M1.11113 7.01587H0.41272V7.80952H1.11113V7.01587Z" fill="#CA1C59"/>
<path d="M8.28573 8.66677V9.11121H9.26985V10.6033H10.4762V11.3334H9.11112V12.8572H10.5714V11.8096H10.9524V12.3493H11.7778V13.9684H12.4127V15.4604H12V15.9684H11.6826C12.5397 18.6668 12.8889 21.7144 12.8889 21.7144C13.5873 20.3493 16.9841 7.14296 3.46033 6.09534C5.33334 7.01597 6.69842 8.09534 7.39684 8.66677H8.28573Z" fill="#CA1C59"/>
<path d="M12.9207 9.20635L13.7461 9.1746L13.2381 9.61905C13.3969 9.84127 13.5238 10.0317 13.6508 10.254L15.0159 10L14.0635 11.0476C16.4127 19.0794 12.3175 24 12.3175 24C15.6826 22.8571 20.127 17.8413 23.6826 16.0317C27.1112 14.254 30.2858 16 30.0953 15.3333C29.6508 13.9365 26.508 12.2857 26.508 12.2857C25.1429 10.7302 23.6191 10.2857 22.635 10.0952C20.8254 9.77778 18.9842 10.127 18.0953 10.3492C14.8572 6.09524 7.84131 6 7.84131 6C10.2223 6.7619 11.8413 7.87302 12.9207 9.20635ZM23.4921 11.8095C23.9048 11.8095 24.635 12.0952 25.2381 12.6349C25.2381 12.6349 24.8572 12.7302 24.4445 12.6667C24.127 12.6667 23.7461 12.5397 23.3651 12.2222C23.0794 11.9365 23.2064 11.7778 23.4921 11.8095Z" fill="#CA1C59"/>
</svg>
