<?xml version="1.0" encoding="UTF-8"?>
<svg id="Layer_1" data-name="Layer 1" xmlns="http://www.w3.org/2000/svg" xmlns:xlink="http://www.w3.org/1999/xlink" viewBox="0 0 1363.77 209.2">
  <defs>
    <style>
      .cls-1 {
        fill: url(#linear-gradient-2);
      }

      .cls-2 {
        fill: #4377cf;
      }

      .cls-3 {
        fill: #36bbee;
      }

      .cls-4 {
        fill: url(#linear-gradient-3);
      }

      .cls-5 {
        fill: url(#linear-gradient);
      }
    </style>
    <linearGradient id="linear-gradient" x1="97.95" y1="193.7" x2="29.72" y2="-7.87" gradientTransform="translate(0 209.2) scale(1 -1)" gradientUnits="userSpaceOnUse">
      <stop offset="0" stop-color="#2e4b87"/>
      <stop offset="1" stop-color="#3c69b7"/>
    </linearGradient>
    <linearGradient id="linear-gradient-2" x1="119.26" y1="99.77" x2="103.48" y2="94.43" gradientTransform="translate(0 209.2) scale(1 -1)" gradientUnits="userSpaceOnUse">
      <stop offset="0" stop-color="#000" stop-opacity=".3"/>
      <stop offset=".07" stop-color="#000" stop-opacity=".2"/>
      <stop offset=".32" stop-color="#000" stop-opacity=".1"/>
      <stop offset=".62" stop-color="#000" stop-opacity=".05"/>
      <stop offset="1" stop-color="#000" stop-opacity="0"/>
    </linearGradient>
    <linearGradient id="linear-gradient-3" x1="111.07" y1="199.76" x2="185.96" y2=".23" gradientTransform="translate(0 209.2) scale(1 -1)" gradientUnits="userSpaceOnUse">
      <stop offset="0" stop-color="#7bc9f1"/>
      <stop offset="1" stop-color="#5890db"/>
    </linearGradient>
  </defs>
  <g>
    <path class="cls-3" d="m372.59,167.27h-18.9v-74.31c0-6.09.37-13.53,1.12-22.34h-.32c-1.17,5.02-2.22,8.62-3.12,10.81l-34.27,85.84h-13.13l-34.35-85.2c-.96-2.51-1.98-6.33-3.04-11.45h-.32c.43,4.59.64,12.09.64,22.5v74.15h-17.62V52.43h26.83l30.19,76.48c2.29,5.87,3.79,10.25,4.48,13.13h.4c1.97-6.03,3.58-10.52,4.8-13.45l30.75-76.15h25.87v114.83Z"/>
    <path class="cls-3" d="m404.54,68.05c-3.04,0-5.65-.99-7.81-2.96-2.16-1.97-3.24-4.48-3.24-7.53s1.08-5.58,3.24-7.61c2.16-2.03,4.76-3.04,7.81-3.04s5.82,1.01,8.01,3.04c2.19,2.03,3.28,4.56,3.28,7.61,0,2.88-1.09,5.35-3.28,7.41-2.19,2.06-4.86,3.08-8.01,3.08Zm9.21,99.22h-18.58v-82h18.58v82Z"/>
    <path class="cls-3" d="m493.1,163.5c-6.57,3.79-14.33,5.69-23.3,5.69-12.17,0-22-3.8-29.47-11.41-7.47-7.61-11.21-17.47-11.21-29.59,0-13.51,4.02-24.36,12.05-32.55,8.03-8.19,18.78-12.29,32.23-12.29,7.47,0,14.07,1.31,19.78,3.92v17.3c-5.71-4.27-11.8-6.41-18.26-6.41-7.85,0-14.28,2.66-19.3,7.97-5.02,5.31-7.53,12.27-7.53,20.86s2.36,15.19,7.09,20.1c4.72,4.91,11.06,7.37,19.02,7.37,6.67,0,12.97-2.38,18.9-7.13v16.18Z"/>
    <path class="cls-3" d="m555.48,102.96c-2.24-1.76-5.47-2.64-9.69-2.64-5.5,0-10.09,2.48-13.77,7.45-3.68,4.96-5.53,11.72-5.53,20.26v39.24h-18.58v-82h18.58v16.9h.32c1.81-5.77,4.6-10.26,8.37-13.49,3.76-3.23,7.97-4.84,12.61-4.84,3.36,0,5.93.51,7.69,1.52v17.62Z"/>
    <path class="cls-3" d="m599.92,169.19c-12.65,0-22.76-3.83-30.31-11.49-7.55-7.66-11.33-17.82-11.33-30.47,0-13.77,3.94-24.53,11.81-32.27,7.87-7.74,18.48-11.61,31.83-11.61s22.79,3.76,29.95,11.29c7.15,7.53,10.73,17.97,10.73,31.31s-3.86,23.56-11.57,31.43c-7.71,7.88-18.08,11.81-31.11,11.81Zm.88-71.03c-7.26,0-13,2.54-17.22,7.61-4.22,5.07-6.33,12.07-6.33,20.98s2.13,15.36,6.41,20.3c4.27,4.94,9.98,7.41,17.14,7.41s12.93-2.43,16.86-7.29c3.92-4.86,5.89-11.77,5.89-20.74s-1.96-15.99-5.89-20.9c-3.92-4.91-9.54-7.37-16.86-7.37Z"/>
    <path class="cls-3" d="m652.76,164.7v-17.22c6.94,5.29,14.6,7.93,22.98,7.93,11.21,0,16.82-3.31,16.82-9.93,0-1.87-.48-3.46-1.44-4.76-.96-1.31-2.26-2.47-3.88-3.48-1.63-1.01-3.55-1.92-5.77-2.72-2.22-.8-4.68-1.71-7.41-2.72-3.36-1.33-6.39-2.75-9.09-4.24-2.7-1.49-4.94-3.19-6.73-5.08-1.79-1.89-3.14-4.04-4.04-6.45-.91-2.4-1.36-5.21-1.36-8.41,0-3.95.93-7.43,2.8-10.45,1.87-3.02,4.38-5.55,7.53-7.61,3.15-2.05,6.73-3.6,10.73-4.64s8.14-1.56,12.41-1.56c7.58,0,14.36,1.15,20.34,3.44v16.26c-5.77-3.95-12.39-5.93-19.86-5.93-2.35,0-4.47.24-6.37.72-1.9.48-3.51,1.15-4.84,2-1.33.85-2.38,1.88-3.12,3.08-.75,1.2-1.12,2.52-1.12,3.96,0,1.76.37,3.26,1.12,4.48.75,1.23,1.85,2.31,3.32,3.24,1.47.93,3.23,1.79,5.29,2.56,2.05.77,4.42,1.62,7.09,2.52,3.52,1.44,6.69,2.91,9.49,4.4,2.8,1.5,5.19,3.19,7.17,5.08,1.97,1.9,3.5,4.08,4.56,6.57,1.07,2.48,1.6,5.43,1.6,8.85,0,4.16-.96,7.79-2.88,10.89-1.92,3.1-4.48,5.66-7.69,7.69-3.2,2.03-6.9,3.54-11.09,4.52-4.19.99-8.61,1.48-13.25,1.48-8.97,0-16.74-1.5-23.3-4.48Z"/>
    <path class="cls-3" d="m761.35,169.19c-12.65,0-22.76-3.83-30.31-11.49-7.55-7.66-11.33-17.82-11.33-30.47,0-13.77,3.94-24.53,11.81-32.27,7.87-7.74,18.48-11.61,31.83-11.61s22.79,3.76,29.95,11.29c7.15,7.53,10.73,17.97,10.73,31.31s-3.86,23.56-11.57,31.43c-7.71,7.88-18.08,11.81-31.11,11.81Zm.88-71.03c-7.26,0-13,2.54-17.22,7.61-4.22,5.07-6.33,12.07-6.33,20.98s2.13,15.36,6.41,20.3c4.27,4.94,9.98,7.41,17.14,7.41s12.93-2.43,16.86-7.29c3.92-4.86,5.89-11.77,5.89-20.74s-1.96-15.99-5.89-20.9c-3.92-4.91-9.54-7.37-16.86-7.37Z"/>
    <path class="cls-3" d="m862.96,61c-2.51-1.44-5.37-2.16-8.57-2.16-9.02,0-13.53,5.1-13.53,15.29v11.13h19.06v14.57h-18.98v67.43h-18.58v-67.43h-14.01v-14.57h14.01v-13.29c0-8.65,2.83-15.47,8.49-20.46,5.66-4.99,12.73-7.49,21.22-7.49,4.59,0,8.22.51,10.89,1.52v15.46Z"/>
    <path class="cls-3" d="m910.07,166.39c-3.63,1.81-8.41,2.72-14.33,2.72-15.91,0-23.86-7.63-23.86-22.9v-46.37h-13.69v-14.57h13.69v-18.98l18.58-5.29v24.26h19.62v14.57h-19.62v41c0,4.86.88,8.33,2.64,10.41s4.7,3.12,8.81,3.12c3.15,0,5.87-.91,8.17-2.72v14.73Z"/>
    <path class="cls-3" d="m1055.77,167.27h-20.9l-10.33-29.23h-45.16l-9.93,29.23h-20.82l43-114.83h21.46l42.68,114.83Zm-36.28-44.76l-15.94-45.81c-.48-1.49-.99-3.9-1.52-7.21h-.32c-.48,3.04-1.01,5.45-1.6,7.21l-15.78,45.81h35.15Z"/>
    <path class="cls-3" d="m1134.93,93.03l-44.28,59.74h44.12v14.49h-70.15v-6.97l45.24-60.54h-40.92v-14.49h65.98v7.77Z"/>
    <path class="cls-3" d="m1221.39,167.27h-18.58v-12.97h-.32c-5.39,9.93-13.77,14.89-25.14,14.89-19.38,0-29.07-11.64-29.07-34.91v-49.01h18.58v47.09c0,14.73,5.69,22.1,17.06,22.1,5.5,0,10.02-2.03,13.57-6.09,3.55-4.06,5.33-9.37,5.33-15.94v-47.17h18.58v82Z"/>
    <path class="cls-3" d="m1286.91,102.96c-2.24-1.76-5.47-2.64-9.69-2.64-5.5,0-10.09,2.48-13.77,7.45-3.68,4.96-5.53,11.72-5.53,20.26v39.24h-18.58v-82h18.58v16.9h.32c1.81-5.77,4.6-10.26,8.37-13.49,3.76-3.23,7.97-4.84,12.61-4.84,3.36,0,5.93.51,7.69,1.52v17.62Z"/>
    <path class="cls-3" d="m1363.77,131.31h-55.89c.21,7.58,2.55,13.43,7.01,17.54,4.46,4.11,10.58,6.17,18.38,6.17,8.75,0,16.79-2.62,24.1-7.85v14.97c-7.47,4.7-17.35,7.05-29.63,7.05s-21.53-3.72-28.39-11.17c-6.86-7.45-10.29-17.92-10.29-31.43,0-12.76,3.78-23.16,11.33-31.19,7.55-8.03,16.94-12.05,28.15-12.05s19.89,3.6,26.03,10.81c6.14,7.21,9.21,17.22,9.21,30.03v7.13Zm-17.94-13.13c-.05-6.67-1.63-11.86-4.72-15.58-3.1-3.71-7.37-5.57-12.81-5.57s-9.86,1.95-13.57,5.85c-3.71,3.9-5.99,9-6.85,15.3h37.96Z"/>
  </g>
  <g>
    <path class="cls-5" d="m74,0h65.7l-68.2,202.07c-.7,2.08-2.04,3.88-3.82,5.16s-3.92,1.97-6.11,1.97H10.45c-1.66,0-3.3-.39-4.77-1.15-1.48-.76-2.75-1.86-3.72-3.21-.97-1.35-1.6-2.91-1.85-4.55-.25-1.64-.1-3.32.43-4.89L64.08,7.13c.7-2.08,2.04-3.88,3.82-5.16C69.67.69,71.81,0,74,0h0Z"/>
    <path class="cls-2" d="m169.47,135.54h-104.18c-.97,0-1.91.29-2.72.83-.8.55-1.42,1.32-1.77,2.22-.36.9-.43,1.89-.22,2.83.21.94.71,1.8,1.42,2.46l66.94,62.48c1.95,1.82,4.51,2.83,7.18,2.83h58.99l-25.64-73.66Z"/>
    <path class="cls-1" d="m74,0c-2.22,0-4.38.69-6.17,2-1.79,1.31-3.12,3.15-3.78,5.27L.61,195.23c-.57,1.58-.74,3.27-.52,4.93.23,1.66.85,3.25,1.82,4.62.97,1.37,2.25,2.49,3.74,3.26s3.14,1.17,4.82,1.17h52.45c1.95-.35,3.78-1.21,5.29-2.5,1.51-1.29,2.66-2.95,3.31-4.82l12.65-37.28,45.19,42.15c1.89,1.57,4.27,2.43,6.73,2.45h58.77l-25.78-73.66-75.14.02L139.94,0h-65.93Z"/>
    <path class="cls-4" d="m157.91,7.12c-.7-2.07-2.03-3.88-3.81-5.15C152.32.69,150.19,0,148,0h-73.22c2.19,0,4.32.69,6.1,1.96,1.78,1.28,3.11,3.08,3.81,5.15l63.54,188.28c.53,1.57.68,3.25.43,4.89-.25,1.64-.88,3.2-1.85,4.55-.97,1.35-2.24,2.45-3.72,3.21-1.48.76-3.11,1.15-4.78,1.15h73.22c1.66,0,3.3-.4,4.77-1.15,1.48-.76,2.75-1.86,3.72-3.21.97-1.35,1.6-2.91,1.85-4.55.25-1.64.1-3.32-.43-4.89L157.91,7.12Z"/>
  </g>
</svg>