<svg width="30" height="30" viewBox="0 0 30 30" fill="none" xmlns="http://www.w3.org/2000/svg">
<path d="M7.10164 25.4796C7.09668 25.434 7.08583 25.3902 7.04382 25.3653C6.74026 25.1837 6.46606 24.9556 6.14804 24.7966C5.96012 24.6132 5.73244 24.5617 5.47541 24.5712C5.01464 24.5883 4.74405 25.0224 4.93107 25.4408C5.0693 25.7497 5.33898 25.9196 5.58382 26.1215C5.7347 26.2462 5.86209 26.4007 5.83137 26.6166C5.80562 26.7978 5.74554 26.9906 5.54994 27.0349C5.32724 27.0855 5.08014 27.1076 4.86918 26.9988C4.39757 26.7557 4.05155 26.3709 3.86814 25.8812C3.59439 25.1498 3.76334 24.4971 4.31581 23.9378C4.90035 23.3465 5.59557 23.2815 6.32692 23.5457C6.90785 23.7558 7.41831 24.1176 7.93419 24.4537C8.37327 24.7397 8.82681 24.9931 9.33998 25.0997C9.57623 25.1489 9.8012 25.2497 10.051 25.2483C10.4991 25.2456 10.9265 25.1679 11.3357 24.9782C11.8177 24.7546 12.0671 24.3832 12.1064 23.857C12.1615 23.1152 12.0215 22.3974 11.8647 21.6787C11.8096 21.4258 11.7378 21.1592 11.8019 20.9049C11.988 20.1672 12.5089 19.7078 13.1603 19.3808C13.4553 19.2326 13.7792 19.1784 14.1112 19.1906C14.1396 19.1915 14.1685 19.1788 14.1975 19.1725C14.1685 19.1671 14.1387 19.1535 14.1112 19.1567C13.9043 19.182 13.6992 19.1337 13.4873 19.1865C13.1264 19.2764 12.803 19.4363 12.5102 19.6518C12.0743 19.9725 11.703 20.3506 11.5467 20.8963C11.4731 21.1534 11.5264 21.4072 11.5264 21.6629C11.5264 21.7298 11.544 21.7831 11.4582 21.8264C11.2485 21.9331 11.0529 22.0677 10.8429 22.1738C10.3731 22.4119 9.86489 22.5361 9.35443 22.649C8.68361 22.7977 8.02002 22.972 7.31577 22.8627C6.67205 22.7633 6.06266 22.5894 5.50974 22.2411C4.78155 21.7826 4.39306 21.1394 4.42829 20.2594C4.43416 20.1162 4.48431 19.9816 4.47708 19.8397C4.45856 19.4801 4.5611 19.1418 4.65913 18.8025C4.81543 18.2618 5.05213 17.7608 5.3557 17.2856C5.48444 17.0842 5.62358 16.8741 5.65249 16.622C5.6299 16.5236 5.70895 16.4436 5.70353 16.3483C5.79569 16.3609 5.83905 16.4287 5.88558 16.4992C6.04549 16.7408 6.24019 16.9545 6.43624 17.1664C6.25645 17.4975 6.05905 17.8223 5.93346 18.1782C5.78033 18.6119 5.64571 19.0505 5.69405 19.5244C5.75458 20.1153 5.99806 20.5774 6.51484 20.9054C6.95438 21.1841 7.42237 21.3575 7.93283 21.4045C8.8896 21.4926 9.79307 21.2884 10.6102 20.7911C11.2454 20.4044 11.8119 19.9409 12.0739 19.1906C12.1945 18.8455 12.1922 18.4994 12.1213 18.1737C11.965 17.4555 11.5182 16.8813 11.0665 16.3207C10.5018 15.6201 9.91278 14.9371 9.56088 14.0932C9.41948 13.7544 9.25686 13.4143 9.22614 13.0488C9.19136 12.6337 9.18323 12.2154 9.19407 11.7953C9.20491 11.377 9.42355 11.021 9.45743 10.614C9.46466 10.5273 9.57127 10.4333 9.5532 10.3059C9.54823 10.2702 9.5794 10.183 9.66568 10.1975C9.70227 10.2716 9.73795 10.3461 9.7759 10.4197C9.91142 10.6795 10.1856 10.8299 10.4747 10.7893C10.8695 10.7337 11.2327 10.5557 11.5047 10.2928C11.9704 9.84288 12.4212 9.36676 12.4398 8.63721C12.4493 8.26634 12.3255 7.93973 11.988 7.78163C11.9401 7.75904 11.8841 7.75543 11.8837 7.68541C12.1448 7.45277 12.4691 7.34616 12.7917 7.24633C13.261 7.10042 13.7376 6.99155 14.2327 6.94909C14.7775 6.90256 15.3168 6.89804 15.8612 6.94818C16.041 6.9649 16.2086 7.04847 16.382 7.03988C16.7059 7.02362 16.9819 7.16863 17.2724 7.26349C17.543 7.35158 17.8077 7.45457 18.0684 7.57745C18.3593 7.71432 18.6542 7.84668 18.9181 8.02466C19.3495 8.31558 19.7596 8.63721 20.1201 9.01938C20.613 9.54203 21.0498 10.0968 21.2219 10.8137C21.3764 11.4565 21.4979 12.0979 21.3705 12.7679C21.2237 13.5412 20.931 14.2522 20.4991 14.9009C20.1314 15.4529 19.635 15.8925 19.1286 16.318C18.5029 16.8438 17.7955 17.2793 17.323 17.9741C17.0714 18.3436 16.8541 18.7285 16.696 19.1468C16.682 19.1838 16.6562 19.2132 16.7046 19.2349C16.738 19.2498 16.7601 19.2199 16.7764 19.1951C16.8446 19.0889 16.9115 18.9819 16.9788 18.8753C17.0334 18.8902 17.0791 18.8748 17.1269 18.845C17.8764 18.3824 18.6701 18.4579 19.4732 18.6553C19.447 18.7212 19.3883 18.7574 19.34 18.803C18.9619 19.1594 18.5838 19.5158 18.2057 19.8722C18.2111 19.9499 18.1334 20.0109 18.1605 20.0931C18.0571 20.0163 17.9536 20.0484 17.8393 20.0755C17.6388 20.123 17.4463 20.2693 17.2245 20.1487C17.2137 20.1428 17.1726 20.1695 17.173 20.1704C17.2485 20.3583 17.061 20.3958 16.9828 20.4862C16.5293 21.0115 16.5279 21.606 17.2037 21.9782C17.6157 22.2054 17.9992 21.9773 18.0688 21.5938C18.1081 21.3774 18.1673 21.5644 18.2183 21.5744C18.1975 21.6394 18.2391 21.6891 18.2603 21.7433C18.4004 22.0993 18.4763 22.4625 18.4356 22.8505C18.4108 23.0881 18.3421 23.314 18.2942 23.5448C18.0453 23.6085 17.8316 23.4667 17.6252 23.3863C17.2286 23.2322 16.8469 23.0353 16.5447 22.71C16.1593 22.2953 15.8987 21.8301 15.8101 21.2645C15.774 21.0341 15.7681 20.806 15.7627 20.576C15.7618 20.5318 15.7352 20.5096 15.7049 20.4871C15.6963 20.5124 15.69 20.5381 15.6791 20.5625C15.6123 20.7188 15.6322 20.8832 15.6344 21.0458C15.5016 21.1109 15.6114 21.3205 15.4442 21.3652C15.3476 21.3548 15.3367 21.4438 15.3241 21.4949C15.2175 21.9123 15.0756 22.3238 15.0829 22.7633C14.6135 22.8406 14.5119 23.038 14.464 23.4301C14.4265 23.7373 14.8014 24.1502 15.1547 23.9975C15.25 23.9564 15.3507 23.9274 15.4492 23.8927C15.5183 24.0327 15.6168 24.1524 15.7202 24.2672C16.0699 24.6547 16.4728 24.9533 16.9964 25.0735C17.4712 25.1824 17.9342 25.1218 18.3701 24.9547C19.0965 24.676 19.7154 24.2586 19.9223 23.4373C19.9918 23.16 20.0045 22.8808 19.911 22.6039C19.7583 22.1526 19.4936 21.7795 19.12 21.4858C18.8065 21.2392 18.4609 21.0526 18.0661 20.9722C17.9938 20.9573 17.9093 20.9325 17.847 21.0079C17.8615 21.0373 17.8759 21.0666 17.8899 21.0964C17.9523 21.2329 17.9947 21.372 17.9798 21.5256C17.9504 21.8305 17.636 22.093 17.3569 21.9498C17.2322 21.8856 17.1066 21.8124 17.005 21.718C16.7787 21.5071 16.7475 21.2333 16.8807 20.9487C17.0759 20.5309 17.4319 20.3502 17.8601 20.3335C18.4072 20.3122 18.919 20.464 19.4104 20.7179C19.972 21.0079 20.4847 21.3526 20.8235 21.8924C21.0159 22.1991 21.1221 22.5465 21.2115 22.9088C21.3217 23.3578 21.2395 23.7811 21.1808 24.2057C21.1406 24.4957 20.9847 24.7708 20.8086 25.0206C20.3979 25.602 19.8157 25.9399 19.1701 26.1861C19.0852 26.2186 18.979 26.2182 18.8851 26.1753C18.5205 26.0086 18.1524 25.85 17.7923 25.6743C17.384 25.4751 16.9878 25.4322 16.5419 25.5916C16.2574 25.6933 15.9854 25.8514 15.6755 25.8825C15.6299 25.8871 15.5906 25.9616 15.5391 25.8979C15.3566 25.6734 15.0625 25.6165 14.871 25.3617C14.497 24.8648 14.1238 24.3729 13.8654 23.8077C13.743 23.5403 13.6341 23.2553 13.6513 22.9463C13.785 22.9648 13.9002 22.9074 14.0177 22.8582C14.4016 22.6974 14.7219 22.4462 14.8046 22.0315C14.9252 21.4285 14.4997 20.8972 13.888 20.8783C13.9576 20.7061 14.0696 20.5602 14.1771 20.4121C14.1893 20.3949 14.2562 20.3619 14.1807 20.3393C14.1202 20.3213 13.8139 20.5255 13.7801 20.6009L13.7855 20.5955C13.7606 20.5634 13.7295 20.5788 13.7082 20.5941C13.2682 20.9103 12.9692 21.3146 12.9258 21.8725C12.8748 22.5302 13.1278 23.1356 13.2615 23.7608C13.3776 24.3042 13.4995 24.8458 13.4602 25.4064C13.4431 25.654 13.3654 25.8947 13.2244 26.0917C12.7045 26.8176 11.9519 27.1212 11.0927 27.1867C10.6297 27.2219 10.1915 27.0706 9.75783 26.9247C9.89606 26.7535 9.88296 26.5552 9.82017 26.3709C9.63812 25.8365 9.30294 25.4584 8.72382 25.3305C8.19032 25.2131 7.86778 25.448 7.86372 25.977C7.78737 25.9205 7.71736 25.8514 7.63333 25.8103C7.44361 25.7172 7.33384 25.4972 7.09939 25.4791L7.10164 25.4796ZM12.7944 15.2754C12.7483 15.2474 12.7176 15.2695 12.6918 15.3075C12.6525 15.3147 12.6227 15.3341 12.6051 15.3707C12.526 15.424 12.4465 15.4769 12.4845 15.5934C12.4194 15.5428 12.4059 15.5921 12.3815 15.6404C12.2966 15.8062 12.2383 15.9774 12.2324 16.1658C12.2211 16.5416 12.2771 16.8922 12.6223 17.1185C13.0379 17.3909 13.4598 17.3864 13.907 17.1722C14.3145 16.9771 14.6971 16.4273 14.5462 15.874C14.361 15.1937 13.7764 14.9009 13.0984 15.092C13.0044 15.0943 12.9285 15.1345 12.8653 15.2013C12.8314 15.2162 12.7781 15.2131 12.7939 15.2759L12.7944 15.2754ZM14.8172 16.0876C14.7404 16.0678 14.7215 16.1409 14.7124 16.1775C14.6492 16.4282 14.5936 16.683 14.67 16.9405C14.8367 17.5011 15.4582 17.82 16.0387 17.6407C16.5564 17.4808 16.9128 17.1727 16.9869 16.6003C17.0407 16.1825 16.8884 15.8482 16.5713 15.6011C16.2822 15.3757 15.9402 15.3436 15.5883 15.4502C15.5341 15.4864 15.4844 15.5419 15.4253 15.5555C15.1249 15.6251 14.9387 15.8175 14.8177 16.0876H14.8172ZM13.5113 8.99182C13.9544 8.99679 14.3108 8.79351 14.6374 8.52021C14.8001 8.38424 14.9383 8.22749 14.955 8.00524C14.9902 7.53272 14.497 7.22329 13.9842 7.37868C13.6021 7.49478 13.2994 7.70935 13.0889 8.04589C12.9547 8.26001 12.8721 8.48678 13.0022 8.74066C13.1119 8.95433 13.2985 8.99589 13.5113 8.99137V8.99182Z" fill="#A8BACE"/>
<path d="M15.0855 22.7656C15.0782 22.3265 15.2201 21.915 15.3267 21.4971C15.3398 21.4461 15.3502 21.3571 15.4469 21.3675C15.4771 21.4461 15.4333 21.5161 15.4103 21.5834C15.1428 22.3708 15.2246 23.1116 15.6989 23.8014C16.1574 24.4681 16.8084 24.7789 17.6016 24.7437C17.935 24.7288 18.2706 24.6308 18.5737 24.4555C18.7337 24.3629 18.8918 24.2735 19.0214 24.1402C19.0783 24.0819 19.0928 24.0277 18.988 24.0318C18.5995 24.0462 18.2331 23.9482 17.8582 23.8592C17.2831 23.7223 16.774 23.4793 16.3639 23.0592C15.9736 22.659 15.8141 22.1453 15.7183 21.6046C15.6854 21.4194 15.7161 21.2256 15.6366 21.0481C15.6343 20.8855 15.6144 20.7215 15.6813 20.5647C15.6917 20.5403 15.6985 20.5146 15.7071 20.4893C15.7373 20.5119 15.764 20.534 15.7649 20.5783C15.7703 20.8082 15.7762 21.0363 15.8123 21.2667C15.9008 21.8323 16.1615 22.298 16.5468 22.7123C16.849 23.0375 17.2312 23.2345 17.6274 23.3885C17.8338 23.4689 18.047 23.6108 18.2964 23.5471C18.3113 23.6144 18.3673 23.6099 18.4184 23.6216C18.6826 23.6826 18.9509 23.6645 19.2184 23.674C19.3729 23.6794 19.4799 23.6216 19.5296 23.4761C19.6529 23.117 19.6615 22.7507 19.5517 22.3893C19.5251 22.3016 19.5373 22.1648 19.4049 22.1345C18.9695 22.0347 18.5932 21.8106 18.2209 21.5766C18.1699 21.5667 18.1107 21.3797 18.0714 21.596C18.0019 21.9796 17.6188 22.2077 17.2064 21.9805C16.5306 21.6078 16.5324 21.0133 16.9855 20.4884C17.0636 20.398 17.2511 20.3605 17.1756 20.1726C17.1756 20.1722 17.2163 20.1455 17.2271 20.1509C17.4494 20.2716 17.6418 20.1252 17.8419 20.0778C17.9562 20.0507 18.0592 20.0186 18.1631 20.0954C18.9433 20.1473 19.6313 20.436 20.2519 20.9035C20.6874 21.2315 21.0623 21.6064 21.2611 22.1291C21.3176 22.2772 21.4233 22.3292 21.5886 22.3188C22.2644 22.2777 22.9312 22.2158 23.5437 21.8815C23.9869 21.6394 24.299 21.2839 24.5371 20.8489C24.5782 20.7739 24.5407 20.7761 24.4928 20.7802C24.3979 20.7879 24.3144 20.8331 24.2272 20.8674C23.8974 20.9975 23.5627 21.1158 23.2325 21.2455C23.1146 21.2916 22.9989 21.2974 22.8905 21.2446C22.3484 20.9799 21.7679 20.8005 21.2381 20.5092C21.1044 20.4355 20.9693 20.3619 20.8446 20.2743C20.7014 20.1735 20.7046 20.0001 20.696 19.8542C20.6684 19.4069 20.6246 18.9606 20.6427 18.5107C20.6495 18.3449 20.6811 18.2297 20.8735 18.2004C21.0456 18.1742 21.1622 18.0703 21.2313 17.8982C21.3483 17.6063 21.5439 17.3651 21.7698 17.1483C21.8199 17.0999 21.8637 17.0353 21.9504 17.0701C21.9256 17.1528 21.8592 17.2025 21.8 17.2567C21.6125 17.4297 21.4644 17.6289 21.3664 17.867C21.3429 17.9239 21.3036 17.9682 21.3519 18.0287C21.3971 18.0852 21.4359 18.0468 21.4865 18.0332C21.9017 17.9212 22.3407 17.886 22.7166 17.647C22.7401 17.6321 22.7708 17.6249 22.7988 17.6217C23.56 17.5286 24.1617 17.8394 24.6044 18.4222C25.09 19.0614 25.165 19.8036 24.9635 20.5702C24.9179 20.7432 24.9161 20.9428 24.818 21.0842C24.6532 21.3227 24.4282 21.517 24.2529 21.7519C24.1305 21.9159 23.9205 21.9687 23.7687 22.0866C23.4294 22.3495 23.0405 22.4521 22.6407 22.5383C22.3064 22.6106 21.9626 22.5984 21.6238 22.6273C21.5303 22.6355 21.4395 22.5903 21.4946 22.7733C21.5782 23.0515 21.5678 23.3506 21.5407 23.641C21.5168 23.899 21.5059 23.8985 21.7616 23.8944C21.8059 23.8935 21.852 23.8931 21.8944 23.8818C22.3263 23.7689 22.7658 23.6898 23.1886 23.5394C23.9882 23.2548 24.7715 22.9562 25.399 22.3414C25.764 21.9841 26.0174 21.5531 26.138 21.0915C26.3128 20.4233 26.2943 19.7254 26.161 19.0352C25.9519 17.9533 25.3515 17.193 24.3189 16.8158C23.6887 16.5854 23.0405 16.6198 22.404 16.8587C22.2445 16.9188 22.1298 17.0661 21.9486 17.0715C21.9437 16.9089 22.1009 16.8718 22.1894 16.8312C22.5671 16.6577 22.9551 16.5145 23.387 16.528C23.8224 16.5416 24.2543 16.5154 24.6699 16.7065C25.0895 16.8998 25.4572 17.1478 25.7549 17.5029C25.8819 17.6542 26.0833 17.6533 26.2546 17.7007C26.6345 17.8055 26.6765 17.8177 26.634 18.1895C26.6033 18.4592 26.6448 18.7289 26.6046 18.9927C26.5559 19.3116 26.6119 19.6179 26.6458 19.9305C26.6756 20.2024 26.6236 20.4744 26.5653 20.7423C26.5378 20.8701 26.5265 21.0016 26.4998 21.1298C26.386 21.6701 26.1403 22.1517 25.7595 22.5424C25.5133 22.7954 25.2499 23.0637 24.8709 23.1265C24.7643 23.1441 24.8022 23.2552 24.7087 23.3004C24.4594 23.421 24.1838 23.4789 23.9457 23.5977C23.6295 23.7553 23.2944 23.8009 22.9682 23.885C22.54 23.9947 22.0964 24.0458 21.6505 24.0268C21.505 24.0205 21.4441 24.0471 21.3989 24.2188C21.3045 24.5788 21.0849 24.8801 20.8478 25.1729C20.5641 25.5229 20.242 25.8148 19.8454 26.0221C19.6778 26.1097 19.498 26.173 19.3232 26.2457C19.2983 26.2561 19.2599 26.243 19.255 26.285C19.2504 26.3266 19.287 26.3248 19.3123 26.337C19.643 26.5 19.9678 26.6771 20.3052 26.8248C20.6571 26.9789 20.682 27.0123 20.6964 27.39C20.7113 27.7875 20.6138 28.1787 20.6504 28.5758C20.6585 28.667 20.6002 28.6964 20.5316 28.7397C19.9353 29.1178 19.3114 29.4526 18.721 29.8379C18.4034 30.0452 18.16 30.0534 17.8573 29.8447C17.214 29.4006 16.5568 28.9778 15.9072 28.5432C15.7554 28.4416 15.6135 28.3241 15.4649 28.218C15.1275 27.9772 15.0376 27.6194 15.0028 27.2382C14.9811 27.0015 14.973 26.7611 14.9463 26.5271C14.912 26.2281 15.0895 26.1314 15.2919 26.0244C15.3285 26.0049 15.394 26.042 15.4035 25.9796C15.4134 25.9141 15.3515 25.906 15.3059 25.8794C14.8167 25.5939 14.3857 25.2356 14.0027 24.8187C13.9701 24.783 13.9476 24.7152 13.8879 24.7401C13.8685 24.7482 13.8712 24.821 13.8717 24.8643C13.8771 25.2569 13.883 25.6418 13.7199 26.0212C13.5658 26.379 13.312 26.636 13.0269 26.8723C12.7446 27.1063 12.4221 27.2901 12.0706 27.3805C11.4581 27.5377 10.8478 27.633 10.204 27.4469C9.53865 27.2544 8.94733 26.9441 8.37815 26.5669C8.06238 26.3577 7.78457 26.1025 7.50495 25.8518C7.36943 25.7303 7.19235 25.6499 7.10291 25.4782C7.33735 25.4963 7.44713 25.7163 7.63685 25.8093C7.72088 25.8505 7.79089 25.9196 7.86724 25.976C8.10169 26.1391 8.3149 26.3293 8.58188 26.4476C8.96992 26.6198 9.33672 26.8434 9.76135 26.9238C10.195 27.0697 10.6336 27.221 11.0962 27.1858C11.9554 27.1207 12.708 26.8172 13.2279 26.0908C13.3689 25.8938 13.4466 25.653 13.4637 25.4055C13.5026 24.8449 13.3811 24.3033 13.265 23.7598C13.1313 23.1346 12.8783 22.5293 12.9293 21.8716C12.9727 21.3137 13.2718 20.9094 13.7118 20.5932C13.733 20.5778 13.7637 20.5625 13.789 20.5945C13.7452 20.6442 13.7054 20.6989 13.6571 20.7436C13.1679 21.1917 13.0292 21.746 13.1512 22.3825C13.1588 22.4232 13.171 22.4647 13.2085 22.4661C13.2618 22.4679 13.2388 22.4146 13.2392 22.387C13.241 22.2465 13.2862 22.1142 13.316 21.9796C13.4272 21.484 13.6097 21.0205 13.9281 20.618C13.939 20.604 13.9421 20.5837 13.9489 20.5665C13.9281 20.5647 13.906 20.558 13.887 20.5625C13.8518 20.5715 13.8179 20.5869 13.7836 20.6C13.8175 20.5245 14.1237 20.3203 14.1843 20.3384C14.2597 20.361 14.1928 20.3944 14.1806 20.4111C14.0727 20.5598 13.9611 20.7057 13.8915 20.8773C13.8798 20.9663 13.8098 21.0259 13.7795 21.1109C13.6819 21.3842 13.6616 21.6679 13.6137 21.9479C13.6223 21.9633 13.6304 21.9787 13.639 21.9945C13.6155 22.312 13.6399 22.6287 13.6548 22.9454C13.6377 23.2543 13.7465 23.5394 13.869 23.8068C14.1273 24.3719 14.5005 24.8639 14.8745 25.3608C15.066 25.6156 15.3606 25.6725 15.5426 25.897C15.5941 25.9607 15.6334 25.8861 15.679 25.8816C15.9894 25.8505 16.2609 25.6928 16.5455 25.5907C16.9913 25.4312 17.3875 25.4742 17.7959 25.6734C18.1559 25.8491 18.5241 26.0077 18.8886 26.1743C18.9826 26.2173 19.0883 26.2173 19.1736 26.1852C19.8196 25.939 20.4019 25.6011 20.8121 25.0197C20.9883 24.7699 21.1441 24.4948 21.1843 24.2048C21.243 23.7802 21.3257 23.3569 21.215 22.9079C21.126 22.5456 21.0194 22.1982 20.827 21.8915C20.4882 21.3516 19.9755 21.007 19.414 20.717C18.9225 20.4631 18.4111 20.3113 17.8636 20.3325C17.4358 20.3493 17.0799 20.5299 16.8843 20.9478C16.7515 21.2324 16.7822 21.5057 17.0085 21.7171C17.1101 21.8115 17.2357 21.8851 17.3604 21.9488C17.6396 22.092 17.954 21.8296 17.9833 21.5247C17.9982 21.3711 17.9558 21.2319 17.8934 21.0955C17.9562 21.0765 17.9856 21.1244 18.0253 21.1574C18.365 21.4357 18.7422 21.6521 19.1429 21.8305C19.1791 21.8463 19.2107 21.872 19.2373 21.835C19.2468 21.8215 19.2297 21.7763 19.212 21.7578C18.8353 21.3688 18.4053 21.0743 17.8505 21.007C17.9129 20.9311 17.9973 20.9564 18.0696 20.9713C18.4644 21.0517 18.81 21.2387 19.1235 21.4849C19.4971 21.7785 19.7618 22.1517 19.9145 22.6029C20.008 22.8799 19.9958 23.159 19.9258 23.4364C19.7193 24.2581 19.1 24.6755 18.3736 24.9538C17.9377 25.1209 17.4742 25.1814 16.9999 25.0726C16.4759 24.9524 16.0734 24.6538 15.7238 24.2662C15.6203 24.1515 15.5223 24.0318 15.4527 23.8917C15.2625 23.5376 15.1474 23.1586 15.0868 22.7624L15.0855 22.7656ZM26.452 18.4298C26.4578 18.3499 26.4705 18.2699 26.4669 18.1904C26.4642 18.1331 26.5057 18.0301 26.4167 18.0301C26.3435 18.0301 26.2238 18.0269 26.2067 18.1547C26.2026 18.2311 26.2216 18.2975 26.2893 18.3422C26.2902 18.3553 26.2934 18.3675 26.2984 18.3792C26.2835 18.4723 26.3196 18.555 26.3499 18.6394C26.3612 18.6715 26.3819 18.6873 26.4154 18.6887C26.4556 18.69 26.4673 18.6593 26.4696 18.6309C26.475 18.5636 26.5482 18.489 26.4524 18.4303L26.452 18.4298ZM23.1408 20.6808C23.1186 20.7617 23.1173 20.8421 23.1412 20.923C23.1972 21.0933 23.2953 20.9808 23.3707 20.951C23.7334 20.8096 24.0853 20.6334 24.4576 20.5277C24.6663 20.4685 24.7254 20.361 24.7643 20.1826C24.8573 19.7548 24.7842 19.3432 24.6563 18.9376C24.6261 18.8414 24.5651 18.7736 24.4264 18.8301C24.182 18.9299 23.9254 18.999 23.6752 19.0849C23.4981 19.1458 23.2971 19.1445 23.1507 19.2859C23.1123 19.3482 23.1213 19.4128 23.1417 19.4783C23.1385 19.6857 23.1353 19.8926 23.1322 20.0999C23.1123 20.1758 23.1114 20.2521 23.1304 20.3285C23.134 20.3709 23.1371 20.4129 23.1408 20.4554C23.1408 20.4911 23.1408 20.5268 23.1412 20.5625C23.1412 20.6022 23.1408 20.642 23.1403 20.6817L23.1408 20.6808ZM18.394 27.9171C18.4649 27.9361 18.5412 27.8936 18.6067 27.8498C19.0544 27.5481 19.5468 27.3339 20.0337 27.1094C20.0703 27.0927 20.1354 27.1225 20.1417 27.0584C20.1462 27.0082 20.102 26.9861 20.0595 26.9667C19.568 26.7435 19.0838 26.5028 18.5823 26.3062C18.4418 26.2511 18.3077 26.1771 18.1722 26.117C17.8546 25.9769 17.5614 25.7822 17.2579 25.6106C17.2077 25.5821 17.1652 25.5781 17.0984 25.5961C16.5251 25.7529 15.9632 25.9399 15.4053 26.1445C15.2246 26.2109 15.2924 26.2579 15.3764 26.3225C15.6397 26.5244 15.927 26.6871 16.2243 26.8352C16.8328 27.1388 17.4462 27.4338 18.0421 27.7631C18.1473 27.8214 18.2372 27.9266 18.3944 27.918L18.394 27.9171ZM18.3447 28.976C18.3447 28.976 18.3425 28.976 18.3416 28.976C18.3416 28.7655 18.3361 28.555 18.3438 28.3449C18.3483 28.2275 18.3104 28.1602 18.2078 28.0915C17.9237 27.9009 17.6066 27.7748 17.3103 27.6081C16.7903 27.3154 16.2347 27.0882 15.7436 26.7422C15.586 26.6315 15.436 26.5095 15.2612 26.4214C15.132 26.3564 15.0895 26.3767 15.0913 26.5231C15.0954 26.8063 15.1433 27.0841 15.183 27.3629C15.2111 27.5616 15.2391 27.7685 15.4112 27.895C15.6528 28.0725 15.8837 28.2749 16.1389 28.4222C16.6444 28.7135 17.1065 29.0745 17.6269 29.3369C17.8383 29.4435 17.9869 29.6409 18.2237 29.7119C18.3312 29.7439 18.3501 29.7385 18.347 29.6287C18.3407 29.411 18.3452 29.1933 18.3452 28.9751L18.3447 28.976ZM23.0378 20.0629C23.0378 20.0629 23.0369 20.0629 23.0364 20.0629C23.0364 19.8749 23.0179 19.6843 23.0414 19.4995C23.0662 19.3012 22.9741 19.247 22.8065 19.2C22.179 19.0252 21.5606 18.8215 20.9756 18.5292C20.874 18.4786 20.8256 18.4845 20.827 18.6141C20.832 19.0478 20.9508 19.472 20.9286 19.9097C20.9237 20.0118 21.0131 20.0967 21.1306 20.1541C21.6844 20.4242 22.2418 20.6844 22.8191 20.9013C23.0021 20.9699 23.0301 20.9604 23.0364 20.7621C23.0436 20.529 23.0382 20.2959 23.0382 20.0629H23.0378ZM18.5186 28.878H18.5218C18.5218 29.0957 18.5241 29.3134 18.5209 29.5312C18.5191 29.6793 18.5688 29.7073 18.6926 29.6229C18.964 29.4377 19.2346 29.2502 19.5143 29.0767C19.7623 28.9231 20.022 28.7876 20.2759 28.6435C20.3491 28.602 20.4236 28.555 20.4177 28.4579C20.3942 28.082 20.4995 27.717 20.5067 27.3443C20.5108 27.1406 20.4462 27.0963 20.2691 27.1849C19.7342 27.4532 19.2035 27.7292 18.6691 27.9989C18.5525 28.0576 18.5114 28.1421 18.5164 28.2704C18.5245 28.4728 18.5186 28.6756 18.5186 28.8784V28.878ZM22.9768 19.0627C22.9994 19.0627 23.022 19.065 23.0445 19.0627C23.5238 19.0076 23.9539 18.7881 24.4065 18.6458C24.5411 18.6038 24.4368 18.5103 24.3921 18.4574C24.1739 18.1995 23.9146 17.989 23.6106 17.8408C23.4854 17.7798 23.3422 17.7224 23.2049 17.7631C22.6077 17.9402 21.9934 18.0432 21.3935 18.208C21.2783 18.2397 21.1554 18.2582 21.0565 18.3363C21.1518 18.4362 21.2552 18.5243 21.3876 18.5717C21.4151 18.5816 21.4395 18.6033 21.4671 18.6083C21.6925 18.6489 21.8999 18.7406 22.1131 18.821C22.3922 18.9267 22.6768 19.0252 22.9763 19.0627H22.9768ZM26.447 18.8481L26.456 18.8314L26.4429 18.8292L26.447 18.8481Z" fill="#090B0E"/>
<path d="M9.66792 10.2002C9.58164 10.1857 9.55047 10.2729 9.55544 10.3086C9.57351 10.436 9.4669 10.53 9.45968 10.6167C9.4258 11.0237 9.20716 11.3797 9.19632 11.798C9.18547 12.2181 9.19361 12.6364 9.22839 13.0515C9.25866 13.417 9.42173 13.7571 9.56312 14.0959C9.91502 14.9398 10.5041 15.6232 11.0687 16.3234C11.5205 16.8836 11.9672 17.4582 12.1235 18.1764C12.1945 18.5021 12.1967 18.8482 12.0761 19.1933C11.8141 19.9436 11.2472 20.4071 10.6125 20.7938C9.79531 21.2916 8.89185 21.4953 7.93508 21.4072C7.42462 21.3602 6.95663 21.1868 6.51709 20.9081C6.00031 20.5801 5.75683 20.118 5.69629 19.5271C5.64751 19.0528 5.78257 18.6142 5.93571 18.1809C6.06129 17.825 6.25825 17.5002 6.43849 17.1691C6.6115 16.9613 6.7407 16.725 6.87532 16.4924C7.17798 15.9688 7.1974 15.4335 6.9232 14.8905C6.89745 14.8399 6.8446 14.7948 6.87577 14.7266C7.13371 15.0143 7.19876 15.3626 7.20237 15.7353C7.20824 16.3564 6.8324 16.8199 6.55684 17.324C6.19049 17.9939 5.89822 18.6833 5.97275 19.4697C6.01838 19.9531 6.27722 20.3145 6.65532 20.6036C6.9354 20.8173 7.2629 20.9126 7.59402 21.0043C7.8872 21.0856 8.18669 21.0314 8.48213 21.0508C8.79789 21.0716 9.09694 21.0002 9.39417 20.9148C10.1188 20.7066 10.7575 20.347 11.3195 19.8406C11.5806 19.6053 11.8371 19.3699 11.9288 19.023C12.068 18.4958 11.9528 18.0048 11.661 17.5481C11.3981 17.1365 11.094 16.7593 10.7756 16.3889C10.4178 15.9729 10.0343 15.5767 9.71897 15.1254C9.29028 14.512 8.97677 13.8506 8.853 13.1012C8.79337 12.7394 8.74729 12.3794 8.77395 12.0166C8.80963 11.5351 8.87468 11.0603 9.02646 10.5932C9.17328 10.1419 9.34629 9.706 9.58706 9.3017C10.0126 8.58706 10.5628 7.99664 11.2698 7.53226C12.0052 7.04936 12.8079 6.76477 13.6531 6.61389C14.1789 6.51993 14.7187 6.45849 15.2685 6.5398C15.6317 6.59311 16.0112 6.56149 16.3725 6.64777C16.6404 6.71191 16.9218 6.72592 17.1757 6.84834C17.2137 6.86686 17.2624 6.86415 17.3067 6.86912C17.4278 6.88267 17.4824 6.85557 17.4084 6.72411C17.1969 6.34827 17.211 5.93042 17.2548 5.53109C17.3424 4.73604 17.9098 4.2974 18.6366 4.1149C18.6723 4.10587 18.7093 4.10316 18.7441 4.09277C18.7721 4.08464 18.8191 4.07244 18.8209 4.05799C18.8254 4.02004 18.7889 4.00016 18.7563 3.98074C18.4288 3.78559 18.1113 3.57508 17.8032 3.35057C17.5863 3.19247 17.4255 3.02126 17.4594 2.70821C17.5231 2.1178 17.5805 1.52783 17.7594 0.959102C17.8569 0.64831 18.1433 0.60404 18.4076 0.550284C18.7152 0.487493 19.0251 0.428316 19.3373 0.393985C19.826 0.339777 20.3302 0.20245 20.8009 0.419734C21.0742 0.545767 21.2133 0.474845 21.4012 0.282407C21.5977 0.0809342 21.89 0.0371162 22.1637 0.00956049C22.9845 -0.0731065 23.4792 0.389468 23.8564 1.04312C24.0673 1.40903 24.2372 1.77764 24.2241 2.22124C24.2105 2.68472 24.0443 3.07185 23.7322 3.39484C23.5623 3.57102 23.4128 3.74268 23.4015 3.99836C23.397 4.10452 23.3125 4.16911 23.2398 4.19667C22.6083 4.43518 21.9573 4.60955 21.2973 4.74959C21.1261 4.78573 20.9504 4.80786 20.786 4.86297C20.6202 4.91899 20.4693 4.95377 20.2945 4.88917C20.1355 4.83 20.0045 4.94474 19.8965 5.03554C19.6675 5.22888 19.4497 5.43396 19.3373 5.72894C19.2781 5.88389 19.3074 6.03748 19.2898 6.19062C19.2135 6.20778 19.2085 6.16216 19.2017 6.10253C19.157 5.70681 19.2817 5.37208 19.5573 5.08974C19.6837 4.96055 19.8111 4.8318 19.9381 4.70306C19.7745 4.60097 19.6178 4.48487 19.4452 4.40175C19.3133 4.33806 19.1913 4.18944 19.0509 4.21745C18.3543 4.35477 17.7982 4.86749 17.6207 5.53018C17.5136 5.92951 17.5638 6.33472 17.6302 6.73269C17.65 6.85195 17.7038 6.98702 17.8438 7.05523C18.1853 7.22057 18.5278 7.38093 18.8611 7.56704C19.6919 8.03097 20.3826 8.63946 20.9567 9.39204C21.1952 9.70464 21.3768 10.048 21.5426 10.4017C21.6691 10.8272 21.7802 11.2582 21.8127 11.7004C21.8837 12.6685 21.7125 13.5886 21.2594 14.4582C20.8921 15.162 20.4214 15.7818 19.8346 16.3099C19.4859 16.6238 19.1109 16.9107 18.7365 17.1944C18.3516 17.4862 17.945 17.7518 17.613 18.106C17.3858 18.3481 17.1378 18.5762 16.9828 18.8789C16.9155 18.9855 16.8487 19.0925 16.7805 19.1987C16.7642 19.224 16.7421 19.2534 16.7086 19.2385C16.6603 19.2172 16.686 19.1874 16.7 19.1504C16.8586 18.7321 17.0759 18.3472 17.327 17.9777C17.7996 17.2829 18.507 16.8474 19.1326 16.3216C19.639 15.8961 20.1355 15.4566 20.5032 14.9045C20.935 14.2563 21.2278 13.5453 21.3746 12.7715C21.502 12.1011 21.3804 11.4596 21.2259 10.8173C21.0538 10.1004 20.617 9.54563 20.1242 9.02298C19.7641 8.64126 19.3535 8.31918 18.9221 8.02826C18.6588 7.85073 18.3633 7.71792 18.0724 7.58105C17.8118 7.45863 17.547 7.35563 17.2765 7.26709C16.986 7.17268 16.71 7.02722 16.3861 7.04349C16.2126 7.05207 16.045 6.9685 15.8652 6.95178C15.3209 6.90164 14.7815 6.90616 14.2367 6.95269C13.7416 6.99515 13.2651 7.10402 12.7957 7.24993C12.4732 7.35021 12.1484 7.45682 11.8877 7.68901C11.6343 7.68856 11.478 7.87061 11.296 8.00387C10.7006 8.43979 10.2303 8.9891 9.86127 9.62288C9.76008 9.79589 9.65211 9.98155 9.66973 10.2006L9.66792 10.2002ZM17.7097 2.60702C17.7033 2.94808 17.7178 3.03617 17.8447 3.11703C18.2283 3.36187 18.6059 3.618 19.0066 3.83122C19.3106 3.99294 19.6024 4.17273 19.8997 4.34484C20.0221 4.41576 20.168 4.52824 20.2859 4.45822C20.3799 4.40266 20.3713 4.22558 20.3771 4.09232C20.3957 3.65459 20.4481 3.21822 20.5294 2.78907C20.5624 2.6156 20.5163 2.55056 20.3848 2.47195C19.6937 2.05726 19.0043 1.63851 18.3195 1.21343C17.9681 0.995241 17.973 0.988013 17.8809 1.38192C17.8777 1.39593 17.8624 1.40722 17.8596 1.42122C17.7815 1.81288 17.7133 2.20588 17.7101 2.60702H17.7097ZM23.4914 2.31565C23.509 2.09521 23.3974 2.11734 23.2759 2.15077C22.7646 2.29171 22.2365 2.34457 21.7174 2.44259C21.4464 2.49409 21.1735 2.53565 20.9007 2.57721C20.8198 2.5894 20.7449 2.60612 20.744 2.70279C20.7421 2.95169 20.6464 3.18976 20.6504 3.4364C20.6563 3.79056 20.5556 4.13162 20.5443 4.48352C20.5375 4.69086 20.5565 4.73559 20.7467 4.6746C21.1451 4.54676 21.562 4.51198 21.9668 4.42118C22.3562 4.33354 22.7478 4.23732 23.116 4.07064C23.2 4.03269 23.2131 3.97125 23.2253 3.89265C23.2642 3.64194 23.3084 3.39213 23.3541 3.14232C23.406 2.85683 23.4114 2.56366 23.4914 2.31475V2.31565ZM19.1841 0.645148C18.8724 0.59094 18.6032 0.77615 18.3078 0.736398C18.2653 0.730525 18.2188 0.764857 18.2147 0.814999C18.2129 0.838038 18.2359 0.875983 18.2572 0.886373C18.4627 0.983496 18.6195 1.14838 18.8038 1.27531C19.3016 1.61908 19.8418 1.89012 20.3514 2.21266C20.5348 2.32875 20.711 2.44078 20.9445 2.39968C21.2793 2.34095 21.6172 2.29849 21.9519 2.23796C22.2826 2.17833 22.6105 2.10424 22.9394 2.03694C22.9868 2.027 23.0573 2.06539 23.0762 2.00035C23.097 1.92942 23.0243 1.89464 22.9773 1.86754C22.7474 1.73427 22.5233 1.58249 22.278 1.48673C22.0535 1.39954 21.9442 1.11947 21.6637 1.14205C21.6443 1.14386 21.6217 1.12669 21.6027 1.1154C21.3791 0.984399 21.1541 0.855204 20.9323 0.721039C20.7444 0.607202 20.5443 0.557512 20.3238 0.541701C19.9313 0.513242 19.5559 0.645148 19.1846 0.645148H19.1841ZM22.1899 0.182122C21.8737 0.174895 21.59 0.247172 21.3425 0.453613C21.2133 0.561578 21.2422 0.620754 21.3737 0.688063C21.707 0.857914 22.0124 1.0761 22.3571 1.23105C22.7248 1.39638 23.0659 1.62089 23.4263 1.80475C23.5736 1.88018 23.6377 1.97776 23.6274 2.13767C23.612 2.37528 23.6549 2.6156 23.5835 2.85051C23.5718 2.88845 23.5619 2.95215 23.607 2.97247C23.6721 3.00184 23.7014 2.9395 23.7191 2.89252C23.8081 2.65671 23.9106 2.43311 23.9106 2.16252C23.9106 1.71846 23.729 1.3503 23.5325 0.977171C23.2465 0.433737 22.7795 0.205612 22.1899 0.182122Z" fill="#090B0E"/>
<path d="M5.65336 16.6238C5.62399 16.8759 5.48531 17.0864 5.35657 17.2874C5.05255 17.7627 4.81584 18.2636 4.66 18.8044C4.56197 19.1436 4.45943 19.4815 4.47795 19.8415C4.48518 19.9838 4.43458 20.1184 4.42916 20.2612C4.39438 21.1412 4.78242 21.7844 5.51061 22.2429C6.06353 22.5912 6.67292 22.7651 7.31663 22.8645C8.02089 22.9734 8.68448 22.799 9.3553 22.6509C9.86576 22.5379 10.374 22.4137 10.8438 22.1756C11.0534 22.0695 11.249 21.9349 11.459 21.8282C11.5444 21.7849 11.5272 21.7316 11.5272 21.6647C11.5272 21.4095 11.4739 21.1552 11.5476 20.8981C11.7039 20.3524 12.0752 19.9743 12.5111 19.6536C12.8034 19.4386 13.1273 19.2782 13.4882 19.1883C13.7001 19.1355 13.9056 19.1838 14.112 19.1585C14.1396 19.1549 14.1694 19.1684 14.1983 19.1743C14.1694 19.1806 14.1405 19.1933 14.112 19.1924C13.7796 19.1802 13.4561 19.2344 13.1611 19.3826C12.5098 19.7096 11.9889 20.169 11.8028 20.9067C11.7386 21.161 11.8105 21.4276 11.8656 21.6805C12.0223 22.3988 12.1624 23.1166 12.1073 23.8588C12.068 24.3855 11.8186 24.7568 11.3366 24.98C10.9273 25.1697 10.5 25.2474 10.0519 25.2501C9.80207 25.2515 9.5771 25.1507 9.34085 25.1015C8.82768 24.9944 8.37414 24.7415 7.93506 24.4555C7.41918 24.1194 6.90872 23.7571 6.32779 23.5475C5.59599 23.2828 4.90122 23.3483 4.31668 23.9396C3.76376 24.4989 3.59526 25.1516 3.86901 25.883C4.05242 26.3727 4.39844 26.7571 4.87005 27.0006C5.08101 27.1095 5.32811 27.0869 5.55081 27.0367C5.74686 26.9925 5.80695 26.7996 5.83224 26.6184C5.86296 26.4025 5.73557 26.2485 5.58469 26.1233C5.34031 25.9209 5.07017 25.7515 4.93194 25.4426C4.74447 25.0243 5.01506 24.5897 5.47628 24.573C5.73331 24.5635 5.96099 24.615 6.14891 24.7984C5.97725 24.8106 5.82637 24.7202 5.65652 24.704C5.38367 24.6778 5.18175 24.7997 5.08643 25.0098C4.99066 25.2203 5.15374 25.4159 5.28926 25.5844C5.45866 25.7954 5.70531 25.9155 5.89955 26.0998C6.19227 26.3781 6.21847 26.7982 5.9515 27.1031C5.6791 27.4139 5.32585 27.4252 4.9726 27.3475C4.37857 27.2174 4.01763 26.7756 3.7231 26.2887C3.51937 25.9521 3.42135 25.5776 3.44077 25.1693C3.46471 24.6678 3.68019 24.2563 3.9824 23.8827C4.15451 23.67 4.35959 23.4848 4.60263 23.3465C4.82714 23.2191 5.0643 23.1396 5.32224 23.1292C5.77578 23.1103 6.22525 23.1238 6.65168 23.3086C7.03204 23.4735 7.38711 23.6853 7.72003 23.9284C7.83929 24.0155 7.97345 24.0901 8.09452 24.1493C8.50921 24.3521 8.90357 24.6014 9.3535 24.7333C9.7596 24.8521 10.1625 24.886 10.5768 24.7993C10.8045 24.7514 11.0267 24.7053 11.2341 24.5802C11.5304 24.4009 11.6826 24.152 11.7043 23.8136C11.7377 23.2977 11.6587 22.7886 11.6144 22.2777C11.6 22.1128 11.497 22.1829 11.4265 22.2136C11.2472 22.2922 11.0746 22.3861 10.8966 22.467C10.5881 22.607 10.2967 22.7692 9.94888 22.8388C9.74786 22.879 9.5369 22.9991 9.32097 23.0552C8.96501 23.1473 8.60272 23.1947 8.23501 23.2237C7.93777 23.2471 7.64143 23.2648 7.34374 23.2652C7.1784 23.2652 7.02256 23.2327 6.87078 23.1731C6.84412 23.1627 6.81792 23.1347 6.79308 23.1369C6.47777 23.1613 6.20899 22.9937 5.93569 22.893C5.1569 22.6057 4.52809 22.1359 4.24395 21.3002C4.11701 20.9266 4.13554 20.5575 4.15722 20.1763C4.18071 19.7625 4.25118 19.3622 4.37179 18.9679C4.5945 18.2401 4.98931 17.6023 5.41755 16.9843C5.49932 16.8664 5.5088 16.7006 5.65336 16.6256V16.6238Z" fill="#090B0E"/>
<path d="M21.5412 10.3999C21.3758 10.0462 21.1942 9.70284 20.9553 9.39024C20.3811 8.63766 19.6904 8.02918 18.8597 7.56525C18.5263 7.37913 18.1839 7.21877 17.8424 7.05343C17.7024 6.98567 17.6486 6.85015 17.6287 6.7309C17.5619 6.33292 17.5117 5.92772 17.6192 5.52838C17.7972 4.86569 18.3533 4.35298 19.0494 4.21565C19.1899 4.18809 19.3119 4.33671 19.4438 4.39996C19.6163 4.48308 19.7731 4.59917 19.9366 4.70126C19.8097 4.83001 19.6823 4.9583 19.5558 5.08795C19.2803 5.37028 19.1556 5.70501 19.2003 6.10073C19.2071 6.16036 19.212 6.20598 19.2884 6.18882C19.2902 6.21773 19.2916 6.24709 19.2934 6.276C19.2279 6.43049 19.3173 6.51903 19.4307 6.59673L19.4298 6.59538C19.4049 6.70605 19.4903 6.76071 19.549 6.82847C19.5581 6.87319 19.5834 6.90707 19.6118 6.94366C19.8386 7.23503 20.0514 7.53814 20.2876 7.82138C20.6264 8.22749 20.991 8.61191 21.3253 9.02163C21.5046 9.24117 21.7196 9.43948 21.8253 9.71414C21.7535 9.77783 21.7603 9.87676 21.7187 9.95265C21.641 10.0949 21.674 10.2806 21.5412 10.3999Z" fill="#A8BACE"/>
<path d="M5.69848 16.1278C5.47849 15.7186 5.15189 15.4313 4.72003 15.2592C4.43589 15.1458 4.1382 15.0749 3.85361 14.961C3.36483 14.7659 3.10102 14.4343 3.02106 13.9017C2.96686 13.5403 3.02197 13.2142 3.13264 12.8876C3.22299 12.6215 3.38697 12.4092 3.67924 12.3252C3.72803 12.3112 3.81611 12.2963 3.79985 12.1955C3.77636 12.0482 3.86897 12.0166 3.99184 11.9597C4.70241 11.6308 5.47171 11.4827 6.20397 11.2229C6.43842 11.1398 6.71172 11.1841 6.94933 11.2713C7.4119 11.4407 7.87719 11.6037 8.32395 11.8147C8.45631 11.877 8.51684 11.9565 8.49922 12.1061C8.4405 12.6052 8.4527 13.1076 8.4545 13.609C8.4545 13.7215 8.40797 13.7919 8.3113 13.8565C7.90745 14.1262 7.46656 14.3254 7.04013 14.5531C6.97418 14.5883 6.85356 14.5969 6.87389 14.7257C6.65751 14.7645 6.45378 14.8296 6.26089 14.9425C5.97856 15.1078 5.66867 15.2284 5.37504 14.9913C5.10717 14.7754 4.78598 14.6584 4.50952 14.4637C4.45803 14.4275 4.40517 14.4063 4.34238 14.414C4.3216 14.3729 4.29043 14.3471 4.24707 14.3254C3.98009 14.1913 3.85858 13.9713 3.84367 13.6727C3.8256 13.3027 3.78314 12.9341 3.7592 12.5641C3.75197 12.4516 3.71176 12.4611 3.63587 12.5022C3.43711 12.6098 3.37929 12.8144 3.30746 13C3.21079 13.2494 3.251 13.5182 3.265 13.7757C3.28623 14.1583 3.4466 14.4637 3.8265 14.6308C4.06818 14.737 4.32205 14.8029 4.56599 14.8991C4.63691 14.9186 4.70829 14.9375 4.77921 14.9579C5.30186 15.1083 5.71113 15.6291 5.69848 16.1269V16.1278ZM8.2196 12.9603C8.21825 12.9201 8.21734 12.8799 8.21599 12.8397C8.24038 12.7132 8.23586 12.5867 8.21463 12.4602C8.21418 12.4367 8.21328 12.4132 8.21283 12.3893C8.21463 12.3532 8.21599 12.317 8.21779 12.2813C8.21644 12.2579 8.21508 12.2339 8.21373 12.2104C8.22141 12.1734 8.20605 12.1603 8.17036 12.1689C7.99554 12.2384 7.82117 12.3107 7.645 12.3771C7.21856 12.5379 6.82691 12.7764 6.3937 12.9242C6.19674 12.9915 5.96501 13.0073 5.82316 13.1975C5.79199 13.2304 5.70255 13.2449 5.78567 13.3145C5.79696 13.745 5.81593 14.1759 5.77799 14.6064C5.72333 14.8454 5.72423 14.8476 5.87872 14.8327C5.96139 14.8052 6.05219 14.7912 6.12447 14.7469C6.41674 14.5689 6.7325 14.4357 7.02748 14.2658C7.42546 14.0363 7.85867 13.8638 8.21147 13.5579C8.2309 13.5417 8.23406 13.5227 8.21915 13.5019C8.21689 13.4771 8.21508 13.4527 8.21283 13.4278C8.24174 13.3321 8.24174 13.2363 8.21734 13.1396C8.21779 13.1139 8.2187 13.0886 8.21915 13.0628C8.21915 13.0285 8.21915 12.9946 8.21915 12.9603H8.2196ZM8.00277 12.0126C7.98515 11.8996 7.87945 11.8766 7.80717 11.8576C7.50993 11.7799 7.23347 11.6503 6.95069 11.5369C6.70539 11.4389 6.43707 11.3783 6.18906 11.4443C5.60904 11.5983 5.04031 11.7953 4.46751 11.9769C4.38936 12.0017 4.30037 12.0487 4.31121 12.1354C4.3207 12.2122 4.35864 12.289 4.45441 12.3369C4.82032 12.5194 5.17221 12.7313 5.54399 12.9002C5.61311 12.9318 5.66777 13.0412 5.79199 12.9892C6.47275 12.7037 7.15713 12.4282 7.84241 12.154C7.91784 12.1237 7.9707 12.0853 8.00322 12.0121L8.00277 12.0126ZM5.65738 14.0223C5.65738 14.0223 5.65512 14.0223 5.65421 14.0223C5.65421 13.8046 5.63976 13.585 5.65873 13.3691C5.67499 13.183 5.58871 13.1049 5.43557 13.0344C5.00824 12.8383 4.5818 12.6387 4.17976 12.392C4.12691 12.3595 4.07586 12.2768 4.00584 12.3206C3.95299 12.3536 3.9828 12.4322 3.98371 12.49C3.98868 12.8709 4.04695 13.2494 4.06005 13.628C4.06908 13.8922 4.18021 14.0155 4.3862 14.1316C4.78282 14.3557 5.16996 14.5965 5.55574 14.8395C5.68087 14.9186 5.65647 14.8305 5.65692 14.7668C5.65873 14.5188 5.65783 14.2708 5.65783 14.0228L5.65738 14.0223Z" fill="#090B0E"/>
<path d="M21.8253 9.71411C21.7201 9.43945 21.5046 9.24114 21.3253 9.0216C20.991 8.61233 20.6264 8.22745 20.2876 7.82135C20.0514 7.53811 19.8386 7.235 19.6118 6.94363C19.5834 6.90704 19.5581 6.87361 19.549 6.82844C19.5662 6.81037 19.5829 6.7923 19.6001 6.77423C20.0952 7.37775 20.6644 7.90898 21.2245 8.44971C21.5498 8.76366 21.8601 9.09478 22.1253 9.46159C22.4085 9.85369 22.6791 10.2553 22.8801 10.7002C23.0495 11.0752 23.1688 11.4682 23.2532 11.8639C23.3332 12.2379 23.3675 12.6337 23.3459 13.0154C23.3156 13.5443 23.2121 14.0625 23.0165 14.5684C22.8363 15.0355 22.6005 15.4619 22.3281 15.8748C22.3164 15.8925 22.3182 15.925 22.3033 15.9345C22.0656 16.0813 22.0042 16.3641 21.8235 16.5529C21.295 17.1054 20.7705 17.6605 20.2149 18.1882C19.8924 18.4944 19.5572 18.7881 19.2337 19.0934C18.9541 19.3577 18.6487 19.5939 18.3565 19.8442C18.3095 19.8844 18.2593 19.8749 18.2074 19.8731C18.5855 19.5167 18.9636 19.1603 19.3417 18.8039C19.39 18.7582 19.4488 18.7221 19.475 18.6561C19.4817 18.653 19.4903 18.6516 19.4953 18.6467C20.4069 17.7333 21.3225 16.8302 22.0155 15.7203C22.3814 15.1344 22.6321 14.521 22.8178 13.8678C22.9497 13.4039 22.9307 12.9322 22.9108 12.4579C22.9013 12.2379 22.8611 12.0252 22.8223 11.8106C22.7112 11.1958 22.4505 10.6388 22.1266 10.1134C22.0417 9.97566 21.9821 9.80174 21.8244 9.71275L21.8253 9.71411Z" fill="#090B0E"/>
<path d="M4.34237 14.4144C4.40516 14.4067 4.45847 14.428 4.50951 14.4641C4.78597 14.6588 5.10761 14.7758 5.37503 14.9917C5.66911 15.2289 5.979 15.1083 6.26088 14.9429C6.45422 14.8295 6.65795 14.7645 6.87388 14.7261C6.84271 14.7943 6.89556 14.8395 6.92131 14.8901C7.19551 15.4331 7.17609 15.9684 6.87343 16.4919C6.73926 16.7241 6.61007 16.9608 6.4366 17.1686C6.24055 16.9563 6.04585 16.7431 5.88594 16.5014C5.83896 16.4305 5.79559 16.3632 5.70389 16.3505C5.70209 16.2764 5.69983 16.2024 5.69802 16.1283C5.71067 15.63 5.3014 15.1092 4.77874 14.9592C4.70782 14.9389 4.6369 14.9199 4.56553 14.9005C4.58992 14.816 4.52668 14.7663 4.49144 14.7035C4.43859 14.6091 4.34418 14.5355 4.34192 14.4153L4.34237 14.4144Z" fill="#718293"/>
<path d="M19.4308 6.59716C19.3174 6.51901 19.2279 6.43092 19.2934 6.27643C19.3526 6.37762 19.4077 6.48061 19.4308 6.59716Z" fill="#15466A"/>
<path d="M19.6002 6.77471C19.583 6.79278 19.5663 6.81085 19.5491 6.82892C19.4899 6.76116 19.405 6.7065 19.4299 6.59583C19.5085 6.63467 19.5681 6.69159 19.6002 6.77471Z" fill="#15466A"/>
<path d="M21.8254 9.71411C21.9835 9.8031 22.0427 9.97702 22.1276 10.1148C22.451 10.6397 22.7117 11.1971 22.8232 11.812C22.8621 12.0261 22.9023 12.2388 22.9118 12.4593C22.9317 12.9336 22.9506 13.4052 22.8187 13.8691C22.6331 14.5219 22.3824 15.1358 22.0165 15.7217C21.323 16.8316 20.4078 17.7346 19.4962 18.648C19.4913 18.653 19.4827 18.6543 19.4759 18.6575C18.6727 18.4601 17.879 18.3847 17.1296 18.8472C17.0817 18.8771 17.0361 18.8924 16.9814 18.8775C17.1364 18.5748 17.3844 18.3467 17.6116 18.1046C17.9436 17.7504 18.3502 17.4848 18.7351 17.193C19.1096 16.9093 19.4845 16.6225 19.8332 16.3085C20.42 15.7809 20.8907 15.1606 21.258 14.4568C21.7115 13.5877 21.8827 12.6671 21.8114 11.699C21.7788 11.2568 21.6682 10.8258 21.5412 10.4003C21.674 10.2806 21.6411 10.0954 21.7188 9.95308C21.7603 9.87719 21.7535 9.77781 21.8254 9.71456V9.71411Z" fill="#718293"/>
<path d="M9.66791 10.2002C9.65029 9.98108 9.75871 9.79587 9.85945 9.6224C10.229 8.98862 10.6988 8.43932 11.2941 8.0034C11.4762 7.87013 11.6325 7.68809 11.8859 7.68854C11.8859 7.75856 11.9424 7.76217 11.9903 7.78476C12.3277 7.94286 12.4515 8.26947 12.442 8.64034C12.4235 9.36989 11.9727 9.84601 11.5069 10.2959C11.235 10.5584 10.8718 10.7368 10.477 10.7924C10.1879 10.833 9.91365 10.6826 9.77813 10.4229C9.73974 10.3497 9.7045 10.2747 9.66791 10.2006V10.2002Z" fill="#88A1C1"/>
<path d="M15.6371 21.0481C15.7166 21.2252 15.6859 21.4194 15.7189 21.6046C15.8146 22.1454 15.9736 22.6594 16.3644 23.0592C16.7741 23.4793 17.2837 23.7224 17.8587 23.8592C18.2332 23.9482 18.6 24.0462 18.9885 24.0318C19.0933 24.0277 19.0788 24.0819 19.0219 24.1402C18.8923 24.2735 18.7342 24.3634 18.5743 24.4555C18.2711 24.6308 17.9355 24.7288 17.6021 24.7437C16.8089 24.779 16.1584 24.4682 15.6994 23.8014C15.2251 23.1121 15.1433 22.3712 15.4108 21.5834C15.4338 21.5161 15.4776 21.4465 15.4474 21.3675C15.6145 21.3227 15.5047 21.1131 15.6375 21.0481H15.6371Z" fill="white"/>
<path d="M14.8167 16.0876C14.9378 15.8175 15.1243 15.625 15.4243 15.5554C15.4835 15.5419 15.5332 15.4863 15.5874 15.4502C15.5896 15.5229 15.7545 15.4344 15.7035 15.5844C15.6511 15.7389 15.7857 15.92 15.9343 15.9471C16.1222 15.9814 16.3237 15.8821 16.3341 15.7113C16.3413 15.5934 16.3494 15.6313 16.4163 15.667C16.8856 15.9146 16.915 16.7277 16.5997 17.0859C16.3259 17.3972 16.0021 17.511 15.5919 17.488C15.1135 17.4613 14.781 17.146 14.7715 16.6631C14.7675 16.4689 14.7941 16.2791 14.8167 16.088V16.0876Z" fill="white"/>
<path d="M13.5107 8.99223C13.298 8.9963 13.1114 8.95474 13.0021 8.74107C12.872 8.48675 12.9547 8.26043 13.0888 8.04631C13.2993 7.70977 13.602 7.49519 13.9842 7.3791C14.4969 7.2237 14.9902 7.53269 14.9549 8.00565C14.9382 8.22835 14.8 8.38465 14.6374 8.52062C14.3108 8.79392 13.9544 8.99675 13.5112 8.99223H13.5107Z" fill="#88A1C1"/>
<path d="M18.221 21.5766C18.5927 21.8106 18.9695 22.0342 19.4049 22.1345C19.5373 22.1648 19.5251 22.3016 19.5518 22.3893C19.6615 22.7507 19.6529 23.117 19.5296 23.4761C19.4799 23.6216 19.3729 23.6794 19.2184 23.674C18.951 23.6645 18.6826 23.6826 18.4184 23.6216C18.3673 23.6098 18.3118 23.6144 18.2964 23.5471C18.3447 23.3158 18.4129 23.0904 18.4378 22.8527C18.4784 22.4647 18.4026 22.1015 18.2625 21.7455C18.2413 21.6913 18.1997 21.6416 18.2205 21.5766H18.221Z" fill="#718293"/>
<path d="M9.76008 26.9256C9.335 26.8452 8.96865 26.6215 8.58061 26.4494C8.31363 26.3311 8.09996 26.1404 7.86597 25.9778C7.87003 25.4488 8.19257 25.2139 8.72607 25.3314C9.30519 25.4592 9.64037 25.8373 9.82242 26.3717C9.88521 26.556 9.89831 26.7544 9.76008 26.9256Z" fill="#88A1C1"/>
<path d="M13.6119 21.9507C13.6603 21.6706 13.6806 21.3869 13.7777 21.1136C13.808 21.0287 13.878 20.9686 13.8898 20.8801C14.5014 20.899 14.9269 21.4303 14.8063 22.0333C14.7232 22.448 14.4034 22.6987 14.0194 22.86C13.902 22.9092 13.7868 22.9671 13.653 22.9481C13.6381 22.6314 13.6142 22.3148 13.6372 21.9972C13.6499 21.9701 13.6345 21.9584 13.6119 21.9507Z" fill="#88A1C1"/>
<path d="M13.0984 15.0915C13.7764 14.9005 14.361 15.1932 14.5462 15.8735C14.697 16.4269 14.3144 16.9766 13.907 17.1718C13.4598 17.3859 13.0378 17.3904 12.6222 17.118C12.2767 16.8917 12.2211 16.5412 12.2324 16.1653C12.2378 15.9769 12.2965 15.8053 12.3815 15.6399C12.4059 15.5921 12.4199 15.5424 12.4845 15.593L12.4772 15.5898C12.437 15.7226 12.3914 15.8545 12.3575 15.9891C12.2676 16.346 12.4081 16.8303 12.7469 17.0128C13.0835 17.1944 13.4141 17.1433 13.7624 17.0372C14.4576 16.8253 14.5945 15.7384 14.0479 15.3319C13.9716 15.2749 13.9427 15.2248 13.9119 15.3685C13.8749 15.5419 13.6373 15.6368 13.4692 15.5695C13.2976 15.5004 13.2194 15.354 13.2922 15.2009C13.331 15.1191 13.2849 15.1322 13.2447 15.1363C13.1959 15.1412 13.1481 15.158 13.1002 15.1697C13.0993 15.1439 13.0988 15.1177 13.0979 15.092L13.0984 15.0915Z" fill="#090B0E"/>
<path d="M14.8167 16.0876C14.7941 16.2787 14.7679 16.4684 14.7715 16.6627C14.7815 17.146 15.1139 17.4609 15.5919 17.4875C16.002 17.5106 16.3259 17.3967 16.5997 17.0855C16.915 16.7268 16.8856 15.9142 16.4163 15.6666C16.3494 15.6314 16.3413 15.5934 16.3341 15.7109C16.3237 15.8816 16.1222 15.981 15.9343 15.9467C15.7857 15.9196 15.651 15.7384 15.7034 15.5839C15.7545 15.4335 15.5896 15.5225 15.5873 15.4498C15.9392 15.3432 16.2808 15.3752 16.5703 15.6007C16.8874 15.8482 17.0397 16.182 16.9859 16.5999C16.9123 17.1727 16.5559 17.4803 16.0377 17.6402C15.4572 17.8196 14.8357 17.5006 14.669 16.94C14.5926 16.683 14.6482 16.4278 14.7114 16.1771C14.7205 16.1405 14.7394 16.0673 14.8162 16.0872L14.8167 16.0876Z" fill="#090B0E"/>
<path d="M15.0855 22.7656C15.1461 23.1622 15.2613 23.5407 15.4514 23.8949C15.353 23.9297 15.2522 23.9586 15.1569 23.9997C14.8041 24.1519 14.4287 23.7395 14.4662 23.4323C14.5141 23.0398 14.6157 22.8428 15.0851 22.7656H15.0855Z" fill="#88A1C1"/>
<path d="M17.8492 21.0097C18.404 21.0766 18.834 21.3711 19.2108 21.7605C19.2284 21.779 19.2455 21.8242 19.2361 21.8377C19.2094 21.8748 19.1778 21.849 19.1416 21.8332C18.741 21.6548 18.3638 21.4384 18.0241 21.1601C17.9843 21.1276 17.9549 21.0797 17.8922 21.0982C17.8777 21.0689 17.8632 21.0395 17.8492 21.0097Z" fill="white"/>
<path d="M13.0983 15.0916C13.0992 15.1173 13.0997 15.1435 13.1006 15.1693C13.0279 15.1896 12.9556 15.2095 12.8829 15.2293C12.8761 15.2203 12.8702 15.2108 12.8652 15.2009C12.9285 15.1336 13.0044 15.0938 13.0983 15.0916Z" fill="#15466A"/>
<path d="M12.4845 15.5934C12.4466 15.4769 12.5261 15.424 12.6051 15.3707C12.6074 15.3956 12.6092 15.4204 12.6114 15.4453C12.5721 15.4986 12.5473 15.565 12.4777 15.5898L12.4849 15.593L12.4845 15.5934Z" fill="#090B0E"/>
<path d="M12.6114 15.4453C12.6092 15.4204 12.6074 15.3956 12.6051 15.3707C12.6227 15.3341 12.6525 15.3143 12.6918 15.3075C12.704 15.3197 12.7167 15.3319 12.7289 15.3441C12.6896 15.378 12.6507 15.4114 12.6114 15.4453Z" fill="#15466A"/>
<path d="M12.6918 15.3075C12.7175 15.2696 12.7478 15.2474 12.7943 15.2754L12.7925 15.2741C12.7875 15.312 12.7573 15.3274 12.7288 15.3441C12.7166 15.3319 12.704 15.3197 12.6918 15.3075Z" fill="#15466A"/>
<path d="M12.7939 15.2754C12.7781 15.2126 12.8309 15.2158 12.8653 15.2009C12.8707 15.2108 12.8766 15.2203 12.8829 15.2293C12.8675 15.2745 12.8282 15.2704 12.7925 15.2736L12.7943 15.275L12.7939 15.2754Z" fill="#15466A"/>
<path d="M21.9478 17.0729C22.129 17.0674 22.2437 16.9197 22.4032 16.8601C23.0401 16.6211 23.6879 16.5872 24.3181 16.8172C25.3503 17.1944 25.9511 17.9542 26.1603 19.0365C26.2935 19.7268 26.3116 20.4247 26.1372 21.0928C26.0166 21.5545 25.7632 21.9854 25.3982 22.3428C24.7707 22.9571 23.9874 23.2557 23.1879 23.5408C22.765 23.6912 22.3255 23.7702 21.8936 23.8832C21.8512 23.8945 21.8051 23.8949 21.7608 23.8958C21.5051 23.8999 21.5164 23.9003 21.5399 23.6424C21.5666 23.3519 21.577 23.0529 21.4939 22.7746C21.4392 22.5917 21.5295 22.6368 21.6231 22.6287C21.9623 22.5998 22.3061 22.612 22.6399 22.5397C23.0397 22.4534 23.4286 22.3509 23.7679 22.088C23.9197 21.9705 24.1297 21.9172 24.2521 21.7533C24.4274 21.5184 24.6524 21.3241 24.8173 21.0856C24.9148 20.9442 24.9171 20.7445 24.9627 20.5715C25.1646 19.8049 25.0892 19.0627 24.6036 18.4235C24.1609 17.8403 23.5592 17.53 22.798 17.6231C22.77 17.6267 22.7393 17.6335 22.7158 17.6484C22.34 17.8873 21.9013 17.9226 21.4857 18.0346C21.4351 18.0481 21.3967 18.0865 21.3511 18.0301C21.3028 17.9695 21.3421 17.9253 21.3656 17.8684C21.4636 17.6303 21.6118 17.4311 21.7992 17.2581C21.8584 17.2034 21.9248 17.1537 21.9497 17.0715L21.9474 17.0738L21.9478 17.0729Z" fill="#A8BACE"/>
<path d="M18.394 27.9171C18.2368 27.9261 18.1469 27.8204 18.0417 27.7622C17.4458 27.4328 16.8324 27.1379 16.2239 26.8343C15.9266 26.6861 15.6393 26.5231 15.376 26.3216C15.292 26.2574 15.2242 26.21 15.4049 26.1436C15.9628 25.939 16.5247 25.752 17.098 25.5952C17.1648 25.5771 17.2069 25.5812 17.2575 25.6097C17.561 25.7813 17.8546 25.976 18.1718 26.116C18.3073 26.1761 18.4414 26.2498 18.5819 26.3053C19.0834 26.5018 19.5676 26.7426 20.0591 26.9658C20.1016 26.9852 20.1463 27.0073 20.1413 27.0575C20.1354 27.1221 20.0699 27.0918 20.0333 27.1085C19.5464 27.3335 19.054 27.5471 18.6063 27.8489C18.5408 27.8932 18.4645 27.9352 18.3936 27.9162L18.394 27.9171Z" fill="#5FC2FB"/>
<path d="M18.3452 28.9755C18.3452 29.1933 18.3407 29.4115 18.347 29.6292C18.3502 29.739 18.3312 29.7444 18.2237 29.7123C17.987 29.6414 17.8384 29.444 17.627 29.3374C17.1061 29.0749 16.644 28.714 16.139 28.4226C15.8837 28.2753 15.6529 28.073 15.4112 27.8954C15.2391 27.769 15.2116 27.5621 15.1831 27.3633C15.1438 27.0841 15.0959 26.8068 15.0914 26.5235C15.0891 26.3767 15.132 26.3568 15.2612 26.4219C15.4361 26.51 15.586 26.6315 15.7437 26.7426C16.2352 27.0882 16.7908 27.3154 17.3103 27.6086C17.6062 27.7753 17.9233 27.9018 18.2079 28.0919C18.31 28.1606 18.3479 28.2279 18.3439 28.3454C18.3362 28.5554 18.3416 28.7659 18.3416 28.9764C18.3425 28.9764 18.3439 28.9764 18.3448 28.9764L18.3452 28.9755Z" fill="#21A4FD"/>
<path d="M23.0383 20.0624C23.0383 20.2955 23.0437 20.5291 23.0365 20.7617C23.0302 20.9596 23.0021 20.9695 22.8192 20.9008C22.2419 20.6845 21.6844 20.4238 21.1306 20.1537C21.0132 20.0963 20.9237 20.0118 20.9287 19.9093C20.9508 19.4715 20.832 19.0474 20.8271 18.6137C20.8257 18.4841 20.874 18.4777 20.9757 18.5288C21.5607 18.8211 22.1791 19.0248 22.8065 19.1996C22.9741 19.2461 23.0663 19.3008 23.0414 19.4991C23.018 19.6843 23.0365 19.8745 23.0365 20.0624C23.0369 20.0624 23.0374 20.0624 23.0378 20.0624H23.0383Z" fill="#15466A"/>
<path d="M18.5191 28.8775C18.5191 28.6747 18.525 28.4718 18.5169 28.2695C18.5119 28.1416 18.553 28.0571 18.6696 27.998C19.204 27.7287 19.7347 27.4527 20.2696 27.1839C20.4467 27.095 20.5113 27.1392 20.5072 27.3434C20.4995 27.7161 20.3947 28.0811 20.4182 28.4569C20.4241 28.554 20.35 28.601 20.2764 28.6426C20.022 28.7867 19.7628 28.9222 19.5148 29.0758C19.2356 29.2488 18.965 29.4367 18.6931 29.6219C18.5693 29.7064 18.5191 29.6784 18.5214 29.5302C18.5241 29.3125 18.5223 29.0948 18.5223 28.877H18.5191V28.8775Z" fill="#15466A"/>
<path d="M23.1412 20.455C23.1376 20.4125 23.1345 20.3705 23.1309 20.328C23.172 20.2521 23.1702 20.1763 23.1327 20.0995C23.1358 19.8921 23.139 19.6852 23.1422 19.4779C23.1837 19.4155 23.1783 19.3509 23.1512 19.2854C23.2971 19.1436 23.4986 19.1449 23.6756 19.0844C23.9259 18.9986 24.1825 18.9295 24.4269 18.8296C24.5656 18.7732 24.6261 18.8409 24.6568 18.9371C24.7847 19.3428 24.8578 19.7548 24.7648 20.1821C24.7259 20.361 24.6667 20.4681 24.458 20.5272C24.0858 20.633 23.7339 20.8091 23.3712 20.9505C23.2957 20.9799 23.1977 21.0924 23.1417 20.9225C23.1828 20.8417 23.1855 20.7612 23.1412 20.6804C23.1412 20.6406 23.1417 20.6009 23.1422 20.5611C23.1738 20.5254 23.1738 20.4898 23.1417 20.4541L23.1412 20.455Z" fill="#21A4FD"/>
<path d="M22.9772 19.0627C22.6777 19.0252 22.3927 18.9268 22.114 18.8211C21.9012 18.7402 21.6939 18.6489 21.468 18.6083C21.44 18.6033 21.4156 18.5816 21.3885 18.5717C21.2557 18.5243 21.1522 18.4362 21.0574 18.3363C21.1559 18.2577 21.2792 18.2397 21.3944 18.2081C21.9938 18.0432 22.6086 17.9402 23.2058 17.7631C23.3431 17.7224 23.4859 17.7794 23.6115 17.8408C23.9155 17.989 24.1748 18.1995 24.393 18.4574C24.4377 18.5107 24.542 18.6038 24.4074 18.6458C23.9543 18.7881 23.5247 19.0076 23.0454 19.0627C23.0233 19.0654 23.0003 19.0627 22.9777 19.0627H22.9772Z" fill="#5FC2FB"/>
<path d="M13.7823 20.6023C13.8166 20.5896 13.8501 20.5738 13.8857 20.5648C13.9047 20.5598 13.9269 20.567 13.9476 20.5688C13.9409 20.586 13.9377 20.6063 13.9269 20.6203C13.6088 21.0228 13.4259 21.4868 13.3148 21.9819C13.2845 22.1165 13.2398 22.2488 13.238 22.3893C13.238 22.4169 13.2601 22.4702 13.2072 22.4684C13.1697 22.467 13.1576 22.4255 13.1499 22.3848C13.0279 21.7483 13.1666 21.1936 13.6558 20.7459C13.7046 20.7012 13.7439 20.647 13.7877 20.5968L13.7823 20.6023Z" fill="white"/>
<path d="M26.2984 18.3788C26.2934 18.3671 26.2902 18.3544 26.2893 18.3418C26.3088 18.2586 26.2911 18.1918 26.2067 18.1543C26.2243 18.0269 26.3435 18.0296 26.4167 18.0296C26.5057 18.0296 26.4642 18.1326 26.4669 18.19C26.4709 18.2695 26.4578 18.3494 26.452 18.4294C26.3521 18.559 26.367 18.3422 26.2984 18.3783V18.3788Z" fill="#21A4FD"/>
<path d="M26.2984 18.3788C26.3671 18.3427 26.3522 18.5595 26.452 18.4299C26.5478 18.4886 26.4746 18.5631 26.4692 18.6304C26.4669 18.6589 26.4547 18.6896 26.415 18.6883C26.382 18.6869 26.3608 18.6711 26.3495 18.639C26.3196 18.5545 26.2835 18.4719 26.298 18.3788H26.2984Z" fill="#15466A"/>
<path d="M26.2067 18.1543C26.2912 18.1918 26.3088 18.2586 26.2894 18.3418C26.2216 18.297 26.2031 18.2306 26.2067 18.1543Z" fill="#15466A"/>
<path d="M23.1327 20.0994C23.1697 20.1758 23.172 20.2521 23.1309 20.328C23.1119 20.2517 23.1128 20.1753 23.1327 20.0994Z" fill="#15466A"/>
<path d="M23.1409 20.6808C23.1851 20.7613 23.1824 20.8421 23.1413 20.923C23.1174 20.8426 23.1183 20.7617 23.1409 20.6808Z" fill="#15466A"/>
<path d="M23.1512 19.2859C23.1783 19.3514 23.1837 19.416 23.1421 19.4783C23.1218 19.4133 23.1128 19.3482 23.1512 19.2859Z" fill="#15466A"/>
<path d="M26.4471 18.8481L26.443 18.8292L26.4561 18.8314L26.4471 18.8481Z" fill="#15466A"/>
<path d="M23.1412 20.455C23.1733 20.4906 23.1733 20.5259 23.1417 20.562C23.1417 20.5263 23.1417 20.4906 23.1412 20.455Z" fill="#15466A"/>
<path d="M13.6119 21.9507C13.6345 21.9584 13.6503 21.9701 13.6372 21.9972C13.6287 21.9819 13.6205 21.9665 13.6119 21.9507Z" fill="#15466A"/>
<path d="M17.7096 2.60701C17.7128 2.20587 17.781 1.81286 17.8591 1.42121C17.8619 1.40721 17.8772 1.39591 17.8804 1.38191C17.9725 0.988 17.968 0.995228 18.319 1.21341C19.0038 1.63849 19.6932 2.05725 20.3843 2.47194C20.5158 2.55054 20.5619 2.61559 20.5289 2.78906C20.4476 3.2182 20.3947 3.65413 20.3766 4.09231C20.3712 4.22512 20.3794 4.40265 20.2854 4.45821C20.1675 4.52823 20.022 4.41575 19.8992 4.34482C19.6019 4.17271 19.3101 3.99292 19.0061 3.8312C18.6054 3.61799 18.2273 3.3614 17.8442 3.11702C17.7173 3.03616 17.7028 2.94807 17.7096 2.60701Z" fill="#21A4FD"/>
<path d="M23.4909 2.31563C23.4114 2.56408 23.406 2.85726 23.3536 3.1432C23.308 3.39301 23.2637 3.64282 23.2249 3.89353C23.2127 3.97168 23.2 4.03312 23.1156 4.07151C22.7474 4.2382 22.3557 4.33397 21.9663 4.42206C21.5616 4.51331 21.1446 4.54764 20.7462 4.67548C20.556 4.73646 20.5371 4.69174 20.5438 4.4844C20.5551 4.13205 20.6559 3.79144 20.65 3.43728C20.6459 3.19064 20.7417 2.95257 20.7435 2.70367C20.7444 2.607 20.8194 2.59028 20.9003 2.57809C21.1731 2.53653 21.4459 2.49452 21.717 2.44347C22.2365 2.34499 22.7641 2.29214 23.2755 2.15165C23.3965 2.11822 23.5086 2.09609 23.4909 2.31653V2.31563Z" fill="#15466A"/>
<path d="M19.1836 0.645142C19.5554 0.645142 19.9304 0.513688 20.3229 0.541696C20.5434 0.557506 20.7435 0.607197 20.9314 0.721033C21.1532 0.855198 21.3777 0.984393 21.6018 1.1154C21.6212 1.12669 21.6433 1.1434 21.6628 1.14205C21.9433 1.11901 22.0526 1.39908 22.2771 1.48672C22.5224 1.58204 22.7465 1.73427 22.9764 1.86753C23.0234 1.89463 23.0966 1.92942 23.0753 2.00034C23.0563 2.06539 22.9854 2.02699 22.9384 2.03693C22.6091 2.10469 22.2812 2.17832 21.951 2.23795C21.6162 2.29848 21.2788 2.34095 20.9436 2.39967C20.7096 2.44078 20.5339 2.32875 20.3505 2.21265C19.8409 1.89057 19.3006 1.61908 18.8028 1.27531C18.619 1.14837 18.4618 0.98349 18.2562 0.886367C18.2346 0.875977 18.2115 0.838032 18.2138 0.814994C18.2178 0.764851 18.2644 0.73052 18.3068 0.736392C18.6023 0.776145 18.8715 0.590934 19.1832 0.645142H19.1836Z" fill="#5FC2FB"/>
<path d="M22.1895 0.182131C22.779 0.205621 23.2461 0.434198 23.532 0.97718C23.7285 1.35031 23.9101 1.71892 23.9101 2.16253C23.9101 2.43311 23.808 2.65672 23.7186 2.89253C23.701 2.93951 23.6716 3.00139 23.6066 2.97248C23.5614 2.95215 23.5713 2.88846 23.5831 2.85051C23.6544 2.61561 23.6115 2.37484 23.6269 2.13768C23.6373 1.97777 23.5731 1.88019 23.4259 1.80475C23.0654 1.6209 22.7248 1.39639 22.3566 1.23105C22.0119 1.07611 21.707 0.857923 21.3732 0.688071C21.2413 0.620763 21.2128 0.561586 21.342 0.453622C21.5891 0.246729 21.8733 0.174903 22.1895 0.182131Z" fill="#A8BACE"/>
<path d="M8.22009 13.0628C8.21964 13.0886 8.21874 13.1138 8.21829 13.1396C8.17673 13.2349 8.1695 13.3311 8.21377 13.4278C8.21603 13.4526 8.21783 13.477 8.22009 13.5019C8.20338 13.5186 8.19751 13.5371 8.21241 13.5579C7.85961 13.8633 7.42685 14.0363 7.02842 14.2658C6.73344 14.4356 6.41768 14.5689 6.12541 14.7469C6.05313 14.7911 5.96188 14.8047 5.87967 14.8327C5.78797 14.783 5.87696 14.6529 5.77893 14.6064C5.81733 14.1759 5.7979 13.7454 5.78661 13.3144C5.84759 13.2909 5.82636 13.2412 5.8241 13.1974C5.96595 13.0077 6.19769 12.9914 6.39464 12.9241C6.82785 12.776 7.21951 12.5379 7.64594 12.3771C7.82212 12.3107 7.99603 12.2384 8.17131 12.1688C8.18576 12.1828 8.20022 12.1968 8.21467 12.2104C8.21603 12.2339 8.21738 12.2578 8.21874 12.2813C8.18079 12.3156 8.18034 12.3518 8.21377 12.3893C8.21422 12.4128 8.21512 12.4362 8.21558 12.4602C8.16001 12.5867 8.17311 12.7132 8.21693 12.8396C8.21829 12.8799 8.21919 12.9201 8.22054 12.9603C8.19299 12.9946 8.19254 13.0289 8.22054 13.0628H8.22009Z" fill="#21A4FD"/>
<path d="M8.00285 12.0125C7.97032 12.0857 7.91747 12.1241 7.84203 12.1544C7.15675 12.4286 6.47238 12.7046 5.79162 12.9896C5.66784 13.0416 5.61273 12.9318 5.54362 12.9006C5.17184 12.7317 4.82039 12.5198 4.45404 12.3373C4.35827 12.2894 4.32032 12.2126 4.31084 12.1358C4.3 12.0491 4.38899 12.0021 4.46714 11.9773C5.03993 11.7957 5.60867 11.5987 6.18869 11.4447C6.43669 11.3787 6.70502 11.4393 6.95031 11.5373C7.23355 11.6502 7.50956 11.7799 7.8068 11.858C7.87907 11.877 7.98478 11.9 8.0024 12.013L8.00285 12.0125Z" fill="#5FC2FB"/>
<path d="M5.65737 14.0223C5.65737 14.2703 5.65828 14.5183 5.65647 14.7663C5.65602 14.83 5.68041 14.9181 5.55528 14.839C5.16995 14.596 4.78237 14.3552 4.38575 14.1311C4.17976 14.0146 4.06863 13.8917 4.0596 13.6275C4.0465 13.2489 3.98822 12.8708 3.98325 12.4895C3.98235 12.4317 3.95299 12.3531 4.00539 12.3201C4.07541 12.2763 4.12645 12.359 4.1793 12.3915C4.58135 12.6382 5.00778 12.8378 5.43512 13.0339C5.58826 13.1044 5.67454 13.1825 5.65828 13.3686C5.6393 13.585 5.65376 13.8041 5.65376 14.0218C5.65466 14.0218 5.65602 14.0218 5.65692 14.0218L5.65737 14.0223Z" fill="#15466A"/>
<path d="M4.34246 14.4144C4.34517 14.535 4.43913 14.6082 4.49198 14.7026C4.52722 14.7654 4.59046 14.8151 4.56607 14.8996C4.32213 14.8034 4.06826 14.7379 3.82658 14.6313C3.44622 14.4641 3.28631 14.1587 3.26508 13.7761C3.25062 13.5186 3.21087 13.2499 3.30754 13.0005C3.37936 12.8148 3.43719 12.6102 3.63595 12.5027C3.71184 12.4616 3.75204 12.4521 3.75927 12.5646C3.78321 12.9346 3.82568 13.3032 3.84375 13.6731C3.85865 13.9713 3.98017 14.1917 4.24714 14.3259C4.29006 14.3476 4.32123 14.3733 4.34246 14.4144Z" fill="#A8BACE"/>
<path d="M5.778 14.6064C5.87648 14.6529 5.78749 14.783 5.87874 14.8327C5.72425 14.8476 5.72334 14.8458 5.778 14.6064Z" fill="#21A4FD"/>
<path d="M8.21609 12.8397C8.17272 12.7132 8.15917 12.5871 8.21473 12.4602C8.23596 12.5867 8.24048 12.7132 8.21609 12.8397Z" fill="#21A4FD"/>
<path d="M8.2133 13.4278C8.16904 13.3311 8.17626 13.2349 8.21782 13.1396C8.24222 13.2363 8.24222 13.332 8.2133 13.4278Z" fill="#21A4FD"/>
<path d="M5.82365 13.1974C5.82591 13.2413 5.84714 13.291 5.78616 13.3144C5.70304 13.2449 5.79248 13.2304 5.82365 13.1974Z" fill="#090B0E"/>
<path d="M8.21292 12.3893C8.17949 12.3518 8.17994 12.3156 8.21789 12.2813C8.21608 12.3174 8.21472 12.3536 8.21292 12.3893Z" fill="#21A4FD"/>
<path d="M8.2201 13.0628C8.19209 13.0285 8.19209 12.9946 8.2201 12.9603C8.2201 12.9946 8.2201 13.0285 8.2201 13.0628Z" fill="#21A4FD"/>
<path d="M8.21426 12.2104C8.19981 12.1964 8.18535 12.1824 8.1709 12.1689C8.20659 12.1607 8.2224 12.1734 8.21426 12.2104Z" fill="#21A4FD"/>
<path d="M8.21192 13.5579C8.19701 13.5367 8.20289 13.5186 8.2196 13.5019C8.23406 13.5231 8.23089 13.5416 8.21192 13.5579Z" fill="#21A4FD"/>
<path d="M12.7925 15.274C12.8282 15.2704 12.868 15.2749 12.8829 15.2298C12.9556 15.2094 13.0279 15.1896 13.1006 15.1697C13.149 15.1579 13.1964 15.1412 13.2452 15.1363C13.2849 15.1322 13.3315 15.1196 13.2926 15.2009C13.2194 15.354 13.2976 15.5004 13.4697 15.5695C13.6377 15.6372 13.8753 15.5424 13.9124 15.3685C13.9431 15.2248 13.972 15.2749 14.0484 15.3319C14.595 15.7389 14.4581 16.8257 13.7629 17.0372C13.4146 17.1433 13.0839 17.1944 12.7474 17.0128C12.4086 16.8303 12.2681 16.3456 12.358 15.9891C12.3919 15.8545 12.4375 15.7226 12.4777 15.5898C12.5472 15.5645 12.5721 15.4981 12.6114 15.4452C12.6507 15.4114 12.6895 15.3779 12.7288 15.3441C12.7573 15.3273 12.7876 15.312 12.7925 15.274Z" fill="white"/>
</svg>
