<?xml version="1.0" encoding="UTF-8"?>
<svg xmlns="http://www.w3.org/2000/svg" xmlns:xlink="http://www.w3.org/1999/xlink" width="30px" height="27px" viewBox="0 0 30 27" version="1.1">
<g id="surface1">
<path style=" stroke:none;fill-rule:evenodd;fill:rgb(49.019608%,39.215686%,100%);fill-opacity:1;" d="M 16.292969 10.128906 L 23.746094 0 L 30 27 L 0 27 L 10.039062 5.585938 Z M 12.414062 19.859375 L 14.199219 22.300781 L 16.109375 22.300781 L 14.019531 19.433594 L 15.863281 16.910156 L 14.609375 16.003906 L 12.414062 19.011719 L 12.414062 14.417969 L 10.765625 13.222656 L 10.765625 22.300781 L 12.414062 22.300781 Z M 16.371094 19.605469 C 16.371094 21.152344 17.628906 22.402344 19.179688 22.402344 C 20.730469 22.402344 21.988281 21.152344 21.988281 19.609375 C 21.988281 18.21875 20.96875 17.0625 19.636719 16.847656 L 20.976562 15.007812 L 19.726562 14.101562 L 16.910156 17.960938 C 16.570312 18.421875 16.371094 18.992188 16.371094 19.605469 Z M 20.386719 19.605469 C 20.386719 20.269531 19.847656 20.808594 19.179688 20.808594 C 18.515625 20.808594 17.972656 20.269531 17.972656 19.605469 C 17.972656 18.941406 18.515625 18.40625 19.179688 18.40625 C 19.847656 18.40625 20.386719 18.941406 20.386719 19.605469 Z M 20.386719 19.605469 "/>
</g>
</svg>
