<svg width="71" height="72" viewBox="0 0 71 72" fill="none" xmlns="http://www.w3.org/2000/svg">
<g clip-path="url(#clip0_149_10668)">
<path d="M52.1524 20.9545C51.5445 19.8987 50.5687 19.2108 49.5128 18.9229C48.457 18.6189 47.2412 18.7789 46.1854 19.3708C45.1296 19.9787 44.4417 20.9545 44.1538 22.0103C43.8658 23.0661 44.0098 24.2819 44.6017 25.2578C45.2096 26.2336 46.1054 26.9215 47.1772 27.2254C48.2331 27.5294 49.4489 27.3694 50.4247 26.7775H50.5047C51.4805 26.1696 52.1684 25.1938 52.4723 24.202C52.8563 23.1461 52.7763 21.9303 52.1684 20.9545H52.1524ZM27.9806 24.2819C30.4761 24.6659 32.7317 25.8657 34.4754 27.6094C34.7794 27.9133 35.0033 28.2173 35.2273 28.5212L39.5306 26.0256C38.9227 24.2819 38.9227 22.4742 39.3866 20.7305C39.9945 18.4589 41.4982 16.3473 43.6898 15.0675L43.7698 14.9875C45.9615 13.7078 48.521 13.4838 50.7926 14.0757C53.0642 14.6676 55.1759 16.1873 56.4557 18.379C57.7354 20.5706 57.9594 23.1301 57.3675 25.4017C56.7596 27.6734 55.2559 29.785 53.0642 31.0648L52.4563 31.4487H52.3764C50.3447 32.4245 48.0731 32.5845 45.9615 32.0566C44.2178 31.6087 42.714 30.6168 41.4342 29.2571L37.211 31.8326C37.7389 33.1124 37.9628 34.5522 37.9628 36.0559C37.9628 37.5597 37.6589 38.9994 37.211 40.2792L41.5142 42.7748C42.73 41.415 44.3137 40.4392 46.0414 39.9752C48.3131 39.3673 50.8726 39.5913 53.1442 40.8871L53.2882 40.9671C55.3998 42.2468 56.9196 44.2945 57.5115 46.5501C58.1194 48.8217 57.8954 51.3813 56.5996 53.5729L56.3757 53.7169C55.0959 55.8285 53.0482 57.3482 50.7926 57.9401C48.521 58.548 45.9615 58.3241 43.6898 57.0283C41.4182 55.7485 39.9945 53.7009 39.3866 51.3653C38.9387 49.6216 38.9387 47.8139 39.5306 46.0702L35.2273 43.5746C35.0033 43.8786 34.6994 44.1825 34.4754 44.4065C32.7317 46.1502 30.4761 47.35 27.9806 47.7339V52.725C29.7882 53.109 31.372 54.0048 32.6677 55.2206C34.3315 56.8843 35.3873 59.2199 35.3873 61.7955C35.3873 64.371 34.3315 66.7066 32.6677 68.3704C31.004 70.0341 28.6684 71.0899 26.0929 71.0899C23.5173 71.0899 21.1817 70.0341 19.518 68.3704C17.8543 66.7066 16.7985 64.371 16.7985 61.7955C16.7985 59.2199 17.8543 56.8843 19.518 55.2206C20.7978 53.9408 22.3815 53.109 24.1252 52.725V47.7339C21.6296 47.35 19.374 46.1502 17.6303 44.4065C15.5187 42.2149 14.1589 39.2714 14.1589 35.9439C14.1589 32.6165 15.5187 29.673 17.6303 27.5614C19.374 25.8177 21.6296 24.6179 24.1252 24.2339V19.2428C22.3175 18.8589 20.7338 17.963 19.518 16.6672C17.8543 15.0035 16.7985 12.6679 16.7985 10.0924C16.7985 7.51682 17.8543 5.18123 19.518 3.51751C21.1817 1.91779 23.5173 0.861969 26.0929 0.861969C28.6684 0.861969 31.004 1.91779 32.6677 3.5815C34.3315 5.24521 35.3873 7.58081 35.3873 10.1564C35.3873 12.7319 34.3315 15.0675 32.6677 16.7312C31.388 18.011 29.8042 18.8429 27.9806 19.3068V24.2979V24.2819ZM30.4761 31.6087C29.3403 30.4729 27.7566 29.801 26.0129 29.801C24.2692 29.801 22.6855 30.4729 21.6296 31.6087C20.4938 32.7445 19.822 34.3282 19.822 35.9919C19.822 37.6556 20.4938 39.3193 21.6296 40.4552C22.7655 41.591 24.3492 42.2628 26.0129 42.2628C27.6766 42.2628 29.3403 41.591 30.4761 40.4552C31.6119 39.3193 32.2838 37.7356 32.2838 35.9919C32.2838 34.2482 31.6119 32.7445 30.4761 31.6087V31.6087ZM49.5128 53.141C50.5687 52.837 51.5445 52.1651 52.1524 51.1093L52.2324 50.9653C52.7603 49.9895 52.8403 48.8537 52.6163 47.8619C52.3124 46.8061 51.6405 45.8302 50.5847 45.2223L50.5047 45.1423C49.5288 44.6144 48.3131 44.4705 47.2572 44.7584C46.2014 45.0624 45.2256 45.7342 44.6177 46.7901C44.0098 47.8459 43.8658 48.9817 44.1698 50.0375C44.4737 51.0933 45.1456 52.0692 46.2014 52.677C47.2572 53.2849 48.473 53.4289 49.5288 53.125L49.5128 53.141ZM26.0289 66.2107C27.2447 66.2107 28.3005 65.7628 29.1324 64.9309C29.8842 64.1791 30.4121 63.1233 30.4121 61.9075C30.4121 60.6917 29.9642 59.6359 29.1324 58.804C28.3805 58.0521 27.2447 57.5242 26.0289 57.5242C24.8131 57.5242 23.7573 57.9721 23.0054 58.804C22.2535 59.5559 21.7256 60.6917 21.7256 61.9075C21.7256 63.1233 22.1736 64.1791 23.0054 64.9309C23.7573 65.7628 24.8131 66.2107 26.0289 66.2107ZM29.0364 7.13289C28.2845 6.38102 27.1487 5.85311 25.9329 5.85311C24.7171 5.85311 23.6613 6.30103 22.9094 7.13289C22.1576 7.88476 21.6296 9.02056 21.6296 10.1564C21.6296 11.3722 22.0776 12.428 22.9094 13.1798C23.6613 13.9317 24.7171 14.4596 25.9329 14.4596C27.1487 14.4596 28.2045 14.0117 29.0364 13.1798C29.7882 12.428 30.3162 11.3722 30.3162 10.1564C30.3162 8.94058 29.8682 7.88476 29.0364 7.13289V7.13289Z" fill="black"/>
</g>
<defs>
<clipPath id="clip0_149_10668">
<rect width="70.2439" height="70.2439" fill="white" transform="translate(0.110107 0.861969)"/>
</clipPath>
</defs>
</svg>
