<svg width="30" height="30" viewBox="0 0 30 30" fill="none" xmlns="http://www.w3.org/2000/svg">
<g clip-path="url(#clip0_678_21469)">
<path d="M25.6921 8.90627C25.6121 8.90713 25.5378 8.86481 25.4976 8.79553L22.1127 2.92619C22.0707 2.8567 21.9952 2.81458 21.914 2.81545H8.10524C8.02496 2.81438 7.95036 2.85672 7.91012 2.92619L4.39449 9.01701L1.1232 14.8881C1.08393 14.9575 1.08393 15.0425 1.1232 15.1119L4.39449 20.9766L7.91012 27.0703C7.95025 27.1396 8.02458 27.1819 8.10465 27.1811H21.914C21.9946 27.1813 22.0693 27.1393 22.1109 27.0703L25.5 21.2051C25.5401 21.1358 25.6144 21.0935 25.6945 21.0944H29.9091C30.0489 21.0944 30.1623 20.981 30.1623 20.8412V9.15939C30.1623 9.0196 30.0489 8.90627 29.9091 8.90627H25.6904H25.6921Z" fill="#4D4D4D"/>
<path d="M4.26854 9.23672L1.03467 15.0005L1.3787 15.7582L4.59228 21.0077L6.69081 21.0938L23.523 21.0926H27.0117L29.2538 20.5254L30.1617 18.017L30.1623 15.1248V12.4459L29.9098 8.90625H25.6922L24.3967 8.90684H21.5133H8.66835L4.26854 9.23672Z" fill="#E2E2E2"/>
<path d="M5.16213 14.3848L1.37873 15.7582L1.00666 15.1137C0.986789 15.0796 0.976318 15.0409 0.976318 15.0015C0.976318 14.962 0.986789 14.9233 1.00666 14.8893L2.71935 11.9227L5.16213 14.3848Z" fill="#E1E1E1"/>
<path d="M27.6686 15.4811L30.1623 15.1248V18.017L27.6686 15.4811Z" fill="#C8C8C8"/>
<path d="M27.6686 15.4811L30.1617 18.017V20.8418C30.1619 20.908 30.1358 20.9715 30.0893 21.0185C30.0427 21.0655 29.9794 21.0921 29.9133 21.0926H27.0117L27.6686 15.4811Z" fill="#C2C2C2"/>
<path d="M27.6686 15.4811L27.0118 21.0926H23.5231L22.4661 18.5467L27.6686 15.4811Z" fill="#C7C7C7"/>
<path d="M27.6686 15.4811L30.1623 12.4459V15.1248L27.6686 15.4811Z" fill="#CECECE"/>
<path d="M30.1624 9.15996V12.4459L27.6692 15.4811L25.7883 8.90625H29.9092C29.9425 8.90625 29.9755 8.91282 30.0062 8.92557C30.037 8.93833 30.0649 8.95703 30.0884 8.9806C30.1119 9.00416 30.1306 9.03214 30.1433 9.06291C30.1559 9.09369 30.1624 9.12667 30.1624 9.15996Z" fill="#D3D3D3"/>
<path d="M23.5231 21.0926H21.6833L21.2063 20.4088L22.4661 18.5467L23.5231 21.0926Z" fill="#C6C6C6"/>
<path d="M27.6686 15.4811L20.7668 12.5637L24.3967 8.90686H25.7883L27.6686 15.4811Z" fill="#D5D5D5"/>
<path d="M20.7668 12.5637L22.4661 18.5467L27.6692 15.4811L20.7668 12.5637Z" fill="#D0D0D0"/>
<path d="M21.6832 21.0926H21.184L21.2062 20.4088L21.6832 21.0926Z" fill="#BFBFBF"/>
<path d="M24.3967 8.90686L20.7668 12.5637L20.1117 9.29299L21.5133 8.90686H24.3967Z" fill="#D9D9D9"/>
<path d="M20.7668 12.5637L12.3879 14.4973L21.2063 20.4088L20.7668 12.5637Z" fill="#D4D4D4"/>
<path d="M20.7668 12.5637L21.2057 20.4094L22.4655 18.5473L20.7668 12.5637Z" fill="#D0D0D0"/>
<path d="M20.1118 9.29297L12.3909 14.4955L20.7698 12.5619L20.1118 9.29297Z" fill="#D9D9D9"/>
<path d="M12.3908 14.4955L8.75977 21.0926H6.69082L5.16211 14.3848L12.3908 14.4955Z" fill="#D8D8D8"/>
<path d="M8.66836 8.90625L5.16211 14.3848L4.26855 9.23672L4.39453 9.01992V9.01582C4.41497 8.9824 4.44364 8.95477 4.4778 8.93559C4.51196 8.91641 4.55047 8.90631 4.58965 8.90625H8.66836Z" fill="#E2E2E2"/>
<path d="M6.69089 21.0938H4.58972C4.54972 21.0933 4.51055 21.0822 4.47625 21.0616C4.44196 21.041 4.41377 21.0117 4.3946 20.9766L1.37878 15.7582L5.16218 14.3848L6.69089 21.0938Z" fill="#D8D8D8"/>
<path d="M2.71936 11.9221L4.26858 9.23676L5.16213 14.3848L2.71936 11.9221Z" fill="#E4E4E4"/>
<path d="M16.217 8.90686H13.8006H10.101L12.3908 14.4955L20.1117 9.29299L17.7843 8.90686H16.217Z" fill="#DEDEDE"/>
<path d="M9.1459 8.90686H8.66836L5.16211 14.3848L12.3908 14.4955L10.101 8.90686H9.1459Z" fill="#DEDEDE"/>
<path d="M19.5253 21.0926H20.8723H21.1841L21.2063 20.4088L19.5253 21.0926Z" fill="#C5C5C5"/>
<path d="M21.2063 20.4088L12.3909 14.4955L13.9788 21.0926H16.217H19.5252L21.2063 20.4088Z" fill="#D0D0D0"/>
<path d="M8.75977 21.0926H9.1459H13.8006H13.9787L12.3908 14.4955L8.75977 21.0926Z" fill="#D1D1D1"/>
<path d="M20.1357 8.90686L20.1117 9.29299L21.5133 8.90686H20.8722H20.1357Z" fill="#DDDDDD"/>
<path d="M17.7844 8.90686L20.1118 9.29299L19.8973 8.90686H17.7844Z" fill="#E3E3E3"/>
<path d="M19.8973 8.90686L20.1118 9.29299L20.1358 8.90686H19.8973Z" fill="#E2E2E2"/>
<path d="M13.7784 9.01235L10.3711 14.9098C10.3549 14.9392 10.3465 14.9723 10.3465 15.0059H7.9729L12.6452 6.90942C12.674 6.92525 12.6981 6.94852 12.7149 6.97681L12.7213 6.98325L13.7807 8.82368C13.7955 8.85301 13.803 8.88546 13.8026 8.9183C13.8022 8.95115 13.7939 8.9834 13.7784 9.01235Z" fill="#00B8E3"/>
<path d="M13.7742 21.2045L12.7195 23.0368C12.7015 23.0647 12.677 23.0878 12.648 23.1041L7.96875 15.0082H10.3477C10.3468 15.0403 10.3545 15.0721 10.3699 15.1002C10.3704 15.1038 10.3718 15.1073 10.374 15.1102L13.7725 21.0036C13.7905 21.0339 13.8001 21.0685 13.8004 21.1038C13.8008 21.1391 13.7917 21.1739 13.7742 21.2045Z" fill="#33C6E9"/>
<path d="M12.6452 6.90942L7.97289 15.0059L6.80102 17.0368L5.68188 15.0961C5.66643 15.068 5.65875 15.0362 5.65961 15.0041C5.65953 14.9705 5.668 14.9375 5.68422 14.908L6.81508 12.9493L10.2575 6.98793C10.2748 6.95662 10.3003 6.93057 10.3313 6.91252C10.3622 6.89448 10.3974 6.88511 10.4332 6.88539H12.545C12.5798 6.88495 12.6143 6.8932 12.6452 6.90942Z" fill="#008AAA"/>
<path d="M12.6451 23.1041C12.6144 23.1211 12.58 23.1302 12.5449 23.1305H10.4297C10.3939 23.1308 10.3586 23.1214 10.3277 23.1033C10.2968 23.0853 10.2713 23.0593 10.2539 23.0279L7.10625 17.5787L6.79688 17.0385L7.96875 15.0076L12.6451 23.1041Z" fill="#00B8E3"/>
<path d="M22.0424 15.0059L17.3666 23.1041C17.3386 23.0871 17.3148 23.0641 17.2969 23.0367L17.2928 23.0309L16.2305 21.1945C16.2153 21.1654 16.2074 21.133 16.2074 21.1002C16.2074 21.0674 16.2153 21.035 16.2305 21.0059L19.6324 15.1084C19.6512 15.0775 19.6611 15.042 19.6611 15.0059H22.0383H22.0424Z" fill="#008AAA"/>
<path d="M24.3563 15.0059C24.3562 15.042 24.3463 15.0775 24.3276 15.1084L19.7496 23.0367C19.7316 23.0656 19.7066 23.0894 19.6769 23.1059C19.6471 23.1224 19.6137 23.131 19.5797 23.1311H17.4703C17.4345 23.1308 17.3993 23.1218 17.3678 23.1047L22.0424 15.0059L23.2143 12.9774L24.3276 14.9057C24.346 14.9359 24.3559 14.9705 24.3563 15.0059Z" fill="#00B8E3"/>
<path d="M22.0424 15.0059H19.6658C19.6655 14.9705 19.6555 14.9359 19.6371 14.9057L16.2387 9.01407C16.2206 8.98335 16.2111 8.94836 16.2111 8.91271C16.2111 8.87706 16.2206 8.84206 16.2387 8.81134L17.2981 6.97736C17.316 6.94996 17.3398 6.92693 17.3678 6.90997L22.0424 15.0059Z" fill="#00B8E3"/>
<path d="M23.2148 12.975L22.0429 15.0036L17.3666 6.90942C17.3981 6.89234 17.4333 6.88328 17.4691 6.88306H19.5785C19.6125 6.88307 19.6459 6.89174 19.6757 6.90825C19.7054 6.92475 19.7304 6.94854 19.7484 6.97739L23.2148 12.975Z" fill="#33C6E9"/>
</g>
<defs>
<clipPath id="clip0_678_21469">
<rect width="30" height="30" fill="white"/>
</clipPath>
</defs>
</svg>
