<svg width="214" height="50" viewBox="0 0 214 50" fill="none" xmlns="http://www.w3.org/2000/svg">
<g clip-path="url(#clip0_2_81)">
<path d="M64.7079 26.1497H71.1629V29.2652H60.7781V9.67416H64.7079V26.1497Z" fill="#1B183E"/>
<path d="M80.5651 29.5178C79.0684 29.5178 77.7207 29.1903 76.5235 28.5354C75.3257 27.8618 74.3808 26.9169 73.6887 25.7006C73.0151 24.4844 72.678 23.081 72.678 21.4906C72.678 19.9001 73.0246 18.4967 73.7167 17.2804C74.428 16.0642 75.3915 15.1286 76.6078 14.4737C77.824 13.8001 79.1802 13.4633 80.6774 13.4633C82.174 13.4633 83.5308 13.8001 84.7471 14.4737C85.9634 15.1286 86.9179 16.0642 87.61 17.2804C88.3212 18.4967 88.6763 19.9001 88.6763 21.4906C88.6763 23.081 88.3117 24.4844 87.5819 25.7006C86.8707 26.9169 85.8976 27.8618 84.6628 28.5354C83.4465 29.1903 82.0808 29.5178 80.5651 29.5178ZM80.5651 26.0936C81.2763 26.0936 81.9403 25.9252 82.5578 25.5884C83.1943 25.2329 83.6993 24.7089 84.0735 24.0166C84.4476 23.3243 84.6347 22.4822 84.6347 21.4906C84.6347 20.0123 84.242 18.8803 83.4561 18.0944C82.6887 17.2898 81.7437 16.8875 80.6212 16.8875C79.4988 16.8875 78.5538 17.2898 77.7864 18.0944C77.0381 18.8803 76.6639 20.0123 76.6639 21.4906C76.6639 22.9688 77.0285 24.1102 77.7583 24.9148C78.5066 25.7006 79.4426 26.0936 80.5651 26.0936Z" fill="#1B183E"/>
<path d="M90.5488 21.4906C90.5488 19.8813 90.8758 18.478 91.5309 17.2804C92.1859 16.0642 93.0932 15.1286 94.2533 14.4737C95.4134 13.8001 96.7421 13.4633 98.2393 13.4633C100.166 13.4633 101.757 13.9498 103.011 14.9228C104.283 15.8771 105.134 17.2243 105.565 18.9645H101.326C101.102 18.2908 100.718 17.7669 100.176 17.3927C99.6516 16.9998 98.9966 16.8033 98.2112 16.8033C97.0881 16.8033 96.1994 17.2149 95.5443 18.0383C94.8898 18.8429 94.5623 19.9936 94.5623 21.4906C94.5623 22.9688 94.8898 24.1195 95.5443 24.9428C96.1994 25.7474 97.0881 26.1497 98.2112 26.1497C99.8016 26.1497 100.84 25.4387 101.326 24.0166H105.565C105.134 25.7006 104.283 27.0385 103.011 28.0302C101.738 29.0219 100.148 29.5178 98.2393 29.5178C96.7421 29.5178 95.4134 29.1903 94.2533 28.5354C93.0932 27.8618 92.1859 26.9262 91.5309 25.7287C90.8758 24.5125 90.5488 23.0997 90.5488 21.4906Z" fill="#1B183E"/>
<path d="M107.433 21.4344C107.433 19.8626 107.742 18.4686 108.359 17.2524C108.995 16.0361 109.847 15.1006 110.913 14.4456C111.998 13.7907 113.206 13.4633 114.534 13.4633C115.694 13.4633 116.704 13.6972 117.565 14.1649C118.444 14.6328 119.146 15.2221 119.67 15.9332V13.7159H123.627V29.2652H119.67V26.9917C119.165 27.7215 118.463 28.3296 117.565 28.8161C116.686 29.2839 115.666 29.5178 114.506 29.5178C113.196 29.5178 111.998 29.181 110.913 28.5074C109.847 27.8338 108.995 26.8888 108.359 25.6726C107.742 24.4376 107.433 23.0249 107.433 21.4344ZM119.67 21.4906C119.67 20.5362 119.483 19.7223 119.109 19.0487C118.735 18.3563 118.229 17.8324 117.593 17.4769C116.957 17.1027 116.274 16.9156 115.544 16.9156C114.815 16.9156 114.141 17.0933 113.524 17.4488C112.906 17.8044 112.401 18.3283 112.008 19.0206C111.634 19.6942 111.447 20.4988 111.447 21.4344C111.447 22.37 111.634 23.1933 112.008 23.9043C112.401 24.5966 112.906 25.1299 113.524 25.5042C114.16 25.8784 114.833 26.0655 115.544 26.0655C116.274 26.0655 116.957 25.8878 117.593 25.5322C118.229 25.158 118.735 24.6341 119.109 23.9604C119.483 23.2681 119.67 22.4448 119.67 21.4906Z" fill="#1B183E"/>
<path d="M131.395 8.49533V29.2652H127.466V8.49533H131.395Z" fill="#1B183E"/>
<path d="M142.042 29.4616C140.675 29.4616 139.441 29.2278 138.337 28.76C137.251 28.2922 136.391 27.6186 135.755 26.7391C135.118 25.8597 134.791 24.8212 134.772 23.6237H138.982C139.038 24.4283 139.319 25.0645 139.824 25.5323C140.348 26 141.059 26.2339 141.957 26.2339C142.874 26.2339 143.594 26.0187 144.119 25.5884C144.642 25.1393 144.905 24.5592 144.905 23.8482C144.905 23.2682 144.726 22.791 144.371 22.4168C144.016 22.0425 143.566 21.7525 143.024 21.5467C142.5 21.3221 141.77 21.0789 140.835 20.8169C139.562 20.4427 138.524 20.0778 137.719 19.7223C136.933 19.348 136.25 18.7961 135.67 18.0663C135.109 17.3179 134.828 16.3261 134.828 15.0912C134.828 13.9311 135.118 12.9206 135.698 12.0599C136.278 11.1992 137.092 10.5443 138.14 10.0952C139.188 9.62743 140.385 9.39355 141.733 9.39355C143.753 9.39355 145.391 9.8894 146.644 10.8811C147.917 11.8541 148.619 13.22 148.749 14.9789H144.427C144.39 14.3053 144.1 13.7533 143.557 13.3229C143.033 12.8739 142.332 12.6493 141.452 12.6493C140.685 12.6493 140.067 12.8458 139.6 13.2387C139.151 13.6317 138.926 14.2024 138.926 14.9509C138.926 15.4748 139.094 15.9145 139.432 16.27C139.787 16.6068 140.217 16.8875 140.723 17.112C141.246 17.3179 141.976 17.5611 142.912 17.8418C144.184 18.216 145.223 18.5902 146.027 18.9645C146.832 19.3387 147.524 19.9001 148.104 20.6486C148.684 21.397 148.974 22.3793 148.974 23.5956C148.974 24.6434 148.703 25.6164 148.16 26.5146C147.617 27.4128 146.823 28.1332 145.774 28.6758C144.726 29.1997 143.482 29.4616 142.042 29.4616Z" fill="#1B183E"/>
<path d="M156.956 16.9436V24.4657C156.956 24.9896 157.077 25.3732 157.321 25.6164C157.583 25.8409 158.013 25.9533 158.612 25.9533H160.436V29.2652H157.966C154.654 29.2652 152.998 27.656 152.998 24.4376V16.9436H151.146V13.7159H152.998V9.87067H156.956V13.7159H160.436V16.9436H156.956Z" fill="#1B183E"/>
<path d="M162.252 21.4344C162.252 19.8626 162.561 18.4686 163.178 17.2524C163.815 16.0361 164.666 15.1006 165.732 14.4456C166.817 13.7907 168.024 13.4633 169.353 13.4633C170.513 13.4633 171.524 13.6972 172.384 14.1649C173.263 14.6328 173.965 15.2221 174.489 15.9332V13.7159H178.447V29.2652H174.489V26.9917C173.984 27.7215 173.283 28.3296 172.384 28.8161C171.505 29.2839 170.485 29.5178 169.325 29.5178C168.015 29.5178 166.817 29.181 165.732 28.5074C164.666 27.8338 163.815 26.8888 163.178 25.6726C162.561 24.4376 162.252 23.0249 162.252 21.4344ZM174.489 21.4906C174.489 20.5362 174.302 19.7223 173.928 19.0487C173.554 18.3563 173.048 17.8324 172.412 17.4769C171.776 17.1027 171.093 16.9156 170.364 16.9156C169.634 16.9156 168.96 17.0933 168.343 17.4488C167.725 17.8044 167.22 18.3283 166.827 19.0206C166.453 19.6942 166.266 20.4988 166.266 21.4344C166.266 22.37 166.453 23.1933 166.827 23.9043C167.22 24.5966 167.725 25.1299 168.343 25.5042C168.979 25.8784 169.652 26.0655 170.364 26.0655C171.093 26.0655 171.776 25.8878 172.412 25.5322C173.048 25.158 173.554 24.6341 173.928 23.9604C174.302 23.2681 174.489 22.4448 174.489 21.4906Z" fill="#1B183E"/>
<path d="M181.274 21.4906C181.274 19.8813 181.602 18.478 182.257 17.2804C182.911 16.0642 183.819 15.1286 184.979 14.4737C186.139 13.8001 187.467 13.4633 188.965 13.4633C190.892 13.4633 192.483 13.9498 193.736 14.9228C195.008 15.8771 195.86 17.2243 196.29 18.9645H192.052C191.828 18.2908 191.444 17.7669 190.901 17.3927C190.378 16.9998 189.722 16.8033 188.937 16.8033C187.814 16.8033 186.925 17.2149 186.27 18.0383C185.615 18.8429 185.288 19.9936 185.288 21.4906C185.288 22.9688 185.615 24.1195 186.27 24.9428C186.925 25.7474 187.814 26.1497 188.937 26.1497C190.527 26.1497 191.566 25.4387 192.052 24.0166H196.29C195.86 25.7006 195.008 27.0385 193.736 28.0302C192.463 29.0219 190.873 29.5178 188.965 29.5178C187.467 29.5178 186.139 29.1903 184.979 28.5354C183.819 27.8618 182.911 26.9262 182.257 25.7287C181.602 24.5125 181.274 23.0997 181.274 21.4906Z" fill="#1B183E"/>
<path d="M208.375 29.2652L203.098 22.6413V29.2652H199.168V8.49533H203.098V20.3117L208.318 13.7159H213.427L206.579 21.5186L213.483 29.2652H208.375Z" fill="#1B183E"/>
<path fill-rule="evenodd" clip-rule="evenodd" d="M42.8642 34.7599C43.4273 34.7599 43.7093 35.4407 43.3111 35.8389L29.6159 49.533C29.2177 49.9312 28.5369 49.6492 28.5369 49.0862V35.392C28.5369 35.0429 28.8199 34.7599 29.169 34.7599H42.8642ZM0.633308 21.856C0.0702184 21.856 -0.211778 21.1752 0.186391 20.7771L13.8816 7.08287C14.2798 6.68472 14.9605 6.96669 14.9605 7.52972V21.2239C14.9605 21.573 14.6776 21.856 14.3285 21.856H0.633308Z" fill="url(#paint0_linear_2_81)"/>
<path d="M30.4457 19.6084H48.7915C49.1406 19.6084 49.4236 19.3254 49.4236 18.9764V0.631941C49.4236 0.282897 49.1406 -5.94008e-05 48.7915 -5.94313e-05L30.4457 -6.10352e-05C30.0967 -6.10657e-05 29.8137 0.282895 29.8137 0.631935V18.9764C29.8137 19.3254 30.0967 19.6084 30.4457 19.6084Z" fill="url(#paint1_linear_2_81)"/>
<path d="M44.0347 31.6H18.7529C18.4038 31.6 18.1208 31.317 18.1208 30.968V5.68798C18.1208 5.33896 18.4038 5.056 18.7529 5.056H26.0214C26.3705 5.056 26.6534 5.33896 26.6534 5.68798V22.12C26.6534 22.469 26.9364 22.752 27.2855 22.752H44.0347C44.3838 22.752 44.6667 23.035 44.6667 23.384V30.968C44.6667 31.317 44.3838 31.6 44.0347 31.6Z" fill="url(#paint2_linear_2_81)"/>
</g>
<defs>
<linearGradient id="paint0_linear_2_81" x1="43.5413" y1="6.76652" x2="7.83796" y2="42.1169" gradientUnits="userSpaceOnUse">
<stop stop-color="#4D29B4"/>
<stop offset="1" stop-color="#836FFF"/>
</linearGradient>
<linearGradient id="paint1_linear_2_81" x1="28.0959" y1="20.5938" x2="52.807" y2="-3.67915" gradientUnits="userSpaceOnUse">
<stop stop-color="#70FFE5"/>
<stop offset="1" stop-color="#6295E1"/>
</linearGradient>
<linearGradient id="paint2_linear_2_81" x1="41.4819" y1="10.8853" x2="18.2419" y2="32.9519" gradientUnits="userSpaceOnUse">
<stop offset="0.00747511" stop-color="#654FEC"/>
<stop offset="1" stop-color="#71B2FF"/>
</linearGradient>
<clipPath id="clip0_2_81">
<rect width="213.483" height="50" fill="white"/>
</clipPath>
</defs>
</svg>
