<svg width="30" height="30" viewBox="0 0 30 30" fill="none" xmlns="http://www.w3.org/2000/svg">
<path fill-rule="evenodd" clip-rule="evenodd" d="M29.3433 5.00053C28.8828 5.01571 29.0161 5.2232 28.0191 5.46948C27.0121 5.71745 25.7941 5.56563 24.7112 6.02109C21.8772 7.20866 21.4184 11.8004 18.0429 13.5766C15.8297 14.8266 13.5727 15.1134 11.5552 15.746C9.93575 16.3954 8.92868 16.8256 7.74112 17.8495C6.82008 18.644 6.59572 19.415 5.63251 20.4119C4.6558 21.7395 0.95309 20.5604 0 22.2253C0.502692 22.5509 0.792824 22.6403 1.67506 22.5239C1.49288 22.8697 0.332311 23.3252 0.543172 23.8346C0.543172 23.8346 3.34846 24.3457 5.71348 22.9186C6.8167 22.4699 7.85075 21.5202 9.56463 21.2925C11.7846 20.9973 14.2862 21.758 16.9701 21.9723C16.4151 23.0687 15.8432 23.7165 15.2309 24.6207C15.042 24.8248 15.3928 25.0053 16.044 24.8821C17.2147 24.592 18.0631 24.2782 18.9049 23.6963C20.0031 22.9389 20.4754 22.2455 21.4015 21.1474C22.2061 22.4379 25.0435 22.7212 25.6255 21.6062C24.5425 21.1474 24.3114 18.7604 24.6825 17.7298C25.1211 16.748 25.4365 15.3597 25.7908 14.0692C26.1096 12.907 26.307 11.134 26.6882 10.2265C27.1437 9.09797 28.0293 8.74541 28.6939 8.14657C29.3585 7.54772 30.0198 7.0484 29.9995 5.67865C29.9928 5.23332 29.7634 4.98703 29.3433 5.00053Z" fill="#1F305F"/>
<path d="M0.846848 23.5984C2.58603 23.6507 3.05835 23.6051 4.43317 23.008C5.60218 22.5002 7.1659 21.1322 8.54746 20.6902C10.5751 20.0391 12.7495 20.1369 14.907 20.3916C15.629 20.4777 16.3544 20.5974 16.8723 20.5418C17.6803 20.0458 17.7191 18.6997 18.2201 18.5917C18.0834 21.1963 16.9667 22.8629 15.85 24.3744C18.2032 23.9594 19.7754 22.4901 20.7268 20.6717C21.0152 20.12 21.4943 19.2176 21.7136 18.5968C21.8873 19.0084 21.4876 19.2699 21.6748 19.7186C23.1896 18.4686 23.9049 17.0449 24.5189 14.9599C25.2308 12.5476 25.9612 10.4744 26.42 9.76088C26.867 9.0642 27.5637 8.63405 28.1997 8.18871C28.9216 7.68096 29.5677 7.15296 29.6791 6.18638C28.9166 6.11553 28.7412 5.94009 28.6281 5.55548C28.2469 5.76972 27.896 5.81695 27.4996 5.82876C27.1555 5.83888 26.7776 5.8237 26.3154 5.87093C22.498 6.26229 22.3209 9.99367 19.546 12.7332C19.3671 12.9069 19.0618 13.1633 18.8594 13.3151C18.0024 13.9545 17.0848 14.3054 16.1182 14.6748C14.5528 15.2719 13.0683 15.4457 11.6007 15.9619C10.5228 16.3397 9.52079 16.7733 8.63518 17.3789C8.4142 17.5307 8.11394 17.8006 7.92163 17.9575C7.40207 18.3826 7.06133 18.8532 6.7307 19.339C6.38995 19.8383 6.06269 20.3528 5.56168 20.8437C4.75029 21.6399 1.72065 21.0765 0.652852 21.8154C0.53477 21.898 0.438613 21.9959 0.374512 22.1139C0.956487 22.3788 1.34615 22.2168 2.01585 22.2894C2.0985 22.9287 0.62924 23.3066 0.846848 23.5984Z" fill="#C0765A"/>
<path fill-rule="evenodd" clip-rule="evenodd" d="M25.0435 7.4499C25.5833 7.91886 26.7168 7.54268 26.5144 6.60984C25.6743 6.53899 25.1885 6.82407 25.0435 7.4499Z" fill="#1F305F"/>
<path d="M28.8103 6.35843C28.667 6.66038 28.392 7.04837 28.392 7.8159C28.3903 7.94748 28.2925 8.03857 28.2908 7.83446C28.2975 7.08379 28.4966 6.75991 28.7074 6.33482C28.8036 6.16107 28.8626 6.23192 28.8103 6.35843Z" fill="#1F305F"/>
<path d="M28.6652 6.24545C28.4948 6.53222 28.0866 7.05684 28.0208 7.82269C28.009 7.95426 27.9011 8.03523 27.9179 7.83281C27.9921 7.08721 28.3177 6.61994 28.5657 6.2134C28.677 6.04809 28.7293 6.12399 28.6652 6.24545Z" fill="#1F305F"/>
<path d="M28.5337 6.09531C28.3397 6.36689 27.7121 6.99779 27.5806 7.75351C27.557 7.8834 27.4439 7.95425 27.4777 7.7552C27.6143 7.01803 28.1558 6.43774 28.4358 6.05482C28.5606 5.89794 28.6079 5.97891 28.5337 6.09531Z" fill="#1F305F"/>
<path d="M28.4155 5.92665C28.1861 6.16957 27.4372 6.97252 27.201 7.70294C27.1588 7.82777 27.0374 7.88344 27.0981 7.68945C27.336 6.97758 27.9922 6.21174 28.3245 5.87267C28.4712 5.73604 28.505 5.82375 28.4155 5.92665Z" fill="#1F305F"/>
</svg>
