<svg width="30" height="30" viewBox="0 0 30 30" fill="none" xmlns="http://www.w3.org/2000/svg">
<path d="M16.4068 0.0186069C14.9272 0.114163 13.7361 1.76119 14.1836 3.20299C14.387 3.97238 15.0573 4.58662 15.6095 5.17018C16.3546 5.95297 16.813 6.42158 17.8415 7.49209C18.9822 8.58094 20.0746 9.85878 19.8087 11.5005C19.6775 12.277 19.4677 12.7614 18.9914 13.3464C18.7276 13.73 17.8327 14.3298 17.5495 14.3637C17.5333 14.1063 17.5429 9.67649 17.5407 8.63947C12.8081 11.0432 9.23052 15.6123 8.08243 20.7162C8.06445 20.9133 7.84231 21.31 8.21254 21.0216C8.56197 20.8707 9.35146 20.4627 9.73509 20.2695C10.8426 19.718 12.3581 18.9384 13.4382 18.4123C13.8236 18.1958 15.4378 17.3749 15.7467 17.2378C15.7668 17.4846 15.7389 17.8104 15.7534 18.0463C15.7615 18.9126 15.7361 19.876 15.758 20.7635C15.7439 22.9778 15.7544 25.2525 15.7534 27.4644C15.7597 27.7222 15.7389 28.0416 15.758 28.2504C15.7883 28.1583 17.6557 30.378 17.5545 29.9436C17.5411 29.2891 17.5562 28.6026 17.5499 27.9944C17.5217 27.9968 17.5781 27.8569 17.5499 27.8597C17.5386 27.8597 17.5386 27.8304 17.5499 27.7923C17.5795 27.6992 17.5203 27.7504 17.5499 27.6576C17.5795 27.5645 17.5203 27.6157 17.5499 27.5229C17.5795 27.4298 17.5203 27.481 17.5499 27.3882C17.5612 27.3502 17.5612 27.3209 17.5499 27.3209C17.5217 27.3234 17.5781 27.1834 17.5499 27.1862C17.5217 27.1887 17.5781 27.0487 17.5499 27.0515C17.5386 27.0515 17.5386 27.0222 17.5499 26.9842C17.5795 26.8911 17.5203 26.9422 17.5499 26.8495C17.5612 26.8114 17.5612 26.7821 17.5499 26.7821C17.5217 26.7846 17.5781 26.6446 17.5499 26.6474C17.5217 26.6499 17.5781 26.5099 17.5499 26.5127C17.5217 26.5152 17.5781 26.3752 17.5499 26.378C17.5386 26.378 17.5386 26.3488 17.5499 26.3107C17.5795 26.2176 17.5203 26.2687 17.5499 26.176C17.5612 26.1379 17.5612 26.1086 17.5499 26.1086C17.5217 26.1111 17.5781 25.9711 17.5499 25.9739C17.5217 25.9768 17.5781 25.8364 17.5499 25.8392C17.5217 25.8421 17.5781 25.7017 17.5499 25.7045C17.5386 25.7045 17.5386 25.6753 17.5499 25.6372C17.5795 25.5445 17.5203 25.5952 17.5499 25.5025C17.5795 25.4098 17.5203 25.4605 17.5499 25.3678C17.5612 25.3297 17.5612 25.3005 17.5499 25.3005C17.5217 25.3033 17.5781 25.1629 17.5499 25.1658C17.5217 25.1686 17.5781 25.0282 17.5499 25.0311C17.5217 25.0339 17.5781 24.8936 17.5499 24.8964C17.5217 24.8992 17.5781 24.7589 17.5499 24.7617C17.5386 24.7617 17.5386 24.7324 17.5499 24.6943C17.5795 24.6016 17.5203 24.6524 17.5499 24.5596C17.5612 24.5216 17.5612 24.4923 17.5499 24.4923C17.5217 24.4951 17.5781 24.3544 17.5499 24.3576C17.5217 24.3604 17.5781 24.2197 17.5499 24.2229C17.5386 24.2229 17.5386 24.1936 17.5499 24.1555C17.5795 24.0628 17.5203 24.1136 17.5499 24.0209C17.5411 23.5762 17.5651 23.0822 17.5453 22.6062C17.5506 22.529 17.5478 22.486 17.5499 22.4042C17.5795 22.3114 17.5203 22.3618 17.5499 22.2695C17.5795 22.1767 17.5203 22.2271 17.5499 22.1348C17.5612 22.0967 17.5612 22.0674 17.5499 22.0674C17.5217 22.0706 17.5781 21.9295 17.5499 21.9327C17.5217 21.9359 17.5781 21.7949 17.5499 21.798C17.5217 21.8012 17.5781 21.6602 17.5499 21.6633C17.5386 21.6633 17.5386 21.6341 17.5499 21.596C17.5795 21.5032 17.5203 21.5537 17.5499 21.4613C17.5795 21.3686 17.5203 21.419 17.5499 21.3266C17.5795 21.2339 17.5203 21.2843 17.5499 21.1919C17.5612 21.1538 17.5612 21.1245 17.5499 21.1245C17.5217 21.1277 17.5781 20.9867 17.5499 20.9899C17.5217 20.993 17.5781 20.852 17.5499 20.8552C17.5217 20.8583 17.5781 20.7173 17.5499 20.7205C17.5386 20.7205 17.5386 20.6912 17.5499 20.6531C17.5795 20.5607 17.5203 20.6108 17.5499 20.5184C17.5612 20.4803 17.5612 20.4511 17.5499 20.4511C17.5217 20.4542 17.5781 20.3132 17.5499 20.3164C17.5305 20.2603 17.5693 20.1027 17.5499 20.047C17.5485 19.1634 17.5513 18.3041 17.5499 17.3993C17.5425 17.0435 17.5626 16.7078 17.5432 16.3552C17.9064 16.0752 19.3253 15.3926 19.3979 15.2639C21.143 13.9991 21.985 11.6035 21.3045 9.49278C20.62 7.74914 20.766 8.14865 18.9871 6.23893C18.0866 5.3077 17.3122 4.48577 16.4159 3.55313C15.7305 3.0013 15.5217 2.2097 16.3507 1.77212C17.3302 1.34194 18.3457 3.24248 19.1666 3.9008C19.3591 3.98789 23.431 8.69906 22.7438 7.35704C21.875 5.89091 21.1095 4.67548 20.222 3.18466C19.3623 1.79927 18.3863 -0.214818 16.4068 0.0186069ZM15.7509 12.0213C15.7541 13.0516 15.7562 14.0626 15.7509 15.1112C15.6797 15.5424 14.942 15.644 14.6123 15.895C13.441 16.5107 12.3913 17.0474 11.246 17.633C10.533 18.0809 11.093 17.4613 11.1988 17.1637C11.5253 16.5128 12.2259 15.4434 12.654 14.9003C12.794 14.5904 16.0115 11.1031 15.7506 12.0213H15.7509Z" fill="#C72C48"/>
</svg>
