<svg width="30" height="30" viewBox="0 0 30 30" fill="none" xmlns="http://www.w3.org/2000/svg">
<g clip-path="url(#clip0_678_21479)">
<path d="M29.5457 11.8366C29.5457 13.1451 29.583 14.4536 29.537 15.7592C29.4421 18.5631 29.4738 21.3669 29.4766 24.1708C29.4766 25.3585 29.56 26.5433 29.606 27.731C29.6147 27.9438 29.5974 28.1595 29.6175 28.3723C29.6981 29.1603 29.2696 29.6118 28.6168 29.9195C28.2602 30.0863 27.941 29.9683 27.639 29.7814C26.6239 29.1603 26.1235 28.1882 25.8963 27.0725C25.6231 25.7208 25.5138 24.3491 25.4333 22.9716C25.3758 21.991 25.2608 21.0132 25.2205 20.0268C25.1831 19.1267 25.1227 18.2237 25.0911 17.3236C25.0393 15.8771 24.9157 14.4335 24.8265 12.9869C24.7604 11.9057 24.6626 10.833 24.4469 9.77184C24.4354 9.71432 24.4239 9.65393 24.4095 9.59641C24.3664 9.43537 24.3463 9.25132 24.1507 9.20531C23.935 9.15355 23.866 9.3491 23.7797 9.47851C23.0493 10.5713 22.5345 11.7762 21.991 12.9639C20.5301 16.1503 19.2792 19.4315 17.7636 22.592C17.4617 23.2247 17.1942 23.8746 16.8261 24.4728C16.5558 24.9156 16.2107 25.2895 15.7679 25.5627C14.7642 26.181 13.6427 25.948 12.9554 24.976C12.3687 24.142 11.9891 23.2017 11.6268 22.2613C10.6289 19.6674 9.68561 17.0504 8.65609 14.468C8.01479 12.8575 7.37925 11.2385 6.49063 9.7402C6.43024 9.63955 6.37273 9.53027 6.29221 9.44687C6.09953 9.23694 5.91548 9.26858 5.79757 9.52452C5.66241 9.81785 5.57326 10.1284 5.51862 10.4448C5.30294 11.6727 5.10164 12.9007 4.92334 14.1373C4.74217 15.3825 4.56099 16.6277 4.4057 17.8757C4.12388 20.1505 3.86218 22.4252 3.57748 24.6999C3.43657 25.8186 3.33304 26.9459 2.87867 27.9984C2.7924 28.194 2.709 28.3924 2.6026 28.5765C2.17986 29.3242 1.5702 29.5456 0.75923 29.258C0.53492 29.1775 0.371002 29.028 0.258847 28.8238C0.0661703 28.4701 -0.0201026 28.0876 0.00290349 27.6907C0.0546673 26.7072 0.109307 25.7237 0.198456 24.7402C0.322114 23.3685 0.342244 21.991 0.425641 20.6164C0.563678 18.3531 0.572305 16.0813 0.750603 13.8267C0.914522 11.759 0.808118 9.69707 0.923149 7.63514C1.00079 6.23177 0.923149 4.83127 0.992167 3.43077C1.04106 2.43575 1.32 1.48963 2.04757 0.773561C2.59972 0.238669 3.29566 -0.135181 4.10375 0.0459922C4.71629 0.184029 5.27418 0.497488 5.74293 0.943232C6.14267 1.32283 6.49063 1.73982 6.77821 2.20857C7.88826 4.02318 8.92928 5.87805 9.88404 7.78181C11.2241 10.4591 12.5643 13.1365 13.9072 15.8109C14.0625 16.1187 14.2351 16.4177 14.4162 16.7082C14.7441 17.2258 15.0058 17.2143 15.3164 16.6708C15.6068 16.1647 15.8886 15.6557 16.1561 15.138C17.6889 12.1731 19.2044 9.19668 20.7516 6.23752C21.3727 5.04695 21.991 3.85351 22.733 2.73196C23.219 1.99864 23.7424 1.27682 24.4757 0.770686C25.0336 0.385333 25.5886 -0.0661627 26.342 0.0143588C27.4262 0.126514 28.312 0.520494 28.7807 1.60466C29.1229 2.40125 29.1891 3.23809 29.2466 4.07782C29.2983 4.8629 29.4191 5.63648 29.5025 6.41582C29.5399 6.78391 29.5399 7.15201 29.5399 7.52011C29.5428 8.95799 29.5399 10.3959 29.5399 11.8366H29.5457Z" fill="#333333"/>
</g>
<defs>
<clipPath id="clip0_678_21479">
<rect width="30" height="30" fill="white"/>
</clipPath>
</defs>
</svg>
