<svg width="30" height="30" viewBox="0 0 30 30" fill="none" xmlns="http://www.w3.org/2000/svg">
<g clip-path="url(#clip0_269_12832)">
<path d="M18.6006 14.005L12.5927 15.9668L7.36593 18.2736L5.90366 18.6597C5.53125 19.0139 5.14077 19.3727 4.71843 19.736C4.25525 20.1356 3.82385 20.4989 3.49229 20.7622C3.12449 21.0529 2.57955 21.5978 2.30257 21.9429C1.8893 22.4606 1.56235 23.01 1.42157 23.4324C1.17179 24.1953 1.29446 24.9673 1.7758 25.6803C2.39339 26.5885 3.62405 27.5148 5.05899 28.146C5.79016 28.4685 7.02078 28.8817 7.94714 29.1133C9.48653 29.5039 12.4655 29.9262 14.1048 29.9898C14.4363 30.0034 14.8814 30.0034 14.8995 29.9898C14.9359 29.967 15.1902 29.4812 15.4854 28.8773C16.4935 26.8201 17.2201 24.8901 17.6151 23.2417C17.8512 22.2427 18.0374 20.9121 18.16 19.3364C18.1918 18.8959 18.2054 17.4201 18.1781 16.9205C18.1372 16.1031 18.0646 15.4402 17.9511 14.7908C17.933 14.6954 17.9284 14.6091 17.9375 14.6046C17.9556 14.5909 18.0101 14.5728 18.7503 14.3593L18.6005 14.0052V14.005H18.6006V14.005ZM17.2292 14.8088C17.2837 14.8088 17.4289 16.2029 17.4653 17.084C17.4744 17.2701 17.4698 17.3927 17.4607 17.3927C17.4244 17.3927 16.6933 16.9614 16.1711 16.6344C15.717 16.3483 14.8542 15.7761 14.718 15.6671C14.6725 15.6354 14.677 15.6308 15.0495 15.5036C15.6806 15.2902 17.1792 14.8088 17.2292 14.8088ZM14.1685 15.817C14.2094 15.817 14.3137 15.876 14.5635 16.0304C15.499 16.6162 16.7705 17.3246 17.3154 17.5608C17.4834 17.6334 17.5015 17.6062 17.1156 17.8696C16.2891 18.4327 15.2583 18.9867 13.9958 19.5452C13.7733 19.6451 13.5872 19.7223 13.5827 19.7223C13.5736 19.7223 13.6008 19.6088 13.6371 19.4726C13.9413 18.3418 14.1139 17.1974 14.1231 16.2801C14.1276 15.826 14.1276 15.826 14.1685 15.8124C14.1593 15.817 14.1639 15.817 14.1685 15.817ZM13.5373 16.0576C13.5644 16.0848 13.5463 17.1021 13.51 17.3791C13.4282 18.0421 13.3011 18.6597 13.0923 19.3545C13.0423 19.5224 12.9968 19.6633 12.9878 19.6723C12.9696 19.695 12.3475 19.0865 12.1431 18.8504C11.7889 18.4417 11.5119 18.033 11.3076 17.6334C11.2031 17.429 11.0397 17.0295 11.0533 17.0158C11.1259 16.9659 13.5191 16.0395 13.5373 16.0576ZM10.5673 17.2247C10.5719 17.2247 10.5764 17.2247 10.581 17.2292C10.59 17.2383 10.6219 17.311 10.6491 17.3927C10.7944 17.7878 11.1213 18.369 11.4029 18.7414C11.7117 19.1501 12.1159 19.586 12.4519 19.8721C12.5609 19.963 12.6608 20.0492 12.6744 20.0629C12.7017 20.0901 12.7107 20.0855 11.9705 20.3671C11.1123 20.6941 10.1768 21.021 9.10508 21.3661C8.84906 21.4487 8.59329 21.5319 8.33774 21.6159C8.29681 21.6296 8.31046 21.6068 8.42852 21.4207C8.95981 20.5896 9.7681 18.9594 10.2222 17.8059C10.2994 17.6061 10.3766 17.4063 10.3903 17.3609C10.4085 17.2973 10.4311 17.2746 10.4901 17.2428C10.5219 17.2338 10.5538 17.2247 10.5673 17.2247ZM9.65921 17.6016C9.6728 17.6107 9.44119 18.0966 9.21413 18.5416C8.77363 19.3999 8.29228 20.2446 7.64745 21.2708C7.53848 21.4479 7.43407 21.6114 7.42041 21.6296C7.39774 21.6614 7.38861 21.6523 7.31596 21.5115C7.16157 21.2073 7.03437 20.8167 6.96627 20.4579C6.89813 20.1037 6.91179 19.4862 6.98902 19.1047C7.04799 18.8232 7.0435 18.8277 7.17972 18.7596C7.76097 18.4644 9.64103 17.5834 9.65921 17.6016ZM17.4926 17.9195V18.1102C17.4926 19.1229 17.3836 20.5125 17.2246 21.5252C17.1973 21.7022 17.1746 21.8475 17.1701 21.8521C17.1701 21.8521 17.0384 21.8158 16.884 21.7703C16.2029 21.5569 15.4627 21.2436 14.7951 20.8758C14.3546 20.6351 13.7143 20.24 13.7325 20.2218C13.737 20.2173 13.9277 20.1174 14.1502 19.9993C15.0404 19.5361 15.894 19.0366 16.6342 18.5416C16.9113 18.3554 17.329 18.0558 17.4199 17.974L17.4926 17.9195ZM6.23061 19.2636C6.24876 19.2636 6.24422 19.2999 6.21697 19.4634C6.1988 19.5815 6.17612 19.7995 6.16709 19.9493C6.13068 20.6123 6.23974 21.1028 6.56668 21.7748C6.6575 21.961 6.73021 22.1154 6.7256 22.1199C6.69379 22.1472 3.68765 23.0282 2.74303 23.287C2.46151 23.3642 2.21633 23.4323 2.19807 23.4368C2.16635 23.446 2.16178 23.4414 2.17539 23.3642C2.27982 22.6967 2.78845 21.8248 3.49684 21.0891C3.96913 20.5987 4.34607 20.3126 4.99089 19.9447C5.45408 19.6814 6.16703 19.2864 6.22152 19.2681C6.22156 19.2636 6.22608 19.2636 6.23061 19.2636ZM13.3147 20.5306C13.3193 20.5261 13.4282 20.5851 13.5599 20.6623C14.5317 21.2254 15.885 21.7476 17.0383 22.0155L17.1429 22.0383L16.9975 22.1199C16.3936 22.456 14.4091 23.2825 12.3793 24.0409C12.0841 24.1498 11.7935 24.2588 11.7389 24.2815C11.6844 24.3042 11.6344 24.3179 11.6344 24.3133C11.6344 24.3087 11.7162 24.1498 11.8206 23.9546C12.3882 22.892 12.9605 21.5978 13.2511 20.6986C13.2875 20.6123 13.3101 20.5352 13.3147 20.5306ZM12.5927 20.7667C12.5973 20.7714 12.5609 20.8667 12.5155 20.9756C12.1205 21.9338 11.6027 22.9783 10.9397 24.1499C10.7717 24.4496 10.6309 24.6903 10.6263 24.6903C10.6219 24.6903 10.4856 24.6085 10.3221 24.5086C9.35936 23.9183 8.50567 23.1917 7.94716 22.4878L7.86538 22.3879L8.27859 22.2744C9.75901 21.8703 11.0168 21.4343 12.2657 20.8985C12.4428 20.8258 12.5882 20.7667 12.5927 20.7667ZM17.0793 22.3334C17.0793 22.3334 17.0839 22.338 17.0793 22.3334C17.0838 22.4379 16.8522 23.3734 16.6615 24.0499C16.5026 24.6176 16.3663 25.0626 16.1166 25.8482C16.0076 26.1934 15.9123 26.4794 15.9077 26.4794C15.9032 26.4794 15.8759 26.4749 15.8487 26.4658C14.5 26.2205 13.292 25.88 12.1568 25.4259C11.8388 25.2987 11.3848 25.0944 11.3575 25.0717C11.3485 25.0625 11.621 24.9354 11.9661 24.7856C14.0323 23.8819 16.1756 22.8556 16.9113 22.4152C16.9975 22.3606 17.0657 22.3334 17.0793 22.3334ZM6.72108 22.6877C6.73017 22.6967 6.15344 23.5278 5.34509 24.6585C5.06356 25.0536 4.73661 25.5167 4.61402 25.6893C4.49139 25.8618 4.30523 26.1343 4.20078 26.2978L4.00997 26.593L3.80561 26.4204C3.56491 26.2206 3.14719 25.7938 2.96101 25.5576C2.57044 25.0718 2.30711 24.5586 2.20266 24.0909C2.15269 23.8729 2.15269 23.7639 2.19805 23.7503C2.26615 23.7322 3.47864 23.446 4.61398 23.1826C5.2452 23.0373 5.97626 22.8648 6.23965 22.8012C6.50306 22.7375 6.71656 22.6877 6.72108 22.6877ZM7.30231 22.9102L7.44757 23.0736C8.10157 23.8048 8.7691 24.3452 9.57741 24.8174C9.72276 24.8992 9.83172 24.9718 9.82259 24.9764C9.79088 24.9991 7.0162 25.9844 5.73108 26.4295C5.00909 26.6838 4.41417 26.8881 4.40968 26.8881C4.40516 26.8881 4.36426 26.8609 4.31878 26.8291L4.23709 26.7701L4.36877 26.5794C4.7956 25.9618 5.33154 25.2852 6.49858 23.8774L7.30231 22.9102ZM10.9262 25.5031C10.9306 25.4986 11.1304 25.5712 11.3756 25.6621C11.9661 25.8846 12.4337 26.0253 13.0604 26.1843C13.8324 26.3796 14.9495 26.5703 15.608 26.6248C15.7079 26.6338 15.7624 26.643 15.7442 26.6566C15.7124 26.6748 15.0449 26.8973 14.5545 27.0517C13.7733 27.2969 11.3893 28.0007 9.44574 28.5593C9.08698 28.6637 8.77817 28.75 8.76001 28.7545C8.71466 28.7637 8.56474 28.7227 8.56474 28.7046C8.56474 28.6955 8.67372 28.5548 8.80543 28.4004C9.45931 27.6193 10.1087 26.7474 10.6491 25.9209C10.799 25.6938 10.9262 25.5076 10.9262 25.5031ZM10.1269 25.5259C10.1314 25.5304 9.809 26.048 9.24596 26.9381C9.00523 27.315 8.73729 27.7418 8.64191 27.8917C8.55109 28.037 8.41487 28.2641 8.3377 28.3912L8.20599 28.6229L8.13789 28.6047C7.97436 28.5593 6.82549 28.1551 6.52122 28.0325C6.14429 27.8826 5.75376 27.701 5.46311 27.5466C5.09987 27.3513 4.64579 27.0607 4.68208 27.0516C4.69115 27.0471 5.3133 26.879 6.06253 26.6747C8.05157 26.1343 9.15502 25.821 9.87712 25.5939C10.0088 25.5531 10.1223 25.5212 10.1269 25.5259ZM15.7805 26.8518H15.7851C15.8032 26.8972 15.0676 28.9407 14.7996 29.5855C14.7406 29.7308 14.718 29.7672 14.6862 29.7626C14.6089 29.7581 13.5418 29.6083 12.8924 29.5129C11.7617 29.3403 9.86348 29.0088 9.38671 28.8998L9.27773 28.8772L9.95426 28.7227C11.4075 28.3957 12.1068 28.2186 12.8152 28.0007C13.7098 27.7282 14.5954 27.3876 15.4899 26.9699C15.6307 26.9063 15.7487 26.8563 15.7805 26.8518Z" fill="url(#paint0_linear_269_12832)"/>
<path d="M12.4067 0.000232589C12.3068 -0.0133161 10.6947 0.567935 9.6548 0.990205C8.25156 1.56245 7.16176 2.10741 6.48965 2.57959C6.23993 2.75676 5.92653 3.07006 5.87665 3.19265C5.85849 3.23807 5.84937 3.29255 5.84937 3.34704L6.4579 3.92377L7.90648 4.38696L11.3532 5.00456L15.2948 5.6812L15.3357 5.34062C15.3221 5.34062 15.313 5.33609 15.2995 5.33609L14.7817 5.25432L14.6773 5.06816C14.1414 4.12359 13.5511 2.95197 13.206 2.16182C12.9381 1.54876 12.6838 0.840416 12.543 0.331787C12.4658 0.022995 12.4567 0.0048395 12.4068 0.000316306V0.0002115H12.4067V0.000232589ZM12.334 0.2319H12.3386C12.3431 0.236381 12.3613 0.363617 12.3795 0.513385C12.4566 1.14923 12.5975 1.76218 12.82 2.42521C12.988 2.92475 12.988 2.89753 12.7927 2.83845C12.3295 2.71134 10.2543 2.35259 8.75116 2.1437C8.51047 2.11189 8.30611 2.08013 8.30611 2.0756C8.28795 2.05745 9.3914 1.48068 9.87731 1.25368C10.4994 0.967526 12.2069 0.254579 12.334 0.2319ZM7.95638 2.26629L8.13356 2.32526C9.0962 2.65227 11.5166 3.11548 12.8517 3.22445C13.0015 3.23809 13.1287 3.25174 13.1332 3.25174C13.1377 3.25626 13.0107 3.32438 12.8471 3.40155C12.2024 3.72397 11.4939 4.11906 11.0035 4.42333C10.8582 4.51411 10.7264 4.58682 10.7083 4.58682C10.6901 4.58682 10.5948 4.56864 10.4949 4.55501L10.3133 4.52772L9.85922 4.08267C9.05998 3.30619 8.43328 2.70678 8.19259 2.47968L7.95638 2.26629ZM7.7748 2.40703L8.41508 3.2063C8.76471 3.64679 9.11892 4.07817 9.1962 4.17349C9.27332 4.26891 9.33694 4.34614 9.33241 4.35067C9.31424 4.36428 8.40608 4.18714 7.92465 4.07821C7.42968 3.96465 7.22534 3.91016 6.92109 3.81484L6.67131 3.73306V3.66944C6.67583 3.36518 7.06187 2.9111 7.71577 2.44795L7.7748 2.40703ZM13.215 3.49691C13.2332 3.49691 13.2558 3.53777 13.3103 3.66038C13.4647 4.00094 13.9462 4.91829 14.0641 5.09536C14.1006 5.15446 14.164 5.15898 13.5238 5.05453C11.9844 4.8047 11.4894 4.72306 11.4894 4.71397C11.4894 4.70944 11.5348 4.67764 11.5938 4.64583C12.0707 4.3825 12.552 4.04642 12.9789 3.68766C13.0834 3.60137 13.1787 3.51963 13.1968 3.50598C13.2014 3.49691 13.2105 3.49239 13.215 3.49691Z" fill="url(#paint1_linear_269_12832)"/>
<path d="M5.90806 3.12903C5.90806 3.12903 5.80822 3.28803 5.90356 3.52418C5.96265 3.66945 6.13518 3.84652 6.33041 4.0282C6.33041 4.0282 8.35119 5.99902 8.59643 6.28061C9.71349 7.57024 10.1994 8.84176 10.2448 10.5946C10.2721 11.7208 10.0586 12.7108 9.52733 13.8597C8.58278 15.9214 6.5892 18.1965 3.51489 20.7213L3.96453 20.5715C4.25515 20.3535 4.65024 20.1219 5.57659 19.6133C7.71541 18.4416 10.1222 17.3654 13.074 16.2574C17.3243 14.6589 24.3132 12.7879 28.2911 12.1795L28.7044 12.1159L28.6408 12.016C28.2775 11.4528 28.0277 11.1032 27.728 10.7308C26.8561 9.65005 25.7981 8.77366 24.5038 8.04706C22.7237 7.05261 20.4213 6.27608 17.506 5.69936C16.9566 5.59032 15.7486 5.38145 14.7677 5.2316C12.6879 4.90926 11.3437 4.6867 9.86336 4.4324C9.3321 4.34154 8.53733 4.20534 8.01057 4.09184C7.73811 4.03275 7.21593 3.91016 6.80723 3.7694C6.48029 3.64218 6.00797 3.51503 5.90806 3.12903ZM7.07974 4.26435C7.08422 4.25987 7.15686 4.28703 7.25229 4.31884C7.42484 4.37781 7.64733 4.44595 7.91079 4.51865C8.1101 4.57348 8.30991 4.62645 8.5102 4.67757C8.78266 4.74565 9.00967 4.80925 9.0142 4.80925C9.04605 4.84106 9.50471 6.30773 9.65911 6.87084C9.71806 7.08433 9.76356 7.26593 9.75902 7.26593C9.75435 7.27054 9.70447 7.19329 9.64546 7.08886C9.11413 6.15337 8.27403 5.2043 7.30221 4.44136C7.17512 4.35063 7.07974 4.26887 7.07974 4.26435ZM9.31394 4.88193C9.33666 4.88193 9.43657 4.89557 9.55912 4.92279C10.3311 5.09534 11.7162 5.35873 12.6017 5.50861C12.7515 5.53129 12.8696 5.55859 12.8696 5.56762C12.8696 5.57675 12.8151 5.60847 12.7469 5.64485C12.5972 5.72201 11.9931 6.08073 11.7934 6.21699C11.2893 6.55302 10.8352 6.9163 10.5082 7.24325C10.3766 7.37497 10.263 7.48394 10.263 7.48394C10.263 7.48394 10.2358 7.40678 10.213 7.31135C10.0496 6.68013 9.70899 5.74465 9.4002 5.08623C9.35023 4.98182 9.30934 4.88644 9.30934 4.87739C9.30934 4.88646 9.30934 4.88193 9.31394 4.88193ZM13.2465 5.63121C13.2737 5.64026 13.3192 5.79468 13.41 6.13524C13.578 6.79374 13.6552 7.52939 13.628 8.21509C13.6189 8.40582 13.6098 8.58289 13.6007 8.60565L13.5871 8.65101L13.351 8.57385C12.865 8.41945 12.0749 8.1878 11.3983 7.99712C11.0123 7.89266 10.699 7.7973 10.699 7.78823C10.699 7.76095 11.2621 7.19787 11.5028 6.98447C11.9614 6.58025 13.2056 5.61756 13.2465 5.63121ZM13.5598 5.67657C13.5735 5.66302 15.4399 5.98536 16.2891 6.14887C16.9203 6.27146 17.8376 6.4622 17.8921 6.48495C17.9193 6.49399 17.8239 6.54848 17.5196 6.6847C16.3208 7.22514 15.4307 7.71096 14.5453 8.30137C14.3137 8.45576 14.1184 8.58289 14.1139 8.58289C14.1094 8.58289 14.1048 8.45124 14.1048 8.29228C14.1048 7.4295 13.9323 6.55759 13.6143 5.82194C13.5825 5.74928 13.5553 5.68118 13.5598 5.67657ZM18.387 6.63025C18.4007 6.64387 18.3416 7.01173 18.2871 7.22966C18.1236 7.9063 17.6832 8.90994 17.1428 9.85443C17.0474 10.0225 16.9611 10.1587 16.952 10.1632C16.943 10.1677 16.8204 10.0996 16.6796 10.0179C16.1528 9.70908 15.5534 9.41847 14.8995 9.14597C14.7179 9.0688 14.5589 9.00518 14.5544 8.99618C14.5225 8.96889 15.9848 8.00164 16.7568 7.53845C17.3698 7.16611 18.3688 6.61206 18.387 6.63025ZM18.7321 6.68472C18.773 6.68472 19.5995 6.9118 20.0308 7.03895C21.098 7.35685 22.3241 7.80639 23.1233 8.16967L23.4548 8.31958L23.2233 8.37403C21.2707 8.82356 19.5995 9.34132 17.9874 9.99522C17.8557 10.0497 17.7376 10.0951 17.7286 10.0951C17.7195 10.0951 17.7649 9.99069 17.8239 9.8635C18.3098 8.83269 18.6232 7.75645 18.7003 6.8391C18.7049 6.7528 18.7185 6.68472 18.7321 6.68472ZM10.5037 8.57385C10.5173 8.56019 11.1485 8.71009 11.4891 8.80537C12.0068 8.95074 13.1057 9.31852 13.1057 9.3458C13.1057 9.35033 12.9831 9.45478 12.8379 9.58197C12.243 10.077 11.6708 10.5991 10.985 11.2621C10.7807 11.4575 10.6081 11.6164 10.5991 11.6164C10.59 11.6164 10.5855 11.5891 10.59 11.5528C10.6944 10.7898 10.6718 9.80899 10.5264 8.8145C10.5128 8.6873 10.4992 8.57837 10.5037 8.57385ZM23.7683 8.5875C23.7772 8.59653 23.4776 9.0688 23.2869 9.3367C23.0144 9.72722 22.6147 10.245 21.711 11.3803C21.2343 11.9796 20.6984 12.6563 20.5214 12.8833C20.3396 13.1104 20.1898 13.3011 20.1852 13.3011C20.1807 13.3011 20.1218 13.2194 20.0581 13.1195C19.5495 12.3566 18.941 11.689 18.2189 11.0896C18.0827 10.976 17.9329 10.8534 17.883 10.8171C17.833 10.7808 17.7921 10.7445 17.7921 10.7399C17.7921 10.7263 18.564 10.3948 19.1499 10.1587C20.1762 9.74087 21.5747 9.24137 22.6238 8.91893C23.1733 8.7464 23.7591 8.57837 23.7683 8.5875ZM24.1179 8.67826C24.136 8.67375 24.245 8.72824 24.3767 8.80537C25.4802 9.43658 26.561 10.2495 27.4147 11.0851C27.6554 11.3212 28.2503 11.9388 28.2411 11.9433C28.2411 11.9433 28.0323 11.9615 27.7871 11.9796C25.8753 12.125 23.4277 12.5291 21.0754 13.0967C20.9164 13.133 20.7757 13.1648 20.7666 13.1648C20.7576 13.1648 20.9346 12.9877 21.1572 12.7743C22.5376 11.4438 23.1689 10.6037 23.9136 9.10509C24.018 8.88264 24.1088 8.69191 24.1179 8.67826C24.1134 8.67826 24.1134 8.67826 24.1179 8.67826ZM14.0049 9.71369C14.0685 9.72724 14.6588 10.0043 15.1038 10.2268C15.5125 10.4311 16.1256 10.7581 16.1574 10.7853C16.1619 10.7898 15.9439 10.9034 15.6761 11.0351C14.8223 11.4619 14.0912 11.8661 13.3282 12.3293C13.1103 12.461 12.9286 12.57 12.9241 12.57C12.9059 12.57 12.9105 12.5518 13.0331 12.3293C13.4418 11.5846 13.7687 10.6945 13.955 9.82715C13.9731 9.75905 13.9913 9.71369 14.0049 9.71369ZM13.4145 9.82263C13.4281 9.83628 13.2737 10.3948 13.1784 10.6991C12.9922 11.2758 12.6789 11.9978 12.3747 12.5427C12.3019 12.6698 12.193 12.856 12.1339 12.9605L12.0204 13.1421L11.7661 12.897C11.471 12.6108 11.2302 12.4337 10.9215 12.2748C10.7988 12.2112 10.7035 12.1567 10.7035 12.1477C10.7035 12.1113 11.48 11.4075 12.0749 10.8989C12.5017 10.531 13.4009 9.80901 13.4145 9.82263ZM17.0248 11.3076L17.2473 11.4529C17.7558 11.7844 18.3552 12.2249 18.8139 12.6108C19.0727 12.8242 19.5722 13.2739 19.6722 13.3828L19.7266 13.4419L19.3589 13.5463C17.279 14.123 15.6715 14.6362 13.796 15.3265C13.5871 15.4036 13.41 15.4672 13.3963 15.4672C13.3692 15.4672 13.3464 15.4899 13.8142 15.0585C15.013 13.9551 16.0756 12.738 16.8658 11.5527L17.0248 11.3076ZM16.0756 11.5437C16.0847 11.5528 15.4626 12.4292 15.0902 12.9242C14.6452 13.5145 13.855 14.5045 13.3101 15.1493C13.0831 15.4172 12.8878 15.6397 12.8787 15.6443C12.865 15.6488 12.8605 15.5807 12.8605 15.4763C12.8605 14.9267 12.7198 14.3409 12.4745 13.8415C12.3701 13.6326 12.3519 13.5826 12.3747 13.5599C12.4609 13.4827 13.7824 12.7289 14.6179 12.2793C15.181 11.9796 16.0619 11.5346 16.0756 11.5437ZM10.3356 12.9515C10.3493 12.9515 10.4537 13.0059 10.5718 13.0695C10.8624 13.2284 11.1213 13.4055 11.3529 13.5963C11.3619 13.6054 11.2439 13.7008 11.0895 13.8142C10.6581 14.123 10.0042 14.618 9.6228 14.9223C9.22308 15.2402 9.20955 15.2492 9.25491 15.1811C9.55466 14.7225 9.70444 14.4636 9.86345 14.1322C10.0042 13.837 10.1449 13.4873 10.2448 13.1831C10.2812 13.0514 10.3266 12.9515 10.3356 12.9515ZM11.8661 14.1503C11.8887 14.1458 11.916 14.1866 12.0386 14.3683C12.2974 14.7542 12.4972 15.272 12.5473 15.6897L12.5562 15.7806L11.9342 16.0213C10.8215 16.4526 9.79533 16.8795 9.10045 17.1974C8.90524 17.2882 8.56464 17.4517 8.34217 17.5607C8.11963 17.6742 7.93799 17.7605 7.93799 17.756C7.93799 17.7514 8.07873 17.647 8.25128 17.5198C9.60916 16.5344 10.7853 15.4536 11.6662 14.3728C11.7616 14.2593 11.8479 14.1548 11.8569 14.1503L11.8661 14.1503ZM11.1622 14.3229C11.1804 14.341 10.6627 14.9268 10.3085 15.2855C9.43205 16.1802 8.56468 16.8795 7.48841 17.5607C7.3522 17.647 7.22961 17.7241 7.21596 17.7333C7.18415 17.7514 7.225 17.706 7.6973 17.1928C7.99704 16.8704 8.22406 16.598 8.48291 16.262C8.65546 16.0395 8.68727 16.0077 8.93707 15.8305C9.60462 15.3491 11.144 14.3047 11.1622 14.3229Z" fill="url(#paint2_radial_269_12832)"/>
<path d="M16.733 29.9983H16.5414V28.463H16.0337V28.2713H17.2404V28.463H16.733V29.9983Z" fill="#231F1F"/>
<path d="M17.7041 28.8449V28.8449L17.693 28.8466V30H17.4999V28.2714H17.7764L18.3107 29.4783C18.35 29.5725 18.3782 29.6274 18.3892 29.6825H18.4049C18.4315 29.5881 18.4741 29.505 18.4868 29.4625L19.0209 28.2713H19.2677V29.9968H19.0633V28.8339C19.0633 28.7504 19.0633 28.6407 19.076 28.504C19.0494 28.5746 19.0368 28.628 19.0209 28.6688L18.4302 29.9983H18.3359L17.7465 28.6815C17.7339 28.6407 17.7057 28.5856 17.693 28.504C17.7041 28.573 17.7041 28.6955 17.7041 28.8449Z" fill="#231F1F"/>
</g>
<defs>
<linearGradient id="paint0_linear_269_12832" x1="5.81537" y1="27.0324" x2="10.0228" y2="22.0025" gradientUnits="userSpaceOnUse">
<stop stop-color="#909CA9"/>
<stop offset="1" stop-color="#EDEDEE"/>
</linearGradient>
<linearGradient id="paint1_linear_269_12832" x1="5.8653" y1="2.83183" x2="7.6133" y2="2.83183" gradientUnits="userSpaceOnUse">
<stop stop-color="#939FAB"/>
<stop offset="1" stop-color="#DCDEE1"/>
</linearGradient>
<radialGradient id="paint2_radial_269_12832" cx="0" cy="0" r="1" gradientUnits="userSpaceOnUse" gradientTransform="translate(14.6855 10.8487) rotate(-171.457) scale(2.25367 4.50845)">
<stop stop-color="#EE352C"/>
<stop offset="1" stop-color="#A91D22"/>
</radialGradient>
<clipPath id="clip0_269_12832">
<rect width="30" height="30" fill="white"/>
</clipPath>
</defs>
</svg>
