<svg width="66" height="51" viewBox="0 0 66 51" fill="none" xmlns="http://www.w3.org/2000/svg">
<g clip-path="url(#clip0_561_19830)">
<g opacity="0.5">
<g opacity="0.05">
<path d="M31.3935 32.8579C29.0378 34.3216 26.6497 35.7666 24.3948 37.3732C22.9104 39.2022 25.4124 40.4829 26.6794 41.2624C31.0138 43.9439 35.351 46.6228 39.6889 49.2988C41.1077 50.177 42.2331 50.9993 43.8431 50.9993C45.2046 50.9993 46.3183 50.5975 47.503 49.8622C49.3347 48.7216 51.1657 47.5824 52.9967 46.4432C56.3328 44.3672 59.8318 42.416 63.0512 40.168C62.7868 40.3441 63.1983 40.0562 63.2597 40.0086C63.3219 40.0044 63.4358 39.8677 63.5021 39.789C63.5145 39.7738 63.5255 39.7607 63.5345 39.751C63.6443 39.6136 63.7478 39.47 63.8452 39.3209L63.8473 39.3174C63.9722 39.0813 64.0385 38.8093 64.0392 38.5324C63.9515 36.8133 61.5482 35.8937 60.2882 35.1598C60.2343 35.128 60.1818 35.0969 60.1321 35.0666C57.8551 33.6588 55.5775 32.2538 53.2991 30.8502C51.5433 29.769 49.7897 28.685 48.0381 27.5969C46.4964 26.6476 44.9098 25.6513 43.0678 26.1194C43.0933 26.1146 43.121 26.1105 43.1479 26.1056C42.7909 26.1609 42.4374 26.2416 42.0895 26.348C42.0474 26.3611 42.0066 26.3763 41.9659 26.3949C41.5364 26.5144 40.4863 27.1986 39.8919 27.5707C38.9722 28.1479 38.0498 28.7216 37.1247 29.2933C35.2136 30.4829 33.3032 31.6711 31.3928 32.8579" fill="#FCFCFE"/>
</g>
<g opacity="0.09">
<path d="M30.2896 32.8579C27.9339 34.3216 25.5457 35.7666 23.2908 37.3732C21.8064 39.2021 24.314 40.469 25.581 41.2485C29.9161 43.9301 34.2526 46.6089 38.5912 49.285C40.01 50.1632 41.1298 50.9993 42.7399 50.9993C44.1014 50.9993 45.2095 50.5809 46.3936 49.8456C48.2252 48.705 50.0555 47.5644 51.8851 46.4246C55.2212 44.3485 58.7217 42.4001 61.9404 40.1521C61.6801 40.3254 62.0833 40.043 62.1503 39.9899C62.2152 39.9816 62.3284 39.847 62.3919 39.771C62.4043 39.7558 62.4154 39.7434 62.4244 39.733C62.5155 39.6322 62.7123 39.3381 62.7344 39.3043L62.7364 39.3008C62.8607 39.0647 62.927 38.7934 62.9284 38.5158C62.8407 36.7933 60.4346 35.8902 59.1773 35.1556C59.1235 35.1238 59.0717 35.0928 59.0213 35.0624C56.7471 33.656 54.4714 32.2524 52.1951 30.8508C50.4394 29.7696 48.6858 28.6857 46.9342 27.5983C45.3918 26.649 43.8059 25.6513 41.9639 26.1208C41.9894 26.116 42.017 26.1118 42.0439 26.107C41.687 26.1622 41.3335 26.243 40.9855 26.3493C40.9434 26.3624 40.9027 26.3776 40.862 26.3963C40.4325 26.5157 39.3824 27.1999 38.7879 27.572C37.8683 28.1492 36.9459 28.723 36.0207 29.2946C34.1097 30.4842 32.1993 31.6724 30.2889 32.8593" fill="#F8F9FD"/>
</g>
<g opacity="0.14">
<path d="M29.1857 32.8579C26.83 34.3216 24.4418 35.7666 22.1869 37.3732C20.7025 39.2022 23.2156 40.4553 24.4825 41.2347C28.8177 43.9163 33.1542 46.5951 37.4928 49.2712C38.9109 50.1494 40.0252 50.9986 41.6359 50.9986C42.9974 50.9986 44.0994 50.5637 45.2834 49.8284C47.1158 48.6878 48.9419 47.5396 50.7736 46.4039C54.1097 44.3278 57.6108 42.3822 60.8295 40.1342C60.5741 40.3041 60.9669 40.0279 61.0422 39.9692C61.1092 39.9561 61.2217 39.8249 61.2838 39.7517C61.2963 39.7372 61.3066 39.7241 61.3163 39.7138C61.4254 39.5777 61.5282 39.4348 61.6249 39.2864L61.627 39.2829C61.7506 39.0461 61.8168 38.7755 61.8189 38.4986C61.7305 36.7726 59.3217 35.8854 58.0672 35.1508C58.014 35.119 57.9615 35.088 57.9118 35.0576C55.6397 33.6526 53.3668 32.2497 51.0926 30.8495C49.3369 29.7683 47.5832 28.6843 45.8316 27.5969C44.2899 26.6476 42.7033 25.6506 40.8613 26.1194C40.8868 26.1146 40.9145 26.1105 40.9414 26.1056C40.5844 26.1609 40.2309 26.2416 39.883 26.348C39.8409 26.3611 39.8001 26.3763 39.7594 26.3949C39.33 26.5144 38.2798 27.1986 37.6854 27.5707C36.7651 28.1472 35.8413 28.7189 34.9189 29.2926C33.0078 30.4822 31.0974 31.6704 29.187 32.8572" fill="#F5F6FC"/>
</g>
<g opacity="0.19">
<path d="M28.081 32.8579C25.7253 34.3216 23.3371 35.7666 21.0822 37.3732C19.5978 39.2022 22.1165 40.4415 23.3834 41.2209C27.7185 43.9025 32.055 46.5813 36.3936 49.2574C37.8117 50.1356 38.9205 50.9993 40.5313 50.9993C41.8921 50.9993 42.9885 50.5478 44.1719 49.8125C46.0042 48.6726 47.829 47.521 49.6607 46.3846C52.9968 44.3092 56.4986 42.3656 59.7173 40.1176C59.4667 40.2847 59.8505 40.0134 59.9313 39.9492C60.001 39.9319 60.1129 39.8028 60.1723 39.7324C60.1847 39.7179 60.195 39.7055 60.2047 39.6951C60.2965 39.5922 60.4919 39.3002 60.5119 39.2691L60.514 39.2657C60.6369 39.0289 60.7032 38.7582 60.706 38.4814C60.6176 36.7519 58.206 35.8812 56.9535 35.1453C56.9004 35.1142 56.8486 35.0824 56.7989 35.0521C54.5295 33.6491 52.2587 32.2483 49.9872 30.8495C48.2315 29.7683 46.4778 28.6843 44.7256 27.5969C43.1839 26.6476 41.5973 25.6506 39.7553 26.1194C39.7808 26.1146 39.8084 26.1105 39.8353 26.1056C39.4784 26.1609 39.1249 26.2416 38.7769 26.348C38.7348 26.3611 38.6941 26.3763 38.6533 26.3949C38.2239 26.5144 37.1738 27.1986 36.5793 27.5707C35.659 28.1472 34.7352 28.7189 33.8121 29.2926C31.9011 30.4822 29.9907 31.6704 28.0803 32.8572" fill="#F1F3FB"/>
</g>
<g opacity="0.24">
<path d="M26.9763 32.8579C24.6206 34.3216 22.2324 35.7666 19.9775 37.3732C18.4931 39.2022 21.018 40.4276 22.2835 41.2071C26.6193 43.8887 30.9558 46.5675 35.2937 49.2436C36.7125 50.1218 37.8151 50.9986 39.4259 50.9986C40.7867 50.9986 41.8768 50.5312 43.0609 49.7959C44.8926 48.6553 46.716 47.5017 48.547 46.3652C51.883 44.2898 55.3855 42.3491 58.6049 40.1011C58.3592 40.2647 58.7327 39.9996 58.821 39.9299C58.8929 39.9084 59.0047 39.7821 59.062 39.7144C59.0737 39.7006 59.0848 39.6875 59.0938 39.6772C59.2022 39.5418 59.3037 39.4003 59.3996 39.2526L59.4017 39.2491C59.5239 39.0123 59.5902 38.7416 59.5936 38.4655C59.5053 36.7318 57.0902 35.8771 55.8405 35.1418C55.7874 35.1101 55.7356 35.079 55.6859 35.0479C53.4192 33.6464 51.1512 32.2462 48.8818 30.8488C47.1261 29.769 45.3724 28.685 43.6201 27.5969C42.0784 26.6476 40.4925 25.6506 38.6498 26.1194C38.6754 26.1146 38.703 26.1105 38.7299 26.1056C38.373 26.1609 38.0195 26.2416 37.6715 26.348C37.6294 26.3604 37.5887 26.3763 37.5479 26.3942C37.1185 26.5137 36.069 27.1979 35.4739 27.57C34.5536 28.1465 33.6298 28.7182 32.7067 29.2926C30.7963 30.4822 28.8859 31.6704 26.9756 32.8572" fill="#EEF0FA"/>
</g>
<g opacity="0.29">
<path d="M25.8724 32.8579C23.5167 34.3216 21.1285 35.7666 18.8736 37.3732C17.3892 39.2021 19.9189 40.4138 21.1852 41.1933C25.521 43.8749 29.8575 46.5537 34.1954 49.2297C35.6142 50.1079 36.7113 50.9986 38.322 50.9986C39.6828 50.9986 40.7668 50.5146 41.9508 49.7793C43.7832 48.6387 45.6038 47.4816 47.4348 46.3452C50.7709 44.2691 54.2748 42.3318 57.4935 40.0838C57.2525 40.2446 57.6171 39.985 57.7117 39.9091C57.8028 39.8566 57.8843 39.7834 57.9526 39.6951C57.9644 39.6813 57.9747 39.6688 57.9844 39.6585C58.0776 39.5528 58.2709 39.2642 58.2889 39.2353L58.2909 39.2318C58.4124 38.995 58.4787 38.725 58.4822 38.4489C58.3938 36.7118 55.976 35.8736 54.7291 35.1369C54.6759 35.1052 54.6241 35.0741 54.5744 35.043C52.3098 33.6429 50.0439 32.2448 47.7773 30.8488C46.0222 29.7683 44.2686 28.6843 42.5163 27.5962C40.9746 26.6469 39.3887 25.6499 37.546 26.1187C37.5722 26.1139 37.5991 26.1097 37.6261 26.1049C37.2691 26.1601 36.9156 26.2416 36.5676 26.3479C36.5255 26.361 36.4848 26.3762 36.4441 26.3942C36.0146 26.5136 34.9652 27.1978 34.3701 27.57C33.4497 28.1472 32.5259 28.7181 31.6029 29.2926C29.6925 30.4815 27.7821 31.6697 25.8717 32.8565" fill="#EAEDF9"/>
</g>
<g opacity="0.33">
<path d="M24.7677 32.8579C22.412 34.3216 20.0239 35.7666 17.769 37.3732C16.2846 39.2022 18.8198 40.4 20.086 41.1802C24.4218 43.8618 28.759 46.5406 33.0969 49.2167C34.515 50.0949 35.6066 50.9993 37.2173 50.9993C38.5781 50.9993 39.6559 50.4988 40.84 49.7635C42.6723 48.6229 44.4909 47.463 46.3226 46.3266C49.6587 44.2505 53.1632 42.3159 56.3819 40.0679C56.1451 40.2254 56.5 39.972 56.6022 39.8905C56.6926 39.8366 56.7741 39.7648 56.8424 39.6772C56.8535 39.6634 56.8645 39.6516 56.8742 39.6406C56.9681 39.5336 57.16 39.2463 57.1773 39.2187L57.1794 39.2153C57.3009 38.9785 57.3665 38.7085 57.3706 38.4323C57.2822 36.6918 54.8616 35.8702 53.6175 35.1328C53.5643 35.1011 53.5126 35.07 53.4635 35.0389C51.2017 33.6402 48.9379 32.2434 46.6733 30.8495C44.9183 29.769 43.1639 28.685 41.4116 27.5969C39.8699 26.6476 38.2847 25.6506 36.442 26.1194C36.4682 26.1146 36.4952 26.1098 36.5221 26.1056C36.1651 26.1609 35.8117 26.2423 35.4637 26.3487C35.4216 26.3618 35.3808 26.377 35.3401 26.3949C34.9107 26.5144 33.8612 27.1986 33.2661 27.5707C32.3458 28.1479 31.422 28.7189 30.4989 29.2933C28.5885 30.4829 26.6781 31.6711 24.7677 32.8579Z" fill="#E7EAF8"/>
</g>
<g opacity="0.38">
<path d="M23.6631 32.8579C21.3074 34.3216 18.9192 35.7666 16.6643 37.3732C15.1799 39.2022 17.7207 40.3862 18.9869 41.1657C23.3227 43.8473 27.6599 46.5261 31.9978 49.2022C33.4159 50.0804 34.5019 50.9986 36.1127 50.9986C37.4735 50.9986 38.545 50.4815 39.7291 49.7469C41.5615 48.6063 43.3786 47.443 45.2103 46.3065C48.5464 44.2312 52.0516 42.2994 55.2711 40.0514C55.0398 40.206 55.385 39.9575 55.4934 39.8712C55.5831 39.8166 55.6646 39.7448 55.7329 39.6585C55.744 39.6454 55.755 39.633 55.7647 39.6219C55.8586 39.5142 56.0505 39.2277 56.0671 39.2015L56.0692 39.198C56.19 38.9605 56.2556 38.6912 56.2604 38.4158C56.1721 36.6718 53.7487 35.8661 52.5066 35.128C52.4535 35.0962 52.4024 35.0652 52.3527 35.0341C50.0936 33.6367 47.8325 32.2414 45.57 30.8488C43.8143 29.7683 42.0606 28.6843 40.3077 27.5969C38.7666 26.6476 37.1808 25.6506 35.338 26.1194C35.3643 26.1146 35.3912 26.1098 35.4188 26.1056C35.0619 26.1609 34.7084 26.2416 34.3597 26.3487C34.3176 26.3618 34.2769 26.377 34.2361 26.3949C33.8067 26.5144 32.7573 27.1986 32.1621 27.5707C31.2418 28.1479 30.318 28.7189 29.3949 29.2933C27.4845 30.4829 25.5742 31.6711 23.6638 32.8579" fill="#E3E7F7"/>
</g>
<g opacity="0.43">
<path d="M22.5591 32.8578C20.2034 34.3215 17.8145 35.7666 15.5603 37.3732C14.0759 39.2021 16.6229 40.3723 17.8877 41.1525C22.2242 43.8341 26.5614 46.5129 30.8993 49.189C32.3181 50.0665 33.3986 50.9992 35.0087 50.9992C36.3695 50.9992 37.4348 50.4655 38.6182 49.7309C40.4506 48.5911 42.2657 47.4243 44.0973 46.2878C47.4334 44.2124 50.9401 42.2827 54.1588 40.0354C53.9316 40.1866 54.2672 39.9443 54.3825 39.8518C54.4715 39.7972 54.553 39.7261 54.6221 39.6412C54.6331 39.6281 54.6435 39.6156 54.6531 39.6046C54.7484 39.4955 54.939 39.2111 54.9541 39.1862L54.9562 39.1821C55.077 38.9446 55.1426 38.6753 55.1475 38.3998C55.0584 36.6524 52.6323 35.8632 51.393 35.1245C51.3405 35.0927 51.2887 35.0616 51.239 35.0306C48.982 33.6352 46.7237 32.2413 44.4633 30.8494C42.7082 29.7696 40.9546 28.6856 39.2023 27.5975C37.6606 26.6482 36.0754 25.6506 34.2327 26.1201C34.2589 26.1145 34.2858 26.1104 34.3127 26.1062C33.9558 26.1615 33.6023 26.2423 33.2543 26.3493C33.2122 26.3624 33.1715 26.3776 33.1308 26.3955C32.7006 26.515 31.6519 27.1992 31.0567 27.5713C30.1357 28.1485 29.2126 28.7195 28.2895 29.2939C26.3792 30.4828 24.4688 31.671 22.5584 32.8578" fill="#E0E4F6"/>
</g>
<g opacity="0.48">
<path d="M21.4552 32.8578C19.0995 34.3215 16.7106 35.7666 14.4564 37.3732C12.972 39.2021 15.5245 40.3592 16.7893 41.1387C21.1258 43.8203 25.463 46.4991 29.8009 49.1752C31.2197 50.0527 32.294 50.9992 33.9048 50.9992C35.2656 50.9992 36.3247 50.449 37.508 49.7144C39.3404 48.5738 41.1541 47.4049 42.9851 46.2678C46.3212 44.1924 49.8292 42.2655 53.048 40.0181C52.8256 40.1659 53.1522 39.9291 53.2737 39.8317C53.3621 39.7765 53.4429 39.7061 53.5133 39.6219C53.5237 39.6094 53.534 39.5977 53.5437 39.5866C53.6396 39.4762 53.8288 39.1924 53.8433 39.1689L53.8454 39.1655C53.9655 38.928 54.0311 38.6587 54.0366 38.3832C53.9476 36.6323 51.518 35.8591 50.2815 35.1203C50.229 35.0886 50.1779 35.0575 50.1282 35.0264C47.874 33.6325 45.6177 32.2399 43.36 30.8501C41.6043 29.7696 39.8506 28.6856 38.0984 27.5975C36.5573 26.6482 34.9715 25.6506 33.1287 26.1201C33.155 26.1145 33.1819 26.1104 33.2088 26.1062C32.8519 26.1615 32.4984 26.2423 32.1504 26.3493C32.109 26.3624 32.0676 26.3776 32.0268 26.3955C31.5967 26.515 30.548 27.1992 29.9528 27.5713C29.0318 28.1485 28.1087 28.7195 27.1856 29.2939C25.2752 30.4835 23.3649 31.6717 21.4545 32.8585" fill="#DDE1F6"/>
</g>
<g opacity="0.52">
<path d="M20.3505 32.8579C17.9948 34.3216 15.606 35.7666 13.3518 37.3732C11.8674 39.2022 14.4254 40.3455 15.6902 41.125C20.0267 43.8065 24.3639 46.4854 28.7025 49.1614C30.1206 50.0389 31.1901 50.9986 32.8008 50.9986C34.1616 50.9986 35.2145 50.4318 36.3979 49.6979C38.2302 48.5573 40.0419 47.385 41.8736 46.2486C45.2097 44.1732 48.7184 42.249 51.9371 40.001C51.7196 40.146 52.0358 39.9147 52.1649 39.8111C52.2533 39.7552 52.3334 39.6854 52.4045 39.6026L52.4349 39.5674C52.5315 39.4555 52.72 39.1738 52.7331 39.1518L52.7352 39.1476C52.8553 38.9101 52.9209 38.6415 52.9265 38.3661C52.8374 36.6117 50.4051 35.855 49.1713 35.1149C49.1188 35.0838 49.0677 35.0521 49.018 35.021C46.7659 33.6284 44.5123 32.2372 42.2567 30.8481C40.5017 29.7683 38.7481 28.6843 36.9958 27.5969C35.4541 26.6476 33.8689 25.65 32.0262 26.1194C32.0524 26.1139 32.0793 26.1098 32.1062 26.1056C31.7493 26.1609 31.3958 26.2416 31.0478 26.3487C31.0064 26.3618 30.965 26.377 30.9242 26.3949C30.4941 26.5144 29.4454 27.1986 28.8502 27.5707C27.9292 28.1479 27.0061 28.7182 26.083 29.2933C24.1727 30.4829 22.2623 31.6711 20.3519 32.8579" fill="#D9DEF5"/>
</g>
<g opacity="0.57">
<path d="M19.2463 32.8579C16.8906 34.3216 14.5018 35.7666 12.2476 37.3732C10.7632 39.2022 13.3267 40.3317 14.5916 41.1112C18.9281 43.7927 23.266 46.4716 27.6038 49.1476C29.022 50.0251 30.0852 50.9993 31.6966 50.9993C33.0574 50.9993 34.1041 50.4166 35.2875 49.6813C37.1199 48.5407 38.9294 47.3656 40.7611 46.2285C44.0972 44.1531 47.6066 42.2324 50.8253 39.9844C50.6127 40.1259 50.9192 39.9002 51.0552 39.7918C51.1422 39.7352 51.223 39.6654 51.2941 39.584C51.3045 39.5715 51.3148 39.5598 51.3245 39.5487C51.4219 39.4355 51.6096 39.1552 51.6221 39.1345L51.6235 39.1304C51.7429 38.8928 51.8092 38.6243 51.8147 38.3488C51.7256 36.591 49.2912 35.8502 48.0588 35.1101C48.007 35.079 47.956 35.0479 47.9056 35.0168C45.6562 33.6257 43.4047 32.2358 41.1512 30.8481C39.3969 29.7683 37.6425 28.685 35.8895 27.5969C34.3485 26.6476 32.7633 25.65 30.9199 26.1194C30.9462 26.1132 30.9738 26.1098 31 26.1056C30.6431 26.1602 30.2896 26.2416 29.9416 26.3487C29.9002 26.3618 29.8587 26.377 29.818 26.3949C29.3879 26.5144 28.3391 27.1986 27.744 27.5707C26.8223 28.1479 25.8999 28.7182 24.9768 29.2933C23.0664 30.4822 21.156 31.6704 19.2457 32.8572" fill="#D6DBF4"/>
</g>
<g opacity="0.62">
<path d="M18.1424 32.8579C15.7867 34.3216 13.3979 35.7666 11.1437 37.3732C9.65927 39.2021 12.2283 40.3178 13.4932 41.0973C17.8304 43.7789 22.1676 46.4577 26.5054 49.1338C27.9236 50.0106 28.982 50.9986 30.5927 50.9986C31.9535 50.9986 32.994 50.3993 34.1774 49.6647C36.0104 48.5241 37.8179 47.3463 39.6496 46.2092C42.9857 44.1338 46.4965 42.2158 49.7145 39.9678C49.5067 40.1066 49.8036 39.8863 49.9465 39.7717C50.0328 39.7151 50.1129 39.6454 50.1847 39.5653C50.195 39.5535 50.2054 39.5418 50.2151 39.5301C50.3131 39.4161 50.4995 39.1365 50.5112 39.1172L50.5133 39.1137C50.6328 38.8762 50.6983 38.6077 50.7039 38.3322C50.6148 36.5709 48.1769 35.8467 46.948 35.1052C46.8962 35.0741 46.8451 35.043 46.7954 35.012C44.5481 33.6222 42.2994 32.2337 40.0487 30.8474C38.2943 29.7683 36.5407 28.6843 34.7877 27.5962C33.2467 26.6469 31.6615 25.6492 29.8181 26.1187C29.8443 26.1125 29.8719 26.109 29.8982 26.1042C29.5412 26.1594 29.1877 26.2409 28.8404 26.3479C28.799 26.361 28.7576 26.3762 28.7169 26.3942C28.2867 26.5136 27.238 27.1978 26.6428 27.5693C25.7211 28.1472 24.7987 28.7174 23.875 29.2919C21.9653 30.4815 20.0549 31.6697 18.1438 32.8565" fill="#D2D8F3"/>
</g>
<g opacity="0.67">
<path d="M17.0378 32.8579C14.6821 34.3216 12.2932 35.7666 10.039 37.3732C8.55463 39.2022 11.1292 40.3048 12.3933 41.0835C16.7305 43.7651 21.0677 46.4439 25.4056 49.12C26.8244 49.9968 27.8766 50.9986 29.4874 50.9986C30.8482 50.9986 31.8831 50.3828 33.0658 49.6482C34.8989 48.5076 36.7043 47.327 38.536 46.1899C41.8721 44.1145 45.3835 42.1993 48.6023 39.9513C48.3993 40.0866 48.6865 39.8719 48.8356 39.7524C48.9212 39.6944 49.0013 39.6261 49.0738 39.5474C49.0842 39.5363 49.0938 39.5246 49.1042 39.5128C49.2029 39.3975 49.388 39.1193 49.399 39.1014L49.4004 39.0972C49.5198 38.8597 49.5854 38.5911 49.5909 38.3164C49.5019 36.5516 47.0613 35.8433 45.8344 35.1025C45.7833 35.0707 45.7315 35.0396 45.6818 35.0086C43.4373 33.6201 41.1906 32.2338 38.9426 30.8488C37.1883 29.769 35.4346 28.685 33.6817 27.5969C32.1407 26.6476 30.5555 25.65 28.712 26.1194C28.739 26.1132 28.7659 26.1098 28.7921 26.1049C28.4352 26.1602 28.0817 26.2416 27.7344 26.3487C27.693 26.3618 27.6516 26.377 27.6108 26.3949C27.1807 26.5137 26.132 27.1986 25.5368 27.57C24.6151 28.1479 23.6927 28.7182 22.7689 29.2926C20.8592 30.4822 18.9489 31.6704 17.0378 32.8572" fill="#CFD5F2"/>
</g>
<g opacity="0.71">
<path d="M15.9339 32.8578C13.5782 34.3215 11.1893 35.7666 8.93511 37.3732C7.45072 39.2021 10.0308 40.2902 11.295 41.0703C15.6322 43.7519 19.97 46.4307 24.3079 49.1068C25.7261 49.9836 26.7727 50.9992 28.3842 50.9992C29.7443 50.9992 30.7737 50.3668 31.9564 49.6322C33.7894 48.4916 35.5935 47.3076 37.4245 46.1705C40.7606 44.0951 44.2734 42.1826 47.4914 39.9346C47.2926 40.0672 47.5708 39.858 47.7269 39.7323C47.8118 39.6743 47.8919 39.606 47.9644 39.528C47.9741 39.5169 47.9844 39.5052 47.9941 39.4934C48.0935 39.3768 48.2778 39.0999 48.2875 39.0833L48.2896 39.0792C48.4083 38.8417 48.4739 38.5738 48.4794 38.299C48.3897 36.5309 45.947 35.8391 44.7222 35.0969C44.6711 35.0651 44.62 35.034 44.5696 35.003C42.3271 33.6159 40.0833 32.2309 37.8367 30.848C36.0823 29.7682 34.3287 28.685 32.5757 27.5969C31.0354 26.6482 29.4502 25.6506 27.6068 26.1201C27.6337 26.1138 27.6606 26.1104 27.6868 26.1056C27.3299 26.1608 26.9764 26.2423 26.6291 26.3493C26.5877 26.3624 26.5463 26.3776 26.5055 26.3955C26.0754 26.5143 25.0267 27.1992 24.4315 27.5706C23.5098 28.1485 22.5874 28.7181 21.6636 29.2932C19.7539 30.4828 17.8436 31.671 15.9325 32.8578" fill="#CBD2F1"/>
</g>
<g opacity="0.76">
<path d="M14.8292 32.8579C12.4735 34.3216 10.0847 35.7666 7.83047 37.3732C6.34607 39.2021 8.93168 40.2771 10.1958 41.0559C14.5337 43.7375 18.8709 46.4163 23.2088 49.0923C24.6269 49.9692 25.6681 50.9986 27.2795 50.9986C28.6396 50.9986 29.6621 50.3503 30.8455 49.615C32.6786 48.4751 34.4799 47.2876 36.3115 46.1505C39.6476 44.0751 43.1619 42.1654 46.3799 39.9174C46.1859 40.0465 46.4545 39.8428 46.6174 39.7123C46.7016 39.653 46.781 39.5853 46.8549 39.5087C46.8646 39.4976 46.8749 39.4866 46.8846 39.4741C46.984 39.3561 47.1677 39.0806 47.1773 39.0661L47.1787 39.062C47.3064 38.7886 47.3776 38.4924 47.3693 38.2818C47.2795 36.5102 44.8334 35.8343 43.612 35.0921C43.5609 35.0603 43.5098 35.0292 43.4594 34.9982C41.2204 33.6125 38.9786 32.2289 36.7341 30.8474C34.9797 29.7683 33.2261 28.685 31.4731 27.5962C29.9328 26.6469 28.3483 25.6492 26.5042 26.1187C26.5311 26.1125 26.558 26.109 26.5843 26.1042C26.2273 26.1588 25.8738 26.2402 25.5265 26.3479C25.4851 26.361 25.4437 26.3762 25.403 26.3942C24.9728 26.5129 23.9241 27.1978 23.3289 27.5693C22.4072 28.1472 21.4848 28.7168 20.5611 29.2919C18.6514 30.4815 16.741 31.6697 14.8299 32.8565" fill="#C8CFF0"/>
</g>
<g opacity="0.81">
<path d="M13.7251 32.8579C11.3694 34.3216 8.98052 35.7666 6.72631 37.3732C5.24192 39.2021 7.83305 40.2626 9.0972 41.0428C13.4351 43.7243 17.7723 46.4032 22.1102 49.0792C23.5283 49.956 24.5639 50.9993 26.1754 50.9993C27.5355 50.9993 28.5525 50.3344 29.7351 49.5998C31.5682 48.4592 33.3681 47.2696 35.1998 46.1318C38.5359 44.0564 42.0508 42.1495 45.2688 39.9015C45.079 40.0272 45.3386 39.8297 45.5077 39.6937C45.5913 39.6336 45.6707 39.5667 45.7452 39.4914C45.7542 39.481 45.7646 39.47 45.7749 39.4576C45.875 39.3381 46.058 39.064 46.0663 39.0495L46.0683 39.0454C46.1954 38.772 46.2665 38.4758 46.2582 38.2652C46.1685 36.4902 43.7202 35.8308 42.501 35.0872C42.4499 35.0562 42.3995 35.0244 42.3484 34.9933C40.1114 33.6097 37.8724 32.2275 35.6306 30.8467C33.8763 29.7676 32.1226 28.6843 30.3696 27.5962C28.8293 26.6469 27.2448 25.6492 25.4007 26.1187C25.4276 26.1125 25.4546 26.109 25.4808 26.1042C25.1239 26.1588 24.7704 26.2402 24.4231 26.3479C24.3817 26.361 24.3402 26.3762 24.2995 26.3942C23.8694 26.5129 22.8206 27.1978 22.2255 27.5693C21.3031 28.1472 20.3814 28.7168 19.4576 29.2919C17.5479 30.4815 15.6375 31.6697 13.7265 32.8565" fill="#C5CCEF"/>
</g>
<g opacity="0.86">
<path d="M12.6204 32.8579C10.2647 34.3216 7.87589 35.7666 5.62168 37.3732C4.13728 39.2021 6.73394 40.2495 7.9974 41.029C12.3353 43.7105 16.6732 46.3894 21.0104 49.0654C22.4292 49.9422 23.4586 50.9993 25.07 50.9993C26.4302 50.9993 27.4409 50.3178 28.6236 49.5832C30.4567 48.4427 32.2545 47.2496 34.0862 46.1118C37.4223 44.0364 40.9379 42.1322 44.1566 39.8842C43.9716 40.0065 44.2208 39.8152 44.3976 39.673C44.4804 39.6129 44.5598 39.5459 44.6344 39.4728C44.644 39.4624 44.6537 39.4514 44.6634 39.4389C44.7642 39.3181 44.9464 39.0454 44.9534 39.0323L44.9547 39.0281C45.0811 38.7547 45.1536 38.4592 45.1446 38.2486C45.0548 36.4694 42.6025 35.8274 41.3867 35.0831C41.3356 35.052 41.2852 35.0203 41.2348 34.9892C38.9999 33.6063 36.7629 32.2261 34.5239 30.8474C32.7696 29.7683 31.0159 28.6843 29.2629 27.5962C27.7226 26.6469 26.1381 25.6492 24.294 26.1187C24.3216 26.1125 24.3479 26.109 24.3741 26.1042C24.0171 26.1588 23.6637 26.2402 23.3164 26.3479C23.275 26.361 23.2335 26.3762 23.1928 26.3942C22.762 26.5129 21.7139 27.1978 21.1188 27.5693C20.1964 28.1472 19.2747 28.7168 18.3509 29.2919C16.4412 30.4815 14.5308 31.6697 12.6197 32.8565" fill="#C1C9EE"/>
</g>
<g opacity="0.9">
<path d="M11.5165 32.8578C9.16083 34.3215 6.77129 35.7666 4.51777 37.3732C3.03337 39.2021 5.63556 40.2356 6.89902 41.0151C11.2369 43.6967 15.5748 46.3755 19.9127 49.0516C21.3308 49.9284 22.3547 50.9985 23.9661 50.9985C25.3262 50.9985 26.3301 50.3005 27.5135 49.5659C29.3465 48.4254 31.143 47.2296 32.9747 46.0917C36.3108 44.017 39.8278 42.1149 43.0458 39.8676C42.8656 39.9871 43.1059 39.8007 43.2888 39.6536C43.371 39.5929 43.4504 39.5259 43.5256 39.4541C43.5346 39.4444 43.5443 39.4334 43.5546 39.4209C43.6561 39.2994 43.8363 39.0281 43.8432 39.0164L43.8453 39.0122C43.9716 38.7388 44.0435 38.4433 44.0352 38.2327C43.9454 36.4501 41.4903 35.8239 40.2765 35.0796C40.2254 35.0485 40.175 35.0175 40.1246 34.9857C37.8932 33.6049 35.6583 32.2261 33.4214 30.848C31.667 29.7689 29.9134 28.6856 28.1604 27.5975C26.6201 26.6482 25.0356 25.6506 23.1915 26.1201C23.2191 26.1138 23.2453 26.1104 23.2716 26.1056C22.9146 26.1601 22.5611 26.2416 22.2138 26.3493C22.1724 26.3624 22.131 26.3776 22.0903 26.3955C21.6594 26.5143 20.6114 27.1992 20.0163 27.5706C19.0939 28.1485 18.1721 28.7174 17.2484 29.2932C15.3387 30.4828 13.4283 31.671 11.5172 32.8578" fill="#BEC6ED"/>
</g>
<g opacity="0.95">
<path d="M10.4119 32.8578C8.05619 34.3215 5.66665 35.7666 3.41313 37.3732C1.92874 39.2021 4.53644 40.2218 5.7999 41.0013C10.1385 43.6829 15.7367 46.7773 20.0739 49.4534C24.0461 50.8115 21.2501 50.9992 22.8615 50.9992C24.2216 50.9992 25.22 50.2847 26.4019 49.5507C28.235 48.4102 30.0301 47.2116 31.8611 46.0731C35.1972 43.9977 38.7148 42.0991 41.9336 39.8518C41.7582 39.9684 41.9881 39.7875 42.1787 39.6343C42.2877 39.5494 42.3913 39.4617 42.4155 39.4361C42.4238 39.4265 42.4341 39.4154 42.4438 39.4037C42.546 39.2801 42.7255 39.0101 42.7317 38.9998L42.7331 38.9956C42.8594 38.7222 42.9312 38.4274 42.9229 38.2169C42.8332 36.4314 40.3753 35.8204 39.1636 35.0761C39.1132 35.0451 39.0628 35.014 39.0124 34.9822C36.7831 33.6028 34.5509 32.2247 32.3161 30.848C30.5624 29.7689 28.8087 28.6856 27.0551 27.5975C25.5148 26.6482 23.9303 25.6506 22.0868 26.1201C22.1145 26.1132 22.1414 26.1104 22.1669 26.1062C21.81 26.1608 21.4565 26.2423 21.1092 26.35C21.074 26.3596 21.0188 26.3817 20.9856 26.3955C20.5548 26.5143 19.5068 27.1999 18.9116 27.5699C17.9885 28.1485 17.0675 28.7174 16.1437 29.2939C14.234 30.4828 12.323 31.671 10.4119 32.8578Z" fill="#BAC3EC"/>
</g>
<path d="M41.8113 38.1997C41.7209 36.4101 39.2609 35.8164 38.052 35.0714C35.775 33.6623 33.4946 32.2545 31.2114 30.8481C29.4577 29.7697 27.7041 28.6864 25.9504 27.5983C24.4101 26.6483 22.8256 25.6507 20.9815 26.1208C21.0098 26.1139 21.036 26.1105 21.0615 26.1057C20.7046 26.1602 20.3511 26.2417 20.0038 26.3494C19.9624 26.3625 19.921 26.3784 19.8802 26.3963C19.4487 26.5144 18.4007 27.2 17.8062 27.5707C16.8838 28.1486 15.9621 28.7175 15.0384 29.2933C13.1293 30.4829 11.219 31.6711 9.30789 32.8579C6.9515 34.3223 4.56265 35.7674 2.30844 37.3733C1.33456 38.9744 3.68148 39.7925 4.79695 40.6758C9.27344 43.2773 13.7409 45.7608 18.0781 48.4375C19.4962 49.3136 22.3416 50.9993 22.3416 50.9993C22.3416 50.9993 24.1097 50.2682 25.2917 49.5343C27.1248 48.3937 28.9178 47.1917 30.7488 46.0539C34.0849 43.9792 37.6032 42.0833 40.8213 39.8346C40.5541 40.012 41.2473 39.4818 41.3046 39.4169C41.4164 39.2788 41.5214 39.1338 41.6201 38.9819C41.7464 38.7078 41.8196 38.4116 41.8113 38.1997Z" fill="#B7C0EB"/>
</g>
</g>
<path d="M22.3541 1L1 13.5012V38.4989L22.3541 51L43.7083 38.4989V13.5012L22.3541 1Z" fill="#E7EAFB"/>
<path d="M43.7082 38.4969L22.3541 51L1 38.4969L22.3541 25.9939L43.7082 38.4969Z" fill="url(#paint0_linear_561_19830)"/>
<path d="M43.7084 13.5037V38.4996L22.3542 51V26.004L43.7084 13.5037Z" fill="url(#paint1_linear_561_19830)"/>
<path d="M43.7082 13.4998L22.3541 26.0118L1 13.4998L22.3541 0.987793L43.7082 13.4998Z" fill="url(#paint2_linear_561_19830)"/>
<circle cx="22.5" cy="26.5" r="20.5" fill="url(#paint3_radial_561_19830)"/>
<defs>
<linearGradient id="paint0_linear_561_19830" x1="22.3541" y1="25.9939" x2="22.3541" y2="51" gradientUnits="userSpaceOnUse">
<stop stop-color="#C3C7E6"/>
<stop offset="0.53125" stop-color="#C3C7E6" stop-opacity="0"/>
</linearGradient>
<linearGradient id="paint1_linear_561_19830" x1="33.0313" y1="13.5037" x2="33.0313" y2="51" gradientUnits="userSpaceOnUse">
<stop stop-color="white"/>
<stop offset="1" stop-color="white" stop-opacity="0"/>
</linearGradient>
<linearGradient id="paint2_linear_561_19830" x1="22.3541" y1="0.987793" x2="22.3541" y2="26.0118" gradientUnits="userSpaceOnUse">
<stop stop-color="white" stop-opacity="0"/>
<stop offset="1" stop-color="white"/>
</linearGradient>
<radialGradient id="paint3_radial_561_19830" cx="0" cy="0" r="1" gradientUnits="userSpaceOnUse" gradientTransform="translate(22.5 26.5) rotate(90) scale(20.5)">
<stop offset="0.5" stop-color="#E7EAFB"/>
<stop offset="1" stop-color="#E7EAFB" stop-opacity="0"/>
</radialGradient>
<clipPath id="clip0_561_19830">
<rect width="64.2405" height="25" fill="white" transform="translate(0.911133 26)"/>
</clipPath>
</defs>
</svg>
