<svg width="60" height="61" viewBox="0 0 60 61" fill="none" xmlns="http://www.w3.org/2000/svg">
<path d="M33.4293 19.8602C32.3926 20.0208 31.1964 20.3892 30.4462 21.0142C30.8158 22.7808 32.4041 20.7266 33.551 21.0971C35.0082 20.9486 34.3898 19.5373 33.4293 19.8602Z" fill="#FFFF99"/>
<path fill-rule="evenodd" clip-rule="evenodd" d="M34.3514 20.8577C34.1988 21.0291 33.9388 21.1512 33.5605 21.1897L33.5411 21.1917L33.5225 21.1857C33.2656 21.1027 32.9756 21.1531 32.6654 21.2639C32.5114 21.3189 32.356 21.3874 32.2009 21.4585C32.1638 21.4754 32.1266 21.4926 32.0895 21.5098C31.9725 21.5638 31.8559 21.6177 31.7432 21.665C31.4517 21.7874 31.1544 21.8814 30.9008 21.8099C30.6322 21.7343 30.4503 21.4882 30.3551 21.0332L30.3436 20.9785L30.3866 20.9426C31.1543 20.3031 32.3665 19.9316 33.4074 19.7694C33.9341 19.5967 34.3799 19.8956 34.4865 20.2768C34.5406 20.4706 34.506 20.6841 34.3514 20.8577ZM34.3072 20.3269C34.2293 20.048 33.8895 19.8037 33.459 19.9484L33.4515 19.9509L33.4436 19.9521C32.4331 20.1087 31.2829 20.4625 30.5495 21.05C30.6406 21.4373 30.7896 21.5852 30.9512 21.6307C31.1352 21.6826 31.3759 21.6173 31.6711 21.4934C31.7805 21.4474 31.893 21.3955 32.0092 21.3418C32.0469 21.3244 32.0849 21.3068 32.1234 21.2892C32.2794 21.2178 32.4408 21.1465 32.6028 21.0886C32.918 20.976 33.2494 20.909 33.5604 21.0025C33.8995 20.9648 34.1031 20.8565 34.2124 20.7339C34.3217 20.6112 34.3456 20.4642 34.3072 20.3269Z" fill="#816647"/>
<path d="M32.5427 17.1177C31.494 17.085 30.2506 17.2272 29.3982 17.7036C29.4367 19.5081 31.3757 17.7809 32.4349 18.356C33.8945 18.478 33.5461 16.977 32.5427 17.1177Z" fill="#FFFF99"/>
<path fill-rule="evenodd" clip-rule="evenodd" d="M33.2656 18.2678C33.084 18.4082 32.806 18.4804 32.4272 18.4487L32.4077 18.4471L32.3905 18.4378C32.1532 18.309 31.8589 18.3052 31.5336 18.3571C31.3722 18.3829 31.2068 18.4217 31.0413 18.463C31.0017 18.4728 30.962 18.4829 30.9224 18.4929C30.7975 18.5245 30.6729 18.556 30.5535 18.5818C30.2444 18.6486 29.9349 18.6862 29.6987 18.5694C29.4487 18.4456 29.3151 18.1703 29.3051 17.7056L29.304 17.6497L29.3528 17.6224C30.225 17.1348 31.4848 16.9925 32.5378 17.0245C33.0873 16.9515 33.4706 17.3273 33.5052 17.7217C33.5228 17.9221 33.4494 18.1256 33.2656 18.2678ZM33.3197 17.738C33.2944 17.4494 33.0053 17.1468 32.5556 17.2099L32.5477 17.211L32.5398 17.2108C31.5176 17.1789 30.3221 17.3152 29.4931 17.7578C29.5115 18.1553 29.6307 18.328 29.7813 18.4025C29.9526 18.4873 30.2012 18.4675 30.5141 18.3999C30.6301 18.3748 30.7502 18.3444 30.8743 18.313C30.9145 18.3029 30.9552 18.2926 30.9962 18.2823C31.1627 18.2408 31.3345 18.2004 31.5043 18.1733C31.8348 18.1206 32.1729 18.1156 32.4614 18.2647C32.8017 18.2901 33.0218 18.221 33.1517 18.1206C33.2817 18.02 33.3322 17.88 33.3197 17.738Z" fill="#816647"/>
<path d="M35.5375 22.6376C34.505 22.8237 33.3182 23.2214 32.5836 23.8647C32.9966 25.6216 34.5339 23.529 35.6896 23.8712C37.1427 23.6869 36.4897 22.2912 35.5375 22.6376Z" fill="#FFFF99"/>
<path fill-rule="evenodd" clip-rule="evenodd" d="M36.4838 23.6122C36.3354 23.7873 36.0785 23.9157 35.7013 23.9635L35.682 23.966L35.6632 23.9604C35.4043 23.8838 35.1157 23.9413 34.8083 24.0597C34.6557 24.1185 34.5021 24.1908 34.3487 24.2657C34.3121 24.2835 34.2753 24.3016 34.2386 24.3197C34.123 24.3766 34.0078 24.4333 33.8963 24.4834C33.6079 24.6129 33.3129 24.7142 33.0576 24.649C32.7873 24.58 32.5994 24.3384 32.493 23.886L32.4802 23.8315L32.5223 23.7947C33.274 23.1364 34.4767 22.7351 35.5133 22.5474C36.0356 22.3618 36.4887 22.6496 36.6046 23.0281C36.6635 23.2205 36.6341 23.4349 36.4838 23.6122ZM36.4266 23.0826C36.3418 22.8057 35.9961 22.5698 35.5693 22.725L35.5618 22.7278L35.554 22.7292C34.5476 22.9106 33.4065 23.2926 32.6878 23.8979C32.7884 24.2829 32.941 24.4271 33.1037 24.4686C33.2889 24.5159 33.5279 24.4448 33.82 24.3136C33.9282 24.2649 34.0393 24.2103 34.1542 24.1537C34.1914 24.1354 34.2291 24.1169 34.2671 24.0984C34.4213 24.0231 34.5809 23.9478 34.7414 23.886C35.0537 23.7657 35.3834 23.6906 35.6966 23.7764C36.0347 23.7304 36.2356 23.6171 36.3418 23.4918C36.448 23.3664 36.4683 23.219 36.4266 23.0826Z" fill="#816647"/>
<path d="M37.371 26.0768C36.2928 25.6954 33.9962 27.5215 35.936 27.7572C36.5553 27.1202 37.5069 27.3599 38.3584 27.216C39.385 26.4417 38.0913 25.9052 37.371 26.0768Z" fill="#FFFF99"/>
<path fill-rule="evenodd" clip-rule="evenodd" d="M37.3759 25.9803C37.0818 25.8863 36.723 25.9369 36.3875 26.0578C36.0397 26.183 35.7011 26.3894 35.458 26.6178C35.3364 26.732 35.2359 26.8544 35.1709 26.9781C35.1061 27.1013 35.0729 27.2329 35.099 27.3603C35.1257 27.4905 35.2108 27.5997 35.3489 27.6817C35.485 27.7626 35.6754 27.8193 35.9247 27.8496L35.9705 27.8552L36.0027 27.8221C36.2893 27.5273 36.6549 27.4313 37.0684 27.3944C37.2311 27.3799 37.3977 27.3747 37.5687 27.3693C37.6158 27.3679 37.6632 27.3664 37.711 27.3647C37.9303 27.357 38.1546 27.3448 38.3739 27.3078L38.3963 27.304L38.4144 27.2903C38.6794 27.0905 38.8165 26.8902 38.8313 26.6942C38.8464 26.4936 38.7317 26.3319 38.5749 26.2167C38.4179 26.1014 38.2064 26.022 37.9904 25.982C37.7839 25.9437 37.5654 25.94 37.3759 25.9803ZM35.9026 27.659C36.2298 27.3434 36.636 27.2461 37.0518 27.209C37.2204 27.1939 37.3942 27.1885 37.5659 27.1832C37.6123 27.1817 37.6585 27.1803 37.7044 27.1787C37.9145 27.1713 38.1208 27.16 38.3203 27.1279C38.5548 26.9467 38.637 26.7943 38.6457 26.6802C38.6541 26.5679 38.593 26.461 38.4646 26.3667C38.3365 26.2726 38.1536 26.2016 37.9565 26.165C37.7597 26.1286 37.5573 26.1281 37.3925 26.1673L37.3658 26.1737L37.3399 26.1645C37.0997 26.0796 36.7784 26.1148 36.4506 26.2329C36.1252 26.3501 35.8088 26.5436 35.5855 26.7535C35.4738 26.8584 35.3882 26.9648 35.3356 27.0647C35.2829 27.1651 35.2669 27.2519 35.2814 27.3229C35.2954 27.3911 35.3406 27.4603 35.444 27.5217C35.5426 27.5803 35.6909 27.6295 35.9026 27.659Z" fill="#816647"/>
<path d="M40.4588 38.2041C39.0163 38.6649 40.4605 39.7216 41.3644 39.3944C42.0189 39.4025 42.687 39.3632 43.3247 39.4474C44.4269 38.8295 43.1005 37.934 42.3102 38.2041L40.4588 38.2041Z" fill="#FFFF99"/>
<path fill-rule="evenodd" clip-rule="evenodd" d="M43.8349 38.9646C43.8119 39.1735 43.6588 39.3668 43.3702 39.5286L43.3432 39.5437L43.3125 39.5397C42.8587 39.4798 42.392 39.4833 41.9186 39.487C41.7399 39.4883 41.5602 39.4897 41.3798 39.4877C41.1361 39.5713 40.8634 39.5636 40.6161 39.5015C40.3635 39.4381 40.128 39.3155 39.9674 39.162C39.8088 39.0103 39.7064 38.8093 39.7764 38.6008C39.8444 38.3985 40.0621 38.2331 40.4305 38.1154L40.4444 38.111L42.2952 38.111C42.5107 38.0415 42.7548 38.0499 42.9802 38.1073C43.211 38.1662 43.4308 38.2786 43.59 38.424C43.748 38.5684 43.8577 38.757 43.8349 38.9646ZM42.9342 38.2877C42.7283 38.2352 42.5164 38.232 42.3403 38.2921L42.3257 38.2971L40.4735 38.2971C40.1307 38.4091 39.9911 38.5464 39.9529 38.6601C39.9163 38.7692 39.9609 38.8982 40.0961 39.0275C40.2292 39.1548 40.4341 39.2639 40.6614 39.321C40.8885 39.378 41.1286 39.3808 41.3328 39.3069L41.3487 39.3011L41.3656 39.3013C41.543 39.3035 41.7231 39.3022 41.9045 39.3008C42.372 39.2972 42.8476 39.2936 43.3056 39.3511C43.5481 39.2088 43.6366 39.0644 43.6498 38.9443C43.6636 38.8187 43.599 38.6844 43.4644 38.5615C43.331 38.4396 43.1399 38.3401 42.9342 38.2877Z" fill="#816647"/>
<path d="M42.8529 43.7351C41.6203 43.1555 40.5689 45.1416 42.2594 44.9442C43.0909 44.7152 44.5272 45.3959 44.8663 44.3303C44.7428 43.356 43.4679 43.8851 42.8529 43.7351Z" fill="#FFFF99"/>
<path fill-rule="evenodd" clip-rule="evenodd" d="M42.8835 43.6467C42.2156 43.3386 41.5995 43.7219 41.3772 44.1537C41.2655 44.3707 41.2409 44.6259 41.393 44.8153C41.5433 45.0025 41.8365 45.0873 42.2702 45.0367L42.2772 45.0359L42.2841 45.034C42.4762 44.9811 42.7087 44.9796 42.9644 44.9945C43.0545 44.9997 43.1485 45.0071 43.2438 45.0146C43.4117 45.0278 43.5837 45.0414 43.7459 45.0441C44.0027 45.0483 44.257 45.0266 44.4716 44.9282C44.6914 44.8273 44.8625 44.6492 44.955 44.3585L44.9612 44.3389L44.9586 44.3186C44.9247 44.0511 44.8086 43.8745 44.6347 43.768C44.4668 43.6651 44.2563 43.6347 44.0458 43.6305C43.883 43.6272 43.7099 43.6397 43.5459 43.6516C43.4975 43.6551 43.4499 43.6585 43.4036 43.6615C43.1989 43.6746 43.0206 43.6782 42.8835 43.6467ZM42.2417 44.8526C42.4638 44.7929 42.7199 44.7938 42.9752 44.8086C43.0739 44.8144 43.1715 44.8221 43.2682 44.8298C43.4312 44.8427 43.5914 44.8553 43.749 44.8579C43.9977 44.862 44.218 44.8397 44.394 44.759C44.5602 44.6827 44.6931 44.5516 44.7711 44.3216C44.7404 44.1147 44.6528 43.9974 44.5374 43.9267C44.4123 43.8501 44.2425 43.8207 44.042 43.8166C43.8887 43.8136 43.7276 43.8252 43.5651 43.8369C43.5153 43.8405 43.4654 43.8441 43.4155 43.8473C43.2087 43.8605 43.0002 43.8668 42.8308 43.8255L42.8217 43.8233L42.8132 43.8193C42.252 43.5554 41.7306 43.8738 41.5427 44.2389C41.4488 44.4213 41.4504 44.5895 41.5382 44.6988C41.6272 44.8097 41.8346 44.8988 42.2417 44.8526Z" fill="#816647"/>
<path d="M40.4276 49.2706C38.7107 50.1063 41.9255 51.1047 41.8731 51.4409C42.2464 52.0408 42.2767 52.3013 42.5872 52.4598C43.9981 52.7626 43.3107 51.0694 42.6472 50.5952C42.0317 49.9704 41.3214 49.4221 40.4276 49.2706Z" fill="#FFFF99"/>
<path fill-rule="evenodd" clip-rule="evenodd" d="M40.4137 49.1738L40.4431 49.1788C41.3632 49.3348 42.0891 49.8972 42.7079 50.5243C42.8847 50.6526 43.0573 50.8558 43.1954 51.0804C43.3354 51.3082 43.4449 51.5659 43.4867 51.8027C43.5278 52.0358 43.5067 52.2729 43.3508 52.4287C43.1935 52.586 42.9312 52.6289 42.5676 52.5508L42.5556 52.5483L42.5448 52.5427C42.3672 52.4521 42.2707 52.3304 42.1732 52.1627C42.1375 52.1014 42.1029 52.0366 42.0646 51.9649C41.9956 51.8357 41.9147 51.6841 41.794 51.4901L41.7757 51.4608L41.7795 51.4366C41.7782 51.4344 41.7762 51.4315 41.7731 51.4276C41.76 51.4107 41.7361 51.3879 41.6988 51.3592C41.6247 51.3023 41.5151 51.2352 41.3813 51.1582C41.3182 51.1218 41.2502 51.0835 41.1791 51.0435C40.9538 50.9166 40.6981 50.7726 40.4737 50.6201C40.3256 50.5194 40.1875 50.4125 40.0779 50.3012C39.9692 50.1908 39.8822 50.0697 39.8467 49.9395C39.8097 49.8041 39.8305 49.6666 39.9229 49.5362C40.0123 49.4101 40.1656 49.2946 40.3868 49.1869L40.4137 49.1738ZM41.7816 51.4407C41.7816 51.4407 41.7816 51.4406 41.7815 51.4403C41.7816 51.4406 41.7817 51.4407 41.7816 51.4407ZM40.4415 49.3675C40.2498 49.4641 40.1357 49.5579 40.0748 49.6438C40.0142 49.7293 40.0041 49.8095 40.0262 49.8905C40.0498 49.9767 40.112 50.0706 40.2105 50.1706C40.3082 50.2698 40.4353 50.3688 40.5784 50.4661C40.7956 50.6138 41.0411 50.7521 41.2652 50.8782C41.3377 50.9191 41.408 50.9587 41.4743 50.9969C41.6078 51.0738 41.7272 51.1463 41.8122 51.2116C41.8544 51.2441 41.8926 51.278 41.92 51.3131C41.9393 51.338 41.9604 51.3726 41.9656 51.4136C42.0811 51.6009 42.1667 51.7609 42.2357 51.8897C42.2726 51.9587 42.3047 52.0187 42.3341 52.0691C42.4202 52.2171 42.4925 52.3043 42.6188 52.3714C42.9527 52.4409 43.1304 52.3859 43.2192 52.2971C43.3105 52.2058 43.3407 52.0467 43.3034 51.8351C43.2667 51.6272 43.1681 51.3915 43.0368 51.1779C42.9052 50.964 42.7457 50.78 42.593 50.6709L42.5865 50.6663L42.5808 50.6605C41.9768 50.0474 41.2925 49.5211 40.4415 49.3675Z" fill="#816647"/>
<path fill-rule="evenodd" clip-rule="evenodd" d="M42.2169 52.1301L42.2124 52.1122L42.393 52.0671L42.3975 52.085L42.2169 52.1301Z" fill="#816647"/>
<path d="M36.5299 55.2177C34.9637 55.7664 36.8881 56.7496 37.6396 56.9809C37.4192 57.9182 38.7507 59.2076 38.9866 57.7058C39.1202 56.2042 37.797 55.5033 36.5299 55.2177Z" fill="#FFFF99"/>
<path fill-rule="evenodd" clip-rule="evenodd" d="M36.5243 55.1211L36.5503 55.1269C37.1909 55.2713 37.8549 55.5224 38.3435 55.9346C38.8361 56.3503 39.1491 56.9293 39.0793 57.7141L39.079 57.7172L39.0785 57.7203C39.0181 58.1049 38.8829 58.3454 38.6865 58.4415C38.4864 58.5395 38.2661 58.4678 38.086 58.3324C37.9037 58.1953 37.7412 57.9791 37.6383 57.7372C37.5465 57.5215 37.499 57.2778 37.533 57.0442C37.141 56.9112 36.5206 56.6199 36.1532 56.2873C35.9611 56.1134 35.8086 55.9015 35.845 55.6772C35.882 55.4491 36.1032 55.2686 36.4991 55.1299L36.5243 55.1211ZM36.5356 55.3145C36.168 55.4477 36.0475 55.5919 36.0288 55.7071C36.009 55.8287 36.091 55.9799 36.2781 56.1493C36.6434 56.48 37.2981 56.7784 37.667 56.8919L37.7502 56.9175L37.7302 57.0022C37.6809 57.2122 37.7175 57.4479 37.8096 57.6644C37.9017 57.8809 38.0455 58.069 38.1979 58.1836C38.3526 58.3 38.4957 58.3277 38.6047 58.2743C38.7171 58.2193 38.8364 58.0585 38.8941 57.6945C38.9568 56.9792 38.6752 56.458 38.2235 56.0769C37.7735 55.6973 37.1535 55.4565 36.5356 55.3145Z" fill="#816647"/>
<path d="M21.7769 58.6065C21.106 59.0461 20.3494 59.2748 19.5809 59.2703C18.8123 59.2658 18.0577 59.0282 17.3906 58.5807C16.7234 58.1332 16.1662 57.491 15.7732 56.7164C15.3802 55.9418 15.1648 55.0612 15.1477 54.1601C15.1307 53.2589 15.3126 52.368 15.6759 51.5737C16.0393 50.7794 16.5716 50.1088 17.2212 49.6271C17.8708 49.1453 18.6156 48.8688 19.3832 48.8243C20.1509 48.7798 20.9153 48.9689 21.6022 49.3732" fill="#66CC33"/>
<path fill-rule="evenodd" clip-rule="evenodd" d="M21.5695 49.4287C20.8932 49.0306 20.1414 48.8449 19.3869 48.8886C18.6325 48.9323 17.8996 49.2041 17.2595 49.6788C16.6194 50.1536 16.0937 50.8153 15.7345 51.6005C15.3754 52.3857 15.1952 53.2671 15.2121 54.1588C15.229 55.0506 15.4423 55.9216 15.8307 56.6872C16.2191 57.4528 16.7692 58.0864 17.4264 58.5272C18.0836 58.968 18.8259 59.2014 19.5812 59.2058C20.3366 59.2103 21.0807 58.9856 21.7416 58.5526L21.8122 58.6604C21.1311 59.1066 20.3623 59.3393 19.5805 59.3347C18.7986 59.3301 18.0318 59.0885 17.3547 58.6342C16.6776 58.1801 16.1133 57.5292 15.7158 56.7455C15.3182 55.9619 15.1005 55.0717 15.0833 54.1613C15.066 53.2508 15.2499 52.3502 15.6173 51.5469C15.9848 50.7435 16.5237 50.064 17.1828 49.5753C17.8419 49.0865 18.5986 48.8052 19.3795 48.7599C20.1604 48.7147 20.9374 48.9071 21.6349 49.3177L21.5695 49.4287Z" fill="#015A01"/>
<path d="M18.0743 53.311C18.2162 52.1744 18.6944 51.1277 19.4382 50.3258C20.1819 49.5239 21.1518 49.0093 22.2045 48.8579C23.2571 48.7066 24.3367 48.9267 25.2836 49.4855C26.2304 50.0444 26.9944 50.9125 27.4626 51.9614C27.9307 53.0103 28.0782 54.1845 27.8832 55.3103C27.6882 56.4361 27.161 57.4538 26.3797 58.213C25.5984 58.9723 24.6043 59.4327 23.5444 59.5263C22.4845 59.6199 21.415 59.3417 20.494 58.7327" fill="#66CC33"/>
<path fill-rule="evenodd" clip-rule="evenodd" d="M22.2136 48.9217C21.176 49.0709 20.2194 49.5782 19.4854 50.3696C18.7512 51.1611 18.2785 52.195 18.1382 53.3189L18.0103 53.303C18.1538 52.1536 18.6375 51.0943 19.3909 50.282C20.1444 49.4696 21.1276 48.9476 22.1952 48.7941C23.2629 48.6407 24.3572 48.864 25.3163 49.43C26.2752 49.996 27.048 50.8745 27.5213 51.9351C27.9947 52.9957 28.1438 54.1828 27.9466 55.3213C27.7494 56.4598 27.2161 57.49 26.4246 58.2592C25.6329 59.0285 24.625 59.4955 23.55 59.5905C22.475 59.6854 21.3911 59.4031 20.4585 58.7865L20.5295 58.679C21.4388 59.2802 22.4939 59.5543 23.5387 59.4621C24.5834 59.3698 25.5638 58.916 26.3347 58.1668C27.1058 57.4175 27.6268 56.4124 27.8196 55.2993C28.0124 54.1861 27.8666 53.0249 27.4037 51.9876C26.9407 50.9503 26.1856 50.0928 25.2507 49.541C24.316 48.9893 23.2512 48.7725 22.2136 48.9217Z" fill="#015A01"/>
<path d="M21.4079 54.0372C20.9905 52.8608 21.062 51.6992 21.611 50.737C22.1601 49.7748 23.1552 49.0674 24.4382 48.727C25.7211 48.3867 27.2183 48.4331 28.6918 48.8588C30.1652 49.2845 31.5303 50.0651 32.57 51.0764C33.6098 52.0878 34.2645 53.2719 34.4301 54.4406C34.5957 55.6092 34.2628 56.6953 33.4841 57.5262C32.7055 58.3571 31.5259 58.8851 30.1328 59.0263C28.7397 59.1674 27.2131 58.9137 25.7957 58.3053" fill="#66CC33"/>
<path fill-rule="evenodd" clip-rule="evenodd" d="M32.5203 51.12C31.488 50.1159 30.1323 49.3406 28.6691 48.9179C27.2057 48.4951 25.7221 48.4501 24.4541 48.7864C23.1868 49.1226 22.209 49.8198 21.6702 50.7638C21.1313 51.7082 21.059 52.852 21.4719 54.0157L21.344 54.0588C20.922 52.8696 20.9927 51.6901 21.5519 50.7101C22.1113 49.7299 23.1236 49.0121 24.4223 48.6676C25.7202 48.3234 27.231 48.3711 28.7145 48.7997C30.1981 49.2283 31.5725 50.0142 32.6198 51.0329C33.6669 52.0514 34.329 53.2465 34.4968 54.4299C34.6646 55.6142 34.3273 56.7191 33.5342 57.5654C32.7416 58.4112 31.5441 58.9452 30.1372 59.0878C28.7304 59.2303 27.1918 58.9739 25.7652 58.3616L25.8263 58.249C27.2345 58.8534 28.749 59.1045 30.1284 58.9648C31.5077 58.825 32.6695 58.303 33.4341 57.487C34.1983 56.6716 34.5269 55.6042 34.3635 54.4513C34.2 53.2974 33.5527 52.1243 32.5203 51.12Z" fill="#015A01"/>
<path d="M24.0777 49.8705C24.3088 49.0884 24.8615 48.4436 25.679 48.0021C26.4966 47.5606 27.5496 47.3385 28.7299 47.3585C29.9101 47.3785 31.175 47.6399 32.3947 48.116C33.6143 48.592 34.7447 49.2654 35.6698 50.067C36.5948 50.8686 37.2811 51.7696 37.6582 52.6773C38.0352 53.585 38.0894 54.4668 37.8153 55.2319C37.5411 55.9971 36.9484 56.6182 36.0981 57.0313C35.2477 57.4444 34.1705 57.6346 32.9769 57.5825" fill="#66CC33"/>
<path fill-rule="evenodd" clip-rule="evenodd" d="M35.6292 50.1163C34.7102 49.3199 33.5864 48.6502 32.3731 48.1767C31.1598 47.7032 29.9023 47.4435 28.7303 47.4236C27.5579 47.4037 26.516 47.6245 25.7098 48.0598C24.9044 48.4947 24.3643 49.1273 24.1389 49.8906L24.0167 49.8504C24.2532 49.0495 24.8186 48.3924 25.6482 47.9444C26.4773 47.4967 27.5414 47.2732 28.7295 47.2934C29.9179 47.3135 31.1903 47.5767 32.4163 48.0552C33.6423 48.5337 34.7793 49.2108 35.7104 50.0177C36.6413 50.8245 37.3348 51.7336 37.7168 52.653C38.0989 53.573 38.156 54.4721 37.8752 55.2555C37.5945 56.0391 36.9887 56.6714 36.1265 57.0902C35.2649 57.5088 34.1769 57.7 32.9756 57.6476L32.9782 57.5174C34.164 57.5692 35.2306 57.38 36.0696 56.9723C36.9081 56.565 37.4877 55.9552 37.7553 55.2084C38.0229 54.4614 37.9715 53.5971 37.5995 52.7016C37.2274 51.8056 36.5483 50.9128 35.6292 50.1163Z" fill="#015A01"/>
<path d="M27.5546 52.1954C26.581 51.3141 25.9846 50.3268 25.8438 49.3635C25.703 48.4002 26.0243 47.5059 26.7655 46.7982C27.5068 46.0904 28.6332 45.6024 29.9968 45.3982C31.3604 45.194 32.8973 45.2833 34.4054 45.6542C35.9135 46.0252 37.3223 46.6604 38.4465 47.4765C39.5707 48.2926 40.3577 49.2513 40.7041 50.2265C41.0504 51.2018 40.9399 52.1479 40.387 52.9406C39.8342 53.7333 38.8649 54.3354 37.6065 54.6678" fill="#66CC33"/>
<path fill-rule="evenodd" clip-rule="evenodd" d="M34.3915 45.7171C32.8905 45.348 31.362 45.2595 30.0075 45.4623C28.6524 45.6652 27.5393 46.1494 26.8101 46.8457C26.0825 47.5404 25.7697 48.4145 25.9072 49.3554C26.0451 50.2989 26.6307 51.273 27.5968 52.1476L27.5123 52.2432C26.5313 51.3551 25.9241 50.3548 25.7803 49.3717C25.6362 48.3859 25.9661 47.4714 26.721 46.7507C27.4742 46.0315 28.614 45.5396 29.9861 45.3341C31.3588 45.1286 32.9041 45.2186 34.4193 45.5913C35.9346 45.964 37.3513 46.6025 38.4832 47.4242C39.6146 48.2455 40.4122 49.2141 40.7644 50.2058C41.1173 51.1997 41.0051 52.168 40.4397 52.9786C39.8758 53.7872 38.8916 54.3956 37.624 54.7305L37.5891 54.6051C38.8381 54.2752 39.7925 53.6795 40.3344 52.9026C40.8747 52.1279 40.9835 51.2038 40.6437 50.2472C40.3032 49.2884 39.5268 48.3397 38.4098 47.5288C37.2933 46.7183 35.8924 46.0863 34.3915 45.7171Z" fill="#015A01"/>
<path d="M27.1963 47.2413C26.9752 46.3851 27.0875 45.5055 27.5225 44.6862C27.9575 43.8669 28.7008 43.1351 29.6817 42.5601C30.6627 41.9852 31.8488 41.5864 33.1273 41.4014C34.4058 41.2165 35.7343 41.2516 36.9866 41.5035C38.2389 41.7553 39.3735 42.2156 40.2824 42.8405C41.1914 43.4654 41.8447 44.2342 42.1801 45.0738C42.5156 45.9135 42.5221 46.7962 42.1991 47.638C41.8761 48.4798 41.2343 49.2529 40.3347 49.8837" fill="#66CC33"/>
<path fill-rule="evenodd" clip-rule="evenodd" d="M36.9739 41.5666C35.7289 41.3162 34.4078 41.2813 33.1365 41.4652C31.8651 41.6491 30.6872 42.0456 29.7143 42.6157C28.7413 43.186 28.0076 43.9098 27.5794 44.7164C27.1515 45.5223 27.0418 46.3853 27.2587 47.2251L27.1339 47.2574C26.9086 46.3847 27.0234 45.4887 27.4656 44.656C27.9073 43.824 28.6602 43.0841 29.6491 42.5045C30.6382 41.9249 31.8324 41.5236 33.1181 41.3376C34.4038 41.1516 35.7397 41.187 36.9993 41.4403C38.2588 41.6936 39.4017 42.1568 40.3189 42.7874C41.2361 43.4179 41.8988 44.196 42.24 45.0499C42.5814 45.9046 42.5881 46.8041 42.2593 47.6611C41.9308 48.5173 41.2795 49.2999 40.3716 49.9364L40.2977 49.8309C41.1891 49.2058 41.8215 48.4424 42.139 47.6149C42.4561 46.7883 42.4497 45.9224 42.1203 45.0977C41.7905 44.2723 41.1467 43.5128 40.2459 42.8936C39.3452 42.2743 38.219 41.8171 36.9739 41.5666Z" fill="#015A01"/>
<path d="M31.908 47.7358C30.5572 47.4002 29.4092 46.8469 28.606 46.1445C27.8029 45.442 27.3798 44.6212 27.3892 43.7835C27.3986 42.9459 27.84 42.1282 28.6588 41.4316C29.4777 40.735 30.638 40.1901 31.9962 39.8643C33.3544 39.5385 34.851 39.4461 36.3006 39.5986C37.7503 39.751 39.0895 40.1417 40.1525 40.7221C41.2155 41.3025 41.9557 42.0473 42.2815 42.8642C42.6072 43.6812 42.5043 44.5345 41.9854 45.3186" fill="#66CC33"/>
<path fill-rule="evenodd" clip-rule="evenodd" d="M36.2939 39.6627C34.8512 39.5109 33.362 39.6029 32.0112 39.9269C30.66 40.2511 29.5097 40.7923 28.7006 41.4806C27.8916 42.1688 27.4627 42.9702 27.4536 43.7842C27.4445 44.5981 27.8553 45.4022 28.6484 46.096C29.4419 46.7899 30.5797 47.3394 31.9235 47.6732L31.8925 47.7983C30.5346 47.461 29.3765 46.9039 28.5636 46.193C27.7504 45.4818 27.3151 44.6442 27.3247 43.7828C27.3344 42.9215 27.7883 42.0875 28.6171 41.3825C29.4456 40.6777 30.6159 40.1291 31.9811 39.8016C33.3468 39.4741 34.8507 39.3813 36.3074 39.5345C37.7638 39.6877 39.1115 40.0803 40.1834 40.6655C41.2546 41.2504 42.0082 42.005 42.3413 42.8404C42.6755 43.6785 42.5687 44.5539 42.0391 45.3541L41.9316 45.283C42.4399 44.5151 42.5389 43.6839 42.2216 42.8881C41.9032 42.0895 41.1764 41.3545 40.1216 40.7786C39.0674 40.203 37.7368 39.8144 36.2939 39.6627Z" fill="#015A01"/>
<path d="M40.9767 41.6852C41.6838 40.395 41.2133 39.2002 39.8848 38.1814C40.755 35.6545 38.6456 29.569 34.8685 25.0342C34.6708 24.7969 34.3969 24.6068 34.063 24.4615C33.1769 21.2504 30.3187 20.3746 27.7803 21.0829C24.3734 22.0336 21.3767 22.9569 21.3767 25.2714C21.3767 26.4794 22.1584 27.5674 23.4084 28.3322C23.3639 28.4297 23.3233 28.5273 23.2876 28.6275C22.3596 32.6085 25.5934 37.9858 27.0151 39.6178C27.0358 39.6416 27.057 39.662 27.0777 39.685C26.2795 41.6059 28.0243 43.6267 31.3378 44.406" fill="#66CC33"/>
<path fill-rule="evenodd" clip-rule="evenodd" d="M34.1169 24.4148C33.6658 22.809 32.7221 21.7809 31.5684 21.244C30.4095 20.7046 29.0442 20.6633 27.763 21.0208L27.778 21.0746L27.763 21.0208C26.0611 21.4957 24.4527 21.966 23.2701 22.6091C22.0867 23.2526 21.3123 24.0791 21.3123 25.2714C21.3123 26.4937 22.0929 27.587 23.3265 28.3573C23.2904 28.439 23.2569 28.5214 23.2268 28.6059L23.2256 28.6093L23.2248 28.6129C22.7561 30.6235 23.339 32.9788 24.2109 35.0288C25.0834 37.0802 26.2507 38.8385 26.9665 39.6601C26.9779 39.6733 26.9893 39.6853 26.9999 39.6963C27.0007 39.6972 27.0016 39.6981 27.0025 39.699C26.6143 40.6743 26.864 41.6703 27.6178 42.5164C28.3798 43.372 29.6579 44.0771 31.3231 44.4687L31.3526 44.3432C29.7043 43.9556 28.4532 43.2606 27.714 42.4307C26.9764 41.6027 26.7494 40.643 27.1372 39.7097L27.1529 39.672L27.1255 39.6417C27.1157 39.6309 27.1058 39.6205 27.0966 39.611L27.0929 39.6071C27.0825 39.5962 27.0729 39.5861 27.0637 39.5755C26.3578 38.7651 25.1973 37.0188 24.3295 34.9783C23.4616 32.9376 22.8917 30.6153 23.3495 28.6457C23.3841 28.5488 23.4236 28.454 23.467 28.3589L23.4907 28.307L23.442 28.2772C22.2035 27.5194 21.4411 26.4492 21.4411 25.2714C21.4411 24.1491 22.165 23.3567 23.3317 22.7223C24.4991 22.0875 26.0925 21.6207 27.7976 21.1449C29.0548 20.7942 30.3878 20.8367 31.5141 21.3608C32.6386 21.8842 33.5626 22.8902 34.0009 24.4786L34.0091 24.5082L34.0373 24.5205C34.3644 24.663 34.6292 24.8476 34.819 25.0755C36.7026 27.3369 38.1707 29.9856 39.059 32.3831C39.5031 33.5819 39.8018 34.7165 39.9354 35.7074C40.0692 36.6995 40.0367 37.5422 39.8239 38.1604L39.8087 38.2042L39.8456 38.2325C40.5039 38.7373 40.9431 39.281 41.1329 39.8518C41.322 40.4203 41.2661 41.0231 40.9201 41.6542L41.0332 41.7162C41.3944 41.0571 41.4568 40.4173 41.2552 39.8112C41.0581 39.2183 40.6109 38.6647 39.9604 38.1584C40.1692 37.518 40.1951 36.6689 40.0631 35.6902C39.928 34.6877 39.6264 33.5437 39.1798 32.3384C38.2867 29.9278 36.8115 27.2662 34.918 24.993C34.718 24.7529 34.445 24.5616 34.1169 24.4148Z" fill="#015A01"/>
<path d="M21.6806 24.238C20.9141 23.7514 20.3587 23.1157 20.0709 22.3955C19.7832 21.6754 19.7734 20.8967 20.0427 20.139C20.312 19.3812 20.8506 18.6715 21.6036 18.0822C22.3566 17.493 23.2971 17.0453 24.329 16.7849C25.361 16.5244 26.4474 16.4606 27.4775 16.5998C28.5076 16.739 29.4444 17.0764 30.1925 17.5774C30.9405 18.0784 31.4729 18.7251 31.7353 19.4517C31.9978 20.1782 31.9809 20.9584 31.6864 21.7127" fill="#66CC33"/>
<path fill-rule="evenodd" clip-rule="evenodd" d="M27.4688 16.6636C26.447 16.5255 25.3689 16.5889 24.3447 16.8473C23.3205 17.1058 22.3884 17.5499 21.6432 18.133C20.898 18.7161 20.3678 19.4163 20.1033 20.1605C19.8391 20.9041 19.849 21.6666 20.1307 22.3716C20.4126 23.0771 20.958 23.703 21.7151 24.1836L21.646 24.2924C20.8701 23.7998 20.3046 23.1542 20.011 22.4194C19.7172 21.6842 19.7076 20.8893 19.9819 20.1174C20.256 19.3461 20.803 18.6268 21.5638 18.0315C22.3247 17.4361 23.2735 16.9848 24.3132 16.7224C25.3529 16.46 26.4476 16.3956 27.486 16.5359C28.5244 16.6763 29.4709 17.0165 30.2282 17.5238C30.9857 18.0312 31.528 18.6883 31.7959 19.4297C32.0639 20.1717 32.0462 20.968 31.7463 21.7362L31.6263 21.6893C31.9154 20.9487 31.9315 20.1846 31.6746 19.4735C31.4176 18.762 30.8951 18.1256 30.1565 17.6309C29.4178 17.1361 28.4906 16.8017 27.4688 16.6636Z" fill="#015A01"/>
<path d="M20.5891 19.4721C19.8694 18.8682 19.3882 18.1331 19.1971 17.3454C19.006 16.5577 19.1122 15.7469 19.5042 14.9998C19.8962 14.2526 20.5594 13.5971 21.4229 13.1032C22.2864 12.6094 23.3177 12.2957 24.4068 12.1958C25.4959 12.0958 26.6018 12.2134 27.6063 12.5358C28.6108 12.8583 29.4763 13.3735 30.1103 14.0265C30.7442 14.6795 31.1229 15.4458 31.2057 16.2434C31.2886 17.0411 31.0725 17.8401 30.5807 18.5552" fill="#66CC33"/>
<path fill-rule="evenodd" clip-rule="evenodd" d="M27.5866 12.5971C26.5906 12.2774 25.4934 12.1607 24.4127 12.2599C23.3319 12.3591 22.3096 12.6703 21.4548 13.1591C20.6001 13.648 19.9466 14.2952 19.5612 15.0297C19.1762 15.7636 19.0725 16.5584 19.2597 17.3302C19.4471 18.1025 19.9195 18.8262 20.6305 19.4227L20.5477 19.5214C19.8191 18.9101 19.3293 18.1637 19.1345 17.3605C18.9396 16.557 19.0482 15.7302 19.4471 14.9698C19.8458 14.21 20.5187 13.5461 21.3909 13.0473C22.2631 12.5484 23.3036 12.2323 24.4009 12.1316C25.4983 12.0309 26.6129 12.1492 27.626 12.4744C28.639 12.7996 29.5141 13.3199 30.1565 13.9816C30.7991 14.6436 31.1852 15.4228 31.2698 16.2368C31.3544 17.0509 31.1335 17.8651 30.6337 18.5917L30.5276 18.5187C31.0115 17.8151 31.2227 17.0312 31.1416 16.2501C31.0604 15.4687 30.6893 14.7155 30.064 14.0714C29.4385 13.4271 28.5827 12.9169 27.5866 12.5971Z" fill="#015A01"/>
<path d="M23.1358 17.0841C21.9843 16.7169 21.0141 16.0932 20.3586 15.2987C19.7031 14.5042 19.3946 13.578 19.4754 12.6476C19.5563 11.7172 20.0225 10.8283 20.8101 10.1033C21.5976 9.37829 22.6677 8.85275 23.8731 8.59903C25.0784 8.34532 26.3598 8.37589 27.5409 8.68654C28.7219 8.9972 29.7446 9.57267 30.4682 10.3338C31.1917 11.0948 31.5805 12.0041 31.5812 12.9365C31.5818 13.8688 31.1941 14.7784 30.4716 15.54" fill="#66CC33"/>
<path fill-rule="evenodd" clip-rule="evenodd" d="M27.5245 8.74885C26.3532 8.44076 25.082 8.4104 23.8863 8.66207C22.6906 8.91377 21.6315 9.43466 20.8537 10.1507C20.0761 10.8666 19.6188 11.7412 19.5396 12.6532C19.4604 13.565 19.7623 14.4747 20.4083 15.2577C21.0547 16.0411 22.0136 16.6586 23.1553 17.0227L23.1162 17.1455C21.955 16.7752 20.9736 16.1453 20.3089 15.3397C19.6439 14.5336 19.3287 13.5911 19.4112 12.642C19.4936 11.6933 19.9689 10.7901 20.7664 10.0559C21.5637 9.32189 22.6448 8.7917 23.8598 8.53596C25.0749 8.2802 26.3664 8.31098 27.5573 8.62421C28.748 8.93741 29.7818 9.51826 30.5148 10.2893C31.2482 11.0608 31.6449 11.9854 31.6456 12.9364C31.6462 13.8874 31.2507 14.8124 30.5184 15.5843L30.4249 15.4956C31.1376 14.7444 31.5173 13.8502 31.5167 12.9365C31.5161 12.0228 31.1352 11.1289 30.4214 10.3781C29.7074 9.62706 28.6959 9.05696 27.5245 8.74885Z" fill="#015A01"/>
<path d="M24.0931 14.3476C22.8587 13.5866 21.9765 12.4434 21.5842 11.0962C21.1918 9.749 21.3113 8.27365 21.924 6.90031C22.5368 5.52697 23.6083 4.33288 24.9714 3.50434C26.3345 2.6758 27.9125 2.25941 29.4593 2.32013C31.0061 2.38086 32.4346 2.91528 33.522 3.84002C34.6093 4.76477 35.2944 6.02782 35.4703 7.43212C35.6462 8.83642 35.303 10.303 34.4944 11.603C33.6857 12.9031 32.4569 13.9634 30.9998 14.6187" fill="#66CC33"/>
<path fill-rule="evenodd" clip-rule="evenodd" d="M29.4568 2.3845C27.9231 2.32429 26.3575 2.73721 25.0049 3.55938C23.6523 4.38156 22.59 5.56591 21.9829 6.92655C21.3759 8.28703 21.2583 9.74671 21.6461 11.0782C22.0338 12.4095 22.9056 13.5398 24.1269 14.2927L24.0593 14.4024C22.8118 13.6334 21.9193 12.4773 21.5223 11.1142C21.1254 9.75126 21.2467 8.26023 21.8652 6.87403C22.4836 5.48799 23.5644 4.28416 24.9379 3.44926C26.3115 2.61435 27.902 2.19449 29.4619 2.25573C31.0217 2.31697 32.4644 2.85602 33.5637 3.79092C34.6632 4.726 35.3563 6.00365 35.5343 7.42409C35.7122 8.84429 35.3649 10.3256 34.5491 11.637C33.7333 12.9484 32.4945 14.0172 31.0263 14.6775L30.9734 14.5599C32.4194 13.9097 33.638 12.8576 34.4397 11.569C35.2412 10.2804 35.5803 8.82852 35.4064 7.44011C35.2325 6.05194 34.5554 4.8035 33.4802 3.88909C32.4048 2.9745 30.9904 2.44471 29.4568 2.3845Z" fill="#015A01"/>
<path d="M28.0866 2.45569C26.7135 2.63555 25.3895 3.17322 24.2784 3.99953C24.5516 4.77663 24.915 5.44661 24.8564 6.32547C25.3157 6.58044 25.3755 6.38206 25.5045 6.97093C25.0971 7.07125 26.4087 7.26805 26.7439 7.2089C27.7 6.73344 26.8902 5.42208 27.1513 4.59027C27.0652 3.6494 27.4623 3.20465 28.0866 2.45569ZM27.2185 3.72656C27.3718 3.72991 27.1381 3.86279 27.2185 3.72656ZM23.1636 5.01142C22.1138 6.10467 21.4509 7.56685 21.3334 9.07914C21.7464 9.57798 22.0826 10.1254 23.101 10.0278C24.0561 9.98223 24.9717 11.0392 25.9338 10.3085C25.9754 9.51377 25.0539 8.80449 24.3425 8.50687C23.538 8.09909 23.6474 7.17988 23.4995 6.68387C23.1657 6.11566 23.4095 6.34614 23.1995 5.61102C23.1682 5.41286 23.1602 5.21169 23.1637 5.01138L23.1636 5.01142ZM20.246 10.7439C19.3461 11.7613 19.1575 13.34 19.7627 14.5521C19.1339 15.435 18.7744 16.707 19.2872 17.7179C19.9337 18.4158 20.4437 19.116 21.0681 19.79C21.4513 20.105 23.2975 19.8888 22.7727 19.0909C23.0422 18.3659 23.6342 18.7432 24.2958 18.678C24.2301 18.1611 23.3184 17.0848 24.0184 17.0939C23.6232 17.0591 23.2411 17.1618 22.7801 17.0446C22.6077 17.1323 21.9056 17.3397 21.5303 17.5772C21.3209 17.2519 20.821 16.9053 20.4877 16.5883C20.9588 16.0715 21.4233 15.7401 21.8749 14.9236C21.7693 14.1027 21.9799 13.1417 21.5062 12.3534C21.1795 11.7593 20.7962 11.1431 20.246 10.744L20.246 10.7439ZM21.8122 12.9456C22.0093 13.0365 21.6203 13.0995 21.8122 12.9456ZM24.2735 13.0395C23.6808 13.6793 23.2612 12.9921 22.5909 13.5497C22.0407 14.0382 21.9986 14.9024 22.648 15.2983C22.9503 15.4806 23.2539 16.2664 23.5396 15.6574C23.8007 15.6419 23.9937 15.603 24.4614 15.192C25.0663 14.9952 25.7157 14.5067 25.0521 14.3194C24.9233 14.5105 24.9275 14.171 24.7344 14.0285C24.5666 14.2037 24.656 13.1918 24.2735 13.0395ZM24.9939 14.1673C25.2284 14.258 24.6514 14.4905 24.9939 14.1673ZM24.1034 15.6888C24.5676 15.9143 25.386 15.6867 24.4324 15.7101C24.3221 15.7252 24.2131 15.6971 24.1034 15.6888ZM25.0118 15.7246C25.1529 15.7717 24.9675 15.9695 25.0118 15.7246ZM20.8411 16.8343C20.956 16.8485 20.7778 16.9016 20.8411 16.8343ZM24.0945 17.0939C24.2404 17.0938 23.9029 17.2043 24.0945 17.0939ZM24.1258 17.1028C24.221 17.1249 24.084 17.1502 24.1258 17.1028ZM23.11 18.6602C23.1704 18.7449 23.0131 18.6758 23.11 18.6602ZM23.4008 18.6915C23.7523 18.7133 23.1474 18.9451 23.4008 18.6915ZM20.519 20.1906C19.2684 20.3606 19.7033 22.5352 20.7278 22.6735C21.1475 23.3648 22.1985 23.6929 22.5551 24.5089C23.502 24.815 24.2345 23.9212 24.0766 23.0187C24.7266 23.1143 25.767 22.5106 25.5937 21.6538C24.7059 21.6372 23.9004 21.46 23.0909 21.8591C21.9083 22.0595 21.1589 20.9733 20.519 20.1905L20.519 20.1906ZM23.8707 21.3048C24.0155 21.415 23.6998 21.5322 23.8707 21.3048ZM23.8125 21.4167C23.7351 21.1779 23.5975 21.6839 23.8125 21.4167ZM24.0094 21.3048C24.4237 21.3734 23.775 21.4477 24.0094 21.3048ZM24.0721 21.4301C24.3453 21.4812 23.9592 21.5432 24.0721 21.4301ZM25.7367 21.7479C25.9452 22.0416 25.5818 21.9096 25.7367 21.7479ZM25.8799 24.9072C26.1794 25.077 25.801 25.0949 25.8799 24.9072ZM21.3513 24.943C21.1183 26.383 22.1736 27.6908 23.3381 28.4021C22.7968 29.5164 25.189 28.7439 25.0152 27.8489C24.7532 27.5209 24.7475 27.2217 24.5195 26.9388C25.2892 26.9555 25.9097 26.885 26.7033 26.375C27.4883 26.3391 26.0012 24.9581 25.6184 25.0742C25.0608 25.5732 24.2109 25.3104 23.629 25.9275C22.9675 25.439 22.1566 25.0921 21.3513 24.943ZM25.1192 26.9702C25.3538 27.1038 24.9691 27.0328 25.1192 26.9702ZM25.061 27.5832C25.2913 27.6722 24.6231 27.773 25.061 27.5832Z" fill="url(#paint0_linear_844_10584)"/>
<path d="M30.3869 39.7614C29.9495 39.9878 28.7673 40.0372 28.8147 40.3223C29.3139 40.5483 28.0906 40.4942 28.588 40.2089C28.1372 40.4791 28.2614 40.1266 28.0689 40.5445C27.7455 40.5008 27.9357 39.9056 27.3814 40.3402C26.4705 40.8073 27.1054 41.8403 27.5789 42.3949C27.7773 42.8515 28.7523 41.9033 28.8475 42.7328C29.4446 42.5482 30.0233 42.571 30.7001 42.3211C31.2581 42.2784 31.6377 43.1333 31.8591 42.7641C32.3967 42.6848 32.1981 43.2917 32.5532 42.7828C32.9422 42.2555 33.3642 41.1744 32.9147 41.2151C32.7127 41.0617 32.5949 40.5129 32.9153 40.992C33.2358 40.7894 32.926 40.6571 33.4253 40.6576C33.768 40.3235 32.6284 40.8464 33.139 40.4729C32.4735 40.5323 33.7057 40.1333 32.789 40.209C32.1742 40.0978 30.8285 40.2981 30.6765 40.0662C31.1684 39.7429 30.3277 40.2114 30.3869 39.7614ZM28.1405 40.2715C28.112 40.0782 27.9333 40.2276 28.1405 40.2715ZM31 39.8733C31.2725 40.1234 30.5871 40.1792 31 39.8733ZM28.3821 40.1149C28.6399 40.3135 27.9674 40.2647 28.3821 40.1149ZM28.0465 40.2671C28.4445 40.5681 27.7789 40.3704 28.0465 40.2671ZM27.9212 40.3073C27.9923 40.4564 27.8578 40.3936 27.9212 40.3073ZM33.1166 41.0725C33.3075 41.204 32.8655 41.153 33.1166 41.0725ZM33.1748 41.9989C33.2971 42.3076 33.4194 42.6164 33.5418 42.9252C33.4517 42.607 33.4182 42.2471 33.1748 41.9989ZM28.2792 44.0529C27.8865 44.4284 27.2829 44.6542 27.2065 45.2611C26.8313 45.9523 27.2609 46.8146 27.8833 46.9522C28.1961 47.6665 29.1883 47.5232 29.559 48.1683C30.3707 48.3656 31.5445 48.2035 31.628 47.1811C32.076 45.967 32.6004 47.9044 33.3314 47.9086C33.6982 47.7953 33.8773 47.7552 34.1216 48.0037C34.3618 47.8084 34.7747 47.9129 35.0588 47.5612C35.2382 47.4592 35.4739 46.8071 34.9478 46.592C34.4977 46.236 34.1142 44.933 33.5125 45.7286C33.3498 45.4985 32.7125 45.2381 32.783 45.6991C32.3409 46.0594 31.9911 45.7004 32.3514 45.3327C31.46 45.4635 30.6353 45.289 29.7464 45.3032C29.3386 45.4151 28.6784 45.3985 29.2413 44.9703C28.984 44.5991 28.4315 44.4954 28.2792 44.0529ZM29.6038 45.0284C30.1519 45.2388 28.8144 45.2003 29.6038 45.0284ZM33.4121 45.3864C33.7206 45.512 33.2741 45.5536 33.4121 45.3864ZM33.5732 45.4849C33.7974 45.5269 33.4081 45.7835 33.5732 45.4849ZM27.8362 47.0376C27.9526 47.2152 27.6173 47.131 27.8362 47.0376ZM35.4434 47.2077C35.8075 47.3361 35.4955 47.4304 35.4434 47.2077ZM26.0682 47.7044C25.4641 48.1148 24.5268 48.437 24.2156 49.0514C24.6148 49.6125 24.9496 50.2209 25.1499 50.8146C25.4261 50.925 26.0633 51.7031 25.9116 51.347C25.7219 51.0943 26.6839 51.8236 26.102 51.498C25.8425 51.911 26.616 52.5968 27.0638 51.9972C27.3145 51.807 27.9294 51.4845 27.4555 52.0003C26.9974 53.0628 28.3308 53.7806 29.0843 53.7366C28.9662 54.1117 30.0637 53.9855 29.8406 53.4547C30.5689 53.9166 30.5876 52.5181 30.7451 52.0461C30.8225 51.7161 30.8999 51.3861 30.9773 51.0561C30.8365 51.2445 30.2967 51.0809 30.3071 51.1927C29.94 50.8868 29.303 51.4487 29.0664 51.1814C28.55 51.0667 28.3919 50.6218 28.3415 50.2148C27.7389 50.257 28.0662 50.2609 28.2242 49.8788C27.7873 49.8553 27.1941 49.7478 27.3204 49.3501C26.4717 49.0035 27.156 48.2282 26.5151 47.7653C26.3713 47.717 26.2184 47.708 26.0682 47.7043L26.0682 47.7044ZM22.721 48.662C22.0815 48.5879 22.1616 49.1063 21.7365 48.8813C20.9809 49.309 20.2375 48.6765 19.4344 48.7781C17.2654 48.7969 15.6326 50.9437 15.2752 52.9781C14.7298 54.0021 15.6726 52.9426 16.2903 52.8143C16.1285 51.9065 17.4501 50.9392 17.4514 51.7737C17.26 52.1428 17.4932 54.4466 18.149 54.9312C18.5697 55.4829 19.33 55.4849 19.4018 54.6804C19.6225 54.0892 20.1507 53.6149 20.3716 53.3294C19.8727 53.5933 20.0896 52.8155 19.785 52.6432C20.2867 52.1786 19.5253 50.7468 19.857 50.367C19.9976 50.4282 21.2873 49.6045 21.2025 50.6476C21.2889 50.9122 20.5982 51.0302 21.0518 51.2754C20.4818 51.6226 21.309 51.6765 20.7968 51.9824C21.0389 52.3843 21.2441 52.7144 20.9579 53.1011C21.3562 53.3155 20.895 53.4701 21.1414 53.835C21.2737 54.1274 21.6062 53.8929 21.2443 54.2378C21.143 54.8625 22.1688 55.0813 21.9349 55.6217C22.5689 55.8553 23.2194 56.7331 23.5463 55.7092C23.8732 55.2147 24.2154 54.7297 24.5468 54.2378C24.2926 54.3623 24.0274 54.0879 23.7726 53.9917C24.0096 53.4377 23.2093 53.1974 23.446 52.6C23.5968 52.1848 23.227 51.4844 23.55 51.4504C23.2794 51.2354 23.7246 51.4987 23.5176 51.1277C23.8022 50.9924 23.4207 50.5967 23.9337 50.5997C23.5784 50.0404 24.4762 50.2505 24.1616 49.7992C23.6904 49.56 24.9866 48.7257 24.0859 48.9034C23.8185 48.8688 22.9908 48.6587 22.7211 48.662L22.721 48.662ZM27.8135 49.5973C27.7344 49.7961 27.397 49.6581 27.8135 49.5973ZM19.8795 50.3983C20.0678 50.5467 19.6469 50.585 19.8795 50.3983ZM19.866 50.5594C20.1342 50.7256 19.6645 50.5766 19.866 50.5594ZM28.5251 50.7071C28.6394 50.7434 28.4795 50.8604 28.5251 50.7071ZM26.0594 51.3962C26.1263 51.449 25.9768 51.4743 26.0594 51.3962ZM20.4209 53.6158C20.4364 53.7398 20.409 53.656 20.4209 53.6158ZM20.5194 53.6203C20.5556 53.6995 20.5053 53.6311 20.5194 53.6203ZM28.9142 53.7814C29.1425 53.9831 28.6319 53.8799 28.9142 53.7814Z" fill="url(#paint1_linear_844_10584)"/>
<path d="M35.3118 9.07516C35.6071 10.9578 34.3606 11.4998 33.7408 11.3657Z" fill="#66CC33"/>
<path fill-rule="evenodd" clip-rule="evenodd" d="M34.8187 10.9262C35.1513 10.5918 35.386 10.0104 35.2411 9.08627L35.3826 9.06409C35.5329 10.0225 35.292 10.6534 34.9202 11.0272C34.5517 11.3977 34.0606 11.5081 33.7257 11.4357L33.756 11.2958C34.0408 11.3574 34.4829 11.2638 34.8187 10.9262Z" fill="#015A01"/>
<path d="M34.1375 9.29562C34.0355 9.77672 33.7697 10.2114 33.382 10.5309C32.9944 10.8503 32.507 11.0364 31.9971 11.0595C31.4871 11.0827 30.9837 10.9416 30.5665 10.6587C30.1492 10.3758 29.842 9.96713 29.6934 9.49741" fill="#66CC33"/>
<path fill-rule="evenodd" clip-rule="evenodd" d="M33.3348 10.4736C33.7098 10.1645 33.9665 9.74452 34.0648 9.28024L34.2101 9.31102C34.1046 9.80894 33.8296 10.2582 33.4292 10.5882C33.0289 10.918 32.5261 11.1098 32.0004 11.1337C31.4747 11.1575 30.9554 11.0122 30.5248 10.7202C30.0941 10.4281 29.7763 10.0059 29.6226 9.51982L29.7641 9.47503C29.9076 9.92843 30.2043 10.3235 30.6081 10.5973C31.0119 10.8711 31.4995 11.0078 31.9937 10.9854C32.4878 10.9629 32.9597 10.7826 33.3348 10.4736Z" fill="#015A01"/>
<path d="M35.0049 6.07086C35.4133 6.27668 35.7386 6.65898 35.9135 7.13859C36.0883 7.61819 36.0992 8.15835 35.944 8.64716C35.7888 9.13598 35.4794 9.536 35.0798 9.76436C34.6802 9.99272 34.221 10.0319 33.7975 9.87386" fill="#66CC33"/>
<path fill-rule="evenodd" clip-rule="evenodd" d="M35.8503 7.16157C35.6806 6.69599 35.366 6.32801 34.9746 6.1308L35.0351 6.01093C35.4605 6.22534 35.7965 6.62197 35.9764 7.1156C36.1563 7.60921 36.1676 8.16459 36.0079 8.66747C35.8482 9.17036 35.5289 9.58493 35.113 9.82263C34.6964 10.0607 34.2165 10.1019 33.7739 9.93674L33.8209 9.81098C34.2254 9.96194 34.6637 9.92477 35.0464 9.70609C35.4296 9.48706 35.7292 9.1016 35.88 8.62685C36.0307 8.1521 36.02 7.62717 35.8503 7.16157Z" fill="#015A01"/>
<path d="M34.2102 8.45197C34.3546 8.56005 34.4615 8.70166 34.5185 8.86056C34.5755 9.01946 34.5803 9.18923 34.5325 9.35044C34.4846 9.51165 34.386 9.65778 34.2479 9.77209C34.1098 9.8864 33.9379 9.96428 33.7517 9.9968C33.5655 10.0293 33.3727 10.0152 33.1952 9.95597C33.0178 9.89677 32.863 9.79492 32.7484 9.66207C32.6339 9.52922 32.5643 9.37075 32.5476 9.20481C32.5309 9.03887 32.5678 8.87216 32.6541 8.72377" fill="url(#paint2_linear_844_10584)"/>
<path fill-rule="evenodd" clip-rule="evenodd" d="M34.4684 8.87855C34.4151 8.73017 34.315 8.5969 34.1783 8.49462L34.2421 8.40933C34.3943 8.52323 34.5079 8.67317 34.5686 8.84259C34.6294 9.01211 34.6346 9.19349 34.5836 9.36561C34.5325 9.53763 34.4276 9.69255 34.2819 9.81313C34.1363 9.93367 33.9557 10.0153 33.7609 10.0493C33.5661 10.0833 33.3643 10.0685 33.1784 10.0065C32.9925 9.94448 32.8293 9.83746 32.7081 9.69686C32.5868 9.55618 32.5125 9.38756 32.4947 9.21015C32.4768 9.0327 32.5164 8.85479 32.6081 8.69701L32.7002 8.75055C32.6194 8.88954 32.5851 9.04506 32.6006 9.1995C32.6162 9.35397 32.681 9.50229 32.7888 9.6273C32.8966 9.75239 33.0432 9.84908 33.2121 9.90545C33.3811 9.96183 33.565 9.97536 33.7426 9.94434C33.9201 9.91332 34.0834 9.83916 34.214 9.73107C34.3445 9.62303 34.4368 9.4857 34.4814 9.3353C34.526 9.185 34.5215 9.02683 34.4684 8.87855Z" fill="#333333"/>
<path fill-rule="evenodd" clip-rule="evenodd" d="M24.6556 28.4212C24.0673 28.4727 23.5864 28.4367 23.2495 28.283L23.303 28.1658C23.6088 28.3053 24.0623 28.3438 24.6444 28.2928C25.2245 28.2419 25.9238 28.1031 26.7153 27.8963L26.7479 28.021C25.953 28.2287 25.2459 28.3694 24.6556 28.4212Z" fill="#015A01"/>
<path fill-rule="evenodd" clip-rule="evenodd" d="M23.0457 24.4725C22.3858 24.4532 21.8384 24.3449 21.5061 24.1932L21.5596 24.076C21.8699 24.2176 22.398 24.3246 23.0494 24.3437C23.6994 24.3627 24.4669 24.294 25.2538 24.0884L25.2864 24.2131C24.4869 24.422 23.7071 24.4919 23.0457 24.4725Z" fill="#015A01"/>
<path fill-rule="evenodd" clip-rule="evenodd" d="M20.6004 19.5597C20.5285 19.5145 20.4529 19.4669 20.3724 19.4169L20.4405 19.3074C20.5228 19.3586 20.5997 19.407 20.6721 19.4525C21.0097 19.6648 21.2532 19.8179 21.5207 19.9299C21.8428 20.0646 22.2013 20.1399 22.8007 20.1774L22.7927 20.306C22.1856 20.2681 21.8113 20.1912 21.471 20.0488C21.1928 19.9324 20.9384 19.7723 20.6004 19.5597Z" fill="#015A01"/>
<path d="M29.4169 8.49629C29.7505 8.94899 29.9069 9.47638 29.8516 9.96245C29.7964 10.4485 29.534 10.8535 29.1222 11.0882C28.7104 11.3229 28.183 11.3682 27.6559 11.2141C27.1288 11.0599 26.6453 10.719 26.3117 10.2663C25.978 9.81363 25.8216 9.28624 25.8769 8.80017C25.9322 8.31409 26.1945 7.90915 26.6063 7.67443C27.0181 7.43971 27.5456 7.39444 28.0726 7.54856C28.5997 7.70269 29.0833 8.0436 29.4169 8.49629Z" fill="#57BD2B"/>
<path d="M27.1207 8.044C25.6318 9.17056 27.5752 11.7376 29.3262 10.9165C30.9712 9.84759 28.8678 7.05882 27.1207 8.044Z" fill="#4DB426"/>
<path d="M32.4132 4.47752C31.8406 4.51482 31.3119 4.82625 31.2899 5.48888C31.295 5.57262 31.3074 5.65483 31.3257 5.735C31.0787 5.47272 30.7722 5.26503 30.48 5.15325C29.6426 4.68345 28.0908 4.86281 28.05 6.05273C28.1447 7.55645 30.2821 8.59201 31.4958 7.66819C31.8341 7.34235 31.9039 6.96085 31.8135 6.58976C32.4573 7.23651 33.5488 7.49318 34.2658 6.92985C35.0505 6.1497 34.1724 4.99719 33.3887 4.68789C33.1176 4.53092 32.7567 4.45513 32.4132 4.47752Z" fill="#2D8B17"/>
<path d="M28.6672 1.92418C28.8115 1.85809 28.9835 1.92693 29.053 2.07852C29.053 2.07852 29.2899 3.09934 29.9058 3.93986C30.0655 4.42092 29.426 4.58845 29.2535 4.23874C29.2535 4.23874 29.1814 3.4484 28.4007 2.3774C27.62 1.30641 28.4489 2.02421 28.6672 1.92418Z" fill="#474747"/>
<path fill-rule="evenodd" clip-rule="evenodd" d="M28.2399 2.01675C28.2902 2.09773 28.3615 2.20208 28.4586 2.33523C28.8533 2.87674 29.0697 3.34841 29.1875 3.68612C29.2464 3.85494 29.2806 3.9902 29.3002 4.08389C29.3099 4.13074 29.316 4.16719 29.3197 4.19225C29.3213 4.20266 29.3224 4.21111 29.3232 4.21752C29.3922 4.3431 29.5469 4.38153 29.68 4.3335C29.7465 4.30949 29.8013 4.26528 29.8319 4.20586C29.861 4.14944 29.8719 4.07244 29.8412 3.97274C29.5318 3.54792 29.318 3.08037 29.1815 2.71932C29.1127 2.5372 29.0632 2.38156 29.031 2.27126C29.0148 2.2161 29.003 2.17224 28.9951 2.14204C28.9912 2.12694 28.9883 2.11525 28.9863 2.10726C28.9859 2.10545 28.9855 2.10383 28.9851 2.1024C28.9291 1.988 28.8006 1.94185 28.6971 1.98927C28.6491 2.01128 28.5939 2.00753 28.5478 1.9988C28.4995 1.98965 28.4476 1.9722 28.3984 1.95354C28.3649 1.94085 28.3303 1.92664 28.2978 1.91329C28.2828 1.90712 28.2682 1.90113 28.2544 1.89556C28.2151 1.87973 28.1819 1.8672 28.1552 1.85961C28.1688 1.89418 28.1952 1.94492 28.2399 2.01675ZM29.1228 2.06233L29.1228 2.06241L29.1229 2.06286L29.1234 2.06486C29.1238 2.06667 29.1245 2.06943 29.1254 2.07312C29.1272 2.0805 29.13 2.09156 29.1337 2.10602C29.1412 2.13492 29.1527 2.17738 29.1684 2.23106C29.1998 2.33843 29.2481 2.49053 29.3155 2.66868C29.4504 3.02549 29.6609 3.48435 29.9636 3.89754L29.9703 3.90662L29.9738 3.9173C30.0189 4.05311 30.0095 4.17408 29.9592 4.27152C29.9095 4.36787 29.8236 4.43389 29.7286 4.46818C29.5423 4.53545 29.2958 4.48625 29.1893 4.27043L29.1834 4.2585L29.1822 4.24534L29.1822 4.24525L29.1821 4.24391C29.182 4.24271 29.1817 4.24075 29.1814 4.23805C29.1808 4.23266 29.1797 4.22431 29.1781 4.21314C29.1748 4.19079 29.1692 4.15713 29.16 4.11315C29.1416 4.02518 29.109 3.89592 29.0523 3.73328C28.9389 3.40806 28.7288 2.94906 28.3429 2.41958C28.2448 2.28499 28.1712 2.17749 28.1183 2.09233C28.066 2.00817 28.0315 1.94226 28.0145 1.89174C28.006 1.86666 28.0001 1.84038 28.0011 1.81493C28.0022 1.7878 28.0118 1.75723 28.0384 1.73489C28.063 1.71425 28.0918 1.70952 28.1127 1.70903C28.1342 1.70853 28.1562 1.71226 28.1762 1.71709C28.2161 1.72674 28.2626 1.74449 28.3079 1.76275C28.3236 1.76905 28.3391 1.77544 28.3546 1.78182C28.3861 1.79475 28.4175 1.80764 28.4491 1.81965C28.4961 1.83747 28.5387 1.85133 28.5745 1.8581C28.6124 1.86529 28.6309 1.8621 28.6375 1.85909C28.8207 1.77515 29.0336 1.86424 29.1181 2.0487L29.1212 2.05528L29.1228 2.06233Z" fill="#424242"/>
<path d="M29.3574 1.648C29.3574 1.87967 29.2653 2.10185 29.1015 2.26566C28.9377 2.42947 28.7155 2.5215 28.4839 2.5215C28.2522 2.5215 28.03 2.42947 27.8662 2.26566C27.7024 2.10185 27.6104 1.87967 27.6104 1.648C27.6104 1.41634 27.7024 1.19416 27.8662 1.03035C28.03 0.866534 28.2522 0.774506 28.4839 0.774506C28.7155 0.774506 28.9377 0.866534 29.1015 1.03035C29.2653 1.19416 29.3574 1.41634 29.3574 1.648Z" fill="#474747"/>
<path fill-rule="evenodd" clip-rule="evenodd" d="M28.4838 0.880308C28.2802 0.880308 28.085 0.961188 27.941 1.10516C27.797 1.24912 27.7162 1.44439 27.7162 1.64799C27.7162 1.85159 27.797 2.04685 27.941 2.19082C28.085 2.33479 28.2802 2.41567 28.4838 2.41567C28.6874 2.41567 28.8827 2.33479 29.0267 2.19082C29.1706 2.04685 29.2515 1.85159 29.2515 1.64799C29.2515 1.44439 29.1706 1.24912 29.0267 1.10516C28.8827 0.961188 28.6874 0.880308 28.4838 0.880308ZM27.7914 0.955506C27.975 0.771848 28.2241 0.668671 28.4838 0.668671C28.7436 0.668671 28.9927 0.771848 29.1763 0.955506C29.36 1.13916 29.4632 1.38826 29.4632 1.64799C29.4632 1.90772 29.36 2.15681 29.1763 2.34047C28.9927 2.52413 28.7436 2.62731 28.4838 2.62731C28.2241 2.62731 27.975 2.52413 27.7914 2.34047C27.6077 2.15681 27.5045 1.90772 27.5045 1.64799C27.5045 1.38826 27.6077 1.13916 27.7914 0.955506Z" fill="#3C3C3C"/>
<path d="M31.5743 7.33385C31.3153 7.85993 30.4604 7.96889 29.6649 7.57723C28.8694 7.18557 28.4345 6.44162 28.6935 5.91554C28.9525 5.38947 29.6556 5.66687 30.6028 5.67217C31.4895 5.67712 31.8333 6.80777 31.5743 7.33385Z" fill="#EEEEEE"/>
<path fill-rule="evenodd" clip-rule="evenodd" d="M28.995 5.72111C28.894 5.76239 28.8147 5.83139 28.7577 5.94717C28.6422 6.1818 28.6775 6.47312 28.8456 6.76066C29.0133 7.04762 29.3096 7.32249 29.6966 7.51299L29.6966 7.513C30.0835 7.7035 30.482 7.7707 30.8117 7.72867C31.1421 7.68656 31.3945 7.53687 31.5101 7.30223C31.6272 7.06427 31.6115 6.67378 31.4534 6.3381C31.2969 6.00574 31.0101 5.74605 30.6024 5.74377C30.3623 5.74243 30.1382 5.72384 29.9348 5.70529C29.9114 5.70315 29.8883 5.70102 29.8655 5.69892C29.6889 5.68263 29.5306 5.66803 29.3891 5.66619C29.2293 5.66411 29.0989 5.67863 28.995 5.72111ZM30.6032 5.60057L30.6028 5.67217L30.6032 5.60057C31.0822 5.60325 31.4107 5.91137 31.5829 6.27709C31.7536 6.63949 31.7804 7.07736 31.6385 7.36548L31.6385 7.36548C31.495 7.65692 31.1905 7.82475 30.8298 7.87072C30.4685 7.91677 30.0419 7.84262 29.6333 7.64146L29.6649 7.57723L29.6333 7.64146C29.2247 7.44031 28.9058 7.14737 28.7219 6.83293C28.5384 6.51906 28.4858 6.17536 28.6292 5.88392L28.6292 5.88392C28.7017 5.73666 28.8075 5.64306 28.9408 5.58856C29.0711 5.53526 29.2243 5.52083 29.391 5.523C29.5385 5.52493 29.703 5.54011 29.8785 5.55632C29.9014 5.55843 29.9245 5.56056 29.9478 5.56268C30.1507 5.58119 30.3697 5.59927 30.6032 5.60057Z" fill="#015A01"/>
<path d="M34.3107 6.61772C34.0924 7.07529 33.372 7.17006 32.7016 6.8294C32.0312 6.48874 31.6646 5.84163 31.8829 5.38404C32.1012 4.92647 32.656 5.10767 33.492 5.17236C34.2418 5.23037 34.529 6.16012 34.3107 6.61772Z" fill="#EEEEEE"/>
<path d="M31.1975 6.26262C31.1979 6.32434 31.1855 6.38552 31.1612 6.44265C31.1368 6.49977 31.1009 6.5517 31.0556 6.59547C31.0102 6.63923 30.9563 6.67396 30.897 6.69766C30.8376 6.72136 30.774 6.73356 30.7097 6.73356C30.6454 6.73356 30.5817 6.72136 30.5223 6.69766C30.463 6.67396 30.4091 6.63923 30.3637 6.59547C30.3184 6.5517 30.2825 6.49977 30.2582 6.44265C30.2338 6.38552 30.2215 6.32434 30.2218 6.26262C30.2215 6.2009 30.2338 6.13972 30.2582 6.0826C30.2825 6.02548 30.3184 5.97354 30.3637 5.92978C30.4091 5.88601 30.463 5.85128 30.5223 5.82759C30.5817 5.80389 30.6454 5.79169 30.7097 5.79169C30.774 5.79169 30.8376 5.80389 30.897 5.82759C30.9563 5.85128 31.0102 5.88601 31.0556 5.92978C31.1009 5.97354 31.1368 6.02548 31.1612 6.0826C31.1855 6.13972 31.1979 6.2009 31.1975 6.26262Z" fill="#212121"/>
<path fill-rule="evenodd" clip-rule="evenodd" d="M30.7097 5.91342C30.6608 5.91342 30.6124 5.92271 30.5675 5.94065C30.5226 5.95858 30.4821 5.98473 30.4483 6.01737C30.4145 6.05 30.388 6.08844 30.3701 6.13036C30.3523 6.17227 30.3433 6.21697 30.3435 6.26194L30.3435 6.26264L30.3435 6.26334C30.3433 6.30831 30.3523 6.35301 30.3701 6.39492C30.388 6.43684 30.4145 6.47528 30.4483 6.50791C30.4821 6.54055 30.5226 6.5667 30.5675 6.58463C30.6124 6.60257 30.6608 6.61186 30.7097 6.61186C30.7586 6.61186 30.8069 6.60257 30.8519 6.58463C30.8968 6.5667 30.9373 6.54055 30.9711 6.50791C31.0049 6.47528 31.0313 6.43684 31.0492 6.39492C31.0671 6.35301 31.0761 6.30831 31.0758 6.26334L31.0758 6.26264L31.0758 6.26194C31.0761 6.21697 31.0671 6.17227 31.0492 6.13036C31.0313 6.08844 31.0049 6.05 30.9711 6.01737C30.9373 5.98473 30.8968 5.95858 30.8519 5.94065C30.8069 5.92271 30.7586 5.91342 30.7097 5.91342ZM30.4772 5.71456C30.551 5.68509 30.63 5.66998 30.7097 5.66998C30.7893 5.66998 30.8683 5.68509 30.9421 5.71456C31.0159 5.74402 31.0833 5.78733 31.1401 5.84222C31.197 5.89712 31.2423 5.96255 31.2731 6.03487C31.3039 6.10699 31.3196 6.18441 31.3193 6.26264C31.3196 6.34087 31.3039 6.41829 31.2731 6.49041C31.2423 6.56273 31.197 6.62816 31.1401 6.68306C31.0833 6.73795 31.0159 6.78126 30.9421 6.81072C30.8683 6.84019 30.7893 6.8553 30.7097 6.8553C30.63 6.8553 30.551 6.84019 30.4772 6.81072C30.4034 6.78126 30.3361 6.73795 30.2792 6.68306C30.2223 6.62816 30.1771 6.56273 30.1462 6.49041C30.1155 6.41829 30.0997 6.34087 30.1001 6.26264C30.0997 6.18441 30.1155 6.10699 30.1462 6.03487C30.1771 5.96255 30.2223 5.89712 30.2792 5.84222C30.3361 5.78733 30.4034 5.74402 30.4772 5.71456Z" fill="url(#paint3_linear_844_10584)"/>
<path opacity="0.16" d="M33.6787 12.6244C28.7269 12.6137 30.5878 13.7446 27.1002 14.2845C25.0907 15.2042 27.268 16.9661 24.9973 18.5672C24.0898 20.3729 26.8897 21.0219 26.0489 22.8095C26.1304 24.1287 28.1491 24.0783 27.2303 25.4228C27.236 27.4547 29.8071 27.8691 29.091 29.9737C29.5244 34.3281 31.068 38.5658 33.3245 42.302C35.1266 43.4223 33.4288 45.6401 35.3031 46.6387C34.1555 47.831 35.1313 49.7251 34.0812 51.0081C32.9007 53.0861 30.2078 56.3337 27.6752 56.2337C25.2558 56.6925 23.0098 55.6306 21.3094 57.6276C19.741 59.6488 23.308 59.7923 24.5805 59.2825C25.8954 58.0965 27.2016 58.8451 28.7593 59.0248C30.3967 59.1409 32.186 58.7751 33.3789 57.5755C35.2848 57.6368 37.7013 56.6988 37.93 54.546C39.8251 54.091 41.5378 52.0932 40.6278 50.1066C41.1743 48.8289 43.2608 46.9594 42.1185 45.0143C43.3517 43.3663 41.1102 42.0204 41.2515 40.7049C41.3647 38.9156 39.2056 38.2678 40.0291 36.4002C39.5914 32.1737 37.4497 28.2868 34.8287 25.0158C33.51 24.2099 33.5057 22.2116 31.9365 21.5189C31.8191 20.5335 31.9304 18.8969 30.8102 18.0886C31.7668 16.5227 29.9555 14.3996 32.3423 13.8153C33.0361 13.3072 33.2181 13.3574 33.6787 12.6246V12.6244Z" fill="#2F5A01"/>
<path opacity="0.16" fill-rule="evenodd" clip-rule="evenodd" d="M29.8039 13.1864C30.41 12.8278 31.1981 12.5474 33.6788 12.5528L33.7502 12.553V12.6452L33.7393 12.6627C33.5058 13.0341 33.3396 13.2122 33.1409 13.3615C33.0536 13.427 32.9603 13.4868 32.8551 13.5542C32.8428 13.5621 32.8303 13.5701 32.8177 13.5782C32.6963 13.6561 32.5563 13.7473 32.3846 13.873L32.3731 13.8814L32.3593 13.8848C31.7744 14.028 31.46 14.2619 31.2921 14.5457C31.1225 14.8326 31.0941 15.1838 31.1114 15.5807C31.1183 15.7377 31.1321 15.8992 31.1463 16.0653C31.15 16.1087 31.1537 16.1524 31.1573 16.1965C31.1748 16.408 31.1901 16.6253 31.1891 16.8428C31.1871 17.258 31.1259 17.6784 30.9044 18.0695C31.4489 18.4885 31.695 19.1014 31.8196 19.7233C31.8839 20.0442 31.9162 20.3699 31.9399 20.6753C31.947 20.7675 31.9533 20.8574 31.9595 20.9449C31.9727 21.1332 31.9851 21.3097 32.003 21.4703C32.7875 21.8324 33.1837 22.5157 33.5399 23.1915C33.5662 23.2414 33.5922 23.2912 33.6182 23.3409C33.9533 23.9812 34.2732 24.5924 34.866 24.9547L34.8767 24.9612L34.8846 24.971C37.5101 28.2477 39.6606 32.1473 40.1003 36.3928L40.1022 36.4116L40.0945 36.429C39.8946 36.8825 39.8772 37.2572 39.9582 37.5922C40.0397 37.9301 40.2224 38.2329 40.433 38.5415C40.4793 38.6093 40.527 38.6773 40.5752 38.746C40.9607 39.2961 41.375 39.8872 41.323 40.7094L41.3229 40.711L41.3227 40.7125C41.2896 41.0204 41.3955 41.3358 41.5646 41.669C41.6489 41.8351 41.7476 42.0032 41.8504 42.1752C41.8649 42.1996 41.8795 42.224 41.8942 42.2485C41.9828 42.3966 42.0732 42.5475 42.1572 42.7004C42.3528 43.0563 42.5188 43.4307 42.5547 43.8242C42.5898 44.209 42.5 44.6069 42.2038 45.019C42.7629 46.0085 42.5157 46.9763 42.0701 47.8434C41.8532 48.2656 41.5872 48.6679 41.3413 49.04L41.3116 49.0849C41.0638 49.4599 40.8412 49.801 40.7061 50.106C41.1563 51.1168 40.9471 52.1278 40.3899 52.9411C39.8378 53.7468 38.942 54.3629 37.9954 54.6035C37.8631 55.6825 37.1907 56.4567 36.3188 56.9532C35.4442 57.4512 34.3641 57.6733 33.4076 57.648C32.1946 58.8503 30.3931 59.2124 28.7542 59.0962L28.7527 59.0961L28.7511 59.0959C28.3688 59.0518 28.0019 58.9738 27.6498 58.899L27.6192 58.8925C27.2565 58.8154 26.9103 58.743 26.5725 58.7128C25.9016 58.6527 25.2677 58.759 24.6285 59.3356L24.619 59.3442L24.6072 59.3489C24.2793 59.4803 23.8093 59.5678 23.3159 59.5947C22.822 59.6216 22.298 59.5882 21.8614 59.4734C21.4287 59.3596 21.0626 59.1606 20.9149 58.8405C20.7643 58.5143 20.8546 58.0968 21.2528 57.5836L21.2538 57.5824L21.2548 57.5811C22.1231 56.5615 23.1329 56.3242 24.2199 56.2823C24.5806 56.2683 24.9531 56.2759 25.3314 56.2836C25.5195 56.2875 25.7091 56.2913 25.8994 56.2926C26.4751 56.2964 27.0637 56.2768 27.6618 56.1633L27.6698 56.1618L27.678 56.1621C28.9146 56.211 30.2026 55.4411 31.3364 54.3852C32.4676 53.3318 33.4317 52.0065 34.019 50.9727L34.022 50.9674L34.0258 50.9627C34.5228 50.3555 34.552 49.6059 34.5822 48.8341L34.584 48.7866C34.6135 48.0356 34.6532 47.2655 35.1889 46.657C34.756 46.4049 34.5199 46.0822 34.3893 45.7217C34.2524 45.3438 34.2326 44.9268 34.2152 44.519L34.2144 44.5011C34.1794 43.6841 34.1458 42.8969 33.2866 42.3628L33.272 42.3537L33.2632 42.339C31.0019 38.5949 29.4543 34.3471 29.0197 29.9808L29.0182 29.9654L29.0232 29.9507C29.1972 29.4393 29.1703 29.036 29.0363 28.6861C28.9009 28.3328 28.6546 28.0287 28.3779 27.7187C28.3286 27.6635 28.2784 27.6081 28.2278 27.5523C27.7152 26.9877 27.1614 26.3774 27.1587 25.423L27.1586 25.4008L27.1712 25.3824C27.3946 25.0554 27.4288 24.8292 27.3761 24.6533C27.3218 24.4717 27.1701 24.3228 26.9699 24.1625C26.9228 24.1247 26.8731 24.0866 26.822 24.0474C26.4533 23.7642 26.0153 23.4278 25.9774 22.8139L25.9763 22.7956L25.9841 22.779C26.1857 22.3504 26.1682 21.995 26.0448 21.6719C25.9209 21.3478 25.6902 21.0549 25.451 20.7511L25.4418 20.7394C25.2025 20.4355 24.9558 20.1201 24.8295 19.7644C24.7012 19.4034 24.6976 19.004 24.9333 18.535L24.9413 18.519L24.956 18.5086C25.5134 18.1156 25.7929 17.7166 25.9339 17.3275C26.0756 16.9362 26.0797 16.5489 26.0751 16.1712C26.0748 16.1464 26.0744 16.1217 26.0741 16.097C26.0692 15.7491 26.0644 15.4046 26.1757 15.0924C26.2973 14.7514 26.5539 14.4557 27.0704 14.2194L27.0794 14.2152L27.0892 14.2137C27.9564 14.0795 28.4872 13.9091 28.873 13.7308C29.139 13.6079 29.3344 13.4826 29.5282 13.3584C29.6181 13.3007 29.7077 13.2432 29.8039 13.1864ZM27.121 14.3537C26.6389 14.5764 26.4162 14.8444 26.3106 15.1405C26.2083 15.4274 26.2126 15.7469 26.2174 16.1024C26.2177 16.1246 26.218 16.147 26.2183 16.1694C26.2229 16.5472 26.22 16.9581 26.0685 17.3763C25.9176 17.7929 25.6216 18.2109 25.0533 18.6152C24.8433 19.042 24.8506 19.3961 24.9644 19.7165C25.0815 20.0462 25.3122 20.3433 25.5543 20.6508L25.5703 20.6711C25.8044 20.9683 26.0468 21.2761 26.1786 21.6208C26.3136 21.9743 26.3321 22.365 26.1216 22.8229C26.1623 23.3558 26.5384 23.6465 26.9055 23.9304C26.9573 23.9704 27.0089 24.0103 27.0594 24.0507C27.2592 24.2107 27.445 24.3838 27.5133 24.6122C27.5821 24.842 27.5274 25.1081 27.302 25.4445C27.3128 26.3286 27.8245 26.8936 28.336 27.4583C28.3857 27.5132 28.4354 27.5681 28.4847 27.6233C28.762 27.934 29.0245 28.255 29.17 28.6349C29.3154 29.0146 29.3423 29.4478 29.1637 29.982C29.5975 34.3134 31.1326 38.53 33.3769 42.2504C34.2863 42.8245 34.3226 43.6776 34.3568 44.4787L34.3582 44.5129C34.3759 44.9245 34.3957 45.3192 34.5239 45.6729C34.6506 46.0225 34.8841 46.3343 35.3368 46.5755L35.4204 46.62L35.3547 46.6883C34.8024 47.2622 34.758 48.0055 34.7271 48.7922C34.7263 48.8137 34.7254 48.8353 34.7246 48.8569C34.6953 49.6131 34.6646 50.4046 34.1405 51.0486C33.547 52.0921 32.5757 53.4269 31.434 54.49C30.2955 55.5503 28.9739 56.353 27.6805 56.3055C27.0717 56.4202 26.475 56.4396 25.8985 56.4358C25.7037 56.4345 25.5118 56.4306 25.3227 56.4267C24.9471 56.4191 24.5821 56.4116 24.2254 56.4253C23.1599 56.4664 22.1968 56.6965 21.3649 57.6727C20.9798 58.1695 20.9281 58.5275 21.0449 58.7805C21.1646 59.0399 21.4757 59.2239 21.8978 59.3349C22.316 59.4449 22.8243 59.4781 23.3081 59.4517C23.7863 59.4256 24.2341 59.3417 24.5422 59.2206C25.2147 58.6188 25.8882 58.5078 26.5852 58.5701C26.933 58.6013 27.2876 58.6756 27.649 58.7524L27.6772 58.7584C28.0304 58.8334 28.391 58.9101 28.7659 58.9534C30.3915 59.0685 32.1558 58.7038 33.3281 57.525L33.35 57.503L33.3812 57.504C34.323 57.5342 35.3901 57.3173 36.248 56.8288C37.1046 56.341 37.7475 55.5861 37.8587 54.5384L37.8641 54.4881L37.9132 54.4763C38.8439 54.2529 39.7306 53.6499 40.2717 52.8601C40.8117 52.072 41.0053 51.1025 40.5627 50.1364L40.5495 50.1076L40.5619 50.0784C40.7016 49.7519 40.9385 49.3898 41.1922 49.0059L41.2205 48.9631C41.4675 48.5894 41.7295 48.193 41.9428 47.778C42.3853 46.9166 42.6096 45.9919 42.0567 45.0506L42.0326 45.0095L42.0611 44.9714C42.3592 44.5731 42.4449 44.1974 42.4121 43.8372C42.379 43.4737 42.2246 43.1204 42.0317 42.7694C41.9491 42.619 41.8603 42.4706 41.7716 42.3225C41.7569 42.2979 41.7421 42.2733 41.7274 42.2487C41.6247 42.0766 41.5237 41.9047 41.4369 41.7338C41.2643 41.3937 41.1431 41.0482 41.1802 40.6988C41.2282 39.9306 40.8449 39.3823 40.4582 38.8291C40.4102 38.7604 40.3621 38.6916 40.3148 38.6222C40.1028 38.3117 39.9071 37.9906 39.819 37.6258C39.7313 37.2627 39.7512 36.8614 39.9559 36.3888C39.5162 32.1926 37.3895 28.3286 34.7806 25.0702C34.1592 24.6855 33.8234 24.0428 33.4946 23.4136C33.4675 23.3617 33.4404 23.3098 33.4132 23.2582C33.0509 22.5709 32.6672 21.9197 31.9076 21.5844L31.8702 21.5679L31.8654 21.5273C31.8446 21.3526 31.8308 21.1568 31.8163 20.9509C31.8102 20.8643 31.804 20.7758 31.7971 20.6864C31.7736 20.3826 31.7418 20.0638 31.6792 19.7514C31.5539 19.1261 31.3074 18.5356 30.7683 18.1466L30.7145 18.1078L30.7491 18.0512C30.9788 17.6752 31.0439 17.2636 31.0459 16.8421C31.0469 16.6312 31.0321 16.4191 31.0146 16.2083C31.0111 16.1652 31.0074 16.122 31.0037 16.0789C30.9895 15.9125 30.9754 15.7472 30.9684 15.587C30.9508 15.1843 30.977 14.7973 31.1689 14.4728C31.3611 14.1478 31.7114 13.8985 32.3114 13.7491C32.4814 13.6251 32.6207 13.5344 32.7403 13.4577C32.753 13.4496 32.7653 13.4417 32.7775 13.4339C32.8836 13.3659 32.9721 13.3091 33.0549 13.247C33.2164 13.1257 33.3574 12.9825 33.5474 12.696C31.1803 12.7007 30.4398 12.9765 29.8768 13.3096C29.7886 13.3618 29.7028 13.4167 29.6148 13.4731C29.4172 13.5998 29.208 13.7338 28.9331 13.8608C28.5337 14.0454 27.9919 14.2182 27.121 14.3537Z" fill="#015A01" fill-opacity="0.45631"/>
<path opacity="0.22" d="M29.5182 14.944L27.0524 15.3334C28.332 15.2546 30.1351 16.13 30.9337 15.493C31.1427 14.9234 29.8604 15.1542 29.5182 14.944ZM30.9143 17.7319C30.7486 17.7484 30.5303 17.8029 30.4713 17.7454C29.2877 17.7801 27.5865 17.8711 26.7302 18.1884L29.0661 18.7836C29.7946 18.3545 31.7529 18.9065 31.0351 17.9423C31.1908 17.7393 31.08 17.7155 30.9143 17.7319ZM32.051 21.2583C30.2994 21.3638 28.5563 21.5735 26.8019 21.6431C28.1778 21.8466 29.5462 22.1491 30.9412 21.9071C31.5999 21.6929 32.9307 22.1962 32.051 21.2583ZM34.3153 24.431C33.0045 24.5904 32.6755 24.4855 31.2947 24.5116C30.3886 24.4856 27.9679 24.5375 28.0011 24.7308C29.1707 24.8849 30.3356 25.1851 31.5139 24.9143C32.1671 24.6758 35.5901 25.3926 34.3153 24.431H34.3153ZM36.3604 26.937C34.1267 27.2703 31.8015 27.0153 29.63 27.747L32.1136 28.0379C33.3383 27.3783 36.1773 27.9104 36.5573 27.2234L36.3604 26.937Z" fill="#816647"/>
<path opacity="0.22" d="M39.3899 38.1192C38.8588 38.1112 38.217 38.2267 37.7968 38.1461C36.1108 38.1516 34.494 38.6686 32.861 39.0231C33.9899 39.0918 35.1384 39.5652 36.2441 39.144C37.4317 38.6541 39.3626 38.7492 40.1551 38.3385C39.9854 38.174 39.7086 38.124 39.39 38.1192L39.3899 38.1192ZM40.3968 41.4665C39.3414 41.4443 37.9778 41.6799 37.1525 41.5336L34.6957 41.9229C37.057 41.9193 39.4183 41.9248 41.7796 41.9229C41.5538 41.5862 41.0301 41.4798 40.3969 41.4665H40.3968ZM39.8822 45.0912C39.5475 45.086 39.2136 45.1051 38.8753 45.1673L36.4543 45.7759C38.058 45.5116 39.656 45.9877 41.2604 45.6864C42.1508 45.8513 42.7983 45.0327 41.5513 45.1807C40.9929 45.1677 40.44 45.0999 39.8822 45.0912ZM37.0226 49.6735L34.8209 50.2687C36.5963 50.4798 38.3758 50.7313 40.1551 50.3806C40.8805 50.2634 40.4951 49.3444 39.8822 49.9644C38.9478 50.1031 37.9691 49.711 37.0226 49.6735ZM34.5614 54.4349L32.0956 54.8242C34.0623 54.637 35.9656 55.2926 37.9265 55.1733C38.3297 54.0714 35.2211 54.6096 34.5613 54.4349H34.5614ZM31.675 56.6902C30.8603 56.7494 30.0541 56.9235 29.2451 57.0482C30.7086 56.9409 32.2208 58.0722 33.5187 57.6121C34.1562 57.659 35.9998 57.4082 34.4003 57.2451C33.4959 57.0499 32.6141 56.6714 31.675 56.6902Z" fill="#816647"/>
<path d="M25.0561 17.5435C24.2458 17.6899 24.4309 19.1851 25.2843 19.2037C25.9145 19.3768 26.448 19.49 27.2453 19.2731C28.0764 18.6224 26.9373 18.1584 26.3183 18.3266C25.1156 18.431 25.8057 17.7286 25.0561 17.5435ZM25.4992 21.4949C24.3405 21.9298 25.3694 23.3825 26.3628 23.1193C27.1693 23.1843 27.5869 22.7602 28.032 22.5599C29.0269 21.5763 27.347 21.4504 26.77 22.1124C25.8385 22.4174 26.17 21.6733 25.4992 21.4949ZM29.276 24.5378C28.5109 24.5146 28.0314 25.3207 27.3026 25.2896C26.1552 25.0876 26.4458 26.6207 27.4637 26.2786C28.2403 26.408 28.5015 25.6484 29.2447 25.585C29.8459 25.538 29.9594 24.5779 29.276 24.5378ZM30.7438 28.3281C30.205 28.5378 29.5722 29.1916 28.9538 28.8651C27.6524 27.9145 28.1165 30.2503 28.8867 29.9167C29.5588 30.0769 30.4341 29.6644 30.7796 29.4111C31.0511 29.4492 31.66 28.4209 30.7438 28.3281ZM30.3992 29.6214C30.5257 29.576 30.2684 29.7006 30.3992 29.6214ZM34.0195 40.7995C32.8109 41.1882 34.1606 42.6842 35.0218 42.6656C35.7899 42.727 36.636 42.6914 37.1608 42.057C37.8493 40.3182 34.8554 42.5872 34.3919 41.0053L34.2839 40.8925L34.0195 40.7995ZM34.5654 45.7892C33.6136 46.0333 34.3539 47.4432 34.8428 47.9058C35.5778 48.405 36.4896 48.4115 37.3453 48.3063C38.1771 47.6575 37.0364 47.1904 36.4183 47.3598C35.8227 47.4364 35.1705 47.1133 35.1338 46.4559C35.0199 46.1816 34.9491 45.7947 34.5654 45.7892ZM31.0302 53.0968C30.1754 53.3691 30.5433 54.691 31.0212 55.2089C31.3551 55.5976 31.6073 56.1191 31.9296 56.341C32.3551 56.5908 32.6495 56.9703 33.1785 56.7442C33.8898 56.2284 32.5681 55.6277 32.7441 55.7101C32.306 55.5098 32.0082 54.768 31.6254 54.3676C31.363 53.9478 31.7847 53.1379 31.0302 53.0967L31.0302 53.0968ZM31.9207 56.3322C31.883 56.322 31.7678 56.1637 31.9207 56.3322ZM25.1232 55.8623C24.3296 56.2115 24.3272 57.281 24.3625 58.0369C24.2517 58.7892 24.5738 59.5487 25.3157 59.8271C26.5436 60.4627 26.0463 58.5857 25.4723 58.7531C25.1373 58.4127 25.4932 57.7448 25.3515 57.3122C25.3159 56.8246 26.1557 56.0091 25.1232 55.8623ZM19.4937 56.104C18.8253 56.3067 18.3129 57.1477 18.3392 58.0416C18.1897 58.7557 18.5936 59.6813 19.1134 59.8181C20.2772 60.604 20.3751 58.9789 19.3282 58.7262C19.2925 58.0408 19.2859 57.2766 19.9341 56.8617C20.1641 56.5482 19.8746 56.0677 19.4937 56.104ZM32.3104 56.5783C32.3426 56.5797 32.3128 56.5892 32.3104 56.5783ZM25.401 56.9945C25.4223 56.9901 25.3655 57.0287 25.401 56.9945Z" fill="#FFFF99"/>
<path fill-rule="evenodd" clip-rule="evenodd" d="M25.0591 17.4484L25.0784 17.4532C25.2847 17.5041 25.4037 17.5946 25.4781 17.7074C25.5138 17.7615 25.537 17.8175 25.5554 17.8688C25.5645 17.8942 25.5714 17.9155 25.578 17.9354C25.5863 17.9606 25.5939 17.9836 25.6041 18.0102C25.6352 18.091 25.6724 18.15 25.7583 18.19C25.8512 18.2332 26.0115 18.2591 26.3021 18.2346C26.471 18.1904 26.6689 18.1891 26.8563 18.2202C27.0468 18.2518 27.2349 18.3182 27.378 18.4159C27.5199 18.5128 27.6317 18.6514 27.6311 18.8273C27.6306 19.0015 27.5197 19.1764 27.3026 19.3464L27.2878 19.358L27.2697 19.3629C26.4532 19.585 25.9021 19.4695 25.2704 19.2964C24.7855 19.2791 24.5082 18.8477 24.4539 18.4336C24.4262 18.2217 24.4534 18.0006 24.5472 17.8193C24.6422 17.6356 24.8054 17.4942 25.0395 17.4519L25.0591 17.4484ZM24.6385 18.4095C24.6872 18.7808 24.9251 19.1028 25.2863 19.1107L25.2978 19.1109L25.3089 19.114C25.9282 19.2841 26.4392 19.3919 27.2025 19.1882C27.3892 19.0381 27.4447 18.915 27.445 18.8268C27.4452 18.738 27.3894 18.6491 27.273 18.5697C27.1578 18.491 26.9971 18.4323 26.8259 18.4039C26.6547 18.3755 26.4814 18.3787 26.3426 18.4165L26.3346 18.4187L26.3263 18.4194C26.0206 18.4459 25.8183 18.4232 25.6798 18.3587C25.5334 18.2906 25.4708 18.182 25.4304 18.0771C25.4197 18.0495 25.4086 18.016 25.3983 17.9852C25.3918 17.9654 25.3855 17.9468 25.3801 17.9315C25.3638 17.8861 25.3465 17.846 25.3227 17.8099C25.2798 17.7449 25.2082 17.6808 25.0533 17.6389C24.8927 17.6737 24.7813 17.7717 24.7125 17.9048C24.6397 18.0457 24.6146 18.227 24.6385 18.4095ZM25.4943 21.3973L25.523 21.4049C25.8397 21.4892 25.9661 21.6952 26.061 21.8498C26.0793 21.8795 26.0963 21.9074 26.1134 21.9321C26.1666 22.0093 26.2174 22.0584 26.2969 22.0798C26.3785 22.1017 26.5053 22.0984 26.7175 22.0315C26.8758 21.8597 27.0981 21.7423 27.3241 21.6755C27.5586 21.6062 27.807 21.5885 28.0082 21.6277C28.2037 21.6658 28.3895 21.767 28.4271 21.9646C28.463 22.1537 28.3495 22.3768 28.0973 22.6261L28.0854 22.6379L28.0701 22.6448C27.9642 22.6925 27.859 22.7539 27.7437 22.8213L27.7413 22.8227C27.6281 22.889 27.5063 22.9602 27.3725 23.0233C27.1038 23.1499 26.7861 23.2438 26.371 23.2133C25.8296 23.3479 25.2942 23.0234 25.0446 22.6177C24.9174 22.4108 24.8562 22.1704 24.9156 21.9455C24.9759 21.7166 25.1554 21.5245 25.4664 21.4077L25.4943 21.3973ZM25.5037 21.593C25.2546 21.6936 25.1356 21.841 25.0956 21.9929C25.053 22.1545 25.0938 22.3423 25.2032 22.5201C25.4244 22.8797 25.8922 23.1477 26.3389 23.0293L26.3544 23.0252L26.3703 23.0265C26.7538 23.0574 27.0435 22.9725 27.2932 22.8549C27.4193 22.7955 27.5349 22.7278 27.6497 22.6606L27.6511 22.6598C27.759 22.5967 27.8674 22.5333 27.9781 22.4822C28.2134 22.2461 28.2611 22.0883 28.2442 21.9993C28.2286 21.9174 28.1449 21.844 27.9726 21.8104C27.8062 21.778 27.5885 21.7915 27.3769 21.854C27.1652 21.9166 26.9695 22.0252 26.8401 22.1736L26.8233 22.1929L26.7989 22.2009C26.5595 22.2792 26.3848 22.2962 26.2486 22.2596C26.1073 22.2216 26.0243 22.1308 25.9601 22.0378C25.9365 22.0036 25.9152 21.9693 25.8942 21.9357C25.8043 21.7917 25.7219 21.6598 25.5037 21.593ZM28.229 24.836C28.5309 24.6443 28.8648 24.4322 29.2788 24.4448L29.2801 24.4448L29.2814 24.4449C29.4757 24.4563 29.6226 24.5346 29.717 24.6541C29.8099 24.7718 29.8452 24.9212 29.8348 25.0655C29.8142 25.3509 29.609 25.6497 29.2523 25.6777C28.9427 25.7043 28.7257 25.8605 28.492 26.0288C28.4684 26.0458 28.4447 26.0629 28.4206 26.08C28.1662 26.261 27.8856 26.4352 27.4712 26.374C27.2036 26.4582 26.9735 26.4251 26.7994 26.3196C26.6228 26.2124 26.5122 26.0354 26.4795 25.853C26.4468 25.6706 26.4914 25.4745 26.6371 25.3389C26.7824 25.2037 27.0104 25.145 27.3124 25.1969C27.64 25.2086 27.9157 25.035 28.2258 24.8381L28.229 24.836ZM28.3085 25.0061C28.0119 25.1945 27.6897 25.3993 27.2986 25.3826L27.2924 25.3824L27.2864 25.3813C27.0178 25.334 26.854 25.3913 26.7639 25.4752C26.6733 25.5595 26.6389 25.6874 26.6627 25.8202C26.6865 25.9531 26.7677 26.0826 26.896 26.1604C27.0221 26.2369 27.2021 26.2683 27.434 26.1904L27.456 26.183L27.4789 26.1868C27.8286 26.245 28.0612 26.1072 28.3127 25.9283C28.3365 25.9113 28.3606 25.8939 28.385 25.8763C28.6146 25.7102 28.873 25.5233 29.2367 25.4922L29.2374 25.4922C29.4816 25.4731 29.6335 25.2685 29.6492 25.0521C29.6568 24.9456 29.63 24.8444 29.5708 24.7694C29.5132 24.6964 29.4184 24.6397 29.2718 24.6308C28.9228 24.6207 28.6356 24.7983 28.3256 24.9952C28.3199 24.9988 28.3142 25.0025 28.3085 25.0061ZM30.7308 28.2333L30.7531 28.2355C30.9997 28.2605 31.1653 28.3512 31.2531 28.4928C31.3393 28.6318 31.3364 28.7974 31.2968 28.9431C31.257 29.0897 31.1769 29.23 31.0874 29.3323C31.0425 29.3835 30.9929 29.428 30.9416 29.459C30.903 29.4823 30.8572 29.5016 30.8087 29.5047C30.6244 29.6346 30.3231 29.7952 29.9849 29.9073C29.6411 30.0214 29.2472 30.0894 28.8942 30.0139C28.7864 30.0531 28.6809 30.0508 28.5836 30.0159C28.4797 29.9787 28.3907 29.9063 28.3178 29.8192C28.1728 29.6459 28.0774 29.397 28.0509 29.1704C28.0375 29.0565 28.0409 28.9429 28.0677 28.8438C28.0944 28.7447 28.1467 28.6528 28.2364 28.5965C28.3273 28.5394 28.4407 28.5287 28.5684 28.5608C28.6932 28.5922 28.8375 28.6656 29.003 28.7858C29.2697 28.9236 29.5446 28.8581 29.8375 28.7141C29.9639 28.652 30.0884 28.578 30.2139 28.5034C30.2346 28.491 30.2555 28.4786 30.2763 28.4663C30.4207 28.3808 30.5673 28.2969 30.71 28.2414L30.7308 28.2333ZM30.7566 28.4232C30.636 28.4726 30.5083 28.5453 30.3711 28.6265C30.3509 28.6384 30.3305 28.6506 30.31 28.6628C30.1849 28.7372 30.0532 28.8155 29.9197 28.8812C29.609 29.0339 29.2602 29.1321 28.9103 28.9474L28.9044 28.9442L28.8989 28.9403C28.7414 28.8252 28.6174 28.765 28.5229 28.7413C28.4299 28.7179 28.372 28.7311 28.3354 28.7541C28.2976 28.7778 28.2663 28.8222 28.2474 28.8923C28.2285 28.9623 28.2243 29.0509 28.2358 29.1487C28.2588 29.3455 28.3425 29.5586 28.4606 29.6997C28.5192 29.7698 28.5826 29.8178 28.6465 29.8407C28.7081 29.8628 28.7751 29.8636 28.8497 29.8313L28.8781 29.819L28.9082 29.8262C29.22 29.9005 29.5875 29.843 29.9263 29.7306C30.0562 29.6876 30.18 29.637 30.2925 29.5843C30.294 29.5827 30.2953 29.5813 30.2964 29.5802C30.2986 29.578 30.3007 29.5762 30.3023 29.5747C30.3038 29.5734 30.3053 29.5722 30.3068 29.571C30.3084 29.5697 30.3099 29.5686 30.3113 29.5676C30.3164 29.5637 30.3223 29.5598 30.3285 29.5558C30.3348 29.5517 30.3423 29.547 30.351 29.5418L30.359 29.5369L30.3677 29.5338C30.3764 29.5307 30.384 29.5281 30.3907 29.526C30.3941 29.5249 30.3974 29.5239 30.4007 29.523C30.4023 29.5226 30.4041 29.5221 30.4059 29.5217C30.4077 29.5212 30.4095 29.5208 30.4114 29.5204C30.4126 29.5202 30.4139 29.5199 30.4152 29.5197C30.4162 29.5195 30.4173 29.5194 30.4184 29.5192C30.4203 29.5189 30.4227 29.5186 30.4255 29.5184C30.5469 29.4547 30.6495 29.391 30.7245 29.336L30.755 29.3136L30.7925 29.3189C30.7964 29.3194 30.8134 29.3189 30.8454 29.2996C30.8759 29.2812 30.9112 29.251 30.9473 29.2097C31.0196 29.127 31.0853 29.0116 31.1172 28.8943C31.1493 28.7761 31.1438 28.6696 31.0949 28.5909C31.0494 28.5175 30.9531 28.4473 30.7566 28.4232ZM34.0207 40.7014L34.3357 40.8121L34.4748 40.9574L34.4812 40.9792C34.5342 41.16 34.621 41.2795 34.7276 41.3586C34.8354 41.4387 34.9703 41.4827 35.127 41.4999C35.4445 41.5349 35.8253 41.4581 36.1891 41.3812L36.2189 41.3749C36.3873 41.3393 36.5514 41.3046 36.697 41.2849C36.8488 41.2645 36.9945 41.2581 37.1102 41.2923C37.1699 41.3099 37.2253 41.3394 37.2689 41.3866C37.313 41.4341 37.3396 41.4939 37.3504 41.563C37.3713 41.6961 37.3348 41.8703 37.2473 42.0912L37.2419 42.1049L37.2325 42.1163C36.6758 42.7892 35.7856 42.8197 35.0189 42.7587C34.7798 42.7625 34.5178 42.6633 34.2823 42.5153C34.0439 42.3656 33.8228 42.1598 33.6681 41.9386C33.5152 41.72 33.4178 41.4725 33.4531 41.2435C33.4899 41.0042 33.6659 40.8154 33.9909 40.7109L34.0207 40.7014ZM34.3814 42.3577C34.6018 42.4962 34.8295 42.5766 35.0198 42.5725L35.0245 42.5724L35.0292 42.5728C35.7928 42.6339 36.5871 42.5927 37.0797 42.0089C37.1597 41.8031 37.1791 41.672 37.1665 41.5919C37.1605 41.5535 37.1475 41.5295 37.1323 41.513C37.1167 41.4961 37.0932 41.4814 37.0574 41.4708C36.982 41.4485 36.87 41.4494 36.7219 41.4694C36.5834 41.4881 36.4256 41.5215 36.2546 41.5576L36.2275 41.5634C35.8709 41.6387 35.4594 41.7238 35.1067 41.685C34.9282 41.6653 34.7586 41.6135 34.6166 41.5081C34.4785 41.4055 34.373 41.2569 34.3092 41.0536L34.232 40.973L34.0187 40.898C33.761 40.9882 33.6593 41.1273 33.6371 41.2719C33.6124 41.4321 33.6797 41.6304 33.8207 41.8319C33.96 42.0311 34.1623 42.2201 34.3814 42.3577ZM34.5543 45.6959L34.5667 45.6961C34.6793 45.6977 34.7733 45.7277 34.8514 45.7795C34.9286 45.8307 34.9857 45.9 35.0303 45.9735C35.0747 46.0467 35.1086 46.1272 35.1377 46.2035C35.1494 46.2341 35.16 46.263 35.1703 46.291C35.1868 46.3361 35.2023 46.3785 35.2197 46.4202L35.2258 46.4348L35.2266 46.4507C35.2431 46.7459 35.3964 46.9652 35.6162 47.1045C35.8365 47.2441 36.1236 47.3025 36.4002 47.2683C36.5694 47.2233 36.7679 47.2219 36.9561 47.2532C37.1466 47.2849 37.3349 47.3516 37.478 47.4494C37.62 47.5465 37.7318 47.6852 37.7313 47.8611C37.7308 48.0354 37.6198 48.2102 37.4025 48.3797L37.3822 48.3955L37.3566 48.3986C36.7425 48.4742 36.0868 48.4946 35.4837 48.311L35.4814 48.3157L35.4524 48.3013C35.2221 48.2282 34.9997 48.1248 34.7905 47.9828L34.7843 47.9785L34.7788 47.9734C34.5226 47.7309 34.2063 47.2485 34.0744 46.7913C34.0084 46.5629 33.9848 46.3281 34.0499 46.1289C34.1175 45.9222 34.2764 45.7672 34.5422 45.699L34.5543 45.6959ZM35.5223 48.1281L35.5199 48.1269L35.5196 48.1273C35.3031 48.0596 35.0956 47.964 34.9014 47.833C34.6695 47.611 34.3748 47.1609 34.2532 46.7397C34.1919 46.5274 34.1784 46.335 34.2269 46.1867C34.272 46.0488 34.3743 45.9376 34.5762 45.8826C34.6494 45.8855 34.7045 45.9054 34.7486 45.9347C34.7961 45.9662 34.8358 46.0119 34.8711 46.07C34.9066 46.1286 34.9358 46.1965 34.9639 46.27C34.9735 46.2952 34.9833 46.3219 34.9933 46.349C35.0091 46.3921 35.0253 46.4363 35.0418 46.477C35.0666 46.8312 35.2561 47.0967 35.5166 47.2617C35.7788 47.4279 36.113 47.4929 36.4301 47.4521L36.4365 47.4513L36.4428 47.4496C36.5813 47.4116 36.7544 47.4083 36.9255 47.4368C37.0967 47.4653 37.2576 47.5242 37.3729 47.6031C37.4894 47.6827 37.5454 47.7718 37.5452 47.8606C37.5449 47.948 37.4905 48.0693 37.3079 48.217C36.7024 48.2898 36.0824 48.3024 35.5223 48.1281ZM30.9649 52.9999L31.0352 53.0038C31.2415 53.015 31.3852 53.0805 31.4772 53.1955C31.5658 53.3062 31.5938 53.4478 31.6051 53.5825C31.6107 53.6508 31.6124 53.7216 31.6137 53.79L31.6139 53.8021C31.6152 53.8672 31.6165 53.9301 31.6206 53.9914C31.6292 54.1191 31.6499 54.2268 31.6996 54.3107C31.8503 54.4703 31.9892 54.6811 32.1227 54.8838C32.1625 54.9443 32.2019 55.0041 32.2409 55.0616C32.4162 55.3194 32.584 55.5294 32.7717 55.6202L32.7731 55.6209C32.7757 55.6221 32.7791 55.6237 32.7835 55.6258L32.7831 55.6265C32.7838 55.6268 32.7845 55.6272 32.7851 55.6276C32.804 55.6376 32.8399 55.6571 32.8856 55.6845C32.9762 55.7389 33.1089 55.8262 33.2254 55.9347C33.3393 56.0407 33.4514 56.1794 33.4777 56.3382C33.5061 56.5098 33.431 56.676 33.233 56.8196L33.2246 56.8257L33.215 56.8298C32.9206 56.9556 32.6857 56.9119 32.4731 56.8041C32.37 56.7518 32.2718 56.6844 32.1764 56.6174C32.1662 56.6103 32.1562 56.6032 32.1461 56.5961C32.0595 56.5352 31.9741 56.4751 31.8825 56.4213L31.8796 56.4196L31.8768 56.4177C31.8681 56.4118 31.8595 56.4056 31.851 56.3993C31.8504 56.3989 31.8498 56.3984 31.8493 56.398C31.6842 56.2752 31.5404 56.086 31.4035 55.891C31.369 55.8418 31.3348 55.7922 31.3007 55.7425C31.1885 55.5793 31.0762 55.416 30.9516 55.2708C30.6986 54.9959 30.48 54.5176 30.4333 54.0705C30.4098 53.8456 30.4289 53.6204 30.5163 53.43C30.5995 53.2489 30.7427 53.1041 30.9567 53.0237L30.9649 52.9999ZM31.0424 53.1908C30.8636 53.252 30.7511 53.3649 30.6855 53.5077C30.6165 53.658 30.5971 53.8467 30.6185 54.0511C30.6614 54.4618 30.8651 54.9026 31.0896 55.1458L31.0907 55.147L31.0918 55.1483C31.224 55.3022 31.3444 55.4774 31.4579 55.6425C31.4911 55.6908 31.5237 55.7382 31.5559 55.784C31.6606 55.9333 31.7599 56.0644 31.8616 56.1636C31.8775 56.1666 31.8882 56.1728 31.8902 56.174L31.8905 56.1741C31.9006 56.1797 31.9085 56.1865 31.9115 56.1891C31.9263 56.2018 31.9507 56.2269 31.9872 56.267C32.0819 56.3233 32.1702 56.3855 32.253 56.4437C32.2632 56.4508 32.2733 56.458 32.2833 56.465C32.293 56.4718 32.3026 56.4786 32.3122 56.4852L32.3145 56.4853C32.3179 56.4855 32.3216 56.4857 32.3254 56.4861C32.3285 56.4864 32.3316 56.4868 32.3348 56.4873C32.3397 56.4881 32.3536 56.4905 32.3684 56.4985C32.3752 56.5022 32.3924 56.5123 32.405 56.5335C32.409 56.5401 32.412 56.5471 32.4142 56.5543C32.4624 56.5856 32.5096 56.6139 32.5573 56.6381C32.7281 56.7247 32.9024 56.758 33.1322 56.6627C33.2824 56.5508 33.3077 56.4507 33.2941 56.3686C33.2781 56.2723 33.2042 56.1692 33.0986 56.0709C32.9956 55.9751 32.8753 55.8954 32.7898 55.8442C32.7475 55.8188 32.7145 55.8009 32.6976 55.7918C32.6933 55.7896 32.6901 55.7879 32.6877 55.7866L32.6877 55.7866L32.6843 55.7848C32.6841 55.7847 32.6832 55.7842 32.6822 55.7836C32.447 55.666 32.2569 55.4162 32.087 55.1662C32.0438 55.1027 32.0017 55.0389 31.9602 54.9759C31.8266 54.7731 31.6987 54.579 31.558 54.4319L31.5514 54.425L31.5464 54.4169C31.4683 54.292 31.4443 54.1436 31.4349 54.004C31.4304 53.938 31.4291 53.8709 31.4278 53.8068L31.4276 53.7937C31.4262 53.7248 31.4247 53.6596 31.4195 53.5979C31.4091 53.4725 31.3847 53.3777 31.3319 53.3118C31.2843 53.2523 31.202 53.2025 31.0424 53.1908ZM32.6921 55.7885C32.6965 55.7906 32.7009 55.7927 32.7053 55.7947L32.7063 55.7926C32.7126 55.7938 32.7216 55.7952 32.7292 55.7955C32.7928 55.769 32.8147 55.6692 32.7947 55.6378C32.791 55.6342 32.786 55.6301 32.7827 55.6275L32.7063 55.7926C32.706 55.7925 32.7057 55.7925 32.7055 55.7924L32.744 55.7101L32.782 55.627C32.7822 55.6271 32.7824 55.6273 32.7827 55.6275M32.3962 56.5425C32.3814 56.5069 32.3487 56.4952 32.3372 56.4925C32.3314 56.4911 32.3256 56.4904 32.3196 56.4904C32.3456 56.5084 32.3711 56.5258 32.3962 56.5425ZM31.7902 56.3303C31.7902 56.3303 31.7903 56.3304 31.7904 56.3304C31.7895 56.3298 31.7894 56.3296 31.7902 56.3303ZM25.11 55.7664L25.1363 55.7702C25.4038 55.8082 25.5788 55.893 25.6678 56.032C25.7567 56.171 25.7411 56.3353 25.701 56.4837C25.6713 56.5936 25.6232 56.7114 25.5779 56.8221C25.5622 56.8606 25.5468 56.8983 25.5326 56.9345C25.4766 57.0779 25.4397 57.1986 25.4437 57.2952C25.481 57.4168 25.4841 57.5491 25.4759 57.6779C25.4702 57.7676 25.4583 57.8623 25.4469 57.9535C25.4416 57.9959 25.4363 58.0375 25.4319 58.0775C25.4045 58.3227 25.4053 58.5168 25.5071 58.6514C25.6819 58.6314 25.833 58.7467 25.9367 58.8834C26.0556 59.04 26.139 59.255 26.1621 59.455C26.1845 59.6488 26.1529 59.8649 25.9931 59.9795C25.8314 60.0955 25.5889 60.0723 25.2777 59.9123C24.4917 59.6143 24.1577 58.8122 24.2691 58.0323C24.2517 57.6558 24.2435 57.1919 24.3414 56.7758C24.4404 56.355 24.6518 55.968 25.0857 55.7771L25.11 55.7664ZM25.1366 55.9585C24.7926 56.1204 24.6123 56.437 24.5226 56.8184C24.4305 57.2101 24.4378 57.6548 24.4554 58.0326L24.4559 58.0416L24.4545 58.0505C24.3484 58.7708 24.6574 59.4806 25.3483 59.7399L25.3535 59.7419L25.3584 59.7444C25.6588 59.8999 25.813 59.8796 25.8846 59.8282C25.9589 59.7749 25.9974 59.6514 25.9772 59.4763C25.9577 59.3074 25.8859 59.1243 25.7885 58.9959C25.6878 58.8633 25.5848 58.8172 25.4983 58.8425L25.4449 58.858L25.4059 58.8184C25.2037 58.613 25.218 58.3159 25.2469 58.0569C25.252 58.0112 25.2576 57.9666 25.2631 57.9228C25.2741 57.8349 25.2848 57.7502 25.2901 57.6661C25.298 57.5416 25.293 57.4327 25.263 57.3412L25.2594 57.3304L25.2586 57.319C25.252 57.2278 25.2707 57.1307 25.2997 57.035C25.2967 57.0248 25.2959 57.0156 25.2959 57.0082C25.2959 56.9907 25.3008 56.9776 25.3031 56.9721C25.3058 56.9655 25.3088 56.9605 25.3107 56.9575C25.3144 56.9514 25.3182 56.9468 25.3205 56.944C25.3253 56.9384 25.3308 56.9328 25.336 56.9278C25.3436 56.9072 25.3514 56.8868 25.3593 56.8667C25.376 56.824 25.393 56.7823 25.4097 56.7414C25.4535 56.6343 25.4949 56.5329 25.5213 56.4352C25.5576 56.3005 25.5561 56.2029 25.511 56.1324C25.4676 56.0646 25.3665 55.9951 25.1366 55.9585ZM25.3314 56.9403C25.3307 56.9412 25.33 56.9422 25.3293 56.9432C25.3277 56.9454 25.3255 56.9487 25.3232 56.953C25.3211 56.9571 25.318 56.9637 25.3157 56.9723C25.3143 56.9777 25.3129 56.9851 25.3128 56.9939C25.3187 56.9759 25.325 56.9581 25.3314 56.9403ZM20.0231 56.3044C20.1287 56.4834 20.1511 56.7233 20.0091 56.9168L19.9988 56.9308L19.9842 56.9401C19.6854 57.1314 19.5363 57.4024 19.4654 57.7132C19.3984 58.0072 19.4023 58.3326 19.4177 58.6543C19.9418 58.8149 20.1847 59.3033 20.1422 59.6723C20.1198 59.8674 20.0139 60.0446 19.8113 60.1039C19.6183 60.1604 19.3685 60.0997 19.074 59.9038C18.7802 59.8186 18.5389 59.5252 18.3899 59.1836C18.238 58.835 18.1699 58.4102 18.2458 58.0334C18.2344 57.5722 18.3604 57.1252 18.5761 56.7657C18.793 56.4041 19.1049 56.1246 19.4667 56.0149L19.4756 56.0122L19.4849 56.0113C19.719 55.989 19.9178 56.1258 20.0231 56.3044ZM19.5114 56.1959C19.6548 56.1861 19.7871 56.2707 19.8628 56.3989C19.9369 56.5248 19.9465 56.6753 19.8682 56.7935C19.5294 57.0165 19.3617 57.3307 19.2839 57.6718C19.2058 58.0145 19.2174 58.389 19.2352 58.7311L19.2388 58.8004L19.3063 58.8167C19.7823 58.9316 19.9912 59.3563 19.9573 59.651C19.9407 59.7955 19.8693 59.893 19.759 59.9253C19.6418 59.9596 19.4473 59.9313 19.1654 59.741L19.1523 59.7322L19.137 59.7281C18.9182 59.6705 18.7035 59.437 18.5606 59.1092C18.4195 58.7855 18.3602 58.3953 18.4303 58.0607L18.4325 58.0499L18.4322 58.0389C18.4196 57.61 18.5363 57.1938 18.7357 56.8615C18.9335 56.5318 19.2085 56.2909 19.5114 56.1959Z" fill="#816647"/>
<path d="M32.4244 1.32791C32.581 1.35338 32.6855 1.50639 32.6588 1.67097C32.6588 1.67097 32.2869 2.65077 32.3301 3.69184C32.1948 4.1803 31.5704 3.96321 31.6219 3.57668C31.6219 3.57668 32.0023 2.88016 31.9505 1.55581C31.8987 0.231492 32.1874 1.28937 32.4244 1.32791Z" fill="#474747"/>
<path fill-rule="evenodd" clip-rule="evenodd" d="M32.0179 1.16668C32.0146 1.26196 32.0156 1.38835 32.0221 1.55299C32.0483 2.22261 31.9652 2.73486 31.8749 3.08093C31.8298 3.25393 31.7829 3.38533 31.7469 3.47403C31.7289 3.51838 31.7137 3.55206 31.7028 3.57492C31.6983 3.58443 31.6945 3.59207 31.6916 3.59783C31.679 3.74058 31.7861 3.85868 31.9233 3.89289C31.9919 3.90999 32.062 3.90381 32.1206 3.87154C32.1762 3.84091 32.2281 3.78303 32.2582 3.68312C32.2379 3.15798 32.3208 2.65061 32.4085 2.27471C32.4528 2.0851 32.4984 1.9283 32.5331 1.81873C32.5504 1.76392 32.565 1.7209 32.5753 1.69144C32.5805 1.67671 32.5845 1.66537 32.5874 1.65765C32.588 1.6559 32.5886 1.65433 32.5891 1.65295C32.6063 1.52676 32.5253 1.41684 32.4129 1.39856C32.3608 1.39009 32.317 1.35623 32.2836 1.3233C32.2486 1.28879 32.2152 1.24538 32.1847 1.20246C32.164 1.17329 32.1432 1.14222 32.1236 1.11304C32.1146 1.09953 32.1058 1.08643 32.0974 1.07411C32.0736 1.03909 32.053 1.01015 32.0351 0.988995C32.0271 1.02531 32.0208 1.08216 32.0179 1.16668ZM32.7257 1.69636L32.7257 1.69643L32.7255 1.69687L32.7248 1.69878C32.7242 1.70053 32.7232 1.7032 32.7219 1.70677C32.7193 1.7139 32.7154 1.72463 32.7105 1.73873C32.7006 1.76692 32.6865 1.80858 32.6696 1.8619C32.6359 1.96857 32.5913 2.12179 32.548 2.30726C32.4612 2.67875 32.3804 3.17707 32.4017 3.68885L32.4022 3.70009L32.3992 3.71094C32.361 3.84884 32.2857 3.94405 32.1897 3.99696C32.0947 4.04929 31.9866 4.05626 31.8887 4.03183C31.6965 3.98392 31.5192 3.80576 31.551 3.5672L31.5527 3.55402L31.559 3.54243L31.5591 3.54234L31.5597 3.54116C31.5603 3.54008 31.5612 3.53834 31.5624 3.53592C31.5649 3.53109 31.5687 3.52356 31.5735 3.51336C31.5832 3.49297 31.5973 3.46188 31.6142 3.42024C31.648 3.33696 31.6929 3.21145 31.7364 3.04478C31.8233 2.71151 31.9046 2.21333 31.879 1.55859C31.8725 1.39216 31.8713 1.2619 31.8748 1.1617C31.8782 1.06267 31.8863 0.988764 31.9003 0.937299C31.9072 0.91175 31.9169 0.886612 31.932 0.866057C31.948 0.844147 31.973 0.824086 32.0075 0.820359C32.0395 0.816915 32.066 0.829044 32.0837 0.840305C32.1018 0.851859 32.118 0.867202 32.1319 0.882331C32.1597 0.912599 32.1884 0.953242 32.2159 0.993643C32.2254 1.00759 32.2347 1.02156 32.2441 1.03551C32.263 1.06378 32.2819 1.09194 32.3015 1.11956C32.3306 1.16054 32.3582 1.19575 32.3841 1.2213C32.4116 1.24843 32.4288 1.25607 32.4359 1.25722C32.6348 1.28957 32.762 1.48218 32.7294 1.68245L32.7283 1.68959L32.7257 1.69636Z" fill="#424242"/>
<path d="M33.1516 1.48274C33.0877 1.578 33.0057 1.65975 32.9102 1.7233C32.8146 1.78685 32.7076 1.83097 32.595 1.85314C32.4824 1.8753 32.3666 1.87508 32.2541 1.85248C32.1417 1.82988 32.0347 1.78535 31.9395 1.72144C31.8442 1.65752 31.7625 1.57546 31.6989 1.47995C31.6354 1.38444 31.5912 1.27735 31.5691 1.16479C31.5469 1.05222 31.5471 0.936401 31.5697 0.823926C31.5923 0.711452 31.6369 0.604529 31.7008 0.509264C31.7647 0.413998 31.8468 0.332256 31.9423 0.268703C32.0378 0.20515 32.1449 0.161031 32.2574 0.138866C32.37 0.116701 32.4858 0.116924 32.5983 0.139521C32.7108 0.162118 32.8177 0.206648 32.9129 0.270567C33.0082 0.334486 33.09 0.416543 33.1535 0.512053C33.2171 0.607563 33.2612 0.714656 33.2833 0.827217C33.3055 0.939777 33.3053 1.0556 33.2827 1.16808C33.2601 1.28055 33.2156 1.38747 33.1516 1.48274Z" fill="#474747"/>
<path fill-rule="evenodd" clip-rule="evenodd" d="M32.5774 0.243251C32.4786 0.223391 32.3768 0.223195 32.2779 0.242675C32.1789 0.262155 32.0848 0.30093 32.0009 0.356785C31.9169 0.41264 31.8448 0.484481 31.7886 0.568206C31.7325 0.651932 31.6933 0.745903 31.6735 0.844754C31.6536 0.943604 31.6534 1.0454 31.6729 1.14432C31.6924 1.24325 31.7311 1.33737 31.787 1.42131C31.8428 1.50525 31.9147 1.57737 31.9984 1.63355C32.0821 1.68972 32.1761 1.72886 32.275 1.74872C32.3738 1.76858 32.4756 1.76877 32.5745 1.74929C32.6735 1.72981 32.7676 1.69104 32.8515 1.63518C32.9355 1.57933 33.0076 1.50749 33.0638 1.42376C33.1199 1.34004 33.1591 1.24607 33.1789 1.14722C33.1988 1.04837 33.199 0.946571 33.1795 0.847645C33.16 0.748719 33.1212 0.654599 33.0654 0.570658C33.0095 0.486717 32.9377 0.4146 32.854 0.358423C32.7702 0.302246 32.6763 0.26311 32.5774 0.243251ZM32.237 0.0350249C32.3632 0.0101749 32.493 0.0104247 32.6191 0.035759C32.7452 0.0610934 32.8651 0.111017 32.9719 0.182679C33.0787 0.25434 33.1703 0.346337 33.2416 0.453416C33.3128 0.560495 33.3623 0.68056 33.3872 0.806755C33.412 0.93295 33.4118 1.0628 33.3864 1.1889C33.3611 1.315 33.3112 1.43488 33.2395 1.54168C33.1678 1.64849 33.0758 1.74013 32.9688 1.81138C32.8617 1.88263 32.7416 1.93209 32.6154 1.95694C32.4892 1.98179 32.3594 1.98155 32.2333 1.95621C32.1072 1.93088 31.9873 1.88095 31.8805 1.80929C31.7737 1.73763 31.682 1.64563 31.6108 1.53855C31.5395 1.43147 31.4901 1.31141 31.4652 1.18521C31.4404 1.05902 31.4406 0.929166 31.466 0.803067C31.4913 0.676969 31.5412 0.557094 31.6129 0.450289C31.6845 0.343484 31.7765 0.25184 31.8836 0.180589C31.9907 0.109338 32.1108 0.059875 32.237 0.0350249Z" fill="#3C3C3C"/>
<path d="M33.3027 5.68795C33.3031 5.74967 33.2907 5.81085 33.2664 5.86797C33.242 5.92509 33.2061 5.97703 33.1608 6.02079C33.1155 6.06456 33.0616 6.09929 33.0022 6.12299C32.9428 6.14668 32.8792 6.15888 32.8149 6.15888C32.7506 6.15888 32.6869 6.14668 32.6276 6.12299C32.5682 6.09929 32.5143 6.06456 32.469 6.02079C32.4236 5.97703 32.3878 5.92509 32.3634 5.86797C32.339 5.81085 32.3267 5.74967 32.327 5.68795C32.3267 5.62623 32.339 5.56505 32.3634 5.50792C32.3878 5.4508 32.4236 5.39887 32.469 5.3551C32.5143 5.31134 32.5682 5.27661 32.6276 5.25291C32.6869 5.22921 32.7506 5.21701 32.8149 5.21701C32.8792 5.21701 32.9428 5.22921 33.0022 5.25291C33.0616 5.27661 33.1155 5.31134 33.1608 5.3551C33.2061 5.39887 33.242 5.4508 33.2664 5.50792C33.2907 5.56505 33.3031 5.62623 33.3027 5.68795Z" fill="#212121"/>
<path fill-rule="evenodd" clip-rule="evenodd" d="M32.8149 5.33872C32.766 5.33872 32.7176 5.34801 32.6727 5.36594C32.6278 5.38387 32.5873 5.41002 32.5535 5.44266C32.5197 5.47529 32.4932 5.51374 32.4754 5.55565C32.4575 5.59756 32.4485 5.64226 32.4488 5.68723L32.4488 5.68793L32.4488 5.68863C32.4485 5.7336 32.4575 5.7783 32.4754 5.82021C32.4932 5.86213 32.5197 5.90058 32.5535 5.9332C32.5873 5.96584 32.6278 5.992 32.6727 6.00993C32.7176 6.02786 32.766 6.03715 32.8149 6.03715C32.8638 6.03715 32.9122 6.02786 32.9571 6.00993C33.002 5.992 33.0425 5.96584 33.0763 5.9332C33.1101 5.90058 33.1366 5.86213 33.1544 5.82021C33.1723 5.7783 33.1813 5.7336 33.181 5.68863L33.181 5.68793L33.181 5.68723C33.1813 5.64226 33.1723 5.59756 33.1544 5.55565C33.1366 5.51374 33.1101 5.47529 33.0763 5.44266C33.0425 5.41002 33.002 5.38387 32.9571 5.36594C32.9122 5.34801 32.8638 5.33872 32.8149 5.33872ZM32.5825 5.13985C32.6563 5.11039 32.7352 5.09528 32.8149 5.09528C32.8946 5.09528 32.9735 5.11039 33.0474 5.13985C33.1212 5.16932 33.1885 5.21262 33.2454 5.26751C33.3022 5.32241 33.3475 5.38784 33.3784 5.46017C33.4091 5.53229 33.4248 5.6097 33.4245 5.68793C33.4248 5.76617 33.4091 5.84358 33.3784 5.9157C33.3475 5.98802 33.3022 6.05345 33.2454 6.10835C33.1885 6.16324 33.1212 6.20655 33.0474 6.23602C32.9735 6.26548 32.8946 6.28059 32.8149 6.28059C32.7352 6.28059 32.6563 6.26548 32.5825 6.23602C32.5086 6.20655 32.4413 6.16324 32.3844 6.10835C32.3276 6.05345 32.2823 5.98802 32.2514 5.9157C32.2207 5.84358 32.205 5.76617 32.2053 5.68793C32.205 5.6097 32.2207 5.53229 32.2514 5.46017C32.2823 5.38784 32.3276 5.32241 32.3844 5.26751C32.4413 5.21262 32.5086 5.16932 32.5825 5.13985Z" fill="url(#paint4_linear_844_10584)"/>
<path fill-rule="evenodd" clip-rule="evenodd" d="M33.4975 5.10098C33.3336 5.08829 33.1808 5.07112 33.0381 5.05508C33.0001 5.05081 32.9629 5.04663 32.9264 5.04263C32.7536 5.02371 32.595 5.00879 32.4548 5.01077C32.3147 5.01274 32.1868 5.03155 32.0776 5.08438C31.9663 5.13827 31.8794 5.22512 31.8182 5.35322C31.6959 5.6097 31.7411 5.91127 31.8967 6.18586C32.0526 6.46108 32.3229 6.71731 32.6691 6.89323C33.0153 7.06913 33.3775 7.13434 33.685 7.09388C33.9923 7.05347 34.2527 6.90562 34.3753 6.64854C34.4961 6.39538 34.4739 6.02548 34.3293 5.71498C34.1833 5.40156 33.905 5.1325 33.4975 5.10098ZM31.9475 5.41487C31.9955 5.31418 32.0598 5.25209 32.14 5.21328C32.2224 5.17343 32.3264 5.15578 32.4568 5.15395C32.5871 5.15211 32.7376 5.16602 32.9108 5.18497C32.9466 5.18889 32.9833 5.19302 33.0209 5.19724L33.4865 5.24374C33.8288 5.27023 34.0689 5.49505 34.1995 5.77542C34.3314 6.05869 34.3436 6.38246 34.2461 6.58689C34.1504 6.78739 33.9415 6.91571 33.6664 6.95191C33.3915 6.98807 33.0583 6.93033 32.734 6.76557C32.4098 6.60083 32.1617 6.36318 32.0213 6.11528C31.8805 5.86676 31.8516 5.61598 31.9475 5.41487Z" fill="#015A01"/>
<defs>
<linearGradient id="paint0_linear_844_10584" x1="16.2796" y1="13.6817" x2="36.6342" y2="18.5532" gradientUnits="userSpaceOnUse">
<stop stop-color="#6D5744"/>
<stop offset="1" stop-color="#6D5744" stop-opacity="0"/>
</linearGradient>
<linearGradient id="paint1_linear_844_10584" x1="23.5039" y1="45.3524" x2="33.3099" y2="56.8481" gradientUnits="userSpaceOnUse">
<stop stop-color="#6D5744"/>
<stop offset="1" stop-color="#6D5744" stop-opacity="0"/>
</linearGradient>
<linearGradient id="paint2_linear_844_10584" x1="33.6705" y1="9.65718" x2="33.398" y2="8.30457" gradientUnits="userSpaceOnUse">
<stop stop-color="#212121"/>
<stop offset="1" stop-color="#212121" stop-opacity="0"/>
</linearGradient>
<linearGradient id="paint3_linear_844_10584" x1="30.1003" y1="6.26263" x2="31.3193" y2="6.26263" gradientUnits="userSpaceOnUse">
<stop stop-color="#6600CC"/>
<stop offset="1" stop-color="#6600CC" stop-opacity="0"/>
</linearGradient>
<linearGradient id="paint4_linear_844_10584" x1="32.2047" y1="5.68747" x2="33.4238" y2="5.68747" gradientUnits="userSpaceOnUse">
<stop stop-color="#6600CC"/>
<stop offset="1" stop-color="#6600CC" stop-opacity="0"/>
</linearGradient>
</defs>
</svg>
