<svg width="30" height="30" viewBox="0 0 30 30" fill="none" xmlns="http://www.w3.org/2000/svg">
<g clip-path="url(#clip0_762_10203)">
<path d="M8.20312 2.82816C3.67188 2.82816 0 2.19503 0 1.41394V16.6891C0 17.4703 3.67188 18.1035 8.20312 18.1035C12.7344 18.1035 16.4062 17.4702 16.4062 16.6891V1.41441C16.4062 2.1955 12.7344 2.82816 8.20312 2.82816Z" fill="#B9CED9"/>
<path d="M0 1.41437V16.6891C0 17.4703 3.67188 18.1034 8.20312 18.1034V2.82812C3.67266 2.82812 0 2.19546 0 1.41437Z" fill="#A1BDCC"/>
<path d="M15.2749 2.13156V17.4062C15.9937 17.1961 16.4063 16.9509 16.4063 16.6892V1.41437C16.4063 1.67609 15.9938 1.92187 15.2749 2.13156Z" fill="#A1BDCC"/>
<path d="M8.20312 2.82875C12.7336 2.82875 16.4062 2.19551 16.4062 1.41437C16.4062 0.633237 12.7336 0 8.20312 0C3.67266 0 0 0.633237 0 1.41437C0 2.19551 3.67266 2.82875 8.20312 2.82875Z" fill="#8AADBF"/>
<path d="M0 11.0312C0 11.8125 3.67188 12.4456 8.20312 12.4456C12.7344 12.4456 16.4062 11.8125 16.4062 11.0312V12.1628C16.4062 12.9441 12.7344 13.5772 8.20312 13.5772C3.67188 13.5772 0 12.9444 0 12.1633V11.0312Z" fill="#789EB2"/>
<path d="M16.4062 5.94019C16.4062 6.72144 12.7344 7.35456 8.20312 7.35456C3.67188 7.35456 0 6.72128 0 5.94019V7.07175C0 7.853 3.67188 8.48597 8.20312 8.48597C12.7344 8.48597 16.4062 7.85284 16.4062 7.07175V5.94019Z" fill="#789EB2"/>
<path d="M28.125 10.3125H12.1875C11.152 10.3125 10.3125 11.152 10.3125 12.1875V28.125C10.3125 29.1605 11.152 30 12.1875 30H28.125C29.1605 30 30 29.1605 30 28.125V12.1875C30 11.152 29.1605 10.3125 28.125 10.3125Z" fill="#F80000"/>
<path d="M25.7231 16.5015C25.6852 16.5634 25.639 16.6219 25.5848 16.6773C25.5316 16.7315 25.4709 16.7782 25.4025 16.8173C25.3298 16.8585 25.256 16.8894 25.1811 16.91C25.1074 16.9317 25.0222 16.9426 24.9256 16.9426C24.765 16.9426 24.6261 16.9198 24.5089 16.8742C24.3928 16.8287 24.2968 16.7673 24.2209 16.6903C24.1449 16.6133 24.0879 16.5227 24.05 16.4185C24.0131 16.3132 23.9946 16.1993 23.9946 16.0767C23.9946 15.966 24.0147 15.8602 24.0548 15.7593C24.0961 15.6573 24.1541 15.5667 24.229 15.4875C24.3028 15.4105 24.3956 15.3481 24.5073 15.3003C24.6202 15.2526 24.746 15.2287 24.8849 15.2287C25.0368 15.2287 25.1616 15.2472 25.2593 15.2841C25.3569 15.3209 25.4378 15.3719 25.5018 15.4371C25.5636 15.4989 25.6087 15.5721 25.6369 15.6568C25.6651 15.7403 25.6792 15.8282 25.6792 15.9204V16.0262H24.5789C24.5789 16.2487 24.6218 16.418 24.7075 16.5341C24.7932 16.6502 24.9294 16.7082 25.116 16.7082C25.218 16.7082 25.3097 16.6805 25.3911 16.6252C25.4725 16.5688 25.5419 16.4977 25.5994 16.412L25.7231 16.5015ZM25.1014 15.883C25.1014 15.8179 25.0981 15.7512 25.0916 15.6828C25.0851 15.6145 25.0737 15.5586 25.0574 15.5152C25.039 15.4642 25.0135 15.4257 24.9809 15.3996C24.9495 15.3736 24.9093 15.3606 24.8605 15.3606C24.777 15.3606 24.7102 15.4029 24.6603 15.4875C24.6104 15.5721 24.5833 15.7061 24.5789 15.8895L25.1014 15.883Z" fill="white"/>
<path d="M23.8156 16.8905H22.7951V16.7717C22.8233 16.7695 22.8504 16.7668 22.8765 16.7635C22.9036 16.7603 22.9275 16.7549 22.9481 16.7473C22.9828 16.7343 23.0061 16.7158 23.0181 16.6919C23.0311 16.667 23.0376 16.6344 23.0376 16.5943V14.7909C23.0376 14.7497 23.0289 14.7117 23.0115 14.677C22.9953 14.6412 22.973 14.614 22.9448 14.5956C22.9231 14.5815 22.89 14.5679 22.8455 14.5549C22.8021 14.5419 22.7636 14.5343 22.73 14.5321V14.4133L23.5487 14.371L23.5731 14.397V16.5731C23.5731 16.6133 23.5801 16.6458 23.5942 16.6708C23.6083 16.6957 23.6311 16.7153 23.6626 16.7294C23.6843 16.7391 23.7071 16.7478 23.7309 16.7554C23.7548 16.763 23.783 16.7684 23.8156 16.7717V16.8905Z" fill="white"/>
<path d="M21.9829 16.9426C21.8321 16.9426 21.6986 16.9209 21.5825 16.8775C21.4675 16.833 21.3726 16.7728 21.2977 16.6968C21.2228 16.6198 21.1669 16.5286 21.13 16.4234C21.0931 16.3181 21.0747 16.2037 21.0747 16.08C21.0747 15.9671 21.0969 15.8597 21.1414 15.7577C21.187 15.6557 21.2483 15.5662 21.3253 15.4891C21.4046 15.4099 21.5028 15.347 21.6199 15.3003C21.7382 15.2526 21.8684 15.2287 22.0106 15.2287C22.2102 15.2287 22.3681 15.2667 22.4842 15.3427C22.6003 15.4175 22.6584 15.519 22.6584 15.647C22.6584 15.7251 22.6377 15.7881 22.5965 15.8358C22.5553 15.8836 22.4842 15.9074 22.3833 15.9074C22.3019 15.9074 22.2336 15.8879 22.1782 15.8488C22.124 15.8098 22.0968 15.7588 22.0968 15.6958C22.0968 15.6427 22.1055 15.59 22.1229 15.538C22.1402 15.4859 22.1505 15.4463 22.1538 15.4191C22.1419 15.3996 22.1267 15.385 22.1082 15.3752C22.0898 15.3644 22.061 15.3589 22.022 15.3589C21.9731 15.3589 21.9286 15.3703 21.8885 15.3931C21.8484 15.4159 21.8109 15.456 21.7762 15.5135C21.7426 15.5678 21.7154 15.6405 21.6948 15.7316C21.6753 15.8228 21.6655 15.9324 21.6655 16.0604C21.6655 16.2536 21.7106 16.4093 21.8006 16.5275C21.8918 16.6458 22.0003 16.705 22.1261 16.705C22.2466 16.705 22.3421 16.6784 22.4126 16.6252C22.4842 16.5709 22.5477 16.4945 22.603 16.3957L22.7251 16.4803C22.6915 16.5465 22.6513 16.6073 22.6046 16.6626C22.558 16.7169 22.5021 16.7652 22.437 16.8075C22.3686 16.852 22.2992 16.8856 22.2287 16.9084C22.1581 16.9312 22.0762 16.9426 21.9829 16.9426Z" fill="white"/>
<path d="M20.9282 16.8563C20.8805 16.8769 20.824 16.8959 20.7589 16.9133C20.6938 16.9306 20.6249 16.9393 20.5522 16.9393C20.4188 16.9393 20.3206 16.9198 20.2576 16.8807C20.1947 16.8406 20.1518 16.7836 20.1291 16.7098H20.1193C20.0824 16.7467 20.0466 16.7782 20.0119 16.8042C19.9782 16.8303 19.9419 16.8525 19.9028 16.871C19.8518 16.8948 19.8025 16.9122 19.7547 16.9231C19.7081 16.935 19.6424 16.941 19.5578 16.941C19.4319 16.941 19.3245 16.9041 19.2355 16.8303C19.1465 16.7554 19.102 16.6567 19.102 16.5341C19.102 16.4635 19.1118 16.4038 19.1313 16.355C19.1509 16.3051 19.1785 16.2612 19.2143 16.2232C19.2469 16.1885 19.2843 16.1597 19.3267 16.1369C19.3701 16.1141 19.4173 16.093 19.4683 16.0734C19.5659 16.0376 19.6831 16.0007 19.8198 15.9628C19.9565 15.9237 20.0564 15.889 20.1193 15.8586V15.7024C20.1193 15.6752 20.1171 15.6394 20.1128 15.5949C20.1084 15.5504 20.0992 15.513 20.0851 15.4826C20.0699 15.4479 20.0461 15.4186 20.0135 15.3947C19.981 15.3709 19.9381 15.3589 19.8849 15.3589C19.8372 15.3589 19.797 15.366 19.7645 15.3801C19.733 15.3931 19.7075 15.4067 19.688 15.4208C19.6912 15.4425 19.7005 15.4756 19.7157 15.5201C19.7308 15.5645 19.7384 15.6074 19.7384 15.6486C19.7384 15.6671 19.7336 15.6904 19.7238 15.7186C19.714 15.7458 19.6999 15.7675 19.6815 15.7837C19.6565 15.8054 19.6283 15.8223 19.5968 15.8342C19.5665 15.8461 19.5193 15.8521 19.4552 15.8521C19.3641 15.8521 19.2952 15.8304 19.2485 15.787C19.2019 15.7425 19.1785 15.685 19.1785 15.6145C19.1785 15.5537 19.2024 15.4994 19.2502 15.4517C19.299 15.4029 19.3581 15.3627 19.4276 15.3313C19.4959 15.2987 19.5746 15.2737 19.6636 15.2564C19.7525 15.2379 19.835 15.2287 19.911 15.2287C20.0162 15.2287 20.1128 15.2352 20.2007 15.2482C20.2886 15.2602 20.3678 15.2857 20.4383 15.3247C20.5056 15.3627 20.5587 15.4181 20.5978 15.4908C20.638 15.5624 20.658 15.6562 20.658 15.7723C20.658 15.895 20.6553 16.0403 20.6499 16.2085C20.6456 16.3767 20.6434 16.4874 20.6434 16.5406C20.6434 16.5894 20.6504 16.6279 20.6645 16.6561C20.6797 16.6843 20.7025 16.7055 20.7329 16.7196C20.7513 16.7283 20.7801 16.7337 20.8192 16.7359C20.8593 16.737 20.8957 16.7375 20.9282 16.7375V16.8563ZM20.1193 16.0083C20.0585 16.029 19.9983 16.0528 19.9386 16.08C19.879 16.106 19.8301 16.1337 19.7921 16.163C19.752 16.1933 19.7205 16.2324 19.6977 16.2801C19.675 16.3268 19.6636 16.3821 19.6636 16.4462C19.6636 16.5308 19.6826 16.5921 19.7205 16.6301C19.7596 16.6681 19.8073 16.6871 19.8638 16.6871C19.9234 16.6871 19.9723 16.6751 20.0102 16.6512C20.0493 16.6263 20.0835 16.5959 20.1128 16.5601L20.1193 16.0083Z" fill="white"/>
<path d="M18.9539 15.5738C18.9539 15.6562 18.9284 15.7289 18.8774 15.7919C18.8264 15.8537 18.7592 15.8846 18.6756 15.8846C18.5964 15.8846 18.5291 15.8646 18.4738 15.8244C18.4195 15.7843 18.3924 15.7251 18.3924 15.647C18.3924 15.609 18.3951 15.5797 18.4005 15.5591C18.406 15.5374 18.4109 15.5173 18.4152 15.4989C18.3653 15.5011 18.3127 15.5184 18.2573 15.551C18.202 15.5835 18.1532 15.6269 18.1108 15.6812V16.5747C18.1108 16.6127 18.1168 16.6442 18.1287 16.6691C18.1407 16.6941 18.1607 16.7136 18.189 16.7277C18.2128 16.7397 18.2514 16.75 18.3045 16.7587C18.3588 16.7663 18.3978 16.7706 18.4217 16.7717V16.8905H17.3328V16.7717C17.36 16.7695 17.3871 16.7668 17.4142 16.7635C17.4424 16.7592 17.4663 16.7538 17.4858 16.7473C17.5206 16.7353 17.5444 16.7169 17.5575 16.6919C17.5705 16.667 17.577 16.6344 17.577 16.5943V15.647C17.577 15.6079 17.5678 15.5732 17.5493 15.5428C17.5309 15.5114 17.5086 15.4864 17.4826 15.468C17.463 15.455 17.4381 15.4441 17.4077 15.4354C17.3784 15.4267 17.3459 15.4208 17.3101 15.4175V15.2987L18.0864 15.2564L18.1108 15.2808V15.5168H18.1173C18.1922 15.43 18.2714 15.3622 18.355 15.3134C18.4396 15.2634 18.5275 15.2385 18.6186 15.2385C18.7196 15.2385 18.8004 15.27 18.8612 15.3329C18.923 15.3947 18.9539 15.475 18.9539 15.5738Z" fill="white"/>
<path d="M16.7502 14.8381C16.8641 14.9423 16.9542 15.0681 17.0203 15.2157C17.0876 15.3633 17.1213 15.5315 17.1213 15.7203C17.1213 15.8884 17.093 16.0485 17.0366 16.2004C16.9802 16.3523 16.8988 16.4831 16.7925 16.5926C16.6807 16.7066 16.5494 16.7956 16.3986 16.8596C16.2478 16.9225 16.0682 16.954 15.8599 16.954C15.6917 16.954 15.5327 16.9263 15.383 16.871C15.2332 16.8156 15.1014 16.7353 14.9875 16.6301C14.8746 16.527 14.7851 16.4017 14.7189 16.2541C14.6527 16.1065 14.6196 15.9422 14.6196 15.7609C14.6196 15.5721 14.6516 15.4012 14.7157 15.2482C14.7808 15.0942 14.8697 14.9623 14.9826 14.8527C15.0943 14.7453 15.2267 14.6629 15.3797 14.6053C15.5338 14.5468 15.6976 14.5175 15.8713 14.5175C16.0438 14.5175 16.2055 14.5457 16.3563 14.6021C16.5082 14.6585 16.6395 14.7372 16.7502 14.8381ZM16.3319 16.4901C16.3807 16.3914 16.416 16.2796 16.4377 16.1548C16.4594 16.03 16.4702 15.889 16.4702 15.7316C16.4702 15.5982 16.4604 15.4685 16.4409 15.3427C16.4225 15.2157 16.3905 15.1029 16.3449 15.0041C16.2982 14.9054 16.2364 14.8262 16.1593 14.7665C16.0823 14.7068 15.9863 14.677 15.8713 14.677C15.6749 14.677 15.5257 14.7703 15.4237 14.9569C15.3217 15.1425 15.2707 15.405 15.2707 15.7447C15.2707 15.889 15.2815 16.0252 15.3032 16.1532C15.326 16.2812 15.3613 16.393 15.409 16.4885C15.4578 16.5851 15.5197 16.6605 15.5946 16.7147C15.6694 16.7679 15.7617 16.7945 15.8713 16.7945C15.9787 16.7945 16.0709 16.7673 16.1479 16.7131C16.225 16.6588 16.2863 16.5845 16.3319 16.4901Z" fill="white"/>
<path d="M27.9969 20.6682C27.9589 20.73 27.9128 20.7886 27.8585 20.8439C27.8054 20.8982 27.7446 20.9449 27.6763 20.9839C27.6036 21.0252 27.5298 21.0561 27.4549 21.0767C27.3811 21.0984 27.2959 21.1092 27.1994 21.1092C27.0388 21.1092 26.8999 21.0865 26.7827 21.0409C26.6666 20.9953 26.5706 20.934 26.4946 20.857C26.4187 20.7799 26.3617 20.6893 26.3237 20.5852C26.2868 20.4799 26.2684 20.366 26.2684 20.2434C26.2684 20.1327 26.2885 20.0269 26.3286 19.926C26.3698 19.824 26.4279 19.7334 26.5028 19.6542C26.5765 19.5771 26.6693 19.5147 26.7811 19.467C26.8939 19.4193 27.0198 19.3954 27.1587 19.3954C27.3106 19.3954 27.4354 19.4138 27.533 19.4507C27.6307 19.4876 27.7115 19.5386 27.7755 19.6037C27.8374 19.6656 27.8824 19.7388 27.9106 19.8234C27.9388 19.907 27.9529 19.9949 27.9529 20.0871V20.1929H26.8527C26.8527 20.4153 26.8955 20.5846 26.9813 20.7007C27.067 20.8168 27.2032 20.8749 27.3898 20.8749C27.4918 20.8749 27.5835 20.8472 27.6649 20.7919C27.7462 20.7354 27.8157 20.6644 27.8732 20.5786L27.9969 20.6682ZM27.3751 20.0497C27.3751 19.9846 27.3719 19.9178 27.3654 19.8495C27.3589 19.7811 27.3475 19.7252 27.3312 19.6818C27.3128 19.6308 27.2873 19.5923 27.2547 19.5663C27.2232 19.5402 27.1831 19.5272 27.1343 19.5272C27.0507 19.5272 26.984 19.5695 26.9341 19.6542C26.8842 19.7388 26.857 19.8728 26.8527 20.0562L27.3751 20.0497Z" fill="white"/>
<path d="M25.2918 21.1125C25.1866 21.1125 25.0835 21.0968 24.9826 21.0653C24.8827 21.0349 24.8052 21.0024 24.7498 20.9676L24.701 21.0783H24.574L24.5529 20.4712H24.6717C24.688 20.5201 24.7151 20.5754 24.7531 20.6372C24.7911 20.698 24.8345 20.7528 24.8833 20.8016C24.9343 20.8505 24.9923 20.8917 25.0574 20.9253C25.1236 20.959 25.1942 20.9758 25.269 20.9758C25.3678 20.9758 25.441 20.9568 25.4888 20.9188C25.5376 20.8798 25.562 20.8201 25.562 20.7398C25.562 20.6964 25.5511 20.6606 25.5294 20.6324C25.5077 20.6041 25.4779 20.5797 25.4399 20.5591C25.3976 20.5374 25.351 20.519 25.3 20.5038C25.25 20.4886 25.1882 20.4701 25.1144 20.4484C25.0406 20.4267 24.9771 20.405 24.924 20.3833C24.8719 20.3605 24.8176 20.3253 24.7612 20.2775C24.7124 20.2352 24.6733 20.1842 24.644 20.1245C24.6147 20.0649 24.6001 19.9938 24.6001 19.9113C24.6001 19.7583 24.6641 19.6346 24.7921 19.5402C24.9213 19.4458 25.09 19.3986 25.2983 19.3986C25.3971 19.3986 25.4877 19.4089 25.5701 19.4296C25.6537 19.4491 25.7237 19.4708 25.7801 19.4947L25.8143 19.3986H25.938L25.964 19.9536H25.8485C25.8105 19.8408 25.7454 19.7437 25.6531 19.6623C25.5609 19.5798 25.4616 19.5386 25.3553 19.5386C25.2717 19.5386 25.2061 19.556 25.1584 19.5907C25.1106 19.6254 25.0867 19.6737 25.0867 19.7355C25.0867 19.818 25.1215 19.8777 25.1909 19.9146C25.2614 19.9515 25.3596 19.9862 25.4855 20.0188C25.6797 20.0687 25.8219 20.137 25.9119 20.2238C26.002 20.3095 26.047 20.4191 26.047 20.5526C26.047 20.7306 25.977 20.8684 25.8371 20.966C25.6982 21.0637 25.5164 21.1125 25.2918 21.1125Z" fill="white"/>
<path d="M24.4129 21.023C24.3652 21.0436 24.3087 21.0626 24.2436 21.0799C24.1785 21.0973 24.1096 21.106 24.0369 21.106C23.9035 21.106 23.8053 21.0865 23.7423 21.0474C23.6794 21.0072 23.6365 20.9503 23.6138 20.8765H23.604C23.5671 20.9134 23.5313 20.9449 23.4966 20.9709C23.4629 20.9969 23.4266 21.0192 23.3875 21.0376C23.3365 21.0615 23.2872 21.0789 23.2394 21.0897C23.1928 21.1016 23.1271 21.1076 23.0425 21.1076C22.9166 21.1076 22.8092 21.0707 22.7202 20.9969C22.6312 20.9221 22.5867 20.8233 22.5867 20.7007C22.5867 20.6302 22.5965 20.5705 22.616 20.5217C22.6356 20.4718 22.6632 20.4278 22.699 20.3898C22.7316 20.3551 22.769 20.3264 22.8114 20.3036C22.8548 20.2808 22.902 20.2596 22.953 20.2401C23.0506 20.2043 23.1678 20.1674 23.3045 20.1294C23.4412 20.0904 23.5411 20.0556 23.604 20.0253V19.869C23.604 19.8419 23.6018 19.8061 23.5975 19.7616C23.5931 19.7171 23.5839 19.6797 23.5698 19.6493C23.5546 19.6146 23.5308 19.5853 23.4982 19.5614C23.4656 19.5375 23.4228 19.5256 23.3696 19.5256C23.3219 19.5256 23.2817 19.5326 23.2492 19.5467C23.2177 19.5598 23.1922 19.5733 23.1727 19.5874C23.1759 19.6091 23.1852 19.6422 23.2003 19.6867C23.2155 19.7312 23.2231 19.7741 23.2231 19.8153C23.2231 19.8337 23.2183 19.8571 23.2085 19.8853C23.1987 19.9124 23.1846 19.9341 23.1662 19.9504C23.1412 19.9721 23.113 19.9889 23.0815 20.0008C23.0512 20.0128 23.004 20.0188 22.9399 20.0188C22.8488 20.0188 22.7799 19.9971 22.7332 19.9536C22.6866 19.9092 22.6632 19.8517 22.6632 19.7811C22.6632 19.7204 22.6871 19.6661 22.7349 19.6184C22.7837 19.5695 22.8428 19.5294 22.9123 19.4979C22.9806 19.4654 23.0593 19.4404 23.1483 19.423C23.2372 19.4046 23.3197 19.3954 23.3957 19.3954C23.5009 19.3954 23.5975 19.4019 23.6854 19.4149C23.7733 19.4268 23.8525 19.4523 23.923 19.4914C23.9903 19.5294 24.0434 19.5847 24.0825 19.6574C24.1227 19.729 24.1427 19.8229 24.1427 19.939C24.1427 20.0616 24.14 20.207 24.1346 20.3752C24.1303 20.5434 24.1281 20.6541 24.1281 20.7072C24.1281 20.7561 24.1351 20.7946 24.1492 20.8228C24.1644 20.851 24.1872 20.8722 24.2176 20.8863C24.236 20.8949 24.2648 20.9004 24.3039 20.9025C24.344 20.9036 24.3804 20.9042 24.4129 20.9042V21.023ZM23.604 20.175C23.5432 20.1956 23.483 20.2195 23.4233 20.2466C23.3637 20.2727 23.3148 20.3003 23.2768 20.3296C23.2367 20.36 23.2052 20.3991 23.1824 20.4468C23.1597 20.4935 23.1483 20.5488 23.1483 20.6128C23.1483 20.6975 23.1673 20.7588 23.2052 20.7967C23.2443 20.8347 23.292 20.8537 23.3485 20.8537C23.4081 20.8537 23.457 20.8418 23.4949 20.8179C23.534 20.7929 23.5682 20.7626 23.5975 20.7268L23.604 20.175Z" fill="white"/>
<path d="M22.3426 20.2613C22.3426 20.5054 22.2618 20.7078 22.1001 20.8684C21.9395 21.0289 21.7355 21.1092 21.4881 21.1092C21.3926 21.1092 21.3102 21.1022 21.2407 21.0881C21.1724 21.0751 21.1143 21.0588 21.0666 21.0393C21.0166 21.0186 20.9765 20.9986 20.9461 20.979C20.9168 20.9584 20.8935 20.9416 20.8761 20.9286L20.6434 21.1402L20.5474 21.1027C20.5528 21.0235 20.5571 20.9378 20.5604 20.8456C20.5647 20.7523 20.5669 20.6269 20.5669 20.4696V18.9462C20.5669 18.9049 20.5582 18.867 20.5408 18.8322C20.5246 18.7964 20.5023 18.7693 20.4741 18.7508C20.4535 18.7378 20.4231 18.7264 20.383 18.7167C20.3439 18.7069 20.3076 18.7009 20.2739 18.6988V18.58L21.078 18.5376L21.1024 18.5637V19.6216H21.1121C21.1913 19.5446 21.2727 19.4882 21.3563 19.4523C21.4398 19.4165 21.5234 19.3986 21.6069 19.3986C21.8348 19.3986 22.0144 19.4762 22.1457 19.6314C22.277 19.7865 22.3426 19.9965 22.3426 20.2613ZM21.7583 20.2808C21.7583 20.1983 21.7518 20.1191 21.7388 20.0432C21.7268 19.9661 21.7062 19.8983 21.6769 19.8397C21.6476 19.7811 21.6091 19.7345 21.5614 19.6997C21.5136 19.6639 21.4545 19.646 21.3839 19.646C21.3178 19.646 21.263 19.6569 21.2196 19.6786C21.1762 19.7003 21.1371 19.7323 21.1024 19.7746V20.7219C21.1089 20.7436 21.1208 20.7723 21.1382 20.8081C21.1566 20.8429 21.1751 20.87 21.1935 20.8895C21.2196 20.9177 21.2472 20.9394 21.2765 20.9546C21.3058 20.9687 21.3471 20.9758 21.4002 20.9758C21.5109 20.9758 21.5982 20.9156 21.6623 20.7951C21.7263 20.6736 21.7583 20.5021 21.7583 20.2808Z" fill="white"/>
<path d="M20.2755 21.023C20.2278 21.0436 20.1714 21.0626 20.1063 21.0799C20.0412 21.0973 19.9723 21.106 19.8996 21.106C19.7661 21.106 19.6679 21.0865 19.605 21.0474C19.542 21.0072 19.4992 20.9503 19.4764 20.8765H19.4666C19.4297 20.9134 19.3939 20.9449 19.3592 20.9709C19.3256 20.9969 19.2892 21.0192 19.2502 21.0376C19.1992 21.0615 19.1498 21.0789 19.102 21.0897C19.0554 21.1016 18.9897 21.1076 18.9051 21.1076C18.7792 21.1076 18.6718 21.0707 18.5828 20.9969C18.4939 20.9221 18.4494 20.8233 18.4494 20.7007C18.4494 20.6302 18.4591 20.5705 18.4787 20.5217C18.4982 20.4718 18.5259 20.4278 18.5617 20.3898C18.5942 20.3551 18.6317 20.3264 18.674 20.3036C18.7174 20.2808 18.7646 20.2596 18.8156 20.2401C18.9132 20.2043 19.0304 20.1674 19.1671 20.1294C19.3039 20.0904 19.4037 20.0556 19.4666 20.0253V19.869C19.4666 19.8419 19.4645 19.8061 19.4601 19.7616C19.4558 19.7171 19.4466 19.6797 19.4324 19.6493C19.4173 19.6146 19.3934 19.5853 19.3608 19.5614C19.3283 19.5375 19.2854 19.5256 19.2323 19.5256C19.1845 19.5256 19.1444 19.5326 19.1118 19.5467C19.0803 19.5598 19.0548 19.5733 19.0353 19.5874C19.0386 19.6091 19.0478 19.6422 19.063 19.6867C19.0782 19.7312 19.0858 19.7741 19.0858 19.8153C19.0858 19.8337 19.0809 19.8571 19.0711 19.8853C19.0614 19.9124 19.0472 19.9341 19.0288 19.9504C19.0038 19.9721 18.9756 19.9889 18.9442 20.0008C18.9138 20.0128 18.8666 20.0188 18.8026 20.0188C18.7114 20.0188 18.6425 19.9971 18.5959 19.9536C18.5492 19.9092 18.5259 19.8517 18.5259 19.7811C18.5259 19.7204 18.5497 19.6661 18.5975 19.6184C18.6463 19.5695 18.7055 19.5294 18.7749 19.4979C18.8433 19.4654 18.9219 19.4404 19.0109 19.423C19.0999 19.4046 19.1823 19.3954 19.2583 19.3954C19.3635 19.3954 19.4601 19.4019 19.548 19.4149C19.6359 19.4268 19.7151 19.4523 19.7856 19.4914C19.8529 19.5294 19.9061 19.5847 19.9451 19.6574C19.9853 19.729 20.0054 19.8229 20.0054 19.939C20.0054 20.0616 20.0027 20.207 19.9972 20.3752C19.9929 20.5434 19.9907 20.6541 19.9907 20.7072C19.9907 20.7561 19.9978 20.7946 20.0119 20.8228C20.0271 20.851 20.0499 20.8722 20.0802 20.8863C20.0987 20.8949 20.1274 20.9004 20.1665 20.9025C20.2066 20.9036 20.243 20.9042 20.2755 20.9042V21.023ZM19.4666 20.175C19.4059 20.1956 19.3456 20.2195 19.286 20.2466C19.2263 20.2727 19.1775 20.3003 19.1395 20.3296C19.0993 20.36 19.0679 20.3991 19.0451 20.4468C19.0223 20.4935 19.0109 20.5488 19.0109 20.6128C19.0109 20.6975 19.0299 20.7588 19.0679 20.7967C19.1069 20.8347 19.1547 20.8537 19.2111 20.8537C19.2708 20.8537 19.3196 20.8418 19.3576 20.8179C19.3966 20.7929 19.4308 20.7626 19.4601 20.7268L19.4666 20.175Z" fill="white"/>
<path d="M18.3013 20.9823C18.2318 21.0127 18.1575 21.0398 18.0783 21.0637C17.9991 21.0886 17.9025 21.1011 17.7886 21.1011C17.6193 21.1011 17.4934 21.0599 17.411 20.9774C17.3296 20.8949 17.2889 20.7772 17.2889 20.6242V19.6249H16.9959V19.4491H17.2954V18.9559H17.8244V19.4491H18.2801V19.6249H17.8276V20.5168C17.8276 20.6438 17.845 20.7338 17.8797 20.787C17.9155 20.8401 17.979 20.8667 18.0701 20.8667C18.0994 20.8667 18.1401 20.8646 18.1922 20.8602C18.2443 20.8559 18.2806 20.851 18.3013 20.8456V20.9823Z" fill="white"/>
<path d="M16.965 21.023C16.9173 21.0436 16.8608 21.0626 16.7957 21.0799C16.7306 21.0973 16.6617 21.106 16.589 21.106C16.4556 21.106 16.3574 21.0865 16.2944 21.0474C16.2315 21.0072 16.1886 20.9503 16.1658 20.8765H16.1561C16.1192 20.9134 16.0834 20.9449 16.0487 20.9709C16.015 20.9969 15.9787 21.0192 15.9396 21.0376C15.8886 21.0615 15.8392 21.0789 15.7915 21.0897C15.7448 21.1016 15.6792 21.1076 15.5946 21.1076C15.4687 21.1076 15.3613 21.0707 15.2723 20.9969C15.1833 20.9221 15.1388 20.8233 15.1388 20.7007C15.1388 20.6302 15.1486 20.5705 15.1681 20.5217C15.1877 20.4718 15.2153 20.4278 15.2511 20.3898C15.2837 20.3551 15.3211 20.3264 15.3634 20.3036C15.4068 20.2808 15.454 20.2596 15.505 20.2401C15.6027 20.2043 15.7199 20.1674 15.8566 20.1294C15.9933 20.0904 16.0931 20.0556 16.1561 20.0253V19.869C16.1561 19.8419 16.1539 19.8061 16.1496 19.7616C16.1452 19.7171 16.136 19.6797 16.1219 19.6493C16.1067 19.6146 16.0828 19.5853 16.0503 19.5614C16.0177 19.5375 15.9749 19.5256 15.9217 19.5256C15.874 19.5256 15.8338 19.5326 15.8013 19.5467C15.7698 19.5598 15.7443 19.5733 15.7248 19.5874C15.728 19.6091 15.7372 19.6422 15.7524 19.6867C15.7676 19.7312 15.7752 19.7741 15.7752 19.8153C15.7752 19.8337 15.7703 19.8571 15.7606 19.8853C15.7508 19.9124 15.7367 19.9341 15.7183 19.9504C15.6933 19.9721 15.6651 19.9889 15.6336 20.0008C15.6032 20.0128 15.556 20.0188 15.492 20.0188C15.4009 20.0188 15.332 19.9971 15.2853 19.9536C15.2387 19.9092 15.2153 19.8517 15.2153 19.7811C15.2153 19.7204 15.2392 19.6661 15.2869 19.6184C15.3358 19.5695 15.3949 19.5294 15.4644 19.4979C15.5327 19.4654 15.6114 19.4404 15.7004 19.423C15.7893 19.4046 15.8718 19.3954 15.9478 19.3954C16.053 19.3954 16.1496 19.4019 16.2375 19.4149C16.3254 19.4268 16.4046 19.4523 16.4751 19.4914C16.5424 19.5294 16.5955 19.5847 16.6346 19.6574C16.6747 19.729 16.6948 19.8229 16.6948 19.939C16.6948 20.0616 16.6921 20.207 16.6867 20.3752C16.6823 20.5434 16.6802 20.6541 16.6802 20.7072C16.6802 20.7561 16.6872 20.7946 16.7013 20.8228C16.7165 20.851 16.7393 20.8722 16.7697 20.8863C16.7881 20.8949 16.8169 20.9004 16.856 20.9025C16.8961 20.9036 16.9325 20.9042 16.965 20.9042V21.023ZM16.1561 20.175C16.0953 20.1956 16.0351 20.2195 15.9754 20.2466C15.9157 20.2727 15.8669 20.3003 15.8289 20.3296C15.7888 20.36 15.7573 20.3991 15.7345 20.4468C15.7117 20.4935 15.7004 20.5488 15.7004 20.6128C15.7004 20.6975 15.7193 20.7588 15.7573 20.7967C15.7964 20.8347 15.8441 20.8537 15.9006 20.8537C15.9602 20.8537 16.0091 20.8418 16.047 20.8179C16.0861 20.7929 16.1203 20.7626 16.1496 20.7268L16.1561 20.175Z" fill="white"/>
<path d="M14.4227 18.9852C14.5637 19.0775 14.6777 19.2006 14.7645 19.3547C14.8513 19.5077 14.8947 19.6954 14.8947 19.9178C14.8947 20.1132 14.8556 20.2835 14.7775 20.4289C14.7005 20.5732 14.5979 20.6915 14.4699 20.7837C14.3397 20.876 14.1916 20.9449 14.0256 20.9904C13.8606 21.0349 13.6876 21.0572 13.5063 21.0572H12.3426V20.9302C12.3773 20.9291 12.4207 20.9259 12.4728 20.9204C12.5249 20.915 12.5596 20.9085 12.577 20.9009C12.616 20.8846 12.6432 20.8629 12.6584 20.8358C12.6736 20.8076 12.6812 20.774 12.6812 20.7349V19.0975C12.6812 19.0606 12.6741 19.0275 12.66 18.9982C12.6459 18.9679 12.6182 18.9434 12.577 18.925C12.5358 18.9066 12.4918 18.8941 12.4451 18.8876C12.3996 18.8811 12.3643 18.8767 12.3394 18.8745V18.7476H13.5682C13.6995 18.7476 13.84 18.7644 13.9897 18.798C14.1395 18.8317 14.2838 18.8941 14.4227 18.9852ZM14.0907 20.6405C14.1438 20.5537 14.1823 20.4506 14.2062 20.3313C14.2312 20.2108 14.2437 20.0725 14.2437 19.9162C14.2437 19.7632 14.2274 19.6238 14.1948 19.4979C14.1623 19.3721 14.1145 19.2646 14.0516 19.1757C13.9887 19.0867 13.91 19.0178 13.8156 18.9689C13.7223 18.9201 13.6159 18.8957 13.4966 18.8957C13.4586 18.8957 13.4152 18.8968 13.3664 18.899C13.3186 18.9 13.2828 18.9011 13.259 18.9022V20.6551C13.259 20.6942 13.2638 20.7289 13.2736 20.7593C13.2845 20.7886 13.3024 20.8146 13.3273 20.8374C13.3523 20.8602 13.3826 20.8781 13.4185 20.8911C13.4553 20.9031 13.5031 20.9091 13.5617 20.9091C13.6843 20.9091 13.7895 20.8863 13.8774 20.8407C13.9653 20.7951 14.0364 20.7284 14.0907 20.6405Z" fill="white"/>
<path d="M23.9767 24.8348C23.9387 24.8967 23.8926 24.9553 23.8384 25.0106C23.7852 25.0649 23.7244 25.1115 23.6561 25.1506C23.5834 25.1918 23.5096 25.2227 23.4347 25.2434C23.3609 25.2651 23.2758 25.2759 23.1792 25.2759C23.0186 25.2759 22.8797 25.2531 22.7625 25.2075C22.6464 25.162 22.5504 25.1007 22.4744 25.0236C22.3985 24.9466 22.3415 24.856 22.3035 24.7518C22.2666 24.6466 22.2482 24.5326 22.2482 24.41C22.2482 24.2993 22.2683 24.1936 22.3084 24.0926C22.3497 23.9906 22.4077 23.9 22.4826 23.8208C22.5564 23.7438 22.6491 23.6814 22.7609 23.6337C22.8737 23.5859 22.9996 23.562 23.1385 23.562C23.2904 23.562 23.4152 23.5805 23.5128 23.6174C23.6105 23.6543 23.6913 23.7053 23.7554 23.7704C23.8172 23.8322 23.8622 23.9055 23.8905 23.9901C23.9187 24.0737 23.9328 24.1615 23.9328 24.2538V24.3596H22.8325C22.8325 24.582 22.8754 24.7513 22.9611 24.8674C23.0468 24.9835 23.183 25.0415 23.3696 25.0415C23.4716 25.0415 23.5633 25.0139 23.6447 24.9585C23.7261 24.9021 23.7955 24.831 23.853 24.7453L23.9767 24.8348ZM23.355 24.2163C23.355 24.1512 23.3517 24.0845 23.3452 24.0161C23.3387 23.9478 23.3273 23.8919 23.311 23.8485C23.2926 23.7975 23.2671 23.759 23.2345 23.7329C23.2031 23.7069 23.1629 23.6939 23.1141 23.6939C23.0305 23.6939 22.9638 23.7362 22.9139 23.8208C22.864 23.9055 22.8369 24.0395 22.8325 24.2228L23.355 24.2163Z" fill="white"/>
<path d="M22.0692 24.8348C22.0312 24.8967 21.9851 24.9553 21.9308 25.0106C21.8776 25.0649 21.8169 25.1115 21.7485 25.1506C21.6758 25.1918 21.602 25.2227 21.5272 25.2434C21.4534 25.2651 21.3682 25.2759 21.2716 25.2759C21.111 25.2759 20.9722 25.2531 20.855 25.2075C20.7389 25.162 20.6428 25.1007 20.5669 25.0236C20.4909 24.9466 20.434 24.856 20.396 24.7518C20.3591 24.6466 20.3406 24.5326 20.3406 24.41C20.3406 24.2993 20.3607 24.1936 20.4009 24.0926C20.4421 23.9906 20.5002 23.9 20.575 23.8208C20.6488 23.7438 20.7416 23.6814 20.8533 23.6337C20.9662 23.5859 21.0921 23.562 21.2309 23.562C21.3829 23.562 21.5076 23.5805 21.6053 23.6174C21.703 23.6543 21.7838 23.7053 21.8478 23.7704C21.9097 23.8322 21.9547 23.9055 21.9829 23.9901C22.0111 24.0737 22.0252 24.1615 22.0252 24.2538V24.3596H20.925C20.925 24.582 20.9678 24.7513 21.0535 24.8674C21.1393 24.9835 21.2754 25.0415 21.4621 25.0415C21.5641 25.0415 21.6558 25.0139 21.7371 24.9585C21.8185 24.9021 21.888 24.831 21.9455 24.7453L22.0692 24.8348ZM21.4474 24.2163C21.4474 24.1512 21.4442 24.0845 21.4377 24.0161C21.4311 23.9478 21.4198 23.8919 21.4035 23.8485C21.385 23.7975 21.3595 23.759 21.327 23.7329C21.2955 23.7069 21.2554 23.6939 21.2065 23.6939C21.123 23.6939 21.0563 23.7362 21.0063 23.8208C20.9564 23.9055 20.9293 24.0395 20.925 24.2228L21.4474 24.2163Z" fill="white"/>
<path d="M20.2056 23.9071C20.2056 23.9896 20.1801 24.0623 20.1291 24.1252C20.0781 24.187 20.0108 24.218 19.9272 24.218C19.848 24.218 19.7808 24.1979 19.7254 24.1577C19.6712 24.1176 19.644 24.0585 19.644 23.9803C19.644 23.9424 19.6467 23.9131 19.6522 23.8924C19.6576 23.8707 19.6625 23.8507 19.6668 23.8322C19.6169 23.8344 19.5643 23.8518 19.5089 23.8843C19.4536 23.9169 19.4048 23.9603 19.3625 24.0145V24.9081C19.3625 24.946 19.3684 24.9775 19.3804 25.0025C19.3923 25.0274 19.4124 25.047 19.4406 25.0611C19.4645 25.073 19.503 25.0833 19.5561 25.092C19.6104 25.0996 19.6495 25.1039 19.6733 25.105V25.2238H18.5845V25.105C18.6116 25.1028 18.6387 25.1001 18.6658 25.0969C18.6941 25.0925 18.7179 25.0871 18.7375 25.0806C18.7722 25.0687 18.7961 25.0502 18.8091 25.0253C18.8221 25.0003 18.8286 24.9677 18.8286 24.9276V23.9803C18.8286 23.9413 18.8194 23.9066 18.8009 23.8762C18.7825 23.8447 18.7602 23.8197 18.7342 23.8013C18.7147 23.7883 18.6897 23.7774 18.6593 23.7687C18.63 23.7601 18.5975 23.7541 18.5617 23.7508V23.632L19.338 23.5897L19.3625 23.6141V23.8501H19.369C19.4438 23.7633 19.5231 23.6955 19.6066 23.6467C19.6912 23.5968 19.7791 23.5718 19.8703 23.5718C19.9712 23.5718 20.052 23.6033 20.1128 23.6662C20.1746 23.7281 20.2056 23.8084 20.2056 23.9071Z" fill="white"/>
<path d="M18.438 23.5311H18.3127C18.2812 23.4411 18.2253 23.3456 18.145 23.2447C18.0658 23.1427 17.9904 23.0868 17.9188 23.077C17.8862 23.0727 17.8428 23.0689 17.7886 23.0656C17.7343 23.0624 17.6844 23.0607 17.6388 23.0607H17.2791V23.9673H17.5086C17.5737 23.9673 17.6302 23.9603 17.6779 23.9462C17.7256 23.931 17.768 23.9044 17.8048 23.8664C17.832 23.8393 17.858 23.7942 17.883 23.7313C17.909 23.6673 17.9247 23.6125 17.9302 23.5669H18.0539V24.5386H17.9302C17.9258 24.4898 17.909 24.4306 17.8797 24.3612C17.8504 24.2907 17.8255 24.244 17.8048 24.2212C17.7734 24.1865 17.7332 24.161 17.6844 24.1447C17.6356 24.1274 17.577 24.1187 17.5086 24.1187H17.2791V24.8837C17.2791 24.9227 17.2862 24.9564 17.3003 24.9846C17.3155 25.0117 17.3437 25.0339 17.3849 25.0513C17.4088 25.0611 17.4413 25.0703 17.4826 25.079C17.5249 25.0866 17.5667 25.0925 17.6079 25.0969V25.2238H16.3628V25.0969C16.3943 25.0936 16.436 25.0893 16.4881 25.0838C16.5402 25.0773 16.5765 25.0697 16.5972 25.0611C16.6362 25.0459 16.6634 25.0247 16.6785 24.9976C16.6937 24.9705 16.7013 24.9357 16.7013 24.8934V23.2642C16.7013 23.2273 16.6943 23.1953 16.6802 23.1682C16.6672 23.14 16.6395 23.1166 16.5972 23.0982C16.5668 23.0852 16.5266 23.0732 16.4767 23.0624C16.4268 23.0515 16.3888 23.0445 16.3628 23.0412V22.9143H18.438V23.5311Z" fill="white"/>
</g>
<defs>
<clipPath id="clip0_762_10203">
<rect width="30" height="30" fill="white"/>
</clipPath>
</defs>
</svg>
