<svg width="30" height="30" viewBox="0 0 30 30" fill="none" xmlns="http://www.w3.org/2000/svg">
<path d="M17.277 4.8644C17.8043 4.33708 17.8043 3.48213 17.277 2.95481C16.7497 2.4275 15.8947 2.4275 15.3674 2.95481C14.8401 3.48213 14.8401 4.33708 15.3674 4.8644C15.8947 5.39172 16.7497 5.39172 17.277 4.8644Z" fill="#5D88D6"/>
<path d="M21.0952 8.68226C21.6811 8.0964 21.6811 7.14652 21.0952 6.56066C20.5094 5.9748 19.5595 5.97479 18.9736 6.56066C18.3878 7.14652 18.3878 8.0964 18.9736 8.68226C19.5595 9.26812 20.5094 9.26812 21.0952 8.68226Z" fill="#5D88D6"/>
<path d="M24.9126 12.5009C25.5569 11.8566 25.5569 10.8119 24.9126 10.1676C24.2683 9.52323 23.2236 9.52323 22.5793 10.1676C21.9349 10.8119 21.9349 11.8566 22.5793 12.5009C23.2236 13.1452 24.2683 13.1452 24.9126 12.5009Z" fill="#5D88D6"/>
<path d="M28.7272 16.3148C29.4301 15.6119 29.4301 14.4723 28.7272 13.7694C28.0243 13.0666 26.8847 13.0666 26.1819 13.7694C25.479 14.4723 25.479 15.6119 26.1819 16.3148C26.8847 17.0177 28.0243 17.0177 28.7272 16.3148Z" fill="#5D88D6"/>
<path d="M9.75113 4.75841C10.22 4.28956 10.22 3.52941 9.75113 3.06056C9.28228 2.59171 8.52212 2.59171 8.05327 3.06056C7.58442 3.52941 7.58442 4.28956 8.05327 4.75841C8.52212 5.22726 9.28228 5.22726 9.75113 4.75841Z" fill="#32DBFC"/>
<path d="M13.5687 8.57619C14.096 8.04887 14.096 7.19392 13.5687 6.66661C13.0414 6.13929 12.1865 6.13929 11.6591 6.66661C11.1318 7.19392 11.1318 8.04887 11.6591 8.57619C12.1865 9.10351 13.0414 9.10351 13.5687 8.57619Z" fill="#32DBFC"/>
<path d="M17.3833 12.3909C17.9692 11.805 17.9692 10.8551 17.3833 10.2693C16.7975 9.68341 15.8476 9.68341 15.2617 10.2693C14.6759 10.8551 14.6759 11.805 15.2617 12.3909C15.8476 12.9767 16.7975 12.9767 17.3833 12.3909Z" fill="#32DBFC"/>
<path d="M21.1995 16.2067C21.8438 15.5624 21.8438 14.5177 21.1995 13.8734C20.5551 13.229 19.5105 13.229 18.8661 13.8734C18.2218 14.5177 18.2218 15.5624 18.8661 16.2067C19.5105 16.851 20.5551 16.851 21.1995 16.2067Z" fill="#32DBFC"/>
<path d="M25.0185 20.0274C25.7213 19.3245 25.7213 18.1849 25.0185 17.482C24.3156 16.7791 23.176 16.7791 22.4731 17.482C21.7702 18.1849 21.7702 19.3245 22.4731 20.0274C23.176 20.7303 24.3156 20.7303 25.0185 20.0274Z" fill="#32DBFC"/>
<path d="M2.22875 4.65649C2.63906 4.24619 2.63906 3.58096 2.22875 3.17066C1.81845 2.76035 1.15322 2.76035 0.742918 3.17066C0.332616 3.58096 0.332616 4.24619 0.742918 4.65649C1.15322 5.06679 1.81845 5.06679 2.22875 4.65649Z" fill="black"/>
<path d="M6.04117 8.46862C6.51001 7.99977 6.51001 7.23961 6.04117 6.77076C5.57232 6.30191 4.81216 6.30191 4.34331 6.77076C3.87446 7.23961 3.87446 7.99977 4.34331 8.46862C4.81216 8.93747 5.57232 8.93747 6.04117 8.46862Z" fill="black"/>
<path d="M9.86047 12.2888C10.3878 11.7615 10.3878 10.9066 9.86047 10.3793C9.33315 9.85194 8.4782 9.85194 7.95089 10.3793C7.42357 10.9066 7.42357 11.7615 7.95089 12.2888C8.4782 12.8162 9.33315 12.8162 9.86047 12.2888Z" fill="black"/>
<path d="M13.6765 16.1048C14.2624 15.5189 14.2624 14.5691 13.6765 13.9832C13.0907 13.3973 12.1408 13.3973 11.5549 13.9832C10.9691 14.5691 10.9691 15.5189 11.5549 16.1048C12.1408 16.6907 13.0907 16.6907 13.6765 16.1048Z" fill="black"/>
<path d="M17.4924 19.9217C18.1368 19.2773 18.1368 18.2327 17.4924 17.5883C16.8481 16.944 15.8034 16.944 15.1591 17.5883C14.5148 18.2327 14.5148 19.2773 15.1591 19.9217C15.8034 20.566 16.8481 20.566 17.4924 19.9217Z" fill="black"/>
<path d="M21.3061 23.7329C22.0089 23.0301 22.0089 21.8905 21.3061 21.1876C20.6032 20.4847 19.4636 20.4847 18.7607 21.1876C18.0578 21.8905 18.0578 23.0301 18.7607 23.7329C19.4636 24.4358 20.6032 24.4358 21.3061 23.7329Z" fill="black"/>
<path d="M9.75161 19.5981C10.2205 19.1293 10.2205 18.3691 9.75161 17.9003C9.28276 17.4314 8.52261 17.4314 8.05376 17.9003C7.58491 18.3691 7.58491 19.1293 8.05376 19.5981C8.52261 20.067 9.28276 20.067 9.75161 19.5981Z" fill="#5D88D6"/>
<path d="M5.193 23.6599C5.85605 23.6599 6.39356 23.1224 6.39356 22.4594C6.39356 21.7963 5.85605 21.2588 5.193 21.2588C4.52994 21.2588 3.99243 21.7963 3.99243 22.4594C3.99243 23.1224 4.52994 23.6599 5.193 23.6599Z" fill="#5D88D6"/>
<path d="M1.48401 27.3724C2.14706 27.3724 2.68457 26.8349 2.68457 26.1719C2.68457 25.5088 2.14706 24.9713 1.48401 24.9713C0.820958 24.9713 0.283447 25.5088 0.283447 26.1719C0.283447 26.8349 0.820958 27.3724 1.48401 27.3724Z" fill="#5D88D6"/>
<path d="M8.9032 27.3704C9.56625 27.3704 10.1038 26.8329 10.1038 26.1699C10.1038 25.5068 9.56625 24.9693 8.9032 24.9693C8.24015 24.9693 7.70264 25.5068 7.70264 26.1699C7.70264 26.8329 8.24015 27.3704 8.9032 27.3704Z" fill="#5D88D6"/>
<path d="M17.173 27.0214C17.6419 26.5526 17.6419 25.7924 17.173 25.3236C16.7042 24.8547 15.944 24.8547 15.4751 25.3236C15.0063 25.7924 15.0063 26.5526 15.4751 27.0214C15.944 27.4903 16.7042 27.4903 17.173 27.0214Z" fill="#5D88D6"/>
<path d="M13.4616 23.3079C13.9304 22.839 13.9304 22.0788 13.4616 21.61C12.9927 21.1411 12.2326 21.1411 11.7637 21.61C11.2949 22.0788 11.2949 22.839 11.7637 23.3079C12.2326 23.7767 12.9927 23.7767 13.4616 23.3079Z" fill="#5D88D6"/>
</svg>
