<svg width="71" height="71" viewBox="0 0 71 71" fill="none" xmlns="http://www.w3.org/2000/svg">
<path d="M70.5232 26.5327H53.3538C48.713 17.6313 43.8075 10.7221 37.1286 10.7221C28.4344 10.7221 24.3465 18.3107 20.3967 25.6921L20.0512 26.337H0.279297V30.7243H11.7947C15.8596 30.7243 16.6887 32.0947 16.6887 32.0947C13.499 37.0463 9.66434 41.9403 3.2733 41.9403H0.279297V46.5465H3.29633C15.6869 46.5465 21.0991 36.4935 25.4404 28.4213C29.4248 20.9823 32.2 16.4798 37.1286 16.4798C42.2414 16.4798 47.6191 27.6037 52.3519 37.4263C53.0428 38.8542 53.7453 40.3167 54.4592 41.7676C36.311 42.3434 27.6629 46.5925 20.627 50.0587C15.4796 52.5921 11.4147 55.7358 4.72424 55.7358H0.279297V60.3419H4.68969C12.7505 60.3419 17.7712 57.8546 23.1143 55.2176C30.5187 51.5787 38.9134 47.4562 58.6969 47.4562H70.1317V42.85H63.6715C63.1408 42.8902 62.6079 42.8072 62.1145 42.6074C61.6211 42.4077 61.1806 42.0966 60.8272 41.6985C59.6987 39.5106 58.5933 37.2075 57.5108 34.9044L56.0138 31.8413C56.0138 31.8413 57.0847 30.6898 60.0557 30.6898H70.5232V26.5327Z" fill="#188FFF"/>
</svg>
