<svg width="30" height="30" viewBox="0 0 30 30" fill="none" xmlns="http://www.w3.org/2000/svg">
<g clip-path="url(#clip0_270_12884)">
<path d="M5.2215 15.0088C5.2215 10.5944 8.82372 7.03994 13.2948 7.03994C14.9093 7.03994 16.3982 7.48661 17.6393 8.30661L21.1159 4.91327C18.8642 3.20934 16.1164 2.28988 13.2926 2.2955C6.17705 2.2955 0.422607 7.97772 0.422607 15.0088C0.422607 22.0444 6.17816 27.7255 13.2959 27.7255V22.9811C8.82483 22.9811 5.22261 19.4266 5.22261 15.0088H5.2215Z" fill="url(#paint0_linear_270_12884)"/>
<path d="M21.3625 15.0089H26.1625C26.1625 11.6578 24.8403 8.59336 22.6869 6.30225L19.2925 9.6578C20.6211 11.1238 21.3587 13.0305 21.3625 15.0089V15.0089Z" fill="url(#paint1_linear_270_12884)"/>
<path d="M17.2257 15.4211H10.1479L22.6479 27.7656L29.6835 27.7256L17.2257 15.4211Z" fill="url(#paint2_linear_270_12884)"/>
<mask id="mask0_270_12884" style="mask-type:alpha" maskUnits="userSpaceOnUse" x="0" y="2" width="106" height="26">
<path d="M0.403564 2.22223H105.959V27.7778H0.403564V2.22223Z" fill="black" fill-opacity="0.6"/>
</mask>
<g mask="url(#mask0_270_12884)">
<path d="M2.11798 8.6767C-0.985355 17.5878 8.28465 21.3067 8.28465 21.3067C7.29131 20.5734 6.0502 18.8545 5.67687 17.6256C4.89131 15.0911 5.13909 13.09 6.42353 10.8811" fill="url(#paint3_linear_270_12884)"/>
</g>
</g>
<defs>
<linearGradient id="paint0_linear_270_12884" x1="29.3942" y1="27.8056" x2="6.6614" y2="4.46081" gradientUnits="userSpaceOnUse">
<stop stop-color="#892C6C"/>
<stop offset="1" stop-color="#D14671"/>
</linearGradient>
<linearGradient id="paint1_linear_270_12884" x1="5.59545" y1="3.8034" x2="29.1341" y2="27.2571" gradientUnits="userSpaceOnUse">
<stop stop-color="#C34170"/>
<stop offset="1" stop-color="#8B2C6C"/>
</linearGradient>
<linearGradient id="paint2_linear_270_12884" x1="28.3592" y1="27.2261" x2="4.3628" y2="4.00814" gradientUnits="userSpaceOnUse">
<stop stop-color="#882B6B"/>
<stop offset="1" stop-color="#CF4671"/>
</linearGradient>
<linearGradient id="paint3_linear_270_12884" x1="3.5115" y1="19.5943" x2="6.80755" y2="10.3286" gradientUnits="userSpaceOnUse">
<stop stop-color="white" stop-opacity="0.38"/>
<stop offset="0.86" stop-color="white" stop-opacity="0.012"/>
<stop offset="1" stop-color="white" stop-opacity="0"/>
</linearGradient>
<clipPath id="clip0_270_12884">
<rect width="30" height="30" fill="white"/>
</clipPath>
</defs>
</svg>
