<svg width="30" height="30" viewBox="0 0 30 30" fill="none" xmlns="http://www.w3.org/2000/svg">
<path d="M19.8111 19.6998C19.406 18.9518 19.0476 18.1882 18.7203 17.4091C19.9358 16.8793 21.011 16.1157 21.9148 15.1496C23.3173 13.7627 24.0341 11.7993 24.0341 9.27488C24.0341 6.34532 23.0835 4.07023 21.1668 2.43404C19.2346 0.813429 16.7725 -0.0592076 14.2637 0.00312352H2V28.0054H7.96821V17.9545H10.2433L11.6302 17.9233C12.1444 19.1855 13.2975 21.9437 13.9676 23.4085L19.8111 19.6998ZM7.96821 5.59735H13.4689C16.2271 5.59735 17.5984 6.71931 17.614 8.94765C17.614 11.3474 16.0713 12.5473 13.0015 12.5473H7.96821V5.59735Z" fill="#E14226"/>
<path d="M25.9819 26.0108L24.4236 24.9044L17.9568 29.1118L20.2163 30L24.1587 29.9844L27.026 27.9431L25.9819 26.0108Z" fill="#E14226"/>
<path d="M20.7928 21.3204L14.7935 25.107L16.4764 27.7561L22.8653 23.7201L20.7928 21.3204Z" fill="#E14226"/>
</svg>
