<svg width="71" height="71" viewBox="0 0 71 71" fill="none" xmlns="http://www.w3.org/2000/svg">
<path fill-rule="evenodd" clip-rule="evenodd" d="M13.3613 7.17065L15.9952 9.44142L27.656 12.0866H43.1726L54.9596 9.33159L57.4664 7.17065L64.3833 8.5421L65.4728 23.3487L69.2188 27.3835L70.5332 35.7004L64.769 41.3946L69.7377 49.9934L65.5299 49.0258L67.7842 54.6274L48.7111 60.8923L35.4082 61.8894L22.1114 60.8923L3.03826 54.6274L5.29171 49.0258L1.08485 49.9934L6.05267 41.3946L0.289307 35.7004L1.60282 27.3835L5.3436 23.3487L6.4392 8.5421L13.3561 7.17065" fill="#300500"/>
<path fill-rule="evenodd" clip-rule="evenodd" d="M49.9907 17.0268C66.3711 -2.56954 62.786 43.0895 62.4461 40.83L61.8123 40.9969L61.4206 40.478C56.9993 34.5936 45.5927 23.2337 49.9907 17.0268Z" fill="#300500"/>
<path fill-rule="evenodd" clip-rule="evenodd" d="M20.8376 17.0268C4.46234 -2.56954 8.04747 43.0895 8.3873 40.83L9.02115 40.9969L9.41287 40.478C13.8342 34.5936 25.2347 23.2337 20.8376 17.0268Z" fill="#300500"/>
<path fill-rule="evenodd" clip-rule="evenodd" d="M35.4143 13.9544H43.368L49.9278 17.9598L54.279 26.8361L56.504 24.4841L55.9972 28.473L59.6628 29.4467L56.6198 30.8873L66.2511 47.567L62.6833 46.7429L65.4902 53.7108L48.3773 59.3367L35.4143 60.3043L22.4573 59.3367L5.34446 53.7108L8.15134 46.7429L4.5835 47.567L14.2148 30.8873L11.1718 29.4467L14.8374 28.473L14.3298 24.4841L16.5547 26.8361L20.9068 17.9598L27.4658 13.9544H35.4143Z" fill="#CC3805"/>
<path fill-rule="evenodd" clip-rule="evenodd" d="M43.1663 46.0166L47.9102 43.7173L49.8635 35.5733L54.8383 49.0258L48.3762 59.3367L35.4141 60.3044V43.4579L43.1663 46.0166Z" fill="#780500"/>
<path fill-rule="evenodd" clip-rule="evenodd" d="M27.6675 46.0166L22.9184 43.7173L20.9702 35.5733L15.9963 49.0258L22.4575 59.3367L35.4145 60.3044V43.4579L27.6675 46.0166Z" fill="#780500"/>
<path fill-rule="evenodd" clip-rule="evenodd" d="M53.3107 24.8533L54.2792 26.8361L56.5041 24.4841L55.9974 28.4731L59.6629 29.4467L56.6191 30.8874L66.2513 47.567L62.6834 46.7429L65.4903 53.7108L57.6629 56.2877L62.8564 51.9476L53.1724 24.9104L53.3107 24.8533Z" fill="#ED6338"/>
<path fill-rule="evenodd" clip-rule="evenodd" d="M35.4146 41.8209L38.077 41.9073L43.1668 46.0165L46.8444 46.0113L49.4032 49.8956L41.0456 59.0824L35.4146 60.3043L29.7947 59.0824L21.4312 49.8956L23.9907 46.0113L27.6675 46.0165L32.7573 41.9073L35.4146 41.8209Z" fill="#FFE8D6"/>
<path fill-rule="evenodd" clip-rule="evenodd" d="M35.4141 57.8555H39.9443L42.8316 51.6597L46.901 52.6447L41.0451 59.0834L35.4141 60.3052L29.7942 59.0834L24.8774 53.6884L28.5084 52.8297L30.889 57.8555H35.4141Z" fill="#F0BD94"/>
<path fill-rule="evenodd" clip-rule="evenodd" d="M38.5265 36.1095L37.3159 28.8527L42.5674 27.3948L43.0802 34.2762L38.5265 36.1095Z" fill="#F0BD94"/>
<path fill-rule="evenodd" clip-rule="evenodd" d="M46.884 30.749L43.9734 28.4385L44.3599 34.092L46.5555 33.6372L46.884 30.749Z" fill="#F0BD94"/>
<path fill-rule="evenodd" clip-rule="evenodd" d="M49.2411 22.2133L48.6592 17.1815L57.9619 9.1647L62.7697 10.1219L63.8065 24.2134L67.2247 27.9075L64.1818 35.5672L67.8188 31.5333L68.6481 35.2914L63.5877 40.2878L58.3596 33.8966L62.6253 30.0979L59.8876 25.1586L59.4206 16.4906L53.1722 24.9104L49.2411 22.2133Z" fill="#FFE8D6"/>
<path fill-rule="evenodd" clip-rule="evenodd" d="M59.4205 16.4906L53.1721 24.9113L49.2358 22.2194L53.0052 22.8705L59.4205 16.4906ZM63.5876 40.2878L58.3543 33.9018L62.6252 30.0979L59.8875 25.1352L59.4205 16.4906L61.0108 25.1647L64.1411 28.6806V35.5673L63.5876 40.2878Z" fill="#F0BD94"/>
<path fill-rule="evenodd" clip-rule="evenodd" d="M48.6592 17.1815L43.3679 13.9543L55.7205 11.0956L48.6592 17.1815Z" fill="#780500"/>
<path fill-rule="evenodd" clip-rule="evenodd" d="M35.4142 47.5618L38.9181 47.0663L39.385 47.9881L36.0368 50.8754L36.0074 52.7484L36.515 53.2214L41.6679 52.5011L42.8318 51.6597L43.3679 52.1379L42.5378 53.9131L41.5987 53.4523L35.4142 54.1492H30.2726L29.3387 54.6101L28.5085 52.8297L29.0447 52.3515L30.2095 53.1928L34.3186 53.2214L34.8262 52.7484L34.7977 50.8754L31.4486 47.9881L31.9155 47.0663L35.4142 47.5618Z" fill="#300500"/>
<path fill-rule="evenodd" clip-rule="evenodd" d="M35.4142 47.6707L38.918 47.0654L36.7225 42.1434H35.4142H34.1171L31.9155 47.0654L35.4142 47.6707Z" fill="#F0BD94"/>
<path fill-rule="evenodd" clip-rule="evenodd" d="M43.3449 44.109L46.1466 42.53L47.3226 39.2043L43.414 37.1065L40.3884 38.8532L39.4951 42.7782L43.3449 44.109Z" fill="#300500"/>
<path fill-rule="evenodd" clip-rule="evenodd" d="M54.0777 50.2356L48.3774 59.3367L57.6628 56.2877L60.078 49.4521L57.3688 46.3858L59.9111 46.34L49.8639 35.5733L54.0777 50.2356Z" fill="#FFE8D6"/>
<path fill-rule="evenodd" clip-rule="evenodd" d="M35.4144 41.8209L38.0768 41.9074L37.0859 37.1929H35.4144H33.748L32.7571 41.9074L35.4144 41.8209Z" fill="#ED6338"/>
<path fill-rule="evenodd" clip-rule="evenodd" d="M43.3678 37.9245L40.8662 39.3314L40.7339 41.942L43.1776 43.2045L45.6222 41.942L45.8124 39.302L43.3678 37.9245Z" fill="#780500"/>
<path fill-rule="evenodd" clip-rule="evenodd" d="M43.2014 38.5532L41.5533 39.475L41.4668 41.1932L43.0743 42.0224L44.6827 41.1932L44.8098 39.4577L43.2014 38.5532Z" fill="#300500"/>
<path fill-rule="evenodd" clip-rule="evenodd" d="M44.072 38.075L43.2419 38.5705L43.2073 39.6081L44.1239 40.0803L45.0396 39.6081L45.1088 38.6224L44.072 38.075Z" fill="#FFE8D6"/>
<path fill-rule="evenodd" clip-rule="evenodd" d="M35.4141 13.9544V20.9162L42.382 13.9544H35.4141Z" fill="#ED6338"/>
<path fill-rule="evenodd" clip-rule="evenodd" d="M48.3774 59.3367L50.4925 55.9651L55.8988 53.556L57.8877 49.5792L57.3688 46.3857L60.078 49.452L57.6628 56.2877L48.3774 59.3367Z" fill="#F0BD94"/>
<path fill-rule="evenodd" clip-rule="evenodd" d="M42.5674 27.3948L37.3159 28.8527L38.3648 35.141L40.6996 33.9018L42.5674 27.3948Z" fill="#FFE8D6"/>
<path fill-rule="evenodd" clip-rule="evenodd" d="M46.884 30.749L43.9734 28.4385L45.2878 32.9108L46.884 30.749Z" fill="#FFE8D6"/>
<path fill-rule="evenodd" clip-rule="evenodd" d="M17.5232 24.8533L16.5547 26.8361L14.3298 24.4841L14.8374 28.4731L11.1718 29.4467L14.2148 30.8874L4.5835 47.567L8.15134 46.7429L5.34445 53.7108L13.171 56.2877L7.98359 51.9476L17.6555 24.9104L17.5232 24.8533Z" fill="#ED6338"/>
<path fill-rule="evenodd" clip-rule="evenodd" d="M32.307 34.7207L33.5176 27.47L28.2662 26.0121L27.7534 32.8936L32.307 34.7207Z" fill="#F0BD94"/>
<path fill-rule="evenodd" clip-rule="evenodd" d="M23.9497 30.0572L26.8604 27.7406L26.4747 33.395L24.2783 32.9393L23.9497 30.0572Z" fill="#F0BD94"/>
<path fill-rule="evenodd" clip-rule="evenodd" d="M22.1746 17.1815L27.4658 13.9543L15.1133 11.0956L22.1746 17.1815Z" fill="#780500"/>
<path fill-rule="evenodd" clip-rule="evenodd" d="M27.4889 44.109L24.6873 42.53L23.5112 39.2043L27.4198 37.1065L30.4454 38.8532L31.3387 42.7782L27.4889 44.109Z" fill="#300500"/>
<path fill-rule="evenodd" clip-rule="evenodd" d="M16.7564 50.2356L22.4575 59.3367L13.1713 56.2877L10.7561 49.4521L13.4653 46.3858L10.9239 46.34L20.9702 35.5733L16.7564 50.2356Z" fill="#FFE8D6"/>
<path fill-rule="evenodd" clip-rule="evenodd" d="M27.4659 37.9245L29.9676 39.3314L30.0999 41.942L27.6562 43.2045L25.2116 41.942L25.0222 39.302L27.4659 37.9245Z" fill="#780500"/>
<path fill-rule="evenodd" clip-rule="evenodd" d="M27.6329 38.5532L29.2819 39.475L29.3684 41.1932L27.76 42.0224L26.1516 41.1932L26.0254 39.4577L27.6329 38.5532Z" fill="#300500"/>
<path fill-rule="evenodd" clip-rule="evenodd" d="M26.763 38.075L27.5923 38.5705L27.6269 39.6081L26.7111 40.0803L25.7945 39.6081L25.7253 38.6224L26.763 38.075Z" fill="#FFE8D6"/>
<path fill-rule="evenodd" clip-rule="evenodd" d="M35.4142 13.9544V20.9162L28.4514 13.9544H35.4142Z" fill="#ED6338"/>
<path fill-rule="evenodd" clip-rule="evenodd" d="M22.4575 59.3367L20.3415 55.9651L14.9353 53.556L12.9464 49.5792L13.4653 46.3857L10.7561 49.452L13.1713 56.2877L22.4575 59.3367Z" fill="#F0BD94"/>
<path fill-rule="evenodd" clip-rule="evenodd" d="M28.2664 26.0121L33.5178 27.47L32.4689 33.7583L30.1342 32.5191L28.2664 26.0121Z" fill="#FFE8D6"/>
<path fill-rule="evenodd" clip-rule="evenodd" d="M23.9497 30.0572L26.8604 27.7406L25.552 32.219L23.9497 30.0572Z" fill="#FFE8D6"/>
<path fill-rule="evenodd" clip-rule="evenodd" d="M21.5977 22.2133L22.1744 17.1815L12.8718 9.1647L8.06478 10.1219L7.02712 24.2134L3.61493 27.9075L6.6527 35.5672L3.01569 31.5333L2.18555 35.2914L7.2459 40.2878L12.474 33.8966L8.20833 30.0979L10.946 25.1586L11.413 16.4906L17.6554 24.9104L21.5977 22.2133Z" fill="#FFE8D6"/>
<path fill-rule="evenodd" clip-rule="evenodd" d="M11.4424 16.4906L17.6839 24.9113L21.621 22.2194L17.8569 22.8705L11.4424 16.4906ZM7.27439 40.2878L12.5025 33.9018L8.23769 30.0979L10.9754 25.1586L11.4424 16.5131L9.83397 25.1871L6.69849 28.7031V35.5906L7.27439 40.2878Z" fill="#F0BD94"/>
<path fill-rule="evenodd" clip-rule="evenodd" d="M40.3883 38.8533L39.495 42.7782L38.0769 41.9074L39.0454 37.4351L43.0975 35.3658L48.3714 37.6599L47.3225 39.2043L43.414 37.1065L40.3883 38.8533Z" fill="#FFE8D6"/>
<path fill-rule="evenodd" clip-rule="evenodd" d="M30.4455 38.8533L31.3388 42.7782L32.7569 41.9074L31.7884 37.4351L27.7363 35.3658L22.4624 37.6599L23.5113 39.2043L27.4199 37.1065L30.4455 38.8533Z" fill="#FFE8D6"/>
</svg>
