<svg width="30" height="30" viewBox="0 0 30 30" fill="none" xmlns="http://www.w3.org/2000/svg">
<path d="M21.7145 2.0282L18.8253 7.10616H20.827C20.4305 9.45445 18.3912 11.268 15.955 11.287C15.2943 11.287 14.6333 11.4589 14.048 11.8023C13.1793 12.2987 12.5751 13.1199 12.3105 14.0933C12.0464 15.0671 12.1783 16.0789 12.6882 16.9569C13.1793 17.8351 13.9911 18.4461 14.9544 18.7133C15.2756 18.8089 15.5962 18.8468 15.9173 18.8468C16.5596 18.8468 17.2014 18.6753 17.7866 18.3314C18.6554 17.8351 19.2599 17.0142 19.5241 16.0405C19.7887 15.0671 19.6564 14.0554 19.1465 13.1768C18.9765 12.8907 18.7877 12.6425 18.5612 12.4133C20.657 11.4779 22.1868 9.49236 22.4891 7.12508H24.6038L21.7145 2.0282ZM16.4461 13.0243C16.9749 13.1768 17.4279 13.5207 17.7113 13.9981C17.9947 14.4751 18.0701 15.0477 17.919 15.5824C17.7678 16.1172 17.4279 16.5752 16.956 16.8617C16.4838 17.1478 15.9173 17.2241 15.3885 17.0716C14.8598 16.9186 14.4068 16.5752 14.1234 16.0978C13.8403 15.6208 13.7646 15.0477 13.9157 14.5134C14.0669 13.9787 14.4068 13.5207 14.8786 13.2341C15.1997 13.0432 15.5397 12.948 15.8985 12.948C15.8985 12.948 15.8985 12.948 15.9173 12.948C15.9173 12.948 15.9173 12.948 15.9362 12.948C16.0873 12.948 16.2761 12.967 16.4461 13.0243Z" fill="black"/>
<path d="M24.0375 19.4593L18.4856 17.7793L19.8073 23.4871L21.2618 22.1126C22.5646 24.1171 22.3 26.8472 20.5249 28.5461C20.1854 28.8706 20.1661 29.3863 20.4872 29.7297C20.8084 30.0736 21.3183 30.0926 21.6582 29.7681C24.1128 27.4392 24.4151 23.6401 22.4888 20.948L24.0375 19.4593Z" fill="black"/>
<path d="M7.94896 19.0918L12.2168 15.1402L6.70261 13.3645L7.13679 15.3311C4.7575 15.4457 2.56706 13.823 2.03829 11.3984C1.94389 10.94 1.49068 10.6538 1.05636 10.7685C0.603161 10.8637 0.319892 11.3222 0.433181 11.7612C1.16965 15.0829 4.22873 17.2972 7.51437 16.9917L7.94896 19.0918Z" fill="black"/>
</svg>