<svg width="30" height="30" viewBox="0 0 30 30" fill="none" xmlns="http://www.w3.org/2000/svg">
<path d="M23.2653 6.82884C21.0664 4.61755 18.0747 3.37815 14.9565 3.38713C11.8383 3.37815 8.84662 4.61755 6.64777 6.82884C4.43648 9.02769 3.19708 12.0201 3.20606 15.1383C3.20399 16.5802 3.46874 18.0097 3.98648 19.3549C3.22334 20.1104 2.49961 20.9053 1.81874 21.7355C1.40192 22.245 1.01827 22.78 0.669888 23.3385C0.485747 23.6316 0.327985 23.9404 0.198459 24.2613C0.125188 24.4397 0.069888 24.6249 0.033252 24.8143C-0.0159319 25.0467 -0.0104895 25.2874 0.0491506 25.5173C0.0639017 25.5745 0.0847591 25.6298 0.111363 25.6825L0.127952 25.7178C0.134174 25.7309 0.141086 25.7434 0.14869 25.7558C0.183782 25.8168 0.224761 25.8742 0.27104 25.9272C0.374035 26.0454 0.501916 26.1394 0.645003 26.2037C0.863631 26.2956 1.09913 26.3406 1.33625 26.3358C1.70468 26.324 2.07035 26.2632 2.42219 26.154C3.06245 25.9593 3.68648 25.7148 4.28855 25.4226C5.25094 24.9537 6.1888 24.4359 7.09846 23.8715C9.25353 25.8179 12.0553 26.8936 14.9593 26.8894C16.503 26.8935 18.0322 26.5915 19.4584 26.0007C20.8845 25.4099 22.1794 24.5422 23.268 23.4477C25.4793 21.2489 26.7187 18.2565 26.7097 15.1383C26.718 12.0194 25.478 9.027 23.2653 6.82884ZM4.23671 19.9583C4.73865 21.0748 5.41276 22.1056 6.2344 23.0129C5.34546 23.5576 4.54016 24.0083 3.78049 24.3871C3.2403 24.6661 2.67942 24.9029 2.10284 25.0957C1.84552 25.1828 1.57817 25.2369 1.30722 25.2567C1.2265 25.2634 1.14523 25.2555 1.06735 25.2332C1.05145 25.2263 1.04316 25.2215 1.04178 25.2215C1.01828 25.1351 1.01828 25.0569 1.03417 24.9809C1.0541 24.8543 1.08652 24.73 1.13095 24.6097C1.23118 24.3346 1.35284 24.0685 1.49454 23.812C1.79319 23.2685 2.12516 22.744 2.48855 22.2415C3.01735 21.4881 3.57795 20.7705 4.23602 19.9583H4.23671ZM10.8671 21.3277C12.0782 20.4332 13.0473 19.6846 13.9155 18.9712C14.913 18.1605 15.8903 17.3253 16.8464 16.4662L16.9715 16.3493L19.6328 13.8222C19.7268 13.7281 19.733 13.5775 19.6466 13.4765C19.6038 13.4284 19.5445 13.3982 19.4804 13.3919C19.4164 13.3857 19.3523 13.4038 19.301 13.4427L16.4538 15.7099L16.3031 15.8316L13.2809 18.1583L13.1703 18.2406L10.198 20.3987C9.06712 21.1936 8.12772 21.8261 7.25952 22.3763C5.41301 20.4207 4.38679 17.8314 4.39224 15.1417C4.38463 12.3381 5.49961 9.64842 7.48694 7.67147C9.4639 5.68345 12.1535 4.56916 14.9572 4.57676C17.7602 4.56916 20.4505 5.68345 22.4275 7.67077C23.4113 8.64968 24.1913 9.81391 24.7224 11.0961C25.2535 12.3784 25.5251 13.7532 25.5215 15.1411C25.5252 16.529 25.2536 17.904 24.7225 19.1863C24.1915 20.4687 23.4114 21.633 22.4275 22.612C21.4486 23.596 20.2844 24.3761 19.0022 24.9073C17.72 25.4385 16.3451 25.7102 14.9572 25.7067C12.4618 25.7081 10.0466 24.8247 8.14155 23.2134C9.0685 22.603 9.98509 21.9712 10.8671 21.3277Z" fill="#322965"/>
<path d="M29.7215 4.17237C29.7215 4.17237 26.9074 3.72306 25.968 4.53942L24.2454 6.03666L24.0857 6.17491L24.0049 6.24403C24.0049 6.24403 21.0657 6.0491 20.4298 6.6014L19.7751 7.17099L19.5325 7.37836L19.2705 7.60647L19.2014 7.66454L20.5632 9.2309C20.1429 9.59587 20.4443 10.6307 21.2364 11.5417C22.0286 12.4528 23.0109 12.8952 23.4311 12.5295L24.7929 14.0959L24.8351 14.0592L25.3645 13.5989L26.0192 13.0293C26.6551 12.4763 26.8708 9.53919 26.8708 9.53919L27.0339 9.39749L27.1666 9.28274L28.8346 7.83113C29.7719 7.02306 29.7215 4.17237 29.7215 4.17237Z" fill="#ED5735"/>
</svg>
