<svg width="30" height="30" viewBox="0 0 30 30" fill="none" xmlns="http://www.w3.org/2000/svg">
<path d="M4 15.4846V3.37553C4 3.0396 4.03906 3.00054 4.37499 3.00054H24.3511C24.4605 2.99273 24.5542 3.07085 24.5621 3.18022C24.5621 3.23491 24.5464 3.28959 24.5074 3.32866L23.7105 4.48488C23.2183 5.23486 22.6949 5.96922 22.1871 6.74265L21.3043 8.01606L19.82 10.2348L18.7966 11.7191C18.7262 11.8128 18.5934 11.8363 18.4997 11.766C18.4841 11.7504 18.4606 11.7347 18.4528 11.7191C17.906 11.0785 17.3591 10.4379 16.82 9.78945L16.4216 9.33634C16.281 9.16447 16.1326 9.16447 16.0076 9.33634C15.6169 9.86758 15.2263 10.3988 14.8435 10.9301C14.7576 11.0394 14.7732 11.1957 14.8748 11.2894C15.2732 11.7191 15.6716 12.1488 16.0622 12.5863C16.531 13.0784 16.9997 13.6175 17.4606 14.1331C17.7966 14.5081 18.1559 14.8753 18.4763 15.2581C18.5388 15.3596 18.6716 15.3909 18.7731 15.3284C18.8044 15.3128 18.8278 15.2893 18.8434 15.2581C18.9997 15.0237 19.2028 14.8362 19.3669 14.6175C19.5309 14.3987 19.8043 14.1253 20.0231 13.8362C20.3512 13.4378 20.6637 13.0394 21.0153 12.6488L21.5074 12.0394C21.9996 11.4457 22.4996 10.8597 22.9918 10.266C23.484 9.67227 24.0855 8.94572 24.6402 8.28167C25.062 7.7895 25.4683 7.25826 25.898 6.76608C25.9527 6.70358 25.9839 6.63327 26.0386 6.57077C26.0777 6.50828 26.148 6.48484 26.2105 6.50828C26.273 6.53171 26.3198 6.5864 26.3198 6.65671C26.3198 6.68796 26.3198 6.71921 26.3198 6.75046V27.6641C26.3198 27.9688 26.2886 28 25.9839 28H4.33593C4.02344 28 4 28 4 27.6641V15.4846ZM10.2421 25.2501C10.578 25.2501 10.9061 25.211 11.2342 25.1329C12.1248 25.0391 12.9451 24.5782 13.4842 23.8595C13.8201 23.3907 14.0076 22.8361 14.0388 22.2579C14.1482 21.4455 13.8904 20.633 13.3435 20.0236C12.9217 19.6096 12.4139 19.2971 11.8592 19.1174C11.1795 18.8596 10.4686 18.7268 9.77331 18.5158C9.42957 18.4455 9.10145 18.3049 8.8124 18.1018C8.55459 17.9065 8.46084 17.5549 8.58584 17.2502C8.69521 16.9221 8.96864 16.6721 9.30457 16.5784C9.50769 16.5081 9.71863 16.4846 9.93737 16.4924C10.3358 16.4768 10.7342 16.5315 11.1092 16.6565C11.6405 16.8206 12.1326 17.094 12.5701 17.4455C12.7108 17.5627 12.8123 17.5471 12.9217 17.383C13.0311 17.219 13.1717 17.0159 13.2967 16.8362L13.7029 16.2424C13.8045 16.1253 13.7967 15.9534 13.6795 15.8518C13.3435 15.5471 12.9607 15.2893 12.5467 15.1018C12.1248 14.8909 11.6717 14.7425 11.1952 14.6722C10.3436 14.5081 9.46863 14.5706 8.64834 14.844C8.14835 15.0003 7.69523 15.2737 7.32805 15.6409C6.74994 16.219 6.43745 17.0159 6.47651 17.8283C6.46088 18.8518 7.039 19.7892 7.96085 20.2345C8.52334 20.508 9.11708 20.7111 9.72644 20.8517C9.97643 20.9142 10.2186 20.9611 10.4764 21.0236C10.867 21.1251 11.242 21.2736 11.5936 21.4767C11.9686 21.6954 12.1092 22.172 11.9139 22.5548C11.7342 22.9142 11.3905 23.172 10.992 23.2423C10.3905 23.3907 9.7655 23.3595 9.17958 23.1564C8.53896 22.9689 7.95304 22.6251 7.47649 22.1642C7.40618 22.0783 7.28899 22.0704 7.20306 22.1329C7.17962 22.1486 7.16399 22.172 7.15618 22.1954L6.33589 23.4688C6.24995 23.5704 6.26558 23.7188 6.36714 23.8048C6.78119 24.1876 7.24993 24.5001 7.75773 24.7344C8.54678 25.0782 9.39832 25.2579 10.2577 25.2422L10.2421 25.2501ZM19.6169 21.8673H22.0543C22.2574 21.8673 22.3043 21.8204 22.3043 21.6173C22.3355 20.797 22.1715 19.9845 21.8434 19.2346C21.5309 18.5158 20.9762 17.9221 20.2653 17.5784C18.8356 16.9065 17.1325 17.2502 16.0701 18.4221C15.7341 18.8049 15.4685 19.2502 15.2888 19.7346C15.0857 20.3439 15.0076 20.9923 15.0623 21.633C15.1013 22.5548 15.4685 23.4376 16.1013 24.1095C16.2966 24.3048 16.5075 24.4766 16.7341 24.6329C17.2107 24.9688 17.7575 25.1719 18.3356 25.2266C18.7419 25.2735 19.1559 25.2579 19.5622 25.1797C20.3043 25.0782 21.0074 24.7891 21.609 24.3438C21.7262 24.297 21.7809 24.1563 21.7262 24.047C21.7184 24.0235 21.7027 24.0079 21.6871 23.9923C21.4996 23.6876 21.3121 23.3985 21.1168 23.1017C21.0778 23.0157 20.9762 22.9767 20.8903 23.0157C20.8746 23.0157 20.8668 23.0314 20.859 23.0392C20.7418 23.1017 20.6637 23.1954 20.5543 23.2579C20.0543 23.5392 19.4919 23.6798 18.9216 23.6642C17.9997 23.6642 17.2107 23.0079 17.0466 22.1017C16.9997 21.8986 17.0153 21.8751 17.2263 21.8751H19.6247L19.6169 21.8673Z" fill="#43B02A"/>
<path d="M18.7417 20.5158H17.1715C16.984 20.5158 16.9605 20.4846 16.9918 20.3049C17.1402 19.3283 18.0543 18.6565 19.0308 18.8049C19.2574 18.8362 19.4761 18.9143 19.6714 19.0315C20.1558 19.3205 20.4683 19.8205 20.4995 20.383C20.4995 20.508 20.4214 20.508 20.3355 20.508H18.7417V20.5158Z" fill="#43B02A"/>
</svg>
