<svg width="195" height="31" viewBox="0 0 195 31" fill="none" xmlns="http://www.w3.org/2000/svg">
<g clip-path="url(#clip0_915_71164)">
<path d="M53.2761 24.5138H50.5737V13.8262C50.5737 12.9504 50.6266 11.8803 50.7338 10.6132H50.6881C50.5208 11.3352 50.3707 11.853 50.242 12.168L45.3418 24.5138H43.4644L38.5529 12.26C38.4156 11.899 38.2698 11.3496 38.1182 10.6132H38.0724C38.1339 11.2734 38.1639 12.352 38.1639 13.8493V24.5138H35.6445V7.99707H39.4808L43.7976 18.9967C44.125 19.8409 44.3395 20.4709 44.4382 20.8851H44.4954C44.777 20.0178 45.0073 19.3721 45.1817 18.9507L49.5785 7.99851H53.2776V24.5138H53.2761Z" fill="#36BBEE"/>
<path d="M57.8456 10.2436C57.4109 10.2436 57.0378 10.1012 56.7289 9.81784C56.4201 9.5345 56.2656 9.17351 56.2656 8.73485C56.2656 8.29618 56.4201 7.93231 56.7289 7.64035C57.0378 7.34839 57.4095 7.20312 57.8456 7.20312C58.2817 7.20312 58.6778 7.34839 58.9909 7.64035C59.3041 7.93231 59.4599 8.29618 59.4599 8.73485C59.4599 9.14906 59.3041 9.5043 58.9909 9.80058C58.6778 10.0969 58.296 10.2436 57.8456 10.2436ZM59.1625 24.5137H56.5058V12.7202H59.1625V24.5137Z" fill="#36BBEE"/>
<path d="M70.5076 23.9708C69.5682 24.5159 68.4586 24.7892 67.176 24.7892C65.4359 24.7892 64.0304 24.2426 62.9622 23.1481C61.8941 22.0536 61.3594 20.6356 61.3594 18.8924C61.3594 16.9494 61.9342 15.3889 63.0824 14.211C64.2305 13.033 65.7676 12.4434 67.6908 12.4434C68.7589 12.4434 69.7026 12.6318 70.5191 13.0071V15.4953C69.7026 14.8812 68.8318 14.5734 67.9081 14.5734C66.7857 14.5734 65.8663 14.956 65.1485 15.7197C64.4307 16.4834 64.0718 17.4844 64.0718 18.7198C64.0718 19.9553 64.4093 20.9045 65.0856 21.6107C65.7605 22.3168 66.667 22.6707 67.8052 22.6707C68.7589 22.6707 69.6597 22.3284 70.5076 21.6452V23.9723V23.9708Z" fill="#36BBEE"/>
<path d="M79.4268 15.2646C79.1065 15.0114 78.6447 14.8849 78.0413 14.8849C77.2549 14.8849 76.5986 15.2415 76.0724 15.9563C75.5462 16.6697 75.2817 17.642 75.2817 18.8702V24.5139H72.625V12.7203H75.2817V15.1509H75.3274C75.5862 14.3211 75.9852 13.6753 76.5242 13.2108C77.0619 12.7462 77.6638 12.5146 78.3273 12.5146C78.8077 12.5146 79.1752 12.588 79.4268 12.7333V15.2674V15.2646Z" fill="#36BBEE"/>
<path d="M85.7821 24.7892C83.9733 24.7892 82.5277 24.2383 81.4482 23.1366C80.3686 22.035 79.8281 20.5737 79.8281 18.7543C79.8281 16.7739 80.3915 15.2263 81.5168 14.1132C82.6421 13 84.1592 12.4434 86.068 12.4434C87.9769 12.4434 89.3267 12.9841 90.3505 14.0671C91.3728 15.1501 91.8847 16.6516 91.8847 18.5702C91.8847 20.4888 91.3328 21.9587 90.2304 23.0906C89.1279 24.2239 87.6452 24.7892 85.7821 24.7892ZM85.9079 14.5734C84.8698 14.5734 84.0491 14.9387 83.4457 15.6679C82.8423 16.3971 82.5406 17.4038 82.5406 18.6853C82.5406 19.9668 82.8451 20.8944 83.4571 21.6049C84.0677 22.3154 84.8841 22.6707 85.9079 22.6707C86.9317 22.6707 87.7567 22.3212 88.3186 21.6222C88.8791 20.9232 89.1608 19.9294 89.1608 18.6393C89.1608 17.3492 88.8806 16.3395 88.3186 15.6334C87.7581 14.9272 86.9545 14.5734 85.9079 14.5734Z" fill="#36BBEE"/>
<path d="M93.3359 24.1439V21.6673C94.3283 22.4281 95.4235 22.8078 96.6218 22.8078C98.2246 22.8078 99.0268 22.3317 99.0268 21.3796C99.0268 21.1107 98.9581 20.882 98.8209 20.695C98.6836 20.5066 98.4977 20.3398 98.2661 20.1945C98.033 20.0493 97.7585 19.9184 97.4411 19.8033C97.1236 19.6883 96.7719 19.5574 96.3815 19.4121C95.9011 19.2208 95.4679 19.0166 95.0818 18.8023C94.6957 18.588 94.3754 18.3435 94.1195 18.0717C93.8636 17.7999 93.6705 17.4906 93.5418 17.144C93.4117 16.7989 93.3474 16.3947 93.3474 15.9345C93.3474 15.3664 93.4804 14.8659 93.7477 14.4315C94.0151 13.9972 94.374 13.6333 94.8244 13.337C95.2748 13.0422 95.7867 12.8193 96.3587 12.6697C96.9306 12.5201 97.5226 12.4453 98.1331 12.4453C99.217 12.4453 100.186 12.6107 101.041 12.9401V15.2786C100.216 14.7105 99.2699 14.4258 98.2017 14.4258C97.8657 14.4258 97.5626 14.4603 97.2909 14.5293C97.0193 14.5984 96.7891 14.6947 96.5989 14.817C96.4087 14.9392 96.2586 15.0874 96.1528 15.2599C96.0455 15.4325 95.9926 15.6224 95.9926 15.8295C95.9926 16.0826 96.0455 16.2983 96.1528 16.4738C96.26 16.6507 96.4173 16.806 96.6275 16.9398C96.8377 17.0736 97.0893 17.1972 97.3839 17.308C97.677 17.4187 98.0159 17.541 98.3976 17.6704C98.901 17.8775 99.3542 18.0889 99.7546 18.3032C100.155 18.519 100.497 18.762 100.78 19.0339C101.061 19.3071 101.28 19.6207 101.432 19.9788C101.585 20.3355 101.661 20.7598 101.661 21.2516C101.661 21.8499 101.523 22.372 101.249 22.8179C100.974 23.2637 100.608 23.6319 100.149 23.9239C99.6917 24.2158 99.1626 24.433 98.5635 24.574C97.9644 24.7163 97.3324 24.7868 96.6689 24.7868C95.3864 24.7868 94.2754 24.5711 93.3374 24.1425L93.3359 24.1439Z" fill="#36BBEE"/>
<path d="M108.864 24.7892C107.055 24.7892 105.61 24.2383 104.53 23.1366C103.451 22.035 102.91 20.5737 102.91 18.7543C102.91 16.7739 103.474 15.2263 104.599 14.1132C105.724 13 107.241 12.4434 109.15 12.4434C111.059 12.4434 112.409 12.9841 113.432 14.0671C114.455 15.1501 114.967 16.6516 114.967 18.5702C114.967 20.4888 114.415 21.9587 113.312 23.0906C112.21 24.2239 110.727 24.7892 108.864 24.7892ZM108.99 14.5734C107.952 14.5734 107.131 14.9387 106.528 15.6679C105.924 16.3971 105.623 17.4038 105.623 18.6853C105.623 19.9668 105.927 20.8944 106.539 21.6049C107.15 22.3154 107.966 22.6707 108.99 22.6707C110.014 22.6707 110.839 22.3212 111.401 21.6222C111.961 20.9232 112.243 19.9294 112.243 18.6393C112.243 17.3492 111.963 16.3395 111.401 15.6334C110.84 14.9272 110.037 14.5734 108.99 14.5734Z" fill="#36BBEE"/>
<path d="M123.391 9.22923C123.032 9.02213 122.623 8.91857 122.165 8.91857C120.875 8.91857 120.231 9.65207 120.231 11.1176V12.7184H122.956V14.8139H120.242V24.5119H117.585V14.8139H115.582V12.7184H117.585V10.807C117.585 9.5629 117.99 8.58203 118.799 7.86435C119.609 7.14667 120.619 6.78711 121.833 6.78711C122.49 6.78711 123.009 6.86046 123.391 7.00572V9.22923Z" fill="#36BBEE"/>
<path d="M130.129 24.3871C129.61 24.6474 128.927 24.7783 128.08 24.7783C125.805 24.7783 124.668 23.6809 124.668 21.4847V14.8156H122.711V12.7201H124.668V9.99032L127.325 9.22949V12.7187H130.13V14.8142H127.325V20.7109C127.325 21.4099 127.451 21.909 127.703 22.2081C127.954 22.5073 128.375 22.6569 128.962 22.6569C129.413 22.6569 129.802 22.526 130.13 22.2657V24.3842L130.129 24.3871Z" fill="#36BBEE"/>
<path d="M150.96 24.5133H147.972L146.495 20.3093H140.037L138.618 24.5133H135.641L141.789 7.99805H144.858L150.96 24.5133ZM145.773 18.0758L143.493 11.4872C143.425 11.2729 143.352 10.9263 143.276 10.4502H143.23C143.162 10.8875 143.086 11.2341 143.002 11.4872L140.745 18.0758H145.771H145.773Z" fill="#36BBEE"/>
<path d="M162.28 13.8363L155.948 22.4283H162.257V24.5123H152.227V23.5098L158.695 14.8028H152.844V12.7188H162.278V13.8363H162.28Z" fill="#36BBEE"/>
<path d="M174.641 24.5137H171.985V22.6483H171.939C171.168 24.0765 169.97 24.7899 168.344 24.7899C165.573 24.7899 164.188 23.1158 164.188 19.769V12.7202H166.844V19.4928C166.844 21.6114 167.658 22.6713 169.284 22.6713C170.07 22.6713 170.716 22.3794 171.224 21.7955C171.731 21.2115 171.986 20.4478 171.986 19.5029V12.7188H174.643V24.5123L174.641 24.5137Z" fill="#36BBEE"/>
<path d="M184.013 15.2646C183.692 15.0114 183.231 14.8849 182.627 14.8849C181.841 14.8849 181.185 15.2415 180.658 15.9563C180.132 16.6697 179.868 17.642 179.868 18.8702V24.5139H177.211V12.7203H179.868V15.1509H179.913C180.172 14.3211 180.571 13.6753 181.11 13.2108C181.648 12.7462 182.25 12.5146 182.913 12.5146C183.394 12.5146 183.761 12.588 184.013 12.7333V15.2674V15.2646Z" fill="#36BBEE"/>
<path d="M195.003 19.3411H187.011C187.041 20.4313 187.376 21.2727 188.014 21.8638C188.651 22.4549 189.526 22.7512 190.642 22.7512C191.893 22.7512 193.042 22.3744 194.088 21.6222V23.7752C193.02 24.4512 191.607 24.7892 189.851 24.7892C188.095 24.7892 186.773 24.2542 185.792 23.1827C184.811 22.1112 184.32 20.6053 184.32 18.6623C184.32 16.8271 184.861 15.3313 185.94 14.1764C187.02 13.0215 188.363 12.4434 189.965 12.4434C191.568 12.4434 192.809 12.9611 193.687 13.9981C194.565 15.0351 195.004 16.4747 195.004 18.3171V19.3426L195.003 19.3411ZM192.438 17.4527C192.43 16.4934 192.205 15.747 191.763 15.212C191.319 14.6784 190.709 14.4109 189.931 14.4109C189.153 14.4109 188.521 14.6913 187.991 15.2522C187.46 15.8131 187.134 16.5466 187.011 17.4527H192.439H192.438Z" fill="#36BBEE"/>
<g clip-path="url(#clip1_915_71164)">
<path d="M10.5945 0.476922H19.9637L10.2375 29.4717C10.1376 29.7695 9.94728 30.0285 9.6934 30.2118C9.43953 30.3952 9.13488 30.494 8.82234 30.4941H1.53073C1.29393 30.4941 1.06053 30.4374 0.849828 30.3286C0.639134 30.2198 0.457192 30.0622 0.319075 29.8687C0.180946 29.6752 0.0906024 29.4514 0.0555175 29.2157C0.0204441 28.9801 0.0416195 28.7395 0.117316 28.5137L9.17893 1.49932C9.27886 1.20126 9.4692 0.942245 9.72314 0.758757C9.9771 0.575281 10.2818 0.476933 10.5945 0.476922Z" fill="url(#paint0_linear_915_71164)"/>
<path d="M24.2099 19.9248H9.35246C9.21433 19.9247 9.07936 19.9664 8.96512 20.0445C8.85089 20.1227 8.76269 20.2336 8.71201 20.3628C8.66133 20.4921 8.65053 20.6338 8.68101 20.7694C8.71149 20.9049 8.78183 21.0281 8.88289 21.1228L18.4299 30.0885C18.7079 30.3492 19.0738 30.4943 19.454 30.4943H27.8668L24.2099 19.9248Z" fill="#0078D4"/>
<path d="M10.5966 0.476573C10.2805 0.475357 9.97228 0.575848 9.71703 0.763367C9.46176 0.950898 9.27278 1.21562 9.1777 1.51889L0.130475 28.4888C0.0496888 28.7153 0.0243221 28.9581 0.0565284 29.1966C0.0887346 29.4352 0.17757 29.6624 0.315514 29.8591C0.453447 30.0557 0.636449 30.216 0.849008 30.3265C1.06157 30.4371 1.29745 30.4943 1.53669 30.4937H9.01649C9.29508 30.4437 9.55544 30.3201 9.77102 30.1356C9.9866 29.9511 10.1497 29.7124 10.2435 29.4437L12.0477 24.0939L18.4922 30.1418C18.7624 30.3665 19.1011 30.4908 19.4516 30.4937H27.8331L24.157 19.9243L13.441 19.9268L19.9996 0.476573H10.5966Z" fill="url(#paint1_linear_915_71164)"/>
<path d="M22.5623 1.49752C22.4626 1.19994 22.2725 0.941353 22.019 0.758189C21.7654 0.575026 21.4611 0.476528 21.1489 0.476563H10.707C11.0192 0.476586 11.3234 0.575107 11.577 0.758259C11.8305 0.941411 12.0206 1.19996 12.1204 1.49752L21.1824 28.513C21.2582 28.7388 21.2794 28.9794 21.2444 29.2152C21.2092 29.4508 21.119 29.6748 20.9808 29.8683C20.8427 30.0619 20.6608 30.2196 20.4501 30.3285C20.2393 30.4373 20.0059 30.4941 19.769 30.4941H30.2112C30.4481 30.4939 30.6815 30.4372 30.8922 30.3284C31.1029 30.2195 31.2848 30.0618 31.4229 29.8682C31.561 29.6746 31.6512 29.4507 31.6862 29.215C31.7214 28.9794 31.7001 28.7388 31.6243 28.513L22.5623 1.49752Z" fill="url(#paint2_linear_915_71164)"/>
</g>
</g>
<defs>
<linearGradient id="paint0_linear_915_71164" x1="14.0093" y1="2.7013" x2="4.17171" y2="31.5867" gradientUnits="userSpaceOnUse">
<stop stop-color="#114A8B"/>
<stop offset="1" stop-color="#0669BC"/>
</linearGradient>
<linearGradient id="paint1_linear_915_71164" x1="17.0508" y1="16.1794" x2="14.7973" y2="16.9367" gradientUnits="userSpaceOnUse">
<stop stop-opacity="0.3"/>
<stop offset="0.071" stop-opacity="0.2"/>
<stop offset="0.321" stop-opacity="0.1"/>
<stop offset="0.623" stop-opacity="0.05"/>
<stop offset="1" stop-opacity="0"/>
</linearGradient>
<linearGradient id="paint2_linear_915_71164" x1="15.8119" y1="1.85739" x2="26.608" y2="30.4444" gradientUnits="userSpaceOnUse">
<stop stop-color="#3CCBF4"/>
<stop offset="1" stop-color="#2892DF"/>
</linearGradient>
<clipPath id="clip0_915_71164">
<rect width="195" height="30.0879" fill="white" transform="translate(0 0.456055)"/>
</clipPath>
<clipPath id="clip1_915_71164">
<rect width="31.7429" height="30.0591" fill="white" transform="translate(0 0.456055)"/>
</clipPath>
</defs>
</svg>
