<svg width="94" height="33" viewBox="0 0 94 33" fill="none" xmlns="http://www.w3.org/2000/svg">
<g clip-path="url(#clip0_1522_77142)">
<path d="M5.49797 23.6674C8.93924 23.6674 10.7257 21.6327 10.7284 18.0633V15.0996H7.41347V18.2864C7.41347 19.8794 6.71017 20.4528 5.59563 20.4519C4.48109 20.451 3.77955 19.8767 3.78135 18.2828L3.79119 6.2379C3.79119 4.64494 4.49359 4.04019 5.60903 4.04108C6.72446 4.04198 7.4251 4.64765 7.42331 6.24151V8.63096H10.7383V6.46459C10.7383 2.8952 8.95893 0.855151 5.51765 0.851567C2.07638 0.847983 0.289932 2.88623 0.287244 6.45563L0.277347 18.0544C0.274659 21.6238 2.05669 23.6647 5.49797 23.6674Z" fill="#9991B5"/>
<path d="M15.7652 19.3741H20.0657L20.6678 23.421H24.2049L20.6552 1.1123H15.5251L11.9414 23.4147H15.1596L15.7652 19.3741ZM17.9155 5.06873L19.5944 16.3503H16.2168L17.9155 5.06873Z" fill="#9991B5"/>
<path d="M28.869 7.65986L31.4672 23.4354H34.7822L37.2173 7.44126L37.2039 23.4372H40.5188L40.5376 1.12851H35.662L33.2591 16.9632L30.6913 1.12402H25.8157L25.7969 23.4328H28.8556L28.869 7.65986Z" fill="#9991B5"/>
<path d="M48.1317 23.7355C51.5729 23.7355 53.3594 21.7008 53.3621 18.1314L53.3764 1.14811H50.0615L50.0472 18.3545C50.0472 19.9474 49.3448 20.5208 48.2293 20.5199C47.1139 20.519 46.4132 19.9448 46.415 18.3518L46.4294 1.14453H42.9245L42.9102 18.1287C42.9057 21.6918 44.6904 23.7328 48.1317 23.7355Z" fill="#9991B5"/>
<path d="M58.8829 7.30203L63.2344 23.4611H66.8351L66.854 1.15234H63.7316L63.72 14.5018L60.1309 1.15593H55.7337L55.7148 23.4647H58.8694L58.8829 7.30203Z" fill="#9991B5"/>
<path d="M80.1299 17.9635L80.1398 6.68373C80.1398 3.11524 78.4241 1.16925 74.9192 1.16657L69.3743 1.16211L69.3555 23.4708L74.8995 23.4753C78.4053 23.4753 80.1273 21.5329 80.1299 17.9635ZM72.8631 20.2831L72.8764 4.35072H74.852C75.9675 4.35072 76.6358 4.9259 76.634 6.51886L76.6242 18.1176C76.6242 19.7106 75.9531 20.284 74.8377 20.2831H72.8631Z" fill="#9991B5"/>
<path d="M85.2574 19.4337H89.5579L90.16 23.4816H93.6971L90.1474 1.17285H85.0173L81.4336 23.4753H84.6517L85.2574 19.4337ZM87.4076 5.1284L89.0866 16.41H85.709L87.4076 5.1284Z" fill="#9991B5"/>
<path d="M93.698 26.9443H0.277344V32.853H93.698V26.9443Z" fill="#9991B5"/>
<path d="M93.698 26.9443H0.277344V32.853H93.698V26.9443Z" fill="#9991B5"/>
</g>
<defs>
<clipPath id="clip0_1522_77142">
<rect width="93.4215" height="32" fill="white" transform="translate(0.277344 0.852539)"/>
</clipPath>
</defs>
</svg>
