<svg width="176" height="60" viewBox="0 0 176 60" fill="none" xmlns="http://www.w3.org/2000/svg">
<g clip-path="url(#clip0_624_9591)">
<path d="M9.78867 42.7779C16.2411 42.7779 19.5907 38.9629 19.5958 32.2703V26.7133H13.3802V32.6887C13.3802 35.6755 12.0615 36.7506 9.97179 36.7489C7.88203 36.7472 6.56664 35.6704 6.57 32.6819L6.58846 10.0977C6.58846 7.11087 7.90547 5.97696 9.99691 5.97864C12.0883 5.98032 13.402 7.11596 13.3987 10.1044V14.5847H19.6142V10.5227C19.6142 3.83011 16.278 0.00501935 9.82558 -0.00170014C3.37319 -0.00841963 0.0236035 3.8133 0.0185639 10.5059L5.69236e-06 32.2536C-0.00503392 38.9462 3.33628 42.7729 9.78867 42.7779Z" fill="black"/>
<path d="M29.0364 34.728H37.0998L38.2286 42.316H44.8608L38.2051 0.487183H28.5862L21.8667 42.3043H27.9008L29.0364 34.728ZM33.068 7.90547L36.2162 29.0584H29.883L33.068 7.90547Z" fill="black"/>
<path d="M53.6079 12.7637L58.4795 42.3429H64.6951L69.261 12.3539L69.2358 42.3463H75.4513L75.4866 0.517441H66.3447L61.8393 30.2075L57.0247 0.509033H47.8829L47.8477 42.3379H53.5827L53.6079 12.7637Z" fill="black"/>
<path d="M89.7288 42.9056C96.1812 42.9056 99.5309 39.0906 99.5359 32.398L99.5628 0.554323H93.3472L93.3204 32.8162C93.3204 35.8031 92.0034 36.8782 89.9119 36.8765C87.8205 36.8748 86.5068 35.798 86.5101 32.8112L86.537 0.547607H79.9654L79.9385 32.3929C79.9301 39.0738 83.2764 42.9005 89.7288 42.9056Z" fill="black"/>
<path d="M109.889 12.0934L118.048 42.3916H124.799L124.835 0.562744H118.98L118.958 25.5929L112.229 0.56946H103.984L103.949 42.3983H109.864L109.889 12.0934Z" fill="black"/>
<path d="M149.722 32.0822L149.741 10.9326C149.741 4.2417 146.524 0.592986 139.952 0.587946L129.555 0.57959L129.52 42.4084L139.915 42.4168C146.488 42.4168 149.717 38.7748 149.722 32.0822ZM136.097 36.4314L136.122 6.55824H139.826C141.917 6.55824 143.171 7.63669 143.167 10.6235L143.149 32.3712C143.149 35.358 141.891 36.4331 139.799 36.4314H136.097Z" fill="black"/>
<path d="M159.339 34.8389H167.403L168.531 42.4285H175.164L168.508 0.599731H158.889L152.169 42.4168H158.203L159.339 34.8389ZM163.371 8.01638L166.519 29.1693H160.186L163.371 8.01638Z" fill="black"/>
<path d="M175.165 48.9213H0.00146484V60H175.165V48.9213Z" fill="black"/>
<path d="M175.165 48.9213H0.00146484V60H175.165V48.9213Z" fill="black"/>
</g>
<defs>
<clipPath id="clip0_624_9591">
<rect width="175.165" height="60" fill="white"/>
</clipPath>
</defs>
</svg>
