<svg xmlns="http://www.w3.org/2000/svg" width="146" height="50" viewBox="0 0 146 50">
    <path fill="#fff"
        d="M95.77 36.167c-6.01 4.166-13.124 8.614-20.833 13.24l-.302.176a.218.218 0 0 0-.062.313.23.23 0 0 0 .323.052l.25-.136a1012.91 1012.91 0 0 0 21.458-11.385l.125-.073a8.96 8.96 0 0 1-.958-2.187Zm39.438-31.521c-9.479-10.313-70.416-1.042-96.333 4.552l-.604.177a.229.229 0 0 0-.188.26.23.23 0 0 0 .271.178l.594-.115c21.468-3.813 66.125-9.042 75.729.364 2.937 2.865 2.24 6.563-1.167 10.928a8.62 8.62 0 0 1 3.729 5.27c13.271-8.708 22.188-17.02 17.969-21.614Z" />
    <path fill="#fff"
        d="M99.604 33.458c.115 3.625 2.448 6.594 5.479 6.594 5.875 0 8.334-7.125 8.209-11.885-.125-3.636-2.511-6.605-5.542-6.605-5.063 0-8.323 7.105-8.146 11.896Zm-3.125-.198c-.219-6.187 4.688-12.5 11.833-12.5 4.771 0 7.896 3.125 8.073 7.948.229 6.532-4.364 12.5-11.833 12.5-4.76 0-7.886-3.125-8.052-7.948h-.021ZM28.875 31.625c-.34.117-.688.208-1.042.27-.406.095-1.146.23-2.229.397a3.812 3.812 0 0 0-1.552.479 1.134 1.134 0 0 0-.5.75.718.718 0 0 0 .333.77c.44.238.94.343 1.438.303a4.783 4.783 0 0 0 1.52-.219 3.407 3.407 0 0 0 1.209-.635c.234-.203.413-.46.52-.75a9.96 9.96 0 0 0 .303-1.365Zm6.25-3.813a15.094 15.094 0 0 1-.271 1.938l-1.042 5.823a1.041 1.041 0 0 0 .563 1.198V37H28.29l-.052-1.48c-.904.53-1.874.94-2.885 1.22-.942.244-1.912.36-2.885.343-1.938 0-3.053-.198-3.823-.864a2.335 2.335 0 0 1-1.115-2.084c.06-.637.315-1.24.73-1.729a4.25 4.25 0 0 1 1.593-1.104 8.773 8.773 0 0 1 2.417-.667c1.041-.177 2.541-.343 4.52-.51a6.738 6.738 0 0 0 1.98-.438c.416-.156.573-.333.635-.666.115-.604-.083-.938-.885-1.094-2.167-.427-6.25.27-8.334.781l1.136-3.02A54.41 54.41 0 0 1 29.406 25c4.334 0 5.719 1.25 5.667 2.813h.052ZM52.5 37l2.083-11.625h5.75L58.25 37H52.5Zm2.406-14.323c.177-.948 1.698-1.73 3.406-1.73 1.709 0 2.959.782 2.792 1.73-.167.948-1.73 1.74-3.417 1.74-1.687 0-2.958-.782-2.78-1.74ZM80.781 31.656a8.94 8.94 0 0 1-1.041.271c-.459.094-1.157.208-2.24.386a3.812 3.812 0 0 0-1.552.479 1.219 1.219 0 0 0-.5.75.718.718 0 0 0 .333.77c.446.232.948.333 1.448.292a5.135 5.135 0 0 0 1.531-.229 3.769 3.769 0 0 0 1.209-.635c.23-.21.41-.47.52-.76.128-.435.225-.877.292-1.324Zm6.25-3.823c-.047.652-.141 1.3-.281 1.938l-1.042 5.823a1.042 1.042 0 0 0 .584 1.208V37h-6.084v-1.48c-.905.529-1.875.939-2.885 1.22-.945.25-1.92.365-2.896.343-1.938 0-3.042-.187-3.813-.854-.77-.666-1.166-1.146-1.124-2.083.06-.638.314-1.241.729-1.73.448-.48.995-.857 1.604-1.103a9.566 9.566 0 0 1 2.406-.678c1.042-.156 2.552-.333 4.531-.5a6.84 6.84 0 0 0 1.969-.427c.417-.166.583-.343.646-.677.104-.583-.084-.937-.885-1.093-2.178-.428-6.25.27-8.334.78l1.125-3.02a55.975 55.975 0 0 1 8.073-.656c4.292.01 5.667 1.24 5.636 2.791h.041ZM16.74 32.823c-1.57.345-3.174.513-4.782.5-2.75 0-4.927-1.344-4.812-3.813.083-1.645 2.083-5.125 7.073-5.125a8.334 8.334 0 0 1 4.53 1.22l.73-4.043a13.98 13.98 0 0 0-5.698-.947c-6.625.073-12.937 3.02-13.719 9.02-.78 6 6.74 7.636 10.094 7.625 1.938 0 3.948-.083 5.823-.28l.76-4.157ZM63.541 25.302l.386-2.385 6.02-1.292-.635 3.656h2.948l-.562 2.344h-2.865L67.104 37h-5.823l1.73-9.323h-2.188l.448-2.364 2.27-.01ZM92.833 36.99 86.97 37l2.948-16.219 5.718.157-2.802 16.052ZM44.885 28.125a3.364 3.364 0 0 0-2.083.677 3.042 3.042 0 0 0-1.136 1.958A2.523 2.523 0 0 0 42 32.958a2.282 2.282 0 0 0 1.781.667c.501.015.999-.081 1.459-.281.451-.217.839-.547 1.124-.959.327-.455.544-.978.636-1.53a2.26 2.26 0 0 0-.406-2.084 2.218 2.218 0 0 0-1.709-.646ZM34.375 41.01l2.802-15.625h5.052l-.385 1.99a4.854 4.854 0 0 1 2.083-1.48 8.686 8.686 0 0 1 3.27-.687 6.052 6.052 0 0 1 3.126.584 4.167 4.167 0 0 1 2.083 2.198 5.73 5.73 0 0 1 .25 3.125 6.873 6.873 0 0 1-2.844 4.552 7.573 7.573 0 0 1-4.916 1.406 7.687 7.687 0 0 1-1.771-.188 3.842 3.842 0 0 1-1.146-.458 4.866 4.866 0 0 1-.948-.844l-.948 5.344-5.708.083ZM138.906 29.52a1.412 1.412 0 0 0-.383-1.125 1.42 1.42 0 0 0-1.106-.437c-2.365 0-4.875 4.563-5.303 6.407 3.865.01 6.886-2.282 6.792-4.844Zm.5 7.157.458.313a7.22 7.22 0 0 1-6.25 4.166 4.075 4.075 0 0 1-4.166-4.26c-.177-4.99 4.541-9.615 8.416-9.615 1.667 0 3.198.719 3.271 2.48.146 3.968-5.489 5.208-9.208 5.26a4.567 4.567 0 0 0-.146 1.458 2.952 2.952 0 0 0 1.923 2.853c.384.142.793.203 1.202.178a5.944 5.944 0 0 0 4.5-2.833Z" />
    <path fill="#fff"
        d="M116.323 29.396c.396 0 1.041-.125 1.312-.125.271 0 .823.083.844.49 0 .25-.437 2.01-.531 2.427l-.896 3.906c-.365 1.593-.76 3.27-1.104 4.593h2.302l1.302-6.187c3.948-4.073 5.469-5.396 6.406-5.396a.67.67 0 0 1 .69.432c.034.092.047.19.039.287a12.25 12.25 0 0 1-.583 2.802l-1.323 4.52a9.182 9.182 0 0 0-.5 2.584 1.382 1.382 0 0 0 .959 1.375c.191.06.394.078.593.052 1.677 0 2.906-1.729 3.979-3.437l-.312-.563c-.438.688-1.438 2.188-2.229 2.188-.25 0-.479-.167-.49-.584a6.705 6.705 0 0 1 .354-1.833l1.469-5.292c.302-.94.494-1.911.573-2.895a1.364 1.364 0 0 0-.413-1.081 1.358 1.358 0 0 0-1.097-.367c-1.521 0-3.532 1.093-7.803 5.937h-.072l.541-2.364c.292-1.292.573-2.646.854-3.573a40.298 40.298 0 0 1-4.895 1.364l.031.74ZM145.239 27.469a2.082 2.082 0 0 1-2.854 0 1.992 1.992 0 0 1-.438-.646 1.99 1.99 0 0 1 0-1.53c.102-.243.251-.463.438-.647a2.085 2.085 0 0 1 2.854 0 1.872 1.872 0 0 1 .594 1.396 1.928 1.928 0 0 1-.594 1.427Zm-2.656-2.625a1.676 1.676 0 0 0-.51 1.208 1.71 1.71 0 0 0 .51 1.23 1.76 1.76 0 0 0 2.459 0 1.712 1.712 0 0 0 .51-1.23 1.676 1.676 0 0 0-.51-1.208 1.761 1.761 0 0 0-2.459 0Zm1.167.156a1.71 1.71 0 0 1 .604.073.544.544 0 0 1 .344.552.477.477 0 0 1-.219.438.73.73 0 0 1-.312.104.545.545 0 0 1 .375.218.587.587 0 0 1 .125.334v.323a.549.549 0 0 0 0 .114h-.375v-.291a.52.52 0 0 0-.219-.5.824.824 0 0 0-.427-.073h-.313v.864h-.385V25h.802Zm.427.344a1.092 1.092 0 0 0-.479-.084h-.334v.782h.386c.124.021.251.021.375 0a.334.334 0 0 0 .229-.333.331.331 0 0 0-.156-.407l-.021.042Z" />
</svg>