<svg width="197" height="31" viewBox="0 0 197 31" fill="none" xmlns="http://www.w3.org/2000/svg">
<path d="M0.796875 26.4922H4.46103V30.1995H0.796875V26.4922Z" fill="#E52421"/>
<path d="M26.4891 0.799805V30.1993H22.8249V0.799805H26.4891ZM19.1608 0.799805V30.1993H15.4966V0.799805H19.1608ZM33.8605 12.7406V18.2584H30.1963V12.7406H33.8605ZM11.7893 0.799805V30.1993H8.12519V0.799805H11.7893ZM4.46103 0.799805V26.5351H0.796875V0.799805H4.46103Z" fill="#FFCC03"/>
<path d="M175.557 10.7149C176.505 10.7149 177.454 10.8011 178.359 10.9735C179.006 11.1029 179.652 11.3184 180.256 11.5771L179.609 13.7755C179.092 13.5169 178.575 13.3014 178.014 13.1289C177.238 12.8703 176.419 12.741 175.643 12.7841C174.781 12.741 173.962 12.9134 173.186 13.2583C172.54 13.6031 172.195 14.2497 172.281 14.9826C172.281 15.3274 172.367 15.6723 172.583 15.9309C172.798 16.1896 173.057 16.4482 173.359 16.6207C173.703 16.8362 174.091 17.0086 174.479 17.1379L175.816 17.5259L177.626 18.1294C178.187 18.345 178.747 18.6467 179.264 18.9916C180.342 19.7675 180.946 21.0176 180.859 22.3109C180.902 23.0868 180.73 23.8628 180.342 24.5094C179.997 25.1129 179.523 25.5871 178.963 25.975C178.359 26.363 177.712 26.6648 177.023 26.8372C176.247 26.9234 175.471 26.9665 174.695 26.8803C174.005 26.9234 173.359 26.9234 172.669 26.8803C172.152 26.7941 171.677 26.7079 171.16 26.5785C170.772 26.4923 170.384 26.363 169.996 26.1906C169.694 26.0612 169.393 25.8888 169.091 25.7164L169.953 23.5179C170.169 23.6903 170.341 23.8196 170.6 23.949C170.945 24.1214 171.246 24.2938 171.634 24.4232C172.065 24.5956 172.54 24.7249 173.014 24.8111C173.574 24.8973 174.135 24.9835 174.695 24.9835C175.6 25.0267 176.505 24.8111 177.281 24.3369C177.842 23.9059 178.187 23.2161 178.144 22.4833C178.187 21.8798 177.885 21.2763 177.411 20.8883C176.635 20.371 175.816 19.9831 174.91 19.7675L172.971 19.1209C172.367 18.9054 171.85 18.6467 171.333 18.2587C170.858 17.9139 170.47 17.4828 170.169 16.9655C169.867 16.362 169.694 15.6723 169.738 15.0257C169.651 13.7324 170.255 12.5254 171.289 11.7495C172.583 11.0167 174.048 10.6287 175.557 10.7149ZM155.728 10.9304V21.4487C155.728 21.966 155.771 22.4833 155.943 23.0006C156.072 23.3886 156.288 23.7334 156.59 23.9921C156.848 24.2507 157.193 24.4232 157.538 24.5094C157.926 24.5956 158.314 24.6818 158.702 24.6818C159.737 24.7249 160.728 24.4231 161.547 23.8196C162.323 23.2161 162.97 22.4833 163.401 21.6212V10.9304H166.073V26.4492H163.702L163.444 23.6472C163.013 24.5956 162.28 25.3715 161.375 25.975C160.34 26.6216 159.133 26.9234 157.883 26.8803C156.547 26.9234 155.296 26.4492 154.305 25.544C153.313 24.4231 152.839 22.9575 152.969 21.4487V10.9304H155.728ZM62.3993 5.06779C63.3477 5.32643 64.253 5.6713 65.1151 6.10237L64.2961 8.60262C63.5201 8.08532 62.7011 7.69736 61.8389 7.3525C60.8043 7.00763 59.7267 6.8352 58.6059 6.87831C56.5798 6.87831 54.64 7.69736 53.3036 9.24923C52.5708 10.0683 52.0535 11.0166 51.6655 12.0512C51.2344 13.3014 51.0189 14.5946 51.062 15.8878C51.062 17.1379 51.2344 18.4312 51.6224 19.6382C51.9673 20.6728 52.4846 21.578 53.1743 22.3971C53.8209 23.1299 54.64 23.7334 55.5452 24.1214C56.5367 24.5094 57.5713 24.7249 58.649 24.7249C59.6404 24.7249 60.5888 24.5956 61.4941 24.2938C62.3562 23.9921 63.2184 23.6041 64.0374 23.1299L64.8134 25.0267C64.0374 25.5871 63.2184 26.0181 62.27 26.3199C61.063 26.751 59.7698 26.9234 58.4765 26.9234C57.0109 26.9234 55.5883 26.7079 54.252 26.1906C53.0019 25.6733 51.838 24.9404 50.9327 23.9921C49.9412 23.0006 49.1653 21.8367 48.6911 20.5435C47.6134 17.5259 47.6134 14.2066 48.6911 11.1891C49.6826 8.55951 51.8379 6.49034 54.5106 5.49886C55.8901 4.98157 57.3557 4.72293 58.8645 4.76603C60.0715 4.63671 61.2354 4.76603 62.3993 5.06779ZM89.7727 10.6287C90.6349 10.6287 91.497 10.7149 92.3161 10.9304C93.0058 11.0598 93.6093 11.3615 94.2128 11.7064L93.3507 14.0342C92.7903 13.6031 92.1868 13.2583 91.5833 12.9996C90.9366 12.741 90.2038 12.6116 89.5141 12.6547C88.8244 12.6547 88.1777 12.7841 87.5311 13.0427C86.8845 13.3014 86.3241 13.6893 85.893 14.2066C85.4189 14.767 85.0309 15.4136 84.7722 16.1034C84.4705 16.9655 84.3412 17.8708 84.3412 18.776C84.2118 20.371 84.7722 21.966 85.8068 23.2161C86.8845 24.2507 88.3502 24.768 89.8589 24.6818C91.1522 24.6387 92.4454 24.2507 93.5231 23.5179L94.1266 25.4577C93.5231 25.8888 92.8334 26.2337 92.1437 26.4492C91.2815 26.751 90.4194 26.8803 89.5141 26.9234C88.4795 26.9234 87.4018 26.751 86.4103 26.363C85.462 26.0181 84.5998 25.4577 83.9101 24.768C83.1773 24.0352 82.6169 23.173 82.2289 22.2247C81.4098 20.0262 81.4098 17.6121 82.2289 15.4136C82.6169 14.4653 83.1773 13.6031 83.9532 12.8703C84.686 12.1375 85.5913 11.5771 86.5828 11.2322C87.6173 10.8011 88.695 10.6287 89.7727 10.6287ZM141.89 10.6287C142.881 10.6287 143.916 10.8011 144.821 11.1891C145.727 11.5339 146.589 12.0943 147.278 12.7841C148.011 13.5169 148.572 14.3791 148.96 15.3274C149.779 17.569 149.779 20.0262 148.96 22.2678C148.615 23.2161 148.054 24.0783 147.365 24.8111C146.675 25.5008 145.813 26.0181 144.908 26.4061C143.916 26.7941 142.881 26.9665 141.847 26.9665C140.855 26.9665 139.864 26.7941 138.916 26.4061C138.01 26.0612 137.191 25.5008 136.501 24.8111C135.769 24.0783 135.208 23.2161 134.863 22.2678C134.044 20.0262 134.044 17.569 134.863 15.3274C135.251 14.3791 135.812 13.5169 136.501 12.7841C137.191 12.0943 138.01 11.577 138.916 11.1891C139.907 10.8011 140.898 10.6287 141.89 10.6287ZM190.515 10.5425C191.507 10.5425 192.498 10.7149 193.404 11.1029C194.223 11.4477 194.956 12.0081 195.516 12.741C196.119 13.5169 196.507 14.4222 196.637 15.4136C196.852 16.6207 196.852 17.8708 196.637 19.0778H185.903C186.032 22.7851 187.8 24.6387 191.248 24.6387C192.067 24.6387 192.886 24.5094 193.662 24.2507C194.352 23.9921 195.042 23.6903 195.645 23.2592L196.421 25.1991C195.775 25.7164 194.999 26.1475 194.18 26.363C193.188 26.7079 192.154 26.8372 191.076 26.8372C188.92 26.9665 186.808 26.1475 185.256 24.6387C183.834 22.9575 183.101 20.8021 183.23 18.6467C183.23 17.4828 183.403 16.362 183.791 15.2412C184.136 14.2928 184.653 13.4307 185.343 12.6979C185.989 12.0081 186.722 11.4477 187.584 11.1029C188.533 10.7149 189.524 10.5425 190.515 10.5425ZM71.0209 4.0332V26.5354H68.3482V4.0332H71.0209ZM100.119 4.0332V26.5354H97.4028V4.0332H100.119ZM109.818 10.9304L103.352 17.9139L110.249 26.5785H107.102L100.463 18.2587L107.016 10.9735H109.818V10.9304ZM116.284 4.98157V14.8101H127.535V4.98157H130.423V26.5785H127.535V17.0086H116.284V26.5354H113.396V4.98157H116.284ZM78.1337 10.9304V26.4492H75.461V10.9304H78.1337ZM141.89 12.6547C141.286 12.6547 140.683 12.7841 140.079 12.9996C139.476 13.2151 138.959 13.6031 138.528 14.0773C138.053 14.6377 137.665 15.2843 137.407 15.974C137.105 16.8793 136.976 17.8277 137.019 18.776C136.976 19.7244 137.148 20.6728 137.407 21.578C137.622 22.2678 138.01 22.9144 138.528 23.4748C138.959 23.949 139.476 24.2938 140.079 24.5525C140.64 24.768 141.286 24.8973 141.89 24.8973C142.537 24.8973 143.14 24.768 143.744 24.5525C144.347 24.3369 144.908 23.949 145.339 23.4748C145.856 22.9144 146.244 22.2678 146.459 21.578C146.761 20.6728 146.89 19.7244 146.89 18.776C146.934 17.8277 146.761 16.8793 146.459 15.974C146.201 15.2843 145.813 14.6377 145.339 14.0773C144.908 13.6031 144.347 13.2151 143.744 12.9996C143.14 12.741 142.537 12.6547 141.89 12.6547ZM190.602 12.4823C189.524 12.4823 188.446 12.9134 187.713 13.6893C186.808 14.6808 186.291 15.9309 186.162 17.2673H194.223C194.438 16.0171 194.136 14.6808 193.404 13.6462C192.671 12.8703 191.636 12.4392 190.602 12.4823ZM78.0043 5.7144C78.3061 6.05926 78.4785 6.49034 78.4785 6.92142C78.4785 7.3525 78.3061 7.78357 78.0043 8.08533C77.6595 8.38708 77.2284 8.55951 76.7973 8.55951C76.3231 8.60262 75.892 8.43019 75.5472 8.12844C75.2023 7.82668 75.0299 7.3956 75.073 6.92142C75.073 6.49034 75.2023 6.01616 75.5041 5.7144C76.2369 5.06779 77.3146 5.06779 78.0043 5.7144Z" fill="#221F20"/>
</svg>
