<svg width="128" height="41" viewBox="0 0 128 41" fill="none" xmlns="http://www.w3.org/2000/svg">
<g clip-path="url(#clip0_915_71203)">
<path d="M46.4297 18.7893C46.4297 14.9051 48.6928 12.6419 53.9771 12.6419C55.9281 12.6414 57.8718 12.8761 59.7665 13.3419L59.3192 16.8156C57.6072 16.4949 55.8712 16.3189 54.1297 16.2893C51.356 16.2893 50.4455 17.2419 50.4455 19.5051V27.6419C50.4455 29.8998 51.3349 30.8577 54.1297 30.8577C55.8712 30.8281 57.6072 30.6521 59.3192 30.3314L59.7665 33.8051C57.872 34.2708 55.928 34.5058 53.9771 34.5051C48.7139 34.5051 46.4297 32.2419 46.4297 28.3577V18.7893ZM68.3392 34.4893C63.0181 34.4893 61.5918 31.5524 61.5918 28.3945V24.4577C61.5918 21.2998 63.0234 18.3419 68.3444 18.3419C73.6655 18.3419 75.0918 21.2735 75.0918 24.4577V28.3945C75.0865 31.5524 73.6549 34.4893 68.3392 34.4893ZM68.3392 21.6524C66.2655 21.6524 65.4707 22.5788 65.4707 24.3314V28.4998C65.4707 30.2524 66.2655 31.1735 68.3392 31.1735C70.4128 31.1735 71.2023 30.2524 71.2023 28.4998V24.3314C71.2023 22.6051 70.4076 21.6524 68.3392 21.6524ZM86.9023 34.184V23.3419C86.9023 22.5156 86.5497 22.0998 85.6602 22.0998C84.7707 22.0998 83.0286 22.6735 81.6128 23.4051V34.184H77.7292V18.663H80.6918L81.0655 19.9735C82.9997 19.0046 85.1151 18.4506 87.276 18.3472C89.8549 18.3472 90.7818 20.163 90.7818 22.9314V34.184H86.9023ZM98.7765 34.4893C96.9594 34.4591 95.1571 34.1575 93.4292 33.5945L93.9555 30.6366C95.4573 31.0649 97.0097 31.2897 98.5713 31.3051C100.292 31.3051 100.545 30.9209 100.545 29.7261C100.545 28.7735 100.355 28.2945 97.8397 27.6893C94.0502 26.7682 93.6028 25.8103 93.6028 22.8156C93.6028 19.6945 94.9713 18.3261 99.3923 18.3261C100.957 18.3216 102.516 18.4983 104.04 18.8524L103.698 21.9735C102.289 21.7137 100.861 21.5641 99.4292 21.5261C97.7397 21.5261 97.4555 21.9103 97.4555 22.863C97.4555 24.1051 97.5502 24.1998 99.6555 24.7419C103.982 25.8893 104.392 26.463 104.392 29.6472C104.382 32.6419 103.461 34.4893 98.7765 34.4893ZM110.813 18.663V29.4893C110.813 30.3156 111.161 30.7314 112.055 30.7314C112.95 30.7314 114.687 30.1577 116.098 29.4261V18.663H119.982V34.184H117.024L116.64 32.8788C114.706 33.8484 112.59 34.4024 110.429 34.5051C107.85 34.5051 106.929 32.6893 106.929 29.9156V18.663H110.813ZM123.323 34.184V12.3261L127.207 11.7998V34.184H123.323Z" fill="black"/>
<path d="M17.1216 40.284C14.4015 40.2853 11.7222 39.6228 9.31618 38.3539C6.91017 37.0849 4.85018 35.248 3.315 33.0025C1.77982 30.757 0.815845 28.1708 0.506726 25.4683C0.197608 22.7658 0.552692 20.0287 1.54116 17.4946C2.52963 14.9604 4.12161 12.7058 6.17894 10.9264C8.23627 9.14691 10.6968 7.89644 13.3469 7.28346C15.9971 6.67049 18.7568 6.71353 21.3865 7.40886C24.0163 8.10418 26.4366 9.43078 28.4374 11.2735L24.4848 15.4209C22.9072 13.9985 20.951 13.064 18.8532 12.7307C16.7554 12.3973 14.6059 12.6794 12.6651 13.5427C10.7243 14.406 9.07547 15.8135 7.91828 17.5948C6.76109 19.3761 6.14519 21.4546 6.14519 23.5788C6.14519 25.7029 6.76109 27.7815 7.91828 29.5628C9.07547 31.344 10.7243 32.7516 12.6651 33.6149C14.6059 34.4782 16.7554 34.7602 18.8532 34.4269C20.951 34.0935 22.9072 33.1591 24.4848 31.7367L28.4374 35.8682C25.3554 38.7115 21.3148 40.2883 17.1216 40.284ZM30.5743 31.9209C30.2113 31.9209 29.8633 31.7767 29.6066 31.5201C29.35 31.2635 29.2058 30.9154 29.2058 30.5525C29.2058 30.1895 29.35 29.8415 29.6066 29.5848C29.8633 29.3282 30.2113 29.184 30.5743 29.184C30.9372 29.184 31.2852 29.3282 31.5419 29.5848C31.7985 29.8415 31.9427 30.1895 31.9427 30.5525C31.9427 30.9154 31.7985 31.2635 31.5419 31.5201C31.2852 31.7767 30.9372 31.9209 30.5743 31.9209Z" fill="#E03875"/>
<path d="M17.0156 27.1897C16.0552 27.1897 15.1342 26.8082 14.4551 26.1291C13.776 25.45 13.3945 24.529 13.3945 23.5686C13.3945 22.6082 13.776 21.6872 14.4551 21.0081C15.1342 20.3291 16.0552 19.9476 17.0156 19.9476C17.9759 19.9476 18.897 20.3291 19.5761 21.0081C20.2551 21.6872 20.6366 22.6082 20.6366 23.5686C20.6366 24.529 20.2551 25.45 19.5761 26.1291C18.897 26.8082 17.9759 27.1897 17.0156 27.1897ZM32.1472 27.2423C31.8765 27.2423 31.6119 27.162 31.3869 27.0117C31.1619 26.8613 30.9865 26.6476 30.8829 26.3975C30.7793 26.1475 30.7522 25.8724 30.805 25.6069C30.8578 25.3415 30.9882 25.0976 31.1795 24.9062C31.3709 24.7149 31.6147 24.5845 31.8802 24.5317C32.1456 24.4789 32.4208 24.506 32.6708 24.6096C32.9209 24.7132 33.1346 24.8886 33.285 25.1136C33.4353 25.3387 33.5156 25.6032 33.5156 25.8739C33.5142 26.2364 33.3696 26.5836 33.1133 26.84C32.8569 27.0963 32.5097 27.2409 32.1472 27.2423ZM28.074 27.0844C27.7111 27.0844 27.363 26.9402 27.1064 26.6836C26.8498 26.427 26.7056 26.0789 26.7056 25.716C26.7056 25.353 26.8498 25.005 27.1064 24.7484C27.363 24.4917 27.7111 24.3476 28.074 24.3476C28.4369 24.3476 28.785 24.4917 29.0416 24.7484C29.2983 25.005 29.4424 25.353 29.4424 25.716C29.4424 26.0789 29.2983 26.427 29.0416 26.6836C28.785 26.9402 28.4369 27.0844 28.074 27.0844ZM32.1472 22.637C31.8765 22.637 31.6119 22.5568 31.3869 22.4064C31.1619 22.256 30.9865 22.0423 30.8829 21.7923C30.7793 21.5422 30.7522 21.2671 30.805 21.0016C30.8578 20.7362 30.9882 20.4924 31.1795 20.301C31.3709 20.1096 31.6147 19.9793 31.8802 19.9265C32.1456 19.8737 32.4208 19.9008 32.6708 20.0044C32.9209 20.1079 33.1346 20.2833 33.285 20.5084C33.4353 20.7334 33.5156 20.998 33.5156 21.2686C33.5142 21.6311 33.3696 21.9784 33.1133 22.2347C32.8569 22.491 32.5097 22.6356 32.1472 22.637ZM28.074 22.7949C27.7111 22.7949 27.363 22.6507 27.1064 22.3941C26.8498 22.1375 26.7056 21.7894 26.7056 21.4265C26.7056 21.0636 26.8498 20.7155 27.1064 20.4589C27.363 20.2023 27.7111 20.0581 28.074 20.0581C28.4369 20.0581 28.785 20.2023 29.0416 20.4589C29.2983 20.7155 29.4424 21.0636 29.4424 21.4265C29.4424 21.7894 29.2983 22.1375 29.0416 22.3941C28.785 22.6507 28.4369 22.7949 28.074 22.7949ZM30.6524 18.0318C30.2895 18.0318 29.9414 17.8876 29.6848 17.631C29.4282 17.3743 29.284 17.0263 29.284 16.6633C29.284 16.3004 29.4282 15.9524 29.6848 15.6957C29.9414 15.4391 30.2895 15.2949 30.6524 15.2949C31.0154 15.2949 31.3634 15.4391 31.62 15.6957C31.8767 15.9524 32.0208 16.3004 32.0208 16.6633C32.0208 17.0263 31.8767 17.3743 31.62 17.631C31.3634 17.8876 31.0154 18.0318 30.6524 18.0318Z" fill="#E03875"/>
<path d="M50.7707 7.73158V4.75789H48.0496V7.73158H46.6602V0.584211H48.0496V3.58421H50.7707V0.584211H52.1602V7.73158H50.7707ZM57.2602 7.73158H56.1549L56.0549 7.38421C55.5806 7.67886 55.0343 7.83728 54.4759 7.8421C53.497 7.8421 53.0759 7.19474 53.0759 6.30526C53.0759 5.25263 53.5496 4.85263 54.6549 4.85263H55.9444V4.32632C55.9444 3.75789 55.7812 3.55789 54.8917 3.55789C54.3917 3.56316 53.8928 3.61579 53.4023 3.71579L53.2391 2.73158C53.8396 2.56859 54.459 2.48542 55.0812 2.48421C56.7654 2.48421 57.2654 3.05789 57.2654 4.34737L57.2602 7.73158ZM55.9128 5.76316H54.9181C54.4812 5.76316 54.3602 5.87895 54.3602 6.28947C54.3602 6.7 54.4812 6.81579 54.8865 6.81579C55.2414 6.81196 55.5901 6.72163 55.9023 6.55263L55.9128 5.76316ZM60.0759 7.86842C59.4473 7.85677 58.8235 7.75576 58.2233 7.56842L58.4128 6.58421C58.9276 6.72463 59.4582 6.79891 59.9917 6.80526C60.5865 6.80526 60.6759 6.67895 60.6759 6.27895C60.6759 5.87895 60.6075 5.8 59.7391 5.6C58.4233 5.29474 58.2707 4.97368 58.2707 3.97895C58.2707 2.98421 58.7444 2.48421 60.2759 2.48421C60.8181 2.48421 61.3581 2.54474 61.8865 2.66316L61.7549 3.71579C61.2663 3.62971 60.7719 3.58045 60.2759 3.56842C59.6917 3.56842 59.5917 3.69474 59.5917 4.01053C59.5917 4.42632 59.6286 4.45789 60.3549 4.63684C61.8549 5.01579 61.997 5.20526 61.997 6.26842C61.997 7.33158 61.697 7.86842 60.0759 7.86842ZM66.2391 7.75789V4.13158C66.2391 3.85789 66.1181 3.72105 65.8075 3.72105C65.3175 3.77368 64.8423 3.92 64.4075 4.15263V7.73158H63.0602V0.5L64.4075 0.7V2.98421C65.0202 2.68338 65.6887 2.51312 66.3707 2.48421C67.2654 2.48421 67.5812 3.08947 67.5812 4.01053V7.74737L66.2391 7.75789ZM68.7128 1.87368V0.610526H70.0602V1.87368H68.7128ZM68.7128 7.75789V2.6H70.0602V7.75789H68.7128ZM71.1338 2.64211C71.1338 1.35263 71.9181 0.6 73.7654 0.6C74.437 0.6 75.1065 0.677368 75.7602 0.831579L75.6075 1.98947C75.0134 1.88027 74.4115 1.81867 73.8075 1.80526C72.8496 1.80526 72.5391 2.12632 72.5391 2.85789V5.56842C72.5391 6.32105 72.8496 6.62105 73.8075 6.62105C74.4113 6.6096 75.0133 6.54976 75.6075 6.4421L75.7602 7.59474C75.1067 7.75076 74.4373 7.83025 73.7654 7.83158C71.9338 7.83158 71.1338 7.07895 71.1338 5.78421V2.64211ZM78.718 7.86842C76.8759 7.86842 76.3812 6.88947 76.3812 5.83158V4.50526C76.3812 3.45263 76.8759 2.46842 78.718 2.46842C80.5602 2.46842 81.0654 3.44211 81.0654 4.50526V5.80526C81.0654 6.86316 80.5391 7.86842 78.718 7.86842ZM78.718 3.6C78.0023 3.6 77.7233 3.90526 77.7233 4.48947V5.87368C77.7233 6.45789 78.0023 6.76316 78.718 6.76316C79.4338 6.76316 79.7128 6.45789 79.7128 5.87368V4.46316C79.7128 3.87895 79.4338 3.57368 78.718 3.57368V3.6ZM84.8444 3.68421C84.3516 3.89736 83.8765 4.14902 83.4233 4.43684V7.75789H82.0759V2.6H83.2128L83.3023 3.17368C83.7412 2.8875 84.2153 2.65929 84.7128 2.49474L84.8444 3.68421ZM90.2233 6.0421C90.2233 7.18947 89.697 7.86842 88.4496 7.86842C87.967 7.8621 87.486 7.811 87.0128 7.71579V9.82105L85.6707 10.0211V2.57368H86.7233L86.8549 3.01053C87.3531 2.6626 87.9473 2.47863 88.5549 2.48421C89.6338 2.48421 90.2075 3.1 90.2075 4.27368L90.2233 6.0421ZM87.0128 6.62632C87.4059 6.71 87.8059 6.75579 88.2075 6.76316C88.6917 6.76316 88.8812 6.5421 88.8812 6.07368V4.22632C88.8812 3.80526 88.7128 3.57368 88.218 3.57368C87.7756 3.58788 87.3509 3.75108 87.0128 4.03684V6.62632Z" fill="black"/>
</g>
<defs>
<clipPath id="clip0_915_71203">
<rect width="126.842" height="40" fill="white" transform="translate(0.394531 0.5)"/>
</clipPath>
</defs>
</svg>
