<svg width="196" height="45" viewBox="0 0 196 45" fill="none" xmlns="http://www.w3.org/2000/svg">
<g clip-path="url(#clip0_915_70965)">
<path d="M68.0075 32.8659C61.131 32.8659 57.6758 27.9198 57.6758 22.4325C57.6758 16.9787 61.2665 12.0668 68.0753 12.0668C70.6836 12.0668 72.5467 12.6427 74.1388 13.6589L72.1741 16.877C71.0563 16.1657 69.8368 15.7253 68.0075 15.7253C64.3152 15.7253 62.3505 18.6724 62.3505 22.3308C62.3505 26.0913 64.2475 29.2074 68.0753 29.2074C70.2433 29.2074 71.5305 28.4625 72.5806 27.683L74.376 30.766C73.3597 31.6802 70.9546 32.8659 68.0075 32.8659ZM82.6075 20.5355C80.4056 20.5355 79.6943 22.3986 79.6943 25.1086C79.6943 27.8185 80.575 29.7494 82.7769 29.7494C85.0126 29.7494 85.7578 27.9202 85.7578 25.2102C85.724 22.5002 84.8432 20.5355 82.6075 20.5355ZM82.6753 32.8659C77.5263 32.8659 75.2906 29.0041 75.2906 25.2099C75.2906 21.4159 77.5263 17.4526 82.6753 17.4526C87.8242 17.4526 90.1615 21.2804 90.1615 25.0744C90.1277 28.8348 87.8581 32.8659 82.6753 32.8659ZM96.6316 17.8255V27.2427C96.6316 28.6993 97.1397 29.4106 98.5289 29.4106C100.019 29.4106 101.137 27.9879 101.442 27.6492V17.8255H105.575V28.1912C105.575 30.122 105.778 31.6128 105.981 32.4932H101.882C101.747 32.0867 101.611 31.1382 101.578 30.5285C100.798 31.5447 99.2738 32.832 96.8352 32.832C93.5832 32.832 92.4315 30.7656 92.4315 28.0557V17.7916H96.6319V17.8255H96.6316ZM115.771 32.8659C111.028 32.8659 108.115 29.7829 108.115 25.1763C108.115 20.2306 111.401 17.4529 115.906 17.4529C118.277 17.4529 119.7 18.1643 120.412 18.6046L119.09 21.4501C118.447 21.0436 117.499 20.6032 116.042 20.6032C113.738 20.6032 112.519 22.3986 112.519 25.0747C112.519 27.7504 113.671 29.6816 116.144 29.6816C117.837 29.6816 118.819 29.0719 119.26 28.8009L120.513 31.5783C119.836 32.019 118.481 32.8659 115.771 32.8659ZM131.624 32.5271V23.0761C131.624 21.6195 131.116 20.9081 129.727 20.9081C128.237 20.9081 127.085 22.297 126.78 22.6696V32.4932H122.647V10.8135H126.78V19.5531C127.525 18.7401 128.948 17.4529 131.353 17.4529C134.605 17.4529 135.757 19.5193 135.757 22.2292V32.4932H131.624V32.5271ZM143.277 29.309C143.548 29.4106 144.158 29.6136 145.242 29.6136C147.376 29.6136 148.697 28.0553 148.697 25.0405C148.697 22.3305 147.782 20.7045 145.682 20.7045C144.463 20.7045 143.514 21.4836 143.277 21.7885V29.309ZM143.277 10.8474V18.9773C143.954 18.2998 145.242 17.4529 146.868 17.4529C150.526 17.4529 153.101 19.9596 153.101 25.0408C153.101 30.0881 149.713 32.8662 145.242 32.8662C141.888 32.8662 139.856 32.0193 139.11 31.6806V10.8135H143.277V10.8474ZM162.958 26.0571H162.45C160.181 26.0571 158.589 26.7345 158.589 28.3944C158.589 29.4445 159.435 29.8845 160.35 29.8845C161.739 29.8845 162.552 29.0719 162.958 28.6651V26.0571ZM163.398 32.5271C163.263 32.1542 163.195 31.4089 163.161 30.9685C162.518 31.7477 161.129 32.8994 159.062 32.8994C156.556 32.8997 154.625 31.4092 154.625 28.767C154.625 24.9392 158.554 23.5507 162.45 23.5507H162.958V22.7373C162.958 21.5179 162.45 20.7726 160.621 20.7726C158.724 20.7726 157.437 21.755 156.895 22.1276L155.1 19.6209C155.98 18.8079 157.945 17.4868 161.095 17.4868C165.16 17.4868 167.091 19.045 167.091 22.9745V28.1234C167.091 30.1559 167.294 31.5783 167.497 32.5271H163.398ZM174.543 32.8659C171.901 32.8659 170.207 32.0864 169.293 31.4767L170.682 28.5973C171.257 29.0041 172.68 29.8171 174.306 29.8171C175.83 29.8171 176.677 29.3764 176.677 28.5638C176.677 27.6153 175.018 27.344 172.917 26.3277C170.885 25.3457 169.699 24.2278 169.699 21.9918C169.699 19.214 171.901 17.4526 175.255 17.4526C177.761 17.4526 179.32 18.2317 179.997 18.6043L178.574 21.4159C177.998 21.0771 176.846 20.5013 175.458 20.5013C174.069 20.5013 173.459 20.9755 173.459 21.7546C173.459 22.7031 174.814 22.9403 176.508 23.6177C178.812 24.5666 180.471 25.6502 180.471 28.0892C180.404 31.2399 178.168 32.8659 174.543 32.8659ZM191.582 23.381C191.548 21.755 190.905 20.4339 189.144 20.4339C187.517 20.4339 186.569 21.484 186.298 23.381H191.582ZM190.024 29.8171C192.023 29.8171 193.107 29.1735 193.852 28.8009L195.173 31.4431C194.191 31.9851 192.7 32.8659 189.651 32.8659C184.705 32.8659 181.894 29.7829 181.894 25.0747C181.894 20.4 185.112 17.4529 189.211 17.4529C193.852 17.4529 196.088 20.671 195.58 26.1587H186.332C186.501 28.3605 187.653 29.8171 190.024 29.8171Z" fill="black"/>
<path d="M23.1242 0.0751953C10.76 0.0751953 0.699219 10.1021 0.699219 22.5002C0.699219 34.8644 10.7261 44.9252 23.1242 44.9252C35.4885 44.9252 45.5492 34.8983 45.5492 22.5002C45.5492 10.1021 35.4885 0.0751953 23.1242 0.0751953ZM38.2662 26.4297C38.2662 27.7846 37.4871 28.9702 35.9627 29.2412C33.3205 29.7152 27.765 29.9865 23.1242 29.9865C18.4834 29.9865 12.928 29.7152 10.2857 29.2412C8.76138 28.9702 7.98226 27.7846 7.98226 26.4297V17.69C7.98226 16.335 9.03238 15.0817 10.2857 14.8784C11.0649 14.7429 12.8941 14.6074 14.3168 14.6074C14.8588 14.6074 15.2992 15.0139 15.2992 15.6575V21.7888L23.1581 21.6195L31.017 21.7888V15.6575C31.017 15.0139 31.4574 14.6074 31.9994 14.6074C33.4221 14.6074 35.2513 14.7429 36.0304 14.8784C37.3177 15.0817 38.3339 16.335 38.3339 17.69C38.2662 20.5693 38.2662 23.5164 38.2662 26.4297Z" fill="#ED2226"/>
</g>
<defs>
<clipPath id="clip0_915_70965">
<rect width="195" height="44.85" fill="white" transform="translate(0.675781 0.0751953)"/>
</clipPath>
</defs>
</svg>
