<svg width="195" height="39" viewBox="0 0 195 39" fill="none" xmlns="http://www.w3.org/2000/svg">
<g clip-path="url(#clip0_915_70938)">
<path d="M51.6642 25.4223C49.7383 25.4223 48.1976 24.8445 47.0902 23.7371C45.9828 22.6297 45.4531 21.0408 45.4531 19.0667C45.4531 17.0445 45.9828 15.4074 46.9939 14.2519C48.005 13.0963 49.4013 12.5186 51.1828 12.5186C52.8198 12.5186 54.1198 13 55.0828 14.0111C56.0457 15.0223 56.5272 16.3704 56.5272 18.1519V19.5963H48.1976C48.2457 20.8 48.5828 21.7149 49.1605 22.3889C49.7383 23.063 50.6531 23.3519 51.7605 23.3519C52.4828 23.3519 53.205 23.3037 53.8309 23.1593C54.4568 23.0148 55.1309 22.7741 55.9013 22.4852V24.6519C55.2754 24.9408 54.6013 25.1815 53.9272 25.326C53.2531 25.4704 52.4828 25.4223 51.6642 25.4223ZM51.1346 14.5408C50.2679 14.5408 49.5939 14.8297 49.1124 15.3593C48.6309 15.8889 48.2939 16.6593 48.1976 17.7186H53.8791C53.8791 16.7074 53.6383 15.8889 53.1568 15.3593C52.6753 14.8297 52.0013 14.5408 51.1346 14.5408Z" fill="black"/>
<path d="M62.1599 25.2293H59.5117V7.65527H62.1599V25.2293Z" fill="black"/>
<path d="M73.7656 25.2291L73.236 23.4957H73.1397C72.5619 24.2661 71.936 24.7957 71.31 25.0365C70.6841 25.2772 69.9137 25.4698 68.9508 25.4698C67.7471 25.4698 66.7841 25.1328 66.0619 24.4587C65.3397 23.7846 65.0508 22.8698 65.0508 21.6661C65.0508 20.3661 65.5323 19.4031 66.4952 18.7772C67.4582 18.1513 68.9026 17.7661 70.8767 17.718L73.0434 17.6698V16.9957C73.0434 16.1772 72.8508 15.5994 72.4656 15.2143C72.0804 14.8291 71.5026 14.6365 70.7323 14.6365C70.1063 14.6365 69.4804 14.7328 68.9026 14.9254C68.3249 15.118 67.7471 15.3587 67.2174 15.5994L66.3508 13.7217C67.0249 13.3846 67.7471 13.0957 68.5656 12.9031C69.3841 12.7106 70.1063 12.6143 70.8286 12.6143C72.4174 12.6143 73.6212 12.9513 74.4397 13.6735C75.2582 14.3957 75.6434 15.455 75.6434 16.9476V25.2291H73.7656ZM69.8174 23.3994C70.7804 23.3994 71.5508 23.1106 72.1286 22.5809C72.7063 22.0513 72.9952 21.2809 72.9952 20.318V19.2587L71.4063 19.3068C70.1545 19.355 69.2397 19.5476 68.6619 19.9328C68.0841 20.318 67.7952 20.8957 67.7952 21.6661C67.7952 22.2439 67.9397 22.6772 68.2767 22.9661C68.6137 23.255 69.1434 23.3994 69.8174 23.3994Z" fill="black"/>
<path d="M87.7288 21.6663C87.7288 22.87 87.2955 23.833 86.3807 24.4589C85.4659 25.0848 84.214 25.4219 82.577 25.4219C80.8918 25.4219 79.5918 25.1811 78.5807 24.6515V22.3404C80.0251 23.0145 81.4214 23.3515 82.6733 23.3515C84.3103 23.3515 85.1288 22.87 85.1288 21.8589C85.1288 21.5219 85.0325 21.2811 84.8399 21.0885C84.6473 20.8959 84.3584 20.6552 83.9251 20.4145C83.4918 20.1737 82.914 19.933 82.1918 19.6441C80.7473 19.0663 79.7844 18.5367 79.2547 17.9589C78.7251 17.3811 78.4844 16.6589 78.4844 15.7922C78.4844 14.733 78.9177 13.9145 79.7844 13.2885C80.651 12.6626 81.8066 12.4219 83.2992 12.4219C84.7436 12.4219 86.1399 12.7108 87.4399 13.3367L86.5733 15.3108C85.2251 14.733 84.1177 14.4922 83.1547 14.4922C81.7585 14.4922 81.0362 14.8774 81.0362 15.6959C81.0362 16.0811 81.2288 16.4182 81.5659 16.7071C81.9029 16.996 82.7214 17.333 83.9733 17.8145C84.9844 18.1997 85.7547 18.5848 86.2362 18.9219C86.7177 19.2589 87.0547 19.6441 87.2955 20.0774C87.6325 20.5589 87.7288 21.0404 87.7288 21.6663Z" fill="black"/>
<path d="M95.2398 23.3035C95.8657 23.3035 96.5398 23.2072 97.1657 23.0146V24.9887C96.8768 25.1332 96.4917 25.2295 96.0102 25.3258C95.5287 25.4221 95.0472 25.4702 94.5657 25.4702C92.062 25.4702 90.8102 24.1221 90.8102 21.5221V14.7813H89.125V13.6258L90.9546 12.6628L91.8694 10.0146H93.5065V12.8072H97.0694V14.8295H93.5065V21.5221C93.5065 22.148 93.6509 22.6295 93.988 22.9183C94.325 23.2072 94.7583 23.3035 95.2398 23.3035Z" fill="black"/>
<path d="M99.5234 9.43693C99.5234 8.95545 99.6679 8.61841 99.9086 8.32952C100.149 8.04063 100.535 7.94434 101.016 7.94434C101.497 7.94434 101.835 8.08878 102.123 8.32952C102.412 8.57026 102.509 8.95545 102.509 9.43693C102.509 9.87026 102.364 10.2554 102.123 10.4962C101.883 10.7369 101.497 10.8814 101.016 10.8814C100.535 10.8814 100.149 10.7369 99.9086 10.4962C99.6679 10.2554 99.5234 9.87026 99.5234 9.43693ZM102.364 25.2295H99.716V12.7592H102.364V25.2295Z" fill="black"/>
<path d="M111.176 25.4216C109.298 25.4216 107.854 24.8919 106.891 23.7845C105.928 22.6771 105.398 21.0882 105.398 19.0179C105.398 16.8994 105.928 15.3105 106.939 14.1549C107.95 12.9994 109.443 12.4697 111.369 12.4697C112.669 12.4697 113.873 12.7105 114.932 13.1919L114.113 15.3105C113.006 14.8771 112.091 14.6364 111.321 14.6364C109.154 14.6364 108.095 16.0808 108.095 18.9216C108.095 20.3179 108.384 21.3771 108.913 22.0994C109.443 22.8216 110.261 23.1586 111.273 23.1586C112.476 23.1586 113.584 22.8697 114.643 22.2919V24.6031C114.161 24.8919 113.68 25.0845 113.102 25.1808C112.524 25.2771 111.947 25.4216 111.176 25.4216Z" fill="black"/>
<path d="M125.955 21.6663C125.955 22.87 125.522 23.833 124.607 24.4589C123.692 25.0848 122.441 25.4219 120.804 25.4219C119.118 25.4219 117.818 25.1811 116.807 24.6515V22.3404C118.252 23.0145 119.648 23.3515 120.9 23.3515C122.537 23.3515 123.355 22.87 123.355 21.8589C123.355 21.5219 123.259 21.2811 123.067 21.0885C122.874 20.8959 122.585 20.6552 122.152 20.4145C121.718 20.1737 121.141 19.933 120.418 19.6441C118.974 19.0663 118.011 18.5367 117.481 17.9589C116.952 17.3811 116.711 16.6589 116.711 15.7922C116.711 14.733 117.144 13.9145 118.011 13.2885C118.878 12.6626 120.033 12.4219 121.526 12.4219C122.97 12.4219 124.366 12.7108 125.666 13.3367L124.8 15.3108C123.452 14.733 122.344 14.4922 121.381 14.4922C119.985 14.4922 119.263 14.8774 119.263 15.6959C119.263 16.0811 119.455 16.4182 119.792 16.7071C120.129 16.996 120.948 17.333 122.2 17.8145C123.211 18.1997 123.981 18.5848 124.463 18.9219C124.944 19.2589 125.281 19.6441 125.522 20.0774C125.859 20.5589 125.955 21.0404 125.955 21.6663Z" fill="black"/>
<path d="M134.285 25.4223C132.359 25.4223 130.819 24.8445 129.711 23.7371C128.604 22.6297 128.074 21.0408 128.074 19.0667C128.074 17.0445 128.604 15.4074 129.615 14.2519C130.626 13.0963 132.022 12.5186 133.804 12.5186C135.441 12.5186 136.741 13 137.704 14.0111C138.667 15.0223 139.148 16.3704 139.148 18.1519V19.5963H130.819C130.867 20.8 131.204 21.7149 131.782 22.3889C132.359 23.063 133.274 23.3519 134.382 23.3519C135.104 23.3519 135.826 23.3037 136.452 23.1593C137.078 23.0148 137.752 22.7741 138.522 22.4852V24.6519C137.896 24.9408 137.222 25.1815 136.548 25.326C135.874 25.4704 135.152 25.4223 134.285 25.4223ZM133.804 14.5408C132.937 14.5408 132.263 14.8297 131.782 15.3593C131.3 15.8889 130.963 16.6593 130.867 17.7186H136.548C136.548 16.7074 136.308 15.8889 135.826 15.3593C135.345 14.8297 134.622 14.5408 133.804 14.5408Z" fill="black"/>
<path d="M149.934 25.2291L149.404 23.4957H149.308C148.73 24.2661 148.104 24.7957 147.478 25.0365C146.852 25.2772 146.082 25.4698 145.119 25.4698C143.915 25.4698 142.952 25.1328 142.23 24.4587C141.508 23.7846 141.219 22.8698 141.219 21.6661C141.219 20.3661 141.7 19.4031 142.663 18.7772C143.626 18.1513 145.071 17.7661 147.045 17.718L149.211 17.6698V16.9957C149.211 16.1772 149.019 15.5994 148.634 15.2143C148.248 14.8291 147.671 14.6365 146.9 14.6365C146.274 14.6365 145.648 14.7328 145.071 14.9254C144.493 15.118 143.915 15.3587 143.385 15.5994L142.519 13.7217C143.193 13.3846 143.915 13.0957 144.734 12.9031C145.552 12.7106 146.274 12.6143 146.997 12.6143C148.585 12.6143 149.789 12.9513 150.608 13.6735C151.426 14.3957 151.811 15.455 151.811 16.9476V25.2291H149.934ZM145.985 23.3994C146.948 23.3994 147.719 23.1106 148.297 22.5809C148.874 22.0513 149.163 21.2809 149.163 20.318V19.2587L147.574 19.3068C146.322 19.355 145.408 19.5476 144.83 19.9328C144.252 20.318 143.963 20.8957 143.963 21.6661C143.963 22.2439 144.108 22.6772 144.445 22.9661C144.782 23.255 145.36 23.3994 145.985 23.3994Z" fill="black"/>
<path d="M161.875 12.5186C162.405 12.5186 162.838 12.5667 163.175 12.6149L162.934 15.0704C162.549 14.9741 162.164 14.926 161.779 14.926C160.72 14.926 159.853 15.263 159.179 15.9852C158.505 16.7074 158.168 17.5741 158.168 18.6815V25.2297H155.52V12.7593H157.59L157.927 14.9741H158.071C158.505 14.2519 159.034 13.626 159.708 13.1926C160.383 12.7593 161.105 12.5186 161.875 12.5186Z" fill="black"/>
<path d="M170.543 25.4216C168.666 25.4216 167.221 24.8919 166.258 23.7845C165.295 22.6771 164.766 21.0882 164.766 19.0179C164.766 16.8994 165.295 15.3105 166.306 14.1549C167.317 12.9994 168.81 12.4697 170.736 12.4697C172.036 12.4697 173.24 12.7105 174.299 13.1919L173.48 15.3105C172.373 14.8771 171.458 14.6364 170.688 14.6364C168.521 14.6364 167.462 16.0808 167.462 18.9216C167.462 20.3179 167.751 21.3771 168.28 22.0994C168.81 22.8216 169.629 23.1586 170.64 23.1586C171.843 23.1586 172.951 22.8697 174.01 22.2919V24.6031C173.529 24.8919 173.047 25.0845 172.469 25.1808C171.892 25.2771 171.314 25.4216 170.543 25.4216Z" fill="black"/>
<path d="M187.922 25.2293H185.274V17.5256C185.274 16.5627 185.081 15.8405 184.696 15.359C184.311 14.8775 183.685 14.6368 182.866 14.6368C181.759 14.6368 180.94 14.9738 180.411 15.6479C179.881 16.3219 179.64 17.4293 179.64 18.9701V25.2293H176.992V7.65527H179.64V12.1331C179.64 12.8553 179.592 13.6256 179.496 14.4442H179.688C180.074 13.8664 180.555 13.3849 181.181 13.0479C181.807 12.7108 182.577 12.5664 183.444 12.5664C186.477 12.5664 187.97 14.1071 187.97 17.1405V25.2293H187.922Z" fill="black"/>
<path d="M26.8677 13.915H16.8047C16.8528 14.1558 16.9491 14.3965 16.9973 14.5891C17.3343 15.7447 17.5269 16.9484 17.6232 18.2002C17.6714 18.6817 17.6714 19.2113 17.6714 19.6928C17.6714 20.1743 17.6714 20.7039 17.6232 21.1854C17.5269 22.4373 17.3343 23.641 16.9973 24.7965C16.9491 25.0373 16.8528 25.278 16.8047 25.4706H26.8677C30.0454 25.4706 32.5973 22.8706 32.5973 19.6928C32.5973 16.515 30.0454 13.915 26.8677 13.915Z" fill="#00A9E5"/>
<path d="M17.6238 21.1854C17.6719 20.7039 17.6719 20.1743 17.6719 19.6928C17.6719 19.2113 17.6719 18.6817 17.6238 18.2002C17.5275 16.9484 17.3349 15.7447 16.9978 14.5891C16.9497 14.3484 16.8534 14.1076 16.8052 13.915H1.25338C0.675605 15.7447 0.386719 17.6706 0.386719 19.6928C0.386719 21.715 0.675605 23.641 1.25338 25.4706H16.8052C16.8534 25.2299 16.9497 24.9891 16.9978 24.7965C17.3349 23.641 17.5275 22.4373 17.6238 21.1854Z" fill="#353535"/>
<path d="M28.6002 27.3965H16.0817C15.6965 28.2632 15.2632 29.0817 14.7817 29.852C14.0595 31.0557 13.1928 32.115 12.2298 33.1261C11.8928 33.4631 11.5558 33.752 11.2187 34.0891C10.5446 34.715 9.77428 35.2446 9.00391 35.7743C12.0372 37.7965 15.6965 38.952 19.5965 38.952C26.2891 38.952 32.1632 35.5335 35.6298 30.3817C33.8484 28.552 31.3446 27.3965 28.6002 27.3965Z" fill="#00BFB3"/>
<path d="M14.7801 29.852C15.2615 29.0817 15.6949 28.2632 16.0801 27.3965H1.97266C3.46525 30.815 5.92081 33.752 9.05044 35.7743C9.82081 35.2446 10.543 34.715 11.2652 34.0891C11.6023 33.8002 11.9393 33.4631 12.2764 33.1261C13.1912 32.1631 14.0578 31.0557 14.7801 29.852Z" fill="#019B8F"/>
<path d="M12.2295 6.25948C11.8924 5.92244 11.5554 5.63355 11.2184 5.29651C10.5443 4.67059 9.77393 4.14096 9.00356 3.61133C5.92208 5.63355 3.46652 8.57059 1.92578 11.9891H16.0332C15.648 11.1224 15.2147 10.3039 14.7332 9.53355C14.0591 8.32985 13.1924 7.22244 12.2295 6.25948Z" fill="#F9B110"/>
<path d="M19.5965 0.433594C15.6965 0.433594 12.0372 1.58915 9.00391 3.61137C9.77428 4.141 10.4965 4.67063 11.2187 5.29656C11.5558 5.58544 11.8928 5.92248 12.2298 6.25952C13.1928 7.27063 14.0595 8.32989 14.7817 9.53359C15.2632 10.304 15.6965 11.1225 16.0817 11.9891H28.6002C31.3446 11.9891 33.8484 10.8336 35.6298 9.00397C32.1632 3.85211 26.2891 0.433594 19.5965 0.433594Z" fill="#FED10A"/>
</g>
<defs>
<clipPath id="clip0_915_70938">
<rect width="195" height="39" fill="white"/>
</clipPath>
</defs>
</svg>
