<svg width="146" height="50" viewBox="0 0 146 50" fill="none" xmlns="http://www.w3.org/2000/svg">
<path fill-rule="evenodd" clip-rule="evenodd" d="M50.2168 26.1972C50.2215 24.1603 49.5965 22.1717 48.4269 20.504C47.2575 18.8362 45.6009 17.5709 43.6843 16.8813C43.8588 15.9923 43.9466 15.0885 43.9469 14.1825C43.9486 11.1837 42.9993 8.26171 41.2356 5.83649C39.4719 3.41126 36.9846 1.60776 34.1312 0.685293C31.2781 -0.237175 28.2056 -0.231096 25.356 0.702655C22.5063 1.63641 20.0261 3.44975 18.2721 5.88191C16.978 4.87911 15.3923 4.32532 13.7552 4.30452C12.1182 4.28371 10.5189 4.79698 9.19975 5.76655C7.88056 6.73616 6.91332 8.10927 6.44449 9.67791C5.97569 11.2465 6.03086 12.9252 6.60166 14.4597C4.68051 15.1599 3.0199 16.4317 1.84315 18.1039C0.666418 19.7762 0.0300212 21.7687 0.0195649 23.8135C0.0142341 25.8574 0.642646 27.8528 1.81828 29.5247C2.99391 31.1967 4.65895 32.4633 6.58416 33.1498C6.41374 34.0385 6.32679 34.9409 6.32449 35.8457C6.32163 38.8409 7.27008 41.7596 9.03307 44.1812C10.7961 46.6025 13.2825 48.4015 16.1339 49.3188C18.9853 50.2358 22.0543 50.2239 24.8984 49.2841C27.7425 48.3446 30.2146 46.5261 31.9585 44.0908C33.2489 45.0962 34.8317 45.6532 36.4673 45.6777C38.1029 45.7022 39.7018 45.1925 41.0214 44.2262C42.3413 43.2596 43.31 41.8892 43.7803 40.3227C44.2509 38.756 44.1978 37.0789 43.6289 35.5451C45.551 34.8461 47.2128 33.5746 48.3901 31.9022C49.5676 30.2299 50.204 28.2366 50.2139 26.1913L50.2168 26.1972ZM19.7544 21.5348L30.7391 26.5502L41.826 16.8404C41.9856 16.0392 42.065 15.2241 42.0623 14.4071C42.0617 11.7623 41.2148 9.18715 39.6451 7.05838C38.0757 4.92961 35.8662 3.35904 33.3396 2.57648C30.8132 1.79391 28.1028 1.84044 25.6048 2.70925C23.1067 3.57806 20.9523 5.22353 19.4568 7.4049L17.6099 16.9571L19.7544 21.5348ZM8.14237 35.6385C8.14144 34.8087 8.22258 33.981 8.38453 33.1673L19.1942 23.3992L30.2198 28.4233L32.6618 33.0914L30.8325 42.6232C29.339 44.8193 27.1808 46.4788 24.6747 47.3579C22.1687 48.2373 19.4468 48.2901 16.9085 47.5088C14.3702 46.7274 12.1492 45.1531 10.5715 43.0165C8.99379 40.8803 8.14243 38.2944 8.14237 35.6385ZM8.31708 14.1592L15.8445 15.936L17.4929 7.37575C16.4691 6.5994 15.2213 6.17559 13.9365 6.16777C12.6516 6.15993 11.3987 6.56854 10.3655 7.33236C9.33232 8.09616 8.57432 9.17413 8.20504 10.4048C7.83576 11.6355 7.87506 12.9527 8.31708 14.1592ZM3.5529 18.9779C4.57517 17.566 6.01203 16.5079 7.66362 15.9505L15.935 17.9024L17.8752 22.0454L7.31351 31.5918C5.7385 30.9943 4.38272 29.9314 3.42642 28.5445C2.47009 27.1577 1.95851 25.5126 1.9597 23.828C1.97374 22.085 2.53062 20.3897 3.5529 18.9779ZM32.7637 42.6232C33.7861 43.3955 35.0307 43.8168 36.3118 43.8235C37.5929 43.8302 38.842 43.4226 39.8722 42.6612C40.9027 41.8997 41.6589 40.8251 42.0286 39.5983C42.3979 38.3717 42.3606 37.0582 41.9221 35.8544L34.4005 34.1038L32.7637 42.6232ZM42.5729 34.0572L34.2927 32.1228L32.0958 27.9186L42.9259 18.4364C44.4979 19.0322 45.8514 20.0919 46.8072 21.4749C47.7627 22.8578 48.2753 24.4987 48.2768 26.1797C48.2645 27.9231 47.7084 29.6192 46.6858 31.0313C45.6632 32.4437 44.2254 33.5014 42.5729 34.0572Z" fill="white"/>
<path d="M70.2053 35.1279L71.2089 35.0258L71.2789 37.0681C69.0455 37.4054 66.792 37.5907 64.5335 37.6225C62.0439 37.6225 60.2796 36.9018 59.2409 35.4605C58.2023 34.0192 57.6838 31.7765 57.6859 28.7325C57.6859 22.6698 60.0958 19.6374 64.9157 19.6355C67.2497 19.6355 68.9907 20.2871 70.1382 21.5903C71.286 22.8935 71.8616 24.9358 71.8654 27.7172L71.7283 29.6895H60.3146C60.3146 31.6035 60.6609 33.0214 61.3533 33.9434C62.0459 34.8653 63.2497 35.3263 64.9653 35.3263C66.6849 35.3322 68.4314 35.2659 70.2053 35.1279ZM69.2716 27.6239C69.2716 25.5018 68.9323 24.0031 68.2534 23.1278C67.5745 22.2526 66.4678 21.814 64.9332 21.812C63.3985 21.812 62.2452 22.273 61.4729 23.1949C60.7009 24.1169 60.3029 25.5932 60.2796 27.6239H69.2716Z" fill="white"/>
<path d="M75.4832 37.4853V14.7281H78.077V37.4853H75.4832Z" fill="white"/>
<path d="M94.4126 25.2022V33.9259C94.4126 34.8011 96.5658 34.7545 96.5658 34.7545L96.4345 37.0477C94.611 37.0477 93.1026 37.1994 92.1981 36.3212C90.2395 37.1912 88.1179 37.6338 85.9749 37.6195C84.3857 37.6195 83.1749 37.1694 82.3425 36.2687C81.5101 35.368 81.0946 34.0738 81.0967 32.3854C81.0967 30.701 81.5235 29.4611 82.3775 28.6654C83.2315 27.8699 84.5686 27.3836 86.3892 27.2066L91.8188 26.6902V25.2022C91.8188 24.0352 91.5659 23.193 91.0603 22.6756C90.7831 22.4155 90.4563 22.2142 90.0992 22.0838C89.7421 21.9535 89.3625 21.8967 88.9829 21.917H82.1674V19.6326H88.8108C90.7714 19.6326 92.1952 20.0829 93.0822 20.9834C93.9691 21.884 94.4126 23.2903 94.4126 25.2022ZM83.7546 32.257C83.7546 34.379 84.6299 35.4401 86.3804 35.4401C87.9597 35.4383 89.5274 35.1691 91.0165 34.6436L91.8101 34.3664V28.6596L86.7014 29.1439C85.6627 29.2373 84.9129 29.5369 84.4519 30.0425C83.9909 30.5482 83.7584 31.2863 83.7546 32.257Z" fill="white"/>
<path d="M104.54 21.952C102.025 21.952 100.767 22.8273 100.767 24.5779C100.767 25.3871 101.059 25.9579 101.642 26.2905C102.226 26.6231 103.54 26.9694 105.584 27.3292C107.638 27.689 109.091 28.1909 109.943 28.8347C110.795 29.4786 111.222 30.6882 111.224 32.4642C111.224 34.2418 110.653 35.5451 109.511 36.3737C108.369 37.2023 106.704 37.6175 104.513 37.6195C103.084 37.6195 98.3105 37.0885 98.3105 37.0885L98.4505 34.842C101.193 35.1046 103.174 35.3001 104.513 35.3001C105.852 35.3001 106.871 35.0871 107.574 34.6611C108.277 34.2351 108.627 33.5203 108.627 32.5167C108.627 31.513 108.335 30.8332 107.728 30.4743C107.122 30.1155 105.815 29.777 103.787 29.4532C101.759 29.1293 100.315 28.6567 99.4629 28.0352C98.611 27.4138 98.1821 26.2584 98.1821 24.575C98.1821 22.8915 98.7656 21.6574 99.9648 20.8404C101.164 20.0235 102.634 19.6296 104.408 19.6296C105.815 19.6296 110.696 19.9885 110.696 19.9885V22.2496C108.119 22.1359 106.013 21.952 104.54 21.952Z" fill="white"/>
<path d="M123.726 22.2263H118.226V30.4948C118.226 32.4767 118.37 33.7791 118.658 34.4014C118.95 35.0258 119.632 35.3351 120.715 35.3351L123.793 35.1279L123.968 37.2724C122.802 37.488 121.622 37.6155 120.438 37.6546C118.64 37.6546 117.395 37.216 116.703 36.3387C116.011 35.4614 115.665 33.7896 115.667 31.3234V22.2263H113.222V19.9798H115.679V14.6873H118.238V19.9798H123.726V22.2263Z" fill="white"/>
<path d="M127.332 17.7712V14.7602H129.926V17.7712H127.332ZM127.332 37.4853V19.9798H129.926V37.4853H127.332Z" fill="white"/>
<path d="M141.161 19.6326C142.457 19.6878 143.747 19.8272 145.024 20.0498L145.853 20.1519L145.751 22.2613C144.395 22.0896 143.032 21.9864 141.666 21.952C139.705 21.952 138.374 22.4189 137.672 23.3525C136.97 24.2861 136.618 26.0153 136.616 28.54C136.616 31.0687 136.944 32.8268 137.602 33.815C138.259 34.8032 139.63 35.2992 141.716 35.303L145.8 34.9937L145.905 37.1381C144.315 37.4074 142.709 37.5694 141.097 37.6225C138.401 37.6225 136.54 36.9301 135.513 35.5451C134.486 34.1602 133.972 31.8261 133.972 28.5429C133.972 25.2577 134.526 22.9518 135.632 21.6253C136.739 20.2988 138.582 19.6345 141.161 19.6326Z" fill="white"/>
</svg>
