<svg width="163" height="33" viewBox="0 0 163 33" fill="none" xmlns="http://www.w3.org/2000/svg">
<g clip-path="url(#clip0_1522_77143)">
<path fill-rule="evenodd" clip-rule="evenodd" d="M58.375 9.33691V22.8068H61.0011V17.418H67.8448V15.0649H61.0011V11.691H68.7165V9.33691H58.375Z" fill="#9991B5"/>
<path fill-rule="evenodd" clip-rule="evenodd" d="M154.803 20.491V17.1737H161.607V14.858H154.803V11.6526H162.479V9.33691H152.176V22.8068H162.575V20.491H154.803Z" fill="#9991B5"/>
<path fill-rule="evenodd" clip-rule="evenodd" d="M80.5863 17.0744C80.5863 19.3752 79.4182 20.6424 77.2952 20.6424C75.1919 20.6424 73.9866 19.307 73.9866 16.9795V9.33789H71.3594V17.0744C71.3594 20.8494 73.5086 23.0147 77.2569 23.0147C81.0424 23.0147 83.2135 20.8078 83.2135 16.9614V9.33789H80.5863V17.0744Z" fill="#9991B5"/>
<path fill-rule="evenodd" clip-rule="evenodd" d="M96.2062 18.2606L89.1536 9.38376L89.1186 9.33789H86.7266V22.8067H89.3155V13.6195L96.5802 22.7619L96.6163 22.8067H98.794V9.33789H96.2062V18.2606Z" fill="#9991B5"/>
<path fill-rule="evenodd" clip-rule="evenodd" d="M107.703 20.4536H105.15V11.691H107.703C110.405 11.691 112.293 13.5 112.293 16.091C112.293 18.7 110.448 20.4536 107.703 20.4536ZM107.703 9.33789H102.523V22.8067H107.703C111.952 22.8067 115.036 19.9672 115.036 16.0536C115.036 12.1624 111.952 9.33789 107.703 9.33789Z" fill="#9991B5"/>
<path fill-rule="evenodd" clip-rule="evenodd" d="M132.797 22.8067H135.423V9.33789H132.797V22.8067Z" fill="#9991B5"/>
<path fill-rule="evenodd" clip-rule="evenodd" d="M144.67 14.8988C142.017 14.2812 141.545 13.8418 141.545 12.9148C141.545 12.0359 142.384 11.445 143.633 11.445C144.826 11.445 146.007 11.8823 147.243 12.7836L147.343 12.8551L148.76 10.9074L148.672 10.837C147.22 9.70097 145.584 9.14844 143.672 9.14844C140.872 9.14844 138.918 10.7826 138.918 13.1228C138.918 15.6434 140.538 16.5031 143.528 17.2082C146.069 17.7799 146.497 18.2642 146.497 19.1346C146.497 20.085 145.602 20.6994 144.215 20.6994C142.692 20.6994 141.395 20.1778 140.01 19.0076L139.916 18.9287L138.328 20.7719L138.416 20.8487C140.029 22.2546 142.014 22.9959 144.157 22.9959C147.174 22.9959 149.124 21.3906 149.124 18.9074C149.124 16.8114 147.834 15.6498 144.67 14.8988Z" fill="#9991B5"/>
<path fill-rule="evenodd" clip-rule="evenodd" d="M126.334 17.7454C128.374 17.1396 129.495 15.691 129.495 13.6526C129.495 10.9902 127.517 9.33691 124.333 9.33691H118.164V22.8068H120.791V11.69H124.14C125.874 11.69 126.83 12.4345 126.83 13.7849C126.83 15.0873 125.806 15.8969 124.159 15.8969H123.592V18.1934L126.89 22.7566L126.927 22.8068H130.035L126.334 17.7454Z" fill="#9991B5"/>
<path fill-rule="evenodd" clip-rule="evenodd" d="M16.8945 29.4981V10.3336C16.8945 9.67906 17.4252 9.14844 18.0797 9.14844H29.9316C30.5861 9.14844 31.1168 9.67906 31.1168 10.3336V29.5099C28.8293 29.3677 26.4471 29.2966 24.0056 29.2966C21.5642 29.2966 19.1819 29.3677 16.8945 29.4981ZM19.2649 19.8151H22.8205V25.741H19.2649V19.8151ZM25.1908 19.8151H28.7464V25.741H25.1908V19.8151ZM19.2649 11.5188H22.8205V17.4447H19.2649V11.5188ZM25.1908 11.5188H28.7464V17.4447H25.1908V11.5188Z" fill="#9991B5"/>
<path fill-rule="evenodd" clip-rule="evenodd" d="M33.4844 29.6762V2.03772C33.4844 1.38316 34.015 0.852539 34.6696 0.852539H46.5096C47.1641 0.852539 47.6947 1.38316 47.6947 2.03772V32.0229C43.9022 30.9444 39.0073 30.1148 33.4844 29.6762ZM39.4103 19.8155V25.7414H35.8547V19.8155H39.4103ZM45.3362 19.8155V25.7414H41.7807V19.8155H45.3362ZM39.4103 11.5192V17.4451H35.8547V11.5192H39.4103ZM45.3362 11.5192V17.4451H41.7807V11.5192H45.3362ZM39.4103 3.22291V9.14884H35.8547V3.22291H39.4103ZM45.3362 3.22291V9.14884H41.7807V3.22291H45.3362Z" fill="#9991B5"/>
<path fill-rule="evenodd" clip-rule="evenodd" d="M0.300781 32.0112V18.6305C0.300781 17.9759 0.831407 17.4453 1.48597 17.4453H13.3378C13.9924 17.4453 14.523 17.9759 14.523 18.6305V29.6646C8.98819 30.1031 4.09337 30.9327 0.300781 32.0112ZM2.67115 19.8157H6.22671V25.7416H2.67115V19.8157ZM8.59708 19.8157H12.1526V25.7416H8.59708V19.8157Z" fill="#9991B5"/>
</g>
<defs>
<clipPath id="clip0_1522_77143">
<rect width="162.37" height="32" fill="white" transform="translate(0.300781 0.852539)"/>
</clipPath>
</defs>
</svg>
