<svg width="305" height="60" viewBox="0 0 305 60" fill="none" xmlns="http://www.w3.org/2000/svg">
<g clip-path="url(#clip0_624_9571)">
<path fill-rule="evenodd" clip-rule="evenodd" d="M108.889 15.9092V41.1652H113.813V31.0612H126.645V26.6492H113.813V20.3232H128.279V15.9092H108.889Z" fill="#22262A"/>
<path fill-rule="evenodd" clip-rule="evenodd" d="M289.691 36.8232V30.6032H302.449V26.2612H289.691V20.2512H304.083V15.9092H284.765V41.1652H304.264V36.8232H289.691Z" fill="#22262A"/>
<path fill-rule="evenodd" clip-rule="evenodd" d="M150.536 30.4169C150.536 34.7309 148.345 37.1069 144.365 37.1069C140.421 37.1069 138.161 34.6029 138.161 30.2389V15.9109H133.235V30.4169C133.235 37.4949 137.265 41.5549 144.293 41.5549C151.391 41.5549 155.462 37.4169 155.462 30.2049V15.9109H150.536V30.4169Z" fill="#22262A"/>
<path fill-rule="evenodd" clip-rule="evenodd" d="M179.825 32.6405L166.601 15.9965L166.536 15.9105H162.051V41.1645H166.905V23.9385L180.526 41.0805L180.594 41.1645H184.677V15.9105H179.825V32.6405Z" fill="#22262A"/>
<path fill-rule="evenodd" clip-rule="evenodd" d="M201.381 36.7528H196.593V20.3228H201.381C206.447 20.3228 209.986 23.7148 209.986 28.5728C209.986 33.4648 206.527 36.7528 201.381 36.7528ZM201.381 15.9108H191.669V41.1648H201.381C209.347 41.1648 215.13 35.8408 215.13 28.5028C215.13 21.2068 209.347 15.9108 201.381 15.9108Z" fill="#22262A"/>
<path fill-rule="evenodd" clip-rule="evenodd" d="M248.427 41.1655H253.351V15.9115H248.427V41.1655Z" fill="#22262A"/>
<path fill-rule="evenodd" clip-rule="evenodd" d="M270.695 26.3378C265.722 25.1798 264.836 24.3558 264.836 22.6178C264.836 20.9698 266.409 19.8618 268.751 19.8618C270.988 19.8618 273.203 20.6818 275.52 22.3718L275.707 22.5058L278.365 18.8538L278.199 18.7218C275.477 16.5918 272.409 15.5558 268.824 15.5558C263.574 15.5558 259.91 18.6198 259.91 23.0078C259.91 27.7338 262.947 29.3458 268.554 30.6678C273.318 31.7398 274.122 32.6478 274.122 34.2798C274.122 36.0618 272.442 37.2138 269.842 37.2138C266.987 37.2138 264.555 36.2358 261.958 34.0418L261.782 33.8938L258.804 37.3498L258.968 37.4938C261.993 40.1298 265.715 41.5198 269.733 41.5198C275.391 41.5198 279.046 38.5098 279.046 33.8538C279.046 29.9238 276.628 27.7458 270.695 26.3378Z" fill="#22262A"/>
<path fill-rule="evenodd" clip-rule="evenodd" d="M236.311 31.6758C240.135 30.5398 242.237 27.8238 242.237 24.0018C242.237 19.0098 238.528 15.9098 232.558 15.9098H220.991V41.1658H225.917V20.3218H232.197C235.447 20.3218 237.24 21.7178 237.24 24.2498C237.24 26.6918 235.32 28.2098 232.232 28.2098H231.169V32.5158L237.352 41.0718L237.422 41.1658H243.249L236.311 31.6758Z" fill="#22262A"/>
<path fill-rule="evenodd" clip-rule="evenodd" d="M31.1111 53.7111V17.7778C31.1111 16.5505 32.106 15.5555 33.3333 15.5555H55.5555C56.7828 15.5555 57.7778 16.5505 57.7778 17.7778V53.7333C53.4889 53.4667 49.0222 53.3333 44.4444 53.3333C39.8666 53.3333 35.4 53.4667 31.1111 53.7111ZM35.5555 35.5555H42.2222V46.6667H35.5555V35.5555ZM46.6666 35.5555H53.3333V46.6667H46.6666V35.5555ZM35.5555 20H42.2222V31.1111H35.5555V20ZM46.6666 20H53.3333V31.1111H46.6666V20Z" fill="#F4633A"/>
<path fill-rule="evenodd" clip-rule="evenodd" d="M62.2222 54.0444V2.22222C62.2222 0.994923 63.2171 0 64.4444 0H86.6444C87.8717 0 88.8666 0.994923 88.8666 2.22222V58.4444C81.7555 56.4222 72.5777 54.8667 62.2222 54.0444ZM73.3333 35.5556V46.6667H66.6666V35.5556H73.3333ZM84.4444 35.5556V46.6667H77.7777V35.5556H84.4444ZM73.3333 20V31.1111H66.6666V20H73.3333ZM84.4444 20V31.1111H77.7777V20H84.4444ZM73.3333 4.44444V15.5556H66.6666V4.44444H73.3333ZM84.4444 4.44444V15.5556H77.7777V4.44444H84.4444Z" fill="#F4633A"/>
<path fill-rule="evenodd" clip-rule="evenodd" d="M0 58.4222V33.3333C0 32.106 0.994923 31.1111 2.22222 31.1111H24.4444C25.6717 31.1111 26.6667 32.106 26.6667 33.3333V54.0222C16.2889 54.8444 7.11111 56.4 0 58.4222ZM4.44444 35.5555H11.1111V46.6666H4.44444V35.5555ZM15.5556 35.5555H22.2222V46.6666H15.5556V35.5555Z" fill="#F4633A"/>
</g>
<defs>
<clipPath id="clip0_624_9571">
<rect width="304.444" height="60" fill="white"/>
</clipPath>
</defs>
</svg>
