<svg width="195" height="31" viewBox="0 0 195 31" fill="none" xmlns="http://www.w3.org/2000/svg">
<g clip-path="url(#clip0_915_70966)">
<path d="M23.54 8.40019H24.6174L27.6878 5.32975L27.8387 4.02616C26.0797 2.47365 23.954 1.39518 21.6624 0.892621C19.3707 0.39006 16.9888 0.480001 14.7416 1.15395C12.4944 1.8279 10.4561 3.0636 8.81923 4.74433C7.18237 6.42507 6.001 8.49534 5.38672 10.7596C5.72878 10.6194 6.1077 10.5966 6.46407 10.6949L12.605 9.68224C12.605 9.68224 12.9174 9.16511 13.079 9.19743C14.3948 7.75235 16.2132 6.86486 18.1619 6.71665C20.1107 6.56845 22.0424 7.17072 23.5616 8.40019H23.54Z" fill="#EA4335"/>
<path d="M32.0634 10.7598C31.3577 8.1608 29.9086 5.82437 27.8941 4.03711L23.5847 8.3465C24.4828 9.08035 25.2026 10.0086 25.6897 11.0611C26.1768 12.1137 26.4185 13.2631 26.3966 14.4227V15.1877C26.9002 15.1877 27.399 15.2869 27.8643 15.4796C28.3296 15.6724 28.7524 15.9549 29.1086 16.311C29.4647 16.6672 29.7472 17.09 29.94 17.5553C30.1327 18.0206 30.2319 18.5194 30.2319 19.023C30.2319 19.5267 30.1327 20.0254 29.94 20.4907C29.7472 20.9561 29.4647 21.3789 29.1086 21.735C28.7524 22.0912 28.3296 22.3737 27.8643 22.5664C27.399 22.7592 26.9002 22.8584 26.3966 22.8584H18.7259L17.9609 23.6341V28.2343L18.7259 28.9993H26.3966C28.5386 29.0159 30.6291 28.3427 32.3588 27.0792C34.0886 25.8156 35.3657 24.0289 36.0013 21.9833C36.6368 19.9377 36.5971 17.7418 35.8879 15.7205C35.1787 13.6992 33.8378 11.9599 32.0634 10.7598Z" fill="#4285F4"/>
<path d="M11.0419 28.9563H18.7126V22.8155H11.0419C10.4954 22.8153 9.95531 22.6978 9.4582 22.4707L8.38086 22.8047L5.28887 25.8751L5.01953 26.9525C6.75345 28.2618 8.8692 28.9658 11.0419 28.9563Z" fill="#34A853"/>
<path d="M11.0416 9.0362C8.96325 9.04861 6.94063 9.70986 5.25628 10.9276C3.57194 12.1453 2.30998 13.8587 1.64667 15.8285C0.983368 17.7982 0.951835 19.9259 1.55648 21.9145C2.16113 23.903 3.37175 25.6531 5.01927 26.9202L9.46872 22.4707C8.90329 22.2153 8.40828 21.8264 8.02615 21.3376C7.64403 20.8488 7.38621 20.2745 7.27481 19.6642C7.1634 19.0538 7.20175 18.4255 7.38655 17.8332C7.57136 17.2409 7.8971 16.7023 8.33583 16.2635C8.77456 15.8248 9.31319 15.4991 9.90549 15.3142C10.4978 15.1294 11.1261 15.0911 11.7365 15.2025C12.3468 15.3139 12.9211 15.5717 13.4099 15.9538C13.8987 16.336 14.2876 16.831 14.543 17.3964L18.9925 12.947C18.0586 11.7261 16.8549 10.7378 15.4756 10.0593C14.0963 9.38089 12.5788 9.03072 11.0416 9.0362Z" fill="#FBBC05"/>
<path d="M56.8728 24.6681C55.5522 24.685 54.2417 24.4351 53.0199 23.9334C51.7981 23.4317 50.6901 22.6886 49.7623 21.7485C48.8054 20.8484 48.0459 19.7591 47.5322 18.5499C47.0185 17.3407 46.7617 16.0379 46.7781 14.7242C46.7623 13.4106 47.0194 12.108 47.5331 10.8989C48.0468 9.68979 48.8059 8.60048 49.7623 7.69991C50.6856 6.75012 51.7915 5.99703 53.0135 5.48601C54.2355 4.97499 55.5483 4.71661 56.8728 4.72643C58.1349 4.70961 59.3877 4.94382 60.5584 5.41545C61.7292 5.88707 62.7945 6.5867 63.6925 7.47367L61.7748 9.42367C60.4615 8.1545 58.699 7.45723 56.8728 7.48444C55.9256 7.47281 54.9862 7.65836 54.1145 8.0293C53.2428 8.40025 52.4577 8.94847 51.8093 9.63914C51.1354 10.3077 50.6037 11.1058 50.2464 11.9852C49.8891 12.8647 49.7134 13.8074 49.73 14.7565C49.7221 15.6949 49.902 16.6253 50.2591 17.493C50.6162 18.3608 51.1433 19.1483 51.8093 19.8093C53.1434 21.1389 54.9438 21.8952 56.8272 21.9173C58.7106 21.9395 60.5283 21.2256 61.8933 19.9278C62.7384 19.0024 63.2568 17.8254 63.3692 16.5773H56.9052V13.8192H66.0518C66.1417 14.3747 66.1778 14.9375 66.1596 15.4999C66.2165 16.6639 66.0367 17.8273 65.6312 18.9198C65.2256 20.0124 64.6028 21.0113 63.8002 21.8563C62.9079 22.7853 61.8298 23.5159 60.6362 24.0004C59.4426 24.4849 58.1603 24.7124 56.8728 24.6681ZM78.1397 22.8367C76.9122 24.0133 75.2775 24.6702 73.5771 24.6702C71.8767 24.6702 70.2421 24.0133 69.0145 22.8367C68.4036 22.2443 67.9224 21.5313 67.6016 20.7431C67.2807 19.9549 67.1272 19.1086 67.1507 18.2579C67.1278 17.4073 67.2817 16.5612 67.6025 15.7731C67.9233 14.985 68.4041 14.272 69.0145 13.6792C70.2433 12.505 71.8775 11.8497 73.5771 11.8497C75.2767 11.8497 76.9109 12.505 78.1397 13.6792C78.7501 14.272 79.231 14.985 79.5518 15.7731C79.8726 16.5612 80.0264 17.4073 80.0035 18.2579C80.0257 19.1094 79.8705 19.9562 79.5477 20.7444C79.225 21.5327 78.7418 22.2452 78.1289 22.8367H78.1397ZM71.0292 21.0375C71.3557 21.3862 71.7503 21.6641 72.1886 21.8541C72.6268 22.0442 73.0994 22.1422 73.5771 22.1422C74.0548 22.1422 74.5274 22.0442 74.9657 21.8541C75.4039 21.6641 75.7985 21.3862 76.1251 21.0375C76.4811 20.6695 76.7598 20.234 76.9448 19.7567C77.1299 19.2793 77.2174 18.7697 77.2024 18.2579C77.2183 17.7444 77.1311 17.233 76.9461 16.7537C76.761 16.2745 76.4819 15.8372 76.1251 15.4676C75.7942 15.1225 75.397 14.8479 74.9573 14.6603C74.5175 14.4727 74.0444 14.3759 73.5664 14.3759C73.0883 14.3759 72.6152 14.4727 72.1754 14.6603C71.7357 14.8479 71.3385 15.1225 71.0077 15.4676C70.6508 15.8372 70.3716 16.2745 70.1866 16.7537C70.0016 17.233 69.9144 17.7444 69.9303 18.2579C69.9167 18.7704 70.006 19.2805 70.1929 19.7579C70.3798 20.2353 70.6605 20.6704 71.0184 21.0375H71.0292ZM92.1668 22.8367C90.9392 24.0133 89.3046 24.6702 87.6042 24.6702C85.9038 24.6702 84.2691 24.0133 83.0416 22.8367C82.4307 22.2443 81.9495 21.5313 81.6286 20.7431C81.3078 19.9549 81.1543 19.1086 81.1778 18.2579C81.1549 17.4073 81.3087 16.5612 81.6295 15.7731C81.9504 14.985 82.4312 14.272 83.0416 13.6792C84.2691 12.5025 85.9038 11.8456 87.6042 11.8456C89.3046 11.8456 90.9392 12.5025 92.1668 13.6792C92.7772 14.272 93.258 14.985 93.5788 15.7731C93.8997 16.5612 94.0535 17.4073 94.0306 18.2579C94.0541 19.1086 93.9006 19.9549 93.5798 20.7431C93.2589 21.5313 92.7777 22.2443 92.1668 22.8367ZM85.0563 21.0375C85.3828 21.3862 85.7774 21.6641 86.2156 21.8541C86.6539 22.0442 87.1265 22.1422 87.6042 22.1422C88.0819 22.1422 88.5545 22.0442 88.9928 21.8541C89.431 21.6641 89.8256 21.3862 90.1521 21.0375C90.5081 20.6695 90.7869 20.234 90.9719 19.7567C91.1569 19.2793 91.2445 18.7697 91.2295 18.2579C91.2453 17.7444 91.1582 17.233 90.9732 16.7537C90.7881 16.2745 90.5089 15.8372 90.1521 15.4676C89.8213 15.1225 89.4241 14.8479 88.9843 14.6603C88.5446 14.4727 88.0715 14.3759 87.5934 14.3759C87.1153 14.3759 86.6422 14.4727 86.2025 14.6603C85.7628 14.8479 85.3655 15.1225 85.0347 15.4676C84.6779 15.8372 84.3987 16.2745 84.2137 16.7537C84.0286 17.233 83.9415 17.7444 83.9574 18.2579C83.9438 18.7704 84.033 19.2805 84.2199 19.7579C84.4068 20.2353 84.6875 20.6704 85.0455 21.0375H85.0563ZM101.389 30.4212C100.098 30.4622 98.8312 30.0592 97.8013 29.2792C96.8868 28.5917 96.1666 27.6785 95.7112 26.6289L98.1676 25.6054C98.4349 26.2327 98.8531 26.7841 99.385 27.2107C99.9543 27.6696 100.669 27.9103 101.4 27.8894C101.863 27.9176 102.327 27.8456 102.76 27.6783C103.194 27.511 103.586 27.2523 103.91 26.9198C104.559 26.1369 104.879 25.1329 104.804 24.1187V23.1922H104.707C104.297 23.6798 103.778 24.0651 103.193 24.3175C102.607 24.57 101.971 24.6826 101.335 24.6466C100.526 24.649 99.7255 24.4837 98.9838 24.1611C98.242 23.8384 97.5753 23.3654 97.0256 22.772C96.4292 22.1833 95.9584 21.4797 95.6417 20.7038C95.325 19.9279 95.1691 19.0958 95.1833 18.2579C95.1685 17.4151 95.324 16.578 95.6405 15.7967C95.9571 15.0155 96.4282 14.3062 97.0256 13.7115C97.5739 13.1156 98.2402 12.6403 98.9821 12.3157C99.7239 11.9911 100.525 11.8244 101.335 11.8262C102.02 11.825 102.697 11.9758 103.317 12.2679C103.854 12.5021 104.332 12.8515 104.718 13.2913H104.815V12.2679H107.487V23.7416C107.557 24.6493 107.441 25.5617 107.147 26.4231C106.852 27.2845 106.385 28.0767 105.774 28.7513C105.191 29.3084 104.503 29.7432 103.75 30.03C102.997 30.3168 102.194 30.4498 101.389 30.4212ZM101.583 22.1472C102.043 22.1573 102.499 22.066 102.92 21.8798C103.341 21.6936 103.716 21.4171 104.018 21.0698C104.682 20.3081 105.033 19.3222 104.998 18.3118C105.038 17.2843 104.688 16.2798 104.018 15.4999C103.716 15.1521 103.342 14.8751 102.921 14.6889C102.5 14.5026 102.043 14.4117 101.583 14.4226C101.11 14.4129 100.641 14.5039 100.206 14.6897C99.7716 14.8754 99.3814 15.1516 99.0618 15.4999C98.3491 16.2518 97.962 17.2545 97.9844 18.2902C97.9735 18.7983 98.063 19.3034 98.2479 19.7768C98.4328 20.2501 98.7094 20.6822 99.0618 21.0483C99.3799 21.3999 99.7693 21.6798 100.204 21.8692C100.639 22.0587 101.109 22.1534 101.583 22.1472ZM112.238 5.44825V24.2803H109.426V5.44825H112.238ZM119.952 24.6681C119.109 24.6898 118.272 24.5373 117.492 24.2203C116.711 23.9033 116.004 23.4286 115.416 22.8259C114.819 22.2276 114.349 21.5141 114.036 20.7289C113.723 19.9436 113.573 19.103 113.595 18.2579C113.563 17.4108 113.702 16.5659 114.004 15.7737C114.306 14.9815 114.764 14.2582 115.351 13.6469C115.905 13.0635 116.574 12.6021 117.316 12.2922C118.058 11.9824 118.857 11.831 119.661 11.8477C120.4 11.8399 121.133 11.9829 121.815 12.2679C122.43 12.5159 122.99 12.8819 123.464 13.3452C123.871 13.738 124.232 14.1753 124.541 14.6488C124.791 15.0486 125.004 15.4706 125.177 15.9093L125.468 16.6419L116.849 20.1864C117.109 20.7853 117.545 21.2911 118.099 21.6373C118.653 21.9835 119.299 22.1537 119.952 22.1256C120.586 22.1273 121.211 21.9645 121.764 21.6529C122.317 21.3414 122.781 20.8918 123.108 20.348L125.263 21.8024C124.713 22.5891 124.009 23.2561 123.194 23.7632C122.225 24.3755 121.098 24.6901 119.952 24.6681ZM116.353 18.064L122.085 15.6831C121.908 15.2632 121.592 14.917 121.191 14.7027C120.741 14.4486 120.231 14.3185 119.715 14.3256C118.838 14.3483 118.005 14.7161 117.398 15.3491C117.035 15.6968 116.753 16.1204 116.572 16.5897C116.392 17.059 116.317 17.5624 116.353 18.064Z" fill="#5F6368"/>
<path d="M140.195 24.668C138.999 24.6887 137.811 24.4674 136.703 24.0176C135.595 23.5679 134.589 22.8988 133.746 22.0505C132.902 21.2023 132.239 20.1924 131.796 19.0815C131.353 17.9707 131.139 16.7817 131.166 15.586C131.139 14.3903 131.353 13.2013 131.796 12.0904C132.239 10.9795 132.902 9.96965 133.746 9.12142C134.589 8.27319 135.595 7.60409 136.703 7.15429C137.811 6.7045 138.999 6.48328 140.195 6.50393C141.405 6.46608 142.608 6.70224 143.715 7.19474C144.821 7.68725 145.801 8.42337 146.583 9.34812L145.032 10.8564C144.458 10.1345 143.722 9.55819 142.883 9.17442C142.044 8.79066 141.127 8.61024 140.205 8.64785C139.318 8.62786 138.436 8.78744 137.612 9.11699C136.789 9.44654 136.04 9.93925 135.411 10.5655C134.758 11.2227 134.247 12.008 133.911 12.8719C133.576 13.7359 133.423 14.6599 133.461 15.586C133.423 16.512 133.576 17.436 133.911 18.3C134.247 19.164 134.758 19.9492 135.411 20.6064C136.04 21.2327 136.789 21.7254 137.612 22.055C138.436 22.3845 139.318 22.5441 140.205 22.5241C141.235 22.5356 142.254 22.315 143.187 21.8785C144.119 21.4421 144.941 20.801 145.592 20.0031L147.144 21.5545C146.331 22.5258 145.311 23.3026 144.159 23.8277C142.917 24.4011 141.562 24.6883 140.195 24.668Z" fill="#5F6368"/>
<path d="M151.312 24.28H149.082V6.88086H151.312V24.28Z" fill="#5F6368"/>
<path d="M154.953 13.8089C156.122 12.6484 157.702 11.9971 159.349 11.9971C160.996 11.9971 162.576 12.6484 163.744 13.8089C164.316 14.4122 164.762 15.1226 165.058 15.8992C165.354 16.6757 165.493 17.5031 165.468 18.3338C165.493 19.1644 165.354 19.9918 165.058 20.7683C164.762 21.5449 164.316 22.2553 163.744 22.8586C162.576 24.0192 160.996 24.6705 159.349 24.6705C157.702 24.6705 156.122 24.0192 154.953 22.8586C154.382 22.2553 153.935 21.5449 153.639 20.7683C153.344 19.9918 153.204 19.1644 153.229 18.3338C153.204 17.5031 153.344 16.6757 153.639 15.8992C153.935 15.1226 154.382 14.4122 154.953 13.8089ZM156.612 21.4581C156.964 21.8294 157.387 22.1252 157.857 22.3274C158.326 22.5295 158.832 22.6338 159.343 22.6338C159.855 22.6338 160.361 22.5295 160.83 22.3274C161.3 22.1252 161.723 21.8294 162.074 21.4581C162.464 21.0398 162.767 20.5482 162.965 20.0118C163.163 19.4754 163.252 18.905 163.227 18.3338C163.252 17.7626 163.163 17.1921 162.965 16.6558C162.767 16.1194 162.464 15.6277 162.074 15.2095C161.723 14.8381 161.3 14.5423 160.83 14.3402C160.361 14.138 159.855 14.0338 159.343 14.0338C158.832 14.0338 158.326 14.138 157.857 14.3402C157.387 14.5423 156.964 14.8381 156.612 15.2095C156.223 15.6277 155.92 16.1194 155.722 16.6558C155.524 17.1921 155.435 17.7626 155.46 18.3338C155.438 18.9039 155.529 19.4727 155.729 20.0072C155.929 20.5417 156.233 21.0312 156.623 21.4473L156.612 21.4581Z" fill="#5F6368"/>
<path d="M177.826 24.2806H175.671V22.6323H175.607C175.223 23.2584 174.68 23.7714 174.034 24.119C173.363 24.5079 172.601 24.7124 171.825 24.7116C171.196 24.7547 170.564 24.6549 169.979 24.4199C169.393 24.1848 168.868 23.8205 168.442 23.3541C167.626 22.3219 167.216 21.0266 167.29 19.7127V12.3867H169.52V19.3033C169.52 21.5226 170.5 22.6323 172.461 22.6323C172.897 22.6459 173.329 22.5552 173.723 22.3678C174.116 22.1804 174.459 21.9017 174.723 21.555C175.301 20.8224 175.61 19.9131 175.596 18.9801V12.3867H177.826V24.2806Z" fill="#5F6368"/>
<path d="M185.401 24.6679C184.644 24.6704 183.896 24.5089 183.208 24.1946C182.52 23.8803 181.908 23.4206 181.414 22.8472C180.298 21.6135 179.699 19.9966 179.745 18.3331C179.699 16.6695 180.298 15.0526 181.414 13.819C181.908 13.2455 182.52 12.7858 183.208 12.4715C183.896 12.1572 184.644 11.9958 185.401 11.9983C186.248 11.9849 187.086 12.1849 187.835 12.58C188.494 12.9117 189.053 13.4139 189.451 14.0345H189.548L189.451 12.3861V6.88086H191.682V24.28H189.527V22.6317H189.43C189.031 23.2522 188.473 23.7545 187.814 24.0861C187.07 24.4777 186.241 24.6776 185.401 24.6679ZM185.767 22.6317C186.271 22.639 186.771 22.5391 187.233 22.3385C187.696 22.1379 188.11 21.8412 188.45 21.4682C189.207 20.6056 189.594 19.4791 189.527 18.3331C189.594 17.187 189.207 16.0606 188.45 15.198C188.108 14.8229 187.692 14.5232 187.229 14.3182C186.765 14.1131 186.263 14.0072 185.756 14.0072C185.249 14.0072 184.748 14.1131 184.284 14.3182C183.82 14.5232 183.404 14.8229 183.063 15.198C182.686 15.6223 182.398 16.1166 182.213 16.6528C182.028 17.1889 181.951 17.7563 181.985 18.3223C181.951 18.8883 182.028 19.4557 182.213 19.9918C182.398 20.528 182.686 21.0223 183.063 21.4466C183.402 21.8263 183.82 22.1287 184.286 22.3331C184.753 22.5376 185.258 22.6394 185.767 22.6317Z" fill="#5F6368"/>
</g>
<defs>
<clipPath id="clip0_915_70966">
<rect width="195" height="30.1657" fill="white" transform="translate(0 0.416992)"/>
</clipPath>
</defs>
</svg>
