<svg width="170" height="41" viewBox="0 0 170 41" fill="none" xmlns="http://www.w3.org/2000/svg">
<path d="M65.0586 9.84999V29.7262C65.0586 30.1844 64.6747 30.5435 64.2041 30.5435L59.7583 30.5063V22.7416C59.7583 22.2834 59.3744 21.9243 58.9038 21.9243H51.7954C51.3248 21.9243 50.9409 22.2958 50.9409 22.7416L50.9162 30.5063C46.6809 30.5063 46.4951 30.5435 46.4951 30.5435C46.0245 30.5435 45.6406 30.172 45.6406 29.7262V9.84999C45.6406 9.39178 46.0245 9.03265 46.4951 9.03265L50.9162 9.05742C50.9162 16.5621 50.9409 16.7231 50.9409 16.7231C50.9409 17.1813 51.3248 17.5404 51.7954 17.5404H58.9038C59.3744 17.5404 59.7583 17.1689 59.7583 16.7231L59.7459 9.04503C64.7118 9.04503 64.2041 9.03265 64.2041 9.03265C64.6747 9.03265 65.0586 9.40417 65.0586 9.84999ZM70.5199 11.5218H73.7026C74.1236 11.5218 74.458 11.8438 74.458 12.2525V29.85C74.458 30.2463 74.1236 30.5806 73.7026 30.5806H70.5199C70.0988 30.5806 69.7645 30.2587 69.7645 29.85V12.2525C69.7645 11.8438 70.0988 11.5218 70.5199 11.5218ZM96.7738 12.4878L90.3837 30.3206C90.2846 30.6178 89.9874 30.8159 89.6654 30.8159H84.7985C84.4765 30.8159 84.1917 30.6178 84.0803 30.333L77.6654 12.5001C77.492 12.0296 77.8635 11.5342 78.3837 11.5342H81.6035C81.9255 11.5342 82.2103 11.7323 82.3217 12.0296L86.5199 24.0791C86.7552 24.7354 87.7211 24.7354 87.944 24.0791L92.1298 12.0172C92.2289 11.72 92.5261 11.5218 92.8481 11.5218H96.0679C96.5756 11.5218 96.9471 12.0172 96.7738 12.4878ZM113.182 27.6828V29.85C113.182 30.2463 112.848 30.5806 112.427 30.5806H100.737C100.316 30.5806 99.9812 30.2587 99.9812 29.85V12.2525C99.9812 11.8562 100.316 11.5218 100.737 11.5218H112.291C112.712 11.5218 113.046 11.8438 113.046 12.2525V14.4196C113.046 14.8159 112.712 15.1503 112.291 15.1503H105.43C105.009 15.1503 104.675 15.4723 104.675 15.8809C104.675 15.8809 104.662 15.8686 104.662 19.2122C104.662 19.2122 104.563 19.2246 111.696 19.2246V22.7788C104.34 22.7788 104.638 22.8035 104.638 22.8035C104.638 26.2958 104.662 26.2463 104.662 26.2463C104.662 26.6426 104.997 26.9769 105.418 26.9769H112.415C112.848 26.9645 113.182 27.2865 113.182 27.6828ZM141.542 9.84999V29.7262C141.542 30.1844 141.158 30.5435 140.687 30.5435H137.083C136.613 30.5435 136.229 30.172 136.229 29.7262L136.179 17.0946C136.179 16.2896 131.424 23.0636 131.424 23.0636C131.343 23.1752 131.237 23.2659 131.114 23.3284C130.992 23.3908 130.856 23.4232 130.718 23.4227H128.96C128.675 23.4227 128.415 23.2865 128.254 23.0636C128.254 23.0636 123.535 16.2401 123.535 17.0574L123.56 29.7262C123.56 30.1844 123.176 30.5435 122.706 30.5435H119.102C118.631 30.5435 118.247 30.172 118.247 29.7262V9.84999C118.247 9.39178 118.631 9.03265 119.102 9.03265H123.919C124.204 9.03265 124.464 9.16887 124.625 9.39178L129.17 15.9553C129.504 16.4382 130.247 16.4382 130.582 15.9553L135.127 9.39178C135.288 9.16887 135.548 9.03265 135.833 9.03265H140.65C141.158 9.03265 141.542 9.40417 141.542 9.84999ZM166.916 24.8469C166.384 26.1101 165.628 27.1998 164.675 28.1039C164.353 28.4011 164.34 28.8964 164.638 29.2308L167.573 32.3392C162.198 32.3392 161.901 32.3763 161.901 32.3763C161.653 32.3763 161.418 32.2772 161.257 32.0915L160.291 31.0017C160.08 30.7664 159.758 30.6673 159.436 30.7416C158.508 30.9398 157.504 31.0388 156.415 31.0388C153.938 31.0388 151.845 30.5559 150.111 29.5775C148.377 28.5992 147.09 27.2741 146.223 25.5775C145.356 23.8809 144.922 21.9738 144.922 19.8314C144.922 17.7261 145.356 15.8438 146.223 14.1596C147.09 12.4754 148.377 11.1379 150.111 10.1472C151.845 9.15649 153.938 8.66113 156.415 8.66113C158.854 8.66113 160.935 9.15649 162.656 10.1472C164.377 11.1379 165.678 12.4878 166.557 14.1844C167.436 15.8809 167.87 17.7633 167.87 19.8438C167.87 21.6518 167.548 23.3237 166.916 24.8469ZM151.907 24.8345C152.947 26.0977 154.446 26.7169 156.415 26.7169H156.477L155.102 25.1813C154.631 24.6487 155.015 23.819 155.746 23.819H159.387C159.634 23.819 159.87 23.9181 160.031 24.1039C160.415 24.5249 160.984 24.884 161.282 24.4011C161.517 23.9924 161.864 23.1255 162.025 22.6426C162.322 21.7633 162.47 20.7974 162.47 19.7323C162.47 18.432 162.235 17.2679 161.764 16.2401C161.294 15.2122 160.6 14.4196 159.684 13.8252C158.768 13.2432 157.69 12.946 156.427 12.946C154.483 12.946 152.984 13.5775 151.932 14.8531C150.879 16.1162 150.359 17.7757 150.359 19.819C150.347 21.8995 150.867 23.5714 151.907 24.8345Z" fill="black"/>
<path d="M20.736 36.7602C29.7504 36.7602 37.058 29.4526 37.058 20.4382C37.058 11.4238 29.7504 4.11621 20.736 4.11621C11.7217 4.11621 4.41406 11.4238 4.41406 20.4382C4.41406 29.4526 11.7217 36.7602 20.736 36.7602Z" fill="#FCC414"/>
<path d="M20.723 39.6334C10.1719 39.6334 1.58984 31.0514 1.58984 20.5003C1.58984 9.94923 10.1719 1.36719 20.723 1.36719C31.2741 1.36719 39.8561 9.94923 39.8561 20.5003C39.8561 31.0514 31.2741 39.6334 20.723 39.6334ZM20.723 2.98948C11.0635 2.98948 3.21213 10.8533 3.21213 20.5003C3.21213 30.1474 11.0635 38.0111 20.723 38.0111C30.3824 38.0111 38.2338 30.1598 38.2338 20.5003C38.2338 10.8409 30.3824 2.98948 20.723 2.98948Z" fill="black"/>
<path fill-rule="evenodd" clip-rule="evenodd" d="M23.3871 15.844C22.3097 15.3487 21.7029 14.1846 21.8887 13.0205C22.9537 13.5159 23.5729 14.68 23.3871 15.844Z" fill="black"/>
<path fill-rule="evenodd" clip-rule="evenodd" d="M17.1828 25.6896C17.3562 26.2593 17.6287 26.8042 18.0002 27.2748H23.5605C23.9321 26.8042 24.2045 26.2593 24.3779 25.6896H17.1828ZM28.9228 19.9683C28.7494 20.1293 28.737 20.4141 28.898 20.5875L28.9599 20.6494C31.4862 18.4946 33.0095 16.8228 32.254 15.5101C31.4243 14.346 27.9073 14.9032 23.5977 16.8351C23.8206 16.4017 23.9197 15.9187 23.9197 15.4358C23.9197 15.2624 23.9073 15.0766 23.8701 14.9032C23.7711 14.2841 23.4739 13.6896 23.0033 13.219C22.7432 12.959 22.446 12.7484 22.1364 12.5998L22.1488 12.5627L22.4831 11.8444C22.5327 11.733 22.4831 11.5967 22.3717 11.5348C22.2602 11.4853 22.124 11.5348 22.0621 11.6463L21.703 12.4265C21.1085 12.2407 20.4646 12.2407 19.8701 12.4265L19.511 11.6463C19.4615 11.5348 19.3252 11.4853 19.2014 11.5348C19.09 11.5844 19.0404 11.7206 19.09 11.8444L19.4119 12.5379L19.4367 12.5875C19.1147 12.7361 18.8299 12.9466 18.5698 13.2067C17.9383 13.8382 17.641 14.6556 17.6534 15.4853C17.6658 15.9311 17.7649 16.3769 17.963 16.7856C16.8485 16.2902 10.6565 13.7268 9.41813 15.4729C8.29119 17.058 11.7587 19.8444 12.6875 20.637L12.7494 20.5751C12.9104 20.4017 12.898 20.1169 12.7246 19.9559C12.2664 19.5224 11.5605 18.8166 11.0528 18.1354C10.3965 17.2314 10.3841 16.6989 10.6937 16.4017C11.6844 15.4729 15.3376 16.6989 16.4646 17.1323C17.5543 17.5534 18.7308 18.0859 19.9321 18.7175C14.1364 22.0735 10.1983 26.0859 11.1271 27.6958C11.7091 28.6989 14.1364 28.5751 17.2448 27.4729L17.1333 27.2871C17.0218 27.1138 16.8237 27.0271 16.6256 27.089C14.4708 27.7454 13.1209 28.0549 12.6503 27.3615C12.0064 26.2345 15.3005 22.3584 20.415 19.411L20.7989 19.1881C20.9228 19.2624 21.059 19.3367 21.1828 19.411C26.2974 22.3584 29.5915 26.2345 28.9475 27.3615C28.4769 28.0549 27.1395 27.7454 24.9723 27.089C24.7742 27.0271 24.576 27.1138 24.4646 27.2871L24.3531 27.4729C27.4615 28.5751 29.8887 28.6989 30.4708 27.6958C31.3996 26.0859 27.4615 22.0735 21.6658 18.7175C25.7401 16.5627 29.4181 15.6091 30.768 16.2902C32.0064 16.9094 29.8887 19.0519 28.9228 19.9683ZM18.1735 15.8444C17.9878 14.6803 18.607 13.5163 19.672 13.0209C19.8578 14.185 19.2386 15.3491 18.1735 15.8444ZM23.3872 15.8444C22.3098 15.3491 21.703 14.185 21.8887 13.0209C22.9537 13.5163 23.5729 14.6803 23.3872 15.8444ZM24.316 22.4574C23.2509 21.6772 22.0621 20.8971 20.7865 20.154C19.511 20.8971 18.3222 21.6772 17.2571 22.4574C17.0466 23.0642 16.9475 23.7206 16.9723 24.3645H24.6008C24.6256 23.7206 24.5265 23.0642 24.316 22.4574ZM19.2138 28.6122C19.6968 29.1076 20.0683 29.5534 20.7865 30.8537C21.5048 29.5658 21.8763 29.12 22.3593 28.6122H19.2138Z" fill="black"/>
<path fill-rule="evenodd" clip-rule="evenodd" d="M23.3869 15.844C22.3095 15.3487 21.7027 14.1846 21.8884 13.0205C22.9534 13.5159 23.5726 14.68 23.3869 15.844ZM18.1732 15.844C17.9875 14.68 18.6067 13.5159 19.6717 13.0205C19.8575 14.1846 19.2383 15.3487 18.1732 15.844ZM12.8358 20.3642C12.8358 20.3642 12.9225 20.1413 12.7119 19.9431C11.746 19.0391 9.62836 16.8967 10.842 16.2775C12.1918 15.5964 15.8698 16.5747 19.9441 18.7171C17.8884 19.906 16.4767 20.8967 14.9906 22.0979C13.3435 20.8843 13.0463 20.6242 12.8358 20.3642ZM28.9596 27.3982C28.489 28.0917 27.1516 27.7821 24.9844 27.1258C24.8853 27.101 24.7863 27.101 24.6996 27.1382C25.3559 26.1846 25.5045 24.4137 25.2692 23.1382V23.1134V23.101C25.1949 22.5933 25.0835 22.197 24.9596 22.0236C27.8327 24.327 29.4302 26.5809 28.9596 27.3982ZM26.681 22.1227C25.2321 20.8967 23.746 19.9183 21.6903 18.7295C25.7646 16.5747 29.4426 15.6211 30.7924 16.3022C32.0061 16.9214 29.876 19.0639 28.9225 19.9679C28.7491 20.1289 28.7986 20.2032 28.7986 20.3889C28.5881 20.649 28.328 20.9091 26.681 22.1227ZM16.6748 21.9865C16.551 22.1598 16.4395 22.5561 16.3652 23.0639V23.101C16.1299 24.3889 16.2785 26.1474 16.9349 27.101C16.8482 27.0639 16.7491 27.0639 16.65 27.0886C14.4952 27.745 13.1454 28.0546 12.6748 27.3611C12.2042 26.5561 13.8017 24.3022 16.6748 21.9865Z" fill="white"/>
</svg>
