<svg width="100" height="50" viewBox="0 0 50 50" xmlns="http://www.w3.org/2000/svg">
    <path
        d="M9.94252 19.6475C9.94252 19.2213 9.59826 18.9918 8.97531 18.9918H7.91793V20.3361H8.93432C9.58186 20.3361 9.95891 20.1229 9.95891 19.6721L9.94252 19.6475Z"
        fill="white" />
    <path
        d="M7.91793 21.8279V23.2459H9.2458C9.90153 23.2459 10.2622 22.9918 10.2622 22.541C10.2622 22.1311 9.93432 21.8279 9.22121 21.8279H7.91793Z"
        fill="white" />
    <path
        d="M17.5327 20.0574C17.5327 20.6148 17.1065 20.9672 16.3933 20.9672L15.2048 20.9918V19.1393H16.3851C17.0901 19.1393 17.5327 19.4426 17.5327 20.0574Z"
        fill="white" />
    <path d="M24.4753 21.9098L23.6556 19.7377L22.7868 21.9098H24.4753Z" fill="white" />
    <path fill-rule="evenodd" clip-rule="evenodd"
        d="M50 0H0V50H50V0ZM6.36055 11.8197L4.9917 13.1147C5.30506 13.5389 5.71998 13.8775 6.19834 14.0995C6.6767 14.3215 7.20317 14.4198 7.7294 14.3852C8.11456 14.401 8.49903 14.3403 8.8606 14.2067C9.22217 14.073 9.55367 13.8691 9.83596 13.6066C10.0929 13.3181 10.2887 12.9805 10.4112 12.6142C10.5338 12.2478 10.5807 11.8604 10.5491 11.4754V6.55737H8.43432V11.459C8.43432 12.1721 8.09006 12.5328 7.56547 12.5328C7.32259 12.5175 7.08678 12.4449 6.87734 12.321C6.66791 12.197 6.49081 12.0252 6.36055 11.8197ZM24.2048 40.3688H5.76221V43.4426H24.2048V40.3688ZM11.4753 6.55737H17.6474V8.35245H13.5491V9.53278H17.2294V11.1721H13.6065V12.3934H17.7048V14.2049H11.4753V6.55737ZM18.3851 8.43442H20.6802V14.2377H22.8114V8.41803H25.1146V6.55737H18.3851V8.43442ZM5.84416 17.2787H9.46711C10.2262 17.2217 10.9772 17.4661 11.5573 17.959C11.7197 18.124 11.8471 18.3201 11.9316 18.5357C12.0161 18.7512 12.0561 18.9817 12.0491 19.2131C12.0583 19.5867 11.9491 19.9536 11.7371 20.2613C11.525 20.569 11.2211 20.8018 10.8687 20.9262C11.3048 21.0062 11.698 21.2392 11.9775 21.5833C12.2571 21.9274 12.4045 22.3601 12.3933 22.8033C12.3933 24.1229 11.3196 24.9262 9.4835 24.9262H5.84416V17.2787ZM16.4753 17.2787H13.1146V24.9426H15.213V22.6148H15.9261L17.4671 24.9426H19.364L19.3605 24.9508H21.5819L22.131 23.5656H25.1065L25.6556 24.9508H27.9425L24.6638 17.2131H22.6147L19.5778 24.4342L18.0901 22.2623C18.567 22.0805 18.9755 21.7547 19.259 21.3303C19.5424 20.9058 19.6868 20.4036 19.672 19.8934C19.6807 19.5594 19.6196 19.2272 19.4926 18.9181C19.3655 18.609 19.1754 18.3298 18.9343 18.0984C18.2532 17.5144 17.3706 17.2202 16.4753 17.2787ZM30.3769 17.2541H28.2458V24.9344H30.3769V17.2541ZM31.1966 17.2541H33.1802L35.9425 21.3525V17.2541H38.0491V24.9344H36.1966L33.3032 20.7213V24.9344H31.1966V17.2541ZM39.5983 22.3525L38.4097 23.7705C39.4116 24.5961 40.6775 25.0326 41.9753 25C43.8442 25 45.0819 24.1066 45.0819 22.541C45.0819 21.1066 44.0163 20.5328 42.2622 20.1557C41.1884 19.9098 40.9261 19.7541 40.9261 19.4098C40.9261 19.1229 41.1802 18.918 41.6966 18.918C42.4728 18.9438 43.2223 19.207 43.8442 19.6721L44.8769 18.1639C43.9769 17.4585 42.8557 17.0954 41.713 17.1393C39.8687 17.1393 38.7458 18.1721 38.7458 19.5984C38.7458 21.1803 39.9999 21.6229 41.6392 22C42.6884 22.2541 42.9425 22.418 42.9425 22.7459C42.9425 23.082 42.6392 23.2787 42.0573 23.2787C41.1562 23.2582 40.2889 22.9316 39.5983 22.3525Z"
        fill="white" />
</svg>