<svg width="130" height="51" viewBox="0 0 130 51" fill="none" xmlns="http://www.w3.org/2000/svg">
<g clip-path="url(#clip0_915_71360)">
<path d="M73.5508 14.1631H79.1615V20.5131C79.1615 21.2185 79.0608 22.2597 78.9936 23.033H79.1281C79.5513 22.2971 80.0226 21.5899 80.539 20.9161L86.0827 14.1631H92.13L84.7388 23.0664L92.5333 36.841H86.0827L80.8414 27.3334L79.1615 29.383V36.841H73.5508V14.1631Z" fill="#384745"/>
<path d="M98.0119 29.7188C97.4071 31.9024 98.6501 33.2799 100.532 33.2799C102.648 33.2799 103.723 31.6 103.723 29.2146C103.723 26.6614 102.447 25.6874 100.733 25.6874C99.701 25.6797 98.7044 26.064 97.9447 26.7625L95.5257 24.1415L102.548 18.329H94.2154V14.1631H108.158V18.5641L102.783 22.9991C106.209 22.6633 109.468 24.9142 109.468 29.2819C109.468 34.0192 105.605 37.2445 100.733 37.2445C96.1305 37.2445 92.2667 34.3889 93.2746 30.3903L98.0119 29.7188Z" fill="#384745"/>
<path d="M116.423 29.3828C116.02 31.1967 116.725 33.2797 120.287 33.2797C122.638 33.2797 123.445 32.3391 123.445 31.0956C123.445 29.2144 121.563 28.7441 119.345 27.9381C116.02 26.7951 111.921 25.183 111.921 20.4457C111.921 16.2125 115.18 13.6254 120.723 13.7599C127.51 13.8939 129.425 17.8924 128.686 21.3529L123.545 21.8232C123.882 19.2027 122.94 17.724 120.287 17.724C118.506 17.724 117.498 18.3966 117.498 19.8075C117.498 21.6887 119.312 22.2596 121.53 23.0328C124.957 24.1746 129.021 25.5527 129.021 30.2556C129.021 34.3209 125.998 37.2444 120.085 37.2444C114.541 37.2444 110.745 34.6906 111.518 29.8532L116.423 29.3828Z" fill="#384745"/>
<path d="M54.5906 0.5H6.46203C4.74974 0.505013 3.10902 1.18744 1.89824 2.39821C0.687456 3.60898 0.00502225 5.24971 0 6.962L0 44.038C0.00502225 45.7503 0.687456 47.391 1.89824 48.6018C3.10902 49.8126 4.74974 50.495 6.46203 50.5H54.5906C56.3029 50.495 57.9437 49.8126 59.1544 48.6018C60.3652 47.391 61.0477 45.7503 61.0527 44.038V6.962C61.0477 5.24971 60.3652 3.60898 59.1544 2.39821C57.9437 1.18744 56.3029 0.505013 54.5906 0.5ZM25.7978 36.8591L14.0522 43.6849C13.6953 43.8923 13.3011 44.0273 12.8921 44.0823C12.483 44.1374 12.0672 44.1113 11.6682 44.0056C10.8625 43.7921 10.1745 43.2673 9.7557 42.5467C9.33689 41.826 9.22152 40.9684 9.43498 40.1627C9.64844 39.3569 10.1732 38.669 10.8939 38.2502L22.6396 31.4244C22.9964 31.2166 23.3907 31.0812 23.8 31.0259C24.2092 30.9706 24.6253 30.9964 25.0245 31.102C25.4237 31.2076 25.7982 31.3908 26.1266 31.6412C26.455 31.8916 26.7308 32.2043 26.9383 32.5613C27.1458 32.9183 27.2809 33.3128 27.3358 33.722C27.3908 34.1313 27.3646 34.5474 27.2587 34.9465C27.1528 35.3457 26.9692 35.72 26.7186 36.0482C26.4679 36.3763 26.155 36.6519 25.7978 36.8591ZM30.4185 26.4596H30.4044C29.9917 26.4578 29.5834 26.3747 29.2027 26.2151C28.8221 26.0555 28.4767 25.8225 28.1861 25.5294C27.8955 25.2363 27.6656 24.8888 27.5093 24.5068C27.353 24.1248 27.2735 23.7158 27.2753 23.303L27.3343 9.77187C27.3379 8.94077 27.6706 8.14495 28.2596 7.55852C28.8485 6.97208 29.6457 6.64278 30.4769 6.64264H30.491C31.3245 6.64628 32.1224 6.98089 32.7093 7.57286C33.2961 8.16483 33.6237 8.96566 33.6201 9.79919L33.5611 23.3303C33.5574 24.1615 33.2248 24.9573 32.6358 25.5437C32.0469 26.1301 31.2496 26.4595 30.4185 26.4596ZM51.2009 42.5378C50.9947 42.8953 50.72 43.2087 50.3926 43.4601C50.0651 43.7114 49.6914 43.8958 49.2927 44.0026C48.894 44.1095 48.4781 44.1367 48.0689 44.0827C47.6596 44.0287 47.2651 43.8946 46.9077 43.6881L35.1448 36.8968C34.787 36.6907 34.4733 36.416 34.2217 36.0886C33.97 35.7611 33.7854 35.3872 33.6783 34.9884C33.5713 34.5895 33.5439 34.1735 33.5977 33.764C33.6515 33.3546 33.7855 32.9598 33.992 32.6021C34.1984 32.2445 34.4734 31.931 34.8011 31.6797C35.1288 31.4284 35.5028 31.2441 35.9017 31.1374C36.3007 31.0307 36.7168 31.0037 37.1262 31.0579C37.5356 31.1121 37.9303 31.2464 38.2877 31.4532L50.0506 38.2445C50.408 38.4509 50.7213 38.7256 50.9726 39.053C51.2238 39.3805 51.4081 39.7542 51.515 40.1529C51.6218 40.5515 51.649 40.9674 51.5951 41.3766C51.5413 41.7858 51.4073 42.1803 51.2009 42.5378Z" fill="#FFC61C"/>
</g>
<defs>
<clipPath id="clip0_915_71360">
<rect width="129.022" height="50" fill="white" transform="translate(0 0.5)"/>
</clipPath>
</defs>
</svg>
