<svg width="87" height="41" viewBox="0 0 87 41" fill="none" xmlns="http://www.w3.org/2000/svg">
<g clip-path="url(#clip0_915_70888)">
<path d="M8.44321 4.05923C8.00859 3.61462 7.40475 3.34154 6.73244 3.34154C6.41554 3.34026 6.10166 3.40319 5.80975 3.52654C5.51784 3.64989 5.25394 3.8311 5.03398 4.05923H5.02244C4.7956 4.28777 4.61611 4.55884 4.49427 4.85691C4.37243 5.15497 4.31064 5.47416 4.31244 5.79615C4.30798 6.44379 4.56055 7.06677 5.01475 7.52846L5.02629 7.54077C5.24717 7.76716 5.51141 7.94671 5.80323 8.06869C6.09505 8.19068 6.40846 8.25261 6.72475 8.25077C7.39706 8.25077 8.00013 7.98154 8.43552 7.54077L8.44013 7.52846C8.87552 7.09154 9.13244 6.48 9.13244 5.79615C9.13665 5.14772 8.88482 4.52383 8.43167 4.06H8.43552L8.44321 4.05923ZM6.73244 37.6592C7.40475 37.6592 8.00782 37.3808 8.44321 36.9438L8.44782 36.9315C8.88321 36.4962 9.14013 35.8808 9.14013 35.2046C9.14013 34.5123 8.87475 33.9077 8.44782 33.4646H8.44321C8.00859 33.0162 7.40475 32.7446 6.73244 32.7446C6.41524 32.7427 6.10099 32.8056 5.80894 32.9294C5.51689 33.0532 5.25319 33.2353 5.03398 33.4646H5.02244C4.56921 33.9301 4.31699 34.555 4.32013 35.2046C4.3171 35.8504 4.56956 36.4712 5.02244 36.9315L5.03398 36.9438C5.25527 37.17 5.51949 37.3497 5.81114 37.4724C6.1028 37.5951 6.41602 37.6592 6.73244 37.6592ZM19.874 30.2231C20.1827 30.1412 20.4719 29.998 20.7243 29.8022C20.9767 29.6064 21.1872 29.3618 21.3432 29.0831L21.3878 28.9969C21.6727 28.4494 21.7408 27.8147 21.5786 27.2192C21.4201 26.6069 21.0401 26.0638 20.454 25.7269L20.4201 25.7038C19.8743 25.396 19.2288 25.3169 18.6247 25.4838C18.0247 25.6362 17.4863 26.0431 17.1571 26.6277C16.837 27.1944 16.7499 27.8633 16.914 28.4931C17.0798 29.1183 17.483 29.6543 18.0378 29.9869H18.0417C18.6186 30.3254 19.2701 30.3846 19.8747 30.2177L19.874 30.2231ZM9.19936 17.9923C8.56629 17.35 7.69167 16.9462 6.72552 16.9462C6.26503 16.947 5.80936 17.0399 5.38531 17.2194C4.96126 17.399 4.57739 17.6615 4.25629 17.9915C3.62552 18.6331 3.23782 19.5185 3.23782 20.5031C3.2352 21.4445 3.6007 22.3497 4.25629 23.0254C4.88705 23.6638 5.75936 24.0638 6.71782 24.0638C7.67629 24.0638 8.55859 23.6638 9.19167 23.0254C9.84801 22.3498 10.2141 21.4442 10.2117 20.5023C10.216 19.5634 9.84943 18.6608 9.19167 17.9908L9.19936 17.9923ZM7.81475 13.8092C9.19587 14.0433 10.4665 14.7112 11.4424 15.7162H11.4501C11.6053 15.8746 11.7524 16.0407 11.8909 16.2138L14.2986 14.7962C13.9818 13.8205 13.9546 12.7739 14.2201 11.7831C14.5632 10.4754 15.3971 9.30615 16.6447 8.57308L16.6855 8.54692C17.2702 8.20727 17.9165 7.98727 18.587 7.89972C19.2575 7.81216 19.9386 7.8588 20.5909 8.03692C21.2533 8.21827 21.8731 8.52921 22.4144 8.95174C22.9558 9.37427 23.408 9.89999 23.7447 10.4985V10.5023C24.4617 11.7638 24.6063 13.2115 24.2655 14.5146C23.924 15.8223 23.0886 16.9992 21.8409 17.7285L21.5117 17.9262H21.4786C20.3623 18.4662 19.0886 18.585 17.8917 18.2608C16.9164 17.993 16.0404 17.4466 15.3709 16.6885L12.9663 18.1015C13.2521 18.8672 13.3975 19.6781 13.3955 20.4954C13.3955 21.3385 13.2432 22.1523 12.9663 22.9L15.3709 24.31C16.0578 23.5269 16.9355 23.0023 17.8917 22.7369C19.1763 22.38 20.5978 22.5315 21.8409 23.2692L21.9209 23.3077V23.3115C23.0839 24.027 23.9244 25.1655 24.2655 26.4877C24.6215 27.8406 24.4347 29.2791 23.7447 30.4962L23.7017 30.5846H23.6963C23.0086 31.7547 21.8941 32.6128 20.5871 32.9785C19.3024 33.3231 17.8794 33.1762 16.6371 32.4492V32.4392C15.4352 31.7323 14.5632 30.5772 14.2124 29.2277C13.9465 28.2385 13.9737 27.1933 14.2909 26.2192L11.8832 24.8054C11.7444 24.9758 11.5973 25.1394 11.4424 25.2954L11.4347 25.3031C10.4717 26.2877 9.20398 26.9723 7.80705 27.1992V30.03C8.79521 30.2432 9.6987 30.7427 10.4047 31.4662L10.4086 31.4738C11.3494 32.4262 11.9317 33.7538 11.9317 35.2123C11.9341 36.6078 11.387 37.9481 10.4086 38.9431L10.4047 38.9585C9.45859 39.9077 8.15859 40.5 6.72552 40.5C5.29936 40.5 3.99629 39.9077 3.05167 38.95H3.04782V38.9346C2.06841 37.9398 1.52037 36.5991 1.52244 35.2031C1.52244 33.7438 2.10706 32.4169 3.04782 31.4646V31.4569H3.05167C3.75397 30.7298 4.65792 30.2296 5.64706 30.0208V27.19C4.24321 26.9623 2.98552 26.2785 2.03167 25.2938L2.02167 25.2862C0.764211 24.0089 0.0591656 22.2885 0.0585938 20.4962C0.0585938 18.6269 0.810901 16.9362 2.01244 15.7092H2.02244C2.99669 14.7042 4.26619 14.0361 5.64629 13.8023V10.9831C4.66042 10.7633 3.75911 10.2633 3.0509 9.54308H3.04706V9.53539C2.06718 8.53772 1.51924 7.19454 1.52167 5.79615C1.52027 4.3982 2.06807 3.05563 3.04706 2.05769L3.05859 2.05385C3.53486 1.56282 4.10478 1.17231 4.73463 0.905413C5.36448 0.638518 6.04146 0.500661 6.72552 0.5C8.15936 0.5 9.45859 1.09231 10.4055 2.05385V2.05769H10.4094C11.3501 3.01538 11.9324 4.34462 11.9324 5.79615C11.9336 7.19362 11.3868 8.53585 10.4094 9.53462L10.4055 9.54231C9.70398 10.2531 8.80859 10.7615 7.80782 10.9823V13.8015L7.81475 13.8092ZM21.3417 11.9285L21.3217 11.8977C21.0026 11.3519 20.4828 10.9525 19.8732 10.7846C19.5663 10.7002 19.2456 10.6783 18.93 10.7202C18.6145 10.762 18.3105 10.8669 18.0363 11.0285H18.0401C17.4617 11.3623 17.0747 11.9092 16.9124 12.5208C16.7467 13.1504 16.8339 13.82 17.1555 14.3862L17.1663 14.4015C17.4994 14.9785 18.0301 15.3669 18.6224 15.5231C19.2171 15.6938 19.8809 15.6215 20.4517 15.2831L20.4824 15.2677C21.044 14.9262 21.4209 14.3862 21.5763 13.7938C21.7355 13.1823 21.6724 12.5138 21.3417 11.9285ZM32.0278 12.7569H34.7147V21.1046L38.5901 16.7431H41.8209L37.1424 21.7969L41.8247 28.1923H38.7478L34.7078 22.4708V28.1923H32.0201V12.7492M44.9263 22.5131C44.9263 23.9346 45.9309 26.0008 48.3517 26.0008C49.8494 26.0008 50.8347 25.2069 51.3463 24.1662C51.614 23.6608 51.7371 23.12 51.7786 22.5508C51.799 21.9971 51.6933 21.446 51.4694 20.9392C50.9986 19.8569 49.9524 18.9185 48.3324 18.9185C46.1594 18.9185 44.9271 20.7108 44.9271 22.4862V22.5054L44.9263 22.5131ZM54.4432 28.1923H51.7547V26.5438C51.0394 27.8769 49.5409 28.5462 47.9609 28.5462C44.3509 28.5462 42.2378 25.6846 42.2378 22.4523C42.2378 18.8423 44.8017 16.38 47.9609 16.38C50.0117 16.38 51.2624 17.4862 51.7547 18.4054V16.7338H54.4432V28.1923ZM57.487 18.8431H56.1024V16.7354H57.487V16.0892C57.487 12.6846 60.0309 12.4792 61.9601 12.4569V14.5615C61.2817 14.5615 60.1755 14.5615 60.1755 16.1723V16.7338H61.9601V18.8415H60.1755V28.1923H57.487V18.8431ZM63.7947 12.7492H66.4809V21.0969L70.3578 16.7354H73.5886L68.9101 21.7892L73.5971 28.1923H70.5201L66.4801 22.4708V28.1923H63.794L63.7947 12.7492ZM76.7017 22.5131C76.7017 23.9346 77.7055 26.0008 80.127 26.0008C81.6224 26.0008 82.6086 25.2069 83.1271 24.1662C83.3963 23.6608 83.5117 23.12 83.5594 22.5508C83.5778 22.0069 83.4771 21.4415 83.2494 20.9392C82.7878 19.8569 81.734 18.9185 80.1132 18.9185C77.9394 18.9185 76.7078 20.7108 76.7078 22.4862V22.5054L76.7017 22.5131ZM86.2094 28.1923H83.5217V26.5438C82.804 27.8769 81.3063 28.5462 79.7278 28.5462C76.1178 28.5462 74.007 25.6846 74.007 22.4523C74.007 18.8423 76.5686 16.38 79.7278 16.38C81.7778 16.38 83.0294 17.4862 83.5217 18.4054V16.7338H86.2094V28.1923Z" fill="#231F20"/>
</g>
<defs>
<clipPath id="clip0_915_70888">
<rect width="86.1538" height="40" fill="white" transform="translate(0.0585938 0.5)"/>
</clipPath>
</defs>
</svg>
