<svg width="196" height="33" viewBox="0 0 196 33" fill="none" xmlns="http://www.w3.org/2000/svg">
<g clip-path="url(#clip0_915_70900)">
<path d="M31.9703 7.3652C31.7755 6.74195 31.3081 6.23556 30.7238 5.92393L18.8431 0.236758C18.5314 0.0809454 18.1809 0.0419922 17.8692 0.0419922C17.5576 0.0419922 17.207 0.0419922 16.8954 0.119899L5.01466 5.84603C4.43036 6.1187 4.00187 6.62509 3.84606 7.2873L0.885611 20.1029C0.768751 20.7651 0.924564 21.4273 1.3141 21.9727L9.53323 32.1395C10.0007 32.6069 10.6629 32.9185 11.3251 32.9575H24.4523C25.1535 33.0354 25.8157 32.7238 26.2442 32.1395L34.4633 21.9727C34.8529 21.4273 35.0087 20.7651 34.9308 20.1029L31.9703 7.3652Z" fill="#326DE6"/>
<path d="M30.0989 19.5966C30.06 19.5966 30.06 19.5966 30.06 19.5577C30.06 19.5187 29.9431 19.5187 29.9042 19.5187C29.7484 19.4797 29.5926 19.4797 29.4367 19.4797C29.3588 19.4797 29.2809 19.4797 29.203 19.4408H29.1641C28.7356 19.4018 28.2681 19.3239 27.8397 19.2071C27.7228 19.1681 27.6059 19.0513 27.567 18.9344C27.567 18.8954 27.528 18.8954 27.528 18.8954L27.2164 18.8175C27.3722 17.6879 27.2943 16.5193 27.0606 15.3897C26.7879 14.26 26.3205 13.1693 25.6972 12.1955L25.9309 11.9618V11.9228C25.9309 11.806 25.9699 11.6501 26.0478 11.5722C26.3984 11.2996 26.749 11.0269 27.1385 10.8321C27.2164 10.7932 27.2943 10.7542 27.3722 10.7153C27.528 10.6374 27.6449 10.5595 27.8007 10.4815C27.8397 10.4426 27.8786 10.4426 27.9176 10.4036C27.9565 10.3647 27.9565 10.3647 27.9565 10.3647C28.3071 10.092 28.385 9.62457 28.1123 9.27399C27.9955 9.11818 27.7617 9.00132 27.567 9.00132C27.3722 9.00132 27.1774 9.07923 27.0216 9.19609L26.9827 9.23504C26.9437 9.27399 26.9048 9.31295 26.8658 9.31295C26.749 9.42981 26.6321 9.54667 26.5542 9.66353C26.5152 9.74143 26.4373 9.78039 26.3984 9.81934C26.0868 10.131 25.7751 10.4426 25.4246 10.6763C25.3466 10.7153 25.2687 10.7542 25.1908 10.7542C25.1519 10.7542 25.074 10.7542 25.035 10.7153L24.7234 10.949C24.4118 10.6374 24.0612 10.3257 23.7496 10.0141C22.3083 8.88446 20.5164 8.1833 18.6856 7.98854L18.6467 7.67691L18.6077 7.63796C18.4909 7.56005 18.4519 7.44319 18.413 7.32633C18.413 6.89784 18.413 6.46936 18.4909 6.00192V5.96297C18.4909 5.88506 18.5298 5.80715 18.5298 5.72925C18.5688 5.57343 18.5688 5.41762 18.6077 5.26181V5.02809C18.6467 4.63856 18.3351 4.24902 17.9455 4.24902C17.7118 4.24902 17.4781 4.32693 17.3223 4.48274C17.1665 4.63856 17.0886 4.83332 17.0886 5.02809V5.22285C17.0886 5.37867 17.1275 5.53448 17.1665 5.69029C17.2054 5.7682 17.2054 5.84611 17.2054 5.92401V5.96297C17.2833 6.39145 17.2833 6.81994 17.2833 7.28738C17.2444 7.40424 17.2054 7.5211 17.0886 7.599L17.0496 7.63796L17.0107 7.94958C16.5822 7.98854 16.1537 8.06644 15.6862 8.14435C13.8554 8.53388 12.1804 9.50771 10.895 10.8711L10.6613 10.7153H10.6223C10.5834 10.7153 10.5444 10.7542 10.4665 10.7542C10.3886 10.7542 10.2717 10.7153 10.2328 10.6763C9.8822 10.4036 9.57058 10.092 9.25895 9.78039C9.22 9.70248 9.14209 9.66353 9.10314 9.62457C8.98628 9.50771 8.90837 9.39085 8.79151 9.27399C8.75256 9.23504 8.71361 9.23504 8.67465 9.19609C8.6357 9.15713 8.6357 9.15713 8.6357 9.15713C8.47989 9.04027 8.28512 8.96237 8.09035 8.96237C7.85663 8.96237 7.66187 9.04027 7.50605 9.23504C7.27234 9.58562 7.35024 10.0531 7.66187 10.3257C7.70082 10.3257 7.70082 10.3647 7.70082 10.3647C7.70082 10.3647 7.77873 10.4426 7.81768 10.4426C7.93454 10.5205 8.09035 10.5984 8.24617 10.6763C8.32407 10.7153 8.40198 10.7542 8.47989 10.7932C8.86942 11.0269 9.22 11.2606 9.57058 11.5333C9.64848 11.6112 9.72639 11.767 9.68744 11.8839V11.9228L9.92116 12.1565C9.8822 12.2344 9.84325 12.2734 9.8043 12.3513C8.59675 14.26 8.12931 16.5193 8.47989 18.7396L8.16826 18.8175C8.16826 18.8565 8.12931 18.8565 8.12931 18.8565C8.09035 18.9734 7.97349 19.0513 7.85663 19.1292C7.42815 19.246 6.99966 19.3239 6.53222 19.3629H6.49327C6.41536 19.3629 6.33746 19.3629 6.25955 19.4018C6.10374 19.4018 5.94792 19.4408 5.79211 19.4408C5.75316 19.4408 5.7142 19.4797 5.6363 19.4797C5.59735 19.4797 5.59735 19.4797 5.55839 19.5187C5.12991 19.5966 4.85723 19.9861 4.93514 20.4146C5.01305 20.7652 5.36363 20.9989 5.7142 20.96C5.79211 20.96 5.83106 20.96 5.90897 20.921C5.94792 20.921 5.94792 20.921 5.94792 20.8821C5.94792 20.8431 6.02583 20.8431 6.10374 20.8431C6.25955 20.8042 6.41536 20.7262 6.53222 20.6873C6.61013 20.6483 6.68804 20.6094 6.76594 20.6094H6.8049C7.19443 20.4536 7.62291 20.3367 8.0514 20.2588H8.09035C8.20721 20.2588 8.32407 20.2978 8.40198 20.3757C8.44093 20.3757 8.44093 20.4146 8.44093 20.4146L8.79151 20.3757C9.37581 22.1675 10.4665 23.7646 11.9857 24.9332C12.3363 25.2059 12.6479 25.4396 13.0374 25.6344L12.8816 25.946C12.8816 25.9849 12.9206 25.9849 12.9206 25.9849C12.9985 26.1018 12.9985 26.2576 12.9595 26.3745C12.8037 26.764 12.57 27.1535 12.3363 27.5041V27.5431C12.2973 27.621 12.2584 27.6599 12.1804 27.7378C12.1025 27.8157 12.0246 27.9716 11.9078 28.1274C11.8688 28.1663 11.8688 28.2053 11.8299 28.2442C11.8299 28.2442 11.8299 28.2832 11.7909 28.2832C11.5961 28.6727 11.752 29.1402 12.1025 29.3349C12.1804 29.3739 12.2973 29.4128 12.4142 29.4128C12.7258 29.4128 12.9985 29.2181 13.1543 28.9454C13.1543 28.9454 13.1543 28.9064 13.1932 28.9064C13.1932 28.8675 13.2322 28.8285 13.2711 28.7896C13.3101 28.6338 13.388 28.5169 13.427 28.3611L13.5049 28.1274C13.6217 27.6989 13.8165 27.3093 14.0112 26.9198C14.0892 26.803 14.206 26.7251 14.3229 26.6861C14.3618 26.6861 14.3618 26.6861 14.3618 26.6471L14.5176 26.3355C15.6083 26.764 16.738 26.9588 17.9066 26.9588C18.6077 26.9588 19.3089 26.8809 20.01 26.7251C20.4385 26.6471 20.867 26.4913 21.2566 26.3745L21.4124 26.6471C21.4513 26.6471 21.4513 26.6471 21.4513 26.6861C21.5682 26.7251 21.685 26.803 21.7629 26.9198C21.9577 27.3093 22.1135 27.6989 22.2693 28.0884V28.1274L22.3472 28.3611C22.3862 28.5169 22.4252 28.6727 22.5031 28.7896C22.542 28.8285 22.542 28.8675 22.581 28.9064C22.581 28.9064 22.581 28.9454 22.6199 28.9454C22.7757 29.2181 23.0484 29.4128 23.36 29.4128C23.4769 29.4128 23.5548 29.3739 23.6717 29.3349C23.8275 29.257 23.9833 29.1012 24.0222 28.9064C24.0612 28.7117 24.0612 28.4779 23.9833 28.2832C23.9833 28.2442 23.9443 28.2442 23.9443 28.2442C23.9443 28.2053 23.9054 28.1663 23.8664 28.1274C23.7885 27.9716 23.7106 27.8547 23.5938 27.7378C23.5548 27.6599 23.5158 27.621 23.4379 27.5431V27.5041C23.1653 27.1535 22.9705 26.764 22.8147 26.3745C22.7757 26.2576 22.7757 26.1018 22.8536 25.9849C22.8536 25.946 22.8926 25.946 22.8926 25.946L22.7757 25.6344C24.8013 24.4268 26.2815 22.5571 27.0216 20.3367L27.3333 20.3757C27.3722 20.3757 27.3722 20.3367 27.3722 20.3367C27.4501 20.2588 27.567 20.2199 27.6838 20.2199H27.7228C28.1513 20.2978 28.5798 20.4146 28.9693 20.5704H29.0083C29.0862 20.6094 29.1641 20.6483 29.242 20.6483C29.3978 20.7262 29.5146 20.7652 29.6705 20.8042C29.7094 20.8042 29.7484 20.8431 29.8263 20.8431C29.8652 20.8431 29.8652 20.8431 29.9042 20.8821C29.9821 20.921 30.021 20.921 30.0989 20.921C30.4495 20.921 30.7612 20.6873 30.878 20.3757C30.7612 19.9861 30.4885 19.6745 30.0989 19.5966ZM18.8804 18.3891L17.8287 18.8954L16.7769 18.3891L16.4653 17.2594L17.2054 16.3245H18.413L19.1531 17.2594L18.8804 18.3891ZM25.2298 15.8571C25.4246 16.6751 25.4635 17.4931 25.3856 18.3111L21.685 17.2594C21.3345 17.1815 21.1397 16.8309 21.2176 16.4803C21.2566 16.3635 21.2955 16.2856 21.3734 16.2077L24.2949 13.5589C24.7234 14.26 25.035 15.0391 25.2298 15.8571ZM23.1263 12.1176L19.9711 14.3769C19.6984 14.5327 19.3089 14.4937 19.1141 14.2211C19.0362 14.1432 18.9973 14.0652 18.9973 13.9484L18.7635 10.0141C20.3996 10.2089 21.9577 10.949 23.1263 12.1176ZM16.0758 10.131L16.8548 9.97515L16.6211 13.8705C16.6211 14.2211 16.3095 14.4937 15.9589 14.4937C15.8421 14.4937 15.7641 14.4548 15.6473 14.4158L12.4921 12.1176C13.4659 11.1437 14.7124 10.4426 16.0758 10.131ZM11.3235 13.5589L14.206 16.1298C14.4787 16.3635 14.5176 16.753 14.2839 17.0257C14.206 17.1426 14.1281 17.1815 13.9723 17.2205L10.2328 18.3111C10.077 16.6751 10.4665 15.0001 11.3235 13.5589ZM10.6613 20.142L14.5176 19.4797C14.8293 19.4797 15.1409 19.6745 15.1798 19.9861C15.2188 20.103 15.2188 20.2588 15.1409 20.3757L13.6607 23.9594C12.2973 23.0634 11.2066 21.7001 10.6613 20.142ZM19.5037 24.9722C18.9583 25.089 18.374 25.1669 17.7897 25.1669C16.9717 25.1669 16.1147 25.0111 15.3357 24.7774L17.2444 21.3105C17.4391 21.0768 17.7508 20.9989 18.0234 21.1547C18.1403 21.2326 18.2182 21.3105 18.3351 21.4274L20.2048 24.8163C20.01 24.8553 19.7763 24.8942 19.5037 24.9722ZM24.256 21.5832C23.6717 22.5181 22.8536 23.3361 21.9188 23.9204L20.3996 20.2978C20.3217 19.9861 20.4385 19.6745 20.7502 19.5187C20.867 19.4797 20.9839 19.4408 21.1007 19.4408L24.9961 20.103C24.8013 20.6483 24.5676 21.1547 24.256 21.5832Z" fill="white"/>
<path d="M49.8516 17.9212C50.2801 17.4538 50.6696 16.9863 51.1371 16.5189C51.5655 16.0125 51.994 15.5451 52.4225 15.0776C52.851 14.5712 53.2405 14.1427 53.5911 13.7143C53.9417 13.2858 54.2923 12.8962 54.5649 12.5846H59.551C58.5382 13.7143 57.5643 14.8439 56.6295 15.8956C55.6556 16.9474 54.6428 18.0381 53.5132 19.1288C54.1365 19.7131 54.7208 20.2974 55.2661 20.9596C55.8504 21.6607 56.4347 22.3619 57.019 23.1409C57.5643 23.8811 58.1097 24.6601 58.5771 25.4002C59.0446 26.1403 59.4341 26.8415 59.7457 27.4648H54.9545C54.6428 26.9584 54.2923 26.452 53.9027 25.8677C53.5132 25.2834 53.0847 24.6991 52.6952 24.0758C52.2667 23.4915 51.7993 22.9072 51.2929 22.3619C50.8644 21.8555 50.3969 21.388 49.8905 20.9985V27.5037H45.6836V6.15732L49.8905 5.49512V17.9212" fill="#326DE5"/>
<path d="M74.3547 26.8807C73.4588 27.1144 72.5239 27.3092 71.589 27.426C70.4204 27.6208 69.2129 27.6987 68.0443 27.6987C66.9536 27.7377 65.9018 27.5429 64.889 27.1923C64.11 26.8807 63.4478 26.4133 62.9024 25.79C62.396 25.1278 62.0455 24.3877 61.8507 23.5697C61.617 22.6737 61.5391 21.6999 61.5391 20.765V12.5459H65.746V20.2976C65.746 21.661 65.9408 22.6348 66.2914 23.2191C66.6419 23.8034 67.3041 24.115 68.278 24.154C68.5896 24.154 68.9012 24.154 69.2518 24.115C69.6024 24.0761 69.8751 24.0761 70.1477 23.9982V12.5459H74.3547V26.8807Z" fill="#326DE5"/>
<path d="M87.8328 19.8689C87.8328 17.1421 86.82 15.8177 84.8334 15.8177C84.4049 15.8177 83.9765 15.8567 83.548 15.9735C83.1974 16.0514 82.8468 16.2073 82.5352 16.402V24.0369C82.73 24.0758 83.0026 24.1148 83.3143 24.1537C83.6259 24.1927 83.9765 24.1927 84.366 24.1927C85.3788 24.2706 86.3526 23.8421 86.9759 23.0241C87.5602 22.0892 87.8718 20.9985 87.8328 19.8689ZM92.1177 20.0247C92.1177 21.1154 91.9619 22.2061 91.5723 23.2578C91.2607 24.1927 90.7543 25.0107 90.0921 25.7119C89.391 26.413 88.5729 26.9584 87.677 27.3089C86.6253 27.6985 85.5346 27.8543 84.4049 27.8543C83.8986 27.8543 83.3532 27.8153 82.8079 27.7764C82.2625 27.7374 81.7172 27.6595 81.1718 27.6206C80.6654 27.5427 80.159 27.4648 79.6526 27.3479C79.1463 27.27 78.7178 27.1142 78.3672 26.9584V6.15732L82.5741 5.49512V12.8962C83.0416 12.7015 83.548 12.5457 84.0544 12.4288C84.5997 12.3119 85.1451 12.273 85.6904 12.273C86.6642 12.273 87.5991 12.4288 88.495 12.8573C89.2741 13.2079 89.9753 13.7532 90.5206 14.4154C91.1049 15.1555 91.5334 15.9735 91.7671 16.8695C92.0008 17.8433 92.1566 18.934 92.1177 20.0247Z" fill="#326DE5"/>
<path d="M94.6487 20.1028C94.6098 18.9342 94.8435 17.7656 95.233 16.6749C95.5836 15.7401 96.129 14.922 96.8301 14.1819C97.4923 13.5197 98.2325 13.0133 99.0894 12.7017C99.9464 12.3511 100.842 12.1953 101.738 12.1953C103.842 12.1953 105.517 12.8575 106.724 14.143C107.932 15.4284 108.555 17.3371 108.555 19.8302C108.555 20.0639 108.555 20.3365 108.516 20.6482C108.477 20.9598 108.477 21.1935 108.477 21.4272H98.9336C99.0115 22.2453 99.44 22.9854 100.141 23.4528C100.998 23.9981 102.011 24.2708 103.024 24.2319C103.764 24.2319 104.543 24.154 105.283 24.0371C105.906 23.9202 106.529 23.7255 107.114 23.4918L107.698 26.9196C107.425 27.0755 107.114 27.1534 106.802 27.2702C106.374 27.3871 105.945 27.5039 105.517 27.5429C105.049 27.6208 104.582 27.6987 104.036 27.7766C103.53 27.8156 102.985 27.8545 102.439 27.8545C101.232 27.8935 100.063 27.6987 98.9336 27.2702C97.9987 26.9196 97.1807 26.3743 96.4796 25.6731C95.8173 24.972 95.3499 24.115 95.0383 23.2191C94.8046 22.1673 94.6487 21.1156 94.6487 20.1028ZM104.504 18.5057C104.504 18.1552 104.426 17.8046 104.309 17.454C104.231 17.1034 104.036 16.8308 103.842 16.5581C103.608 16.2854 103.335 16.0517 103.024 15.8959C102.634 15.7011 102.245 15.6232 101.816 15.6232C101.388 15.6232 100.998 15.7011 100.609 15.8959C100.297 16.0517 99.9853 16.2465 99.7516 16.5191C99.5179 16.7918 99.3231 17.1034 99.2063 17.454C99.0894 17.8046 99.0115 18.1552 98.9726 18.5057H104.504Z" fill="#326DE5"/>
<path d="M120.787 16.285C120.398 16.2071 119.969 16.0902 119.463 16.0123C118.918 15.8955 118.372 15.8565 117.827 15.8565C117.515 15.8565 117.204 15.8955 116.853 15.9344C116.58 15.9734 116.308 16.0123 116.035 16.0902V27.4256H111.828V13.3246C112.685 13.0129 113.581 12.7792 114.477 12.5844C115.607 12.3118 116.775 12.1949 117.905 12.2339C118.178 12.2339 118.45 12.2728 118.723 12.2728C119.034 12.2728 119.346 12.3118 119.697 12.3897C120.008 12.4286 120.32 12.4676 120.671 12.5455C120.943 12.5844 121.216 12.6624 121.489 12.7792L120.787 16.285Z" fill="#326DE5"/>
<path d="M123.746 13.0523C124.642 12.8186 125.577 12.6238 126.512 12.468C127.68 12.2733 128.888 12.1953 130.056 12.1953C131.108 12.1564 132.16 12.3512 133.173 12.7017C133.952 12.9744 134.653 13.4418 135.159 14.0651C135.666 14.6884 136.016 15.4285 136.211 16.2075C136.445 17.1035 136.523 18.0383 136.523 18.9732V27.3482H132.316V19.5186C132.316 18.1552 132.121 17.2203 131.77 16.636C131.42 16.0907 130.758 15.779 129.784 15.779C129.472 15.779 129.16 15.779 128.81 15.818C128.459 15.818 128.187 15.857 127.914 15.8959V27.3482H123.707L123.746 13.0523Z" fill="#326DE5"/>
<path d="M139.717 20.1028C139.678 18.9342 139.912 17.7656 140.301 16.6749C140.652 15.7401 141.197 14.922 141.898 14.1819C142.56 13.5197 143.301 13.0133 144.158 12.7017C145.014 12.3511 145.91 12.1953 146.806 12.1953C148.91 12.1953 150.585 12.8575 151.792 14.143C153 15.4284 153.623 17.3371 153.623 19.8302C153.623 20.0639 153.623 20.3365 153.584 20.6482C153.584 20.9598 153.545 21.1935 153.545 21.4272H144.002C144.08 22.2453 144.508 22.9854 145.209 23.4528C146.066 23.9981 147.079 24.2708 148.092 24.2319C148.832 24.2319 149.611 24.154 150.351 24.0371C150.974 23.9202 151.598 23.7255 152.182 23.4918L152.766 26.9196C152.494 27.0755 152.182 27.1534 151.87 27.2702C151.442 27.3871 151.013 27.5039 150.585 27.5429C150.117 27.6208 149.65 27.6987 149.105 27.7766C148.598 27.8156 148.053 27.8545 147.508 27.8545C146.3 27.8935 145.131 27.6987 144.002 27.2702C143.067 26.9196 142.249 26.3743 141.548 25.6731C140.885 24.972 140.418 24.115 140.106 23.2191C139.834 22.1673 139.678 21.1156 139.717 20.1028ZM149.572 18.5057C149.572 18.1552 149.494 17.8046 149.377 17.454C149.299 17.1034 149.144 16.7918 148.91 16.5191C148.676 16.2465 148.403 16.0127 148.092 15.8569C147.702 15.6622 147.313 15.5842 146.884 15.5842C146.456 15.5842 146.066 15.6622 145.677 15.8569C145.365 16.0127 145.053 16.2075 144.82 16.4802C144.586 16.7528 144.391 17.0645 144.274 17.415C144.158 17.7656 144.08 18.1162 144.041 18.4668L149.572 18.5057Z" fill="#326DE5"/>
<path d="M156.74 8.84482L160.947 8.18262V12.5454H166.011V16.0512H160.947V21.2709C160.908 22.011 161.064 22.7511 161.415 23.3744C161.726 23.8808 162.349 24.1535 163.323 24.1535C163.791 24.1535 164.258 24.1145 164.687 24.0366C165.154 23.9587 165.583 23.8418 166.011 23.686L166.595 26.9581C166.05 27.1918 165.466 27.3476 164.881 27.5034C164.141 27.6592 163.362 27.7372 162.583 27.7372C161.609 27.7761 160.636 27.6203 159.74 27.2697C159.038 26.997 158.415 26.5296 157.948 25.9843C157.48 25.4 157.169 24.6988 156.974 23.9587C156.779 23.1017 156.701 22.2058 156.74 21.3488V8.84482Z" fill="#326DE5"/>
<path d="M168.153 20.1028C168.114 18.9342 168.347 17.7656 168.737 16.6749C169.088 15.7401 169.633 14.922 170.334 14.1819C170.996 13.5197 171.736 13.0133 172.593 12.7017C173.45 12.3511 174.346 12.1953 175.242 12.1953C177.346 12.1953 179.021 12.8575 180.228 14.143C181.436 15.4284 182.059 17.3371 182.059 19.8302C182.059 20.0639 182.059 20.3365 182.02 20.6482C182.02 20.9598 181.981 21.1935 181.981 21.4272H172.438C172.515 22.2453 172.983 22.9854 173.645 23.4528C174.502 23.9981 175.515 24.2708 176.528 24.2319C177.268 24.2319 178.047 24.154 178.787 24.0371C179.41 23.9202 180.033 23.7255 180.618 23.4918L181.202 26.9196C180.929 27.0755 180.618 27.1534 180.306 27.2702C179.878 27.3871 179.449 27.5039 179.021 27.5429C178.553 27.6208 178.086 27.6987 177.54 27.7766C177.034 27.8156 176.489 27.8545 175.943 27.8545C174.736 27.8935 173.567 27.6987 172.438 27.2702C171.503 26.9196 170.685 26.3743 169.983 25.6731C169.321 24.972 168.854 24.115 168.542 23.2191C168.308 22.1673 168.153 21.1156 168.153 20.1028ZM178.047 18.5057C178.047 18.1552 177.969 17.8046 177.852 17.454C177.774 17.1034 177.579 16.7918 177.385 16.5191C177.151 16.2465 176.878 16.0127 176.567 15.8569C176.177 15.6622 175.787 15.5842 175.359 15.5842C174.931 15.5842 174.541 15.6622 174.151 15.8569C173.84 16.0127 173.528 16.2075 173.294 16.4802C173.061 16.7528 172.866 17.0645 172.749 17.415C172.632 17.7656 172.554 18.1162 172.515 18.4668L178.047 18.5057Z" fill="#326DE5"/>
<path d="M189.614 24.3877C190.16 24.4266 190.744 24.3487 191.251 24.154C191.562 23.9981 191.757 23.6476 191.718 23.297C191.679 22.9075 191.445 22.5569 191.095 22.44C190.51 22.0894 189.848 21.7778 189.186 21.583C188.524 21.3493 187.939 21.0767 187.394 20.804C186.888 20.5703 186.459 20.2586 186.031 19.8691C185.641 19.4796 185.369 19.0511 185.174 18.5447C184.94 17.9604 184.862 17.3371 184.862 16.7139C184.823 15.4284 185.408 14.1819 186.42 13.4029C187.472 12.5848 188.874 12.1953 190.666 12.1953C191.523 12.1953 192.419 12.2732 193.276 12.429C193.938 12.5459 194.601 12.7017 195.263 12.9354L194.523 16.2075C193.977 16.0127 193.471 15.8959 192.926 15.7401C192.302 15.6232 191.64 15.5453 191.017 15.5842C189.692 15.5842 189.03 15.9348 189.03 16.6749C189.03 16.8307 189.069 16.9866 189.108 17.1424C189.186 17.2982 189.303 17.415 189.459 17.5319C189.614 17.6488 189.848 17.7656 190.121 17.9214C190.394 18.0773 190.783 18.2331 191.251 18.3889C192.03 18.6616 192.809 19.0121 193.549 19.4017C194.094 19.6743 194.562 20.0249 194.951 20.4924C195.302 20.8429 195.535 21.3104 195.691 21.7778C195.847 22.3232 195.925 22.8685 195.925 23.4138C196.003 24.7383 195.38 26.0237 194.25 26.7638C193.159 27.5039 191.601 27.8935 189.576 27.8935C188.446 27.9324 187.355 27.8156 186.265 27.5429C185.641 27.3871 185.057 27.1923 184.473 26.9975L185.174 23.5697C185.875 23.8423 186.615 24.0761 187.355 24.2319C188.056 24.3098 188.796 24.3877 189.614 24.3877Z" fill="#326DE5"/>
</g>
<defs>
<clipPath id="clip0_915_70900">
<rect width="195" height="32.9155" fill="white" transform="translate(0.886719 0.0419922)"/>
</clipPath>
</defs>
</svg>
