<svg width="196" height="47" viewBox="0 0 196 47" fill="none" xmlns="http://www.w3.org/2000/svg">
<g clip-path="url(#clip0_915_71185)">
<path d="M59.7028 24.5501H65.599V27.3958H56.1133V9.50098H59.7028V24.5501Z" fill="#1B183E"/>
<path d="M74.1886 27.6265C72.8215 27.6265 71.5905 27.3274 70.4969 26.7292C69.4029 26.1138 68.5398 25.2508 67.9075 24.1398C67.2923 23.0288 66.9844 21.747 66.9844 20.2942C66.9844 18.8414 67.301 17.5596 67.9332 16.4486C68.5829 15.3376 69.4629 14.4831 70.5739 13.8849C71.6849 13.2696 72.9237 12.9619 74.2912 12.9619C75.6583 12.9619 76.8976 13.2696 78.0085 13.8849C79.1195 14.4831 79.9914 15.3376 80.6236 16.4486C81.2733 17.5596 81.5976 18.8414 81.5976 20.2942C81.5976 21.747 81.2645 23.0288 80.5979 24.1398C79.9483 25.2508 79.0595 26.1138 77.9316 26.7292C76.8206 27.3274 75.5731 27.6265 74.1886 27.6265ZM74.1886 24.4987C74.8383 24.4987 75.4448 24.3449 76.0088 24.0372C76.5902 23.7125 77.0515 23.234 77.3933 22.6015C77.735 21.9692 77.9059 21.2 77.9059 20.2942C77.9059 18.944 77.5472 17.9099 76.8293 17.1921C76.1283 16.4571 75.2652 16.0897 74.2399 16.0897C73.2146 16.0897 72.3515 16.4571 71.6505 17.1921C70.967 17.9099 70.6252 18.944 70.6252 20.2942C70.6252 21.6444 70.9583 22.687 71.6249 23.422C72.3084 24.1398 73.1633 24.4987 74.1886 24.4987Z" fill="#1B183E"/>
<path d="M83.3086 20.2942C83.3086 18.8243 83.6073 17.5425 84.2056 16.4486C84.8039 15.3376 85.6327 14.4831 86.6924 13.8849C87.752 13.2696 88.9656 12.9619 90.3332 12.9619C92.0933 12.9619 93.5461 13.4063 94.6915 14.295C95.8538 15.1667 96.6312 16.3974 97.0243 17.9869H93.153C92.9477 17.3715 92.5978 16.893 92.1021 16.5511C91.6233 16.1922 91.0249 16.0128 90.3076 16.0128C89.2817 16.0128 88.4699 16.3888 87.8716 17.1408C87.2738 17.8758 86.9746 18.9269 86.9746 20.2942C86.9746 21.6444 87.2738 22.6955 87.8716 23.4476C88.4699 24.1825 89.2817 24.55 90.3076 24.55C91.7603 24.55 92.7086 23.9005 93.153 22.6015H97.0243C96.6312 24.1398 95.8538 25.3618 94.6915 26.2677C93.5292 27.1735 92.0764 27.6265 90.3332 27.6265C88.9656 27.6265 87.752 27.3274 86.6924 26.7292C85.6327 26.1138 84.8039 25.2593 84.2056 24.1654C83.6073 23.0545 83.3086 21.7641 83.3086 20.2942Z" fill="#1B183E"/>
<path d="M98.7305 20.2429C98.7305 18.8072 99.0122 17.5339 99.5762 16.423C100.158 15.312 100.935 14.4575 101.909 13.8592C102.9 13.261 104.003 12.9619 105.216 12.9619C106.276 12.9619 107.199 13.1756 107.985 13.6028C108.788 14.0302 109.429 14.5685 109.908 15.218V13.1927H113.523V27.3957H109.908V25.3191C109.447 25.9857 108.806 26.5412 107.985 26.9855C107.182 27.4128 106.25 27.6265 105.191 27.6265C103.994 27.6265 102.9 27.3188 101.909 26.7035C100.935 26.0882 100.158 25.2251 99.5762 24.1142C99.0122 22.9861 98.7305 21.6957 98.7305 20.2429ZM109.908 20.2942C109.908 19.4225 109.737 18.6791 109.395 18.0637C109.054 17.4314 108.592 16.9528 108.011 16.6281C107.43 16.2863 106.806 16.1153 106.139 16.1153C105.473 16.1153 104.858 16.2777 104.294 16.6024C103.73 16.9272 103.268 17.4057 102.909 18.0381C102.567 18.6534 102.396 19.3883 102.396 20.2429C102.396 21.0975 102.567 21.8495 102.909 22.499C103.268 23.1314 103.73 23.6185 104.294 23.9603C104.875 24.3021 105.49 24.4731 106.139 24.4731C106.806 24.4731 107.43 24.3107 108.011 23.986C108.592 23.6441 109.054 23.1656 109.395 22.5503C109.737 21.9179 109.908 21.1659 109.908 20.2942Z" fill="#1B183E"/>
<path d="M120.616 8.42383V27.3954H117.027V8.42383H120.616Z" fill="#1B183E"/>
<path d="M130.339 27.5748C129.091 27.5748 127.964 27.3611 126.955 26.9339C125.964 26.5066 125.178 25.8912 124.597 25.0879C124.015 24.2846 123.717 23.3361 123.699 22.2422H127.545C127.596 22.9772 127.853 23.5583 128.314 23.9856C128.793 24.4128 129.442 24.6265 130.263 24.6265C131.1 24.6265 131.758 24.4299 132.237 24.0368C132.715 23.6266 132.955 23.0968 132.955 22.4473C132.955 21.9175 132.792 21.4817 132.467 21.1398C132.143 20.798 131.732 20.533 131.236 20.3451C130.758 20.14 130.092 19.9178 129.237 19.6785C128.075 19.3367 127.126 19.0034 126.391 18.6787C125.673 18.3368 125.049 17.8326 124.52 17.166C124.007 16.4824 123.751 15.5765 123.751 14.4485C123.751 13.3888 124.015 12.4658 124.545 11.6796C125.075 10.8934 125.819 10.2952 126.776 9.88502C127.733 9.45777 128.827 9.24414 130.057 9.24414C131.903 9.24414 133.399 9.69705 134.544 10.6029C135.706 11.4917 136.347 12.7393 136.467 14.346H132.518C132.484 13.7306 132.22 13.2265 131.724 12.8333C131.245 12.4232 130.604 12.218 129.801 12.218C129.1 12.218 128.536 12.3975 128.109 12.7564C127.699 13.1154 127.494 13.6366 127.494 14.3203C127.494 14.7989 127.647 15.2005 127.955 15.5252C128.28 15.8329 128.673 16.0893 129.135 16.2944C129.613 16.4824 130.279 16.7046 131.134 16.961C132.296 17.3028 133.245 17.6446 133.98 17.9865C134.715 18.3283 135.347 18.841 135.877 19.5247C136.407 20.2083 136.672 21.1056 136.672 22.2166C136.672 23.1737 136.424 24.0624 135.928 24.8829C135.433 25.7033 134.706 26.3613 133.749 26.857C132.792 27.3355 131.655 27.5748 130.339 27.5748Z" fill="#1B183E"/>
<path d="M143.963 16.1403V23.0111C143.963 23.4896 144.074 23.84 144.296 24.0622C144.535 24.2673 144.929 24.3699 145.476 24.3699H147.142V27.395H144.886C141.861 27.395 140.348 25.9252 140.348 22.9854V16.1403H138.656V13.192H140.348V9.67969H143.963V13.192H147.142V16.1403H143.963Z" fill="#1B183E"/>
<path d="M148.801 20.2429C148.801 18.8072 149.083 17.5339 149.647 16.423C150.228 15.312 151.006 14.4575 151.98 13.8592C152.971 13.261 154.073 12.9619 155.287 12.9619C156.347 12.9619 157.27 13.1756 158.056 13.6028C158.859 14.0302 159.5 14.5685 159.979 15.218V13.1927H163.594V27.3957H159.979V25.3191C159.518 25.9857 158.877 26.5412 158.056 26.9855C157.253 27.4128 156.321 27.6265 155.261 27.6265C154.065 27.6265 152.971 27.3188 151.98 26.7035C151.006 26.0882 150.228 25.2251 149.647 24.1142C149.083 22.9861 148.801 21.6957 148.801 20.2429ZM159.979 20.2942C159.979 19.4225 159.808 18.6791 159.466 18.0637C159.124 17.4314 158.663 16.9528 158.082 16.6281C157.5 16.2863 156.877 16.1153 156.21 16.1153C155.544 16.1153 154.928 16.2777 154.364 16.6024C153.8 16.9272 153.339 17.4057 152.98 18.0381C152.638 18.6534 152.467 19.3883 152.467 20.2429C152.467 21.0975 152.638 21.8495 152.98 22.499C153.339 23.1314 153.8 23.6185 154.364 23.9603C154.945 24.3021 155.561 24.4731 156.21 24.4731C156.877 24.4731 157.5 24.3107 158.082 23.986C158.663 23.6441 159.124 23.1656 159.466 22.5503C159.808 21.9179 159.979 21.1659 159.979 20.2942Z" fill="#1B183E"/>
<path d="M166.176 20.2942C166.176 18.8243 166.475 17.5425 167.073 16.4486C167.671 15.3376 168.5 14.4831 169.56 13.8849C170.62 13.2696 171.833 12.9619 173.2 12.9619C174.961 12.9619 176.414 13.4063 177.559 14.295C178.721 15.1667 179.498 16.3974 179.891 17.9869H176.021C175.815 17.3715 175.465 16.893 174.969 16.5511C174.491 16.1922 173.893 16.0128 173.175 16.0128C172.149 16.0128 171.338 16.3888 170.739 17.1408C170.141 17.8758 169.842 18.9269 169.842 20.2942C169.842 21.6444 170.141 22.6955 170.739 23.4476C171.338 24.1825 172.149 24.55 173.175 24.55C174.627 24.55 175.576 23.9005 176.021 22.6015H179.891C179.498 24.1398 178.721 25.3618 177.559 26.2677C176.396 27.1735 174.944 27.6265 173.2 27.6265C171.833 27.6265 170.62 27.3274 169.56 26.7292C168.5 26.1138 167.671 25.2593 167.073 24.1654C166.475 23.0545 166.176 21.7641 166.176 20.2942Z" fill="#1B183E"/>
<path d="M190.933 27.3954L186.113 21.345V27.3954H182.523V8.42383H186.113V19.2171L190.881 13.1924H195.547L189.292 20.3195L195.599 27.3954H190.933Z" fill="#1B183E"/>
<path fill-rule="evenodd" clip-rule="evenodd" d="M39.7507 32.4149C40.2651 32.4149 40.5226 33.0368 40.1589 33.4005L27.6494 45.909C27.2858 46.2727 26.6639 46.0151 26.6639 45.5008V32.9922C26.6639 32.6734 26.9223 32.4149 27.2412 32.4149H39.7507ZM1.17613 20.6282C0.661795 20.6282 0.404214 20.0063 0.76791 19.6427L13.2774 7.13411C13.6411 6.77044 14.2629 7.02799 14.2629 7.54228V20.0509C14.2629 20.3697 14.0045 20.6282 13.6856 20.6282H1.17613Z" fill="url(#paint0_linear_915_71185)"/>
<path d="M28.4093 18.5748H45.1668C45.4856 18.5748 45.7441 18.3164 45.7441 17.9976V1.24135C45.7441 0.922522 45.4856 0.664064 45.1668 0.664064L28.4093 0.664063C28.0905 0.664062 27.832 0.922521 27.832 1.24134V17.9976C27.832 18.3164 28.0905 18.5748 28.4093 18.5748Z" fill="url(#paint1_linear_915_71185)"/>
<path d="M40.8187 29.5281H17.7257C17.4069 29.5281 17.1484 29.2696 17.1484 28.9508V5.85949C17.1484 5.54068 17.4069 5.28223 17.7257 5.28223H24.365C24.6838 5.28223 24.9423 5.54068 24.9423 5.85949V20.8688C24.9423 21.1877 25.2008 21.4462 25.5196 21.4462H40.8187C41.1375 21.4462 41.396 21.7046 41.396 22.0234V28.9508C41.396 29.2696 41.1375 29.5281 40.8187 29.5281Z" fill="url(#paint2_linear_915_71185)"/>
</g>
<defs>
<linearGradient id="paint0_linear_915_71185" x1="40.3692" y1="6.84515" x2="7.75702" y2="39.1349" gradientUnits="userSpaceOnUse">
<stop stop-color="#4D29B4"/>
<stop offset="1" stop-color="#836FFF"/>
</linearGradient>
<linearGradient id="paint1_linear_915_71185" x1="26.2629" y1="19.4749" x2="48.8346" y2="-2.6965" gradientUnits="userSpaceOnUse">
<stop stop-color="#70FFE5"/>
<stop offset="1" stop-color="#6295E1"/>
</linearGradient>
<linearGradient id="paint2_linear_915_71185" x1="38.4869" y1="10.6069" x2="17.259" y2="30.7629" gradientUnits="userSpaceOnUse">
<stop offset="0.00747511" stop-color="#654FEC"/>
<stop offset="1" stop-color="#71B2FF"/>
</linearGradient>
<clipPath id="clip0_915_71185">
<rect width="195" height="45.6711" fill="white" transform="translate(0.597656 0.664062)"/>
</clipPath>
</defs>
</svg>
