<svg width="159" height="41" viewBox="0 0 159 41" fill="none" xmlns="http://www.w3.org/2000/svg">
<g clip-path="url(#clip0_915_70890)">
<path d="M12.1146 4.6215C10.5626 2.78013 9.22615 0.909993 8.95313 0.521579C8.92438 0.492807 8.88126 0.492807 8.85252 0.521579C8.57949 0.909993 7.24307 2.78013 5.69108 4.6215C-7.63002 21.6109 7.78914 33.0764 7.78914 33.0764L7.91847 33.1627C8.03342 34.9321 8.32083 37.4784 8.32083 37.4784H8.89563H9.47044C9.47044 37.4784 9.75785 34.9465 9.87281 33.1627L10.0021 33.062C10.0165 33.0764 25.4357 21.6109 12.1146 4.6215ZM8.89563 32.8174C8.89563 32.8174 8.20588 32.2276 8.01906 31.9256V31.8967L8.85252 13.3968C8.85252 13.3392 8.93875 13.3392 8.93875 13.3968L9.77221 31.8967V31.9256C9.5854 32.2276 8.89563 32.8174 8.89563 32.8174Z" fill="#001E2B"/>
<path d="M37.7508 29.0422L31.3255 13.349L31.3111 13.3057H26.312V14.3605H27.1188C27.3637 14.3605 27.5942 14.4617 27.7671 14.6351C27.9399 14.8085 28.0264 15.0398 28.0264 15.2854L27.8824 31.0798C27.8824 31.571 27.479 31.9756 26.9891 31.9901L26.168 32.0045V33.0449H31.0375V32.0045L30.5331 31.9901C30.0434 31.9756 29.6399 31.571 29.6399 31.0798V16.1957L36.6416 33.0449C36.7424 33.2906 36.9729 33.4495 37.2323 33.4495C37.4916 33.4495 37.7221 33.2906 37.8229 33.0449L44.6661 16.5714L44.767 31.0798C44.767 31.5855 44.3635 31.9901 43.8593 32.0045H43.3406V33.0449H49.0457V32.0045H48.2677C47.7779 32.0045 47.3744 31.5855 47.3601 31.0942L47.3169 15.2998C47.3169 14.7941 47.7202 14.3894 48.2101 14.375L49.0457 14.3605V13.3057H44.1762L37.7508 29.0422Z" fill="#001E2B"/>
<path d="M82.5519 31.73C82.3929 31.5709 82.3063 31.3538 82.3063 31.0932V23.3343C82.3063 21.8579 81.8731 20.6998 81.0063 19.8748C80.1542 19.0496 78.9698 18.6299 77.4965 18.6299C75.4309 18.6299 73.7988 19.4695 72.6577 21.1197C72.6433 21.1486 72.6 21.1631 72.5567 21.1631C72.5132 21.1631 72.4844 21.1341 72.4844 21.0907L71.9499 19.0207H71.0544L68.7578 20.3379V21.0617H69.35C69.6244 21.0617 69.8555 21.1341 70.0145 21.2789C70.1734 21.4237 70.26 21.6408 70.26 21.9447V31.0787C70.26 31.3392 70.1734 31.5564 70.0145 31.7156C69.8555 31.8748 69.639 31.9617 69.379 31.9617H68.8011V33.0184H74.0876V31.9617H73.5099C73.2499 31.9617 73.0332 31.8748 72.8744 31.7156C72.7155 31.5564 72.6287 31.3392 72.6287 31.0787V25.028C72.6287 24.2608 72.8021 23.4936 73.12 22.7408C73.4521 22.0027 73.9431 21.3802 74.5932 20.9025C75.2431 20.4248 76.0231 20.1932 76.9187 20.1932C77.9298 20.1932 78.6954 20.5116 79.1719 21.1486C79.6486 21.7856 79.8942 22.6106 79.8942 23.5949V31.0643C79.8942 31.3247 79.8074 31.5418 79.6486 31.7011C79.4897 31.8604 79.2731 31.9471 79.0131 31.9471H78.4354V33.0038H83.7218V31.9471H83.1441C82.9274 31.9762 82.7251 31.8893 82.5519 31.73Z" fill="#001E2B"/>
<path d="M130.85 14.4872C129.389 13.7091 127.756 13.3057 125.994 13.3057H119.117V14.3575H119.791C120.048 14.3575 120.278 14.4584 120.507 14.689C120.722 14.9051 120.836 15.1501 120.836 15.4094V30.9142C120.836 31.1734 120.722 31.4185 120.507 31.6346C120.292 31.8507 120.048 31.966 119.791 31.966H119.117V33.0179H125.994C127.756 33.0179 129.389 32.6144 130.85 31.8363C132.312 31.0582 133.501 29.9054 134.36 28.4357C135.22 26.966 135.664 25.1936 135.664 23.1762C135.664 21.1589 135.22 19.4009 134.36 17.9167C133.486 16.4182 132.312 15.2798 130.85 14.4872ZM132.899 23.1474C132.899 24.9919 132.57 26.548 131.925 27.8016C131.28 29.0553 130.42 29.9919 129.36 30.5972C128.3 31.2024 127.126 31.5049 125.865 31.5049H124.475C124.217 31.5049 123.988 31.4041 123.759 31.1734C123.544 30.9573 123.429 30.7124 123.429 30.453V15.8274C123.429 15.568 123.53 15.3375 123.759 15.1068C123.974 14.8907 124.217 14.7754 124.475 14.7754H125.865C127.126 14.7754 128.3 15.078 129.36 15.6832C130.42 16.2884 131.28 17.2251 131.925 18.4786C132.57 19.7467 132.899 21.3173 132.899 23.1474Z" fill="#001E2B"/>
<path d="M151.919 24.1993C151.283 23.4644 150.056 22.8448 148.613 22.5133C150.606 21.519 151.63 20.1213 151.63 18.3202C151.63 17.3403 151.371 16.4613 150.85 15.712C150.331 14.9628 149.594 14.3575 148.656 13.9397C147.716 13.5218 146.619 13.3057 145.377 13.3057H137.593V14.3575H138.214C138.474 14.3575 138.705 14.4584 138.936 14.689C139.153 14.9051 139.268 15.1501 139.268 15.4094V30.9142C139.268 31.1734 139.153 31.4185 138.936 31.6346C138.719 31.8507 138.474 31.966 138.214 31.966H137.535V33.0179H145.984C147.269 33.0179 148.468 32.8018 149.551 32.3694C150.634 31.9372 151.501 31.3032 152.122 30.4674C152.757 29.6317 153.075 28.6085 153.075 27.427C153.06 26.1589 152.685 25.0782 151.919 24.1993ZM142.229 31.1878C142.012 30.9717 141.897 30.7268 141.897 30.4674V23.5075H145.912C147.327 23.5075 148.41 23.8678 149.161 24.5883C149.912 25.3088 150.288 26.2454 150.288 27.3982C150.288 28.0898 150.114 28.7671 149.797 29.3867C149.465 30.0208 148.973 30.5251 148.309 30.9142C147.659 31.3032 146.85 31.5049 145.912 31.5049H142.951C142.691 31.5049 142.46 31.4041 142.229 31.1878ZM141.911 22.0234V15.8418C141.911 15.5824 142.012 15.3519 142.243 15.1212C142.46 14.9051 142.705 14.7898 142.965 14.7898H144.872C146.243 14.7898 147.255 15.1357 147.891 15.7985C148.525 16.4757 148.843 17.3403 148.843 18.4067C148.843 19.5018 148.539 20.3808 147.948 21.0435C147.355 21.692 146.46 22.0234 145.276 22.0234H141.911Z" fill="#001E2B"/>
<path d="M62.4273 19.549C61.3237 18.9459 60.0912 18.6299 58.7584 18.6299C57.4256 18.6299 56.1787 18.9315 55.0895 19.549C53.9859 20.152 53.1116 21.028 52.4667 22.1338C51.8218 23.2395 51.4922 24.532 51.4922 25.968C51.4922 27.404 51.8218 28.6965 52.4667 29.8023C53.1116 30.908 53.9859 31.784 55.0895 32.3871C56.1931 32.9902 57.4256 33.3061 58.7584 33.3061C60.0912 33.3061 61.3381 33.0046 62.4273 32.3871C63.5309 31.784 64.4051 30.908 65.05 29.8023C65.6949 28.6965 66.0246 27.404 66.0246 25.968C66.0246 24.532 65.6949 23.2395 65.05 22.1338C64.4051 21.028 63.5309 20.152 62.4273 19.549ZM63.4879 25.968C63.4879 27.7343 63.0579 29.1703 62.1979 30.2043C61.3525 31.2382 60.1916 31.7696 58.7584 31.7696C57.3253 31.7696 56.1643 31.2382 55.3188 30.2043C54.4588 29.1703 54.0289 27.7343 54.0289 25.968C54.0289 24.2017 54.4588 22.7657 55.3188 21.7318C56.1643 20.6978 57.3253 20.1664 58.7584 20.1664C60.1916 20.1664 61.3525 20.6978 62.1979 21.7318C63.0579 22.7657 63.4879 24.2017 63.4879 25.968Z" fill="#001E2B"/>
<path d="M113.22 19.549C112.117 18.9459 110.884 18.6299 109.551 18.6299C108.219 18.6299 106.972 18.9315 105.882 19.549C104.779 20.152 103.905 21.028 103.26 22.1338C102.615 23.2395 102.285 24.532 102.285 25.968C102.285 27.404 102.615 28.6965 103.26 29.8023C103.905 30.908 104.779 31.784 105.882 32.3871C106.986 32.9902 108.219 33.3061 109.551 33.3061C110.884 33.3061 112.131 33.0046 113.22 32.3871C114.324 31.784 115.198 30.908 115.843 29.8023C116.488 28.6965 116.818 27.404 116.818 25.968C116.818 24.532 116.488 23.2395 115.843 22.1338C115.198 21.028 114.309 20.152 113.22 19.549ZM114.281 25.968C114.281 27.7343 113.851 29.1703 112.991 30.2043C112.145 31.2382 110.984 31.7696 109.551 31.7696C108.118 31.7696 106.957 31.2382 106.112 30.2043C105.252 29.1703 104.822 27.7343 104.822 25.968C104.822 24.1873 105.252 22.7657 106.112 21.7318C106.957 20.6978 108.118 20.1664 109.551 20.1664C110.984 20.1664 112.145 20.6978 112.991 21.7318C113.837 22.7657 114.281 24.2017 114.281 25.968Z" fill="#001E2B"/>
<path d="M92.7355 18.6299C91.5807 18.6299 90.5272 18.8751 89.5745 19.3656C88.6219 19.8561 87.8713 20.5198 87.3372 21.3709C86.8033 22.2076 86.529 23.1454 86.529 24.1408C86.529 25.0352 86.7311 25.8575 87.1496 26.5933C87.5538 27.3002 88.1023 27.8916 88.7951 28.3821L86.7311 31.181C86.4712 31.5271 86.4424 31.9887 86.63 32.3638C86.8321 32.7533 87.2073 32.9843 87.6404 32.9843H88.2322C87.6548 33.3738 87.1929 33.8354 86.8754 34.3836C86.5001 35.0038 86.3125 35.653 86.3125 36.3166C86.3125 37.5574 86.861 38.5817 87.9434 39.3463C89.0116 40.1109 90.5126 40.5004 92.4034 40.5004C93.717 40.5004 94.9726 40.284 96.1129 39.8656C97.2676 39.4473 98.2057 38.8269 98.8985 38.0191C99.6059 37.2112 99.9667 36.2302 99.9667 35.1048C99.9667 33.922 99.5336 33.0851 98.5233 32.2774C97.6574 31.5992 96.3006 31.2387 94.6118 31.2387H88.8384C88.824 31.2387 88.8095 31.2241 88.8095 31.2241C88.8095 31.2241 88.7951 31.1953 88.8095 31.181L90.3106 29.1612C90.7148 29.3487 91.09 29.4641 91.422 29.5362C91.7683 29.6084 92.1581 29.6372 92.5911 29.6372C93.8036 29.6372 94.9006 29.392 95.8531 28.9015C96.8057 28.411 97.5708 27.7474 98.1193 26.8962C98.6676 26.0595 98.9418 25.1218 98.9418 24.1264C98.9418 23.0588 98.4223 21.1112 97.0077 20.1158C97.0077 20.1014 97.0223 20.1014 97.0223 20.1014L100.125 20.4476V19.0194H95.1603C94.3808 18.7742 93.5726 18.6299 92.7355 18.6299ZM94.4675 27.6608C93.919 27.9493 93.3272 28.108 92.7355 28.108C91.7685 28.108 90.9168 27.7618 90.1951 27.0838C89.4735 26.4057 89.1126 25.4103 89.1126 24.1408C89.1126 22.8713 89.4735 21.8758 90.1951 21.1978C90.9168 20.5198 91.7685 20.1735 92.7355 20.1735C93.3417 20.1735 93.919 20.3178 94.4675 20.6207C95.0159 20.9093 95.4634 21.3565 95.8243 21.948C96.1706 22.5395 96.3582 23.2752 96.3582 24.1408C96.3582 25.0208 96.185 25.7565 95.8243 26.3336C95.4778 26.9251 95.0159 27.3723 94.4675 27.6608ZM90.556 32.9697H94.4675C95.55 32.9697 96.2429 33.1861 96.7047 33.6479C97.1666 34.1095 97.3975 34.7297 97.3975 35.4512C97.3975 36.5043 96.979 37.3699 96.1419 38.0191C95.3046 38.6683 94.1788 39.0001 92.7932 39.0001C91.5807 39.0001 90.5703 38.726 89.8342 38.2066C89.0981 37.6873 88.7229 36.8938 88.7229 35.884C88.7229 35.2492 88.8961 34.6577 89.2426 34.1384C89.5889 33.6189 90.0075 33.2438 90.556 32.9697Z" fill="#001E2B"/>
<path d="M156.004 32.7773C155.719 32.6215 155.504 32.3949 155.333 32.1258C155.176 31.8426 155.09 31.5452 155.09 31.2195C155.09 30.8937 155.176 30.5822 155.333 30.3131C155.49 30.0298 155.719 29.8174 156.004 29.6616C156.29 29.5059 156.604 29.4209 156.96 29.4209C157.317 29.4209 157.631 29.5059 157.917 29.6616C158.202 29.8174 158.416 30.0441 158.588 30.3131C158.745 30.5963 158.831 30.8937 158.831 31.2195C158.831 31.5452 158.745 31.8567 158.588 32.1258C158.431 32.4091 158.202 32.6215 157.917 32.7773C157.631 32.933 157.317 33.018 156.96 33.018C156.618 33.018 156.29 32.9472 156.004 32.7773ZM157.76 32.579C158.002 32.4515 158.175 32.2533 158.317 32.0267C158.445 31.7859 158.517 31.5169 158.517 31.2195C158.517 30.922 158.445 30.653 158.317 30.4123C158.188 30.1715 158.002 29.9874 157.76 29.8599C157.517 29.7324 157.26 29.6616 156.96 29.6616C156.661 29.6616 156.404 29.7324 156.16 29.8599C155.919 29.9874 155.746 30.1856 155.604 30.4123C155.475 30.653 155.404 30.922 155.404 31.2195C155.404 31.5169 155.475 31.7859 155.604 32.0267C155.733 32.2674 155.919 32.4515 156.16 32.579C156.404 32.7065 156.661 32.7773 156.96 32.7773C157.26 32.7773 157.532 32.7065 157.76 32.579ZM156.189 32.0833V31.9559L156.218 31.9418H156.304C156.332 31.9418 156.36 31.9275 156.375 31.9134C156.404 31.8851 156.404 31.871 156.404 31.8426V30.5255C156.404 30.4972 156.389 30.469 156.375 30.4547C156.346 30.4264 156.332 30.4264 156.304 30.4264H156.218L156.189 30.4123V30.2848L156.218 30.2707H156.96C157.175 30.2707 157.332 30.3131 157.46 30.4123C157.589 30.5114 157.645 30.6389 157.645 30.8088C157.645 30.9363 157.604 31.0636 157.503 31.1487C157.404 31.2478 157.288 31.3045 157.146 31.3186L157.317 31.3753L157.645 31.8992C157.674 31.9418 157.703 31.9559 157.746 31.9559H157.831L157.845 31.9701V32.0974L157.831 32.1117H157.389L157.36 32.0974L156.903 31.3327H156.789V31.8426C156.789 31.871 156.804 31.8992 156.818 31.9134C156.847 31.9418 156.861 31.9418 156.888 31.9418H156.975L157.004 31.9559V32.0833L156.975 32.0974H156.218L156.189 32.0833ZM156.917 31.1487C157.032 31.1487 157.132 31.1203 157.189 31.0495C157.245 30.9928 157.288 30.8937 157.288 30.7805C157.288 30.6671 157.26 30.5822 157.203 30.5114C157.146 30.4406 157.06 30.4123 156.96 30.4123H156.903C156.874 30.4123 156.847 30.4264 156.832 30.4406C156.804 30.4688 156.804 30.4831 156.804 30.5114V31.1487H156.917Z" fill="#001E2B"/>
</g>
<defs>
<clipPath id="clip0_915_70890">
<rect width="158.561" height="40" fill="white" transform="translate(0.269531 0.5)"/>
</clipPath>
</defs>
</svg>
