<svg width="118" height="81" viewBox="0 0 118 81" fill="none" xmlns="http://www.w3.org/2000/svg">
<g clip-path="url(#clip0_915_70961)">
<path d="M28.2464 73.3809H23.7133C23.5539 65.7091 23.112 58.4951 22.3897 51.7376H22.3498L15.4479 73.3809H11.9965L5.1364 51.7376H5.09598C4.58697 58.2273 4.26673 65.4413 4.13318 73.3809H0C0.267095 63.7251 0.93553 54.6736 2.00531 46.2244H7.6238L14.1638 66.1781H14.2039L20.784 46.2244H26.16C27.3371 56.1199 28.0323 65.1742 28.2458 73.3809" fill="#00758F"/>
<path d="M47.9086 53.3454C46.0627 63.3881 43.6278 70.6862 40.6055 75.2389C38.2506 78.747 35.6709 80.501 32.8618 80.501C32.113 80.501 31.1895 80.2748 30.0938 79.8254V77.4045C30.6291 77.4831 31.2572 77.525 31.9796 77.525C33.2901 77.525 34.3463 77.1619 35.1498 76.437C36.1121 75.5538 36.5936 74.5611 36.5936 73.461C36.5936 72.7096 36.218 71.1678 35.4702 68.8354L30.4952 53.3454H34.9485L38.5191 64.9305C39.3212 67.5608 39.6558 69.397 39.522 70.4436C41.4749 65.2136 42.8391 59.514 43.6153 53.3454H47.9085" fill="#00758F"/>
<path d="M67.7659 65.854C67.7659 68.1571 66.9219 70.0478 65.2397 71.5271C63.556 72.9999 61.2941 73.7383 58.4616 73.7383C55.8123 73.7383 53.2449 72.8885 50.7578 71.2027L51.9213 68.8699C54.0615 69.9426 55.9983 70.4783 57.7372 70.4783C59.3685 70.4783 60.6452 70.1143 61.5689 69.3952C62.4904 68.6708 63.0428 67.6606 63.0428 66.3793C63.0428 64.7668 61.9213 63.3885 59.8635 62.2323C57.9638 61.187 54.1671 59.0046 54.1671 59.0046C52.1101 57.5001 51.0787 55.8857 51.0787 53.2258C51.0787 51.026 51.8479 49.2478 53.384 47.895C54.9236 46.5394 56.9101 45.8616 59.3426 45.8616C61.8569 45.8616 64.1433 46.5344 66.2025 47.8752L65.1565 50.2058C63.3945 49.4568 61.657 49.0808 59.9439 49.0808C58.5539 49.0808 57.4827 49.4154 56.736 50.0886C55.985 50.7559 55.5208 51.6147 55.5208 52.6614C55.5208 54.2697 56.6668 55.6648 58.7825 56.8434C60.706 57.8892 64.5957 60.1138 64.5957 60.1138C66.7115 61.6156 67.7659 63.2168 67.7659 65.854Z" fill="#F29111"/>
<path fill-rule="evenodd" clip-rule="evenodd" d="M75.8724 67.9482C74.7754 66.1781 74.2258 63.3374 74.2258 59.4205C74.2258 52.5824 76.2996 49.1611 80.4452 49.1611C82.6127 49.1611 84.2034 49.9794 85.2207 51.6143C86.3164 53.3853 86.866 56.2013 86.866 60.0635C86.866 66.9564 84.7921 70.4042 80.6466 70.4042C78.4798 70.4042 76.8884 69.5868 75.8724 67.9485M92.0016 74.0358L87.0233 71.5744C87.4666 71.2099 87.8875 70.8167 88.2686 70.3615C90.3822 67.8699 91.4401 64.1823 91.4401 59.3001C91.4401 50.3159 87.9225 45.8214 80.8878 45.8214C77.4372 45.8214 74.7481 46.9606 72.8225 49.2424C70.7081 51.7369 69.6523 55.4107 69.6523 60.2652C69.6523 65.0387 70.5879 68.5406 72.4603 70.7651C74.1664 72.7757 76.7464 73.7824 80.2005 73.7824C81.4891 73.7824 82.6715 73.6234 83.7461 73.3052L90.2291 77.0879L91.9967 74.0355" fill="#F29111"/>
<path d="M108.25 73.3809H95.3711V46.2244H99.7047V70.0403H108.25V73.3808" fill="#F29111"/>
<path d="M111.343 73.3779H112.061V70.615H113.001V70.0506H110.367V70.615H111.343V73.3779ZM116.808 73.3779H117.484V70.0506H116.466L115.638 72.3186L114.736 70.0506H113.755V73.3779H114.395V70.8456H114.432L115.376 73.3779H115.864L116.808 70.8456V73.3779Z" fill="#F29111"/>
<path fill-rule="evenodd" clip-rule="evenodd" d="M113.69 37.1284C111.071 37.0627 109.043 37.3248 107.341 38.0472C106.851 38.2439 106.066 38.2439 105.999 38.8674C106.263 39.1294 106.294 39.5556 106.525 39.9181C106.916 40.5743 107.602 41.4589 108.225 41.9195C108.913 42.4447 109.6 42.9678 110.321 43.427C111.596 44.2179 113.036 44.6753 114.278 45.4631C115 45.9218 115.718 46.512 116.44 47.0055C116.799 47.2678 117.026 47.6951 117.486 47.8574V47.7581C117.255 47.4636 117.191 47.037 116.963 46.707C116.637 46.3814 116.309 46.0842 115.981 45.7575C115.031 44.4781 113.852 43.3635 112.578 42.4447C111.53 41.7209 109.238 40.7364 108.815 39.526C108.815 39.526 108.78 39.4913 108.748 39.4589C109.468 39.3923 110.321 39.1294 111.007 38.9304C112.118 38.636 113.133 38.7026 114.278 38.4081C114.803 38.2759 115.326 38.1107 115.852 37.9494V37.652C115.26 37.0627 114.836 36.274 114.215 35.7167C112.547 34.2735 110.712 32.8637 108.815 31.6806C107.799 31.0242 106.49 30.5997 105.41 30.0406C105.019 29.8434 104.365 29.7462 104.135 29.4162C103.545 28.6946 103.217 27.7443 102.792 26.8898C101.844 25.0872 100.926 23.0863 100.11 21.1802C99.5209 19.9014 99.1608 18.6227 98.4406 17.4407C95.0684 11.8616 91.4046 8.48386 85.776 5.16923C84.565 4.47938 83.1253 4.18424 81.5885 3.82319C80.769 3.78884 79.9517 3.72504 79.1336 3.69279C78.6092 3.46214 78.0848 2.83819 77.6275 2.54305C75.7613 1.36245 70.9529 -1.19643 69.5776 2.1827C68.6938 4.31674 70.8865 6.41573 71.6396 7.49888C72.1954 8.25252 72.9163 9.10712 73.3072 9.95891C73.5365 10.517 73.6022 11.1087 73.8323 11.6982C74.3553 13.1417 74.8454 14.75 75.5341 16.096C75.8928 16.7852 76.285 17.508 76.743 18.1284C77.0073 18.4916 77.4639 18.6535 77.5625 19.2459C77.1059 19.9014 77.0702 20.8857 76.8087 21.7066C75.6313 25.4146 76.0886 30.008 77.7583 32.7309C78.2806 33.5511 79.5258 35.3563 81.1948 34.6656C82.6673 34.076 82.3401 32.2057 82.7652 30.5661C82.8631 30.1695 82.7974 29.9094 82.9932 29.6473V29.7136C83.4511 30.631 83.9105 31.5147 84.3356 32.4365C85.3516 34.0427 87.1171 35.7164 88.591 36.831C89.3741 37.4239 89.9964 38.4394 90.978 38.8014V38.7023H90.9137C90.7165 38.4078 90.4229 38.2756 90.1607 38.0469C89.5719 37.456 88.9189 36.7338 88.4588 36.0779C87.0849 34.2412 85.8725 32.2057 84.795 30.106C84.2699 29.0864 83.8126 27.9719 83.3868 26.9553C83.191 26.5634 83.191 25.9711 82.8631 25.7747C82.3709 26.4958 81.6528 27.1201 81.2934 28.0033C80.6711 29.4159 80.6061 31.1546 80.3754 32.9601C80.2453 32.9944 80.311 32.9601 80.2453 33.0253C79.1993 32.763 78.8392 31.6804 78.4456 30.7646C77.4639 28.4319 77.2989 24.6915 78.1512 22.0006C78.3791 21.3129 79.3636 19.1473 78.9693 18.4911C78.7714 17.865 78.1176 17.5075 77.7583 17.0132C77.3338 16.39 76.8731 15.6041 76.5815 14.9136C75.7956 13.0768 75.4006 11.0416 74.5524 9.20478C74.1595 8.35018 73.4708 7.46404 72.9163 6.67815C72.2933 5.792 71.6067 5.16875 71.1151 4.11996C70.9529 3.75821 70.7236 3.16721 70.9844 2.77461C71.0487 2.51171 71.1816 2.41286 71.4438 2.34696C71.8668 1.98592 73.0792 2.44441 73.5036 2.64141C74.7153 3.13216 75.7299 3.59415 76.743 4.28189C77.2017 4.61069 77.6925 5.23394 78.2806 5.39939H78.9693C80.016 5.62724 81.1948 5.4632 82.1772 5.75975C83.9105 6.31709 85.4809 7.13733 86.8891 8.02348C91.1745 10.7471 94.709 14.6198 97.0967 19.2454C97.4904 19.9991 97.6554 20.6889 98.0148 21.4748C98.7021 23.0859 99.5537 24.7264 100.24 26.2998C100.926 27.8421 101.582 29.4157 102.565 30.6973C103.055 31.3852 105.019 31.7462 105.902 32.1074C106.556 32.4017 107.571 32.6646 108.161 33.0251C109.273 33.7129 110.384 34.5016 111.432 35.2575C111.955 35.6513 113.592 36.4707 113.69 37.1279" fill="#00758F"/>
<path fill-rule="evenodd" clip-rule="evenodd" d="M80.3105 8.61114C79.7554 8.61114 79.3638 8.67844 78.9688 8.7759V8.84178H79.0324C79.2967 9.36548 79.7554 9.72934 80.0798 10.1878C80.3434 10.7129 80.5727 11.2359 80.8342 11.7617C80.8664 11.7295 80.8978 11.6951 80.8978 11.6951C81.3593 11.3684 81.5879 10.844 81.5879 10.0553C81.3901 9.82396 81.3593 9.59612 81.1943 9.36547C80.9985 9.03808 80.5727 8.87404 80.3105 8.61114Z" fill="#00758F"/>
</g>
<defs>
<clipPath id="clip0_915_70961">
<rect width="117.483" height="80" fill="white" transform="translate(0 0.5)"/>
</clipPath>
</defs>
</svg>
