<svg width="122" height="41" viewBox="0 0 122 41" fill="none" xmlns="http://www.w3.org/2000/svg">
<g clip-path="url(#clip0_915_70964)">
<path d="M22.9988 8.8584C16.4101 8.8584 11.9805 12.6536 11.9805 20.1216V24.6736C12.6603 24.3783 13.3881 24.2086 14.1285 24.1728C14.8801 24.1427 15.626 24.3157 16.2876 24.6736V20.1216C16.2876 15.3136 18.9476 12.776 22.9654 12.776C26.9833 12.776 29.6432 15.3136 29.6432 20.1216V31.7632H33.9504V20.1216C33.9504 12.6536 29.4986 8.8584 22.9432 8.8584" fill="black"/>
<path d="M36.2891 20.6225C36.2891 13.7888 41.2195 8.8584 48.3091 8.8584C55.3987 8.8584 60.2067 13.8222 60.2067 20.6225V22.1472H40.8411C41.0841 23.9277 41.986 25.5524 43.3687 26.7001C44.7514 27.8479 46.5143 28.4354 48.3091 28.3464C51.2251 28.3464 53.2507 27.4672 54.5194 25.564H59.2384C57.4688 29.7376 53.4176 32.3976 48.2312 32.3976C41.264 32.3976 36.3336 27.4672 36.3336 20.6225M55.8216 18.3965C55.4274 16.7402 54.4634 15.2753 53.0981 14.258C51.7329 13.2407 50.0535 12.7358 48.3536 12.8317C46.6698 12.7391 45.0079 13.2478 43.6644 14.2671C42.321 15.2864 41.3835 16.75 41.0192 18.3965H55.8216Z" fill="black"/>
<path d="M62.5742 20.6227C62.5742 13.8225 67.5492 8.85868 74.6388 8.85868C76.2128 8.79634 77.783 9.05596 79.2532 9.62163C80.7235 10.1873 82.0627 11.0471 83.1891 12.1484C84.3154 13.2498 85.205 14.5694 85.8036 16.0265C86.4021 17.4837 86.6969 19.0477 86.6699 20.6227C86.6699 27.4675 81.7284 32.3979 74.6388 32.3979C67.5492 32.3979 62.5742 27.4675 62.5742 20.6227ZM82.1847 20.6227C82.2445 19.5942 82.086 18.5647 81.7196 17.6018C81.3532 16.6389 80.7871 15.7645 80.0586 15.036C79.3301 14.3075 78.4556 13.7414 77.4928 13.375C76.5299 13.0085 75.5003 12.85 74.4718 12.9099C73.4476 12.8692 72.426 13.0408 71.4712 13.4139C70.5164 13.787 69.6491 14.3535 68.9238 15.0778C68.1984 15.8021 67.6307 16.6686 67.2562 17.6228C66.8818 18.577 66.7087 19.5984 66.7478 20.6227C66.688 21.6527 66.8468 22.6837 67.2138 23.6479C67.5808 24.6121 68.1477 25.4878 68.8772 26.2173C69.6068 26.9469 70.4824 27.5138 71.4466 27.8808C72.4109 28.2478 73.4419 28.4065 74.4718 28.3467C79.1574 28.4803 82.1847 25.1859 82.1847 20.6227Z" fill="black"/>
<path d="M111.223 36.3264H111.735C114.517 36.3264 115.53 35.0577 115.53 31.8746V10.3721H119.837V31.6297C119.837 37.1946 117.678 39.9881 112.113 39.9881H111.223V36.3264Z" fill="black"/>
<path d="M109.076 33.9227H104.768V28.6027H93.8835C92.8821 28.6469 91.8884 28.4097 91.015 27.9179C90.1416 27.4261 89.4234 26.6995 88.942 25.8203C88.5441 25.0059 88.3923 24.0932 88.5049 23.1938C88.6176 22.2945 88.9899 21.4475 89.5763 20.7563L99.3037 7.96836C99.975 7.03041 100.932 6.33492 102.031 5.98586C103.131 5.6368 104.313 5.65291 105.403 6.0318C106.474 6.37522 107.408 7.05149 108.069 7.96225C108.729 8.873 109.082 9.97073 109.076 11.0958V24.8075H111.602V28.6027H109.076V33.9227ZM93.1267 23.1603C92.9633 23.3313 92.8717 23.5583 92.8707 23.7947C92.8707 24.0899 92.988 24.373 93.1967 24.5817C93.4054 24.7904 93.6885 24.9077 93.9837 24.9077H104.746V11.1292C104.746 10.3724 104.245 10.1164 103.989 10.1164H103.611C103.432 10.1239 103.258 10.1744 103.103 10.2635C102.948 10.3526 102.817 10.4778 102.72 10.6283L93.1267 23.1603Z" fill="black"/>
<path d="M117.677 0.466797C116.95 0.466797 116.24 0.682202 115.636 1.08577C115.032 1.48934 114.561 2.06296 114.283 2.73407C114.005 3.40518 113.933 4.14366 114.074 4.85611C114.216 5.56856 114.566 6.22299 115.08 6.73664C115.593 7.25029 116.248 7.60009 116.96 7.7418C117.673 7.88352 118.411 7.81078 119.082 7.5328C119.753 7.25481 120.327 6.78406 120.731 6.18008C121.134 5.57609 121.349 4.86599 121.349 4.13958C121.349 3.1655 120.963 2.23131 120.274 1.54253C119.585 0.85375 118.651 0.466797 117.677 0.466797Z" fill="#018BFF"/>
<path d="M13.8833 26.3212C13.0921 26.2801 12.3165 26.5519 11.7242 27.078L7.67296 24.4291C7.78195 24.1032 7.82729 23.7594 7.80652 23.4163C7.80872 22.6895 7.59519 21.9783 7.19296 21.3728C6.79073 20.7674 6.21789 20.2949 5.54697 20.0152C4.87605 19.7355 4.13723 19.6612 3.42405 19.8016C2.71087 19.9421 2.0554 20.291 1.54063 20.8042C1.02587 21.3174 0.674966 21.9718 0.532346 22.6846C0.389726 23.3973 0.461807 24.1364 0.739462 24.8081C1.01712 25.4799 1.48786 26.0542 2.09208 26.4582C2.69631 26.8623 3.40685 27.078 4.13373 27.078C4.52406 27.1005 4.91497 27.0452 5.28374 26.9153C5.6525 26.7854 5.99175 26.5834 6.28175 26.3212L10.3329 29.1036C10.2327 29.4313 10.1913 29.7742 10.2105 30.1164C10.1901 30.4586 10.2315 30.8017 10.3329 31.1292L6.28175 33.9227C5.67486 33.4282 4.91657 33.1571 4.13373 33.1548C3.40732 33.1548 2.69722 33.3702 2.09324 33.7738C1.48925 34.1773 1.0185 34.751 0.740514 35.4221C0.462529 36.0932 0.389795 36.8317 0.531511 37.5441C0.673226 38.2566 1.02303 38.911 1.53667 39.4246C2.05032 39.9383 2.70475 40.2881 3.4172 40.4298C4.12965 40.5715 4.86813 40.4988 5.53924 40.2208C6.21036 39.9428 6.78397 39.4721 7.18754 38.8681C7.59111 38.2641 7.80652 37.554 7.80652 36.8276C7.82814 36.4845 7.78277 36.1405 7.67296 35.8148L11.7242 33.0324C12.3351 33.5261 13.0979 33.7935 13.8833 33.7892C14.3651 33.7892 14.8422 33.6941 15.2871 33.5094C15.7321 33.3247 16.1363 33.054 16.4764 32.7128C16.8166 32.3716 17.0861 31.9666 17.2694 31.5211C17.4528 31.0755 17.5464 30.5982 17.545 30.1164C17.5512 29.1309 17.1716 28.1821 16.4873 27.4728C15.803 26.7636 14.8684 26.3502 13.8833 26.3212Z" fill="#018BFF"/>
</g>
<defs>
<clipPath id="clip0_915_70964">
<rect width="120.89" height="40" fill="white" transform="translate(0.460938 0.5)"/>
</clipPath>
</defs>
</svg>
