<svg width="186" height="50" viewBox="0 0 186 50" fill="none" xmlns="http://www.w3.org/2000/svg">
<path d="M25.4394 46.7771C22.6563 47.2659 19.8242 47.4124 16.8946 47.8026L7.95886 21.631V48.9259C5.17576 49.2188 2.63675 49.6094 0 50V0H7.42208L17.5781 28.3696V0H25.4394V46.7771ZM40.8203 18.3106C43.8479 18.3106 48.4865 18.164 51.2696 18.164V25.9764C47.8026 25.9764 43.7501 25.9764 40.8203 26.1229V37.7442C45.4103 37.4513 50.0002 37.0603 54.6386 36.9138V44.4329L33.0076 46.1423V0H54.6386V7.81251H40.8203V18.3106V18.3106ZM83.6913 7.81269H75.5859V43.7501C72.9492 43.7501 70.3124 43.7501 67.7738 43.8475V7.81269H59.6684V0H83.6917L83.6913 7.81269V7.81269ZM96.3865 17.7736H107.08V25.5859H96.3865V43.3107H88.72V0H110.547V7.81251H96.3865V17.7736V17.7736ZM123.242 36.4746C127.686 36.572 132.177 36.9143 136.523 37.1581V44.873C129.541 44.4333 122.559 43.9944 115.43 43.8475V0H123.242V36.4746ZM143.115 45.4102C145.605 45.5569 148.242 45.7034 150.781 45.9959V0H143.115V45.4102V45.4102ZM185.01 0L175.098 23.7794L185.01 50C182.08 49.6094 179.15 49.0722 176.22 48.5839L170.605 34.1311L164.893 47.4124C162.061 46.9237 159.326 46.7771 156.495 46.3865L166.553 23.4861L157.471 0H165.869L170.996 13.1348L176.465 0H185.01V0Z" fill="white"/>
</svg>
