<svg width="160" height="63" viewBox="0 0 160 63" fill="none" xmlns="http://www.w3.org/2000/svg">
<path d="M112.599 51.8411H111.247V49.9903H114.436V49.1602H110.367V52.6576H112.558C113.338 52.6576 113.787 53.016 113.787 53.6692V54.3814C113.787 55.1118 113.288 55.52 112.385 55.52C111.483 55.52 111.025 55.1118 111.025 54.3814V53.7191H110.145V54.3587C110.308 55.6017 111.446 56.4817 112.694 56.3184C113.715 56.1869 114.522 55.3794 114.654 54.3587V53.6874C114.667 52.6712 113.851 51.8366 112.835 51.823C112.753 51.823 112.671 51.823 112.594 51.8366" fill="#999999"/>
<path d="M109.332 49.9903V49.1602H105.027V56.2095H105.903V53.3698H108.983V52.5306H105.903V49.9903H109.332Z" fill="#999999"/>
<path d="M101.404 49.3134H101.845V48.5059H101.305C100.37 48.4424 99.5582 49.1456 99.4947 50.08C99.4856 50.1934 99.4947 50.3114 99.5038 50.4248V51.1551H98.9141V51.9535H99.5038V56.204H100.352V51.9535H101.754V51.1551H100.352V50.4928C100.352 49.6536 100.683 49.3134 101.404 49.3134Z" fill="#999999"/>
<path d="M90.3436 55.411C89.6541 55.411 89.3139 55.089 89.3139 54.2815V51.9725H90.6929V51.1741H89.3139V49.6953H88.4656V51.1741H87.7852V51.9725H88.4656V54.472C88.4656 55.6832 89.0326 56.223 90.1667 56.223H90.7882V55.4156H90.3482L90.3436 55.411Z" fill="#999999"/>
<path d="M86.8532 51.0692C86.2725 51.051 85.71 51.2733 85.2927 51.677L85.1249 51.1599H84.5352V56.2088H85.3834V53.0288C85.3653 52.3711 85.8824 51.8177 86.5447 51.7995C86.6037 51.7995 86.6581 51.7995 86.7126 51.8086C86.8577 51.8086 87.0029 51.8267 87.1435 51.8585V51.0782C87.0483 51.0692 86.9485 51.0646 86.8532 51.0692Z" fill="#999999"/>
<path d="M96.0818 51.0267C95.0294 50.8952 94.0677 51.6437 93.9361 52.7006C93.918 52.8412 93.918 52.9773 93.9316 53.1179V54.2384C93.9633 55.4269 94.9522 56.3659 96.1407 56.3387C97.2884 56.307 98.2093 55.3861 98.241 54.2384V53.1179C98.3408 52.061 97.5606 51.122 96.5037 51.0222C96.363 51.0086 96.2224 51.0131 96.0818 51.0313V51.0267ZM97.3928 54.1885C97.3928 55.0776 96.9936 55.5267 96.0818 55.5267C95.17 55.5267 94.7799 55.0776 94.7799 54.1885V53.1678C94.7799 52.2787 95.1791 51.8387 96.0909 51.8387C97.0026 51.8387 97.3928 52.2787 97.3928 53.1678V54.1885Z" fill="#999999"/>
<path d="M82.7374 51.1547L82.5786 51.6628C82.1749 51.2228 81.5942 50.9869 81 51.0232C79.7616 51.0232 79.0312 51.6447 79.0312 53.1507V54.2031C79.0312 55.7046 79.7616 56.3306 81 56.3306C81.5942 56.3669 82.1794 56.131 82.5786 55.691L82.7374 56.1991H83.3271V51.1502H82.7374V51.1547ZM81.1452 55.5232C80.2969 55.5232 79.875 55.1013 79.875 54.1442V53.2051C79.875 52.2434 80.2969 51.8352 81.1452 51.8352C81.7984 51.7581 82.3926 52.2253 82.4698 52.8785C82.4743 52.933 82.4788 52.9874 82.4788 53.0418V54.3029C82.497 54.9652 81.9708 55.5141 81.3085 55.5323C81.254 55.5323 81.1996 55.5323 81.1497 55.5232" fill="#999999"/>
<path d="M76.1292 49.1602H73.3711V56.2095H74.2511V53.6511H76.1428C77.5127 53.6511 78.293 52.9434 78.293 51.7912V51.02C78.293 49.8587 77.5127 49.1602 76.1337 49.1602M77.4265 51.7912C77.4265 52.4626 77.0273 52.8119 76.1836 52.8119H74.2511V49.9903H76.1927C77.0228 49.9903 77.422 50.3487 77.422 51.02V51.7912H77.4265Z" fill="#999999"/>
<path d="M0.867291 47.2477C1.15308 47.7422 1.56588 48.155 2.06487 48.4362L26.52 62.5577C27.5225 63.1474 28.7655 63.1474 29.7725 62.5577L54.2322 48.4362C55.2438 47.8601 55.8653 46.785 55.8562 45.6237V17.3808C55.8653 16.215 55.2438 15.1399 54.2322 14.5638L29.7725 0.442288C28.77 -0.147429 27.5271 -0.147429 26.5245 0.442288L2.06941 14.5638C1.05782 15.1353 0.436343 16.215 0.445416 17.3808V45.6237C0.440879 46.1953 0.586043 46.7578 0.876365 47.2523" fill="#009639"/>
<path d="M20.2951 42.2516C20.2951 43.989 18.8889 45.3953 17.1515 45.3953C15.4141 45.3953 14.0078 43.989 14.0078 42.2516V20.6589C14.1258 18.8535 15.6862 17.479 17.4917 17.5969C17.5234 17.5969 17.5507 17.5969 17.5824 17.606C19.2245 17.5833 20.7896 18.2864 21.8692 19.5248L22.8218 20.6634L35.9634 36.3908V20.7542C35.9634 19.0168 37.3697 17.606 39.1071 17.606C40.8445 17.606 42.2553 19.0122 42.2553 20.7496V42.3424C42.1373 44.1478 40.5768 45.5223 38.7714 45.4044C38.7397 45.4044 38.7124 45.4044 38.6807 45.3953C37.0385 45.418 35.4735 44.7148 34.3939 43.4764L20.3042 26.615V42.2516H20.2951Z" fill="white"/>
<path d="M152.257 20.8584H148.111L143.543 28.0983L139.097 20.8584H134.801L141.202 31.3145L134.742 42.1291H138.829L143.366 34.8302L147.811 42.1291H152.107L145.647 31.5822L152.257 20.8584Z" fill="black"/>
<path d="M129.406 20.8584V35.3382L121.054 20.8584H117.598V42.1291H121.054V27.7354L129.406 42.1291H132.894V20.8584H129.406Z" fill="black"/>
<path d="M114.799 20.8584H111.102V42.1291H114.799V20.8584Z" fill="black"/>
<path d="M108.207 28.4265V27.2244C108.207 23.11 105.172 20.4336 99.8554 20.4336C94.5388 20.4336 91.5312 23.11 91.5312 27.2244V35.7572C91.5312 39.8716 94.5978 42.548 99.8826 42.548C105.167 42.548 108.207 39.8761 108.207 35.7572V30.7718H99.7329V34.1967H104.51V35.5485C104.51 37.7713 102.827 39.1231 99.8508 39.1231C96.875 39.1231 95.2238 37.7713 95.2238 35.5485V27.4376C95.2238 25.2148 96.9068 23.863 99.8826 23.863C102.858 23.863 104.51 25.2148 104.51 27.4376V28.4311H108.207V28.4265Z" fill="black"/>
<path d="M85.1791 20.8584V35.3382L76.8277 20.8584H73.3711V42.1291H76.8277V27.7354L85.1791 42.1291H88.6675V20.8584H85.1791Z" fill="black"/>
<path d="M156.539 41.1726H156.943V40.279H157.26C157.415 40.2654 157.569 40.2926 157.705 40.3516C157.864 40.474 157.945 40.6736 157.918 40.8732V41.0547L157.927 41.1227C157.927 41.1227 157.932 41.1409 157.932 41.1499C157.932 41.159 157.932 41.1635 157.941 41.1681H158.313L158.299 41.1409C158.286 41.1046 158.277 41.0637 158.281 41.0229C158.277 40.9594 158.277 40.905 158.277 40.8551V40.6872C158.272 40.5602 158.227 40.4377 158.154 40.3334C158.059 40.2064 157.914 40.1293 157.759 40.1111C157.877 40.0975 157.986 40.0612 158.091 40.0023C158.24 39.9025 158.327 39.7301 158.313 39.5532C158.34 39.3037 158.195 39.0678 157.964 38.9771C157.764 38.9135 157.551 38.8863 157.342 38.8954H156.548V41.1726H156.539ZM157.682 39.9433C157.56 39.9841 157.428 40.0023 157.301 39.9932H156.943V39.163H157.283C157.451 39.154 157.614 39.1812 157.764 39.2538C157.873 39.3264 157.932 39.4534 157.914 39.5849C157.927 39.7437 157.828 39.8889 157.678 39.9433M158.844 38.5733C158.454 38.1787 157.923 37.9609 157.369 37.97C156.222 37.97 155.296 38.9045 155.301 40.0522C155.301 41.1953 156.231 42.1162 157.369 42.1207C158.517 42.1207 159.451 41.1953 159.451 40.0431C159.451 39.4897 159.234 38.9589 158.844 38.5688M158.63 38.7729C158.975 39.1041 159.161 39.5622 159.152 40.034C159.157 41.0184 158.363 41.8213 157.378 41.8304C156.898 41.8304 156.439 41.6444 156.104 41.3042C155.768 40.9685 155.578 40.5103 155.587 40.034C155.587 39.0451 156.38 38.2467 157.369 38.2422C157.846 38.2331 158.304 38.4282 158.635 38.7729" fill="#999999"/>
</svg>
