<svg width="184" height="50" viewBox="0 0 184 50" fill="none" xmlns="http://www.w3.org/2000/svg">
<path d="M39.4578 44.2512C26.5542 53.1424 10.3666 51.7872 3.30171 41.2243C-2.73333 32.2013 -0.15938 19.378 8.76237 10.289C8.89229 10.6523 9.02176 11.0309 9.13354 11.423C9.13733 11.4366 9.14208 11.4529 9.14748 11.4715C9.15501 11.4973 9.16379 11.5274 9.17299 11.5606C2.51637 19.0455 0.207924 28.8294 3.54037 36.602C6.5246 43.7311 13.8415 48.7304 24.2642 47.7615C29.2047 47.3577 34.3595 45.5665 39.0517 42.3314C51.1661 33.9786 55.6099 19.1631 48.9769 9.23982C42.3439 -0.683297 27.146 -1.95635 15.0313 6.39637C15.0055 6.41417 14.9798 6.432 14.954 6.44986C14.5075 6.35188 14.0592 6.25912 13.617 6.17775C13.702 6.11806 13.7874 6.05867 13.8731 5.99958C26.7767 -2.89164 42.9643 -1.53646 50.0292 9.02647C57.0943 19.5892 52.3611 35.3599 39.4578 44.2512Z" fill="white"/>
<path d="M9.70798 9.36226C10.434 8.67772 11.1977 8.01722 11.9982 7.38429C12.4345 7.42837 12.9026 7.50924 13.3782 7.61278C12.218 8.52297 11.139 9.49473 10.145 10.516C9.96722 10.1308 9.81093 9.73532 9.70798 9.36226Z" fill="white"/>
<path d="M35.1284 20.0868C35.1436 20.2721 35.4083 20.2889 35.4458 20.1065C35.8053 18.3592 35.392 17.0276 35.0858 16.0414C34.9791 15.6976 34.8854 15.3958 34.842 15.133C34.8227 15.0161 34.8545 14.8206 34.888 14.6146C34.9473 14.2503 35.0119 13.853 34.8094 13.7986C33.5528 13.4618 29.4466 12.9477 25.9236 13.831C25.7165 13.8828 25.7668 14.0234 25.9796 14.0106C33.7877 13.5402 34.9268 17.6328 35.1284 20.0868Z" fill="white"/>
<path d="M23.7582 8.21981C23.6928 8.7305 24.2182 9.2175 24.9309 9.30772C25.6437 9.39794 26.2743 9.05755 26.3393 8.54686C26.404 8.03637 25.8793 7.54936 25.1664 7.45896C24.4538 7.36892 23.8232 7.70932 23.7582 8.21981Z" fill="white"/>
<path d="M29.3878 8.63558C28.9231 8.48878 28.4607 8.63971 28.3551 8.9724C28.2491 9.30528 28.54 9.69398 29.0049 9.84077C29.4694 9.98757 29.9316 9.83683 30.0376 9.50395C30.1433 9.17126 29.8524 8.78256 29.3878 8.63558Z" fill="white"/>
<path d="M11.7507 12.3921C12.6257 11.0699 13.9894 9.00904 16.7327 9.01375C16.9604 9.01413 17.0266 8.70813 16.8121 8.63107C14.7812 7.90235 10.9082 6.70843 9.848 7.76533C8.7567 8.85342 11.3373 12.6363 11.4636 12.8196C11.5536 12.69 11.6488 12.5461 11.7507 12.3921Z" fill="white"/>
<path d="M7.73722 19.5558C8.42642 19.9549 9.49435 19.4049 10.1225 18.3269C10.7506 17.249 10.7012 16.0515 10.012 15.6521C9.32299 15.2529 8.25469 15.803 7.62656 16.881C6.99882 17.9589 7.04802 19.1566 7.73722 19.5558Z" fill="white"/>
<path d="M5.59534 25.3307C6.1999 25.4433 6.83368 24.7679 7.01069 23.8223C7.18808 22.8765 6.84122 22.0185 6.23666 21.9059C5.63172 21.7933 4.99813 22.4688 4.82092 23.4144C4.64391 24.3602 4.9904 25.2181 5.59534 25.3307Z" fill="white"/>
<path d="M4.56002 28.5999C4.5342 29.1139 4.81357 29.5459 5.184 29.5643C5.55424 29.5829 5.87584 29.181 5.90148 28.6668C5.92731 28.1525 5.64774 27.7208 5.27731 27.7022C4.90689 27.6837 4.58585 28.0856 4.56002 28.5999Z" fill="white"/>
<path fill-rule="evenodd" clip-rule="evenodd" d="M38.2023 12.2986C38.6885 15.0131 40.453 17.1148 41.5351 18.1839C42.052 18.6948 42.2188 19.4589 41.9635 20.1387L39.2041 27.4838C39.1599 27.594 39.116 27.7061 39.0716 27.8196C38.5108 29.2508 37.8702 30.886 35.7251 31.3522C34.0458 31.717 31.1887 30.6614 29.8521 30.0607C17.3057 24.4212 14.7805 51.3787 33.9071 45.2345C26.0395 49.1446 12.199 49.7947 4.55841 40.5013C-1.39653 33.2581 1.11163 20.5316 7.86492 12.1867C7.87612 12.1754 7.77854 12.1227 7.68084 12.07C7.58286 12.0171 7.48477 11.9641 7.49619 11.9527C7.61173 11.8369 7.35377 11.1613 7.19836 10.7542C7.14965 10.6266 7.11101 10.5254 7.09711 10.4761C6.7559 9.26265 6.22203 7.00488 7.44379 5.56831C9.07648 3.64806 12.9902 4.28694 15.5743 4.70877C16.268 4.82201 16.8659 4.91961 17.2981 4.94785C23.0255 3.91577 31.1821 4.25827 37.197 10.0447C37.7989 10.6237 38.0555 11.4779 38.2023 12.2986ZM40.9545 19.3968C40.9545 19.3968 39.4902 19.6769 39.2214 19.6874C39.0196 19.7423 38.8937 20.2122 39.7277 20.9052C39.9927 21.1253 40.0789 21.4952 39.9609 21.8181L39.3754 23.4201V23.4201C38.3691 25.7386 36.7917 24.8068 35.4228 23.9976C34.4144 23.4015 33.5188 22.8721 33.0476 23.758C31.9365 25.8468 37.7732 26.793 38.7701 25.3903L38.1725 26.7105C37.5293 28.3119 36.9818 28.9684 36.2817 29.084C34.8335 29.323 32.9349 28.5686 31.4341 27.9723C30.9031 27.7613 30.422 27.5702 30.0281 27.4497C27.6602 26.7248 25.7095 26.672 24.1522 27.112C18.8014 28.0766 15.024 33.0733 15.6156 38.6532C15.658 39.0549 15.7266 39.447 15.8109 39.8325C15.9788 36.9142 17.4078 34.2931 19.5968 32.5801C18.6829 34.046 18.1537 35.7752 18.1537 37.6283C18.1537 42.9186 21.8455 47.0386 27.1514 47.0386C27.883 47.0386 29.0136 46.9246 29.6982 46.7701C4.77474 53.4343 -6.32152 28.6333 9.16804 12.2822C9.33516 12.115 9.20483 11.6681 9.14748 11.4715C9.14208 11.4529 9.13733 11.4366 9.13354 11.423C8.98077 10.8871 8.79498 10.3764 8.62011 9.89568C8.15002 8.6034 7.75891 7.52823 8.30069 6.76501C9.45298 5.14084 13.4356 6.0814 16.6937 6.85087C16.9173 6.90367 17.1375 6.95567 17.3531 7.00597C17.9254 6.32368 28.6586 3.88454 36.1256 10.687C36.7509 11.2565 37.0391 12.1123 37.1916 12.9429C38.0614 17.6824 40.8707 19.3451 40.9584 19.3959L40.9545 19.3968Z" fill="white"/>
<path fill-rule="evenodd" clip-rule="evenodd" d="M120.286 18.375C120.286 17.985 120.535 17.7722 120.926 17.7722H125.125C125.516 17.7722 125.729 17.985 125.729 18.375V34.4436C125.729 40.6164 123.132 43.383 117.298 43.383C114.274 43.383 112.139 42.8153 110.218 41.4318C109.862 41.219 109.826 40.8993 110.04 40.5803L111.925 37.7075C112.139 37.3878 112.388 37.3173 112.744 37.494C113.882 38.1686 115.377 38.7003 117.048 38.7003C119.183 38.7003 120.428 37.885 120.393 35.2599C119.397 35.5436 118.294 35.7563 117.156 35.7563C112.85 35.7563 109.578 32.9896 109.578 28.1656V18.375C109.578 17.985 109.826 17.7722 110.218 17.7722H114.416C114.807 17.7722 115.021 17.985 115.021 18.375V28.0592C115.021 30.152 116.159 31.0745 117.973 31.0745C118.827 31.0745 119.752 30.8609 120.286 30.5771V18.375Z" fill="white"/>
<path fill-rule="evenodd" clip-rule="evenodd" d="M73.026 20.637C73.026 18.7612 71.7269 17.3985 69.7836 17.3985H66.1856V23.8756H69.7836C71.7269 23.8756 73.026 22.5129 73.026 20.637ZM77.9878 20.637C77.9878 25.0857 74.5431 28.3981 69.9981 28.3981H66.1856V35.4435H61.2884V12.876H69.9981C74.5375 12.876 77.9878 16.182 77.9878 20.637Z" fill="white"/>
<path fill-rule="evenodd" clip-rule="evenodd" d="M80.3583 35.4436H85.0794V12.7139H80.3583V35.4436Z" fill="white"/>
<path fill-rule="evenodd" clip-rule="evenodd" d="M102.018 26.7127C102.018 23.9779 100.007 21.9408 97.2649 21.9408C94.522 21.9408 92.5053 23.9835 92.5053 26.7127C92.5053 29.4419 94.522 31.4846 97.2649 31.4846C100.007 31.4846 102.018 29.4475 102.018 26.7127ZM106.645 18.0081V35.4173H102.944L102.538 33.8598C101.039 35.1686 99.0827 35.936 96.8801 35.936C91.6274 35.936 87.7201 31.9827 87.7201 26.7127C87.7201 21.4634 91.6274 17.542 96.8801 17.542C99.1212 17.542 101.107 18.3293 102.617 19.6714L103.121 18.0074L106.645 18.0081Z" fill="white"/>
<path fill-rule="evenodd" clip-rule="evenodd" d="M138.247 31.2522V35.4435H134.894C131.052 35.4435 128.691 33.0903 128.691 29.2272V17.9989L132.202 13.8096H133.332V18.0344H138.15V21.818H133.412V28.6028C133.412 30.2852 134.382 31.2522 136.102 31.2522H138.247Z" fill="white"/>
<path fill-rule="evenodd" clip-rule="evenodd" d="M141.998 35.4436H146.719V18.0344H141.998V35.4436Z" fill="white"/>
<path fill-rule="evenodd" clip-rule="evenodd" d="M160.734 35.4436L155.146 27.1149V35.4436H150.425V13.0321H155.146V25.7699L160.387 18.0344H165.825L159.919 26.3248L166.454 35.4436H160.734Z" fill="white"/>
<path fill-rule="evenodd" clip-rule="evenodd" d="M180.166 26.7127C180.166 23.9779 178.155 21.9408 175.413 21.9408C172.67 21.9408 170.653 23.9835 170.653 26.7127C170.653 29.4419 172.67 31.4846 175.413 31.4846C178.155 31.4846 180.166 29.4475 180.166 26.7127ZM184.793 18.0081V35.4173H181.092L180.686 33.8598C179.187 35.1686 177.231 35.936 175.028 35.936C169.775 35.936 165.868 31.9827 165.868 26.7127C165.868 21.4634 169.775 17.542 175.028 17.542C177.269 17.542 179.255 18.3293 180.765 19.6714L181.269 18.0074L184.793 18.0081Z" fill="white"/>
<path fill-rule="evenodd" clip-rule="evenodd" d="M145.865 15.3166C144.193 16.4485 142.095 16.2759 141.179 14.9313C140.264 13.5866 140.877 11.5788 142.549 10.4468C144.222 9.31486 146.319 9.48741 147.235 10.8323C148.151 12.1769 147.537 14.1847 145.865 15.3166Z" fill="white"/>
<path d="M1.83596 45.9333C2.10264 45.9333 2.363 46.0021 2.61704 46.1396C2.87108 46.2758 3.06898 46.4716 3.21074 46.727C3.3525 46.981 3.42337 47.2463 3.42337 47.5228C3.42337 47.7965 3.3532 48.0597 3.21284 48.3123C3.07389 48.5649 2.8781 48.7614 2.62546 48.9018C2.37422 49.0407 2.11106 49.1102 1.83596 49.1102C1.56087 49.1102 1.297 49.0407 1.04436 48.9018C0.793129 48.7614 0.597334 48.5649 0.45698 48.3123C0.316625 48.0597 0.246448 47.7965 0.246448 47.5228C0.246448 47.2463 0.317327 46.981 0.459085 46.727C0.602247 46.4716 0.800849 46.2758 1.05489 46.1396C1.30893 46.0021 1.56929 45.9333 1.83596 45.9333ZM1.83596 46.1965C1.6128 46.1965 1.39525 46.254 1.18331 46.3691C0.972783 46.4828 0.807866 46.6463 0.688565 46.8596C0.569263 47.0716 0.509613 47.2926 0.509613 47.5228C0.509613 47.7516 0.56786 47.9712 0.684354 48.1818C0.802252 48.3909 0.966467 48.5544 1.177 48.6723C1.38753 48.7888 1.60719 48.8471 1.83596 48.8471C2.06474 48.8471 2.2844 48.7888 2.49493 48.6723C2.70546 48.5544 2.86897 48.3909 2.98547 48.1818C3.10196 47.9712 3.16021 47.7516 3.16021 47.5228C3.16021 47.2926 3.10056 47.0716 2.98126 46.8596C2.86336 46.6463 2.69844 46.4828 2.48651 46.3691C2.27457 46.254 2.05772 46.1965 1.83596 46.1965ZM2.34545 47.7797L2.60441 47.8555C2.5623 48.0309 2.47247 48.1712 2.33492 48.2765C2.19878 48.3804 2.03316 48.4323 1.83807 48.4323C1.59104 48.4323 1.39034 48.3523 1.23595 48.1923C1.08156 48.0323 1.00436 47.8105 1.00436 47.527C1.00436 47.3418 1.03945 47.181 1.10963 47.0449C1.17981 46.9074 1.27946 46.8042 1.40858 46.7354C1.53911 46.6652 1.68789 46.6302 1.85491 46.6302C2.04158 46.6302 2.19668 46.6751 2.32019 46.7649C2.4437 46.8533 2.52791 46.974 2.57283 47.127L2.32229 47.1881C2.28019 47.0842 2.21773 47.0049 2.13492 46.9502C2.05351 46.894 1.95737 46.866 1.84649 46.866C1.68508 46.866 1.55175 46.9235 1.44648 47.0386C1.34262 47.1537 1.29069 47.3186 1.29069 47.5333C1.29069 47.7481 1.33981 47.9109 1.43806 48.0218C1.53771 48.1312 1.66613 48.186 1.82333 48.186C1.94965 48.186 2.06053 48.1495 2.15597 48.0765C2.25141 48.0035 2.31457 47.9046 2.34545 47.7797Z" fill="white"/>
</svg>
