<svg width="195" height="41" viewBox="0 0 195 41" fill="none" xmlns="http://www.w3.org/2000/svg">
<g clip-path="url(#clip0_915_70868)">
<path d="M55.4297 18.2515H48.2048V10.9878H55.8213C58.6087 10.9878 60.0028 12.2171 60.0028 14.6721C60.0028 17.0563 58.478 18.248 55.429 18.248M60.6219 10.9028C59.6318 10.0164 58.2469 9.57325 56.4669 9.57325L46.1211 9.63064V27.0064H48.2048L48.1857 19.6094H55.884C57.8146 19.6094 59.3341 19.1666 60.443 18.2802C61.5518 17.3939 62.1032 16.1642 62.1032 14.5913C62.1032 13.0184 61.6081 11.7927 60.6148 10.9028H60.6219ZM74.1163 23.3593C73.9048 23.9459 73.5748 24.4383 73.1241 24.8372C72.1907 25.7484 70.7661 26.2033 68.8497 26.2033C67.1196 26.2033 65.7915 25.7604 64.8648 24.8748C63.9381 23.9891 63.4746 22.8045 63.4746 21.323C63.4746 20.5496 63.5958 19.8634 63.8385 19.2683C64.0813 18.6731 64.4325 18.164 64.8928 17.752C65.851 16.8788 67.17 16.442 68.85 16.442C72.5709 16.442 74.4314 18.0702 74.4314 21.3262C74.4314 22.0995 74.325 22.7797 74.1138 23.3656M74.492 16.9557C73.2215 15.7972 71.3409 15.2187 68.8504 15.2187C66.4963 15.2187 64.678 15.8103 63.3952 16.99C62.2371 18.0606 61.6581 19.5053 61.6581 21.3226C61.6581 23.1279 62.2556 24.5846 63.4512 25.6924C64.111 26.2904 64.8804 26.7198 65.7546 26.9904C66.6288 27.2611 67.6632 27.3918 68.8461 27.3918C71.3242 27.3918 73.2109 26.8193 74.5065 25.6736C75.6646 24.6279 76.244 23.1779 76.244 21.3223C76.244 19.4553 75.6582 17.9982 74.4877 16.9521L74.492 16.9557ZM90.2607 23.8612C90.2607 26.2001 88.1646 27.3695 83.9721 27.3695C82.6907 27.3695 81.612 27.288 80.7342 27.1215C79.8564 26.955 79.1448 26.6893 78.5973 26.3138C78.1746 26.0304 77.839 25.6542 77.5899 25.1936C77.3407 24.7331 77.1795 24.1546 77.1051 23.4577L79.0555 23.439C79.0555 24.3593 79.3968 25.0374 80.0832 25.4731C80.8157 25.996 82.1137 26.2571 83.976 26.2571C86.9059 26.2571 88.3712 25.5238 88.3712 24.055C88.3712 23.197 87.8797 22.6026 86.897 22.2823C86.6975 22.22 85.5129 22.0556 83.342 21.7881C81.1711 21.5207 79.8185 21.2815 79.2837 21.0697C78.1267 20.6091 77.5484 19.7819 77.5484 18.5874C77.5484 17.4183 78.0647 16.5468 79.0988 15.9747C79.6091 15.7384 80.2476 15.5549 81.0138 15.4242C81.7799 15.2935 82.6673 15.2279 83.6762 15.2279C87.7114 15.2279 89.7288 16.4937 89.7288 19.0249H87.874C87.874 17.2458 86.4555 16.3559 83.6191 16.3559C82.1761 16.3559 81.1031 16.533 80.3943 16.8969C79.6856 17.2607 79.3312 17.8116 79.3312 18.5619C79.3312 19.2587 79.8096 19.7664 80.7682 20.0735C81.3281 20.2354 82.6159 20.4224 84.6319 20.6332C86.4392 20.7951 87.6742 21.0247 88.3457 21.324C89.6274 21.8218 90.2681 22.6677 90.2681 23.8616L90.2607 23.8612ZM97.9222 27.0266L97.1284 27.1381L96.6337 27.175C95.364 27.175 94.4483 26.9908 93.8863 26.6231C93.3242 26.2553 93.0439 25.6099 93.0439 24.6874V16.7601H90.7299V15.5911H93.0251L93.0436 11.8444H94.8218V15.5946H97.9183V16.78L94.8218 16.7608V24.4759C94.8218 25.0505 94.9742 25.4466 95.2825 25.6655C95.5908 25.8844 96.1319 25.9932 96.9126 25.9932C97.0246 26.0059 97.1493 26.002 97.2861 25.9811C97.4229 25.9602 97.6284 25.9131 97.9027 25.8408L97.9215 27.0304L97.9222 27.0266ZM110.221 24.3994C109.735 24.7972 109.182 25.1015 108.56 25.3134C107.938 25.5252 107.223 25.6304 106.415 25.6304C102.696 25.6304 100.836 24.0951 100.836 21.024C100.836 19.5942 101.312 18.4754 102.264 17.6674C103.215 16.8593 104.555 16.4551 106.284 16.4551C108.026 16.4551 109.347 16.8625 110.249 17.6766C111.151 18.4907 111.602 19.5825 111.602 20.9499C111.602 22.4378 111.141 23.5917 110.221 24.4004M113.38 15.6035H111.602L111.583 17.5636C110.799 16.7679 110.239 16.2645 109.903 16.053C108.911 15.506 107.62 15.2325 106.039 15.2325C103.724 15.2325 101.957 15.7611 100.737 16.8182C99.5792 17.7882 99.0005 19.1935 99.0005 21.0339C99.0005 21.9419 99.1469 22.7531 99.4399 23.4677C99.733 24.1822 100.159 24.789 100.721 25.2861C101.942 26.3056 103.668 26.8158 105.899 26.8158C108.579 26.8158 110.48 26.0832 111.602 24.6176V26.6468C111.602 27.9405 111.194 28.9424 110.379 29.6509C109.564 30.3594 108.223 30.7151 106.356 30.7151C104.601 30.7151 103.351 30.4731 102.604 29.9903C102.044 29.619 101.658 28.9743 101.447 28.0582H99.6171C99.8163 29.3384 100.361 30.2641 101.242 30.8356C102.262 31.4945 103.987 31.8275 106.415 31.8275C111.058 31.8275 113.38 30.1015 113.38 26.65V15.6024V15.6035ZM122.998 16.7573C122.466 16.6705 121.966 16.6269 121.509 16.6269C118.586 16.6269 117.126 18.2292 117.126 21.4335V27.006H115.366L115.347 15.6035L117.126 15.6212V17.6557H117.219C117.518 16.854 117.991 16.2457 118.637 15.8327C119.346 15.4323 120.403 15.2315 121.808 15.2315H123.002V16.7573H122.998ZM124.653 20.5833C124.877 19.2874 125.381 18.2806 126.164 17.5735C126.674 17.1626 127.253 16.8536 127.899 16.6482C128.545 16.4427 129.274 16.34 130.083 16.34C131.662 16.34 132.952 16.7732 133.954 17.6394C134.956 18.5055 135.456 19.4868 135.456 20.5797H124.649M135.627 17.0619C135.005 16.4384 134.232 15.9765 133.311 15.6803C132.39 15.3842 131.312 15.2304 130.08 15.2304C127.776 15.2304 125.989 15.7661 124.718 16.8366C123.448 17.9072 122.813 19.3639 122.813 21.2068C122.813 23.0496 123.424 24.512 124.643 25.595C125.962 26.7903 127.824 27.3875 130.226 27.3875C131.184 27.3875 132.071 27.2788 132.886 27.0623C133.701 26.8459 134.414 26.538 135.024 26.142C136.095 25.3732 136.773 24.4252 137.06 23.2973H135.137C134.478 25.2468 132.836 26.2217 130.211 26.2217C128.357 26.2217 126.931 25.7452 125.937 24.7912C125.078 23.9739 124.649 22.9154 124.649 21.6149H137.327C137.327 19.6806 136.761 18.1637 135.627 17.0651V17.0619ZM156.114 22.3404C156.114 25.7261 153.383 27.4187 147.92 27.4187C144.647 27.4187 142.258 26.836 140.753 25.6687C139.52 24.7104 138.905 23.2491 138.905 21.2829H141.104C141.104 24.4436 143.372 26.0229 147.92 26.0229C150.098 26.0229 151.673 25.6999 152.644 25.0533C153.466 24.4819 153.877 23.5867 153.877 22.368C153.877 21.1621 153.317 20.3133 152.196 19.8315C151.561 19.5705 150.011 19.2406 147.546 18.8396C144.446 18.367 142.436 17.8948 141.514 17.4226C140.183 16.7261 139.516 15.545 139.516 13.8789C139.516 12.3248 140.083 11.1688 141.216 10.41C142.438 9.58848 144.53 9.17188 147.494 9.17188C152.847 9.17188 155.524 10.9495 155.524 14.5045H153.305C153.305 11.8416 151.321 10.5099 147.342 10.5099C145.349 10.5099 143.891 10.7777 142.968 11.313C142.096 11.8855 141.66 12.7258 141.66 13.8336C141.66 14.9913 142.22 15.8068 143.341 16.2797C143.938 16.5536 145.694 16.9333 148.607 17.419C151.346 17.83 153.195 18.3089 154.154 18.8566C155.465 19.529 156.115 20.6931 156.115 22.3482L156.114 22.3404ZM173.976 24.0756C173.154 24.7338 172.225 25.2269 171.19 25.5564C170.156 25.8858 168.993 26.0502 167.717 26.0502C165.1 26.0502 162.986 25.3417 161.374 23.9353C159.763 22.5289 158.955 20.6467 158.955 18.3026C158.955 15.8553 159.754 13.9452 161.356 12.582C162.957 11.2188 165.079 10.5322 167.72 10.5322C170.399 10.5322 172.506 11.2464 174.038 12.6755C174.847 13.3716 175.446 14.1846 175.833 15.1199C176.22 16.0551 176.412 17.1137 176.412 18.3061C176.412 20.7409 175.601 22.6663 173.982 24.0827M175.15 25.2351C176.296 24.4274 177.144 23.4485 177.692 22.2947C178.24 21.1409 178.515 19.8174 178.515 18.3128C178.515 15.6148 177.619 13.4517 175.822 11.8228C174.863 10.9276 173.705 10.2623 172.348 9.82726C170.99 9.39222 169.442 9.17188 167.698 9.17188C164.312 9.17188 161.653 9.99269 159.724 11.634C157.794 13.2753 156.829 15.5004 156.829 18.3096C156.829 21.0445 157.803 23.2516 159.751 24.9293C161.698 26.6071 164.359 27.4463 167.733 27.4463C169.052 27.4463 170.203 27.3571 171.186 27.1789C172.169 27.0007 173.004 26.7261 173.688 26.357L176.936 28.608L178.293 27.362L175.147 25.2294L175.15 25.2351ZM194.981 27.0134H179.956V9.61116L182.022 9.57361V25.5507H195.001L194.982 27.0032L194.981 27.0134Z" fill="black"/>
<path d="M29.3159 29.7227C29.5771 27.5823 29.4928 27.2621 31.0939 27.616L31.4984 27.6497C32.7288 27.7087 34.3299 27.4559 35.2737 27.0177C37.3046 26.0739 38.5096 24.4981 36.504 24.911C31.9366 25.8548 31.6248 24.3042 31.6248 24.3042C36.445 17.1498 38.4675 8.05719 36.7231 5.83249C31.9788 -0.234868 23.7541 2.6387 23.6193 2.70612H23.5772C22.6755 2.52915 21.6643 2.41117 20.5266 2.39432C18.462 2.36061 16.8862 2.93364 15.698 3.83532C15.7064 3.85217 1.04366 -2.18991 1.72624 11.4448C1.86949 14.3437 5.88069 33.3968 10.6672 27.6413C12.42 25.5346 14.1053 23.7565 14.1053 23.7565C14.948 24.3127 15.9508 24.5992 17.0042 24.4981L17.0885 24.4306C17.0632 24.6919 17.0716 24.9447 17.1222 25.248C15.8918 26.6216 16.2542 26.866 13.7851 27.3716C11.2908 27.8857 12.757 28.8042 13.7093 29.0401C14.8722 29.3267 17.5519 29.7396 19.3637 27.2031L19.2879 27.4896C19.7682 27.8772 19.7429 30.2705 19.8103 31.9811C19.8778 33.6918 19.9957 35.2845 20.3412 36.2283C20.6867 37.1721 21.0997 39.5906 24.344 38.8996C27.049 38.3182 29.1221 37.4839 29.3074 29.7143" fill="black"/>
<path d="M23.2909 40.7279C21.8162 40.7279 20.8555 40.1549 20.2741 39.6071C19.3977 38.7813 19.0522 37.7195 18.8415 37.0875C18.8078 36.9948 18.7825 36.9105 18.7572 36.8347C18.3443 35.7139 18.201 34.1212 18.1168 32.0651C18.1084 31.7617 18.0915 31.4331 18.0831 31.1044C18.0831 30.9022 18.0746 30.6662 18.0662 30.4134C16.6758 31.0201 15.041 31.1297 13.2966 30.6999C12.5213 30.5061 11.7123 30.11 11.2067 29.5033C9.81629 30.6578 8.5017 30.4892 7.77699 30.2449C6.39498 29.7814 4.29668 28.3235 2.05513 20.9837C0.858511 17.0399 0.0916641 12.8939 0.024249 11.5287C-0.186423 7.23103 0.976487 4.16364 3.47927 2.394C7.38092 -0.361595 13.2629 1.21423 15.4792 1.96423C16.937 1.10468 18.6392 0.68334 20.5606 0.70862C21.5802 0.725474 22.5493 0.809743 23.451 0.969854C25.8442 0.186153 33.4284 -1.12844 38.0632 4.79566C39.6222 6.78441 39.0407 10.7113 38.2823 13.6523C37.4312 16.9472 35.9481 20.4528 34.1363 23.5202C34.6166 23.5034 35.2824 23.4359 36.1672 23.2505C38.3834 22.7955 38.9986 24.1017 39.1419 24.5062C39.8329 26.5876 36.9087 28.1297 35.9986 28.5511C34.8442 29.0904 32.965 29.4106 31.4313 29.3432H31.3639L31.0858 29.3179C31.0858 29.3853 31.0689 29.4612 31.0605 29.5286L31.0268 29.8488C30.9257 33.8094 30.3526 36.3207 29.1813 37.9892C27.9425 39.7504 26.2319 40.2476 24.7235 40.5678C24.2094 40.6774 23.7375 40.7279 23.3077 40.7279H23.2909ZM20.3583 26.1747C21.3274 26.95 21.4117 28.3657 21.4875 31.0033C21.496 31.3235 21.5044 31.6353 21.5128 31.9218C21.5465 32.7814 21.6308 34.8038 21.9426 35.6465C21.9847 35.7561 22.0269 35.8825 22.069 36.0257C22.4229 37.1044 22.5662 37.551 23.9903 37.2476C25.9959 36.8178 27.4453 36.5061 27.6139 29.6803L29.3077 29.7224L27.6223 29.5202L27.6644 29.1325C27.8077 27.8685 27.9257 26.8657 28.8358 26.2252C29.4088 25.8207 30.0493 25.7618 30.6054 25.8123C30.1504 25.3404 29.9987 24.8685 29.9566 24.6494L29.8133 23.95L30.2094 23.3601C32.3161 20.2337 34.052 16.3995 34.979 12.8265C35.9228 9.18607 35.6616 7.24789 35.3835 6.88553C31.6082 2.06535 25.0437 4.02881 24.319 4.26477L24.1926 4.33218L23.5606 4.45016L23.2319 4.38274C22.4061 4.21421 21.4875 4.11308 20.5016 4.09623C18.9763 4.07095 17.7376 4.43331 16.7263 5.19173L15.9511 5.78161L15.0494 5.41082C13.2882 4.69454 8.13092 3.24511 5.42588 5.15802C3.93433 6.21138 3.26017 8.29282 3.41186 11.3518C3.46242 12.4051 4.17871 16.3742 5.3669 20.1916C6.99329 25.4331 8.42586 26.891 8.83877 27.0089C8.88934 26.9837 9.0663 26.891 9.36124 26.5455C11.1225 24.4219 12.8078 22.6522 12.8753 22.5764L13.8612 21.5399L15.0494 22.332C15.4623 22.6017 15.9089 22.7618 16.3724 22.8039L19.1954 20.4023L18.7909 24.5904C18.7909 24.6663 18.7825 24.7758 18.8078 24.9865L18.9342 25.7786L18.3949 26.3769C18.3949 26.3769 18.3864 26.3854 18.378 26.3938L19.6926 27.0005L20.3583 26.1663V26.1747Z" fill="black"/>
<path d="M36.504 24.911C31.9366 25.8548 31.6248 24.3042 31.6248 24.3042C36.445 17.1498 38.4675 8.05719 36.7231 5.83249C31.9788 -0.234868 23.7541 2.6387 23.6193 2.70612H23.5772C22.6755 2.52915 21.6643 2.41117 20.5266 2.39432C18.462 2.36061 16.8946 2.93364 15.698 3.83532C15.7064 3.84375 1.04366 -2.18991 1.72624 11.4448C1.86949 14.3436 5.88069 33.3968 10.6672 27.6413C12.42 25.5346 14.1053 23.7565 14.1053 23.7565C14.948 24.3127 15.9508 24.5992 17.0042 24.4981L17.0885 24.4306C17.0632 24.6919 17.0716 24.9447 17.1222 25.248C15.8918 26.6216 16.2542 26.866 13.7851 27.3716C11.2908 27.8857 12.757 28.8042 13.7093 29.0401C14.8722 29.3267 17.5519 29.7396 19.3637 27.2031L19.2879 27.4896C19.7682 27.8772 20.1137 30.0092 20.0547 31.939C19.9957 33.8688 19.962 35.1918 20.3412 36.2283C20.7204 37.2648 21.0997 39.5906 24.344 38.8996C27.049 38.3181 28.4563 36.8182 28.6501 34.3069C28.785 32.5205 29.1052 32.7901 29.1221 31.189L29.3749 30.4306C29.6614 28.0121 29.417 27.2368 31.0855 27.5991L31.49 27.6329C32.7203 27.6918 34.3214 27.439 35.2653 27.0008C37.2961 26.057 38.5012 24.4812 36.4956 24.8941L36.504 24.911Z" fill="#336791"/>
<path d="M23.4491 39.6748C20.7187 39.6748 19.8592 37.5176 19.5053 36.6327C18.9912 35.335 18.8733 30.498 18.9912 26.2761C18.9997 25.9643 19.2693 25.7115 19.5727 25.7283C19.8845 25.7368 20.1289 25.998 20.1204 26.3098C19.9856 31.012 20.171 35.2676 20.5502 36.2114C21.1317 37.6777 22.0249 38.9501 24.5277 38.4192C26.9462 37.8968 27.8058 37.0288 28.2102 34.6945C28.522 32.908 29.1288 27.8266 29.2046 26.8238C29.2299 26.512 29.4996 26.2761 29.8114 26.3014C30.1232 26.3266 30.3591 26.5963 30.3338 26.9081C30.258 27.953 29.6512 33.0345 29.331 34.8884C28.8507 37.6608 27.6204 38.9164 24.7721 39.5316C24.2917 39.6327 23.8451 39.6833 23.4491 39.6833V39.6748Z" fill="white"/>
<path d="M8.81435 29.2254C8.55312 29.2254 8.30874 29.1749 8.1065 29.1075C6.33685 28.5176 4.6599 25.6524 3.10935 20.5879C1.93801 16.7368 1.18802 12.7256 1.12903 11.4194C0.935213 7.53463 1.93801 4.78747 4.10372 3.25378C8.39301 0.220096 15.5896 3.10209 15.8929 3.22849C16.1795 3.34647 16.3227 3.67512 16.2047 3.97006C16.0868 4.25658 15.7581 4.39983 15.4632 4.28186C15.3958 4.25658 8.52784 1.50098 4.75259 4.18073C2.92396 5.47847 2.08127 7.89699 2.24981 11.3689C2.3088 12.4644 2.9998 16.3744 4.18799 20.2677C5.56157 24.7592 7.12055 27.5991 8.46042 28.0457C8.66267 28.1131 9.29469 28.3238 10.1964 27.2367C11.9407 25.1384 13.5418 23.4699 13.5503 23.453C13.7694 23.2255 14.1233 23.2171 14.3508 23.4362C14.5783 23.6553 14.5868 24.0092 14.3677 24.2367C14.3508 24.2536 12.775 25.8968 11.0643 27.9614C10.2385 28.9474 9.4548 29.2423 8.80593 29.2423L8.81435 29.2254Z" fill="white"/>
<path d="M31.5923 24.818C31.4827 24.818 31.3732 24.7843 31.2805 24.7253C31.0192 24.5484 30.9518 24.2029 31.1288 23.9416C35.9995 16.7198 37.7102 7.99796 36.2523 6.13562C31.9041 0.573871 24.5305 2.9334 23.8648 3.16935C23.8395 3.18621 23.8058 3.19463 23.7805 3.20306C23.435 3.31261 23.1738 3.11879 23.0727 2.89969C22.9547 2.63846 23.0558 2.32666 23.3002 2.18341C23.5109 2.057 25.744 1.32386 28.4069 1.35757C32.0642 1.39971 35.0894 2.807 37.1456 5.43619C39.227 8.09908 36.6653 17.7479 32.0726 24.5736C31.963 24.7338 31.7861 24.8265 31.6007 24.8265L31.5923 24.818Z" fill="white"/>
<path d="M31.8451 28.1632C31.0024 28.1632 30.2524 28.0452 29.7973 27.7756C29.317 27.4891 29.2327 27.1014 29.2159 26.8908C29.0895 24.7166 30.2524 24.2868 30.9013 24.1015C30.817 23.9835 30.7074 23.8486 30.5979 23.7138C30.2355 23.2588 29.7383 22.6436 29.3507 21.7082C29.2917 21.565 29.1063 21.2279 28.8872 20.8403C27.7075 18.7251 25.2552 14.3263 26.8395 12.0594C27.5642 11.0229 29.0052 10.6016 31.1119 10.8123C30.4378 8.85721 27.4125 3.01738 20.4772 2.8994C18.362 2.8657 16.6261 3.51457 15.3199 4.82916C12.3958 7.77857 12.4969 13.1465 12.4969 13.1971C12.4969 13.5089 12.261 13.7701 11.9492 13.7785C11.6374 13.7785 11.3762 13.5426 11.3677 13.2308C11.3677 12.9948 11.2497 7.33195 14.511 4.03703C16.0446 2.49491 18.0587 1.72807 20.494 1.7702C25.0446 1.84604 27.9687 4.15501 29.6288 6.08477C31.4321 8.18306 32.317 10.5005 32.3928 11.2757C32.4518 11.8993 31.9715 12.0173 31.9209 12.0257H31.7187C30.2945 11.7982 28.449 11.7308 27.7749 12.6999C26.5951 14.3853 28.8957 18.5144 29.8816 20.2756C30.1344 20.7307 30.3198 21.0593 30.4041 21.2616C30.7243 22.0453 31.1456 22.5678 31.4827 22.9891C31.7861 23.3683 32.0473 23.6885 32.14 24.0762C32.1906 24.1604 32.8226 25.0116 36.3619 24.2784C37.2973 24.0846 37.8534 24.2531 38.0304 24.784C38.3675 25.8037 36.5136 26.975 35.4855 27.4554C34.567 27.8767 33.1091 28.1464 31.8451 28.1464V28.1632ZM30.3451 26.7812C30.7664 27.1773 33.5052 27.1351 35.0052 26.4441C35.7636 26.0902 36.3029 25.6941 36.6147 25.4076C36.6063 25.4076 36.5978 25.4076 36.5894 25.4076C34.2636 25.888 32.6119 25.8205 31.6934 25.2138C31.6344 25.1717 31.5838 25.138 31.5333 25.0958C31.4406 25.1295 31.3563 25.1548 31.2973 25.1717C30.7749 25.3149 30.2777 25.4582 30.3451 26.7896V26.7812Z" fill="white"/>
<path d="M15.3441 29.7728C14.7711 29.7728 14.1644 29.6969 13.5408 29.5368C13.3638 29.4947 11.788 29.0649 11.8048 28.0621C11.8217 27.1436 13.1363 26.8655 13.6335 26.7644C15.3778 26.402 15.4874 26.2588 16.0267 25.5762C16.1868 25.3739 16.389 25.1211 16.6587 24.8178C17.5604 23.8065 18.4199 24.1605 18.7823 24.3122C19.3553 24.5481 19.8356 25.1211 20.0295 25.8037C20.2064 26.4189 20.1222 27.0172 19.7935 27.4807C18.7149 28.9891 17.1727 29.7728 15.3441 29.7728ZM13.0604 28.1127C13.229 28.2222 13.5071 28.3571 13.8188 28.4413C15.3273 28.8205 17.434 28.8458 18.875 26.8234C19.0435 26.5874 18.993 26.2756 18.9508 26.1155C18.8497 25.77 18.6137 25.4582 18.3609 25.3571C18.0491 25.2307 17.8806 25.1633 17.5098 25.5762C17.257 25.8543 17.0801 26.0818 16.9199 26.284C16.2289 27.1604 15.9087 27.4554 13.861 27.8852C13.4396 27.9694 13.1953 28.0621 13.052 28.1211L13.0604 28.1127Z" fill="white"/>
<path d="M17.0032 25.7361C16.7251 25.7361 16.4891 25.5338 16.447 25.2557C16.4386 25.1799 16.4301 25.104 16.4217 25.0282C15.0903 24.9945 13.8094 24.413 12.8319 23.4018C11.5847 22.1041 11.0201 20.3091 11.2813 18.4721C11.5594 16.4918 11.4583 14.7474 11.3993 13.812C11.3824 13.5508 11.374 13.3654 11.374 13.2306C11.374 13.062 11.374 12.5985 12.874 11.8401C13.3965 11.5705 14.4498 11.107 15.6043 10.989C17.5256 10.7868 18.7897 11.6463 19.1689 13.3991C20.1801 18.0844 19.2447 20.149 18.5706 21.6659C18.4442 21.944 18.3262 22.2136 18.2335 22.4664L18.1492 22.6939C17.7953 23.6462 17.4835 24.472 17.5762 25.0872C17.6268 25.399 17.4077 25.6855 17.1043 25.7361C17.079 25.7361 17.0453 25.7361 17.02 25.7361H17.0032ZM12.5116 13.3907C12.5116 13.4834 12.5201 13.6013 12.5285 13.7446C12.5875 14.7221 12.697 16.5423 12.4021 18.6322C12.1914 20.1237 12.6465 21.5816 13.6493 22.6265C14.4414 23.4524 15.4779 23.9074 16.5397 23.9074C16.6661 23.4018 16.8599 22.8709 17.0706 22.3063L17.1548 22.0788C17.2644 21.7838 17.3908 21.5058 17.5256 21.2108C18.1745 19.7614 18.9835 17.9665 18.0565 13.6435C17.8796 12.8092 17.4414 12.3289 16.7335 12.1603C15.1745 11.8064 12.9835 12.9777 12.5116 13.3907Z" fill="white"/>
<path d="M15.6302 13.1463C15.6049 13.3318 15.9673 13.829 16.4477 13.888C16.9197 13.9555 17.3327 13.5678 17.358 13.3823C17.3833 13.1969 17.0208 12.9946 16.5404 12.9272C16.0684 12.8598 15.6554 12.9609 15.6302 13.1463Z" fill="white"/>
<path d="M16.549 14.0821C16.5069 14.0821 16.4647 14.0821 16.4226 14.0736C16.1192 14.0315 15.8242 13.8461 15.6135 13.5679C15.5376 13.4752 15.4196 13.2814 15.4449 13.1128C15.4533 13.0454 15.487 12.9527 15.5966 12.8768C15.782 12.7335 16.1613 12.6829 16.5659 12.7419C16.8187 12.7757 17.0547 12.8515 17.2317 12.9442C17.5351 13.1128 17.5604 13.3066 17.5436 13.4078C17.5014 13.6944 17.0463 14.0821 16.549 14.0821ZM15.8242 13.1802C15.8495 13.3066 16.1276 13.6522 16.4732 13.7028C16.8272 13.7534 17.1221 13.4752 17.1643 13.3656C17.1221 13.3066 16.903 13.1634 16.5153 13.1128C16.1276 13.0622 15.8832 13.1296 15.8242 13.1802Z" fill="white"/>
<path d="M30.108 12.7674C30.1333 12.9529 29.7708 13.4501 29.2904 13.5091C28.8184 13.5766 28.4054 13.1889 28.3802 13.0034C28.3549 12.818 28.7173 12.6157 29.1977 12.5483C29.6781 12.4809 30.0827 12.582 30.108 12.7674Z" fill="white"/>
<path d="M29.1891 13.6103C28.7171 13.6103 28.3209 13.2395 28.2956 13.0203C28.2535 12.7422 28.7171 12.5231 29.1891 12.4556C29.661 12.3882 30.1667 12.4725 30.2005 12.7506C30.2173 12.877 30.1246 13.0709 29.956 13.2479C29.8465 13.3659 29.6189 13.5598 29.3071 13.6019C29.2649 13.6019 29.2228 13.6019 29.1891 13.6019V13.6103ZM29.5009 12.6242C29.4166 12.6242 29.3239 12.6242 29.2228 12.6411C28.7255 12.7085 28.4726 12.9108 28.4895 12.9866C28.5064 13.113 28.8688 13.467 29.2902 13.408C29.543 13.3743 29.7369 13.2058 29.8296 13.1046C29.9729 12.9529 30.0319 12.8096 30.0235 12.7675C30.015 12.7001 29.8296 12.6158 29.5009 12.6158V12.6242Z" fill="white"/>
<path d="M30.7887 23.4363C30.6791 23.4363 30.5696 23.4026 30.4769 23.3436C30.2157 23.1666 30.1483 22.8211 30.3252 22.5599C31.4291 20.9082 31.2269 19.2144 31.0331 17.5796C30.9488 16.8802 30.8645 16.1555 30.8814 15.456C30.9067 14.7397 30.9994 14.1499 31.0836 13.5768C31.1848 12.9027 31.2859 12.2707 31.2438 11.5122C31.2269 11.2004 31.4628 10.9308 31.7746 10.9139C32.0864 10.8971 32.3561 11.133 32.373 11.4448C32.4235 12.3128 32.3055 13.0375 32.2044 13.7369C32.1201 14.2763 32.0359 14.8324 32.019 15.4813C32.0022 16.0965 32.078 16.7453 32.1623 17.4363C32.373 19.1891 32.6089 21.1779 31.269 23.1751C31.1595 23.3352 30.9825 23.4279 30.7971 23.4279L30.7887 23.4363Z" fill="white"/>
</g>
<defs>
<clipPath id="clip0_915_70868">
<rect width="195" height="40.4564" fill="white" transform="translate(0 0.271484)"/>
</clipPath>
</defs>
</svg>
