<svg width="159" height="51" viewBox="0 0 159 51" fill="none" xmlns="http://www.w3.org/2000/svg">
<g clip-path="url(#clip0_915_71365)">
<path d="M9.26565 43.6827C7.46367 43.685 5.70917 43.1049 4.26372 42.0289V50.5001H0.875V23.2311H3.73862L4.02148 25.2475C4.95057 23.9564 7.12741 22.8271 9.50794 22.8271C15.3966 22.8271 16.9292 27.5878 16.9292 33.2353C16.9296 39.5272 14.8323 43.6827 9.26565 43.6827ZM4.26372 39.3669C5.55335 40.3778 7.14256 40.9311 8.78117 40.9398C12.694 40.9398 13.5409 37.8748 13.5409 33.1957C13.5409 28.5165 12.8151 25.5706 9.02341 25.5706C7.24676 25.6177 5.55074 26.3222 4.26372 27.5479V39.3669ZM31.2892 26.0548C29.1191 26.4662 27.0154 27.1724 25.0367 28.1538V43.2398H21.6487V23.2328H24.4322L24.7945 25.5727C26.0051 24.3635 28.2238 23.1935 30.8456 22.951L31.2892 26.0548ZM36.6135 34.7283C36.8159 38.9632 37.8643 40.9797 41.9382 40.9797C43.9526 40.9551 45.9465 40.573 47.8272 39.851L48.3517 42.4318C46.2882 43.2118 44.1034 43.6218 41.8976 43.6431C34.6772 43.6431 33.2261 38.7224 33.2261 33.1134C33.2261 27.3459 35.1218 22.8271 41.2538 22.8271C46.6993 22.8271 48.958 26.6594 48.958 31.4597V34.7287H36.6149L36.6135 34.7283ZM36.6135 32.0663H45.6893V31.3396C45.6893 27.628 44.5193 25.3697 41.2118 25.3697C37.4614 25.3697 36.6545 28.0719 36.6139 32.066L36.6135 32.0663ZM58.5565 43.6431C56.5397 43.6431 53.9578 43.1992 52.2249 42.3111L52.8701 39.6497C54.6096 40.4337 56.4893 40.8591 58.3968 40.9006C61.0581 40.9006 62.471 40.1742 62.471 37.9151C62.471 35.7765 61.0189 35.1323 58.3159 34.4861C53.9193 33.4383 52.2659 31.9053 52.2659 28.4763C52.2659 24.7255 54.3229 22.8288 59.0014 22.8288C60.9373 22.8288 62.9954 23.1922 64.4066 23.8363L63.8419 26.54C62.3258 25.936 60.7139 25.6079 59.0822 25.5713C56.5407 25.5713 55.5724 26.2571 55.5724 28.2743C55.5724 30.3733 56.5407 30.7752 59.4043 31.5433C63.3168 32.5921 65.7775 33.8423 65.7775 37.6753C65.7768 41.8668 62.7115 43.6417 58.5568 43.6417L58.5565 43.6431ZM80.2176 43.0375C78.881 43.4283 77.4967 43.6316 76.1042 43.6417C72.6755 43.6417 71.2234 41.745 71.2234 38.6391V25.976H67.7544V23.2317H71.2234V18.3499L74.6114 17.8682V23.2321H80.2988L80.0166 25.9763H74.6114V38.4801C74.6114 40.3349 75.0553 40.9006 76.9104 40.9006C77.9301 40.8697 78.9439 40.734 79.9358 40.4955L80.2176 43.0375ZM91.4307 43.6431C85.6218 43.6431 83.0001 39.2871 83.0001 33.2359C83.0001 27.1848 85.6221 22.8285 91.4307 22.8285C97.2392 22.8285 99.8613 27.1845 99.8613 33.2359C99.8613 39.2874 97.2395 43.6417 91.431 43.6417L91.4307 43.6431ZM91.4307 25.5706C87.2357 25.5706 86.3878 28.9993 86.3878 33.2356C86.3878 37.4719 87.2357 40.9002 91.4307 40.9002C95.6257 40.9002 96.4728 37.4705 96.4728 33.2356C96.4728 29.0007 95.626 25.5703 91.431 25.5703L91.4307 25.5706Z" fill="black"/>
<path d="M137.309 5.37196C138.206 4.4751 138.206 3.02099 137.309 2.12413C136.412 1.22727 134.958 1.22727 134.061 2.12413C133.165 3.02099 133.165 4.4751 134.061 5.37196C134.958 6.26883 136.412 6.26883 137.309 5.37196Z" fill="#5D88D6"/>
<path d="M143.803 11.8648C144.8 10.8683 144.8 9.25277 143.803 8.25633C142.807 7.25989 141.191 7.25989 140.195 8.25633C139.198 9.25277 139.198 10.8683 140.195 11.8648C141.191 12.8612 142.807 12.8612 143.803 11.8648Z" fill="#5D88D6"/>
<path d="M150.297 18.3602C151.392 17.2644 151.392 15.4876 150.297 14.3917C149.201 13.2958 147.424 13.2958 146.328 14.3917C145.232 15.4876 145.232 17.2644 146.328 18.3602C147.424 19.4561 149.201 19.4561 150.297 18.3602Z" fill="#5D88D6"/>
<path d="M156.783 24.8462C157.978 23.6508 157.978 21.7125 156.783 20.5171C155.587 19.3216 153.649 19.3216 152.454 20.5171C151.258 21.7125 151.258 23.6508 152.454 24.8462C153.649 26.0417 155.587 26.0417 156.783 24.8462Z" fill="#5D88D6"/>
<path d="M124.507 5.19191C125.305 4.39448 125.305 3.10161 124.507 2.30419C123.71 1.50677 122.417 1.50677 121.62 2.30419C120.822 3.10161 120.822 4.39448 121.62 5.19191C122.417 5.98933 123.71 5.98933 124.507 5.19191Z" fill="#32DBFC"/>
<path d="M131.001 11.6845C131.898 10.7876 131.898 9.33349 131.001 8.43663C130.104 7.53977 128.65 7.53977 127.753 8.43663C126.856 9.33349 126.856 10.7876 127.753 11.6845C128.65 12.5813 130.104 12.5813 131.001 11.6845Z" fill="#32DBFC"/>
<path d="M137.491 18.1734C138.487 17.1769 138.487 15.5614 137.491 14.5649C136.494 13.5685 134.879 13.5685 133.882 14.5649C132.886 15.5614 132.886 17.1769 133.882 18.1734C134.879 19.1698 136.494 19.1698 137.491 18.1734Z" fill="#32DBFC"/>
<path d="M143.98 24.663C145.076 23.5671 145.076 21.7903 143.98 20.6944C142.884 19.5986 141.108 19.5986 140.012 20.6944C138.916 21.7903 138.916 23.5671 140.012 24.663C141.108 25.7589 142.884 25.7589 143.98 24.663Z" fill="#32DBFC"/>
<path d="M150.474 31.1607C151.67 29.9652 151.67 28.027 150.474 26.8315C149.279 25.6361 147.341 25.6361 146.145 26.8315C144.95 28.027 144.95 29.9652 146.145 31.1607C147.341 32.3561 149.279 32.3561 150.474 31.1607Z" fill="#32DBFC"/>
<path d="M111.713 5.01844C112.41 4.3206 112.41 3.18917 111.713 2.49132C111.015 1.79348 109.883 1.79348 109.185 2.49132C108.488 3.18917 108.488 4.3206 109.185 5.01844C109.883 5.71629 111.015 5.71629 111.713 5.01844Z" fill="black"/>
<path d="M118.199 11.5015C118.996 10.7041 118.996 9.41118 118.199 8.61376C117.401 7.81634 116.108 7.81634 115.311 8.61376C114.514 9.41118 114.514 10.7041 115.311 11.5015C116.108 12.2989 117.401 12.2989 118.199 11.5015Z" fill="black"/>
<path d="M124.696 17.9989C125.593 17.1021 125.593 15.6479 124.696 14.7511C123.799 13.8542 122.345 13.8542 121.448 14.7511C120.551 15.6479 120.551 17.1021 121.448 17.9989C122.345 18.8958 123.799 18.8958 124.696 17.9989Z" fill="black"/>
<path d="M131.186 24.4898C132.183 23.4933 132.183 21.8778 131.186 20.8813C130.19 19.8849 128.574 19.8849 127.578 20.8813C126.581 21.8778 126.581 23.4933 127.578 24.4898C128.574 25.4862 130.19 25.4862 131.186 24.4898Z" fill="black"/>
<path d="M137.675 30.9813C138.771 29.8855 138.771 28.1087 137.675 27.0128C136.58 25.9169 134.803 25.9169 133.707 27.0128C132.611 28.1087 132.611 29.8855 133.707 30.9813C134.803 32.0772 136.58 32.0772 137.675 30.9813Z" fill="black"/>
<path d="M144.162 37.4634C145.357 36.2679 145.357 34.3297 144.162 33.1343C142.966 31.9388 141.028 31.9388 139.833 33.1343C138.637 34.3297 138.637 36.2679 139.833 37.4634C141.028 38.6589 142.966 38.6589 144.162 37.4634Z" fill="black"/>
<path d="M124.507 30.4312C125.305 29.6337 125.305 28.3409 124.507 27.5434C123.71 26.746 122.417 26.746 121.62 27.5434C120.822 28.3409 120.822 29.6337 121.62 30.4312C122.417 31.2286 123.71 31.2286 124.507 30.4312Z" fill="#5D88D6"/>
<path d="M116.757 37.3397C117.884 37.3397 118.799 36.4255 118.799 35.2978C118.799 34.1701 117.884 33.2559 116.757 33.2559C115.629 33.2559 114.715 34.1701 114.715 35.2978C114.715 36.4255 115.629 37.3397 116.757 37.3397Z" fill="#5D88D6"/>
<path d="M110.448 43.6532C111.576 43.6532 112.49 42.739 112.49 41.6113C112.49 40.4835 111.576 39.5693 110.448 39.5693C109.32 39.5693 108.406 40.4835 108.406 41.6113C108.406 42.739 109.32 43.6532 110.448 43.6532Z" fill="#5D88D6"/>
<path d="M123.065 43.6503C124.193 43.6503 125.107 42.7361 125.107 41.6083C125.107 40.4806 124.193 39.5664 123.065 39.5664C121.938 39.5664 121.023 40.4806 121.023 41.6083C121.023 42.7361 121.938 43.6503 123.065 43.6503Z" fill="#5D88D6"/>
<path d="M137.132 43.0562C137.93 42.2587 137.93 40.9659 137.132 40.1684C136.335 39.371 135.042 39.371 134.245 40.1684C133.447 40.9659 133.447 42.2587 134.245 43.0562C135.042 43.8536 136.335 43.8536 137.132 43.0562Z" fill="#5D88D6"/>
<path d="M130.82 36.7407C131.617 35.9433 131.617 34.6504 130.82 33.853C130.022 33.0556 128.73 33.0556 127.932 33.853C127.135 34.6504 127.135 35.9433 127.932 36.7407C128.73 37.5382 130.022 37.5382 130.82 36.7407Z" fill="#5D88D6"/>
</g>
<defs>
<clipPath id="clip0_915_71365">
<rect width="158.072" height="50" fill="white" transform="translate(0.875 0.5)"/>
</clipPath>
</defs>
</svg>
