<svg width="196" height="39" viewBox="0 0 196 39" fill="none" xmlns="http://www.w3.org/2000/svg">
<g clip-path="url(#clip0_915_71389)">
<path d="M53.6069 12.6846H40.5946C37.0776 5.93845 33.3598 0.702148 28.2981 0.702148C21.709 0.702148 18.6109 6.45336 15.6175 12.0475L15.3557 12.5362H0.371094V15.8613H9.09827C12.179 15.8613 12.8073 16.8998 12.8073 16.8998C10.3899 20.6525 7.48374 24.3615 2.64016 24.3615H0.371094V27.8524H2.65761C12.0481 27.8524 16.1498 20.2336 19.44 14.1158C22.4596 8.47806 24.5628 5.06574 28.2981 5.06574C32.1729 5.06574 36.2485 13.4962 39.8354 20.9405C40.359 22.0226 40.8914 23.131 41.4325 24.2306C27.6784 24.667 21.1243 27.8873 15.792 30.5142C11.891 32.4342 8.81027 34.8167 3.73978 34.8167H0.371094V38.3075H3.7136C9.82262 38.3075 13.6277 36.4225 17.6771 34.424C23.2887 31.6662 29.6508 28.5418 44.6441 28.5418H53.3101V25.051H48.4142C48.0119 25.0814 47.6081 25.0185 47.2342 24.8671C46.8602 24.7157 46.5264 24.48 46.2586 24.1782C45.4033 22.5201 44.5655 20.7747 43.7452 19.0292L42.6106 16.7078C42.6106 16.7078 43.4222 15.8351 45.6739 15.8351H53.6069V12.6846Z" fill="#188FFF"/>
<path d="M70.0402 12.6585H60.9727V15.9225H69.8395C73.5049 15.9225 75.6081 17.5894 75.6081 20.5741C75.6081 23.4017 73.2867 25.2257 69.6998 25.2257H60.9727V36.571H64.4635V28.4547H69.6387C74.3689 28.4547 79.1339 25.9849 79.1339 20.4083C79.1077 15.6956 75.547 12.6585 70.0402 12.6585ZM99.2588 26.5086C99.2588 31.1427 96.9373 33.6998 92.7308 33.6998C88.5243 33.6998 86.0982 31.0205 86.0982 26.3427V12.6585H82.6073V26.5086C82.6073 32.9579 86.4473 36.9812 92.6348 36.9812C98.8224 36.9812 102.723 32.9929 102.723 26.3078V12.6585H99.2326L99.2588 26.5086ZM111.494 12.6585H108.03V36.6059H124.489V33.3332H111.494V12.6585ZM137.117 22.9566C132.108 21.8832 131.192 20.7486 131.192 18.8199C131.192 16.8912 133.024 15.5385 135.642 15.5385C137.993 15.5411 140.263 16.397 142.031 17.9472L142.38 18.2265L144.439 15.5385L144.116 15.2767C141.779 13.2977 138.791 12.2533 135.73 12.3444C131.087 12.3444 127.718 15.172 127.718 19.1428C127.718 23.5588 130.956 25.1733 135.808 26.2293C140.66 27.2853 141.472 28.3587 141.472 30.2612C141.472 32.3209 139.535 33.7521 136.751 33.7521C133.81 33.7521 131.602 32.8794 129.123 30.5929L128.792 30.2962L126.618 32.8707L126.933 33.1499C129.555 35.6347 133.042 36.9997 136.655 36.955C141.551 36.955 144.963 34.0925 144.963 29.9732C144.972 26.238 142.624 24.1522 137.117 22.9566ZM157.626 12.4927L146.717 36.6059H150.33L153.071 30.4969H165.079L167.785 36.6059H171.529L160.62 12.4927H157.626ZM154.476 27.3289L159.092 17.0308L163.683 27.3289H154.476ZM188.163 27.0147C191.906 26.142 194.114 23.5239 194.114 19.937C194.133 19.0427 193.975 18.1535 193.648 17.3208C193.321 16.488 192.833 15.728 192.212 15.0847C190.331 13.4019 187.864 12.5272 185.344 12.6498H174.984V36.6059H178.475V27.6256H184.427L191.121 36.5972H195.397L188.163 27.0147ZM178.44 24.3966V15.9225H185.134C188.625 15.9225 190.615 17.4236 190.615 20.1115C190.615 22.7995 188.451 24.4751 185.108 24.4751L178.44 24.3966Z" fill="#464E56"/>
</g>
<defs>
<clipPath id="clip0_915_71389">
<rect width="195" height="37.5967" fill="white" transform="translate(0.371094 0.702148)"/>
</clipPath>
</defs>
</svg>
