<svg width="168" height="41" viewBox="0 0 168 41" fill="none" xmlns="http://www.w3.org/2000/svg">
<g clip-path="url(#clip0_915_71394)">
<path d="M139.955 30.306C146.255 30.306 149.989 26.388 149.989 19.8918C149.989 13.4161 146.255 9.51841 140.096 9.51841H132.949V30.306H139.955ZM136.694 27.0477V12.7766H139.884C144.084 12.7766 146.275 15.1314 146.275 19.8918C146.275 24.6726 144.084 27.0477 139.773 27.0477H136.694ZM152.087 30.306H160.456C165.191 30.306 167.513 27.8801 167.513 24.6422C167.513 21.4957 165.291 19.6483 163.09 19.5366V19.3337C165.11 18.8565 166.705 17.4356 166.705 14.9081C166.705 11.8123 164.484 9.51841 160.001 9.51841H152.087V30.306ZM155.833 27.1594V21.0694H159.961C162.274 21.0694 163.707 22.4903 163.707 24.3478C163.707 26.0024 162.576 27.1594 159.859 27.1594H155.833ZM155.833 18.3593V12.6243H159.618C161.818 12.6243 162.959 13.7916 162.959 15.3953C162.959 17.2224 161.485 18.3593 159.537 18.3593H155.833ZM72.1223 19.9333C72.1223 13.3525 68.1281 9.47559 62.8189 9.47559C57.4999 9.47559 53.5156 13.3526 53.5156 19.9333C53.5156 26.5041 57.4999 30.3911 62.8189 30.3911C64.1042 30.3911 65.3104 30.1624 66.4078 29.7249L68.0786 31.8623H71.6377L68.83 28.2438C70.8667 26.4545 72.1223 23.6213 72.1223 19.9333ZM61.5731 23.2735L64.3118 26.8918C63.8372 27.021 63.3429 27.0807 62.8189 27.0807C59.5266 27.0807 57.2033 24.5658 57.2033 19.9333C57.2033 15.3009 59.5266 12.7858 62.8189 12.7858C66.121 12.7858 68.4345 15.3009 68.4345 19.9333C68.4345 22.4384 67.7623 24.3171 66.6154 25.52L64.8951 23.2735H61.5731ZM83.9378 23.4186C83.9378 25.7448 82.2868 26.8979 80.7049 26.8979C78.9846 26.8979 77.8377 25.6753 77.8377 23.7368V14.5714H74.2588V24.2935C74.2588 27.9617 76.3059 30.1472 79.2916 30.1472C81.5655 30.1472 83.1963 28.8364 83.8885 27.1266H84.0467V30.1472H87.5169V14.5713H83.9378V23.4186ZM97.0054 30.4109C100.545 30.4109 102.977 28.6712 103.61 26.0171L100.268 25.6393C99.7835 26.9316 98.5972 27.6076 97.0548 27.6076C94.7413 27.6076 93.2089 26.0767 93.1792 23.4623H103.758V22.3588C103.758 17.0008 100.555 14.6448 96.8175 14.6448C92.4674 14.6448 89.63 17.8557 89.63 22.5676C89.63 27.3591 92.4279 30.4109 97.0054 30.4109ZM93.1891 21.0367C93.2978 19.0883 94.7315 17.4482 96.867 17.4482C98.9234 17.4482 100.308 18.9591 100.327 21.0367H93.1891ZM118.304 18.8795C117.809 16.295 115.753 14.6448 112.194 14.6448C108.536 14.6448 106.044 16.454 106.054 19.2771C106.044 21.504 107.409 22.9752 110.325 23.5816L112.915 24.1283C114.309 24.4364 114.962 25.0031 114.962 25.868C114.962 26.9118 113.835 27.6971 112.134 27.6971C110.493 27.6971 109.425 26.9813 109.119 25.6094L105.629 25.9475C106.074 28.7508 108.417 30.4109 112.144 30.4109C115.941 30.4109 118.62 28.4326 118.63 25.5399C118.62 23.3629 117.226 22.0308 114.359 21.4045L111.769 20.8479C110.226 20.4999 109.613 19.9631 109.623 19.0784C109.613 18.0445 110.75 17.3289 112.243 17.3289C113.894 17.3289 114.764 18.2335 115.041 19.2374L118.304 18.8795ZM129.2 14.8436H126.204V11.1854H122.625V14.8436H120.47V17.627H122.625V26.1164C122.605 28.9894 124.682 30.401 127.371 30.3214C128.389 30.2916 129.091 30.0928 129.477 29.9635L128.874 27.1504C128.676 27.2 128.27 27.2894 127.826 27.2894C126.926 27.2894 126.204 26.9714 126.204 25.52V17.627H129.2V14.8436Z" fill="black"/>
<mask id="mask0_915_71394" style="mask-type:luminance" maskUnits="userSpaceOnUse" x="0" y="0" width="48" height="41">
<path d="M0.898438 0.615234H47.0928V40.4815H0.898438V0.615234Z" fill="white"/>
</mask>
<g mask="url(#mask0_915_71394)">
<path d="M8.47766 20.5164C8.47766 13.6055 14.1622 8.03827 21.2187 8.03827C23.767 8.03827 26.1191 8.74216 28.0792 10.022L33.5677 4.71064C30.1701 2.15106 25.8577 0.615234 21.2187 0.615234C9.98056 0.615234 0.898438 9.50993 0.898438 20.5164C0.898438 31.5229 9.98042 40.4176 21.2187 40.4176V32.9947C14.1622 32.9947 8.47766 27.4275 8.47766 20.5164Z" fill="url(#paint0_linear_915_71394)"/>
<path d="M33.9583 20.5168H41.5376C41.5376 15.2696 39.4467 10.4702 36.0491 6.88672L30.6914 12.1341C32.7168 14.3738 33.9583 17.3172 33.9583 20.5168Z" fill="url(#paint1_linear_915_71394)"/>
<path d="M27.4268 21.1562H16.2539L35.9861 40.4816L47.0936 40.4176L27.4268 21.1562Z" fill="url(#paint2_linear_915_71394)"/>
<path opacity="0.6" d="M3.57792 10.5986C-1.32243 24.5487 13.3133 30.3719 13.3133 30.3719C11.7453 29.22 9.78499 26.5325 9.197 24.6126C7.95559 20.6453 8.34753 17.5097 10.373 14.0542" fill="url(#paint3_linear_915_71394)"/>
</g>
</g>
<defs>
<linearGradient id="paint0_linear_915_71394" x1="46.6355" y1="40.5446" x2="11.0623" y2="3.70074" gradientUnits="userSpaceOnUse">
<stop stop-color="#892C6C"/>
<stop offset="1" stop-color="#D14671"/>
</linearGradient>
<linearGradient id="paint1_linear_915_71394" x1="9.06427" y1="2.97506" x2="45.9081" y2="40.0004" gradientUnits="userSpaceOnUse">
<stop stop-color="#C34170"/>
<stop offset="1" stop-color="#8B2C6C"/>
</linearGradient>
<linearGradient id="paint2_linear_915_71394" x1="45.003" y1="39.6371" x2="7.43328" y2="2.97476" gradientUnits="userSpaceOnUse">
<stop stop-color="#882B6B"/>
<stop offset="1" stop-color="#CF4671"/>
</linearGradient>
<linearGradient id="paint3_linear_915_71394" x1="5.77651" y1="27.6918" x2="10.9016" y2="13.161" gradientUnits="userSpaceOnUse">
<stop stop-color="white" stop-opacity="0.38"/>
<stop offset="0.86" stop-color="white" stop-opacity="0.01"/>
<stop offset="1" stop-color="white" stop-opacity="0"/>
</linearGradient>
<clipPath id="clip0_915_71394">
<rect width="166.784" height="40" fill="white" transform="translate(0.792969 0.5)"/>
</clipPath>
</defs>
</svg>
