<svg width="196" height="33" viewBox="0 0 196 33" fill="none" xmlns="http://www.w3.org/2000/svg">
<g clip-path="url(#clip0_915_70963)">
<path d="M194.708 27.294L193.33 31.5962H192.906L191.52 27.294V31.5962H191.148V26.9229H191.823L193.133 31.0205L194.443 26.9229H195.102V31.5962H194.731V27.294H194.708Z" fill="#A9B5AF"/>
<path d="M190.704 26.9229H188.78H188.408H186.492V27.294H188.408V31.5962H188.78V27.294H190.704V26.9229Z" fill="#A9B5AF"/>
<path d="M146.234 31.5272H143.493L134.479 3.89617V31.5272H132.078V1.49512H136.388L144.78 27.7855H144.871L153.294 1.49512H157.505V31.5272H155.127V3.89617L146.234 31.5272Z" fill="#A9B5AF"/>
<path d="M35.4961 1.48828V31.5279H38.1016V17.9472H41.707C42.6609 17.929 43.6102 18.083 44.5095 18.4017C47.1681 19.409 47.471 22.4918 47.9482 24.4611L49.4631 31.5658H52.0838L50.3796 23.4613C49.8797 21.0224 49.5464 19.9771 48.8647 18.9167C47.9634 17.5155 45.3881 16.758 45.3881 16.758C49.6146 15.9324 51.4475 13.0997 51.4475 9.23678C51.4475 5.69201 49.7282 1.54888 41.8358 1.54888H35.4961V1.48828ZM38.1016 3.88176H41.5404C48.4103 3.88176 48.8117 7.53256 48.8117 9.18376C48.8117 10.5547 48.5617 15.5537 40.48 15.5537H38.1016V3.88933V3.88176Z" fill="#FF6600"/>
<path d="M55.1809 15.7733H57.8471C58.0894 14.5614 58.6045 12.4103 62.1568 12.4103C66.8075 12.4103 66.656 16.4398 66.656 18.0001V19.818C66.656 19.818 65.1411 19.818 64.2019 19.9089C60.6496 20.1815 54.8477 21.1056 54.8477 26.4606C54.8477 31.8156 59.2862 31.9974 60.1497 31.9974C61.4253 32.0186 62.6858 31.719 63.8156 31.1264C64.9316 30.521 65.8831 29.6526 66.5878 28.5966H66.6787V31.5278H68.8374V17.379C68.8374 15.2658 69.0343 10.335 62.3613 10.335C55.6884 10.335 55.1809 14.7886 55.1809 15.7733ZM66.6484 21.8933C66.6475 22.6935 66.5969 23.4929 66.4969 24.2868C66.2793 25.7085 65.5587 27.0049 64.4662 27.9404C63.3737 28.8758 61.9818 29.3882 60.5435 29.3843C60.1528 29.4213 59.7587 29.3761 59.3866 29.2516C59.0144 29.127 58.6725 28.9259 58.3828 28.6612C58.0931 28.3965 57.8621 28.074 57.7046 27.7145C57.5471 27.3551 57.4666 26.9667 57.4684 26.5742C57.4684 25.476 57.8925 22.9083 62.1114 22.0978C62.9976 21.9312 66.6484 21.8933 66.6484 21.8933Z" fill="#FF6600"/>
<path d="M72.4138 1.48828V23.0447C72.4138 24.2111 72.4517 32.0051 79.6321 32.0051C81.3591 32.0051 87.6609 31.3991 87.6609 21.4011C87.6609 11.403 82.1316 10.3502 80.4653 10.3502C79.154 10.344 77.8771 10.7692 76.8314 11.5604C75.7857 12.3515 75.0292 13.4646 74.6785 14.7281H74.6028V1.48828H72.4062H72.4138ZM85.0402 21.3405C85.0402 29.7252 80.3592 29.8994 79.6321 29.8994C78.905 29.8994 74.6861 29.8994 74.6861 21.6813C74.6861 14.8645 77.9658 12.4028 80.2229 12.4028C82.48 12.4028 85.0402 14.7281 85.0402 21.3481V21.3405Z" fill="#FF6600"/>
<path d="M91.0383 1.48828V23.0447C91.0383 24.2111 91.0762 32.0051 98.2566 32.0051C99.9836 32.0051 106.285 31.3991 106.285 21.4011C106.285 11.403 100.756 10.3502 99.0898 10.3502C97.7786 10.344 96.5017 10.7692 95.4559 11.5604C94.4102 12.3515 93.6537 13.4646 93.3031 14.7281H93.2122V1.48828H91.0156H91.0383ZM103.665 21.3405C103.665 29.7252 98.9838 29.8994 98.2566 29.8994C97.5295 29.8994 93.3106 29.8994 93.3106 21.6813C93.3106 14.8645 96.5903 12.4028 98.8474 12.4028C101.105 12.4028 103.657 14.7281 103.657 21.3481L103.665 21.3405Z" fill="#FF6600"/>
<path d="M112.15 10.8047V31.5279H109.977V10.8047H112.15Z" fill="#FF6600"/>
<path d="M112.649 1.49512V5.01716H109.438V1.49512H112.649Z" fill="#FF6600"/>
<path d="M127.298 31.815C126.565 31.9164 125.826 31.9796 125.086 32.0044C123.615 32.0935 122.157 31.6736 120.958 30.8152C120.05 30.0578 119.603 28.7247 119.603 26.8993V12.8793H116.285V10.8039H119.603V6.017L121.761 4.57031V10.7964H127.298V12.8717H121.769V26.2025C121.769 26.8008 121.625 29.8911 124.905 29.8911C125.716 29.8828 126.522 29.7578 127.298 29.52V31.7923V31.815Z" fill="#FF6600"/>
<path d="M29.1499 13.395H19.4776C19.3181 13.396 19.1601 13.3653 19.0126 13.3048C18.8651 13.2442 18.7311 13.155 18.6184 13.0423C18.5057 12.9295 18.4164 12.7955 18.3559 12.6481C18.2953 12.5006 18.2647 12.3425 18.2657 12.1831V2.51074C18.2657 2.35195 18.2343 2.19472 18.1733 2.04811C18.1123 1.9015 18.0229 1.7684 17.9103 1.65647C17.7976 1.54454 17.664 1.45599 17.517 1.39592C17.37 1.33584 17.2126 1.30543 17.0538 1.30643H13.4333C13.2745 1.30543 13.1171 1.33584 12.9701 1.39592C12.8231 1.45599 12.6894 1.54454 12.5768 1.65647C12.4642 1.7684 12.3748 1.9015 12.3138 2.04811C12.2528 2.19472 12.2214 2.35195 12.2214 2.51074V12.1831C12.2224 12.3425 12.1917 12.5006 12.1312 12.6481C12.0707 12.7955 11.9814 12.9295 11.8687 13.0423C11.756 13.155 11.622 13.2442 11.4745 13.3048C11.327 13.3653 11.1689 13.396 11.0095 13.395H7.389C7.22957 13.396 7.07153 13.3653 6.92405 13.3048C6.77656 13.2442 6.64256 13.155 6.52983 13.0423C6.41709 12.9295 6.32786 12.7955 6.26732 12.6481C6.20677 12.5006 6.17611 12.3425 6.17712 12.1831V2.51074C6.17812 2.35131 6.14746 2.19327 6.08692 2.04578C6.02637 1.89829 5.93714 1.7643 5.82441 1.65156C5.71167 1.53883 5.57767 1.4496 5.43019 1.38905C5.2827 1.32851 5.12466 1.29785 4.96523 1.29885H1.33715C1.17836 1.29885 1.02113 1.33025 0.874522 1.39124C0.727912 1.45224 0.594812 1.54163 0.482882 1.65426C0.370952 1.76689 0.282401 1.90055 0.222326 2.04754C0.162251 2.19453 0.131838 2.35195 0.132836 2.51074V30.3235C0.131831 30.4829 0.16249 30.641 0.223037 30.7885C0.283584 30.936 0.372812 31.07 0.485547 31.1827C0.598282 31.2954 0.732279 31.3847 0.879766 31.4452C1.02725 31.5057 1.18529 31.5364 1.34472 31.5354H29.1499C29.3094 31.5364 29.4674 31.5057 29.6149 31.4452C29.7624 31.3847 29.8964 31.2954 30.0091 31.1827C30.1218 31.07 30.2111 30.936 30.2716 30.7885C30.3322 30.641 30.3628 30.4829 30.3618 30.3235V14.6296C30.3659 14.4683 30.3375 14.3078 30.2783 14.1576C30.2191 14.0075 30.1304 13.8708 30.0173 13.7556C29.9043 13.6405 29.7693 13.5492 29.6202 13.4873C29.4712 13.4253 29.3113 13.3939 29.1499 13.395ZM24.2872 23.6657C24.2882 23.9041 24.2421 24.1403 24.1516 24.3608C24.0611 24.5813 23.9279 24.7818 23.7597 24.9507C23.5915 25.1196 23.3916 25.2536 23.1715 25.345C22.9514 25.4365 22.7153 25.4835 22.477 25.4835H20.0532C19.8148 25.4835 19.5788 25.4365 19.3587 25.345C19.1386 25.2536 18.9387 25.1196 18.7705 24.9507C18.6023 24.7818 18.4691 24.5813 18.3786 24.3608C18.288 24.1403 18.242 23.9041 18.243 23.6657V21.2495C18.242 21.0112 18.288 20.7749 18.3786 20.5544C18.4691 20.3339 18.6023 20.1335 18.7705 19.9646C18.9387 19.7957 19.1386 19.6617 19.3587 19.5702C19.5788 19.4788 19.8148 19.4317 20.0532 19.4317H22.477C22.7153 19.4317 22.9514 19.4788 23.1715 19.5702C23.3916 19.6617 23.5915 19.7957 23.7597 19.9646C23.9279 20.1335 24.0611 20.3339 24.1516 20.5544C24.2421 20.7749 24.2882 21.0112 24.2872 21.2495V23.6657Z" fill="#FF6600"/>
<path d="M177.484 29.4898C180.263 27.1115 181.748 22.673 181.748 16.2727C181.748 6.94877 178.226 0.972656 171.651 0.972656C165.486 0.972656 161.191 5.97926 161.191 16.2727C161.191 26.5662 164.842 31.5425 171.47 31.5425H171.75H183.869V29.0202L177.484 29.4898ZM164.047 16.2803C164.047 7.72134 166.493 3.56306 171.621 3.56306C176.749 3.56306 178.862 8.53179 178.862 16.2803C178.862 24.0288 176.999 29.0202 171.492 29.0202C165.986 29.0202 164.047 24.8392 164.047 16.2803Z" fill="#A9B5AF"/>
</g>
<defs>
<clipPath id="clip0_915_70963">
<rect width="195" height="31.0394" fill="white" transform="translate(0.132812 0.980469)"/>
</clipPath>
</defs>
</svg>
