<svg width="196" height="41" viewBox="0 0 196 41" fill="none" xmlns="http://www.w3.org/2000/svg">
<path d="M38.7427 7.97418C37.2266 7.94096 35.7216 8.23931 34.3321 8.84858C32.9426 9.45773 31.7021 10.3631 30.6968 11.5018C28.5798 13.8371 27.5039 16.9214 27.5039 20.6905C27.5039 24.4594 28.614 27.3614 30.8048 29.5588C32.9956 31.7562 35.8495 32.9091 39.2929 32.9091C41.3943 32.9584 43.4756 32.4897 45.3542 31.5443C47.0637 30.6377 48.2426 29.7016 48.8664 28.7606L48.8909 28.731L46.1647 23.6021V23.5726H45.7718V23.6021C45.1123 24.6556 44.2048 25.5303 43.1292 26.1493C41.9849 26.8739 40.6607 27.2615 39.3075 27.2678C37.9112 27.2972 36.559 26.7773 35.54 25.8192C35.0467 25.3672 34.654 24.8158 34.3873 24.2012C34.1207 23.5865 33.9862 22.9224 33.9927 22.2522H50.0354L50.0797 20.4934C50.0797 16.813 48.9892 13.778 46.8427 11.4673C45.8192 10.339 44.5669 9.44343 43.1698 8.8409C41.7727 8.23838 40.2632 7.94281 38.7427 7.97418ZM43.753 17.8673H34.0762C34.3292 16.7841 34.8592 15.7857 35.6138 14.9703C36.0316 14.5174 36.5431 14.1614 37.1124 13.9274C37.6817 13.6934 38.2951 13.5868 38.9097 13.6154C39.541 13.5933 40.1699 13.7072 40.7536 13.9494C41.3375 14.1916 41.8627 14.5566 42.2941 15.0196C43.067 15.7913 43.5775 16.7877 43.753 17.8673Z" fill="#E2401B"/>
<path d="M69.3106 10.9347C68.6346 9.99689 67.7226 9.25564 66.668 8.78654C65.5411 8.25046 64.3096 7.97289 63.0625 7.97369C61.5666 7.93173 60.081 8.23299 58.7189 8.85458C57.3569 9.47616 56.1544 10.4017 55.2032 11.5604C53.2385 13.94 52.2266 16.9799 52.2266 20.5619C52.2266 24.1436 53.1844 27.1392 55.0756 29.4302C56.9667 31.7211 59.6093 32.8789 62.9347 32.8789C64.4287 32.9176 65.9085 32.5787 67.2377 31.8936C68.3923 31.2818 69.36 30.3674 70.0376 29.2479H70.0818L70.6614 32.337V32.3912H75.3867V0.760742H69.3106V10.9347ZM67.9499 15.5906C69.0296 17.0163 69.5849 18.7725 69.5218 20.5619C69.5927 22.3085 69.027 24.0215 67.9303 25.3802C67.4182 25.9893 66.7752 26.4743 66.0494 26.7985C65.3238 27.1228 64.5344 27.2779 63.7403 27.2525C62.9604 27.2901 62.183 27.1362 61.476 26.8038C60.7689 26.4715 60.1534 25.9709 59.6831 25.3458C58.6984 23.9508 58.1979 22.2699 58.2586 20.5619C58.2443 18.8449 58.7589 17.1656 59.7322 15.7532C60.1618 15.0813 60.7568 14.5317 61.4597 14.1571C62.1625 13.7827 62.9496 13.5959 63.7452 13.6149C64.5516 13.5897 65.3525 13.7554 66.083 14.0986C66.8136 14.442 67.4532 14.953 67.9499 15.5906Z" fill="#E2401B"/>
<path d="M91.385 7.97426C89.8109 7.92396 88.2517 8.29286 86.8659 9.04337C85.7678 9.64232 84.858 10.5363 84.238 11.625H84.1987L83.8205 8.48162H78.8789V40.2402H84.9256V29.7509H84.9993C85.6701 30.714 86.5768 31.4878 87.6322 31.9976C88.7789 32.5902 90.0508 32.8976 91.3408 32.8942C92.7534 32.9457 94.158 32.6599 95.4391 32.0603C96.7201 31.4607 97.8407 30.5644 98.7087 29.4454C100.516 27.1545 101.43 24.1688 101.43 20.5771C101.43 16.9854 100.497 13.9554 98.6449 11.5807C97.8089 10.4427 96.7139 9.52161 95.451 8.89433C94.1881 8.26692 92.794 7.95149 91.385 7.97426ZM95.3833 20.5623C95.445 22.2842 94.9259 23.9766 93.9097 25.3659C93.4717 25.9628 92.8975 26.4456 92.2352 26.7739C91.5728 27.1022 90.8416 27.2666 90.1029 27.2529C89.3553 27.2785 88.612 27.1309 87.9304 26.8216C87.249 26.5122 86.6477 26.0496 86.1733 25.4695C85.1909 24.2821 84.6996 22.6316 84.6996 20.5426C84.6996 18.4536 85.1909 16.7045 86.1733 15.4631C86.6328 14.8604 87.2291 14.3766 87.9125 14.0519C88.5961 13.7271 89.347 13.5706 90.1029 13.5957C90.8615 13.5787 91.612 13.7545 92.2846 14.1069C92.957 14.4592 93.5297 14.9766 93.949 15.6108C94.9365 17.068 95.4387 18.8013 95.3833 20.5623Z" fill="#E2401B"/>
<path d="M120.435 10.3879C118.627 8.78669 116.269 7.97371 113.43 7.97371C111.469 7.94816 109.53 8.3888 107.772 9.25963C106.088 10.1076 104.643 11.3642 103.567 12.9153V12.9498L106.514 17.8767V17.9062H106.897V17.8718C107.543 16.5733 108.498 15.4547 109.677 14.6151C110.744 13.8445 112.023 13.4261 113.337 13.4179C114.305 13.3546 115.269 13.5864 116.102 14.083C116.389 14.2702 116.624 14.5267 116.785 14.829C116.946 15.1312 117.029 15.4694 117.026 15.8124C117.026 16.4429 116.653 16.9159 115.881 17.2608C114.171 17.8712 112.415 18.344 110.63 18.6749C107.988 19.2365 106.067 20.1529 104.918 21.424C103.744 22.7413 103.123 24.4621 103.184 26.2278C103.184 28.3019 103.817 29.9475 105.075 31.1299C106.332 32.3124 108.199 32.9085 110.645 32.9085C113.902 32.9085 116.24 31.6817 117.601 29.2577H117.645L118.254 32.401H123.117V17.2067C123.141 14.285 122.223 11.994 120.435 10.3879ZM115.523 26.3311C114.408 27.1012 113.079 27.4979 111.726 27.4643C110.066 27.4643 109.27 26.8732 109.27 25.6611C109.269 25.3786 109.331 25.0996 109.45 24.8439C109.57 24.5883 109.745 24.3626 109.962 24.1831C110.726 23.6593 111.594 23.3095 112.507 23.1582C115.218 22.5473 116.721 21.9217 117.104 21.2417V23.7051C117.09 24.6905 116.564 25.5872 115.523 26.3311Z" fill="#E2401B"/>
<path d="M138.823 7.97408C137.416 7.95978 136.028 8.2895 134.775 8.93478C133.572 9.55319 132.556 10.4817 131.829 11.6248H131.789L131.407 8.48157H126.484V32.3867H132.536V20.306C132.463 18.5871 132.957 16.8919 133.94 15.4826C134.397 14.8757 134.993 14.3889 135.677 14.0635C136.361 13.7383 137.114 13.5845 137.87 13.6153C140.499 13.6153 141.829 15.1673 141.829 18.2269V32.3867H147.877V16.3153C147.911 15.2102 147.722 14.1096 147.318 13.0805C146.916 12.0513 146.308 11.1152 145.533 10.3291C144.016 8.76734 141.731 7.97408 138.823 7.97408Z" fill="#E2401B"/>
<path d="M167.217 10.9347C166.541 9.99689 165.63 9.25564 164.575 8.78654C163.447 8.25099 162.216 7.97329 160.97 7.97369C159.472 7.92908 157.986 8.22915 156.624 8.851C155.262 9.47285 154.06 10.3997 153.11 11.5604C151.145 13.94 150.133 16.9799 150.133 20.5619C150.133 24.1436 151.116 27.1392 152.983 29.4302C154.849 31.7211 157.516 32.8789 160.841 32.8789C162.336 32.9176 163.815 32.5787 165.144 31.8936C166.299 31.2804 167.265 30.3664 167.944 29.2479H167.984L168.569 32.337V32.3912H173.294V0.760742H167.217V10.9347ZM165.852 15.5906C166.935 17.0147 167.492 18.7716 167.429 20.5619C167.5 22.3095 166.933 24.0231 165.833 25.3802C165.32 25.9892 164.678 26.4742 163.954 26.7985C163.229 27.1227 162.44 27.2779 161.647 27.2525C160.868 27.2901 160.089 27.1362 159.382 26.8038C158.676 26.4715 158.06 25.9709 157.59 25.3458C156.603 23.9513 156.101 22.2706 156.161 20.5619C156.146 18.8449 156.661 17.1658 157.634 15.7532C158.063 15.0809 158.658 14.531 159.361 14.1565C160.064 13.782 160.852 13.5955 161.647 13.6149C162.453 13.5889 163.254 13.7542 163.985 14.0976C164.715 14.4409 165.356 14.9525 165.852 15.5906Z" fill="#E2401B"/>
<path d="M193.133 10.3877C191.32 8.78637 188.967 7.97351 186.128 7.97351C184.174 7.95048 182.242 8.39113 180.489 9.25944C178.804 10.105 177.359 11.3622 176.284 12.9151L176.26 12.9496L179.206 17.8765V17.906H179.585V17.8715C180.23 16.5735 181.183 15.4548 182.361 14.6149C183.429 13.8442 184.709 13.4258 186.025 13.4177C186.992 13.3549 187.957 13.5868 188.791 14.0828C189.076 14.2709 189.31 14.5277 189.47 14.8299C189.63 15.1321 189.712 15.4697 189.71 15.8122C189.71 16.4427 189.336 16.9157 188.57 17.2606C186.86 17.871 185.103 18.3438 183.319 18.6747C180.676 19.2363 178.75 20.1527 177.601 21.4238C176.431 22.7435 175.81 24.4627 175.867 26.2276C175.867 28.3017 176.505 29.9473 177.758 31.1297C179.011 32.3122 180.887 32.9083 183.328 32.9083C186.59 32.9083 188.929 31.6815 190.288 29.2575H190.333L190.942 32.4008H195.805V17.2065C195.859 14.2848 194.941 11.9938 193.133 10.3877ZM188.22 26.3309C187.106 27.1004 185.777 27.4969 184.424 27.4641C182.763 27.4641 181.968 26.873 181.968 25.6609C181.965 25.3783 182.026 25.0986 182.146 24.8429C182.267 24.587 182.441 24.3615 182.66 24.1829C183.422 23.6574 184.292 23.3075 185.205 23.158C187.911 22.5472 189.42 21.9215 189.802 21.2415V23.7049C189.808 24.6903 189.277 25.587 188.22 26.3309Z" fill="#E2401B"/>
<path d="M20.8791 22.9611C20.4209 22.1266 20.0076 21.2681 19.6413 20.3892C21.0028 19.7938 22.2294 18.9272 23.2467 17.842C24.8383 16.2818 25.6339 14.0779 25.6339 11.2302C25.6339 7.92918 24.5566 5.36393 22.4019 3.53442C20.2332 1.70095 17.4715 0.725059 14.636 0.790169H0.808594V32.322H7.53808V20.9903H10.0972L11.6593 20.9508C12.2389 22.3649 13.5308 25.4737 14.2823 27.1291L20.8791 22.9611ZM7.53808 7.08178H13.7321C16.8431 7.08178 18.3986 8.34136 18.3986 10.8607C18.3986 13.5671 16.663 14.9187 13.1918 14.9155H7.53808V7.08178Z" fill="#E2401B"/>
<path d="M27.8351 30.0561L26.0717 28.8047L18.7773 33.5443L21.3316 34.5395L25.7818 34.5297L29.009 32.2239L27.8351 30.0561Z" fill="#E2401B"/>
<path d="M21.9982 24.7891L15.2344 29.0606L17.1354 32.0464L24.3315 27.4988L21.9982 24.7891Z" fill="#E2401B"/>
</svg>
