<svg width="493" height="60" viewBox="0 0 493 60" fill="none" xmlns="http://www.w3.org/2000/svg">
<g clip-path="url(#clip0_624_9601)">
<path d="M492.273 0H0V60H492.273V0Z" fill="#E4002B"/>
<path d="M36.3683 44.6319L36.6546 23.0319C36.6546 21.6682 34.4592 19.7182 32.6592 18.1501C30.8592 16.5955 28.2683 15.9546 27.0001 15.8591C26.2228 15.8046 22.0774 15.8591 20.5092 15.4637C18.9546 15.0682 19.1865 15.5591 19.0501 16.4864L16.0228 37.7455C15.9274 38.9182 16.4183 38.9728 16.7592 39.1091C17.1001 39.2591 19.691 39.4364 22.6092 39.4501C25.6365 39.4501 25.9501 39.3955 28.8956 40.2819C31.8274 41.1546 34.7456 44.141 35.4274 44.7273C35.9592 45.1773 36.3546 45.2591 36.3546 44.6319M58.3774 36.341L55.6501 15.6137C55.5546 14.6864 55.3637 14.741 54.7774 14.8773C54.191 15.0273 54.3546 15.0273 51.6001 15.5182C50.291 15.7501 48.491 15.5591 46.3774 16.2001C44.3319 16.8137 42.7501 17.9182 40.9637 19.5137C40.2956 20.1137 38.8228 21.2728 38.7137 23.0319L38.6183 43.4046C38.6183 44.3728 39.1092 44.5773 39.6956 43.8001C40.4183 42.8319 41.3728 42.0273 42.4774 41.5091C46.3774 39.6546 51.7501 39.2591 52.4319 39.2182C53.1137 39.1637 56.6319 38.8773 57.1092 38.7273C58.2956 38.3728 58.6092 38.7137 58.3774 36.341Z" fill="white"/>
<path d="M100.637 35.441C100.637 32.6864 99.3683 30.3819 97.1047 28.991C95.5774 28.0501 93.6956 27.4637 90.9411 27.0137L85.9638 26.1955C83.8638 25.8682 81.7365 25.1319 81.7365 22.7455C81.7365 20.3592 84.0002 18.9273 87.4092 18.9273C90.8183 18.9273 93.4911 20.0319 97.1865 22.8273L98.4956 15.8864C97.7183 16.2955 97.1865 16.7455 96.3138 16.7455C95.782 16.7455 95.1683 16.6637 94.582 16.5001C92.2365 15.8455 92.8911 16.0501 92.4411 15.9273C91.0365 15.641 89.3183 15.4773 87.832 15.4773C80.5093 15.4773 75.7093 18.8046 75.7093 24.0682C75.7093 26.291 76.7729 28.4319 78.382 29.6182C79.8547 30.7228 82.2411 31.7183 84.7092 32.0455L89.8502 32.741C92.5638 33.1092 94.5411 34.5546 94.5411 36.5592C94.5411 39.1501 92.1547 40.5819 88.2547 40.5819C86.1547 40.5819 84.0683 40.1728 82.0911 39.3001C78.1502 37.6092 75.6002 34.691 75.6002 34.691L75.4365 43.8955C75.4365 43.8955 76.3365 42.5046 77.4547 42.5046C78.8456 42.5046 81.1092 43.3228 82.3911 43.6092C85.0638 44.141 86.0865 44.2637 88.1047 44.2637C95.8365 44.2637 100.637 40.8955 100.637 35.4273M120.927 29.9183C120.927 23.8773 125.373 19.1455 131.373 19.1455C136.187 19.1455 139.432 21.2046 142.268 25.2683L143.782 19.0637C139.718 16.4319 135.559 15.4501 131.25 15.4501C121.023 15.4501 114.396 22.2273 114.396 30.0819C114.396 39.4501 123.027 44.4682 131.291 44.2637C135.9 44.141 139.923 43.2001 144.082 41.0183L142.473 35.6319H141.982C139.718 38.5501 135.246 40.5683 131.291 40.5683C125.005 40.5683 120.927 35.8773 120.927 29.9183ZM190.255 38.9592V20.8773C190.255 18.3273 190.991 17.591 192.641 16.1455H181.909C183.641 17.291 184.296 18.4092 184.296 20.7955V26.2637C184.296 26.7137 184.337 26.8364 184.418 27.2455C184.05 27.0819 183.887 27.0819 183.477 27.0819H166.664C166.255 27.0819 166.132 27.0819 165.723 27.2455C165.846 26.8364 165.846 26.7137 165.846 26.2637V21.0001C165.846 18.7364 166.746 17.3864 168.396 16.1455H157.337C159.15 17.6319 159.927 18.4092 159.927 20.8773V38.6728C159.927 41.591 158.905 42.6955 157.132 43.5683H168.396C166.5 42.341 165.846 40.8955 165.846 38.7955V31.6773C165.846 31.2273 165.846 31.1046 165.723 30.6955C166.132 30.8183 166.255 30.8183 166.664 30.8183H183.477C183.887 30.8183 184.05 30.8183 184.418 30.6955C184.337 31.1046 184.296 31.2273 184.296 31.6773V39.0001C184.296 42.0001 183.355 42.0001 181.541 43.5683H192.641C190.787 42.041 190.255 41.4273 190.255 38.9592ZM234.682 29.8773C234.682 32.4683 233.659 35.141 231.927 37.1592C229.95 39.4637 227.359 40.5683 224.318 40.5683C221.277 40.5683 218.768 39.4637 216.709 37.1592C214.977 35.141 213.996 32.4683 213.996 29.8773C213.996 27.2864 214.977 24.5728 216.709 22.5546C218.768 20.2501 221.277 19.1455 224.318 19.1455C227.359 19.1455 229.909 20.2501 231.927 22.5546C233.659 24.5319 234.682 27.2455 234.682 29.8773ZM241.173 29.8773C241.173 21.8592 234.518 15.4501 224.318 15.4501C214.991 15.4501 207.464 21.8592 207.464 29.8773C207.464 37.8955 214.159 44.3046 224.318 44.2637C233.646 44.2228 241.173 37.8546 241.173 29.8773ZM277.677 44.5092L280.759 37.7728L280.432 37.4864C278.864 38.8364 277.514 39.3001 274.8 39.3001H264.518C264.068 39.3001 263.946 39.3001 263.537 39.4637C263.659 39.0546 263.659 38.891 263.659 38.441V20.1546C263.659 18.2183 264.15 17.3592 265.841 16.1728H255.805C257.291 17.291 257.782 18.0683 257.782 20.1546V38.6864C257.782 41.891 256.555 42.4228 255.559 43.5819H274.8C276.737 43.6228 276.696 43.5819 277.677 44.5228M314.632 32.8501C313.023 32.8092 312.491 32.7683 311.059 32.7683H304.323C303.096 32.7683 302.468 32.8092 301.037 32.8501C301.732 31.7046 302.1 31.241 302.768 30.1364L306.3 23.891C306.955 22.7455 307.159 22.2819 307.814 20.9728C308.509 22.2546 308.755 22.7455 309.423 23.8092L312.75 29.9319C313.446 31.1183 313.691 31.5819 314.646 32.8501M318.546 43.5819H330.137C329.932 43.5001 327.587 42.5183 325.077 38.5228L313.446 19.5273C311.837 16.9364 311.959 16.8955 311.55 16.1592H304.268C304.923 17.0183 305.005 17.2364 305.005 17.8092C305.005 18.4637 304.8 18.9955 304.146 20.1955L293.005 39.8046C292.105 41.4955 290.987 42.5592 289.187 43.5819H297.982C296.959 43.0092 296.755 42.6819 296.755 41.9728C296.755 41.6455 296.837 41.2773 297 40.9501L299.427 36.0955H316.773L319.241 40.2001C319.691 40.9364 319.855 41.3455 319.855 41.7546C319.855 42.6137 318.546 43.5683 318.546 43.5683M366.464 35.4273C366.464 32.6728 365.196 30.3683 362.932 28.9773C361.405 28.0364 359.523 27.4501 356.768 27.0001L351.791 26.1819C349.691 25.8546 347.564 25.1183 347.564 22.7319C347.564 20.3455 349.827 18.9137 353.237 18.9137C356.646 18.9137 359.318 20.0182 363.014 22.8137L364.337 15.8728C363.559 16.2819 363.014 16.7319 362.155 16.7319C361.623 16.7319 361.009 16.6501 360.423 16.4864C358.077 15.8319 358.746 16.0364 358.282 15.9137C356.891 15.6273 355.159 15.4637 353.673 15.4637C346.35 15.4637 341.55 18.791 341.55 24.0546C341.55 26.2773 342.614 28.4182 344.223 29.6046C345.709 30.7092 348.082 31.7046 350.55 32.0319L355.691 32.7273C358.405 33.0955 360.382 34.541 360.382 36.5455C360.382 39.1364 357.996 40.5683 354.096 40.5683C351.996 40.5683 349.909 40.1592 347.932 39.2864C343.991 37.5955 341.441 34.6773 341.441 34.6773L341.277 43.8819C341.277 43.8819 342.177 42.491 343.296 42.491C344.687 42.491 346.95 43.3092 348.232 43.5955C350.905 44.1273 351.927 44.2501 353.946 44.2501C361.677 44.2501 366.477 40.8819 366.477 35.4137M405 21.3955L408.45 15.641C407.005 15.8864 406.882 16.1319 402.777 16.1319H385.8C384.027 16.1319 382.677 15.3546 382.677 15.3546L378.614 21.8046L378.941 22.091C380.291 20.9046 381.818 20.2364 384.573 20.2364H389.918C390.327 20.2364 390.45 20.1955 390.859 20.0728C390.777 20.4819 390.737 20.6046 390.737 21.0955V38.6864C390.737 40.8273 390 42.3819 388.432 43.541H398.959C397.187 42.0955 396.696 41.3182 396.696 38.9319V21.0955C396.696 20.6046 396.655 20.4819 396.532 20.0728C396.941 20.1955 397.064 20.2364 397.514 20.2364H402.777C403.677 20.2364 404.223 20.4819 405 21.3819M431.509 38.7683V20.9728C431.509 18.7092 432.532 17.3592 434.182 16.1182H422.959C424.773 17.6046 425.591 18.3819 425.591 20.8501V38.6455C425.591 41.5637 424.65 42.6683 422.877 43.541H434.264C432.368 42.3137 431.509 40.8683 431.509 38.7683ZM475.309 25.241L476.837 19.0364C472.759 16.4046 468.614 15.4228 464.305 15.4228C454.077 15.4228 447.45 22.2001 447.45 30.0546C447.45 39.4228 456.082 44.441 464.346 44.2364C468.955 44.1137 472.977 43.1728 477.123 40.991L475.514 35.6046H475.023C472.759 38.5228 468.287 40.541 464.332 40.541C458.046 40.541 453.968 35.8501 453.968 29.891C453.968 23.9319 458.414 19.1183 464.414 19.1183C469.227 19.1183 472.473 21.1773 475.309 25.241Z" fill="white"/>
</g>
<defs>
<clipPath id="clip0_624_9601">
<rect width="492.273" height="60" fill="white"/>
</clipPath>
</defs>
</svg>
