<svg width="198" height="25" viewBox="0 0 198 25" fill="none" xmlns="http://www.w3.org/2000/svg">
<g clip-path="url(#clip0_1522_77155)">
<path d="M197.608 0.852539H0.699219V24.8525H197.608V0.852539Z" fill="#9991B5"/>
<path d="M15.2446 18.7048L15.3591 10.0648C15.3591 9.51939 14.4809 8.73939 13.7609 8.11212C13.0409 7.4903 12.0046 7.23394 11.4973 7.19576C11.1864 7.17394 9.52821 7.19576 8.90094 7.03757C8.27912 6.87939 8.37185 7.07576 8.31731 7.44667L7.1064 15.9503C7.06821 16.4194 7.26458 16.4412 7.40094 16.4958C7.53731 16.5558 8.57367 16.6267 9.74094 16.6321C10.9519 16.6321 11.0773 16.6103 12.2555 16.9648C13.4282 17.3139 14.5955 18.5085 14.8682 18.743C15.0809 18.923 15.2391 18.9558 15.2391 18.7048M24.0482 15.3885L22.9573 7.09757C22.9191 6.72667 22.8428 6.74848 22.6082 6.80303C22.3737 6.86303 22.4391 6.86303 21.3373 7.05939C20.8137 7.15212 20.0937 7.07576 19.2482 7.33212C18.43 7.57757 17.7973 8.01939 17.0828 8.65757C16.8155 8.89757 16.2264 9.36121 16.1828 10.0648L16.1446 18.2139C16.1446 18.6012 16.3409 18.683 16.5755 18.3721C16.8646 17.9848 17.2464 17.663 17.6882 17.4558C19.2482 16.7139 21.3973 16.5558 21.67 16.5394C21.9428 16.5176 23.35 16.403 23.5409 16.343C24.0155 16.2012 24.1409 16.3376 24.0482 15.3885Z" fill="white"/>
<path d="M40.9511 15.0287C40.9511 13.9269 40.4438 13.005 39.5384 12.4487C38.9275 12.0723 38.1747 11.8378 37.0729 11.6578L35.082 11.3305C34.242 11.1996 33.3911 10.905 33.3911 9.9505C33.3911 8.99596 34.2965 8.42323 35.6602 8.42323C37.0238 8.42323 38.0929 8.86505 39.5711 9.98323L40.0947 7.20687C39.7838 7.3705 39.5711 7.5505 39.222 7.5505C39.0093 7.5505 38.7638 7.51778 38.5293 7.45232C37.5911 7.1905 37.8529 7.27232 37.6729 7.22323C37.1111 7.10869 36.4238 7.04323 35.8293 7.04323C32.9002 7.04323 30.9802 8.37414 30.9802 10.4796C30.9802 11.3687 31.4056 12.225 32.0493 12.6996C32.6384 13.1414 33.5929 13.5396 34.5802 13.6705L36.6365 13.9487C37.722 14.096 38.5129 14.6741 38.5129 15.476C38.5129 16.5123 37.5584 17.085 35.9984 17.085C35.1584 17.085 34.3238 16.9214 33.5329 16.5723C31.9565 15.896 30.9365 14.7287 30.9365 14.7287L30.8711 18.4105C30.8711 18.4105 31.2311 17.8541 31.6784 17.8541C32.2347 17.8541 33.1402 18.1814 33.6529 18.296C34.722 18.5087 35.1311 18.5578 35.9384 18.5578C39.0311 18.5578 40.9511 17.2105 40.9511 15.0232M49.0675 12.8196C49.0675 10.4032 50.8456 8.5105 53.2456 8.5105C55.1711 8.5105 56.4693 9.33414 57.6038 10.9596L58.2093 8.47778C56.5838 7.42505 54.9202 7.03232 53.1965 7.03232C49.1056 7.03232 46.4547 9.74323 46.4547 12.885C46.4547 16.6323 49.9075 18.6396 53.2129 18.5578C55.0565 18.5087 56.6656 18.1323 58.3293 17.2596L57.6856 15.105H57.4893C56.5838 16.2723 54.7947 17.0796 53.2129 17.0796C50.6984 17.0796 49.0675 15.2032 49.0675 12.8196ZM76.7984 16.436V9.20323C76.7984 8.18323 77.0929 7.88869 77.7529 7.3105H73.4602C74.1529 7.76869 74.4147 8.21596 74.4147 9.1705V11.3578C74.4147 11.5378 74.4311 11.5869 74.4638 11.7505C74.3165 11.685 74.2511 11.685 74.0875 11.685H67.362C67.1984 11.685 67.1493 11.685 66.9856 11.7505C67.0347 11.5869 67.0347 11.5378 67.0347 11.3578V9.25232C67.0347 8.34687 67.3947 7.80687 68.0547 7.3105H63.6311C64.3565 7.90505 64.6675 8.21596 64.6675 9.20323V16.3214C64.6675 17.4887 64.2584 17.9305 63.5493 18.2796H68.0547C67.2965 17.7887 67.0347 17.2105 67.0347 16.3705V13.5232C67.0347 13.3432 67.0347 13.2941 66.9856 13.1305C67.1493 13.1796 67.1984 13.1796 67.362 13.1796H74.0875C74.2511 13.1796 74.3165 13.1796 74.4638 13.1305C74.4311 13.2941 74.4147 13.3432 74.4147 13.5232V16.4523C74.4147 17.6523 74.0384 17.6523 73.3129 18.2796H77.7529C77.0111 17.6687 76.7984 17.4232 76.7984 16.436ZM94.5693 12.8032C94.5693 13.8396 94.1602 14.9087 93.4674 15.716C92.6765 16.6378 91.6402 17.0796 90.4238 17.0796C89.2074 17.0796 88.2038 16.6378 87.3802 15.716C86.6874 14.9087 86.2947 13.8396 86.2947 12.8032C86.2947 11.7669 86.6874 10.6814 87.3802 9.87414C88.2038 8.95232 89.2074 8.5105 90.4238 8.5105C91.6402 8.5105 92.6602 8.95232 93.4674 9.87414C94.1602 10.665 94.5693 11.7505 94.5693 12.8032ZM97.1656 12.8032C97.1656 9.59596 94.5038 7.03232 90.4238 7.03232C86.6929 7.03232 83.682 9.59596 83.682 12.8032C83.682 16.0105 86.3602 18.5741 90.4238 18.5578C94.1547 18.5414 97.1656 15.9941 97.1656 12.8032ZM111.767 18.656L113 15.9614L112.869 15.8469C112.242 16.3869 111.702 16.5723 110.617 16.5723H106.504C106.324 16.5723 106.275 16.5723 106.111 16.6378C106.16 16.4741 106.16 16.4087 106.16 16.2287V8.91414C106.16 8.13959 106.357 7.79596 107.033 7.32141H103.018C103.613 7.76869 103.809 8.07959 103.809 8.91414V16.3269C103.809 17.6087 103.318 17.8214 102.92 18.285H110.617C111.391 18.3014 111.375 18.285 111.767 18.6614M126.549 13.9923C125.906 13.976 125.693 13.9596 125.12 13.9596H122.426C121.935 13.9596 121.684 13.976 121.111 13.9923C121.389 13.5341 121.537 13.3487 121.804 12.9069L123.217 10.4087C123.478 9.9505 123.56 9.76505 123.822 9.24141C124.1 9.75414 124.198 9.9505 124.466 10.376L125.797 12.825C126.075 13.2996 126.173 13.485 126.555 13.9923M128.115 18.285H132.751C132.669 18.2523 131.731 17.8596 130.727 16.2614L126.075 8.66323C125.431 7.62687 125.48 7.6105 125.317 7.31596H122.404C122.666 7.6596 122.698 7.74687 122.698 7.97596C122.698 8.23778 122.617 8.4505 122.355 8.9305L117.898 16.7741C117.538 17.4505 117.091 17.876 116.371 18.285H119.889C119.48 18.056 119.398 17.925 119.398 17.6414C119.398 17.5105 119.431 17.3632 119.497 17.2323L120.467 15.2905H127.406L128.393 16.9323C128.573 17.2269 128.638 17.3905 128.638 17.5541C128.638 17.8978 128.115 18.2796 128.115 18.2796M147.282 15.0232C147.282 13.9214 146.775 12.9996 145.869 12.4432C145.258 12.0669 144.506 11.8323 143.404 11.6523L141.413 11.325C140.573 11.1941 139.722 10.8996 139.722 9.94505C139.722 8.9905 140.627 8.41778 141.991 8.41778C143.355 8.41778 144.424 8.85959 145.902 9.97778L146.431 7.20141C146.12 7.36505 145.902 7.54505 145.558 7.54505C145.346 7.54505 145.1 7.51232 144.866 7.44687C143.927 7.18505 144.195 7.26687 144.009 7.21778C143.453 7.10323 142.76 7.03778 142.166 7.03778C139.237 7.03778 137.317 8.36869 137.317 10.4741C137.317 11.3632 137.742 12.2196 138.386 12.6941C138.98 13.136 139.929 13.5341 140.917 13.665L142.973 13.9432C144.058 14.0905 144.849 14.6687 144.849 15.4705C144.849 16.5069 143.895 17.0796 142.335 17.0796C141.495 17.0796 140.66 16.916 139.869 16.5669C138.293 15.8905 137.273 14.7232 137.273 14.7232L137.207 18.405C137.207 18.405 137.567 17.8487 138.015 17.8487C138.571 17.8487 139.477 18.176 139.989 18.2905C141.058 18.5032 141.467 18.5523 142.275 18.5523C145.367 18.5523 147.287 17.205 147.287 15.0178M162.697 9.4105L164.077 7.10869C163.498 7.20687 163.449 7.30505 161.807 7.30505H155.017C154.307 7.30505 153.767 6.99414 153.767 6.99414L152.142 9.57414L152.273 9.68869C152.813 9.21414 153.424 8.94687 154.526 8.94687H156.664C156.827 8.94687 156.877 8.9305 157.04 8.88141C157.007 9.04505 156.991 9.09414 156.991 9.2905V16.3269C156.991 17.1832 156.697 17.805 156.069 18.2687H160.28C159.571 17.6905 159.375 17.3796 159.375 16.425V9.2905C159.375 9.09414 159.358 9.04505 159.309 8.88141C159.473 8.9305 159.522 8.94687 159.702 8.94687H161.807C162.167 8.94687 162.386 9.04505 162.697 9.40505M173.3 16.3596V9.24141C173.3 8.33596 173.709 7.79596 174.369 7.29959H169.88C170.606 7.89414 170.933 8.20505 170.933 9.19232V16.3105C170.933 17.4778 170.557 17.9196 169.847 18.2687H174.402C173.644 17.7778 173.3 17.1996 173.3 16.3596ZM190.82 10.9487L191.431 8.46687C189.8 7.41414 188.142 7.02141 186.418 7.02141C182.327 7.02141 179.677 9.73232 179.677 12.8741C179.677 16.6214 183.129 18.6287 186.435 18.5469C188.278 18.4978 189.887 18.1214 191.546 17.2487L190.902 15.0941H190.706C189.8 16.2614 188.011 17.0687 186.429 17.0687C183.915 17.0687 182.284 15.1923 182.284 12.8087C182.284 10.425 184.062 8.4996 186.462 8.4996C188.387 8.4996 189.686 9.32323 190.82 10.9487Z" fill="white"/>
</g>
<defs>
<clipPath id="clip0_1522_77155">
<rect width="196.909" height="24" fill="white" transform="translate(0.699219 0.852539)"/>
</clipPath>
</defs>
</svg>
