<svg width="195" height="49" viewBox="0 0 195 49" fill="none" xmlns="http://www.w3.org/2000/svg">
<g clip-path="url(#clip0_915_71404)">
<path d="M64.636 37.6092C63.4325 37.598 62.2312 37.5046 61.0404 37.3294C59.7498 37.1538 58.47 36.9062 57.207 36.5879V34.6432C58.4564 34.9591 59.7221 35.2067 60.9985 35.3847C62.1564 35.5591 63.3251 35.6526 64.4961 35.6645C66.1158 35.7671 67.7267 35.3558 69.099 34.4893C69.621 34.1076 70.04 33.6023 70.3184 33.0187C70.5968 32.435 70.7258 31.7914 70.6939 31.1455C70.7264 30.465 70.5841 29.7875 70.2804 29.1777C69.9767 28.5678 69.5218 28.046 68.9591 27.6619C68.4006 27.2579 67.7944 26.9243 67.1543 26.6686C66.4268 26.3981 65.648 26.1416 64.8179 25.8991C63.7012 25.5789 62.6113 25.172 61.5581 24.6819C60.7471 24.3143 60.0007 23.8182 59.3476 23.2129C58.7914 22.6914 58.3608 22.0503 58.0884 21.3382C57.81 20.5572 57.6726 19.7329 57.6827 18.9038C57.6699 17.9722 57.8659 17.0496 58.2563 16.2037C58.6388 15.3909 59.1981 14.674 59.8932 14.1051C60.6406 13.4741 61.5062 12.9985 62.4395 12.706C63.5182 12.4057 64.6359 12.2689 65.7552 12.3003C67.8347 12.3417 69.9034 12.6091 71.9251 13.0978V15.0844C70.8976 14.8202 69.856 14.6147 68.8052 14.4688C67.8781 14.3374 66.9434 14.2672 66.0071 14.259C64.4696 14.1787 62.9504 14.6227 61.698 15.5181C61.1593 15.9008 60.7222 16.4093 60.4247 16.9993C60.1273 17.5894 59.9784 18.2432 59.9911 18.9038C59.9806 19.4817 60.0803 20.0562 60.2849 20.5967C60.4962 21.1339 60.8318 21.6133 61.2643 21.9957C61.7956 22.4542 62.395 22.8271 63.0411 23.101C63.9491 23.4866 64.8843 23.8046 65.8392 24.0523C66.8745 24.3601 67.8352 24.6912 68.7212 25.0457C69.5536 25.3631 70.3322 25.8067 71.0297 26.3608C71.677 26.8847 72.2023 27.5436 72.5686 28.2915C72.965 29.1697 73.1564 30.1265 73.1283 31.0896C73.1802 32.0165 73.0091 32.9423 72.6294 33.7895C72.2496 34.6366 71.6723 35.3803 70.9457 35.9583C69.0855 37.197 66.8645 37.7782 64.636 37.6092Z" fill="#01A71C"/>
<path d="M84.8089 37.5392C83.7062 37.6172 82.5998 37.4549 81.566 37.0636C80.5322 36.6723 79.5956 36.0613 78.8209 35.2728C77.355 33.4065 76.6278 31.0656 76.7783 28.6972C76.6254 26.2053 77.3315 23.7362 78.779 21.702C79.4863 20.8701 80.3786 20.2154 81.3844 19.7903C82.3902 19.3651 83.4815 19.1813 84.571 19.2536C85.4795 19.1921 86.39 19.3406 87.2318 19.6875C88.0737 20.0345 88.8244 20.5706 89.4258 21.2543C90.6139 22.9328 91.196 24.9654 91.0766 27.0184C91.0766 27.522 91.0766 27.9511 91.0766 28.3055C91.0648 28.6074 91.0226 28.9074 90.9507 29.2009H78.9608C78.9133 30.9749 79.4929 32.7088 80.5977 34.0976C81.1891 34.6602 81.8918 35.0927 82.6604 35.3674C83.4291 35.6421 84.2467 35.7528 85.0607 35.6925C85.9148 35.6872 86.7667 35.6077 87.607 35.4547C88.5261 35.2892 89.4294 35.0458 90.3072 34.7271L90.4751 36.5039C89.5695 36.8506 88.6324 37.1083 87.6769 37.2734C86.7308 37.4478 85.7709 37.5368 84.8089 37.5392ZM84.5011 20.9045C81.0688 20.9045 79.2313 23.115 78.9888 27.536H88.9921C89.1306 25.773 88.7514 24.0079 87.9008 22.4575C87.5119 21.932 86.996 21.5139 86.4014 21.2422C85.8067 20.9706 85.1529 20.8544 84.5011 20.9045Z" fill="#01A71C"/>
<path d="M96.0312 10.5088H98.2418V37.2447H96.0312V10.5088Z" fill="#01A71C"/>
<path d="M111.311 37.5392C110.208 37.6172 109.101 37.4549 108.068 37.0636C107.034 36.6723 106.097 36.0613 105.323 35.2728C103.862 33.4045 103.139 31.0639 103.294 28.6972C103.141 26.2053 103.847 23.7362 105.295 21.702C106.002 20.8701 106.894 20.2154 107.9 19.7903C108.906 19.3651 109.997 19.1813 111.087 19.2536C111.995 19.1921 112.906 19.3406 113.747 19.6875C114.589 20.0345 115.34 20.5706 115.941 21.2543C117.105 22.9417 117.662 24.9735 117.522 27.0184C117.522 27.522 117.522 27.9511 117.522 28.3055C117.51 28.6074 117.468 28.9074 117.396 29.2009H105.462C105.416 30.9747 105.996 32.7082 107.099 34.0976C107.692 34.662 108.397 35.0956 109.169 35.3703C109.94 35.6451 110.76 35.7548 111.576 35.6925C112.43 35.6872 113.282 35.6077 114.123 35.4547C115.042 35.289 115.945 35.0456 116.823 34.7271L116.991 36.5039C116.085 36.8506 115.148 37.1083 114.193 37.2734C113.242 37.4487 112.277 37.5376 111.311 37.5392ZM111.017 20.9045C107.584 20.9045 105.747 23.115 105.504 27.536H115.508C115.646 25.773 115.267 24.0079 114.416 22.4575C114.028 21.932 113.512 21.5139 112.917 21.2422C112.322 20.9706 111.669 20.8544 111.017 20.9045Z" fill="#01A71C"/>
<path d="M122.43 19.4208H124.276L124.444 21.5054H124.612C125.489 21.0856 126.291 20.7219 127.019 20.4141C127.746 20.1063 128.413 19.8545 129.019 19.6586C129.567 19.473 130.129 19.328 130.698 19.2249C131.207 19.1396 131.721 19.0975 132.237 19.099C132.867 19.0515 133.5 19.1338 134.097 19.3408C134.693 19.5477 135.241 19.8749 135.707 20.3022C136.563 21.3282 136.98 22.6502 136.868 23.9817V37.2867H134.643V24.6952C134.728 23.7007 134.455 22.7086 133.874 21.8971C133.562 21.5975 133.19 21.3677 132.782 21.223C132.374 21.0783 131.941 21.0219 131.51 21.0577C130.441 21.0826 129.384 21.2762 128.376 21.6313C127.094 22.0631 125.846 22.5868 124.64 23.1982V37.1887H122.43V19.4208Z" fill="#01A71C"/>
<path d="M143.753 15.4338C143.559 15.4619 143.362 15.4458 143.175 15.3868C142.988 15.3277 142.816 15.2271 142.674 15.0926C142.531 14.958 142.421 14.793 142.351 14.6098C142.281 14.4267 142.254 14.2301 142.27 14.0348C142.27 13.6414 142.427 13.2642 142.705 12.9861C142.983 12.708 143.36 12.5518 143.753 12.5518C144.147 12.5518 144.524 12.708 144.802 12.9861C145.08 13.2642 145.236 13.6414 145.236 14.0348C145.253 14.2301 145.226 14.4267 145.156 14.6098C145.086 14.793 144.976 14.958 144.833 15.0926C144.69 15.2271 144.519 15.3277 144.332 15.3868C144.145 15.4458 143.947 15.4619 143.753 15.4338ZM142.634 19.4211H144.845V37.245H142.634V19.4211Z" fill="#01A71C"/>
<path d="M155.03 37.5666C152.101 37.5666 150.637 35.9484 150.637 32.7119V19.4209H152.847V32.0124C152.753 32.9939 152.989 33.9788 153.519 34.8105C153.8 35.1117 154.147 35.3441 154.533 35.4897C154.919 35.6353 155.333 35.6901 155.743 35.6499C156.932 35.6437 158.108 35.416 159.213 34.9784C160.379 34.5307 161.587 33.999 162.836 33.3834V19.4209H165.089V37.2448H163.242L163.074 35.0343H162.948L160.528 36.1676C159.838 36.4847 159.194 36.7505 158.597 36.965C158.037 37.165 157.462 37.3194 156.876 37.4267C156.266 37.5289 155.648 37.5757 155.03 37.5666Z" fill="#01A71C"/>
<path d="M170.938 19.4215H172.756L172.952 21.5061H173.078C174.234 20.8068 175.441 20.1942 176.688 19.6734C177.576 19.3095 178.525 19.115 179.486 19.0998C180.361 18.9854 181.25 19.167 182.01 19.6157C182.771 20.0644 183.36 20.7544 183.683 21.5761H183.851C184.597 21.1097 185.273 20.7227 185.879 20.4149C186.425 20.134 186.986 19.8818 187.558 19.6594C188.011 19.4754 188.48 19.3303 188.957 19.2257C189.418 19.1385 189.887 19.0963 190.356 19.0998C190.977 19.0544 191.601 19.1351 192.19 19.337C192.779 19.539 193.321 19.858 193.784 20.275C194.64 21.3009 195.057 22.623 194.945 23.9545V37.2595H192.763V24.668C192.86 23.6723 192.586 22.6758 191.993 21.8699C191.679 21.575 191.306 21.3492 190.898 21.2071C190.491 21.0649 190.059 21.0095 189.629 21.0444C188.774 21.0721 187.93 21.2521 187.139 21.5761C186.09 21.999 185.08 22.5091 184.117 23.101V37.2315H181.878V24.64C181.975 23.6443 181.701 22.6478 181.109 21.8419C180.794 21.547 180.421 21.3212 180.014 21.1791C179.607 21.0369 179.174 20.9815 178.744 21.0165C177.85 21.0426 176.968 21.2323 176.142 21.5761C175.102 21.9977 174.1 22.5079 173.148 23.101V37.2455H170.938V19.4215Z" fill="#01A71C"/>
<path d="M30.0087 30.8099C29.1344 30.7833 28.2822 31.0866 27.6213 31.6594C26.9603 32.2322 26.539 33.0327 26.4411 33.9018C26.4367 33.9187 26.4363 33.9363 26.44 33.9533C26.4436 33.9703 26.4512 33.9862 26.462 33.9998C26.4729 34.0134 26.4868 34.0242 26.5026 34.0315C26.5183 34.0388 26.5356 34.0423 26.553 34.0417H33.4783C33.4943 34.0419 33.5101 34.0386 33.5246 34.0321C33.5392 34.0256 33.5522 34.0161 33.5628 34.0042C33.5734 33.9922 33.5814 33.9782 33.5861 33.9629C33.5908 33.9477 33.5922 33.9316 33.5902 33.9158C33.5221 33.0309 33.1079 32.2086 32.4374 31.6271C31.767 31.0457 30.8943 30.7521 30.0087 30.8099Z" fill="#01A71C"/>
<path d="M44.8536 7.58517L30.1636 24.08C30.1217 24.1254 30.0708 24.1615 30.0142 24.1863C29.9577 24.2111 29.8966 24.2238 29.8348 24.2238C29.773 24.2238 29.712 24.2111 29.6554 24.1863C29.5988 24.1615 29.5479 24.1254 29.506 24.08L22.0071 16.3432C21.9435 16.2638 21.9089 16.1651 21.9089 16.0634C21.9089 15.9617 21.9435 15.863 22.0071 15.7836L24.4834 12.6078C24.5249 12.55 24.5795 12.5029 24.6427 12.4705C24.706 12.438 24.7761 12.4211 24.8472 12.4211C24.9183 12.4211 24.9884 12.438 25.0516 12.4705C25.1149 12.5029 25.1695 12.55 25.2109 12.6078L29.4081 17.2526C29.4501 17.3026 29.5026 17.3429 29.5618 17.3704C29.621 17.398 29.6855 17.4123 29.7509 17.4123C29.8162 17.4123 29.8807 17.398 29.9399 17.3704C29.9991 17.3429 30.0516 17.3026 30.0936 17.2526L41.7897 1.21948C41.8223 1.1721 41.8415 1.11687 41.8455 1.05952C41.8494 1.00218 41.838 0.944827 41.8123 0.893417C41.7866 0.842007 41.7476 0.79842 41.6993 0.767188C41.651 0.735957 41.5953 0.718219 41.5379 0.71582L0.349763 0.71582C0.257 0.71582 0.168037 0.75267 0.102443 0.818264C0.03685 0.883857 0 0.972821 0 1.06558L0 47.9339C0 48.0266 0.03685 48.1156 0.102443 48.1812C0.168037 48.2468 0.257 48.2836 0.349763 48.2836H45.1195C45.2122 48.2836 45.3012 48.2468 45.3668 48.1812C45.4324 48.1156 45.4692 48.0266 45.4692 47.9339V7.79503C45.4971 7.7134 45.4913 7.62405 45.4533 7.54665C45.4152 7.46925 45.348 7.41014 45.2664 7.38231C45.1847 7.35448 45.0954 7.36022 45.018 7.39826C44.9406 7.43631 44.8815 7.50354 44.8536 7.58517ZM12.6754 43.0652C9.7364 43.2133 6.85547 42.2095 4.64486 40.267C4.57502 40.1878 4.53649 40.0858 4.53649 39.9802C4.53649 39.8746 4.57502 39.7727 4.64486 39.6934L6.39367 37.2451C6.42255 37.1949 6.46117 37.1511 6.50726 37.1161C6.55335 37.0811 6.60597 37.0557 6.66203 37.0413C6.71809 37.027 6.77646 37.024 6.83369 37.0326C6.89092 37.0411 6.94585 37.0611 6.99527 37.0912C8.59284 38.5723 10.6928 39.3923 12.8713 39.3856C15.1657 39.3856 16.285 38.3224 16.285 37.2031C16.285 33.7335 4.98063 36.1119 4.98063 28.7249C4.98063 25.4651 7.77873 22.7509 12.4236 22.7509C15.0892 22.6561 17.6988 23.531 19.7686 25.2132C19.8464 25.294 19.8899 25.4019 19.8899 25.514C19.8899 25.6262 19.8464 25.734 19.7686 25.8148L18.0478 28.2072C18.0122 28.2548 17.9673 28.2946 17.9158 28.3241C17.8642 28.3536 17.8072 28.3722 17.7482 28.3788C17.6891 28.3853 17.6294 28.3797 17.5726 28.3622C17.5159 28.3447 17.4633 28.3158 17.4182 28.2772C15.892 27.0641 13.9954 26.4121 12.0458 26.4304C10.2551 26.4304 9.24774 27.2279 9.24774 28.4031C9.24774 31.523 20.5241 29.4384 20.5241 36.7974C20.5241 40.351 17.9638 43.0652 12.6614 43.0652H12.6754ZM37.3267 36.2518C37.3287 36.3037 37.3199 36.3555 37.3009 36.404C37.2819 36.4524 37.2531 36.4964 37.2164 36.5331C37.1796 36.5699 37.1356 36.5987 37.0872 36.6177C37.0388 36.6367 36.987 36.6455 36.935 36.6435H26.582C26.5654 36.6452 26.5494 36.6502 26.5347 36.6582C26.5201 36.6662 26.5072 36.6771 26.4968 36.6901C26.4864 36.7031 26.4787 36.718 26.4741 36.7341C26.4695 36.7501 26.4681 36.7668 26.4701 36.7834C26.638 37.7508 27.1618 38.6204 27.9385 39.2211C28.7153 39.8218 29.6887 40.1101 30.6672 40.0292C31.9513 40.002 33.1982 39.5929 34.2488 38.854C34.2898 38.8196 34.3376 38.7944 34.3891 38.7799C34.4406 38.7654 34.4946 38.762 34.5475 38.7699C34.6004 38.7778 34.6511 38.7969 34.696 38.8259C34.741 38.8549 34.7793 38.8931 34.8084 38.9379L36.0676 40.7707C36.1201 40.8521 36.1405 40.9501 36.125 41.0456C36.1095 41.1412 36.0591 41.2277 35.9836 41.2884C34.3214 42.5014 32.3047 43.131 30.2475 43.0791C29.2199 43.1365 28.1916 42.9784 27.2285 42.6151C26.2655 42.2518 25.3891 41.6912 24.6554 40.9694C23.9217 40.2475 23.3469 39.3803 22.968 38.4234C22.589 37.4664 22.4142 36.4408 22.4548 35.4123C22.4263 34.4085 22.6016 33.4094 22.9701 32.4752C23.3386 31.5411 23.8926 30.6914 24.5988 29.9774C25.3049 29.2634 26.1485 28.7 27.0785 28.3212C28.0085 27.9424 29.0056 27.7561 30.0097 27.7735C34.3607 27.7735 37.3127 31.0333 37.3127 35.8041L37.3267 36.2518Z" fill="#01A71C"/>
</g>
<defs>
<clipPath id="clip0_915_71404">
<rect width="195" height="47.5678" fill="white" transform="translate(0 0.71582)"/>
</clipPath>
</defs>
</svg>
