<svg width="306" height="50" viewBox="0 0 306 50" fill="none" xmlns="http://www.w3.org/2000/svg">
<path d="M33.9781 43.1062C34.691 43.1062 35.3699 42.9365 36.0148 42.5631L43.4486 38.2861C44.9422 37.4375 46.6733 37.0641 48.4045 37.2678C57.4337 38.32 63.7473 40.0172 65.6143 40.5604C65.9876 40.6622 66.4289 40.5264 66.6665 40.2209C66.972 39.8475 67.3454 39.2365 67.6509 38.354C67.9225 37.5054 67.9564 36.7925 67.9225 36.2834C67.8885 35.876 67.617 35.5026 67.2096 35.4008C64.2904 34.5522 51.3576 31.0559 33.9781 31.0559C16.5986 31.0559 3.66585 34.5522 0.746642 35.4008C0.33931 35.5026 0.0677557 35.876 0.0338114 36.2834C-0.000132924 36.7586 0.0338114 37.4714 0.305366 38.354C0.576921 39.2365 0.984253 39.8475 1.28975 40.2209C1.52736 40.5264 1.96864 40.6622 2.34203 40.5604C4.20896 40.0172 10.5566 38.32 19.5518 37.2678C21.283 37.0641 23.0141 37.4375 24.5077 38.2861L31.9415 42.5631C32.5864 42.9365 33.2993 43.1062 33.9781 43.1062V43.1062ZM21.5885 19.0396C21.9958 19.7525 22.6407 20.2277 23.3875 20.4314C24.1343 20.635 24.915 20.5332 25.6278 20.1259C26.3407 19.7185 26.8159 19.0736 27.0196 18.3268C27.2232 17.58 27.1214 16.7993 26.7141 16.0865L20.027 4.51147C19.8234 4.13809 19.3821 4.00231 18.9747 4.03625C18.4316 4.0702 17.6849 4.34175 16.8023 4.85092C15.9198 5.36008 15.3088 5.86925 15.0033 6.31052C14.7657 6.64997 14.6978 7.09124 14.9014 7.46463L21.5885 19.0396V19.0396ZM15.4785 27.3221C16.1913 27.7294 17.006 27.7973 17.7188 27.6276C18.4656 27.4239 19.1105 26.9487 19.5179 26.2358C19.9252 25.523 19.9931 24.7083 19.8234 23.9955C19.6536 23.2827 19.1445 22.6038 18.4316 22.1965L6.85662 15.5094C6.48323 15.3058 6.04196 15.3737 5.70251 15.6113C5.26124 15.9168 4.75207 16.5278 4.24291 17.4103C3.73374 18.2929 3.46219 19.0396 3.42824 19.5828C3.3943 20.024 3.56402 20.4314 3.90347 20.635L15.4785 27.3221ZM36.9313 14.9324C36.9313 15.747 36.5919 16.4938 36.0827 17.0369C35.5396 17.58 34.8267 17.8855 33.9781 17.8855C33.1635 17.8855 32.4167 17.5461 31.8736 17.0369C31.3305 16.4938 31.025 15.781 31.025 14.9324V1.59226C31.025 1.15099 31.2965 0.811542 31.7039 0.64182C32.1791 0.40421 32.9598 0.268433 33.9781 0.268433C34.9965 0.268433 35.7772 0.40421 36.2524 0.64182C36.6258 0.845486 36.9313 1.15099 36.9313 1.59226V14.9324ZM46.3678 19.0396C45.9605 19.7525 45.3156 20.2277 44.5688 20.4314C43.822 20.635 43.0413 20.5332 42.3284 20.1259C41.6156 19.7185 41.1404 19.0736 40.9367 18.3268C40.7331 17.58 40.8349 16.7993 41.2422 16.0865L47.9293 4.51147C48.1329 4.13809 48.5742 4.00231 48.9815 4.03625C49.5246 4.0702 50.2714 4.34175 51.154 4.85092C52.0365 5.36008 52.6475 5.86925 52.953 6.31052C53.1906 6.64997 53.2585 7.09124 53.0549 7.46463L46.3678 19.0396V19.0396ZM52.4778 27.3221C51.765 27.7294 50.9503 27.7973 50.2375 27.6276C49.4907 27.4239 48.8458 26.9487 48.4384 26.2358C48.0311 25.523 47.9632 24.7083 48.1329 23.9955C48.3366 23.2487 48.8118 22.6038 49.5246 22.1965L61.0997 15.5094C61.4731 15.3058 61.9143 15.3737 62.2538 15.6113C62.695 15.9168 63.2042 16.5278 63.7134 17.4103C64.2225 18.2929 64.4941 19.0396 64.528 19.5828C64.562 20.024 64.3923 20.4314 64.0528 20.635L52.4778 27.3221V27.3221ZM126.307 18.1232H131.874C132.077 18.1232 132.247 18.2589 132.349 18.4286L137.882 32.6174L143.245 18.4286C143.313 18.225 143.516 18.1232 143.72 18.1232H149.185C149.559 18.1232 149.796 18.4965 149.626 18.802L136.049 49.9629C135.981 50.1327 135.777 50.2684 135.607 50.2684H130.787C130.448 50.2684 130.176 49.895 130.346 49.5895L134.996 38.6934L125.899 18.802C125.696 18.4965 125.933 18.1232 126.307 18.1232V18.1232ZM208.486 21.28V18.6323C208.486 18.3608 208.724 18.1232 208.995 18.1232H213.917C214.189 18.1232 214.426 18.3608 214.426 18.6323V39.7796C214.426 40.0512 214.189 40.2888 213.917 40.2888H208.995C208.724 40.2888 208.486 40.0512 208.486 39.7796V36.9962C207.434 38.6255 205.125 40.764 201.358 40.764C194.161 40.764 190.428 35.265 190.428 29.1211C190.428 21.1103 195.994 17.6819 201.188 17.6819C204.616 17.6479 206.992 19.2773 208.486 21.28V21.28ZM196.368 29.1551C196.368 32.9568 198.71 35.876 202.478 35.876C206.246 35.876 208.656 33.3302 208.656 29.4266C208.656 25.523 206.314 22.5359 202.308 22.5359C198.54 22.5359 196.368 25.4551 196.368 29.1551ZM218.873 39.7796V18.6323C218.873 18.3608 219.111 18.1232 219.382 18.1232H224.304C224.576 18.1232 224.813 18.3608 224.813 18.6323V21.5176C225.967 19.5149 228.14 17.6819 231.84 17.6819C235.641 17.6819 239.884 19.5488 239.884 28.1367V39.7796C239.884 40.0512 239.647 40.2888 239.375 40.2888H234.453C234.182 40.2888 233.944 40.0512 233.944 39.7796V28.2386C233.944 26.168 233.435 22.6038 229.769 22.6038C226.103 22.6038 224.813 25.8285 224.813 28.8156V39.7796C224.813 40.0512 224.576 40.2888 224.304 40.2888H219.382C219.077 40.2549 218.873 40.0512 218.873 39.7796V39.7796ZM244.094 39.7796V18.6323C244.094 18.3608 244.331 18.1232 244.603 18.1232H249.525C249.796 18.1232 250.034 18.3608 250.034 18.6323V21.5176C251.188 19.5149 253.36 17.6819 257.06 17.6819C260.862 17.6819 265.105 19.5488 265.105 28.1367V39.7796C265.105 40.0512 264.867 40.2888 264.596 40.2888H259.674C259.402 40.2888 259.165 40.0512 259.165 39.7796V28.2386C259.165 26.168 258.656 22.6038 254.99 22.6038C251.324 22.6038 250.034 25.8285 250.034 28.8156V39.7796C250.034 40.0512 249.796 40.2888 249.525 40.2888H244.603C244.331 40.2549 244.094 40.0512 244.094 39.7796V39.7796ZM295.791 18.1232H300.577C300.848 18.1232 301.086 18.3608 301.086 18.6323V23.0111C302.037 18.6663 305.77 17.1727 308.486 17.8177C308.724 17.8516 308.859 18.0553 308.859 18.2929V23.113C308.859 23.4185 308.588 23.6561 308.248 23.5882C303.225 22.6038 301.188 25.3193 301.188 29.1211V39.7796C301.188 40.0512 300.95 40.2888 300.679 40.2888H295.757C295.485 40.2888 295.248 40.0512 295.248 39.7796V18.6323C295.282 18.3608 295.519 18.1232 295.791 18.1232V18.1232ZM93.6862 22.9432C92.1587 22.4341 91.3441 22.1286 90.1221 21.7212C88.8661 21.28 86.7276 20.058 86.7276 18.0892C86.7276 16.1204 88.0854 14.8645 90.8349 14.8645C93.3468 14.8645 94.7385 16.0865 95.655 18.0553C95.7908 18.3268 96.0963 18.4286 96.3678 18.2929L100.407 15.9507C100.611 15.8149 100.713 15.5434 100.611 15.3058C99.3889 12.6242 96.5375 9.39946 90.9028 9.39946C84.6231 9.39946 80.6855 13.1333 80.6855 18.0553C80.6855 22.9432 83.9103 25.4891 88.2891 26.9826C89.8845 27.5257 90.5294 27.7633 91.8872 28.2046C94.4669 29.0872 95.655 30.2413 95.655 31.8367C95.655 33.432 94.6367 35.3329 90.6312 35.3329C86.9652 35.3329 85.6754 33.3981 84.9286 31.5651C84.8267 31.2935 84.4873 31.1578 84.2158 31.3275L79.9727 33.7715C79.769 33.9073 79.6672 34.1449 79.769 34.3825C81.3984 38.3879 85.8451 40.764 90.8349 40.764C96.7073 40.764 101.663 37.7769 101.663 31.7348C101.663 25.6927 95.2137 23.4524 93.6862 22.9432V22.9432ZM126.103 34.4843C125.967 34.2467 125.628 34.1449 125.39 34.3146C123.489 35.7063 121.249 35.7403 119.552 33.1265C118.126 30.9202 116.395 28.2046 116.395 28.2046L123.863 18.9378C124.134 18.5984 123.897 18.1232 123.489 18.1232H117.651C117.481 18.1232 117.345 18.191 117.244 18.3268L110.794 27.1863V9.36551C110.794 9.09396 110.557 8.85635 110.285 8.85635H105.363C105.092 8.85635 104.854 9.09396 104.854 9.36551V39.7796C104.854 40.0512 105.092 40.2888 105.363 40.2888H110.319C110.59 40.2888 110.828 40.0512 110.828 39.7796V29.9018C110.828 29.9018 114.121 35.0953 115.377 37.0301C117.074 39.6778 119.45 40.764 122.03 40.764C124.474 40.764 126.035 40.1191 127.902 38.2861C128.072 38.1164 128.106 37.8787 128.004 37.6751L126.103 34.4843ZM161.439 27.4918C159.878 26.9147 159.335 26.7111 158.146 26.2698C156.958 25.8285 155.906 25.1836 155.906 24.2331C155.906 23.2827 156.789 22.2304 158.588 22.2304C160.149 22.2304 161.1 22.8414 161.643 23.9276C161.779 24.1992 162.084 24.2671 162.322 24.1313L165.784 22.1286C166.022 21.9928 166.089 21.6873 165.954 21.4497C165.003 19.7864 163.136 17.6819 158.622 17.6819C153.089 17.6819 150.237 20.8726 150.237 24.4029C150.237 27.9331 153.123 29.5963 155.77 30.6486C158.757 31.8706 158.961 31.9385 159.335 32.0743C160.251 32.4477 161.371 33.0247 161.371 34.077C161.371 35.1293 160.149 36.0797 158.282 36.0797C156.551 36.0797 154.582 35.3669 153.768 33.3642C153.666 33.0926 153.326 32.9568 153.055 33.1265L149.559 35.1293C149.355 35.265 149.253 35.5026 149.355 35.7403C150.373 38.3879 153.394 40.7301 158.282 40.7301C163.578 40.7301 167.108 37.9127 167.108 33.9412C167.108 29.9697 164.392 28.578 161.439 27.4918V27.4918ZM181.33 22.9432C183.537 22.9432 185.166 23.6221 186.694 24.7083C186.931 24.8781 187.271 24.8102 187.407 24.5726L189.443 21.0424C189.579 20.8048 189.511 20.5332 189.273 20.3974C187.169 18.9718 184.555 17.6479 181.025 17.6479C177.529 17.6479 174.304 18.5984 171.996 20.9405C169.688 23.2487 168.635 25.9982 168.635 29.2569C168.635 33.1944 170.265 35.7063 172.03 37.4714C173.795 39.2365 176.986 40.7301 181.059 40.7301C184.725 40.7301 187.44 39.2026 189.307 37.9806C189.511 37.8448 189.579 37.5393 189.443 37.3356L187.44 33.8394C187.305 33.6018 186.965 33.4999 186.728 33.6697C185.404 34.6201 183.503 35.4348 181.364 35.4348C178.954 35.4348 174.576 34.077 174.576 29.189C174.576 24.301 178.92 22.9432 181.33 22.9432ZM281.195 35.8421C279.226 35.8421 277.359 35.3669 276.001 34.2806C274.643 33.1944 273.999 32.0743 273.999 30.7504H291.582C291.853 30.7504 292.091 30.5128 292.091 30.2413C291.989 25.0138 290.292 22.5699 288.662 20.9066C286.965 19.2094 284.08 17.6479 280.278 17.6479C276.476 17.6479 273.557 19.0396 271.555 21.0084C269.586 22.9772 268.092 25.4891 268.092 29.2908C268.092 33.0926 269.62 35.6045 271.487 37.4714C273.354 39.3384 276.409 40.7301 280.787 40.7301C284.929 40.7301 288.425 39.2705 290.937 36.3852C291.14 36.1476 291.073 35.7742 290.801 35.6384L287.305 33.6018C287.135 33.4999 286.897 33.4999 286.728 33.6697C284.996 35.299 282.79 35.8421 281.195 35.8421V35.8421ZM280.244 22.4001C283.062 22.4001 285.641 24.0974 286.049 27.1523H274.202C274.983 23.8597 277.427 22.4001 280.244 22.4001Z" fill="white"/>
</svg>