<svg width="181" height="41" viewBox="0 0 181 41" fill="none" xmlns="http://www.w3.org/2000/svg">
<g clip-path="url(#clip0_1522_77144)">
<path d="M54.2422 24.8249H50.0546C49.3212 24.8249 48.7166 24.5631 48.1987 24.0395C48.1987 24.0395 48.1987 24.0395 48.1553 23.9959L48.1126 23.9523C47.6808 23.4717 47.4219 22.9046 47.4219 22.2501V22.1629C47.4219 21.8574 47.6374 21.6393 47.9397 21.6393C48.2421 21.6393 48.501 21.8574 48.501 22.1629C48.501 22.5555 48.6305 22.9046 48.9328 23.21L48.9755 23.2973C49.2778 23.6027 49.6228 23.7336 50.0546 23.7336H54.2422C54.4578 23.7336 54.6735 23.69 54.8463 23.6027C55.0191 23.5154 55.1919 23.3845 55.3214 23.2536C55.4508 23.1227 55.5803 22.9482 55.6664 22.73C55.7526 22.5555 55.7959 22.3374 55.7959 22.1193C55.7959 21.6393 55.6664 21.2903 55.4508 21.072C55.1919 20.8097 54.8896 20.6352 54.5012 20.5479C54.1122 20.417 53.681 20.3297 53.2492 20.2862C52.7741 20.2426 52.3857 20.1553 52.0406 20.1116C51.4361 20.0243 50.8748 19.9371 50.3569 19.8062C49.8391 19.6753 49.3639 19.5008 48.9328 19.2826C48.501 19.0645 48.1553 18.759 47.9397 18.3664C47.6808 18.0168 47.5513 17.5369 47.5513 16.9696C47.5513 16.2716 47.8103 15.6171 48.3282 15.0929L48.3715 15.0493C48.8894 14.5694 49.4934 14.3076 50.1841 14.3076H54.1556C54.8463 14.3076 55.4508 14.5258 55.9254 15.0057L55.9687 15.0493C56.4866 15.5735 56.7455 16.1843 56.7455 16.926C56.7455 17.2314 56.53 17.4496 56.2277 17.4496C55.8821 17.4496 55.6664 17.2314 55.6664 16.926C55.6664 16.4897 55.5369 16.1406 55.2347 15.8353L55.0619 15.7043C54.8029 15.4862 54.4578 15.3548 54.1122 15.3548H50.1414C49.7957 15.3548 49.4507 15.4862 49.1917 15.7043L49.0623 15.8353C48.7599 16.1406 48.6305 16.4897 48.6305 16.926C48.6305 17.3187 48.7166 17.6677 48.9328 17.8859C49.1483 18.1477 49.4073 18.3228 49.7529 18.4973C50.098 18.6719 50.5298 18.759 51.0043 18.8463C51.4795 18.9336 51.9973 19.0209 52.5152 19.0645C53.0331 19.1517 53.5515 19.239 54.0261 19.3263C54.544 19.4136 55.0191 19.588 55.4075 19.7626C55.8393 19.9807 56.1844 20.2426 56.4433 20.6352C56.7023 20.9848 56.875 21.5084 56.875 22.0756C56.875 22.4246 56.7889 22.7737 56.6594 23.1227C56.53 23.4281 56.3138 23.7336 56.0982 23.9523C55.8393 24.1704 55.5803 24.3886 55.278 24.5195C54.9324 24.7377 54.5873 24.8249 54.2422 24.8249Z" fill="#9991B5"/>
<path d="M65.5051 24.8232C65.2028 24.8232 64.9867 24.6051 64.9867 24.2997V22.0303C64.4688 21.9866 63.951 21.8121 63.4764 21.594C63.0013 21.3322 62.5695 21.0267 62.2245 20.6341C61.8788 20.2409 61.577 19.7609 61.3609 19.281C61.1454 18.7574 61.0586 18.2339 61.0586 17.6666V15.0046C61.0586 14.6992 61.2748 14.4805 61.577 14.4805C61.9222 14.4805 62.1377 14.6992 62.1377 15.0046V17.6666C62.1377 18.1029 62.2245 18.5393 62.3972 18.9319C62.5695 19.3246 62.8284 19.7173 63.1308 20.0227C63.4331 20.3287 63.7781 20.5904 64.1665 20.765C64.5555 20.9395 64.9867 21.0267 65.4618 21.0267H65.6774C66.1525 21.0267 66.5843 20.9395 66.9727 20.765C67.3611 20.5904 67.7495 20.3287 68.0084 20.0227C68.3108 19.7173 68.5264 19.3683 68.7425 18.9319C68.9154 18.5393 69.0015 18.1029 69.0015 17.6666V15.0046C69.0015 14.6992 69.2171 14.4805 69.5627 14.4805C69.865 14.4805 70.0806 14.6992 70.0806 15.0046V17.6666C70.0806 18.2775 69.9511 18.8447 69.7356 19.3683C69.5194 19.8918 69.2171 20.3287 68.8286 20.7213C68.8286 20.765 68.7859 20.765 68.7859 20.765C68.4402 21.114 68.0084 21.4194 67.5339 21.6376C67.1022 21.8557 66.5843 21.9866 66.1092 22.0303V24.2997C66.023 24.6051 65.8069 24.8232 65.5051 24.8232Z" fill="#9991B5"/>
<path d="M82.9431 24.8256C82.7703 24.8256 82.5975 24.7819 82.4252 24.6946C82.2523 24.6075 82.1229 24.5202 82.0368 24.3893L75.2164 15.4868C75.173 15.4433 75.173 15.4433 75.173 15.4433C75.1297 15.4433 75.1297 15.4433 75.0869 15.4868C75.0436 15.5305 75.0436 15.5305 75.0436 15.5305V24.302C75.0436 24.6075 74.828 24.8256 74.5257 24.8256C74.2234 24.8256 74.0078 24.6075 74.0078 24.302V15.5305C74.0078 15.1815 74.1373 14.9197 74.3528 14.7015C74.6985 14.3955 75.173 14.3083 75.6048 14.5264C75.7777 14.6143 75.9071 14.7451 75.9932 14.8761L82.8136 23.7785C82.8136 23.7785 82.8136 23.8221 82.8564 23.8221C82.8998 23.8221 82.9431 23.8221 82.9431 23.7785C82.9864 23.7348 82.9864 23.7348 82.9864 23.7348V14.9634C82.9864 14.658 83.202 14.4391 83.5043 14.4391C83.8061 14.4391 84.0222 14.658 84.0222 14.9634V23.7348C84.0222 24.0402 83.8927 24.302 83.72 24.5202C83.5043 24.6947 83.2454 24.8256 82.9431 24.8256Z" fill="#9991B5"/>
<path d="M92.869 24.8197C92.5234 24.8197 92.3078 24.6016 92.3078 24.2961V15.4805H88.8115C88.5092 15.4805 88.293 15.2623 88.293 14.9132C88.293 14.6078 88.5092 14.3896 88.8115 14.3896H96.84C97.1421 14.3896 97.3581 14.6078 97.3581 14.9132C97.3581 15.2623 97.1421 15.4805 96.84 15.4805H93.3436V24.2961C93.3869 24.6016 93.1707 24.8197 92.869 24.8197Z" fill="#9991B5"/>
<path d="M109.062 24.8197C108.76 24.8197 108.543 24.6016 108.543 24.2961V22.1576H101.853V24.2961C101.853 24.6016 101.637 24.8197 101.292 24.8197C100.99 24.8197 100.773 24.6016 100.773 24.2961V14.9132C100.773 14.6078 100.99 14.3896 101.292 14.3896C101.594 14.3896 101.853 14.6078 101.853 14.9132V21.0663H108.543V14.9132C108.543 14.6078 108.76 14.3896 109.062 14.3896C109.364 14.3896 109.58 14.6078 109.58 14.9132V24.2961C109.58 24.6016 109.364 24.8197 109.062 24.8197Z" fill="#9991B5"/>
<path d="M121.883 24.8209H118.474C117.869 24.8209 117.308 24.6901 116.791 24.4719C116.273 24.2538 115.797 23.9048 115.409 23.5115C115.021 23.1188 114.675 22.6388 114.459 22.1153C114.243 21.5917 114.113 21.0245 114.113 20.4131V18.8424C114.113 18.2316 114.243 17.6638 114.459 17.1403C114.675 16.6167 115.021 16.1367 115.409 15.7441C115.797 15.3514 116.273 15.0017 116.791 14.7836C117.308 14.5654 117.912 14.4346 118.474 14.4346H121.883C122.229 14.4346 122.445 14.6527 122.445 14.9581C122.445 15.3077 122.229 15.526 121.883 15.526H118.474C117.999 15.526 117.567 15.6131 117.179 15.7877C116.791 15.9623 116.445 16.224 116.142 16.5294C115.841 16.8348 115.581 17.1838 115.409 17.5765C115.237 17.9698 115.15 18.4061 115.15 18.8861V19.1478H121.28C121.581 19.1478 121.797 19.366 121.797 19.6714C121.797 20.0204 121.581 20.2386 121.28 20.2386H115.15V20.5004C115.15 20.9809 115.237 21.4172 115.409 21.8099C115.581 22.2025 115.841 22.5516 116.142 22.857C116.445 23.1624 116.791 23.4242 117.179 23.5993C117.567 23.7738 117.999 23.8611 118.474 23.8611H121.883C122.229 23.8611 122.445 24.0792 122.445 24.4283C122.445 24.6028 122.229 24.8209 121.883 24.8209Z" fill="#9991B5"/>
<path d="M132.93 24.8243H128.743C128.009 24.8243 127.405 24.5625 126.887 24.039C126.887 24.039 126.887 24.039 126.843 23.9954L126.801 23.9517C126.369 23.4717 126.109 22.9046 126.109 22.2496V22.1623C126.109 21.8569 126.326 21.6387 126.627 21.6387C126.93 21.6387 127.189 21.8569 127.189 22.1623C127.189 22.5555 127.318 22.9046 127.621 23.21L127.664 23.2973C127.967 23.6027 128.311 23.7336 128.743 23.7336H132.93C133.145 23.7336 133.362 23.69 133.535 23.6027C133.707 23.5154 133.879 23.3845 134.009 23.2536C134.139 23.1227 134.269 22.9482 134.355 22.73C134.441 22.5556 134.485 22.3374 134.485 22.1186C134.485 21.6387 134.355 21.2897 134.139 21.0715C133.879 20.8097 133.577 20.6352 133.189 20.5479C132.801 20.417 132.369 20.3297 131.937 20.2862C131.462 20.2426 131.074 20.1553 130.728 20.1116C130.124 20.0243 129.563 19.9371 129.045 19.8062C128.527 19.6753 128.053 19.5002 127.621 19.282C127.189 19.0639 126.843 18.7585 126.627 18.3659C126.369 18.0168 126.239 17.5369 126.239 16.9696C126.239 16.271 126.499 15.6165 127.017 15.0929L127.059 15.0493C127.577 14.5694 128.182 14.3076 128.873 14.3076H132.844C133.535 14.3076 134.139 14.5258 134.613 15.0057L134.657 15.0493C135.175 15.5729 135.434 16.1837 135.434 16.926C135.434 17.2314 135.218 17.4496 134.916 17.4496C134.571 17.4496 134.355 17.2314 134.355 16.926C134.355 16.4892 134.225 16.1401 133.923 15.8346L133.751 15.7038C133.491 15.4856 133.145 15.3548 132.801 15.3548H128.873C128.527 15.3548 128.182 15.4856 127.923 15.7038L127.793 15.8346C127.491 16.1401 127.361 16.4892 127.361 16.926C127.361 17.3187 127.448 17.6677 127.664 17.8859C127.88 18.1477 128.138 18.3222 128.484 18.4967C128.829 18.6713 129.261 18.7585 129.736 18.8457C130.21 18.933 130.728 19.0203 131.246 19.0639C131.765 19.1512 132.283 19.2384 132.757 19.3257C133.275 19.413 133.751 19.588 134.139 19.7626C134.571 19.9807 134.916 20.2426 135.175 20.6352C135.434 20.9843 135.606 21.5078 135.606 22.075C135.606 22.4246 135.52 22.7737 135.391 23.1227C135.261 23.4281 135.045 23.7336 134.829 23.9517C134.571 24.1698 134.311 24.388 134.009 24.5189C133.621 24.7371 133.319 24.8243 132.93 24.8243Z" fill="#9991B5"/>
<path d="M140.487 24.8197C140.185 24.8197 139.969 24.6016 139.969 24.2961V14.9132C139.969 14.6078 140.185 14.3896 140.487 14.3896C140.789 14.3896 141.048 14.6078 141.048 14.9132V24.2961C141.048 24.6016 140.833 24.8197 140.487 24.8197Z" fill="#9991B5"/>
<path d="M154.471 24.8197H147.435C147.176 24.8197 146.918 24.7761 146.658 24.6451C146.442 24.5579 146.226 24.427 146.054 24.2525C145.881 24.078 145.752 23.8593 145.623 23.6411C145.536 23.423 145.492 23.1611 145.492 22.8994C145.492 22.5503 145.579 22.2013 145.752 21.9395C145.924 21.6777 146.14 21.416 146.442 21.2414L153.349 17.139C153.479 17.0517 153.608 16.9645 153.694 16.8336C153.78 16.7026 153.824 16.5718 153.781 16.3972C153.781 16.0918 153.694 15.8737 153.522 15.6992C153.349 15.5241 153.133 15.4368 152.917 15.4368H146.27C145.968 15.4368 145.752 15.2186 145.752 14.9132C145.752 14.6078 145.968 14.3896 146.27 14.3896H152.917C153.176 14.3896 153.436 14.4333 153.651 14.5642C153.867 14.6515 154.082 14.7823 154.256 14.9569C154.428 15.1314 154.558 15.3495 154.688 15.5683C154.774 15.7865 154.86 16.0482 154.86 16.31C154.86 16.659 154.774 16.9645 154.6 17.2699C154.428 17.5753 154.212 17.7935 153.91 17.9679L147.004 22.0704C146.874 22.1577 146.788 22.2449 146.702 22.4194C146.614 22.5503 146.572 22.6812 146.572 22.8121C146.572 23.0739 146.658 23.292 146.831 23.5102C147.004 23.6847 147.22 23.772 147.478 23.772H154.514C154.816 23.772 155.032 23.9907 155.032 24.2961C154.99 24.6016 154.774 24.8197 154.471 24.8197Z" fill="#9991B5"/>
<path d="M166.692 24.8209H163.281C162.677 24.8209 162.116 24.6901 161.598 24.4719C161.08 24.2538 160.606 23.9048 160.218 23.5115C159.828 23.1188 159.484 22.6388 159.267 22.1153C159.052 21.5917 158.922 21.0245 158.922 20.4131V18.8424C158.922 18.2316 159.052 17.6638 159.267 17.1403C159.484 16.6167 159.828 16.1367 160.218 15.7441C160.606 15.3514 161.08 15.0017 161.598 14.7836C162.116 14.5654 162.721 14.4346 163.281 14.4346H166.692C167.037 14.4346 167.254 14.6527 167.254 14.9581C167.254 15.3077 167.037 15.526 166.692 15.526H163.281C162.807 15.526 162.375 15.6131 161.987 15.7877C161.598 15.9623 161.253 16.224 160.951 16.5294C160.648 16.8348 160.389 17.1838 160.218 17.5765C160.044 17.9698 159.958 18.4061 159.958 18.8861V19.1478H166.088C166.39 19.1478 166.605 19.366 166.605 19.6714C166.605 20.0204 166.39 20.2386 166.088 20.2386H159.958V20.5004C159.958 20.9809 160.044 21.4172 160.218 21.8099C160.389 22.2025 160.648 22.5516 160.951 22.857C161.253 23.1624 161.598 23.4242 161.987 23.5993C162.375 23.7738 162.807 23.8611 163.281 23.8611H166.692C167.037 23.8611 167.254 24.0792 167.254 24.4283C167.21 24.6028 166.994 24.8209 166.692 24.8209Z" fill="#9991B5"/>
<path d="M175.751 24.8209H173.334C172.73 24.8209 172.211 24.6028 171.78 24.2102L171.737 24.1665C171.305 23.7302 171.09 23.1624 171.09 22.5516V16.704C171.09 16.0931 171.305 15.5259 171.737 15.089L171.78 15.0454C172.211 14.6527 172.73 14.4346 173.334 14.4346H175.751C176.356 14.4346 176.916 14.5654 177.434 14.7836C177.953 15.0017 178.428 15.3514 178.816 15.7441C179.205 16.1367 179.507 16.6167 179.766 17.1403C179.981 17.6638 180.111 18.2316 180.111 18.8424V20.4131C180.111 21.0245 179.981 21.5917 179.766 22.1153C179.549 22.6388 179.205 23.1188 178.816 23.5115C178.428 23.9048 177.953 24.2538 177.434 24.4719C176.916 24.6901 176.312 24.8209 175.751 24.8209ZM172.557 23.4678C172.816 23.6429 173.031 23.7302 173.334 23.7302H175.751C176.182 23.7302 176.614 23.6429 177.003 23.4678C177.392 23.2933 177.78 23.0315 178.082 22.7261C178.384 22.4207 178.643 22.0717 178.816 21.679C178.989 21.2864 179.075 20.85 179.075 20.3695V18.7988C179.075 18.3188 178.989 17.882 178.816 17.4893C178.643 17.0966 178.384 16.704 178.082 16.4421C177.78 16.1367 177.434 15.9186 177.003 15.7004C176.614 15.5259 176.182 15.4387 175.751 15.4387H173.334C173.075 15.4387 172.816 15.5259 172.6 15.7004C172.6 15.7004 172.557 15.7004 172.557 15.7441L172.471 15.8313C172.255 16.0494 172.125 16.3549 172.125 16.704V22.5516C172.125 22.9006 172.255 23.1624 172.471 23.4242L172.557 23.4678Z" fill="#9991B5"/>
<path d="M30.4789 1.4209L26.4901 8.43148H29.2536C28.7062 11.6735 25.8908 14.1773 22.5273 14.2035C21.6153 14.2035 20.7026 14.4408 19.8946 14.915C18.6953 15.6002 17.8611 16.734 17.4958 18.0779C17.1312 19.4223 17.3132 20.8191 18.0172 22.0314C18.6953 23.2437 19.816 24.0872 21.146 24.4561C21.5893 24.5881 22.032 24.6405 22.4753 24.6405C23.362 24.6405 24.2481 24.4037 25.0561 23.929C26.2555 23.2437 27.0901 22.1105 27.4548 20.7661C27.8201 19.4223 27.6375 18.0255 26.9334 16.8126C26.6988 16.4176 26.4381 16.0749 26.1255 15.7584C29.0189 14.4671 31.1309 11.7258 31.5482 8.4576H34.4677L30.4789 1.4209ZM23.2054 16.602C23.9354 16.8126 24.5608 17.2873 24.9521 17.9464C25.3433 18.605 25.4474 19.3955 25.2388 20.1337C25.0301 20.872 24.5608 21.5043 23.9093 21.8999C23.2574 22.2949 22.4753 22.4002 21.7453 22.1896C21.0154 21.9785 20.3899 21.5043 19.9987 20.8452C19.6079 20.1867 19.5033 19.3955 19.712 18.6579C19.9206 17.9196 20.3899 17.2873 21.0413 16.8917C21.4847 16.6281 21.9539 16.4967 22.4494 16.4967C22.4494 16.4967 22.4494 16.4967 22.4753 16.4967C22.4753 16.4967 22.4753 16.4967 22.5014 16.4967C22.71 16.4967 22.9707 16.5229 23.2054 16.602Z" fill="#9991B5"/>
<path d="M33.6883 25.4853L26.0234 23.166L27.8482 31.0462L29.8562 29.1486C31.6549 31.9159 31.2896 35.6851 28.8389 38.0306C28.3702 38.4785 28.3436 39.1905 28.7869 39.6647C29.2302 40.1394 29.9342 40.1656 30.4035 39.7177C33.7923 36.5023 34.2096 31.2573 31.5503 27.5406L33.6883 25.4853Z" fill="#9991B5"/>
<path d="M11.4771 24.9782L17.3692 19.5226L9.7564 17.0712L10.3558 19.7862C7.071 19.9444 4.0469 17.7041 3.31688 14.3568C3.18655 13.7238 2.56087 13.3288 1.96125 13.4871C1.33556 13.6186 0.944486 14.2515 1.10089 14.8577C2.11765 19.4435 6.34098 22.5006 10.8771 22.0788L11.4771 24.9782Z" fill="#9991B5"/>
</g>
<defs>
<clipPath id="clip0_1522_77144">
<rect width="179.608" height="40" fill="white" transform="translate(0.671875 0.852539)"/>
</clipPath>
</defs>
</svg>
