<svg width="270" height="60" viewBox="0 0 270 60" fill="none" xmlns="http://www.w3.org/2000/svg">
<g clip-path="url(#clip0_624_9608)">
<path d="M80.3548 35.9582H74.0734C72.9732 35.9582 72.0663 35.5656 71.2895 34.7803C71.2895 34.7803 71.2895 34.7803 71.2244 34.7147L71.1603 34.6494C70.5127 33.9285 70.1243 33.0778 70.1243 32.0961V31.9652C70.1243 31.5071 70.4476 31.1799 70.9011 31.1799C71.3546 31.1799 71.743 31.5071 71.743 31.9652C71.743 32.5543 71.9372 33.0778 72.3906 33.5359L72.4547 33.6668C72.9082 34.125 73.4257 34.3213 74.0734 34.3213H80.3548C80.6782 34.3213 81.0017 34.2559 81.2609 34.125C81.5201 33.9941 81.7793 33.7978 81.9735 33.6013C82.1677 33.405 82.3619 33.1432 82.4911 32.816C82.6203 32.5543 82.6853 32.2271 82.6853 31.8998C82.6853 31.1799 82.4911 30.6564 82.1677 30.329C81.7793 29.9355 81.3258 29.6737 80.7432 29.5428C80.1598 29.3465 79.5129 29.2156 78.8653 29.1502C78.1527 29.0848 77.5701 28.9539 77.0524 28.8883C76.1456 28.7574 75.3037 28.6267 74.5269 28.4302C73.7501 28.2339 73.0373 27.9722 72.3906 27.6449C71.743 27.3176 71.2244 26.8595 70.9011 26.2706C70.5127 25.7461 70.3185 25.0263 70.3185 24.1754C70.3185 23.1283 70.7069 22.1465 71.4837 21.3603L71.5488 21.2949C72.3256 20.575 73.2315 20.1824 74.2676 20.1824H80.2248C81.2609 20.1824 82.1677 20.5096 82.8796 21.2296L82.9445 21.2949C83.7214 22.0812 84.1098 22.9974 84.1098 24.11C84.1098 24.5681 83.7864 24.8953 83.3329 24.8953C82.8146 24.8953 82.4911 24.5681 82.4911 24.11C82.4911 23.4556 82.2969 22.9319 81.8435 22.4739L81.5843 22.2775C81.1959 21.9502 80.6782 21.7531 80.1598 21.7531H74.2035C73.685 21.7531 73.1675 21.9502 72.779 22.2775L72.5848 22.4739C72.1314 22.9319 71.9372 23.4556 71.9372 24.11C71.9372 24.699 72.0663 25.2226 72.3906 25.5498C72.714 25.9425 73.1024 26.2051 73.6208 26.4669C74.1385 26.7287 74.7861 26.8595 75.4979 26.9904C76.2106 27.1213 76.9875 27.2523 77.7643 27.3176C78.5411 27.4486 79.3187 27.5795 80.0306 27.7104C80.8074 27.8413 81.52 28.103 82.1027 28.3648C82.7503 28.692 83.268 29.0848 83.6564 29.6737C84.0448 30.1982 84.304 30.9836 84.304 31.8343C84.304 32.3578 84.1748 32.8815 83.9806 33.405C83.7864 33.8631 83.4622 34.3213 83.1387 34.6494C82.7503 34.9766 82.3619 35.3038 81.9085 35.5002C81.3901 35.8275 80.8724 35.9582 80.3548 35.9582Z" fill="black"/>
<path d="M97.2492 35.9553C96.7957 35.9553 96.4715 35.6281 96.4715 35.17V31.7659C95.6947 31.7004 94.9179 31.4387 94.206 31.1114C93.4934 30.7187 92.8457 30.2606 92.3282 29.6717C91.8096 29.0817 91.357 28.3618 91.0328 27.642C90.7095 26.8566 90.5793 26.0713 90.5793 25.2204V21.2274C90.5793 20.7692 90.9037 20.4412 91.357 20.4412C91.8747 20.4412 92.198 20.7692 92.198 21.2274V25.2204C92.198 25.8748 92.3282 26.5294 92.5873 27.1183C92.8457 27.7073 93.2341 28.2964 93.6876 28.7545C94.1411 29.2135 94.6586 29.6061 95.2412 29.868C95.8247 30.1296 96.4715 30.2606 97.1841 30.2606H97.5076C98.2202 30.2606 98.8679 30.1296 99.4505 29.868C100.033 29.6061 100.616 29.2135 101.004 28.7545C101.458 28.2964 101.781 27.7729 102.105 27.1183C102.365 26.5294 102.494 25.8748 102.494 25.2204V21.2274C102.494 20.7692 102.817 20.4412 103.336 20.4412C103.789 20.4412 104.112 20.7692 104.112 21.2274V25.2204C104.112 26.1366 103.918 26.9875 103.595 27.7729C103.27 28.5582 102.817 29.2135 102.234 29.8024C102.234 29.868 102.17 29.868 102.17 29.868C101.652 30.3915 101.004 30.8496 100.292 31.1768C99.6447 31.504 98.8679 31.7004 98.1553 31.7659V35.17C98.026 35.6281 97.7018 35.9553 97.2492 35.9553Z" fill="black"/>
<path d="M123.405 35.9591C123.146 35.9591 122.887 35.8936 122.629 35.7627C122.369 35.6319 122.175 35.501 122.046 35.3047L111.815 21.951C111.75 21.8856 111.75 21.8856 111.75 21.8856C111.685 21.8856 111.685 21.8856 111.621 21.951C111.556 22.0165 111.556 22.0165 111.556 22.0165V35.1738C111.556 35.6319 111.233 35.9591 110.779 35.9591C110.326 35.9591 110.002 35.6319 110.002 35.1738V22.0165C110.002 21.493 110.197 21.1002 110.52 20.773C111.039 20.314 111.75 20.1831 112.398 20.5103C112.657 20.6421 112.851 20.8384 112.981 21.0349L123.211 34.3884C123.211 34.3884 123.211 34.4538 123.275 34.4538C123.34 34.4538 123.405 34.4538 123.405 34.3884C123.47 34.3229 123.47 34.3229 123.47 34.3229V21.1658C123.47 20.7076 123.794 20.3794 124.247 20.3794C124.7 20.3794 125.024 20.7076 125.024 21.1658V34.3229C125.024 34.781 124.83 35.1738 124.571 35.501C124.247 35.7628 123.859 35.9591 123.405 35.9591Z" fill="black"/>
<path d="M138.298 35.9512C137.78 35.9512 137.457 35.624 137.457 35.1659V21.9424H132.212C131.759 21.9424 131.434 21.6152 131.434 21.0915C131.434 20.6334 131.759 20.3062 132.212 20.3062H144.255C144.708 20.3062 145.032 20.6334 145.032 21.0915C145.032 21.6152 144.708 21.9424 144.255 21.9424H139.01V35.1659C139.075 35.624 138.751 35.9512 138.298 35.9512Z" fill="black"/>
<path d="M162.584 35.9512C162.132 35.9512 161.807 35.624 161.807 35.1659V31.9581H151.772V35.1659C151.772 35.624 151.448 35.9512 150.929 35.9512C150.477 35.9512 150.152 35.624 150.152 35.1659V21.0915C150.152 20.6334 150.477 20.3062 150.929 20.3062C151.382 20.3062 151.772 20.6334 151.772 21.0915V30.3211H161.807V21.0915C161.807 20.6334 162.132 20.3062 162.584 20.3062C163.037 20.3062 163.361 20.6334 163.361 21.0915V35.1659C163.361 35.624 163.037 35.9512 162.584 35.9512Z" fill="black"/>
<path d="M181.818 35.9532H176.704C175.798 35.9532 174.955 35.7569 174.18 35.4297C173.402 35.1025 172.689 34.579 172.107 33.989C171.524 33.4 171.006 32.68 170.682 31.8947C170.358 31.1093 170.163 30.2586 170.163 29.3415V26.9854C170.163 26.0691 170.358 25.2175 170.682 24.4322C171.006 23.6468 171.524 22.9269 172.107 22.338C172.689 21.7489 173.402 21.2244 174.18 20.8972C174.955 20.57 175.862 20.3737 176.704 20.3737H181.818C182.337 20.3737 182.661 20.7009 182.661 21.159C182.661 21.6834 182.337 22.0108 181.818 22.0108H176.704C175.992 22.0108 175.344 22.1415 174.762 22.4034C174.18 22.6652 173.661 23.0578 173.206 23.5159C172.755 23.9741 172.365 24.4976 172.107 25.0866C171.848 25.6765 171.719 26.331 171.719 27.0509V27.4435H180.913C181.365 27.4435 181.689 27.7708 181.689 28.2289C181.689 28.7524 181.365 29.0798 180.913 29.0798H171.719V29.4724C171.719 30.1932 171.848 30.8476 172.107 31.4367C172.365 32.0256 172.755 32.5493 173.206 33.0072C173.661 33.4654 174.18 33.8581 174.762 34.1208C175.344 34.3825 175.992 34.5134 176.704 34.5134H181.818C182.337 34.5134 182.661 34.8406 182.661 35.3643C182.661 35.626 182.337 35.9532 181.818 35.9532Z" fill="black"/>
<path d="M198.386 35.9574H192.105C191.004 35.9574 190.098 35.5648 189.321 34.7794C189.321 34.7794 189.321 34.7794 189.256 34.714L189.192 34.6485C188.544 33.9285 188.155 33.0778 188.155 32.0953V31.9644C188.155 31.5062 188.48 31.179 188.932 31.179C189.385 31.179 189.774 31.5062 189.774 31.9644C189.774 32.5543 189.967 33.0778 190.422 33.5359L190.486 33.6668C190.94 34.125 191.458 34.3213 192.105 34.3213H198.386C198.709 34.3213 199.034 34.2559 199.292 34.125C199.551 33.9941 199.81 33.7978 200.004 33.6013C200.199 33.405 200.393 33.1432 200.523 32.816C200.652 32.5543 200.717 32.2271 200.717 31.8988C200.717 31.179 200.523 30.6555 200.199 30.3283C199.81 29.9355 199.356 29.6737 198.774 29.5428C198.191 29.3465 197.544 29.2156 196.896 29.1502C196.184 29.0848 195.602 28.9539 195.083 28.8883C194.177 28.7574 193.336 28.6267 192.559 28.4302C191.781 28.2339 191.07 27.9712 190.422 27.644C189.774 27.3168 189.256 26.8586 188.932 26.2697C188.544 25.7461 188.349 25.0263 188.349 24.1754C188.349 23.1275 188.738 22.1457 189.516 21.3603L189.579 21.2949C190.357 20.575 191.263 20.1824 192.3 20.1824H198.257C199.292 20.1824 200.199 20.5096 200.911 21.2296L200.976 21.2949C201.753 22.0803 202.141 22.9966 202.141 24.11C202.141 24.5681 201.817 24.8953 201.364 24.8953C200.847 24.8953 200.523 24.5681 200.523 24.11C200.523 23.4547 200.328 22.931 199.875 22.4729L199.616 22.2766C199.227 21.9494 198.709 21.7531 198.191 21.7531H192.3C191.781 21.7531 191.263 21.9494 190.875 22.2766L190.68 22.4729C190.227 22.931 190.033 23.4547 190.033 24.11C190.033 24.699 190.162 25.2226 190.486 25.5498C190.81 25.9425 191.198 26.2042 191.716 26.466C192.235 26.7279 192.882 26.8586 193.594 26.9896C194.306 27.1205 195.083 27.2514 195.86 27.3168C196.637 27.4477 197.414 27.5786 198.126 27.7095C198.903 27.8404 199.616 28.103 200.199 28.3648C200.847 28.692 201.364 29.0848 201.753 29.6737C202.141 30.1974 202.399 30.9827 202.399 31.8334C202.399 32.3578 202.27 32.8815 202.077 33.405C201.882 33.8631 201.558 34.3213 201.235 34.6485C200.847 34.9757 200.457 35.3029 200.004 35.4992C199.422 35.8266 198.969 35.9574 198.386 35.9574Z" fill="black"/>
<path d="M209.72 35.9512C209.267 35.9512 208.943 35.624 208.943 35.1659V21.0915C208.943 20.6334 209.267 20.3062 209.72 20.3062C210.173 20.3062 210.562 20.6334 210.562 21.0915V35.1659C210.562 35.624 210.239 35.9512 209.72 35.9512Z" fill="black"/>
<path d="M230.696 35.9512H220.142C219.754 35.9512 219.366 35.8858 218.977 35.6894C218.653 35.5585 218.329 35.3622 218.071 35.1005C217.812 34.8387 217.618 34.5106 217.424 34.1834C217.294 33.8561 217.228 33.4634 217.228 33.0708C217.228 32.5471 217.359 32.0236 217.618 31.6309C217.876 31.2383 218.2 30.8457 218.653 30.5838L229.014 24.4302C229.209 24.2993 229.402 24.1684 229.531 23.9721C229.66 23.7756 229.726 23.5793 229.662 23.3175C229.662 22.8594 229.531 22.5323 229.273 22.2705C229.014 22.0078 228.69 21.8769 228.366 21.8769H218.395C217.941 21.8769 217.618 21.5496 217.618 21.0915C217.618 20.6334 217.941 20.3062 218.395 20.3062H228.366C228.754 20.3062 229.143 20.3717 229.466 20.568C229.791 20.6989 230.114 20.8952 230.374 21.157C230.632 21.4187 230.827 21.7459 231.021 22.0742C231.151 22.4014 231.28 22.794 231.28 23.1867C231.28 23.7102 231.151 24.1684 230.891 24.6265C230.632 25.0846 230.308 25.4119 229.855 25.6736L219.496 31.8273C219.301 31.9582 219.172 32.089 219.042 32.3508C218.912 32.5471 218.848 32.7434 218.848 32.9399C218.848 33.3325 218.977 33.6597 219.237 33.9869C219.496 34.2488 219.82 34.3797 220.207 34.3797H230.761C231.215 34.3797 231.539 34.7077 231.539 35.1659C231.475 35.624 231.151 35.9512 230.696 35.9512Z" fill="black"/>
<path d="M249.028 35.9532H243.912C243.006 35.9532 242.165 35.7569 241.388 35.4297C240.611 35.1025 239.899 34.579 239.316 33.989C238.733 33.4 238.215 32.68 237.89 31.8947C237.568 31.1093 237.373 30.2586 237.373 29.3415V26.9854C237.373 26.0691 237.568 25.2175 237.89 24.4322C238.215 23.6468 238.733 22.9269 239.316 22.338C239.899 21.7489 240.611 21.2244 241.388 20.8972C242.165 20.57 243.071 20.3737 243.912 20.3737H249.028C249.545 20.3737 249.871 20.7009 249.871 21.159C249.871 21.6834 249.545 22.0108 249.028 22.0108H243.912C243.201 22.0108 242.553 22.1415 241.97 22.4034C241.388 22.6652 240.869 23.0578 240.416 23.5159C239.963 23.9741 239.574 24.4976 239.316 25.0866C239.057 25.6765 238.927 26.331 238.927 27.0509V27.4435H248.122C248.575 27.4435 248.897 27.7708 248.897 28.2289C248.897 28.7524 248.575 29.0798 248.122 29.0798H238.927V29.4724C238.927 30.1932 239.057 30.8476 239.316 31.4367C239.574 32.0256 239.963 32.5493 240.416 33.0072C240.869 33.4654 241.388 33.8581 241.97 34.1208C242.553 34.3825 243.201 34.5134 243.912 34.5134H249.028C249.545 34.5134 249.871 34.8406 249.871 35.3643C249.805 35.626 249.481 35.9532 249.028 35.9532Z" fill="black"/>
<path d="M262.618 35.9532H258.991C258.086 35.9532 257.308 35.626 256.661 35.0371L256.596 34.9716C255.948 34.3171 255.625 33.4654 255.625 32.5493V23.7778C255.625 22.8615 255.948 22.0106 256.596 21.3553L256.661 21.2899C257.308 20.7009 258.086 20.3737 258.991 20.3737H262.618C263.524 20.3737 264.365 20.57 265.142 20.8972C265.92 21.2244 266.633 21.7489 267.215 22.338C267.798 22.9269 268.251 23.6468 268.64 24.4322C268.963 25.2175 269.157 26.0691 269.157 26.9854V29.3415C269.157 30.2586 268.963 31.1093 268.64 31.8947C268.315 32.68 267.798 33.4 267.215 33.989C266.633 34.579 265.92 35.1025 265.142 35.4297C264.365 35.7569 263.459 35.9532 262.618 35.9532ZM257.826 33.9235C258.215 34.1862 258.538 34.3171 258.991 34.3171H262.618C263.264 34.3171 263.912 34.1862 264.495 33.9235C265.079 33.6618 265.661 33.2691 266.114 32.8109C266.567 32.3528 266.955 31.8293 267.215 31.2402C267.474 30.6513 267.603 29.9968 267.603 29.2761V26.92C267.603 26.2001 267.474 25.5448 267.215 24.9557C266.955 24.3667 266.567 23.7778 266.114 23.385C265.661 22.9269 265.142 22.5997 264.495 22.2724C263.912 22.0106 263.264 21.8798 262.618 21.8798H258.991C258.603 21.8798 258.215 22.0106 257.891 22.2724C257.891 22.2724 257.826 22.2724 257.826 22.338L257.697 22.4687C257.373 22.796 257.178 23.2541 257.178 23.7778V32.5493C257.178 33.0728 257.373 33.4654 257.697 33.8581L257.826 33.9235Z" fill="black"/>
<path d="M44.7125 0.851929L38.7293 11.3678H42.8745C42.0535 16.2308 37.8303 19.9865 32.7851 20.0258C31.417 20.0258 30.0481 20.3818 28.836 21.093C27.037 22.1209 25.7858 23.8217 25.2379 25.8374C24.6909 27.854 24.964 29.9492 26.02 31.7676C27.037 33.5862 28.7181 34.8514 30.7131 35.4047C31.3781 35.6028 32.0421 35.6813 32.7071 35.6813C34.0372 35.6813 35.3663 35.3261 36.5783 34.6141C38.3774 33.5862 39.6293 31.8863 40.1764 29.8697C40.7243 27.854 40.4504 25.7589 39.3943 23.9395C39.0424 23.347 38.6513 22.8329 38.1823 22.3582C42.5224 20.4212 45.6905 16.3093 46.3164 11.407H50.6958L44.7125 0.851929ZM33.8022 23.6236C34.8972 23.9395 35.8353 24.6515 36.4223 25.6402C37.0092 26.6281 37.1653 27.8138 36.8523 28.9212C36.5394 30.0286 35.8353 30.9771 34.8581 31.5705C33.8802 32.163 32.7071 32.321 31.6121 32.005C30.5172 31.6883 29.579 30.9771 28.9921 29.9884C28.406 29.0007 28.2491 27.8138 28.5621 26.7074C28.8751 25.6 29.579 24.6515 30.5561 24.0581C31.2211 23.6628 31.9251 23.4656 32.6682 23.4656C32.6682 23.4656 32.6682 23.4656 32.7071 23.4656C32.7071 23.4656 32.7071 23.4656 32.7462 23.4656C33.0592 23.4656 33.4501 23.5049 33.8022 23.6236Z" fill="black"/>
<path d="M49.5235 36.9497L38.0261 33.4707L40.7633 45.291L43.7752 42.4446C46.4733 46.5955 45.9254 52.2493 42.2493 55.7676C41.5462 56.4394 41.5063 57.5075 42.1713 58.2187C42.8363 58.9307 43.8923 58.97 44.5962 58.2982C49.6795 53.4752 50.3054 45.6077 46.3164 40.0326L49.5235 36.9497Z" fill="black"/>
<path d="M16.2059 36.1887L25.0441 28.0054L13.6248 24.3282L14.524 28.4007C9.59674 28.6381 5.06059 25.2776 3.96556 20.2566C3.77007 19.3072 2.83154 18.7147 1.93211 18.952C0.99358 19.1494 0.406963 20.0987 0.64157 21.008C2.16671 27.8867 8.50171 32.4724 15.3059 31.8397L16.2059 36.1887Z" fill="black"/>
</g>
<defs>
<clipPath id="clip0_624_9608">
<rect width="269.412" height="60" fill="white"/>
</clipPath>
</defs>
</svg>
