<svg width="145" height="50" viewBox="0 0 145 50" fill="none" xmlns="http://www.w3.org/2000/svg">
    <path
        d="M8.28648 35.7094C8.89514 37.3246 9.7378 38.7057 10.8146 39.8526C11.8915 40.9997 13.1672 41.8774 14.6418 42.4861C16.1166 43.0948 17.72 43.399 19.4523 43.399C21.1378 43.399 22.7178 43.0829 24.1925 42.4508C25.6673 41.8187 26.9547 40.9293 28.0548 39.7824C29.155 38.6353 30.0094 37.266 30.6181 35.6742C31.2268 34.0825 31.531 32.3036 31.531 30.3372V0H38.9046V49.1573H31.6012V44.5927C29.9627 46.3248 28.0314 47.6591 25.8076 48.5956C23.5837 49.5318 21.1845 50 18.6096 50C15.9878 50 13.5417 49.5435 11.271 48.6306C9.00049 47.7177 7.03406 46.4186 5.3722 44.7332C3.71033 43.0477 2.39933 41.0231 1.43966 38.6588C0.479836 36.2945 0 33.6612 0 30.7584V0H7.37358V30.3372C7.37358 32.3036 7.67783 34.0941 8.28648 35.7094Z"
        fill="white" />
    <path
        d="M51.6146 0V17.9073C53.2532 16.2687 55.1494 14.9697 57.3029 14.0099C59.4564 13.05 61.7973 12.5702 64.3253 12.5702C66.9471 12.5702 69.4047 13.0617 71.6989 14.0448C73.9929 15.028 75.9824 16.3623 77.6679 18.0477C79.3534 19.7332 80.6877 21.7228 81.6708 24.0168C82.654 26.3109 83.1455 28.7454 83.1455 31.3203C83.1455 33.8951 82.654 36.3179 81.6708 38.5884C80.6877 40.859 79.3534 42.8371 77.6679 44.5223C75.9824 46.2078 73.9929 47.5421 71.6989 48.5252C69.4047 49.5084 66.947 49.9998 64.3253 49.9998C61.7971 49.9998 59.4447 49.52 57.2678 48.5602C55.0908 47.6005 53.1829 46.3013 51.5444 44.6628V49.1572H44.522V0H51.6146ZM52.4222 36.1657C53.0541 37.664 53.9321 38.9748 55.0557 40.0984C56.1793 41.222 57.4901 42.1116 58.9882 42.767C60.4865 43.4225 62.1015 43.7502 63.8338 43.7502C65.5193 43.7502 67.1109 43.4225 68.609 42.767C70.1071 42.1116 71.4061 41.2222 72.5066 40.0984C73.6067 38.975 74.4845 37.664 75.1399 36.1657C75.7954 34.6676 76.1231 33.0525 76.1231 31.3203C76.1231 29.588 75.7954 27.9611 75.1399 26.4396C74.4845 24.918 73.6067 23.5955 72.5066 22.4719C71.4063 21.3485 70.1073 20.4705 68.609 19.8386C67.1108 19.2066 65.5191 18.8904 63.8338 18.8904C62.1485 18.8904 60.5567 19.2065 59.0586 19.8386C57.5605 20.4707 56.2497 21.3485 55.1259 22.4719C54.0025 23.5955 53.1129 24.918 52.4574 26.4396C51.802 27.9611 51.4743 29.588 51.4743 31.3203C51.4742 33.0525 51.7902 34.6676 52.4222 36.1657Z"
        fill="white" />
    <path
        d="M87.1476 24.0872C88.0838 21.84 89.3715 19.862 91.0099 18.1533C92.6483 16.4445 94.5914 15.0985 96.8386 14.1154C99.0859 13.1322 101.52 12.6407 104.142 12.6407C106.717 12.6407 109.105 13.1089 111.305 14.0451C113.505 14.9815 115.401 16.2807 116.993 17.9427C118.585 19.6046 119.826 21.571 120.715 23.8415C121.605 26.1122 122.049 28.5817 122.049 31.2504V33.5678H92.9061C93.1403 35.0191 93.6085 36.3651 94.3107 37.6055C95.013 38.8462 95.8906 39.923 96.944 40.8359C97.9974 41.7489 99.1912 42.4629 100.526 42.9777C101.86 43.4927 103.276 43.7503 104.774 43.7503C109.035 43.7503 112.476 41.9946 115.097 38.4833L120.224 42.2754C118.445 44.6631 116.244 46.5358 113.623 47.8934C111.001 49.251 108.051 49.9299 104.774 49.9299C102.106 49.9299 99.6128 49.4616 97.2953 48.5254C94.9779 47.5892 92.9648 46.2782 91.2561 44.5927C89.5473 42.9072 88.2013 40.9293 87.2182 38.6588C86.235 36.3882 85.7434 33.9185 85.7434 31.2501C85.7431 28.7221 86.2114 26.3344 87.1476 24.0872ZM97.0142 21.3132C95.0245 22.9752 93.702 25.1873 93.0466 27.9495H114.887C114.278 25.1873 112.979 22.9752 110.989 21.3132C108.999 19.6513 106.67 18.8203 104.002 18.8203C101.333 18.8203 99.004 19.6513 97.0142 21.3132Z"
        fill="white" />
    <path
        d="M135.321 22.1208C133.823 23.7593 133.074 25.9831 133.074 28.7921V49.1575H125.981V13.3428H133.004V17.767C133.893 16.3156 135.052 15.1686 136.48 14.3259C137.908 13.4831 139.605 13.0617 141.571 13.0617H144.029V19.6628H141.08C138.739 19.663 136.819 20.4822 135.321 22.1208Z"
        fill="white" />
</svg>