<svg width="382" height="60" viewBox="0 0 382 60" fill="none" xmlns="http://www.w3.org/2000/svg">
<g clip-path="url(#clip0_623_9646)">
<path d="M163.995 55.0909L147.359 8.45451C147.086 7.90906 146.813 7.09088 146.813 6.27269C146.813 4.3636 148.45 2.18178 151.177 2.18178C153.086 2.18178 154.722 3.54542 155.541 5.72724L169.177 45.8181L183.086 5.45451C183.631 3.54542 184.995 1.90906 187.177 1.90906H187.722C189.904 1.90906 191.541 3.27269 192.086 5.45451L205.722 45.8181L219.631 5.45451C220.177 3.81815 221.268 2.18178 223.722 2.18178C226.177 2.18178 227.813 3.81815 227.813 5.99997C227.813 6.81815 227.541 7.63633 227.268 8.18178L210.359 54.8181C209.541 57.2727 207.904 58.6363 205.722 58.6363H205.45C203.541 58.6363 201.631 57.5454 200.813 54.8181L187.177 15.2727L173.541 54.8181C172.722 57.2727 171.359 58.6363 168.904 58.6363H168.631C166.45 58.909 164.813 57.2727 163.995 55.0909Z" fill="#717074"/>
<path d="M285.631 6.5454C285.631 4.36358 287.268 2.18176 289.722 2.18176C291.904 2.18176 294.086 3.81813 294.086 6.5454V16.0909C298.177 6.81813 307.177 2.72722 312.904 2.72722C315.359 2.72722 316.995 4.36358 316.995 7.09085C316.995 9.27267 315.631 10.909 313.177 11.4545C302.54 12.5454 293.813 20.7272 293.813 36.5454V55.0909C293.813 57.2727 292.177 59.4545 289.722 59.4545C287.54 59.4545 285.359 57.8181 285.359 55.0909V6.5454" fill="#717074"/>
<path d="M343.45 59.1818C328.722 59.1818 316.722 47.7272 316.722 30.8181V30.5454C316.722 14.7272 327.631 2.18176 342.631 2.18176C358.722 2.18176 367.722 15.2727 367.722 29.9999C367.722 32.1818 366.086 33.8181 363.904 33.8181H324.631C325.722 45.5454 334.177 52.3636 343.722 52.3636C350.268 52.3636 355.45 49.909 359.268 46.0909C359.813 45.5454 360.631 45.2727 361.45 45.2727C363.359 45.2727 364.995 46.909 364.995 48.8181C364.995 49.6363 364.722 50.7272 363.904 51.2727C358.722 55.909 352.722 59.1818 343.45 59.1818ZM359.54 27.5454C358.722 17.4545 352.995 8.99995 342.359 8.99995C332.813 8.99995 325.722 16.909 324.904 27.5454H359.54Z" fill="#717074"/>
<path d="M227.541 42.2727C227.541 30.5454 237.086 24.2727 250.995 24.2727C258.086 24.2727 262.995 25.0909 267.904 26.4545V24.5454C267.904 14.4545 261.904 9.81813 251.541 9.81813C246.086 9.81813 242.813 10.3636 238.722 12.2727C238.177 12.5454 237.631 12.5454 237.359 12.5454C235.45 12.5454 233.541 10.909 233.541 8.99994C233.541 7.09085 234.359 6.27267 235.722 5.45449C241.177 3.27267 245.268 2.18176 252.359 2.18176C259.995 2.18176 265.995 4.09085 270.086 8.18176C273.904 11.9999 275.813 17.4545 275.813 24.2727V54.5454C275.813 56.7272 274.177 58.6363 271.722 58.6363C269.541 58.6363 267.631 56.9999 267.631 54.8181V49.3636C263.813 54.5454 257.268 58.909 247.722 58.909C237.904 59.1818 227.541 53.4545 227.541 42.2727ZM267.904 37.909V32.4545C263.813 31.3636 258.359 30.2727 251.541 30.2727C241.177 30.2727 235.45 34.909 235.45 41.7272V41.9999C235.45 48.8181 241.722 52.909 249.086 52.909C259.722 52.909 267.904 46.6363 267.904 37.909Z" fill="#717074"/>
<path d="M15.086 5.72725C13.4496 1.63634 8.81323 -2.6226e-05 4.72232 1.63634C0.631407 3.2727 -1.00496 8.18179 1.17686 12L18.6314 49.9091C21.3587 55.9091 24.3587 59.1818 29.8132 59.1818C35.5405 59.1818 37.995 55.6363 40.995 49.9091C40.995 49.9091 56.2678 16.6363 56.5405 16.3636C56.8132 16.0909 57.086 15 58.7223 15C60.086 15 60.9041 16.0909 60.9041 17.4545V49.6363C60.9041 54.5454 63.6314 58.9091 68.8132 58.9091C74.2678 58.9091 76.995 54.8182 76.995 49.6363V23.4545C76.995 18.2727 80.8132 15 85.4496 15C90.3587 15 93.6314 18.5454 93.6314 23.4545V49.9091C93.6314 54.8182 96.3587 59.1818 101.541 59.1818C106.995 59.1818 109.722 55.0909 109.722 49.9091V23.4545C109.722 18.2727 113.541 15 118.177 15C123.086 15 126.359 18.5454 126.359 23.4545V49.9091C126.359 54.8182 129.086 59.1818 134.268 59.1818C139.722 59.1818 142.45 55.0909 142.45 49.9091V19.9091C142.45 8.72725 133.722 1.09088 122.813 1.09088C111.904 1.09088 105.359 8.45452 105.359 8.45452C101.54 3.81816 96.9041 1.09088 88.4496 1.09088C79.7223 1.09088 71.8132 8.45452 71.8132 8.45452C68.2678 3.81816 61.995 1.09088 57.3587 1.09088C49.7223 1.09088 43.4496 4.63634 39.6314 13.0909L28.4496 39.2727L15.086 5.72725Z" fill="#717074"/>
<path d="M367.995 8.99994C367.995 5.18176 371.268 2.18176 374.813 2.18176C378.631 2.18176 381.631 5.45449 381.631 8.99994C381.631 12.8181 378.359 15.8181 374.813 15.8181C370.995 15.8181 367.995 12.8181 367.995 8.99994ZM380.268 8.99994C380.268 5.72722 378.086 3.5454 374.813 3.5454C371.541 3.5454 369.359 5.99994 369.359 8.99994C369.359 12.2727 371.541 14.4545 374.813 14.4545C378.086 14.4545 380.268 11.9999 380.268 8.99994Z" fill="#717074"/>
<path d="M377.54 9.27277C377.268 9.5455 376.722 9.81823 376.177 10.091L377.813 12.5455H376.45L374.813 10.091H373.722V12.5455H372.359V5.45459H375.359C375.904 5.45459 376.177 5.45459 376.722 5.72732C376.995 6.00004 377.54 6.27277 377.54 6.5455C377.813 6.81823 377.813 7.36368 377.813 7.63641C378.086 8.45459 377.813 9.00004 377.54 9.27277ZM373.722 9.00004H375.359C375.904 9.00004 376.177 9.00004 376.45 8.72732C376.722 8.45459 376.722 8.18186 376.722 7.90914C376.722 7.63641 376.45 7.36368 376.45 7.09095C376.177 6.81823 375.904 6.81823 375.359 6.81823H373.722V9.00004Z" fill="#717074"/>
</g>
<defs>
<clipPath id="clip0_623_9646">
<rect width="381.818" height="60" fill="white" transform="translate(0.0859375)"/>
</clipPath>
</defs>
</svg>
