<svg width="192" height="31" viewBox="0 0 192 31" fill="none" xmlns="http://www.w3.org/2000/svg">
<g clip-path="url(#clip0_1522_77145)">
<path d="M82.3487 28.3985L74.0305 5.08034C73.8942 4.80762 73.7578 4.39853 73.7578 3.98944C73.7578 3.03489 74.576 1.94398 75.9396 1.94398C76.8942 1.94398 77.7124 2.6258 78.1214 3.71671L84.9396 23.7622L91.8942 3.58034C92.1669 2.6258 92.8487 1.80762 93.9396 1.80762H94.2124C95.3033 1.80762 96.1214 2.48944 96.3942 3.58034L103.212 23.7622L110.167 3.58034C110.44 2.76216 110.985 1.94398 112.212 1.94398C113.44 1.94398 114.258 2.76216 114.258 3.85307C114.258 4.26216 114.121 4.67125 113.985 4.94398L105.531 28.2622C105.121 29.4894 104.303 30.1713 103.212 30.1713H103.076C102.121 30.1713 101.167 29.6258 100.758 28.2622L93.9396 8.48944L87.1214 28.2622C86.7124 29.4894 86.0305 30.1713 84.8033 30.1713H84.6669C83.576 30.3076 82.7578 29.4894 82.3487 28.3985Z" fill="#9991B5"/>
<path d="M143.164 4.12518C143.164 3.03427 143.982 1.94336 145.209 1.94336C146.3 1.94336 147.391 2.76154 147.391 4.12518V8.89791C149.436 4.26154 153.936 2.21609 156.8 2.21609C158.027 2.21609 158.846 3.03427 158.846 4.39791C158.846 5.48882 158.164 6.307 156.936 6.57973C151.618 7.12518 147.255 11.2161 147.255 19.1252V28.3979C147.255 29.4888 146.436 30.5797 145.209 30.5797C144.118 30.5797 143.027 29.7616 143.027 28.3979V4.12518" fill="#9991B5"/>
<path d="M172.075 30.4434C164.711 30.4434 158.711 24.7161 158.711 16.2615V16.1252C158.711 8.21609 164.165 1.94336 171.665 1.94336C179.711 1.94336 184.211 8.48881 184.211 15.8524C184.211 16.9434 183.393 17.7615 182.302 17.7615H162.665C163.211 23.6252 167.438 27.0343 172.211 27.0343C175.484 27.0343 178.075 25.807 179.984 23.8979C180.256 23.6252 180.665 23.4888 181.075 23.4888C182.029 23.4888 182.847 24.307 182.847 25.2615C182.847 25.6706 182.711 26.2161 182.302 26.4888C179.711 28.807 176.711 30.4434 172.075 30.4434ZM180.12 14.6252C179.711 9.57972 176.847 5.35245 171.529 5.35245C166.756 5.35245 163.211 9.307 162.802 14.6252H180.12Z" fill="#9991B5"/>
<path d="M114.121 21.9888C114.121 16.1252 118.894 12.9888 125.848 12.9888C129.394 12.9888 131.848 13.3979 134.303 14.0797V13.1252C134.303 8.07972 131.303 5.76154 126.121 5.76154C123.394 5.76154 121.757 6.03427 119.712 6.98881C119.439 7.12518 119.167 7.12518 119.03 7.12518C118.076 7.12518 117.121 6.30699 117.121 5.35245C117.121 4.3979 117.53 3.98881 118.212 3.57972C120.939 2.48881 122.985 1.94336 126.53 1.94336C130.348 1.94336 133.348 2.8979 135.394 4.94336C137.303 6.85245 138.257 9.57972 138.257 12.9888V28.1252C138.257 29.2161 137.439 30.1706 136.212 30.1706C135.121 30.1706 134.167 29.3524 134.167 28.2615V25.5343C132.257 28.1252 128.985 30.307 124.212 30.307C119.303 30.4434 114.121 27.5797 114.121 21.9888ZM134.303 19.807V17.0797C132.257 16.5343 129.53 15.9888 126.121 15.9888C120.939 15.9888 118.076 18.307 118.076 21.7161V21.8524C118.076 25.2615 121.212 27.307 124.894 27.307C130.212 27.307 134.303 24.1706 134.303 19.807Z" fill="#9991B5"/>
<path d="M7.89246 3.71641C7.07427 1.67095 4.7561 0.85277 2.71064 1.67095C0.665191 2.48913 -0.15299 4.94368 0.937918 6.85277L9.66518 25.8073C11.0288 28.8073 12.5288 30.4437 15.2561 30.4437C18.1197 30.4437 19.347 28.6709 20.847 25.8073C20.847 25.8073 28.4833 9.17095 28.6197 9.03458C28.7561 8.89822 28.8924 8.35277 29.7106 8.35277C30.3924 8.35277 30.8015 8.89822 30.8015 9.58004V25.6709C30.8015 28.1255 32.1652 30.3073 34.7561 30.3073C37.4833 30.3073 38.847 28.2619 38.847 25.6709V12.58C38.847 9.98913 40.7561 8.35277 43.0742 8.35277C45.5288 8.35277 47.1651 10.1255 47.1651 12.58V25.8073C47.1651 28.2618 48.5288 30.4437 51.1197 30.4437C53.847 30.4437 55.2106 28.3982 55.2106 25.8073V12.58C55.2106 9.98913 57.1197 8.35277 59.4379 8.35277C61.8924 8.35277 63.5288 10.1255 63.5288 12.58V25.8073C63.5288 28.2618 64.8924 30.4437 67.4833 30.4437C70.2106 30.4437 71.5742 28.3982 71.5742 25.8073V10.8073C71.5742 5.21641 67.2106 1.39822 61.756 1.39822C56.3015 1.39822 53.0288 5.08004 53.0288 5.08004C51.1197 2.76186 48.8015 1.39822 44.5742 1.39822C40.2106 1.39822 36.2561 5.08004 36.2561 5.08004C34.4833 2.76186 31.347 1.39822 29.0288 1.39822C25.2106 1.39822 22.0743 3.17095 20.1652 7.39822L14.5743 20.4891L7.89246 3.71641Z" fill="#9991B5"/>
<path d="M184.348 5.35245C184.348 3.44336 185.984 1.94336 187.757 1.94336C189.666 1.94336 191.166 3.57972 191.166 5.35245C191.166 7.26154 189.529 8.76154 187.757 8.76154C185.848 8.76154 184.348 7.26154 184.348 5.35245ZM190.484 5.35245C190.484 3.71609 189.393 2.62518 187.757 2.62518C186.12 2.62518 185.029 3.85245 185.029 5.35245C185.029 6.98881 186.12 8.07972 187.757 8.07972C189.393 8.07972 190.484 6.85245 190.484 5.35245Z" fill="#9991B5"/>
<path d="M189.118 5.48917C188.982 5.62553 188.709 5.7619 188.436 5.89826L189.255 7.12553H188.573L187.755 5.89826H187.209V7.12553H186.527V3.58008H188.027C188.3 3.58008 188.436 3.58008 188.709 3.71644C188.846 3.85281 189.118 3.98917 189.118 4.12553C189.255 4.2619 189.255 4.53462 189.255 4.67099C189.391 5.08008 189.255 5.35281 189.118 5.48917ZM187.209 5.35281H188.027C188.3 5.35281 188.436 5.35281 188.573 5.21644C188.709 5.08008 188.709 4.94372 188.709 4.80735C188.709 4.67099 188.573 4.53462 188.573 4.39826C188.436 4.2619 188.3 4.2619 188.027 4.2619H187.209V5.35281Z" fill="#9991B5"/>
</g>
<defs>
<clipPath id="clip0_1522_77145">
<rect width="190.909" height="30" fill="white" transform="translate(0.390625 0.852539)"/>
</clipPath>
</defs>
</svg>
