<svg width="222" height="51" viewBox="0 0 222 51" fill="none" xmlns="http://www.w3.org/2000/svg">
<path d="M221.009 22.0282C221.009 9.19685 212.069 0.172913 199.538 0.172913C183.583 0.172913 172.89 11.7646 172.89 28.3176C172.89 41.2348 181.917 50.1729 194.662 50.1729C206.254 50.1729 214.894 44.5702 218.444 35.6297H205.57C203.858 38.412 200.222 40.1643 195.773 40.1643C188.931 40.1643 184.654 35.6297 184.267 29.214H220.282C220.754 26.7774 221.009 24.6818 221.009 22.0282ZM185.252 20.531C186.406 14.6303 192.137 9.92401 199.068 9.92401C205.055 9.92401 209.589 14.287 209.589 20.5334H185.252V20.531ZM138.287 49.0166L140.597 36.7002C147.654 38.1116 148.725 34.1325 150.563 24.553L151.462 19.8039C154.027 6.41695 159.203 -0.256231 174.004 1.5414L171.691 13.8602C164.634 12.4488 163.394 17.794 161.814 26.0908L160.915 30.84C158.347 44.3985 152.999 50.8142 138.289 49.019L138.287 49.0166ZM121.007 49.0619L129.733 1.32683H141.239L132.556 49.0619H121.007ZM55.0927 1.32683H66.2576L69.8934 35.8443L84.5224 1.32683H95.5991L99.4948 36.1876L113.609 1.32683H124.731L104.499 49.0619H91.8393L87.7267 16.211L73.7462 49.0643H61.5108L55.0975 1.32922L55.0927 1.32683Z" fill="white"/>
<path d="M13.3895 13.9866L0.131348 26.6463H22.6709L25.0241 21.1294H13.6041L20.7469 13.9866L16.5985 6.84371H35.9744L18.0934 49.0619H24.8095L45.0412 1.32683H5.94863L13.3895 13.9866Z" fill="white"/>
</svg>
