<svg width="248" height="50" viewBox="0 0 248 50" fill="none" xmlns="http://www.w3.org/2000/svg">
<path fill-rule="evenodd" clip-rule="evenodd" d="M108.951 12.4544C107.161 11.4458 104.463 10.9667 100.756 10.9667C95.688 10.9667 90.973 12.0509 89.208 12.7317C88.9716 12.7952 88.7614 12.9319 88.6074 13.1221C88.4534 13.3123 88.3636 13.5463 88.3507 13.7907V13.942L88.855 16.4887V16.5391C89.0315 17.0434 89.4601 17.2955 89.8635 17.2955L90.1661 17.2451L90.9982 17.0434C93.217 16.4887 96.5453 15.6314 100.277 15.6314C102.546 15.6314 104.059 15.8331 105.068 16.2617C106.732 16.9173 106.757 18.0015 106.782 19.7917V22.4897H105.774C103.933 22.4897 100.353 22.5653 96.8227 23.1452C91.4268 23.9773 86.9891 25.2885 86.9891 32.8275C86.9891 42.409 95.7385 42.409 99.9493 42.4342C102.798 42.4342 105.421 42.0055 107.161 41.6525C111.069 40.7196 112.077 39.4589 112.027 35.5003V19.5648C112.027 17.1442 112.027 14.1185 108.951 12.4544ZM106.808 37.0635C104.606 37.76 102.308 38.1005 99.9997 38.0721C96.1419 38.0721 92.3597 37.6183 92.3597 32.6006C92.3597 28.6167 94.4777 28.1377 97.1252 27.5577L97.3018 27.5073C99.6467 27.003 105.572 26.9022 106.808 26.877V37.0635ZM155.723 19.5648V35.5003C155.799 39.4589 154.79 40.7196 150.857 41.6273C149.142 42.0055 146.52 42.4342 143.671 42.4342C139.46 42.4342 130.711 42.409 130.711 32.8275C130.686 25.2885 135.123 23.9773 140.544 23.1452C144.074 22.5653 147.655 22.4644 149.47 22.4644H150.479V19.8169C150.479 18.0267 150.454 16.9425 148.789 16.2869C147.781 15.8583 146.268 15.6566 143.999 15.6566C140.267 15.6566 136.939 16.5139 134.72 17.0686L133.863 17.2703C133.732 17.3125 133.594 17.3275 133.457 17.3145C133.32 17.3015 133.188 17.2607 133.067 17.1946C132.947 17.1285 132.841 17.0385 132.757 16.9301C132.673 16.8217 132.611 16.6972 132.577 16.5643V16.5139L132.072 13.9672V13.8159C132.072 13.236 132.501 12.8578 132.904 12.7317C134.695 12.0761 139.41 10.9919 144.478 10.9919C148.184 10.9919 150.857 11.4962 152.672 12.5048C155.749 14.1437 155.749 17.1694 155.723 19.59V19.5648ZM150.529 26.877C149.268 26.877 143.368 27.003 141.023 27.5073L140.822 27.5577C138.174 28.1377 136.081 28.6167 136.056 32.6006C136.056 37.6183 139.838 38.0721 143.721 38.0973V38.3243V38.0721C146.03 38.1005 148.328 37.76 150.529 37.0635V26.877ZM234.922 10.9667C222.743 10.9667 221.709 19.1109 221.709 26.7257C221.709 34.3152 222.743 42.409 234.922 42.4342C247.1 42.409 248.134 34.3404 248.159 26.7257C248.159 18.7579 247.1 10.9919 234.922 10.9667ZM234.922 37.9713C227.534 37.9713 227.156 34.0882 227.105 26.7257C227.181 19.3127 227.534 15.4549 234.922 15.4044C242.309 15.4549 242.688 19.3127 242.738 26.7257C242.688 34.0882 242.309 37.946 234.922 37.9713ZM213.061 41.2995L212.758 41.4004C211.044 41.829 208.724 42.409 204.614 42.409C193.343 42.409 191.124 36.6349 191.124 26.6752C191.124 15.2279 194.705 10.9919 204.286 10.9667C207.665 10.9667 210.01 11.4206 211.674 11.824V2.62078C211.649 2.21735 211.825 1.68785 212.758 1.51135L215.759 0.729703H215.935C216.616 0.729703 216.868 1.36006 216.868 1.88956V36.4836C216.893 38.6773 216.641 40.5431 213.086 41.2995H213.061ZM211.649 16.2617C210.64 16.0096 207.867 15.354 204.715 15.354C198.966 15.4044 196.52 16.9929 196.47 26.7257C196.545 37.4165 199.672 37.9965 204.79 38.0469V38.2738V38.0217C207.967 38.0217 210.691 37.3661 211.649 37.0888V16.2617ZM184.77 41.703H182.098C181.763 41.703 181.442 41.5701 181.206 41.3337C180.97 41.0973 180.837 40.7766 180.837 40.4423V19.8674C180.786 16.413 179.753 15.4297 176.046 15.3792C171.911 15.3792 167.675 16.4382 166.288 16.8417V40.3918C166.288 41.1483 165.784 41.6778 165.103 41.6778H162.355C162.02 41.6778 161.7 41.5449 161.463 41.3085C161.227 41.0721 161.094 40.7514 161.094 40.417V17.3964C161.069 15.2784 161.245 13.8159 164.246 12.8326C167.095 11.824 172.567 10.9667 176.172 10.9667C183.056 10.9667 186.006 13.4881 186.006 19.4135V40.4423C186.006 40.7766 185.873 41.0973 185.636 41.3337C185.4 41.5701 185.079 41.703 184.745 41.703H184.77ZM124.105 42.2577C125.668 42.2325 126.803 41.9299 127.231 41.4004C127.307 41.3244 127.366 41.2338 127.405 41.134C127.444 41.0342 127.462 40.9275 127.458 40.8205C127.458 40.644 127.458 40.644 127.029 38.6268V38.5764C126.903 38.0721 126.55 37.82 126.248 37.82H125.441C124.332 37.7948 123.424 37.6183 123.424 36.0045V1.88956C123.424 1.33485 123.071 0.729703 122.415 0.729703H122.239L119.213 1.51135C118.709 1.56178 118.204 1.93999 118.204 2.62078V36.1054C118.204 40.064 120.322 42.2577 124.105 42.2577ZM60.2619 41.703C59.9275 41.703 59.6069 41.5701 59.3705 41.3337C59.134 41.0973 59.0012 40.7766 59.0012 40.4423V37.7695C59.0012 37.114 59.2029 36.8114 59.6063 36.3071L76.7016 16.1357H59.9341C59.5998 16.1357 59.2791 16.0028 59.0427 15.7664C58.8062 15.53 58.6734 15.2093 58.6734 14.8749V12.9586C58.6734 12.2274 59.2281 11.6979 59.9341 11.6979H81.6437C82.3749 11.6979 82.9044 12.2526 82.9044 12.9586V15.6818C82.9044 16.1861 82.7531 16.5895 82.3749 17.0434L65.2291 37.2653H81.7697C82.4757 37.2653 83.0304 37.82 83.0304 38.526V40.4423C83.0304 40.7766 82.8976 41.0973 82.6612 41.3337C82.4248 41.5701 82.1041 41.703 81.7697 41.703H60.2619Z" fill="white"/>
<path fill-rule="evenodd" clip-rule="evenodd" d="M10.0098 50.175C8.16913 50.175 7.16055 49.7211 6.63105 49.4186C5.87462 48.9647 4.48783 47.8553 3.25233 44.5522C1.06332 38.3423 -0.0204842 31.7968 0.0501146 25.2128V25.1876C0.100543 17.5729 1.28562 11.0928 3.25233 5.79778C4.53826 2.51992 5.87462 1.36006 6.63105 0.931417C7.16055 0.603631 8.16913 0.174988 9.98456 0.174988C10.6906 0.174988 11.4974 0.250631 12.4556 0.401917C17.9775 1.30963 24.0541 3.50328 30.6099 7.26021C36.2899 10.5078 41.3447 14.743 45.5367 19.7665C47.7304 22.5401 47.9825 24.3051 47.9825 25.1624C47.9825 26.0449 47.7304 27.8099 45.5367 30.5582C41.3451 35.5822 36.2902 39.8174 30.6099 43.0645H30.5847C25.0045 46.43 18.8632 48.7618 12.4556 49.9481C11.4974 50.0993 10.6906 50.1498 10.0098 50.1498" fill="white"/>
</svg>
