<svg width="152" height="60" viewBox="0 0 152 60" fill="none" xmlns="http://www.w3.org/2000/svg">
<g clip-path="url(#clip0_117_2560)">
<g opacity="0.5">
<g opacity="0.05">
<path d="M72.2249 16.5896C66.7091 20.0167 61.1173 23.4002 55.8375 27.162C52.3619 31.4444 58.2204 34.4431 61.1868 36.2683C71.3357 42.5471 81.4911 48.8194 91.6481 55.0853C94.9702 57.1416 97.6053 59.067 101.375 59.067C104.563 59.067 107.171 58.1261 109.945 56.4045C114.233 53.7339 118.521 51.0665 122.808 48.3991C130.619 43.5381 138.812 38.9696 146.35 33.706C145.731 34.1182 146.695 33.4441 146.838 33.3325C146.984 33.3228 147.251 33.0028 147.406 32.8185C147.435 32.7829 147.461 32.7522 147.482 32.7296C147.739 32.4079 147.981 32.0716 148.209 31.7224L148.214 31.7143C148.507 31.1615 148.662 30.5245 148.664 29.8763C148.458 25.851 142.831 23.6977 139.881 21.9793C139.755 21.9049 139.632 21.8322 139.515 21.761C134.184 18.4648 128.851 15.1751 123.516 11.8885C119.405 9.35696 115.299 6.81892 111.198 4.27118C107.588 2.04837 103.873 -0.28436 99.5597 0.811686C99.6195 0.800369 99.6842 0.79067 99.7472 0.779354C98.9115 0.908681 98.0838 1.09782 97.269 1.34678C97.1704 1.37749 97.075 1.41306 96.9796 1.4567C95.9741 1.73637 93.5153 3.33841 92.1234 4.20975C89.9701 5.56122 87.8104 6.9046 85.6441 8.24313C81.1694 11.0285 76.6963 13.8107 72.2232 16.5896" fill="#FCFCFE"/>
</g>
<g opacity="0.09">
<path d="M69.6403 16.5896C64.1245 20.0167 58.5327 23.4002 53.253 27.162C49.7773 31.4444 55.6487 34.4108 58.6152 36.2359C68.7657 42.5148 78.9195 48.7871 89.0781 55.053C92.4002 57.1093 95.0223 59.067 98.7922 59.067C101.98 59.067 104.575 58.0873 107.347 56.3657C111.636 53.6951 115.922 51.0245 120.205 48.3555C128.017 43.4944 136.213 38.9324 143.749 33.6688C143.14 34.0746 144.084 33.4134 144.241 33.2889C144.393 33.2695 144.658 32.9543 144.807 32.7764C144.836 32.7409 144.862 32.7118 144.883 32.6875C145.096 32.4515 145.557 31.7628 145.609 31.6836L145.613 31.6755C145.904 31.1227 146.06 30.4874 146.063 29.8375C145.857 25.8041 140.224 23.6896 137.28 21.9696C137.154 21.8952 137.033 21.8225 136.915 21.7513C131.589 18.4583 126.261 15.1718 120.931 11.8902C116.82 9.35858 112.714 6.82054 108.613 4.27441C105.001 2.05161 101.288 -0.284359 96.9752 0.814919C97.035 0.803603 97.0996 0.793904 97.1627 0.782588C96.3269 0.911915 95.4992 1.10106 94.6845 1.35001C94.5858 1.38072 94.4905 1.41629 94.3951 1.45994C93.3896 1.73961 90.9307 3.34164 89.5389 4.21298C87.3856 5.56445 85.2258 6.90783 83.0596 8.24637C78.5849 11.0317 74.1118 13.8139 69.6387 16.5928" fill="#F8F9FD"/>
</g>
<g opacity="0.14">
<path d="M67.0552 16.5896C61.5395 20.0167 55.9477 23.4002 50.6679 27.162C47.1922 31.4444 53.0766 34.3785 56.0431 36.2036C66.1936 42.4824 76.3474 48.7548 86.506 55.0207C89.8265 57.077 92.4356 59.0654 96.2071 59.0654C99.395 59.0654 101.975 58.0469 104.748 56.3253C109.038 53.6547 113.314 50.9663 117.603 48.307C125.414 43.4459 133.612 38.8904 141.148 33.6268C140.55 34.0244 141.47 33.3778 141.646 33.2404C141.803 33.2097 142.066 32.9025 142.212 32.7312C142.241 32.6972 142.265 32.6665 142.288 32.6423C142.543 32.3238 142.784 31.9892 143.011 31.6416L143.015 31.6335C143.305 31.079 143.46 30.4453 143.465 29.7971C143.258 25.7556 137.618 23.6783 134.68 21.9582C134.556 21.8839 134.433 21.8111 134.317 21.74C128.996 18.4503 123.675 15.1654 118.35 11.8869C114.239 9.35534 110.132 6.8173 106.031 4.27118C102.421 2.04837 98.7064 -0.285977 94.3933 0.811685C94.4532 0.800369 94.5178 0.790669 94.5809 0.779353C93.7451 0.90868 92.9174 1.09782 92.1026 1.34677C92.004 1.37749 91.9086 1.41305 91.8133 1.4567C90.8077 1.73637 88.3489 3.33841 86.957 4.20975C84.8021 5.5596 82.6391 6.89813 80.4794 8.24151C76.0047 11.0269 71.5316 13.809 67.0585 16.5879" fill="#F5F6FC"/>
</g>
<g opacity="0.19">
<path d="M64.4687 16.5896C58.9529 20.0167 53.3612 23.4002 48.0814 27.162C44.6057 31.4444 50.503 34.3461 53.4695 36.1713C63.62 42.4501 73.7738 48.7224 83.9324 54.9883C87.2529 57.0446 89.8491 59.067 93.6206 59.067C96.8069 59.067 99.3741 58.0097 102.145 56.2881C106.435 53.6191 110.708 50.9226 114.997 48.2617C122.808 43.4023 131.007 38.8516 138.544 33.588C137.957 33.9792 138.856 33.3439 139.045 33.1935C139.208 33.1531 139.47 32.8508 139.609 32.6859C139.638 32.652 139.663 32.6229 139.685 32.5986C139.9 32.3577 140.358 31.6739 140.405 31.6012L140.409 31.5931C140.697 31.0386 140.852 30.4049 140.859 29.7567C140.652 25.7071 135.005 23.6686 132.073 21.9453C131.948 21.8726 131.827 21.7982 131.711 21.7271C126.397 18.4422 121.08 15.1621 115.761 11.8869C111.65 9.35534 107.544 6.8173 103.441 4.27118C99.8316 2.04837 96.1166 -0.285977 91.8036 0.811685C91.8634 0.800369 91.9281 0.790669 91.9911 0.779353C91.1553 0.90868 90.3276 1.09782 89.5129 1.34677C89.4143 1.37749 89.3189 1.41305 89.2235 1.4567C88.218 1.73637 85.7592 3.33841 84.3673 4.20975C82.2124 5.5596 80.0494 6.89813 77.888 8.24151C73.4133 11.0269 68.9402 13.809 64.4671 16.5879" fill="#F1F3FB"/>
</g>
<g opacity="0.24">
<path d="M61.8821 16.5896C56.3663 20.0167 50.7745 23.4002 45.4947 27.162C42.0191 31.4444 47.9309 34.3138 50.8941 36.1389C61.0463 42.4178 71.2001 48.6901 81.3571 54.956C84.6792 57.0123 87.2608 59.0654 91.0323 59.0654C94.2186 59.0654 96.7712 57.9709 99.5437 56.2493C103.832 53.5787 108.102 50.8774 112.389 48.2165C120.2 43.357 128.401 38.8128 135.939 33.5492C135.364 33.9323 136.239 33.3115 136.445 33.1483C136.614 33.0981 136.875 32.8023 137.01 32.6439C137.037 32.6115 137.063 32.5808 137.084 32.5566C137.338 32.2397 137.575 31.9083 137.8 31.5624L137.805 31.5543C138.091 30.9998 138.246 30.3661 138.254 29.7195C138.048 25.6602 132.393 23.6589 129.467 21.9372C129.342 21.8629 129.221 21.7901 129.105 21.7174C123.797 18.4357 118.487 15.1573 113.173 11.8853C109.062 9.35696 104.956 6.81892 100.853 4.27118C97.2433 2.04837 93.53 -0.285977 89.2153 0.811685C89.2751 0.800369 89.3398 0.790669 89.4028 0.779353C88.567 0.90868 87.7394 1.09782 86.9246 1.34677C86.826 1.37587 86.7306 1.41306 86.6352 1.45509C85.6297 1.73476 83.1725 3.33679 81.779 4.20813C79.6241 5.55798 77.4611 6.89652 75.2997 8.24151C70.8266 11.0269 66.3535 13.809 61.8804 16.5879" fill="#EEF0FA"/>
</g>
<g opacity="0.29">
<path d="M59.2972 16.5896C53.7814 20.0167 48.1896 23.4002 42.9099 27.162C39.4342 31.4444 45.3574 34.2815 48.3222 36.1066C58.4744 42.3854 68.6281 48.6578 78.7851 54.9237C82.1072 56.98 84.676 59.0654 88.4475 59.0654C91.6338 59.0654 94.1718 57.9321 96.9442 56.2105C101.235 53.5399 105.498 50.8305 109.785 48.1696C117.596 43.3085 125.8 38.7724 133.337 33.5088C132.773 33.8854 133.626 33.2776 133.848 33.0998C134.061 32.9769 134.252 32.8055 134.412 32.5986C134.439 32.5663 134.464 32.5372 134.486 32.5129C134.704 32.2656 135.157 31.5899 135.199 31.522L135.204 31.5139C135.489 30.9594 135.644 30.3273 135.652 29.6807C135.445 25.6134 129.784 23.6508 126.864 21.9259C126.74 21.8516 126.618 21.7788 126.502 21.7061C121.2 18.4276 115.894 15.154 110.587 11.8853C106.477 9.35534 102.371 6.8173 98.2682 4.26956C94.6584 2.04676 90.9451 -0.287595 86.6304 0.810068C86.6919 0.798751 86.7549 0.789052 86.818 0.777736C85.9822 0.907063 85.1545 1.09782 84.3397 1.34677C84.2411 1.37749 84.1457 1.41305 84.0504 1.45509C83.0448 1.73475 80.5876 3.33679 79.1941 4.20813C77.0392 5.5596 74.8762 6.89651 72.7149 8.24151C68.2418 11.0253 63.7687 13.8074 59.2956 16.5863" fill="#EAEDF9"/>
</g>
<g opacity="0.33">
<path d="M56.7107 16.5896C51.1949 20.0167 45.6031 23.4002 40.3234 27.162C36.8477 31.4444 42.7838 34.2492 45.7486 36.0759C55.9008 42.3547 66.0562 48.6271 76.2132 54.893C79.5337 56.9493 82.0895 59.067 85.861 59.067C89.0473 59.067 91.5708 57.895 94.3432 56.1733C98.6336 53.5027 102.892 50.7868 107.181 48.1259C114.992 43.2649 123.198 38.7352 130.734 33.4716C130.18 33.8402 131.011 33.2469 131.25 33.0561C131.462 32.93 131.652 32.7619 131.812 32.5566C131.838 32.5243 131.864 32.4968 131.887 32.4709C132.107 32.2203 132.556 31.5478 132.596 31.4832L132.601 31.4751C132.886 30.9206 133.039 30.2885 133.049 29.6419C132.842 25.5665 127.174 23.6427 124.261 21.9162C124.137 21.8419 124.016 21.7691 123.901 21.6964C118.605 18.4212 113.304 15.1508 108.002 11.8869C103.892 9.35696 99.7846 6.81892 95.6817 4.27118C92.0719 2.04837 88.3602 -0.285977 84.0456 0.811685C84.107 0.800369 84.17 0.789053 84.2331 0.779353C83.3973 0.90868 82.5696 1.09944 81.7549 1.34839C81.6562 1.37911 81.5609 1.41467 81.4655 1.4567C80.46 1.73637 78.0028 3.33841 76.6093 4.20975C74.4543 5.56122 72.2914 6.89813 70.13 8.24313C65.6569 11.0285 61.1838 13.8107 56.7107 16.5896" fill="#E7EAF8"/>
</g>
<g opacity="0.38">
<path d="M54.1242 16.5896C48.6084 20.0167 43.0166 23.4002 37.7369 27.162C34.2612 31.4444 40.2102 34.2168 43.1751 36.0419C53.3272 42.3208 63.4826 48.5931 73.6396 54.859C76.9601 56.9153 79.503 59.0654 83.2745 59.0654C86.4608 59.0654 88.9697 57.8545 91.7422 56.1345C96.0326 53.4639 100.287 50.7399 104.576 48.079C112.388 43.2196 120.595 38.6964 128.133 33.4328C127.592 33.7949 128.4 33.2129 128.654 33.0108C128.864 32.8831 129.055 32.715 129.215 32.5129C129.24 32.4822 129.266 32.4531 129.289 32.4273C129.509 32.1751 129.958 31.5042 129.997 31.4428L130.002 31.4347C130.285 30.8786 130.438 30.2481 130.45 29.6031C130.243 25.5196 124.569 23.633 121.66 21.9049C121.536 21.8305 121.416 21.7578 121.3 21.685C116.01 18.4131 110.716 15.146 105.418 11.8853C101.308 9.35534 97.2014 6.8173 93.0969 4.27118C89.4886 2.04837 85.7753 -0.285977 81.4607 0.811685C81.5221 0.800369 81.5851 0.789053 81.6498 0.779353C80.814 0.90868 79.9863 1.09782 79.17 1.34839C79.0714 1.37911 78.976 1.41467 78.8806 1.4567C77.8751 1.73637 75.4179 3.33841 74.0244 4.20975C71.8695 5.56122 69.7065 6.89813 67.5451 8.24313C63.072 11.0285 58.5989 13.8107 54.1258 16.5896" fill="#E3E7F7"/>
</g>
<g opacity="0.43">
<path d="M51.539 16.5896C46.0232 20.0167 40.4298 23.4002 35.1517 27.162C31.676 31.4444 37.6396 34.1845 40.6012 36.0112C50.755 42.2901 60.9104 48.5624 71.0674 54.8283C74.3895 56.883 76.9194 59.067 80.6893 59.067C83.8756 59.067 86.37 57.8174 89.1408 56.0973C93.4312 53.4283 97.6812 50.6963 101.97 48.0354C109.781 43.1759 117.992 38.6576 125.529 33.3956C124.997 33.7496 125.782 33.1822 126.052 32.9656C126.261 32.8379 126.452 32.6714 126.613 32.4725C126.639 32.4418 126.663 32.4127 126.686 32.3868C126.909 32.1314 127.355 31.4654 127.391 31.4072L127.396 31.3975C127.679 30.8414 127.832 30.2109 127.843 29.5659C127.635 25.4743 121.954 23.6266 119.052 21.8968C118.93 21.8225 118.808 21.7497 118.692 21.677C113.407 18.4098 108.12 15.146 102.827 11.8869C98.7175 9.35858 94.6113 6.82054 90.5084 4.2728C86.8986 2.04999 83.1869 -0.285977 78.8722 0.813302C78.9337 0.800369 78.9967 0.79067 79.0598 0.78097C78.224 0.910297 77.3963 1.09944 76.5815 1.35001C76.4829 1.38072 76.3876 1.41629 76.2922 1.45832C75.285 1.73799 72.8295 3.34003 71.436 4.21137C69.2794 5.56283 67.1181 6.89975 64.9567 8.24475C60.4836 11.0285 56.0105 13.8107 51.5374 16.5896" fill="#E0E4F6"/>
</g>
<g opacity="0.48">
<path d="M48.9545 16.5896C43.4387 20.0167 37.8453 23.4002 32.5671 27.162C29.0915 31.4444 35.068 34.1538 38.0296 35.9789C48.1834 42.2577 58.3388 48.5301 68.4958 54.796C71.8179 56.8507 74.3333 59.067 78.1048 59.067C81.291 59.067 83.7709 57.7786 86.5417 56.0585C90.8321 53.3879 95.0789 50.651 99.3661 47.9885C107.177 43.1291 115.391 38.6172 122.928 33.3552C122.407 33.7011 123.172 33.1466 123.456 32.9187C123.663 32.7894 123.853 32.6245 124.017 32.4273C124.042 32.3982 124.066 32.3707 124.089 32.3448C124.313 32.0862 124.756 31.4217 124.79 31.3668L124.795 31.3587C125.076 30.8026 125.23 30.1721 125.243 29.5271C125.034 25.4274 119.345 23.6169 116.45 21.8871C116.327 21.8128 116.208 21.74 116.091 21.6673C110.813 18.4034 105.53 15.1427 100.244 11.8885C96.1329 9.35858 92.0268 6.82054 87.9239 4.2728C84.3157 2.04999 80.6024 -0.285977 76.2877 0.813302C76.3491 0.800369 76.4122 0.79067 76.4752 0.78097C75.6395 0.910297 74.8118 1.09944 73.997 1.35001C73.9 1.38072 73.803 1.41629 73.7076 1.45832C72.7005 1.73799 70.2449 3.34003 68.8514 4.21137C66.6949 5.56283 64.5335 6.89975 62.3721 8.24475C57.899 11.0301 53.426 13.8123 48.9529 16.5912" fill="#DDE1F6"/>
</g>
<g opacity="0.52">
<path d="M46.3675 16.5896C40.8517 20.0167 35.2583 23.4002 29.9802 27.162C26.5045 31.4444 32.494 34.1214 35.4556 35.9466C45.6093 42.2254 55.7647 48.4977 65.9233 54.7636C69.2438 56.8183 71.7479 59.0654 75.5194 59.0654C78.7057 59.0654 81.171 57.7382 83.9418 56.0197C88.2322 53.3491 92.4742 50.6042 96.763 47.9433C104.574 43.0838 112.79 38.5784 120.326 33.3148C119.817 33.6542 120.557 33.1127 120.86 32.8702C121.067 32.7393 121.254 32.576 121.421 32.382L121.492 32.2996C121.718 32.0377 122.16 31.3781 122.19 31.3264L122.195 31.3167C122.476 30.7606 122.63 30.1317 122.643 29.4867C122.434 25.3789 116.739 23.6072 113.85 21.8742C113.727 21.8014 113.608 21.7271 113.491 21.6543C108.218 18.3937 102.942 15.1363 97.6602 11.8837C93.5508 9.35534 89.4447 6.8173 85.3418 4.27118C81.7319 2.04837 78.0203 -0.287594 73.7056 0.811685C73.767 0.798752 73.8301 0.789052 73.8931 0.779353C73.0573 0.90868 72.2296 1.09782 71.4149 1.34839C71.3179 1.37911 71.2209 1.41467 71.1255 1.4567C70.1184 1.73637 67.6628 3.33841 66.2693 4.20975C64.1128 5.56122 61.9514 6.89652 59.79 8.24313C55.3169 11.0285 50.8438 13.8107 46.3707 16.5896" fill="#D9DEF5"/>
</g>
<g opacity="0.57">
<path d="M43.783 16.5896C38.2672 20.0167 32.6738 23.4002 27.3956 27.162C23.92 31.4444 29.9224 34.0891 32.884 35.9142C43.0377 42.1931 53.1947 48.4654 63.3518 54.7313C66.6722 56.786 69.1618 59.067 72.9349 59.067C76.1212 59.067 78.5719 57.7026 81.3427 55.9809C85.6332 53.3103 89.8702 50.5589 94.159 47.8964C101.97 43.0369 110.188 38.5396 117.724 33.276C117.226 33.6074 117.944 33.0787 118.262 32.8249C118.466 32.6924 118.655 32.5291 118.822 32.3383C118.846 32.3093 118.87 32.2818 118.893 32.2559C119.121 31.9908 119.56 31.3345 119.59 31.286L119.593 31.2763C119.872 30.7201 120.028 30.0913 120.041 29.4463C119.832 25.3304 114.132 23.5959 111.246 21.8629C111.125 21.7901 111.005 21.7174 110.887 21.6446C105.621 18.3872 100.349 15.133 95.0724 11.8837C90.9647 9.35534 86.8569 6.81892 82.7524 4.27118C79.1442 2.04837 75.4325 -0.287594 71.1162 0.811685C71.1777 0.797135 71.2423 0.789052 71.3037 0.779353C70.468 0.907063 69.6403 1.09782 68.8255 1.34839C68.7285 1.37911 68.6315 1.41467 68.5362 1.4567C67.529 1.73637 65.0734 3.33841 63.6799 4.20975C61.5218 5.56122 59.362 6.89652 57.2007 8.24313C52.7276 11.0269 48.2545 13.809 43.7814 16.588" fill="#D6DBF4"/>
</g>
<g opacity="0.62">
<path d="M41.198 16.5896C35.6822 20.0167 30.0888 23.4002 24.8106 27.162C21.335 31.4444 27.3503 34.0568 30.3119 35.8819C40.4673 42.1607 50.6227 48.4331 60.7797 54.699C64.1001 56.752 66.5784 59.0654 70.3499 59.0654C73.5362 59.0654 75.9724 57.6622 78.7432 55.9421C83.0352 53.2715 87.2674 50.5136 91.5562 47.8511C99.3676 42.9916 107.588 38.5008 115.123 33.2372C114.636 33.5621 115.331 33.0464 115.666 32.7781C115.868 32.6455 116.056 32.4822 116.224 32.2947C116.248 32.2672 116.272 32.2397 116.295 32.2123C116.524 31.9455 116.961 31.2908 116.988 31.2455L116.993 31.2375C117.273 30.6813 117.426 30.0525 117.439 29.4075C117.231 25.2836 111.523 23.5878 108.645 21.8516C108.524 21.7788 108.404 21.7061 108.288 21.6333C103.026 18.3791 97.7607 15.1282 92.4906 11.8821C88.3829 9.35534 84.2768 6.8173 80.1722 4.26956C76.564 2.04676 72.8523 -0.289212 68.5361 0.810067C68.5975 0.795518 68.6622 0.787435 68.7236 0.776119C67.8878 0.905446 67.0601 1.0962 66.247 1.34677C66.15 1.37749 66.053 1.41305 65.9576 1.45508C64.9505 1.73475 62.4949 3.33679 61.1014 4.20651C58.9432 5.5596 56.7835 6.8949 54.6205 8.2399C50.149 11.0253 45.6759 13.8074 41.2012 16.5863" fill="#D2D8F3"/>
</g>
<g opacity="0.67">
<path d="M38.6115 16.5896C33.0957 20.0167 27.5023 23.4002 22.2242 27.162C18.7485 31.4444 24.7768 34.0261 27.7367 35.8496C37.8921 42.1284 48.0475 48.4008 58.2045 54.6666C61.5266 56.7197 63.9903 59.0654 67.7618 59.0654C70.9481 59.0654 73.3714 57.6234 76.1406 55.9033C80.4326 53.2327 84.66 50.4684 88.9488 47.8058C96.7601 42.9464 104.982 38.462 112.519 33.1984C112.043 33.5152 112.716 33.0125 113.065 32.7328C113.265 32.597 113.453 32.437 113.623 32.2527C113.647 32.2268 113.67 32.1993 113.694 32.1718C113.925 31.9019 114.358 31.2504 114.384 31.2084L114.387 31.1987C114.667 30.6426 114.821 30.0137 114.834 29.3703C114.625 25.2383 108.91 23.5797 106.038 21.8451C105.918 21.7707 105.797 21.698 105.68 21.6252C100.425 18.3743 95.1645 15.1282 89.9009 11.8853C85.7932 9.35696 81.6871 6.81892 77.5826 4.27118C73.9743 2.04837 70.2627 -0.287594 65.9464 0.811685C66.0094 0.797135 66.0725 0.789052 66.1339 0.777736C65.2981 0.907063 64.4704 1.09782 63.6573 1.34839C63.5603 1.37911 63.4633 1.41467 63.3679 1.4567C62.3608 1.73476 59.9052 3.33841 58.5117 4.20813C56.3535 5.56122 54.1938 6.89652 52.0308 8.24152C47.5593 11.0269 43.0862 13.809 38.6115 16.588" fill="#CFD5F2"/>
</g>
<g opacity="0.71">
<path d="M36.0265 16.5896C30.5107 20.0167 24.9173 23.4002 19.6392 27.162C16.1635 31.4444 22.2047 33.9921 25.1647 35.8189C35.3201 42.0977 45.4771 48.37 55.6341 54.6359C58.9546 56.689 61.4053 59.067 65.1784 59.067C68.3631 59.067 70.7734 57.5862 73.5426 55.8661C77.8347 53.1955 82.0588 50.4231 86.346 47.7606C94.1573 42.9011 102.383 38.4232 109.917 33.1596C109.452 33.47 110.103 32.9801 110.469 32.6859C110.668 32.5501 110.855 32.3901 111.025 32.2074C111.047 32.1815 111.072 32.1541 111.094 32.1266C111.327 31.8534 111.759 31.2051 111.781 31.1663L111.786 31.1566C112.064 30.6005 112.218 29.9733 112.231 29.3299C112.021 25.1898 106.301 23.57 103.433 21.8322C103.314 21.7578 103.194 21.685 103.076 21.6123C97.8254 18.3646 92.5715 15.1217 87.3111 11.8837C83.2033 9.35535 79.0972 6.81892 74.9927 4.27118C71.3861 2.04999 67.6744 -0.285976 63.3581 0.813303C63.4212 0.798754 63.4842 0.790671 63.5457 0.779355C62.7099 0.908682 61.8822 1.09944 61.069 1.35001C60.9721 1.38072 60.8751 1.41629 60.7797 1.45832C59.7725 1.73637 57.317 3.34003 55.9235 4.20975C53.7653 5.56283 51.6056 6.89652 49.4426 8.24313C44.9711 11.0285 40.498 13.8107 36.0233 16.5896" fill="#CBD2F1"/>
</g>
<g opacity="0.76">
<path d="M33.4401 16.5896C27.9243 20.0167 22.3309 23.4002 17.0527 27.162C13.5771 31.4444 19.6312 33.9614 22.5911 35.7849C32.7482 42.0637 42.9035 48.3361 53.0606 54.602C56.381 56.655 58.8188 59.0654 62.592 59.0654C65.7766 59.0654 68.1708 57.5474 70.9416 55.8257C75.2337 53.1567 79.4513 50.3762 83.7401 47.7137C91.5515 42.8542 99.7799 38.3828 107.315 33.1192C106.861 33.4215 107.489 32.9446 107.871 32.639C108.068 32.5 108.254 32.3416 108.427 32.1621C108.45 32.1363 108.474 32.1104 108.497 32.0813C108.729 31.8049 109.159 31.1599 109.182 31.1259L109.185 31.1162C109.484 30.476 109.651 29.7825 109.631 29.2895C109.421 25.1413 103.694 23.5587 100.834 21.8208C100.714 21.7465 100.595 21.6737 100.477 21.601C95.2341 18.3565 89.985 15.1169 84.7295 11.8821C80.6217 9.35534 76.5156 6.81892 72.4111 4.26956C68.8045 2.04676 65.0944 -0.289212 60.7765 0.810067C60.8396 0.795518 60.9026 0.787435 60.964 0.776119C60.1283 0.903829 59.3006 1.09459 58.4874 1.34677C58.3904 1.37749 58.2934 1.41305 58.1981 1.45508C57.1909 1.73314 54.7353 3.33679 53.3418 4.20651C51.1837 5.5596 49.0239 6.89328 46.8609 8.2399C42.3895 11.0253 37.9164 13.8074 33.4417 16.5863" fill="#C8CFF0"/>
</g>
<g opacity="0.81">
<path d="M30.8551 16.5896C25.3393 20.0167 19.7459 23.4002 14.4677 27.162C10.9921 31.4444 17.0591 33.9275 20.0191 35.7542C30.1761 42.033 40.3315 48.3054 50.4885 54.5713C53.809 56.6243 56.2338 59.067 60.0069 59.067C63.1916 59.067 65.5729 57.5102 68.3421 55.7902C72.6341 53.1196 76.8485 50.3342 81.1373 47.67C88.9487 42.8106 97.1787 38.3456 104.714 33.082C104.269 33.3762 104.877 32.9139 105.273 32.5954C105.469 32.4547 105.654 32.2979 105.829 32.1217C105.85 32.0975 105.874 32.0716 105.899 32.0425C106.133 31.7628 106.561 31.1211 106.581 31.0871L106.586 31.0774C106.883 30.4372 107.05 29.7437 107.03 29.2507C106.82 25.0944 101.088 23.5506 98.2327 21.8095C98.1131 21.7368 97.9951 21.6624 97.8755 21.5897C92.6377 18.35 87.3951 15.1136 82.1461 11.8804C78.0383 9.35372 73.9322 6.8173 69.8277 4.26956C66.2211 2.04676 62.511 -0.289212 58.1931 0.810067C58.2562 0.795518 58.3192 0.787435 58.3807 0.776119C57.5449 0.903829 56.7172 1.09459 55.9041 1.34677C55.8071 1.37749 55.7101 1.41305 55.6147 1.45508C54.6076 1.73314 52.152 3.33679 50.7585 4.20651C48.5987 5.5596 46.4406 6.89328 44.2776 8.2399C39.8061 11.0253 35.333 13.8074 30.8583 16.5863" fill="#C5CCEF"/>
</g>
<g opacity="0.86">
<path d="M28.2686 16.5896C22.7528 20.0167 17.1594 23.4002 11.8813 27.162C8.40563 31.4444 14.4856 33.8967 17.444 35.7219C27.601 42.0007 37.758 48.273 47.9134 54.5389C51.2355 56.592 53.6458 59.067 57.4189 59.067C60.6036 59.067 62.9703 57.4714 65.7395 55.7514C70.0315 53.0808 74.2411 50.2873 78.5299 47.6232C86.3412 42.7637 94.5729 38.3052 102.109 33.0416C101.676 33.3277 102.26 32.8799 102.674 32.5469C102.868 32.4062 103.054 32.2494 103.228 32.0781C103.251 32.0538 103.273 32.028 103.296 31.9989C103.532 31.716 103.959 31.0774 103.975 31.0467L103.978 31.037C104.274 30.3968 104.444 29.7049 104.423 29.2119C104.213 25.0459 98.4705 23.5425 95.6237 21.7998C95.504 21.7271 95.386 21.6527 95.268 21.58C90.0351 18.3419 84.7974 15.1104 79.5548 11.8821C75.4471 9.35534 71.3409 6.8173 67.2364 4.26956C63.6298 2.04676 59.9198 -0.289212 55.6019 0.810067C55.6665 0.795518 55.728 0.787435 55.7894 0.776119C54.9536 0.903829 54.1259 1.09459 53.3128 1.34677C53.2158 1.37749 53.1188 1.41305 53.0234 1.45508C52.0147 1.73314 49.5607 3.33679 48.1672 4.20651C46.0074 5.5596 43.8493 6.89328 41.6863 8.2399C37.2148 11.0253 32.7417 13.8074 28.267 16.5863" fill="#C1C9EE"/>
</g>
<g opacity="0.9">
<path d="M25.6836 16.5896C20.1678 20.0167 14.5728 23.4002 9.2963 27.162C5.82064 31.4444 11.9136 33.8644 14.8719 35.6895C25.0289 41.9684 35.1859 48.2407 45.3429 54.5066C48.6634 56.5597 51.0608 59.0654 54.8339 59.0654C58.0186 59.0654 60.3691 57.431 63.1399 55.711C67.432 53.0404 71.6383 50.2404 75.9271 47.5763C83.7385 42.7185 91.9734 38.2648 99.5083 33.0028C99.0864 33.2824 99.6489 32.846 100.077 32.5016C100.27 32.3594 100.456 32.2026 100.632 32.0344C100.653 32.0118 100.675 31.9859 100.7 31.9568C100.937 31.6723 101.359 31.037 101.375 31.0095L101.38 30.9998C101.676 30.3596 101.844 29.6677 101.825 29.1747C101.615 25.0007 95.8661 23.5344 93.0241 21.7917C92.9045 21.719 92.7865 21.6462 92.6685 21.5719C87.4437 18.3387 82.2108 15.1104 76.9731 11.8837C72.8653 9.35696 68.7592 6.82054 64.6547 4.2728C61.0481 2.04999 57.338 -0.285977 53.0201 0.813302C53.0848 0.798753 53.1462 0.79067 53.2076 0.779354C52.3719 0.907064 51.5442 1.09782 50.731 1.35001C50.634 1.38072 50.537 1.41629 50.4417 1.45832C49.4329 1.73637 46.9789 3.34003 45.5854 4.20975C43.4257 5.56283 41.2675 6.8949 39.1045 8.24313C34.6331 11.0285 30.16 13.8107 25.6853 16.5896" fill="#BEC6ED"/>
</g>
<g opacity="0.95">
<path d="M23.0972 16.5896C17.5814 20.0167 11.9864 23.4002 6.70986 27.162C3.2342 31.4444 9.34004 33.8321 12.2984 35.6572C22.457 41.936 35.565 49.1815 45.7204 55.4474C55.0212 58.6274 48.4744 59.067 52.2475 59.067C55.4321 59.067 57.7697 57.3938 60.5373 55.6754C64.8294 53.0048 69.0325 50.1984 73.3197 47.5326C81.131 42.6732 89.3675 38.2276 96.904 32.9656C96.4934 33.2388 97.0317 32.8152 97.4779 32.4564C97.7333 32.2575 97.9758 32.0522 98.0324 31.9924C98.0518 31.9698 98.0761 31.9439 98.0987 31.9164C98.3379 31.6271 98.7583 30.995 98.7728 30.9707L98.776 30.961C99.0719 30.3209 99.24 29.6306 99.2206 29.1375C99.0104 24.957 93.2554 23.5263 90.4183 21.7837C90.3003 21.7109 90.1823 21.6382 90.0643 21.5638C84.8443 18.3339 79.6179 15.1072 74.385 11.8837C70.2789 9.35696 66.1727 6.82054 62.0666 4.2728C58.46 2.04999 54.7499 -0.285977 50.4337 0.813302C50.4983 0.797136 50.5614 0.79067 50.6212 0.78097C49.7854 0.908681 48.9577 1.09944 48.1446 1.35163C48.0621 1.37426 47.9328 1.42599 47.8552 1.45832C46.8465 1.73637 44.3925 3.34164 42.999 4.20813C40.8376 5.56283 38.6811 6.8949 36.5181 8.24475C32.0466 11.0285 27.5719 13.8107 23.0972 16.5896Z" fill="#BAC3EC"/>
</g>
<path d="M96.6177 29.0971C96.4059 24.9069 90.646 23.5166 87.8154 21.7723C82.4839 18.4729 77.1443 15.1767 71.7983 11.8837C67.6921 9.35857 63.586 6.82215 59.4799 4.27441C55.8733 2.04998 52.1632 -0.285982 47.8453 0.814913C47.9116 0.798748 47.973 0.790665 48.0328 0.779349C47.197 0.907059 46.3694 1.09782 45.5562 1.35C45.4592 1.38072 45.3622 1.4179 45.2668 1.45993C44.2565 1.73637 41.8025 3.34164 40.4106 4.20974C38.2509 5.56283 36.0927 6.89489 33.9297 8.24313C29.4599 11.0285 24.9868 13.8106 20.5121 16.5896C14.9947 20.0183 9.40127 23.4019 4.12311 27.162C1.84281 30.9111 7.33804 32.8267 9.94987 34.8948C20.4314 40.9862 30.8919 46.801 41.0472 53.0685C44.3677 55.12 51.03 59.067 51.03 59.067C51.03 59.067 55.1701 57.355 57.9376 55.6366C62.2297 52.966 66.428 50.1515 70.7151 47.4874C78.5265 42.6295 86.7646 38.1904 94.2995 32.9252C93.6739 33.3406 95.297 32.0991 95.4311 31.9471C95.693 31.6238 95.9387 31.2843 96.1699 30.9287C96.4657 30.2869 96.6371 29.5934 96.6177 29.0971Z" fill="#B7C0EB"/>
</g>
</g>
<defs>
<clipPath id="clip0_117_2560">
<rect width="150.417" height="58.5366" fill="white" transform="translate(0.851074 0.532013)"/>
</clipPath>
</defs>
</svg>
