<svg width="401" height="176" viewBox="0 0 401 176" fill="none" xmlns="http://www.w3.org/2000/svg">
<path d="M105.208 119.121C105.957 118.917 106.843 118.712 108.001 118.508C109.172 118.313 110.358 118.222 111.544 118.235C112.61 118.189 113.675 118.351 114.679 118.712C115.45 119.011 116.131 119.504 116.655 120.143C117.156 120.784 117.505 121.529 117.677 122.324C117.899 123.239 118.014 124.176 118.018 125.118V133.568H113.861V125.595C113.931 124.61 113.743 123.623 113.316 122.733C112.826 122.119 112.05 121.809 111.272 121.915C110.952 121.906 110.633 121.929 110.318 121.983C109.977 121.983 109.705 122.051 109.432 122.051V133.568H105.208L105.208 119.121ZM97.4397 126.004C97.4856 124.931 97.2256 123.868 96.6901 122.937C95.7105 121.695 93.9096 121.483 92.6677 122.462C92.4914 122.601 92.332 122.761 92.1929 122.937C91.6023 123.847 91.316 124.921 91.3753 126.004C91.3264 127.107 91.6114 128.2 92.1929 129.138C93.0784 130.38 94.803 130.669 96.0448 129.784C96.2942 129.606 96.5123 129.388 96.6901 129.138C97.2251 128.183 97.4846 127.098 97.4397 126.004ZM101.732 126.004C101.756 127.091 101.595 128.174 101.255 129.207C100.932 130.14 100.422 130.998 99.7564 131.728C98.3923 133.202 96.4478 134 94.4415 133.909C93.4173 133.911 92.4011 133.727 91.4434 133.363C90.5654 132.986 89.7762 132.429 89.1267 131.728C88.4567 131.001 87.9461 130.142 87.6276 129.207C86.9008 127.133 86.9008 124.874 87.6276 122.801C87.9626 121.893 88.4718 121.06 89.1267 120.348C89.779 119.667 90.5688 119.133 91.4434 118.78C92.3698 118.391 93.369 118.205 94.3734 118.235C95.3756 118.232 96.3694 118.417 97.3034 118.78C98.1646 119.158 98.9496 119.689 99.6201 120.348C100.275 121.06 100.784 121.893 101.119 122.801C101.538 123.816 101.746 124.906 101.732 126.004ZM78.7696 133.909C75.567 133.909 73.114 133.023 71.4787 131.251C69.7752 129.479 68.9575 126.958 68.9575 123.687C68.9448 122.2 69.1987 120.723 69.7071 119.326C70.6295 116.901 72.574 115.006 75.0219 114.147C76.3083 113.673 77.6714 113.441 79.0421 113.465C79.7966 113.459 80.5498 113.528 81.2908 113.67C81.9722 113.806 82.5854 113.942 83.0624 114.078C83.5018 114.215 83.934 114.374 84.357 114.555C84.629 114.647 84.8827 114.785 85.1066 114.964L83.8119 118.508C83.1473 118.143 82.4369 117.868 81.6996 117.69C80.8088 117.463 79.8932 117.349 78.974 117.349C78.3014 117.357 77.6344 117.472 76.998 117.69C76.3476 117.905 75.7618 118.28 75.2945 118.78C74.7783 119.341 74.3633 119.986 74.068 120.688C73.7549 121.61 73.5938 122.577 73.591 123.55C73.5731 124.399 73.6647 125.247 73.8636 126.072C74.0558 126.805 74.3789 127.498 74.8175 128.116C75.3008 128.695 75.9057 129.161 76.5892 129.479C77.4069 129.826 78.2908 129.989 79.1785 129.956C79.7488 129.95 80.3179 129.905 80.8819 129.82C81.3442 129.775 81.8008 129.684 82.2447 129.547C82.592 129.454 82.9333 129.341 83.2668 129.206C83.5265 129.064 83.8006 128.95 84.0845 128.866L85.311 132.409C84.4906 132.9 83.5916 133.246 82.6536 133.431C81.3899 133.783 80.0807 133.944 78.7696 133.909ZM61.9393 124.573C61.9373 124.222 61.8679 123.875 61.7348 123.55C61.6172 123.235 61.4567 122.937 61.2578 122.665C61.0327 122.386 60.7549 122.154 60.4402 121.983C60.0529 121.813 59.6363 121.721 59.2137 121.711C58.7876 121.688 58.3634 121.782 57.9872 121.983C57.6627 122.107 57.3794 122.32 57.1695 122.596C56.9339 122.881 56.7495 123.203 56.6244 123.55C56.4937 123.903 56.4023 124.268 56.3518 124.641H61.9392L61.9393 124.573ZM52.0591 126.14C52.0397 124.953 52.2478 123.773 52.6723 122.665C53.021 121.732 53.5807 120.892 54.3077 120.211C54.9501 119.567 55.7146 119.058 56.5563 118.712C57.4048 118.39 58.306 118.228 59.2137 118.235C61.089 118.128 62.9217 118.821 64.256 120.143C65.4825 121.438 66.0958 123.346 66.0958 125.867V126.685C66.0958 126.958 66.0276 127.23 66.0276 127.435H56.42C56.4626 128.278 56.9226 129.045 57.6465 129.479C58.5088 129.998 59.5023 130.259 60.5084 130.229C61.2627 130.231 62.0156 130.163 62.757 130.024C63.3888 129.912 64.006 129.729 64.5968 129.479L65.1419 132.886C64.856 133.023 64.5598 133.137 64.2561 133.227C63.8338 133.357 63.4005 133.449 62.9615 133.5C62.4845 133.568 62.0076 133.636 61.4624 133.704C60.942 133.759 60.4186 133.782 59.8952 133.772C58.7074 133.804 57.5253 133.596 56.4202 133.159C55.4873 132.81 54.6478 132.25 53.9672 131.523C53.2864 130.843 52.7934 129.998 52.5362 129.07C52.1906 128.133 52.0285 127.138 52.0591 126.14ZM49.2656 126.072C49.2678 127.163 49.0835 128.246 48.7204 129.275C48.3855 130.182 47.8762 131.016 47.2214 131.728C46.5307 132.427 45.6926 132.962 44.7684 133.295C43.7177 133.664 42.6112 133.848 41.4977 133.84C40.9517 133.849 40.4057 133.826 39.8623 133.772L38.227 133.568C37.6994 133.51 37.1759 133.419 36.6598 133.295C36.1828 133.159 35.7058 133.091 35.3651 132.954V112.102L39.5898 111.421V118.849C40.0756 118.649 40.577 118.49 41.0888 118.372C41.6258 118.256 42.1755 118.21 42.7242 118.235C43.6828 118.225 44.6335 118.41 45.5179 118.78C46.321 119.121 47.0244 119.661 47.5621 120.348C48.1305 121.075 48.5475 121.91 48.7886 122.801C49.1281 123.857 49.2893 124.963 49.2656 126.072ZM44.9728 125.936C44.9728 123.21 43.9507 121.847 41.9746 121.847C41.5402 121.859 41.1073 121.904 40.68 121.983C40.3302 122.096 39.9887 122.232 39.6579 122.392V130.092C39.9256 130.155 40.2011 130.178 40.4756 130.161C40.8163 130.161 41.157 130.229 41.4977 130.229C42.4992 130.295 43.4687 129.861 44.087 129.07C44.7011 128.143 45.0108 127.047 44.9728 125.936ZM31.2086 133.023C30.4591 133.227 29.5732 133.432 28.4149 133.636C27.2441 133.831 26.0584 133.922 24.8716 133.909C23.8058 133.955 22.741 133.793 21.7372 133.432C20.9661 133.133 20.2853 132.64 19.7612 132C19.2731 131.352 18.925 130.61 18.7391 129.82C18.5127 128.906 18.3983 127.968 18.3984 127.026V118.712H22.5549V126.481C22.4951 127.487 22.6822 128.493 23.1 129.411C23.5578 130.071 24.3499 130.414 25.1442 130.297C25.4637 130.306 25.7832 130.283 26.0982 130.229C26.4388 130.229 26.7114 130.161 26.9839 130.161V118.644H31.2086L31.2086 133.023ZM11.7208 133.5C11.3119 132.886 10.835 132.137 10.2898 131.387C9.74182 130.605 9.15036 129.854 8.51822 129.138C7.90496 128.389 7.22357 127.707 6.54218 126.958C5.89521 126.307 5.21278 125.693 4.498 125.118V133.432H0.0686842V113.806H4.49774V121.234C5.65611 120.007 6.81448 118.78 7.97285 117.418C9.13122 116.123 10.2214 114.896 11.2435 113.806H16.4903C15.1275 115.373 13.8328 116.941 12.4701 118.372C11.1073 119.871 9.67635 121.302 8.1773 122.801C9.83276 124.208 11.3605 125.759 12.7426 127.435C14.2689 129.324 15.6796 131.304 16.9673 133.363H11.7205L11.7208 133.5ZM190.722 117.554L187.86 120.961C186.663 119.455 184.876 118.537 182.954 118.44C179.932 118.45 177.49 120.908 177.5 123.93C177.5 123.985 177.501 124.041 177.503 124.096C177.352 127.102 179.665 129.661 182.671 129.813C182.765 129.818 182.86 129.82 182.954 129.82C184.829 129.716 186.589 128.885 187.86 127.503L190.79 130.569C188.659 132.731 185.783 133.998 182.75 134.113C177.302 134.307 172.728 130.047 172.534 124.599C172.528 124.431 172.527 124.263 172.529 124.096C172.529 118.44 177.026 114.215 182.954 114.215C185.869 114.323 188.638 115.514 190.722 117.554ZM193.107 133.909V113.261H197.945V133.909H193.107ZM217.092 126.413C217.092 131.046 213.822 134.113 208.915 134.113C204.009 134.113 200.671 131.046 200.671 126.413C200.671 121.779 203.941 118.78 208.915 118.78C213.822 118.78 217.092 121.779 217.092 126.413ZM205.508 126.481C205.508 128.798 206.871 130.365 208.847 130.365C210.823 130.365 212.186 128.798 212.186 126.481C212.186 124.164 210.823 122.597 208.847 122.597C206.871 122.597 205.508 124.164 205.508 126.481ZM234.331 133.909H229.494V131.455C228.492 133.198 226.594 134.226 224.588 134.113C221.317 134.113 219.205 131.864 219.205 128.389V118.917H224.042V127.026C224.042 128.798 224.996 129.888 226.564 129.888C228.403 129.888 229.494 128.389 229.494 126.344V118.917H234.331L234.331 133.909ZM253.274 133.909H248.436V131.932C247.367 133.331 245.699 134.14 243.939 134.113C239.714 134.113 236.921 130.978 236.921 126.344C236.921 121.779 239.646 118.712 243.803 118.712C245.611 118.638 247.341 119.453 248.436 120.893V113.261H253.274L253.274 133.909ZM248.436 126.481C248.436 124.164 247.073 122.597 245.097 122.597C243.121 122.597 241.759 124.164 241.759 126.481C241.759 128.798 243.121 130.433 245.097 130.433C247.142 130.365 248.436 128.798 248.436 126.481ZM270.922 133.909L261.928 121.915V133.909H257.294V114.419H261.655L270.65 126.481V114.419H275.283V133.909H270.922ZM292.454 124.096V133.909H287.753V132.205C286.637 133.56 284.938 134.295 283.187 134.181C279.985 134.181 278.009 132.205 278.009 129.479C278.009 126.617 280.053 124.982 283.801 124.913H287.753V124.709C287.753 123.21 286.799 122.324 284.823 122.324C283.255 122.421 281.725 122.838 280.325 123.55L278.963 120.348C281.116 119.25 283.495 118.666 285.913 118.644C290.069 118.712 292.454 120.757 292.454 124.096ZM287.753 128.866V127.503H284.686C283.255 127.503 282.506 127.98 282.506 129.138C282.506 130.229 283.255 130.91 284.618 130.91C286.001 131.002 287.279 130.169 287.753 128.866ZM305.469 133.159C304.233 133.824 302.852 134.175 301.449 134.181C298.519 134.181 296.474 132.546 296.474 129.411V122.801H294.362V119.666H296.474V115.509H301.244V119.666H305.196V122.869H301.244V128.73C301.244 129.888 301.721 130.433 302.607 130.365C303.243 130.311 303.865 130.15 304.447 129.888L305.469 133.159ZM312.828 114.624C312.883 115.998 311.813 117.156 310.439 117.211C310.395 117.213 310.351 117.214 310.307 117.213C308.895 117.195 307.766 116.035 307.785 114.624C307.803 113.239 308.922 112.12 310.307 112.102C311.628 112.031 312.757 113.045 312.828 114.366C312.832 114.452 312.832 114.538 312.828 114.624ZM307.854 133.909V118.917H312.623V133.909H307.854ZM320.119 133.909L314.463 118.917H319.437L322.64 129.547L325.911 118.917H330.68L325.025 133.909H320.119ZM346.625 127.707H336.063C336.409 129.376 337.903 130.555 339.607 130.501C340.956 130.475 342.246 129.939 343.218 129.002L345.739 131.455C344.046 133.247 341.66 134.216 339.198 134.113C334.292 134.113 331.225 131.046 331.225 126.481C331.225 121.847 334.428 118.78 339.061 118.78C344.308 118.78 346.898 122.256 346.625 127.707ZM341.991 125.118C342.125 123.562 340.971 122.193 339.415 122.059C339.298 122.049 339.18 122.047 339.061 122.051C337.358 122.051 336.268 123.278 335.927 125.118H341.991ZM366.249 117.554L363.387 120.961C362.19 119.455 360.403 118.537 358.481 118.44C355.459 118.45 353.017 120.908 353.027 123.93C353.027 123.985 353.028 124.041 353.03 124.096C352.878 127.102 355.192 129.661 358.198 129.813C358.292 129.818 358.387 129.82 358.481 129.82C360.356 129.716 362.116 128.885 363.387 127.503L366.317 130.569C364.185 132.731 361.31 133.998 358.277 134.113C352.829 134.307 348.255 130.047 348.061 124.599C348.055 124.431 348.053 124.263 348.056 124.096C348.056 118.44 352.553 114.215 358.481 114.215C361.392 114.336 364.157 115.525 366.249 117.554ZM383.079 126.413C383.079 131.046 379.809 134.113 374.903 134.113C369.997 134.113 366.658 131.046 366.658 126.413C366.658 121.779 369.929 118.78 374.903 118.78C379.809 118.78 383.079 121.779 383.079 126.413ZM371.564 126.481C371.564 128.798 372.927 130.365 374.903 130.365C376.879 130.365 378.241 128.798 378.241 126.481C378.241 124.164 376.879 122.597 374.903 122.597C372.927 122.597 371.564 124.164 371.564 126.481ZM401 124.436V133.908H396.23V125.799C396.396 124.393 395.391 123.118 393.984 122.952C393.848 122.936 393.71 122.931 393.573 122.937C391.801 122.937 390.711 124.164 390.507 126.004V133.977H385.669V118.985H390.507V121.438C391.566 119.687 393.506 118.665 395.549 118.78C398.82 118.712 401 120.961 401 124.436ZM266.288 164.984H399.418V166.78H266.288V164.984ZM0 164.984H107.6V166.78H0V164.984ZM146.378 0.2229H147.849V139.686H146.378V0.2229Z" fill="#312753"/>
<path d="M146.378 0.2229H147.848V139.686H146.378V0.2229Z" fill="#312753"/>
<path d="M146.378 0.2229H147.848V139.686H146.378V0.2229Z" fill="#312753"/>
<path d="M148.352 140.19H146.772V139.292H146.556V0.617584H148.352V140.19Z" fill="#312753"/>
<path fill-rule="evenodd" clip-rule="evenodd" d="M46.659 47.1416L44.1851 47.6913C44.1851 47.3477 44.1163 47.0041 44.1163 46.6605C44.1082 44.044 44.8215 41.4759 46.178 39.2385L50.9886 43.4993C51.0669 43.5842 51.16 43.654 51.2635 43.7055C50.968 44.4297 50.7827 45.1941 50.7137 45.9733C50.5762 46.042 50.3701 46.042 50.2326 46.1107L46.659 47.1416ZM56.0053 32.5724V39.3072C55.3349 39.5161 54.7068 39.8418 54.1498 40.2693C53.9436 40.1319 53.7375 39.9257 53.5313 39.7883L48.652 36.3522C50.6498 34.3574 53.2204 33.036 56.0053 32.5724ZM22.5375 48.1037C24.8741 37.8641 26.867 29.205 29.2036 18.9654C30.2344 14.361 30.9216 13.124 35.1137 10.7187C40.8864 7.35134 45.2159 4.94607 51.4009 1.3725C55.2493 -0.826615 56.0053 -0.689169 56.0053 4.05267V27.8306C51.6976 28.3572 47.7101 30.3752 44.7349 33.5345L42.6732 32.0914C42.4192 31.9446 42.2431 31.693 42.1921 31.4041C42.0005 30.7559 41.6172 30.181 41.0925 29.7548C40.1232 28.9786 38.7081 29.1353 37.932 30.1046C37.158 31.0713 37.3113 32.4818 38.2749 33.2596C38.587 33.536 38.9661 33.7256 39.3745 33.8094C39.6494 33.8782 39.9242 33.8782 40.1991 33.9469C40.4216 33.9961 40.632 34.0896 40.8176 34.2218L42.7419 35.9398C40.6288 39.0641 39.5034 42.7513 39.5119 46.5231C39.5119 47.2103 39.5806 47.8975 39.6493 48.5847L35.4573 49.4781C35.1579 49.4693 34.8584 49.4923 34.5639 49.5468L33.9454 49.753C31.1965 50.3028 28.4476 50.9213 25.63 51.5398C21.8503 52.4331 21.7128 51.6772 22.5375 48.1037ZM60.8846 39.3072V32.5724C63.6438 33.0699 66.1987 34.3593 68.2379 36.2834L62.9463 40.0632C62.8775 40.1319 62.8088 40.2006 62.7401 40.2006C62.1648 39.8204 61.5406 39.5198 60.8846 39.3072ZM72.7048 47.2104L66.1075 45.6984C66.0389 44.9856 65.8531 44.289 65.5577 43.6367C65.6264 43.568 65.6951 43.4993 65.7638 43.4993L70.6431 39.1698C72.0298 41.4228 72.767 44.015 72.7735 46.6605C72.7126 46.837 72.6892 47.0243 72.7048 47.2104ZM64.1145 10.8562C67.6881 12.5742 70.2308 13.8112 73.8043 15.5293C78.7523 17.9346 83.7003 20.3398 88.717 22.6764C89.954 28.0367 91.191 33.3971 92.3593 38.7574C93.1153 41.9874 93.4589 43.7054 94.2148 46.8667C95.3831 51.8834 95.2457 52.2957 90.0915 51.1275L77.3779 48.2411C77.4351 47.6933 77.458 47.1425 77.4466 46.5918C77.4739 42.7856 76.3215 39.0644 74.1479 35.9398L75.9347 34.2905C76.1501 34.1083 76.4118 33.9893 76.6907 33.9469C77.3613 33.8958 78.0041 33.6577 78.5462 33.2596C79.5153 32.4832 79.6715 31.0681 78.8951 30.099C78.1187 29.1298 76.7036 28.9736 75.7345 29.7501C75.7325 29.7516 75.7305 29.7532 75.7286 29.7548C75.3837 30.0082 75.1016 30.3374 74.9039 30.7169C74.7664 30.9918 74.6977 31.198 74.5603 31.4729C74.4871 31.6965 74.3422 31.8898 74.1479 32.0227L72.0863 33.4658C69.1016 30.3191 65.119 28.3035 60.8158 27.7619V13.2615C60.8846 9.89408 61.1594 9.48172 64.1145 10.8562ZM59.7163 54.1512C59.2858 54.2345 58.8489 54.2805 58.4105 54.2887C57.997 54.3 57.5833 54.2771 57.1735 54.2199L56.9674 54.6323L53.9435 60.1988C55.4046 60.6943 56.9364 60.9496 58.4792 60.9548C60.044 60.944 61.5975 60.689 63.0836 60.1988L60.0598 54.701C59.9211 54.5341 59.8055 54.3491 59.7163 54.1512ZM65.0766 50.509L71.6739 52.0209C70.5878 54.6886 68.7189 56.9648 66.3136 58.5494L63.7021 52.2269C64.2177 51.7027 64.6783 51.1271 65.0766 50.509ZM45.2158 51.952L51.8131 50.4402C52.2171 51.0941 52.7019 51.6944 53.2563 52.2269L53.0501 52.6393L50.6448 58.5494C48.1988 56.9619 46.3027 54.6578 45.2158 51.952ZM99.2315 63.5661C96.0703 67.4833 94.6271 69.3388 91.4659 73.2559C87.8923 77.7229 85.006 81.3651 81.4324 85.8321C78.8897 89.0621 77.0342 89.1308 72.8421 89.1308H43.9788C38.481 89.1308 38.0687 89.1308 34.7013 84.87C31.3339 80.6779 28.7225 77.3793 25.4238 73.1872C22.8123 69.8885 22.1251 69.0639 19.5137 65.7652C15.4591 60.6798 14.7718 58.8242 21.0943 57.4498L40.6114 53.0516C42.1282 57.1869 45.0139 60.6789 48.7894 62.9476L47.896 65.0093C47.791 65.2735 47.5964 65.4924 47.3462 65.6278C46.7425 65.9454 46.2597 66.4524 45.9718 67.0709C45.4129 68.1863 45.864 69.5437 46.9794 70.1026C48.0948 70.6615 49.4521 70.2104 50.0111 69.095C50.0153 69.0865 50.0195 69.078 50.0237 69.0694L50.0264 69.0639C50.2127 68.6749 50.3291 68.2562 50.37 67.8269C50.3813 67.5502 50.3583 67.2732 50.3013 67.0022C50.28 66.7647 50.3277 66.526 50.4387 66.3149L51.5383 64.322C53.7127 65.1422 56.0179 65.5613 58.3418 65.559C60.6953 65.5716 63.029 65.1283 65.214 64.2534L66.3135 66.2464C66.4636 66.4934 66.5128 66.7887 66.451 67.071C66.3334 67.7253 66.4298 68.4001 66.7258 68.9953C67.2658 70.12 68.6153 70.5941 69.74 70.0541C70.8647 69.5142 71.3388 68.1647 70.7989 67.04C70.7941 67.0301 70.7893 67.0202 70.7844 67.0104L70.7804 67.0023C70.6091 66.6062 70.3508 66.2539 70.0245 65.9715C69.8122 65.7884 69.5819 65.6272 69.3372 65.4904C69.1288 65.373 68.9792 65.1736 68.9249 64.9406L68.0316 62.7415C71.8057 60.4892 74.6741 56.9887 76.1407 52.8455L97.6508 57.7248C101.98 58.8931 101.705 60.4049 99.2315 63.5661Z" fill="#312753"/>
<path d="M257.417 62.2738H245.968V89.0345H272.66V77.5853H257.417V62.2738ZM314.732 62.3428V77.5853H299.558L299.42 77.4474V89.0345H326.181V62.2738H314.663L314.732 62.3428ZM245.968 35.5131H257.486L257.417 35.4442V20.2016H272.591L272.66 20.3396V8.75248H245.968L245.968 35.5131ZM299.42 8.75247V20.2016H314.732V35.5131H326.181V8.75247H299.42Z" fill="#312753"/>
<g opacity="0.8">
<path d="M298.041 35.5131L282.729 20.2016H299.42V8.75247H272.66V20.3396L287.902 35.5132L298.041 35.5131ZM284.247 62.2738H274.108L286.799 74.9644L289.419 77.5853H272.66V89.0345H299.42V77.4474L291.833 69.8606L284.247 62.2738ZM314.732 35.5131V52.2041L312.111 49.5832L299.42 36.9615V47.1002L307.076 54.687L314.663 62.2738H326.181V35.5131H314.732ZM272.66 50.6867L257.486 35.5131H245.899V62.2738H257.417V45.5829L272.66 60.8254L272.66 50.6867Z" fill="#312753"/>
</g>
<path d="M122.758 160.146V162.416H129.885V165.661H122.758V168.228H130.606V171.473H119.131V156.901H130.606V160.146L122.758 160.146ZM143.796 160.507V171.473H140.211V170.242C139.532 171.155 138.387 171.727 137.009 171.727C134.633 171.727 132.957 169.967 132.957 167.485V160.507H136.415V166.679C136.415 167.888 137.178 168.737 138.281 168.737C139.384 168.737 140.211 167.909 140.211 166.828V160.507H143.796ZM153.741 160.252V163.243C151.514 163.243 150.135 164.516 150.135 166.531V171.473H146.55V160.507H150.135V162.501C150.856 161.122 152.15 160.252 153.741 160.252ZM155.182 165.979C155.182 162.819 157.918 160.252 161.29 160.252C164.641 160.252 167.356 162.819 167.356 165.979C167.356 169.139 164.641 171.727 161.29 171.727C157.918 171.727 155.182 169.139 155.182 165.979ZM163.941 165.979C163.941 164.473 162.754 163.243 161.29 163.243C159.805 163.243 158.596 164.473 158.596 165.979C158.596 167.485 159.805 168.737 161.29 168.737C162.754 168.737 163.941 167.485 163.941 165.979ZM181.607 165.979C181.607 169.352 179.507 171.727 176.58 171.727C175.096 171.727 173.844 171.112 172.974 170.052V175.121H169.39V160.507H172.974V161.928C173.844 160.868 175.096 160.252 176.58 160.252C179.507 160.252 181.607 162.628 181.607 165.979ZM178.15 165.979C178.15 164.388 177.047 163.243 175.477 163.243C174.014 163.243 172.974 164.388 172.974 165.979C172.974 167.591 174.014 168.737 175.477 168.737C177.047 168.737 178.15 167.591 178.15 165.979ZM191.488 168.016L193.482 170.03C192.506 171.027 190.64 171.727 188.985 171.727C185.592 171.727 183.025 169.33 183.025 165.958C183.025 162.628 185.507 160.252 188.815 160.252C192.294 160.252 194.415 162.734 194.415 166.891H186.419C186.695 168.143 187.585 168.991 188.837 168.991C189.77 168.991 190.767 168.609 191.488 168.016ZM186.461 164.876H190.979C190.725 163.752 189.961 162.989 188.837 162.989C187.67 162.989 186.801 163.731 186.461 164.876ZM201.644 168.525L207.031 164.494C208.665 163.264 209.131 162.458 209.131 161.567C209.131 160.57 208.262 159.934 207.201 159.934C205.844 159.934 204.826 160.592 203.723 161.758L201.453 159.51C203.002 157.643 204.89 156.647 207.286 156.647C210.553 156.647 212.843 158.64 212.843 161.419C212.843 163.349 212.037 164.855 209.492 166.595L207.201 168.228H212.992V171.473H201.644V168.525ZM214.941 164.176C214.941 159.765 217.72 156.647 221.643 156.647C225.588 156.647 228.367 159.765 228.367 164.176C228.367 168.609 225.588 171.727 221.643 171.727C217.72 171.727 214.941 168.609 214.941 164.176ZM224.634 164.176C224.634 161.695 223.404 159.934 221.643 159.934C219.903 159.934 218.674 161.695 218.674 164.176C218.674 166.658 219.903 168.44 221.643 168.44C223.404 168.44 224.634 166.658 224.634 164.176ZM230.209 168.525L235.596 164.494C237.23 163.264 237.696 162.458 237.696 161.567C237.696 160.57 236.827 159.934 235.766 159.934C234.409 159.934 233.391 160.592 232.288 161.758L230.018 159.51C231.567 157.643 233.455 156.647 235.851 156.647C239.118 156.647 241.408 158.64 241.408 161.419C241.408 163.349 240.602 164.855 238.057 166.595L235.766 168.228H241.556V171.473H230.209V168.525ZM250.59 168.694H243.527L243.208 165.937L249.805 156.922H254.217V165.682H256.062V168.694H254.217V171.473H250.59V168.694ZM250.59 165.682V160.676L246.963 165.682H250.59Z" fill="#312753"/>
</svg>
