<svg width="100" height="100" viewBox="0 0 100 100" fill="none" xmlns="http://www.w3.org/2000/svg">
<g clip-path="url(#clip0_1885_167228)">
<path d="M1.11943 61.6748C-4.66392 38.2532 12.5323 13.8624 39.5283 7.19644C66.5243 0.530482 93.0972 14.1136 98.8806 37.5352C104.664 60.9568 87.4677 85.3476 60.4717 92.0135C33.4757 98.6795 6.90279 85.0964 1.11943 61.6748Z" fill="#F2F4FE"/>
<g clip-path="url(#clip1_1885_167228)">
<path fill-rule="evenodd" clip-rule="evenodd" d="M63.9347 42.4652C63.9358 42.4476 63.9364 42.4299 63.9364 42.4122C63.9363 42.3631 63.9318 42.3146 63.9231 42.2671C63.8823 42.0298 63.7354 41.8209 63.5225 41.698C63.4986 41.6842 63.4741 41.6717 63.4492 41.6605L50.3841 34.1095C50.1317 33.9636 49.8207 33.9635 49.5682 34.1091L36.415 41.6953C36.1626 41.8409 36.007 42.1102 36.0068 42.4017L36 57.5858C35.9999 57.8773 36.1553 58.1467 36.4076 58.2926L49.554 65.8906C49.6781 65.9623 49.8189 66 49.9622 66H49.9792C50.1226 66 50.2634 65.9623 50.3875 65.8906L63.5338 58.2926C63.7862 58.1467 63.9416 57.8773 63.9414 57.5858L63.9347 42.4652V42.4652Z" fill="#361E5B"/>
<path d="M49.9707 35.7529L37.6334 42.8769V57.1222L49.9707 64.2461L62.3081 57.1222V42.8769L49.9707 35.7529Z" fill="#16D6C7"/>
<path d="M62.3081 42.877V57.1222L49.9707 64.2462V50.0009L62.3081 42.877Z" fill="#027F9E"/>
<path d="M62.3081 42.8769L49.9707 50.0009L37.6334 42.8769L49.9707 35.7529L62.3081 42.8769Z" fill="#17A6B2"/>
</g>
</g>
<defs>
<clipPath id="clip0_1885_167228">
<rect width="100" height="100" fill="white"/>
</clipPath>
<clipPath id="clip1_1885_167228">
<rect width="27.9414" height="32" fill="white" transform="translate(36 34)"/>
</clipPath>
</defs>
</svg>
