<svg width="100" height="100" viewBox="0 0 100 100" fill="none" xmlns="http://www.w3.org/2000/svg">
<g clip-path="url(#clip0_1885_167226)">
<path d="M92.9478 66.6072C82.8791 92.6458 55.4884 106.319 31.7689 97.147C8.04941 87.9751 -3.01681 59.4314 7.05182 33.3928C17.1205 7.35424 44.5112 -6.31889 68.2307 2.853C91.9502 12.0249 103.016 40.5686 92.9478 66.6072Z" fill="#F2F4FE"/>
<mask id="mask0_1885_167226" style="mask-type:alpha" maskUnits="userSpaceOnUse" x="38" y="35" width="24" height="30">
<path d="M52.6667 37.0264V42.5338C52.6667 43.2805 52.6667 43.6539 52.812 43.9391C52.9398 44.19 53.1438 44.3939 53.3947 44.5218C53.6799 44.6671 54.0533 44.6671 54.8 44.6671H60.3074M52.6667 56.667H44.6667M55.3333 51.3337H44.6667M60.6667 47.318V56.9337C60.6667 59.1739 60.6667 60.294 60.2307 61.1496C59.8472 61.9023 59.2353 62.5142 58.4826 62.8977C57.627 63.3337 56.5069 63.3337 54.2667 63.3337H45.7333C43.4931 63.3337 42.373 63.3337 41.5174 62.8977C40.7647 62.5142 40.1528 61.9023 39.7693 61.1496C39.3333 60.294 39.3333 59.1739 39.3333 56.9337V43.067C39.3333 40.8268 39.3333 39.7067 39.7693 38.851C40.1528 38.0984 40.7647 37.4865 41.5174 37.103C42.373 36.667 43.4931 36.667 45.7333 36.667H50.0157C50.9941 36.667 51.4833 36.667 51.9436 36.7775C52.3517 36.8755 52.7419 37.0371 53.0998 37.2564C53.5035 37.5038 53.8494 37.8497 54.5412 38.5415L58.7922 42.7925C59.484 43.4843 59.8299 43.8302 60.0772 44.2339C60.2966 44.5917 60.4582 44.9819 60.5562 45.3901C60.6667 45.8504 60.6667 46.3396 60.6667 47.318Z" stroke="black" stroke-width="2" stroke-linecap="round" stroke-linejoin="round"/>
</mask>
<g mask="url(#mask0_1885_167226)">
<rect x="34" y="34" width="32" height="32" fill="#361E5B"/>
</g>
</g>
<defs>
<clipPath id="clip0_1885_167226">
<rect width="100" height="100" fill="white"/>
</clipPath>
</defs>
</svg>
