<svg width="100" height="100" viewBox="0 0 100 100" fill="none" xmlns="http://www.w3.org/2000/svg">
<g clip-path="url(#clip0_1885_167226)">
<path d="M92.9478 66.6072C82.8791 92.6458 55.4884 106.319 31.7689 97.147C8.04941 87.9751 -3.01681 59.4314 7.05182 33.3928C17.1205 7.35424 44.5112 -6.31889 68.2307 2.853C91.9502 12.0249 103.016 40.5686 92.9478 66.6072Z" fill="#F2F4FE"/>
<path fill-rule="evenodd" clip-rule="evenodd" d="M51.8837 36.314C51.5398 36.2391 51.1342 36.2326 50.0408 36.2326H45.2605C43.9917 36.2326 43.1072 36.2335 42.4187 36.2897C41.7431 36.3449 41.355 36.4478 41.0611 36.5976C40.4309 36.9187 39.9186 37.431 39.5976 38.0611C39.4478 38.3551 39.3449 38.7432 39.2897 39.4187C39.2334 40.1073 39.2326 40.9917 39.2326 42.2605V57.7395C39.2326 59.0083 39.2334 59.8928 39.2897 60.5813C39.3449 61.2569 39.4478 61.645 39.5976 61.939C39.9186 62.5691 40.4309 63.0814 41.0611 63.4024C41.355 63.5522 41.7431 63.6551 42.4187 63.7103C43.1072 63.7666 43.9917 63.7674 45.2605 63.7674H54.786C56.0548 63.7674 56.9392 63.7666 57.6278 63.7103C58.3033 63.6551 58.6914 63.5522 58.9854 63.4024C59.6156 63.0814 60.1279 62.5691 60.4489 61.939C60.5987 61.645 60.7016 61.2569 60.7568 60.5813C60.8131 59.8928 60.8139 59.0083 60.8139 57.7395V47.0058C60.8139 45.9124 60.8074 45.5068 60.7325 45.1629L55.3424 45.1629C54.9591 45.163 54.6071 45.163 54.3129 45.1389C53.9957 45.113 53.6486 45.0537 53.3059 44.879C52.8158 44.6293 52.4173 44.2309 52.1676 43.7408C51.9929 43.398 51.9336 43.0509 51.9077 42.7337C51.8836 42.4395 51.8837 42.0875 51.8837 41.7043L51.8837 36.314ZM53.4414 34.4919C53.1238 34.3489 52.7931 34.2358 52.4534 34.1543C51.809 33.9995 51.1377 33.9997 50.168 34C50.1261 34 50.0837 34 50.0408 34L45.2127 34C44.0029 34 43.0271 34 42.2369 34.0646C41.4233 34.1311 40.7087 34.2715 40.0475 34.6084C38.9973 35.1435 38.1434 35.9973 37.6083 37.0475C37.2715 37.7087 37.131 38.4233 37.0645 39.2369C37 40.0271 37 41.0029 37 42.2127V57.7873C37 58.9971 37 59.9729 37.0645 60.7631C37.131 61.5767 37.2715 62.2913 37.6083 62.9525C38.1434 64.0027 38.9973 64.8566 40.0475 65.3917C40.7087 65.7285 41.4233 65.869 42.2369 65.9355C43.0271 66 44.0029 66 45.2126 66H54.8338C56.0436 66 57.0194 66 57.8096 65.9355C58.6232 65.869 59.3378 65.7285 59.999 65.3917C61.0492 64.8566 61.903 64.0027 62.4381 62.9525C62.775 62.2913 62.9155 61.5767 62.9819 60.7631C63.0465 59.9729 63.0465 58.9972 63.0465 57.7874V47.0058C63.0465 46.9628 63.0465 46.9204 63.0465 46.8786C63.0468 45.9088 63.047 45.2375 62.8923 44.5931C62.811 44.2545 62.6983 43.9247 62.5559 43.608C62.5493 43.5925 62.5424 43.5772 62.5351 43.5621C62.4431 43.3623 62.3393 43.1679 62.224 42.9798C61.8777 42.4147 61.4029 41.9402 60.717 41.2546C60.6874 41.2251 60.6574 41.1951 60.627 41.1647L55.8818 36.4195C55.8514 36.3891 55.8214 36.3591 55.7919 36.3295C55.1063 35.6436 54.6318 35.1688 54.0667 34.8225C53.8779 34.7068 53.6825 34.6025 53.4818 34.5103C53.4685 34.5039 53.455 34.4978 53.4414 34.4919ZM54.1163 37.8115V41.6653C54.1163 42.1005 54.1171 42.3597 54.1328 42.5519C54.1424 42.6692 54.1551 42.7185 54.1592 42.7317C54.1942 42.7982 54.2485 42.8525 54.3149 42.8875C54.3281 42.8916 54.3774 42.9042 54.4947 42.9138C54.6869 42.9295 54.9462 42.9304 55.3814 42.9304H59.2351C59.1763 42.8713 59.1141 42.8091 59.0484 42.7434L54.3031 37.9981C54.2375 37.9325 54.1753 37.8703 54.1163 37.8115ZM54.311 42.8861L54.3133 42.887ZM54.1605 42.7356L54.1597 42.7334ZM42.9535 51.4884C42.9535 50.8719 43.4533 50.3721 44.0698 50.3721H55.9767C56.5932 50.3721 57.093 50.8719 57.093 51.4884C57.093 52.1049 56.5932 52.6047 55.9767 52.6047H44.0698C43.4533 52.6047 42.9535 52.1049 42.9535 51.4884ZM42.9535 57.4419C42.9535 56.8254 43.4533 56.3256 44.0698 56.3256H53C53.6165 56.3256 54.1163 56.8254 54.1163 57.4419C54.1163 58.0584 53.6165 58.5582 53 58.5582H44.0698C43.4533 58.5582 42.9535 58.0584 42.9535 57.4419Z" fill="#361E5B"/>
</g>
<defs>
<clipPath id="clip0_1885_167226">
<rect width="100" height="100" fill="white"/>
</clipPath>
</defs>
</svg>
