<?xml version="1.0" encoding="UTF-8"?>
<svg id="Layer_1" data-name="Layer 1" xmlns="http://www.w3.org/2000/svg" xmlns:xlink="http://www.w3.org/1999/xlink" viewBox="0 0 671.4656 188.6562" width="671.4656" height="188.6562">
  <g id="logoMark">
    <path id="logoMark__CompoundPathItem_" data-name="logoMark &amp;lt;CompoundPathItem&amp;gt;" d="M81.6865,0L0,47.1686v94.3192l81.6865,47.1684,81.6871-47.1684V47.1686L81.6865,0Zm0,53.5116l35.3198,20.3914v40.8598l-35.3199,20.3817-35.3193-20.3817v-40.8598l35.3193-20.3914Z" style="fill: #16d6c7;"/>
    <a xlink:href="63.4670588235294">
      <polygon id="logoMark__PathItem_" data-name="logoMark &amp;lt;PathItem&amp;gt;" points="23.1836 60.5081 23.1836 128.1773 46.3672 114.7628 46.3672 73.903 81.6866 53.5116 81.6866 26.7413 23.1836 60.5081" style="fill: #027f9e;"/>
    </a>
    <a xlink:href="51.1329411764706">
      <polygon id="logoMark__PathItem_-2" data-name="logoMark &amp;lt;PathItem&amp;gt;" points="163.3736 47.1686 81.6866 0 0 47.1686 23.1836 60.5081 81.6866 26.7413 81.6866 26.7413 140.19 60.5081 163.3736 47.1686" style="fill: #17a6b2;"/>
    </a>
    <a xlink:href="63.4670588235294">
      <polygon id="logoMark__PathItem_-3" data-name="logoMark &amp;lt;PathItem&amp;gt;" points="163.3736 47.1686 140.19 60.5081 140.19 128.1773 81.6866 161.9195 81.6866 188.6562 163.3736 141.4878 163.3736 47.1686" style="fill: #027f9e;"/>
    </a>
    <a xlink:href="51.1329411764706">
      <polygon id="logoMark__PathItem_-4" data-name="logoMark &amp;lt;PathItem&amp;gt;" points="117.0064 114.7628 81.6866 135.1445 46.3672 114.7628 23.1836 128.1773 81.6866 161.9195 140.19 128.1773 117.0064 114.7628" style="fill: #17a6b2;"/>
    </a>
  </g>
  <path id="fullLogo" d="M207.1079,90.1978c-.4836,0-.8788-.1533-1.1855-.4611-.3078-.3067-.4611-.7018-.4611-1.1855V53.2461h-11.9878c-.4394,0-.8131-.1533-1.1198-.4611-.3078-.3067-.4611-.6804-.4611-1.1198v-5.9281c0-.4825,.1533-.8777,.4611-1.1855,.3067-.3067,.6804-.4611,1.1198-.4611h34.5146c.4825,0,.8777,.1544,1.1855,.4611,.3067,.3078,.4611,.7029,.4611,1.1855v5.9281c0,.4394-.1544,.8131-.4611,1.1198-.3078,.3078-.7029,.4611-1.1855,.4611h-11.9222v35.3051c0,.4836-.1544,.8788-.4611,1.1855-.3075,.3078-.7029,.4611-1.1855,.4611h-7.3114Z" style="fill: #361e5b;"/>
  <path id="fullLogo-2" data-name="fullLogo" d="M243.9272,90.8562c-5.0501,0-9.0569-1.4048-12.0208-4.2153-2.9639-2.8095-4.5346-6.8935-4.7094-12.2514v-2.832c.1748-3.3811,.9437-6.2903,2.3052-8.7277,1.3605-2.4371,3.2706-4.303,5.7305-5.5989,2.4586-1.2946,5.3351-1.9431,8.6285-1.9431,3.6885,0,6.7731,.7576,9.2545,2.2725,2.4803,1.5149,4.3472,3.5794,5.5986,6.1914,1.2514,2.6135,1.8771,5.6102,1.8771,8.9912v1.5152c0,.4391-.1646,.8128-.4941,1.1195-.3292,.3078-.7142,.4611-1.1525,.4611h-21.5386v.5271c.0432,1.4058,.3179,2.6899,.8233,3.8529,.5043,1.164,1.2289,2.0975,2.1736,2.7993,.9437,.7034,2.0747,1.0541,3.392,1.0541,1.0973,0,1.9978-.1533,2.7007-.4611,.7018-.3067,1.2844-.6804,1.7455-1.1195,.4611-.4386,.8008-.8123,1.0209-1.12,.3952-.438,.7134-.7131,.9552-.823,.2407-.1094,.6257-.1646,1.1528-.1646h6.85c.4386,0,.8008,.1212,1.0868,.3619,.2852,.2418,.4056,.5828,.3622,1.0209-.0442,.7029-.4064,1.571-1.0868,2.602-.6812,1.0321-1.6795,2.0417-2.9969,3.0299-1.3174,.9882-2.9537,1.8112-4.907,2.4701-1.9546,.6584-4.2054,.9876-6.7514,.9876Zm-6.5208-21.0118h12.9098v-.1314c0-1.5812-.2531-2.9527-.7573-4.1167-.5053-1.1629-1.2412-2.075-2.2066-2.7336-.9664-.6587-2.1305-.9882-3.491-.9882-1.3616,0-2.5256,.3295-3.491,.9882-.9664,.6587-1.7023,1.5707-2.2066,2.7336-.5053,1.164-.7573,2.5355-.7573,4.1167v.1314Z" style="fill: #361e5b;"/>
  <path id="fullLogo-3" data-name="fullLogo" d="M279.6924,90.8562c-2.7232,0-5.0614-.319-7.0149-.9549-1.9543-.6359-3.5352-1.416-4.7424-2.3382-1.2082-.9222-2.1077-1.8546-2.7007-2.7993-.5927-.9437-.9117-1.7458-.9549-2.4042-.0442-.4825,.1091-.8777,.4611-1.1855,.3509-.3067,.7018-.4611,1.0538-.4611h6.3889c.1319,0,.2635,.0225,.3954,.0659,.1316,.044,.2633,.1544,.3952,.3292,.5702,.3952,1.1629,.8461,1.7785,1.3501,.6144,.5056,1.3275,.9335,2.1406,1.2847,.812,.3517,1.8329,.5271,3.0628,.5271,1.449,0,2.6779-.2965,3.6885-.8895,1.0096-.5925,1.5149-1.4375,1.5149-2.5361,0-.7903-.2306-1.4487-.6917-1.9758s-1.3286-1.0096-2.6017-1.4493c-1.2742-.438-3.1618-.9222-5.6646-1.4487-2.3712-.5271-4.3915-1.2289-6.0597-2.1077-1.6694-.8782-2.9208-1.9865-3.7545-3.3269-.8345-1.3388-1.2514-2.9527-1.2514-4.841,0-1.7125,.5372-3.3593,1.6136-4.9402,1.0755-1.5809,2.6677-2.8867,4.7754-3.9191,2.1079-1.031,4.7426-1.5479,7.9041-1.5479,2.4144,0,4.5335,.2965,6.3562,.8892,1.8216,.593,3.3478,1.3401,4.5778,2.2396,1.2289,.9005,2.1624,1.8227,2.7993,2.7663,.6362,.9447,.9766,1.7683,1.0209,2.4701,.0434,.4394-.0885,.8131-.3952,1.1198-.3078,.3078-.6587,.4611-1.0538,.4611h-5.8622c-.2204,0-.4179-.0327-.5927-.0987-.1761-.0659-.3295-.1646-.4611-.2965-.5271-.3512-1.0654-.7576-1.6139-1.2187-.5496-.4611-1.197-.8664-1.9431-1.2184-.7471-.3509-1.7125-.5271-2.8982-.5271-1.449,0-2.5583,.319-3.3261,.9552-.7689,.637-1.1528,1.4391-1.1528,2.4042,0,.6155,.1976,1.1855,.5927,1.7125s1.2072,1.0107,2.4371,1.4493c1.2289,.4391,3.0958,.9002,5.5986,1.3833,2.9856,.5265,5.3568,1.3174,7.1138,2.3709,1.7557,1.0541,3.0186,2.2728,3.7872,3.6561,.7678,1.3828,1.1528,2.8647,1.1528,4.4459,0,2.0642-.6155,3.8974-1.8444,5.5-1.2297,1.6031-3.0194,2.8545-5.3681,3.7542-2.3495,.8997-5.2365,1.3501-8.6615,1.3501Z" style="fill: #361e5b;"/>
  <path id="fullLogo-4" data-name="fullLogo" d="M317.6971,90.1978c-2.7232,0-5.0501-.4498-6.9819-1.3501-1.9326-.8997-3.392-2.2943-4.3802-4.1826-.9879-1.8878-1.482-4.2588-1.482-7.1138v-13.8323h-5.1375c-.4836,0-.879-.1533-1.1857-.4611-.3078-.3067-.4611-.7018-.4611-1.1857v-4.4789c0-.4828,.1533-.878,.4611-1.1857,.3067-.3067,.7021-.4611,1.1857-.4611h5.1375v-10.8681c0-.4825,.1649-.8777,.4941-1.1855,.3295-.3067,.7131-.4611,1.1528-.4611h6.4549c.4828,0,.878,.1544,1.1857,.4611,.3067,.3078,.4611,.7029,.4611,1.1855v10.8681h8.2334c.4383,0,.812,.1544,1.1198,.4611,.3067,.3078,.4608,.7029,.4608,1.1857v4.4789c0,.4839-.1541,.879-.4608,1.1857-.3078,.3078-.6815,.4611-1.1198,.4611h-8.2334v13.042c0,1.6691,.2962,2.9752,.889,3.9188,.593,.9447,1.6356,1.4165,3.1288,1.4165h4.8083c.4383,0,.812,.1544,1.1198,.4611,.3067,.3072,.4611,.6809,.4611,1.1195v4.8743c0,.4836-.1544,.8788-.4611,1.1855-.3078,.3078-.6815,.4611-1.1198,.4611h-5.7305Z" style="fill: #361e5b;"/>
  <path id="fullLogo-5" data-name="fullLogo" d="M347.6009,90.8562c-3.206,0-6.0268-.5925-8.4639-1.7779-2.4371-1.186-4.3585-2.9087-5.7635-5.1708-1.4058-2.261-2.1736-4.9729-2.3052-8.1347-.0442-.7018-.0659-1.5908-.0659-2.6674,0-1.0755,.0217-1.965,.0659-2.668,.1316-3.2047,.8892-5.938,2.2725-8.2006,1.383-2.261,3.3036-3.9848,5.7632-5.1705,2.4589-1.1855,5.2909-1.7785,8.4969-1.7785,2.9414,0,5.4442,.4067,7.509,1.2187,2.0632,.8131,3.7542,1.834,5.0716,3.0628,1.3174,1.2297,2.2943,2.5141,2.9312,3.8532,.6359,1.3401,.9769,2.5143,1.0209,3.5239,.0429,.4397-.0987,.8235-.4279,1.1528s-.7142,.4938-1.1528,.4938h-7.0479c-.4397,0-.7801-.1201-1.0214-.3619-.2413-.2407-.4718-.5817-.6911-1.0209-.6155-1.5366-1.4058-2.6347-2.3715-3.2937-.9662-.6587-2.1736-.9882-3.6226-.9882-1.976,0-3.5352,.6372-4.6764,1.9104-1.1426,1.2739-1.757,3.2502-1.8444,5.9278-.0442,1.7125-.0442,3.2722,0,4.677,.1316,2.7232,.7576,4.699,1.8771,5.9278,1.1198,1.23,2.6677,1.8444,4.6437,1.8444,1.5366,0,2.7663-.3292,3.6885-.9882,.9222-.6584,1.69-1.7554,2.3055-3.2931,.1748-.4386,.3952-.779,.6589-1.0209,.2627-.2407,.6139-.3624,1.0536-.3624h7.0479c.4386,0,.8235,.1646,1.1528,.4938,.3292,.3297,.4708,.7147,.4279,1.1528-.044,.7474-.2531,1.6251-.6257,2.6347-.3737,1.0107-.9667,2.0423-1.7785,3.0958-.8128,1.0541-1.8557,2.0315-3.1285,2.9312-1.2745,.9002-2.8218,1.6251-4.6437,2.1736-1.823,.5485-3.9419,.823-6.3562,.823Z" style="fill: #361e5b;"/>
  <path id="fullLogo-6" data-name="fullLogo" d="M385.6054,90.8562c-3.6454,0-6.6972-.6037-9.1556-1.8112-2.4594-1.2069-4.337-2.9312-5.6313-5.1702-1.2959-2.2396-2.0095-4.8518-2.1409-7.8382-.0445-.8782-.0659-1.8777-.0659-2.9972s.0214-2.0964,.0659-2.9312c.1314-3.0299,.8777-5.6533,2.2396-7.8714,1.3608-2.2168,3.2706-3.9293,5.7305-5.1375,2.4589-1.2072,5.4442-1.8114,8.9577-1.8114,3.4685,0,6.4324,.6043,8.8923,1.8114,2.4589,1.2082,4.3687,2.9208,5.7305,5.1375,1.3603,2.2181,2.1071,4.8416,2.239,7.8714,.0879,.8348,.1319,1.8112,.1319,2.9312s-.044,2.1189-.1319,2.9972c-.1319,2.9864-.8461,5.5986-2.1404,7.8382-1.2959,2.239-3.173,3.9633-5.6319,5.1702-2.4599,1.2074-5.4893,1.8112-9.0896,1.8112Zm0-7.2452c2.1506,0,3.7762-.6691,4.8743-2.009,1.097-1.3388,1.69-3.3033,1.7779-5.8951,.044-.6584,.0665-1.5366,.0665-2.6347,0-1.097-.0225-1.9758-.0665-2.6347-.0879-2.5462-.6809-4.5006-1.7779-5.8619-1.0981-1.3611-2.7237-2.0423-4.8743-2.0423s-3.7875,.6812-4.9075,2.0423c-1.1195,1.3613-1.7232,3.3156-1.8112,5.8619-.044,.6589-.0654,1.5377-.0654,2.6347,0,1.0981,.0214,1.9763,.0654,2.6347,.0879,2.5918,.6917,4.5563,1.8112,5.8951,1.12,1.3399,2.7559,2.009,4.9075,2.009Z" style="fill: #361e5b;"/>
  <path id="fullLogo-7" data-name="fullLogo" d="M409.9762,90.1978c-.4397,0-.8134-.1533-1.12-.4611-.3078-.3067-.4611-.7018-.4611-1.1855v-30.9579c0-.4828,.1533-.878,.4611-1.1857,.3067-.3067,.6804-.4611,1.12-.4611h6.4549c.4825,0,.8782,.1544,1.186,.4611,.3067,.3078,.4606,.7029,.4606,1.1857v2.5688c1.1415-1.4048,2.6122-2.5688,4.4132-3.491,1.8004-.9222,3.9955-1.3833,6.5868-1.3833s4.8625,.5825,6.8173,1.7455c1.9532,1.164,3.491,2.8551,4.6105,5.0719,1.12,2.2178,1.6798,4.9073,1.6798,8.069v18.3771c0,.4836-.1646,.8788-.4943,1.1855-.3292,.3078-.7142,.4611-1.1528,.4611h-6.9819c-.4836,0-.8782-.1533-1.1849-.4611-.3078-.3067-.4611-.7018-.4611-1.1855v-17.9819c0-2.327-.5598-4.1387-1.6798-5.434-1.12-1.2948-2.7564-1.9433-4.9075-1.9433-2.0642,0-3.7108,.6485-4.9397,1.9433-1.23,1.2954-1.8444,3.1071-1.8444,5.434v17.9819c0,.4836-.1544,.8788-.4611,1.1855-.3072,.3078-.6815,.4611-1.1195,.4611h-6.9819Z" style="fill: #361e5b;"/>
  <path id="fullLogo-8" data-name="fullLogo" d="M465.8966,90.1978c-2.7226,0-5.0496-.4498-6.9819-1.3501-1.9323-.8997-3.3918-2.2943-4.3799-4.1826-.9882-1.8878-1.482-4.2588-1.482-7.1138v-13.8323h-5.1375c-.4836,0-.8788-.1533-1.1855-.4611-.3078-.3067-.4611-.7018-.4611-1.1857v-4.4789c0-.4828,.1533-.878,.4611-1.1857,.3067-.3067,.7018-.4611,1.1855-.4611h5.1375v-10.8681c0-.4825,.1646-.8777,.4938-1.1855,.3297-.3067,.7131-.4611,1.1528-.4611h6.4554c.4825,0,.8777,.1544,1.1855,.4611,.3067,.3078,.4611,.7029,.4611,1.1855v10.8681h8.2334c.438,0,.8123,.1544,1.12,.4611,.3067,.3078,.4606,.7029,.4606,1.1857v4.4789c0,.4839-.1539,.879-.4606,1.1857-.3078,.3078-.682,.4611-1.12,.4611h-8.2334v13.042c0,1.6691,.2965,2.9752,.889,3.9188,.593,.9447,1.6358,1.4165,3.1285,1.4165h4.8083c.4386,0,.8123,.1544,1.12,.4611,.3067,.3072,.4611,.6809,.4611,1.1195v4.8743c0,.4836-.1544,.8788-.4611,1.1855-.3078,.3078-.6815,.4611-1.12,.4611h-5.7305Z" style="fill: #361e5b;"/>
  <path id="fullLogo-9" data-name="fullLogo" d="M489.675,90.8562c-2.328,0-4.4132-.4504-6.2576-1.3501s-3.3156-2.1179-4.4126-3.6556c-1.0986-1.5366-1.6471-3.2492-1.6471-5.1375,0-3.1173,1.2621-5.5761,3.7875-7.3776,2.5243-1.7999,5.8506-3.0299,9.9791-3.6883l8.628-1.2514v-1.1855c0-1.713-.3946-3.0299-1.1849-3.9523-.7908-.9222-2.1736-1.3833-4.1499-1.3833-1.4487,0-2.6133,.286-3.491,.8563-.8788,.5713-1.5592,1.3176-2.0423,2.2398-.3517,.571-.8557,.8563-1.5147,.8563h-6.2576c-.4836,0-.8557-.1421-1.1195-.4284-.2638-.2852-.3732-.6257-.3292-1.0209,0-.7463,.2852-1.624,.8563-2.6347,.5699-1.0096,1.4493-2.009,2.6347-2.9972,1.1855-.9879,2.7007-1.8112,4.5451-2.4698,1.8439-.6587,4.1049-.9882,6.7841-.9882,2.7661,0,5.1375,.3295,7.1133,.9882,1.9763,.6587,3.5569,1.5809,4.7429,2.7663,1.1855,1.1857,2.0632,2.5586,2.6347,4.1167,.5699,1.5592,.8557,3.239,.8557,5.0389v20.3534c0,.4836-.1544,.8788-.4611,1.1855-.3078,.3078-.7024,.4611-1.1849,.4611h-6.4554c-.4397,0-.8128-.1533-1.1195-.4611-.3078-.3067-.4611-.7018-.4611-1.1855v-2.4374c-.5716,.8348-1.3404,1.6139-2.3055,2.3388-.9662,.7244-2.1189,1.3066-3.4583,1.7452s-2.9092,.6584-4.7091,.6584Zm2.6347-6.85c1.4493,0,2.7436-.3067,3.8861-.9222,1.1415-.6144,2.0417-1.5581,2.7007-2.832,.6584-1.2734,.9876-2.8755,.9876-4.8083v-1.12l-6.1252,.9882c-2.3715,.3952-4.107,.9882-5.204,1.7785-1.0981,.7903-1.6466,1.757-1.6466,2.898,0,.8348,.2525,1.5597,.7576,2.1736,.504,.6155,1.1742,1.0766,2.009,1.3833,.8337,.3078,1.7125,.4611,2.6347,.4611Z" style="fill: #361e5b;"/>
  <path id="fullLogo-10" data-name="fullLogo" d="M518.1947,50.6773c-.4397,0-.8134-.1533-1.12-.4611-.3078-.3067-.4611-.7021-.4611-1.1857v-5.2694c0-.4825,.1533-.8892,.4611-1.2184,.3067-.3295,.6804-.4941,1.12-.4941h6.916c.4825,0,.889,.1646,1.2182,.4941,.3297,.3292,.4943,.7359,.4943,1.2184v5.2694c0,.4836-.1646,.879-.4943,1.1857-.3292,.3078-.7356,.4611-1.2182,.4611h-6.916Zm.1978,39.5205c-.4397,0-.8134-.1533-1.12-.4611-.3078-.3067-.4611-.7018-.4611-1.1855v-30.9579c0-.4828,.1533-.878,.4611-1.1857,.3067-.3067,.6804-.4611,1.12-.4611h6.5863c.4825,0,.8782,.1544,1.186,.4611,.3067,.3078,.4611,.7029,.4611,1.1857v30.9579c0,.4836-.1544,.8788-.4611,1.1855-.3078,.3078-.7034,.4611-1.186,.4611h-6.5863Z" style="fill: #361e5b;"/>
  <path id="fullLogo-11" data-name="fullLogo" d="M536.4388,90.1978c-.4397,0-.8128-.1533-1.1195-.4611-.3078-.3067-.4611-.7018-.4611-1.1855v-30.9579c0-.4828,.1533-.878,.4611-1.1857,.3067-.3067,.6799-.4611,1.1195-.4611h6.4554c.4825,0,.8777,.1544,1.1855,.4611,.3067,.3078,.4606,.7029,.4606,1.1857v2.5688c1.142-1.4048,2.6122-2.5688,4.4137-3.491,1.7999-.9222,3.995-1.3833,6.5863-1.3833s4.863,.5825,6.8179,1.7455c1.9527,1.164,3.4904,2.8551,4.6099,5.0719,1.12,2.2178,1.6803,4.9073,1.6803,8.069v18.3771c0,.4836-.1651,.8788-.4943,1.1855-.3292,.3078-.7142,.4611-1.1528,.4611h-6.9819c-.4836,0-.8788-.1533-1.1855-.4611-.3078-.3067-.4611-.7018-.4611-1.1855v-17.9819c0-2.327-.5598-4.1387-1.6798-5.434-1.1195-1.2948-2.7559-1.9433-4.907-1.9433-2.0642,0-3.7113,.6485-4.9402,1.9433-1.23,1.2954-1.8444,3.1071-1.8444,5.434v17.9819c0,.4836-.1544,.8788-.4611,1.1855-.3072,.3078-.6809,.4611-1.1195,.4611h-6.9819Z" style="fill: #361e5b;"/>
  <path id="fullLogo-12" data-name="fullLogo" d="M590.8451,90.8562c-5.0501,0-9.0569-1.4048-12.0208-4.2153-2.9639-2.8095-4.5343-6.8935-4.7091-12.2514v-2.832c.1748-3.3811,.9437-6.2903,2.305-8.7277,1.3603-2.4371,3.2706-4.303,5.7305-5.5989,2.4583-1.2946,5.3354-1.9431,8.6285-1.9431,3.6888,0,6.7728,.7576,9.2542,2.2725,2.4803,1.5149,4.3472,3.5794,5.5986,6.1914,1.2514,2.6135,1.8777,5.6102,1.8777,8.9912v1.5152c0,.4391-.1651,.8128-.4943,1.1195-.3292,.3078-.7142,.4611-1.1528,.4611h-21.5383v.5271c.0434,1.4058,.3179,2.6899,.823,3.8529,.5045,1.164,1.2289,2.0975,2.1736,2.7993,.9437,.7034,2.075,1.0541,3.3923,1.0541,1.0975,0,1.9978-.1533,2.7007-.4611,.7018-.3067,1.2847-.6804,1.7458-1.1195,.4611-.4386,.8005-.8123,1.0209-1.12,.3946-.438,.7131-.7131,.9549-.823,.2407-.1094,.6257-.1646,1.1528-.1646h6.85c.4386,0,.8005,.1212,1.0868,.3619,.2852,.2418,.4053,.5828,.3624,1.0209-.0445,.7029-.4064,1.571-1.0873,2.602-.6809,1.0321-1.6793,2.0417-2.9966,3.0299-1.3174,.9882-2.9537,1.8112-4.907,2.4701-1.9543,.6584-4.2051,.9876-6.7514,.9876Zm-6.5208-21.0118h12.9098v-.1314c0-1.5812-.2531-2.9527-.7576-4.1167-.5051-1.1629-1.2407-2.075-2.2063-2.7336-.9667-.6587-2.1302-.9882-3.491-.9882-1.3619,0-2.5253,.3295-3.491,.9882-.9667,.6587-1.7023,1.5707-2.2063,2.7336-.5056,1.164-.7576,2.5355-.7576,4.1167v.1314Z" style="fill: #361e5b;"/>
  <path id="fullLogo-13" data-name="fullLogo" d="M615.0181,90.1978c-.4397,0-.8134-.1533-1.12-.4611-.3078-.3067-.4611-.7018-.4611-1.1855v-30.9579c0-.4386,.1533-.8233,.4611-1.1528,.3067-.3292,.6804-.4941,1.12-.4941h6.4544c.4386,0,.8235,.1649,1.1528,.4941,.3292,.3295,.4943,.7142,.4943,1.1528v2.6347c1.097-1.3608,2.4471-2.4146,4.0507-3.1618,1.6026-.7461,3.4577-1.1198,5.5659-1.1198h2.832c.4386,0,.8118,.1544,1.1195,.4611,.3067,.3078,.4611,.7029,.4611,1.1857v5.6646c0,.4836-.1544,.879-.4611,1.1857-.3078,.3078-.6809,.4611-1.1195,.4611h-5.7959c-1.9334,0-3.4481,.5383-4.5451,1.6139-1.0981,1.0761-1.6466,2.6015-1.6466,4.5778v17.4549c0,.4836-.1544,.8788-.4611,1.1855-.3078,.3078-.7034,.4611-1.186,.4611h-6.9155Z" style="fill: #361e5b;"/>
  <path id="fullLogo-14" data-name="fullLogo" d="M655.5919,90.8562c-2.7232,0-5.0614-.319-7.0152-.9549s-3.5349-1.416-4.7418-2.3382c-1.2085-.9222-2.1082-1.8546-2.7012-2.7993-.5925-.9437-.9115-1.7458-.9544-2.4042-.0445-.4825,.1088-.8777,.4611-1.1855,.3507-.3067,.7013-.4611,1.0536-.4611h6.3889c.1319,0,.2633,.0225,.3952,.0659,.1319,.044,.2638,.1544,.3957,.3292,.5699,.3952,1.1624,.8461,1.7779,1.3501,.6144,.5056,1.3275,.9335,2.1409,1.2847,.8123,.3517,1.8331,.5271,3.0631,.5271,1.4487,0,2.6776-.2965,3.6883-.8895,1.0096-.5925,1.5147-1.4375,1.5147-2.5361,0-.7903-.2306-1.4487-.6917-1.9758s-1.3286-1.0096-2.6015-1.4493c-1.2739-.438-3.1618-.9222-5.6646-1.4487-2.3715-.5271-4.3917-1.2289-6.0597-2.1077-1.6691-.8782-2.9205-1.9865-3.7548-3.3269-.8343-1.3388-1.2514-2.9527-1.2514-4.841,0-1.7125,.5372-3.3593,1.6139-4.9402,1.0755-1.5809,2.668-2.8867,4.7751-3.9191,2.1082-1.031,4.7429-1.5479,7.9041-1.5479,2.4149,0,4.5338,.2965,6.3568,.8892,1.8214,.593,3.3478,1.3401,4.5778,2.2396,1.2289,.9005,2.1618,1.8227,2.7988,2.7663,.6364,.9447,.9769,1.7683,1.0209,2.4701,.044,.4394-.0879,.8131-.3946,1.1198-.3078,.3078-.6589,.4611-1.0541,.4611h-5.8624c-.2198,0-.4177-.0327-.5925-.0987-.1764-.0659-.3297-.1646-.4611-.2965-.5271-.3512-1.0654-.7576-1.6139-1.2187-.5496-.4611-1.1973-.8664-1.9431-1.2184-.7469-.3509-1.7125-.5271-2.898-.5271-1.4493,0-2.5586,.319-3.3264,.9552-.7689,.637-1.1528,1.4391-1.1528,2.4042,0,.6155,.1973,1.1855,.593,1.7125,.3946,.5271,1.2069,1.0107,2.4369,1.4493,1.2289,.4391,3.0958,.9002,5.5986,1.3833,2.9859,.5265,5.3568,1.3174,7.1138,2.3709,1.7559,1.0541,3.0186,2.2728,3.7869,3.6561,.7678,1.3828,1.1528,2.8647,1.1528,4.4459,0,2.0642-.6155,3.8974-1.8444,5.5-1.2294,1.6031-3.0191,2.8545-5.3681,3.7542-2.3495,.8997-5.2362,1.3501-8.6612,1.3501Z" style="fill: #361e5b;"/>
  <path id="fullLogo-15" data-name="fullLogo" d="M214.652,150.5878c-4.1294,0-7.633-.6917-10.5092-2.0751-2.8778-1.3842-5.1066-3.4039-6.6879-6.0621-1.5813-2.6575-2.4604-5.8973-2.6357-9.7186-.0442-1.8009-.066-3.7328-.066-5.7983,0-2.0639,.0217-4.0409,.066-5.9302,.1753-3.7771,1.0649-6.9943,2.6687-9.6526,1.603-2.6575,3.8543-4.6884,6.7538-6.0951,2.8988-1.4051,6.3686-2.1081,10.4103-2.1081,2.9422,0,5.6222,.3732,8.0383,1.1196,2.4154,.748,4.5026,1.8234,6.26,3.2293,1.7558,1.4059,3.1183,3.0532,4.0851,4.9417,.9652,1.8885,1.4928,3.9975,1.5813,6.3251,0,.3949-.1432,.7247-.4287,.9885-.2855,.263-.6258,.3949-1.0207,.3949h-7.5115c-.5276,0-.9451-.1319-1.2523-.3949-.3072-.2638-.5493-.7022-.7247-1.3183-.6587-2.5915-1.7574-4.3699-3.2945-5.3366-1.5379-.966-3.4489-1.4502-5.7324-1.4502-2.7242,0-4.8758,.748-6.4571,2.2408-1.5813,1.4936-2.4379,3.9757-2.5698,7.4456-.1319,3.6017-.1319,7.2919,0,11.069,.1319,3.4706,.9885,5.9528,2.5698,7.4456,1.5813,1.4944,3.7328,2.2408,6.4571,2.2408,2.2835,0,4.2058-.4947,5.7653-1.4832,1.5588-.9877,2.6462-2.7556,3.2615-5.3037,.1753-.6587,.4174-1.1092,.7247-1.3513,.3072-.2405,.7247-.3619,1.2523-.3619h7.5115c.3949,0,.7351,.1319,1.0207,.3949,.2855,.2638,.4287,.5936,.4287,.9885-.0885,2.3293-.6161,4.4374-1.5813,6.3251-.9668,1.8893-2.3293,3.5366-4.0851,4.9417-1.7574,1.4068-3.8446,2.4829-6.26,3.2293-2.4162,.7464-5.0962,1.1196-8.0383,1.1196Z" style="fill: #361e5b;"/>
  <path id="fullLogo-16" data-name="fullLogo" d="M242.9181,149.9291c-.4834,0-.8791-.1536-1.1856-.4609-.3081-.3072-.4617-.7022-.4617-1.1864v-43.487c0-.4834,.1536-.8783,.4617-1.1864,.3064-.3064,.7022-.4609,1.1856-.4609h6.589c.4384,0,.8124,.1544,1.1204,.4609,.3064,.3081,.4609,.703,.4609,1.1864v43.487c0,.4842-.1544,.8791-.4609,1.1864-.3081,.3072-.6821,.4609-1.1204,.4609h-6.589Z" style="fill: #361e5b;"/>
  <path id="fullLogo-17" data-name="fullLogo" d="M275.0723,150.5878c-3.6468,0-6.6992-.604-9.1588-1.8121-2.4604-1.2073-4.3385-2.9317-5.6334-5.1718-1.2966-2.2408-2.01-4.8532-2.1419-7.8413-.0442-.8783-.066-1.8781-.066-2.9977,0-1.1204,.0217-2.0977,.066-2.9325,.1319-3.0307,.8783-5.6552,2.2408-7.8735,1.3609-2.2175,3.2712-3.9307,5.7324-5.1396,2.4596-1.2073,5.446-1.8121,8.9609-1.8121,3.4698,0,6.4345,.6048,8.8949,1.8121,2.4596,1.2089,4.3707,2.9221,5.7324,5.1396,1.3609,2.2183,2.1089,4.8428,2.24,7.8735,.0877,.8349,.1319,1.8121,.1319,2.9325,0,1.1196-.0442,2.1194-.1319,2.9977-.1311,2.988-.8461,5.6005-2.1411,7.8413-1.2958,2.24-3.1738,3.9645-5.6334,5.1718-2.4604,1.2081-5.4919,1.8121-9.0928,1.8121Zm0-7.2477c2.1515,0,3.7771-.6692,4.8758-2.01,1.0971-1.3392,1.6907-3.3041,1.7791-5.8964,.0434-.6595,.066-1.537,.066-2.6357,0-1.0979-.0225-1.977-.066-2.6357-.0885-2.5473-.6821-4.5018-1.7791-5.8643-1.0987-1.3609-2.7242-2.0422-4.8758-2.0422-2.1532,0-3.7883,.6813-4.9087,2.0422-1.1204,1.3625-1.7245,3.317-1.8121,5.8643-.0442,.6587-.066,1.5379-.066,2.6357,0,1.0987,.0217,1.9762,.066,2.6357,.0877,2.5923,.6917,4.5573,1.8121,5.8964,1.1204,1.3408,2.7556,2.01,4.9087,2.01Z" style="fill: #361e5b;"/>
  <path id="fullLogo-18" data-name="fullLogo" d="M311.5754,150.5878c-2.5481,0-4.8002-.5823-6.7538-1.7462-1.9553-1.163-3.4706-2.8545-4.5468-5.0736-1.0762-2.2175-1.6143-4.9087-1.6143-8.0713v-18.3827c0-.4834,.1536-.8783,.4617-1.1864,.3064-.3064,.6805-.4609,1.1196-.4609h6.9847c.4826,0,.8783,.1544,1.1864,.4609,.3064,.3081,.4609,.703,.4609,1.1864v17.9877c0,4.92,2.1515,7.3796,6.4571,7.3796,2.0647,0,3.6999-.6475,4.9087-1.944,1.2081-1.295,1.8121-3.1071,1.8121-5.4356v-17.9877c0-.4834,.1536-.8783,.4609-1.1864,.3072-.3064,.7022-.4609,1.1864-.4609h6.9839c.4392,0,.8124,.1544,1.1204,.4609,.3072,.3081,.4617,.703,.4617,1.1864v30.9678c0,.4842-.1544,.8791-.4617,1.1864-.3081,.3072-.6813,.4609-1.1204,.4609h-6.4571c-.4834,0-.8791-.1536-1.1856-.4609-.3081-.3072-.4617-.7022-.4617-1.1864v-2.5698c-1.1421,1.5813-2.614,2.7902-4.4141,3.6243-1.8017,.8341-3.9983,1.2515-6.589,1.2515Z" style="fill: #361e5b;"/>
  <path id="fullLogo-19" data-name="fullLogo" d="M353.2833,150.5878c-2.1974,0-4.1511-.3619-5.8643-1.0866-1.7132-.7255-3.1634-1.7791-4.3489-3.1634-1.1864-1.3834-2.0872-3.0307-2.7017-4.9417-.6153-1.9103-.9885-4.0296-1.1196-6.3581-.0442-.8341-.066-1.5917-.066-2.273,0-.6805,.0217-1.4164,.066-2.207,.0869-2.2843,.4496-4.3707,1.0866-6.26,.6362-1.8877,1.537-3.5253,2.7017-4.9087,1.163-1.3834,2.6132-2.4596,4.3489-3.2285,1.7341-.7681,3.6999-1.1534,5.8973-1.1534,2.2835,0,4.2379,.3853,5.8635,1.1534,1.6247,.7689,2.9655,1.7687,4.02,2.9977v-14.3635c0-.4834,.1528-.8783,.4609-1.1864,.3064-.3064,.7022-.4609,1.1864-.4609h6.786c.4392,0,.8124,.1544,1.1204,.4609,.3064,.3081,.4609,.703,.4609,1.1864v43.487c0,.4842-.1544,.8791-.4609,1.1864-.3081,.3072-.6813,.4609-1.1204,.4609h-6.3251c-.44,0-.8132-.1536-1.1204-.4609s-.4609-.7022-.4609-1.1864v-2.24c-1.0987,1.3175-2.4821,2.4049-4.1511,3.2615-1.6698,.8566-3.7562,1.2845-6.2592,1.2845Zm3.0307-7.9064c1.6247,0,2.9317-.3732,3.9202-1.1204,.9885-.7464,1.7132-1.6907,2.1741-2.8328,.4617-1.1421,.7134-2.3727,.7585-3.6902,.0869-.8341,.1311-1.669,.1311-2.5038,0-.8341-.0442-1.6472-.1311-2.4379-.045-1.229-.3081-2.3824-.7914-3.4594-.4834-1.0754-1.2185-1.9649-2.207-2.6679-.9885-.7022-2.273-1.0545-3.8543-1.0545-1.6698,0-2.988,.3619-3.9532,1.0866-.9668,.7255-1.6585,1.6802-2.0759,2.8666-.4182,1.1864-.67,2.4821-.7577,3.8873-.1319,1.3625-.1319,2.7242,0,4.0851,.0877,1.4068,.3394,2.7017,.7577,3.8881,.4174,1.1856,1.1092,2.1411,2.0759,2.8658,.9652,.7247,2.2835,1.0874,3.9532,1.0874Z" style="fill: #361e5b;"/>
  <path id="fullLogo-20" data-name="fullLogo" d="M399.1131,143.659c-.2266,0-.4014-.0664-.5254-.2007-.123-.1333-.1846-.3032-.1846-.5093v-20.1548c0-.2266,.0615-.4062,.1846-.54,.124-.1338,.2988-.2007,.5254-.2007h8.457c1.543,0,2.8027,.252,3.7803,.7559,.9775,.5044,1.6982,1.1885,2.1611,2.0527s.6943,1.8315,.6943,2.9014c0,.8438-.1387,1.5693-.417,2.1758-.2773,.6074-.6221,1.1011-1.0342,1.4814-.4111,.3813-.8125,.6743-1.2031,.8799,.8027,.3911,1.5166,1.0293,2.1445,1.9136,.6279,.8853,.9414,1.9551,.9414,3.21,0,1.1318-.2568,2.1714-.7715,3.1177s-1.2803,1.7026-2.2988,2.2686-2.2686,.8486-3.75,.8486h-8.7041Zm2.3145-12.4697h5.6797c1.3164,0,2.3145-.3032,2.9932-.9102,.6797-.6069,1.0186-1.4355,1.0186-2.4849s-.3389-1.8521-1.0186-2.4072c-.6787-.5557-1.6768-.8335-2.9932-.8335h-5.6797v6.6357Zm0,9.9697h5.9883c1.3164,0,2.335-.3599,3.0557-1.0806,.7197-.7197,1.0801-1.605,1.0801-2.6543,0-1.0903-.3604-1.9907-1.0801-2.7007-.7207-.71-1.7393-1.0649-3.0557-1.0649h-5.9883v7.5005Z" style="fill: #9991b5;"/>
  <path id="fullLogo-21" data-name="fullLogo" d="M429.4842,143.659c-.2061,0-.376-.0664-.5098-.2007-.1338-.1333-.2002-.3032-.2002-.5093v-7.2842l-7.4385-12.5928-.0615-.1855c-.0205-.0615-.0312-.1333-.0312-.2158,0-.1646,.0615-.3086,.1855-.4321,.123-.1235,.2666-.1851,.4316-.1851h1.6055c.1846,0,.3496,.0459,.4941,.1387,.1436,.0928,.2461,.2212,.3086,.3857l6.0186,10.0005,6.0186-10.0005c.1025-.1646,.2207-.293,.3545-.3857s.2939-.1387,.4785-.1387h1.5742c.1855,0,.3398,.0615,.4629,.1851,.124,.1235,.1855,.2676,.1855,.4321,0,.0825-.0107,.1543-.0312,.2158-.0205,.062-.0518,.1235-.0928,.1855l-7.4072,12.5928v7.2842c0,.2061-.0674,.376-.2002,.5093-.1348,.1343-.3145,.2007-.541,.2007h-1.6045Z" style="fill: #9991b5;"/>
  <path id="fullLogo-22" data-name="fullLogo" d="M456.6454,143.659c-.165,0-.3086-.0615-.4316-.1851-.124-.1235-.1855-.2671-.1855-.4321,0-.103,.0098-.2163,.0312-.3398l7.6543-19.9697c.082-.2051,.1953-.3701,.3398-.4937,.1436-.1235,.3594-.1851,.6475-.1851h2.0996c.2871,0,.5039,.0615,.6475,.1851s.2578,.2886,.3398,.4937l7.624,19.9697c.041,.1235,.0615,.2368,.0615,.3398,0,.165-.0615,.3086-.1855,.4321-.123,.1235-.2676,.1851-.4316,.1851h-1.5742c-.2471,0-.4277-.0615-.54-.1851-.1133-.1235-.1904-.2363-.2314-.3398l-1.6982-4.3828h-10.123l-1.6982,4.3828c-.0205,.1035-.0928,.2163-.2158,.3398s-.3086,.1851-.5557,.1851h-1.5742Zm4.9385-7.562h8.334l-4.167-10.957-4.167,10.957Z" style="fill: #9991b5;"/>
  <path id="fullLogo-23" data-name="fullLogo" d="M486.5545,143.659c-.2051,0-.375-.0664-.5088-.2007-.1338-.1333-.2012-.3032-.2012-.5093v-18.1489h-5.9258c-.2061,0-.376-.0664-.5088-.2002-.1348-.1338-.2012-.3037-.2012-.5093v-1.2964c0-.2266,.0664-.4062,.2012-.54,.1328-.1338,.3027-.2007,.5088-.2007h14.877c.2266,0,.4062,.0669,.54,.2007s.2012,.3135,.2012,.54v1.2964c0,.2056-.0674,.3755-.2012,.5093s-.3135,.2002-.54,.2002h-5.8955v18.1489c0,.2061-.0664,.376-.2002,.5093-.1338,.1343-.3145,.2007-.54,.2007h-1.6055Z" style="fill: #9991b5;"/>
  <path id="fullLogo-24" data-name="fullLogo" d="M510.9373,143.9675c-1.7695,0-3.2822-.3037-4.5371-.9106-1.2549-.6064-2.2217-1.543-2.9014-2.8086-.6787-1.2656-1.0596-2.855-1.1416-4.7686-.0205-.9053-.0312-1.7749-.0312-2.6084,0-.833,.0107-1.7021,.0312-2.6079,.082-1.8931,.4785-3.4722,1.1885-4.7378s1.6973-2.2119,2.9629-2.8398c1.2656-.6274,2.7412-.9409,4.4287-.9409,1.667,0,3.1328,.3135,4.3984,.9409,1.2656,.6279,2.2578,1.5742,2.9785,2.8398s1.1113,2.8447,1.1729,4.7378c.041,.9058,.0615,1.7749,.0615,2.6079,0,.8335-.0205,1.7031-.0615,2.6084-.0615,1.9136-.4375,3.5029-1.126,4.7686-.6904,1.2656-1.6621,2.2021-2.917,2.8086-1.2559,.6069-2.7578,.9106-4.5068,.9106Zm0-2.6235c1.5635,0,2.8447-.4731,3.8428-1.4199,.998-.9458,1.5381-2.479,1.6211-4.5986,.041-.9263,.0615-1.7539,.0615-2.4849,0-.73-.0205-1.5479-.0615-2.4536-.042-1.4199-.3037-2.5718-.7871-3.457-.4844-.8843-1.127-1.5327-1.9297-1.9443-.8018-.4116-1.7178-.6172-2.7471-.6172-1.0283,0-1.9443,.2056-2.7471,.6172-.8018,.4116-1.4453,1.0601-1.9287,1.9443-.4834,.8853-.7559,2.0371-.8174,3.457-.0215,.9058-.0312,1.7236-.0312,2.4536,0,.731,.0098,1.5586,.0312,2.4849,.082,2.1196,.627,3.6528,1.6357,4.5986,1.0078,.9468,2.2939,1.4199,3.8574,1.4199Z" style="fill: #9991b5;"/>
  <path id="fullLogo-25" data-name="fullLogo" d="M529.3954,143.659c-.2061,0-.376-.0664-.5098-.2007-.1338-.1333-.2002-.3032-.2002-.5093v-20.1548c0-.2266,.0664-.4062,.2002-.54s.3037-.2007,.5098-.2007h1.543c.2471,0,.4316,.0615,.5557,.1851,.123,.1235,.2051,.2266,.2471,.3086l6.5127,12.4697,6.5742-12.4697c.041-.082,.1182-.1851,.2314-.3086,.1123-.1235,.293-.1851,.54-.1851h1.5117c.2266,0,.4062,.0669,.541,.2007,.1328,.1338,.2002,.3135,.2002,.54v20.1548c0,.2061-.0674,.376-.2002,.5093-.1348,.1343-.3145,.2007-.541,.2007h-1.5117c-.2061,0-.376-.0664-.5098-.2007-.1338-.1333-.2002-.3032-.2002-.5093v-15.1855l-5.1543,10.062c-.083,.2061-.2061,.3657-.3711,.4785-.165,.1133-.3701,.1694-.6172,.1694h-.957c-.2676,0-.4727-.0562-.6172-.1694-.1436-.1128-.2676-.2725-.3701-.4785l-5.1855-10.062v15.1855c0,.2061-.0664,.376-.2002,.5093-.1338,.1343-.3037,.2007-.5098,.2007h-1.5117Z" style="fill: #9991b5;"/>
  <path id="fullLogo-26" data-name="fullLogo" d="M558.5321,143.659c-.2266,0-.4014-.0664-.5254-.2007-.123-.1333-.1846-.3032-.1846-.5093v-20.1855c0-.2056,.0615-.3755,.1846-.5093,.124-.1338,.2988-.2007,.5254-.2007h1.6357c.2256,0,.4014,.0669,.5244,.2007,.124,.1338,.1855,.3037,.1855,.5093v20.1855c0,.2061-.0615,.376-.1855,.5093-.123,.1343-.2988,.2007-.5244,.2007h-1.6357Z" style="fill: #9991b5;"/>
  <path id="fullLogo-27" data-name="fullLogo" d="M578.6551,143.9675c-1.8926,0-3.4619-.3496-4.7061-1.0493-1.2461-.6992-2.1875-1.6768-2.8242-2.9321-.6387-1.2549-.9883-2.7163-1.0498-4.3828-.0205-.8438-.0312-1.749-.0312-2.7163,0-.9668,.0107-1.8931,.0312-2.7778,.0615-1.6665,.4111-3.1274,1.0498-4.3828,.6367-1.2549,1.5781-2.2324,2.8242-2.9321,1.2441-.6992,2.8135-1.0493,4.7061-1.0493,1.4199,0,2.665,.1958,3.7354,.5864,1.0693,.3911,1.96,.9155,2.6699,1.5737,.71,.6592,1.25,1.3945,1.6201,2.207,.3701,.813,.5762,1.6514,.6172,2.5156,.0205,.1851-.0361,.3394-.1699,.4629s-.293,.1851-.4785,.1851h-1.6973c-.1855,0-.3447-.0508-.4785-.1543-.1338-.1025-.2314-.2876-.293-.5557-.3506-1.605-1.0029-2.7056-1.96-3.3022s-2.1455-.895-3.5654-.895c-1.666,0-2.9834,.4683-3.9502,1.4043-.9678,.9365-1.4814,2.4336-1.543,4.4907-.0625,1.6875-.0625,3.416,0,5.1855,.0615,2.0576,.5752,3.5547,1.543,4.4907,.9668,.9365,2.2842,1.4043,3.9502,1.4043,1.4199,0,2.6084-.2979,3.5654-.895,.957-.5967,1.6094-1.6978,1.96-3.3027,.0615-.2671,.1592-.4521,.293-.5557,.1338-.1025,.293-.1543,.4785-.1543h1.6973c.1855,0,.3447,.0571,.4785,.1699,.1338,.1133,.1904,.2622,.1699,.4478-.041,.8643-.2471,1.708-.6172,2.5308-.3701,.8232-.9102,1.564-1.6201,2.2222-.71,.6587-1.6006,1.1836-2.6699,1.5742-1.0703,.3906-2.3154,.5864-3.7354,.5864Z" style="fill: #9991b5;"/>
  <path id="fullLogo-28" data-name="fullLogo" d="M602.4832,143.9675c-1.0498,0-2.043-.1338-2.9785-.4014-.9365-.2671-1.7705-.6685-2.5-1.2036-.7305-.5347-1.3125-1.2139-1.7441-2.0371-.4326-.8228-.6689-1.79-.71-2.9014,0-.1851,.0615-.3442,.1855-.4785,.123-.1333,.2871-.2002,.4932-.2002h1.667c.2266,0,.4062,.0669,.54,.2002,.1338,.1343,.2207,.3042,.2627,.5093,.082,.9263,.3496,1.6724,.8027,2.2378,.4521,.5664,1.0283,.9829,1.7285,1.25,.6992,.2681,1.4707,.4014,2.3145,.4014,1.5635,0,2.7568-.5142,3.5801-1.543s1.2354-2.397,1.2354-4.1055v-10.957h-10.958c-.2051,0-.375-.0664-.5088-.2007-.1338-.1333-.2012-.3032-.2012-.5093v-1.2651c0-.2056,.0674-.3755,.2012-.5093s.3037-.2007,.5088-.2007h13.3037c.2256,0,.4053,.0669,.54,.2007,.1328,.1338,.2002,.3135,.2002,.54v12.9634c0,1.6665-.3193,3.1172-.957,4.3521-.6377,1.2344-1.543,2.1865-2.7158,2.855-1.1729,.6689-2.6035,1.0029-4.29,1.0029Z" style="fill: #9991b5;"/>
  <path id="fullLogo-29" data-name="fullLogo" d="M618.409,143.659c-.165,0-.3086-.0615-.4316-.1851-.124-.1235-.1855-.2671-.1855-.4321,0-.103,.0098-.2163,.0312-.3398l7.6543-19.9697c.082-.2051,.1953-.3701,.3398-.4937,.1436-.1235,.3594-.1851,.6475-.1851h2.0996c.2871,0,.5039,.0615,.6475,.1851s.2578,.2886,.3398,.4937l7.624,19.9697c.041,.1235,.0615,.2368,.0615,.3398,0,.165-.0615,.3086-.1855,.4321-.123,.1235-.2676,.1851-.4316,.1851h-1.5742c-.2471,0-.4277-.0615-.54-.1851-.1133-.1235-.1904-.2363-.2314-.3398l-1.6982-4.3828h-10.123l-1.6982,4.3828c-.0205,.1035-.0928,.2163-.2158,.3398s-.3086,.1851-.5557,.1851h-1.5742Zm4.9385-7.562h8.334l-4.167-10.957-4.167,10.957Z" style="fill: #9991b5;"/>
  <path id="fullLogo-30" data-name="fullLogo" d="M645.8797,143.659c-.2266,0-.4014-.0664-.5254-.2007-.123-.1333-.1846-.3032-.1846-.5093v-20.1548c0-.2266,.0615-.4062,.1846-.54,.124-.1338,.2988-.2007,.5254-.2007h7.5312c2.3242,0,4.166,.5454,5.5244,1.6357,1.3584,1.0908,2.0371,2.7061,2.0371,4.8457,0,1.585-.3965,2.876-1.1885,3.8735-.792,.9985-1.8672,1.6929-3.2256,2.0835l4.7539,8.21c.0615,.1235,.0918,.2368,.0918,.3398,0,.165-.0664,.3086-.2002,.4321s-.2832,.1851-.4473,.1851h-1.4814c-.3506,0-.6074-.0928-.7715-.2778-.165-.1851-.3096-.3701-.4326-.5557l-4.4756-7.8398h-5.4014v7.9634c0,.2061-.0674,.376-.2002,.5093-.1348,.1343-.3145,.2007-.54,.2007h-1.5742Zm2.3145-11.2969h5.0928c1.543,0,2.6953-.3237,3.457-.9722,.7607-.6479,1.1416-1.6099,1.1416-2.8857,0-1.2549-.375-2.2119-1.126-2.8706-.752-.6582-1.9092-.9878-3.4727-.9878h-5.0928v7.7163Z" style="fill: #9991b5;"/>
</svg>