<svg xmlns="http://www.w3.org/2000/svg" viewBox="0 0 30 30" width="30" height="30">
    <!--! Font Awesome Pro 6.3.0 by @fontawesome - https://fontawesome.com License - https://fontawesome.com/license (Commercial License) Copyright 2023 Fonticons, Inc. -->
    <path d="M21.5156 24.1699L5.83008 8.48438C4.51758 10.3184 3.75 12.5684 3.75 15C3.75 21.2109 8.78906 26.25 15 26.25C17.4316 26.25 19.6816 25.4824 21.5156 24.1699ZM24.1699 21.5156C25.4824 19.6816 26.25 17.4316 26.25 15C26.25 8.78906 21.2109 3.75 15 3.75C12.5684 3.75 10.3184 4.51758 8.48438 5.83008L24.1699 21.5156ZM0 15C0 11.0218 1.58035 7.20644 4.3934 4.3934C7.20644 1.58035 11.0218 0 15 0C18.9782 0 22.7936 1.58035 25.6066 4.3934C28.4196 7.20644 30 11.0218 30 15C30 18.9782 28.4196 22.7936 25.6066 25.6066C22.7936 28.4196 18.9782 30 15 30C11.0218 30 7.20644 28.4196 4.3934 25.6066C1.58035 22.7936 0 18.9782 0 15Z" fill="#E80606"/>
</svg>