<svg xmlns="http://www.w3.org/2000/svg" viewBox="0 0 30 30" width="30" height="30">
    <!--! Font Awesome Pro 6.3.0 by @fontawesome - https://fontawesome.com License - https://fontawesome.com/license (Commercial License) Copyright 2023 Fonticons, Inc. -->
    <path d="M12.8787 24.8787C12.3161 25.4413 12 26.2044 12 27C12 27.7956 12.3161 28.5587 12.8787 29.1213C13.4413 29.6839 14.2044 30 15 30C15.7956 30 16.5587 29.6839 17.1213 29.1213C17.6839 28.5587 18 27.7956 18 27C18 26.2044 17.6839 25.4413 17.1213 24.8787C16.5587 24.3161 15.7956 24 15 24C14.2044 24 13.4413 24.3161 12.8787 24.8787Z" fill="#E80606"/>
    <path d="M15 0C13 8.74229e-08 12 0.893749 12 2L13 18C13 19.1063 13.8938 20 15 20C16.1063 20 17 19 17 18C17 18 17.7065 8.0428 18 2C18 0.893749 17 -8.74229e-08 15 0Z" fill="#E80606"/>
</svg>