<svg xmlns="http://www.w3.org/2000/svg" viewBox="0 0 30 30" width="30" height="30">
    <!--! Font Awesome Pro 6.3.0 by @fontawesome - https://fontawesome.com License - https://fontawesome.com/license (Commercial License) Copyright 2023 Fonticons, Inc. -->
    <path d="M12 3C12 2.20435 12.3161 1.44129 12.8787 0.87868C13.4413 0.316071 14.2044 0 15 0C15.7956 0 16.5587 0.316071 17.1213 0.87868C17.6839 1.44129 18 2.20435 18 3C18 3.79565 17.6839 4.55871 17.1213 5.12132C16.5587 5.68393 15.7956 6 15 6C14.2044 6 13.4413 5.68393 12.8787 5.12132C12.3161 4.55871 12 3.79565 12 3ZM9 12C9 10.8937 9.89375 10 11 10H15C16.1063 10 17 10.8937 17 12V26H19C20.1063 26 21 26.8937 21 28C21 29.1063 20.1063 30 19 30H11C9.89375 30 9 29.1063 9 28C9 26.8937 9.89375 26 11 26H13V14H11C9.89375 14 9 13.1063 9 12Z" fill="#1DA4F0"/>
</svg>
