<svg xmlns="http://www.w3.org/2000/svg" viewBox="0 0 30 30" width="30" height="30">
    <!--! Font Awesome Pro 6.3.0 by @fontawesome - https://fontawesome.com License - https://fontawesome.com/license (Commercial License) Copyright 2023 Fonticons, Inc. -->
    <path d="M22.3478 2.61329C22.6935 1.81056 22.4356 0.873058 21.7267 0.357433C21.0177 -0.158192 20.0509 -0.111317 19.3888 0.462902L4.38877 13.5879C3.80283 14.1035 3.59776 14.9297 3.86729 15.6621C4.13682 16.3945 4.8458 16.875 5.6251 16.875H12.1583L7.65244 27.3867C7.30674 28.1895 7.56455 29.127 8.27354 29.6426C8.98252 30.1582 9.94932 30.1113 10.6114 29.5371L25.6114 16.4121C26.1974 15.8965 26.4083 15.0703 26.1329 14.3438C25.8575 13.6172 25.1603 13.1309 24.3751 13.1309H17.8419L22.3478 2.61329Z" fill="#F9D208"/>
</svg>