<svg xmlns="http://www.w3.org/2000/svg" viewBox="0 0 30 30" width="30" height="30">
    <!--! Font Awesome Pro 6.3.0 by @fontawesome - https://fontawesome.com License - https://fontawesome.com/license (Commercial License) Copyright 2023 Fonticons, Inc. -->
    <path d="M2.8125 1.40625C2.8125 0.626953 2.18555 0 1.40625 0C0.626953 0 0 0.626953 0 1.40625V3.75V20.5371V23.4375V28.5938C0 29.373 0.626953 30 1.40625 30C2.18555 30 2.8125 29.373 2.8125 28.5938V22.7344L7.51758 21.5566C9.92578 20.9531 12.4746 21.2344 14.6953 22.3418C17.2852 23.6367 20.291 23.7949 22.998 22.7754L25.0312 22.0137C25.7637 21.7383 26.25 21.041 26.25 20.2559V3.87305C26.25 2.52539 24.832 1.64648 23.625 2.25L23.0625 2.53125C20.3496 3.89062 17.1562 3.89062 14.4434 2.53125C12.3867 1.5 10.0254 1.24219 7.79297 1.79883L2.8125 3.04688V1.40625Z" fill="#E80606"/>
</svg>