<svg width="30" height="30" viewBox="0 0 30 30" fill="none" xmlns="http://www.w3.org/2000/svg">
<g clip-path="url(#clip0_657_21013)">
<path d="M24.3021 24.5013C24.694 24.4413 25.0832 24.3869 25.471 24.3212C26.1795 24.1998 26.8504 23.9597 27.4781 23.6135C28.0863 23.2785 28.6023 22.8443 29.0152 22.2692C29.343 21.8127 29.5913 21.3269 29.7573 20.8021C29.8688 20.4475 29.947 20.072 29.9749 19.7021C30.0111 19.2233 30.0055 18.7389 29.9749 18.2587C29.9497 17.8427 29.8716 17.4281 29.8061 17.0149C29.7559 16.6938 29.6931 16.3727 29.6248 16.0545C29.5996 15.9358 29.4964 15.8185 29.5076 15.7097C29.5285 15.5142 29.449 15.3453 29.403 15.1764C29.2774 14.706 29.1296 14.2397 28.9552 13.7847C28.8046 13.3938 28.6247 13.0099 28.4224 12.6414C28.216 12.2631 27.9663 11.9071 27.7376 11.5414C27.6929 11.4688 27.6664 11.3836 27.6148 11.3194C27.5018 11.1784 27.3707 11.0514 27.2591 10.909C27.0722 10.6717 26.9007 10.4218 26.7123 10.1845C26.5129 9.93324 26.2813 9.7057 26.1 9.44187C25.7932 8.99935 25.4472 8.59313 25.0762 8.20506C24.5183 7.62156 23.9338 7.07435 23.2448 6.63881C22.6269 6.24934 21.9755 5.93805 21.2962 5.6798C21.1763 5.63373 21.0521 5.59883 20.9294 5.56114C20.7118 5.49553 20.4956 5.42434 20.2752 5.37129C19.9474 5.29312 19.6182 5.20936 19.2849 5.16609C18.9878 5.127 18.6949 5.04185 18.3908 5.06279C18.3392 5.06558 18.2862 5.06558 18.2346 5.06279C17.9793 5.04185 17.7241 4.99858 17.4688 4.99997C17.1787 5.00137 16.8858 5.0251 16.5998 5.06837C16.1493 5.13677 15.6946 5.20099 15.2566 5.32104C14.7531 5.45924 14.2663 5.65746 13.7725 5.83056C13.6526 5.87244 13.5256 5.90175 13.4154 5.96178C13.1965 6.08183 12.9872 6.22003 12.7738 6.35125C12.4976 6.52155 12.1964 6.66254 11.9523 6.87054C11.6328 7.14135 11.2772 7.37447 11.008 7.70671C10.7332 8.04732 10.4263 8.36141 10.1599 8.709C9.61034 9.42791 9.22119 10.239 8.86411 11.0654C8.84319 11.1142 8.7846 11.1645 8.733 11.1784C8.48611 11.2454 8.23365 11.2957 7.98537 11.3599C7.26842 11.5456 6.54869 11.7256 5.83593 11.9253C4.43692 12.3175 3.13554 12.9303 1.91088 13.7051C1.07817 14.2314 0.470023 14.9559 0.182688 15.9037C0.0264675 16.4202 -0.043274 16.9548 0.0236779 17.5076C0.0864452 18.0213 0.138054 18.5351 0.277537 19.0348C0.357042 19.3196 0.435153 19.6057 0.525817 19.8877C0.74341 20.5634 1.03074 21.2097 1.39201 21.8211C1.83975 22.5791 2.38791 23.2533 3.10067 23.7754C3.48007 24.0532 3.89294 24.2836 4.29465 24.5278C4.38252 24.5809 4.49411 24.5921 4.58617 24.6381C4.77168 24.7344 4.94185 24.8698 5.13712 24.9383C5.59323 25.1002 6.05771 25.2384 6.52358 25.3752C7.18613 25.5706 7.86402 25.6572 8.55306 25.6879C9.26721 25.7186 9.97439 25.6795 10.6746 25.5357C11.1391 25.4394 11.598 25.3221 12.0415 25.1393C12.6176 24.9006 13.1351 24.5655 13.6414 24.2096C14.29 23.7531 14.8772 23.2254 15.4379 22.6657C15.7155 22.3879 15.9931 22.1115 16.2637 21.8267C16.3432 21.7429 16.4101 21.7415 16.505 21.789C16.7393 21.9063 16.9778 22.0179 17.215 22.1296C17.5386 22.2804 17.8663 22.4242 18.1872 22.5805C18.6335 22.7969 19.0687 23.0412 19.522 23.2408C20.0646 23.4795 20.6225 23.6875 21.1749 23.9053C21.7244 24.123 22.3005 24.2514 22.8794 24.352C23.3452 24.4329 23.8223 24.4553 24.3007 24.5041L24.3021 24.5013Z" fill="#FFFEFF"/>
<path d="M24.3021 24.5013C23.8237 24.4525 23.3481 24.4302 22.8808 24.3492C22.302 24.2487 21.7273 24.1203 21.1763 23.9025C20.624 23.6847 20.066 23.4767 19.5235 23.238C19.0701 23.0384 18.6349 22.7955 18.1886 22.5777C17.8678 22.4214 17.54 22.2776 17.2164 22.1268C16.9793 22.0152 16.7408 21.9049 16.5064 21.7862C16.4116 21.7388 16.3446 21.7402 16.2651 21.8239C15.9945 22.1087 15.717 22.3865 15.4394 22.6629C14.8787 23.2213 14.2914 23.7503 13.6428 24.2068C13.1379 24.5628 12.6204 24.8978 12.043 25.1365C11.6008 25.3208 11.1405 25.4366 10.676 25.533C9.97724 25.6781 9.26866 25.7172 8.55451 25.6851C7.86546 25.6544 7.18618 25.5679 6.52503 25.3724C6.06055 25.2356 5.59468 25.0974 5.13857 24.9355C4.9433 24.8671 4.77313 24.7303 4.58761 24.6354C4.49556 24.5879 4.38397 24.5767 4.29609 24.5251C3.89438 24.2808 3.48151 24.0505 3.10212 23.7727C2.38936 23.252 1.84119 22.5763 1.39345 21.8183C1.03219 21.2069 0.743464 20.5606 0.527265 19.885C0.436601 19.603 0.358491 19.3182 0.278985 19.032C0.138108 18.5323 0.0878937 18.0186 0.0251264 17.5049C-0.0432203 16.9521 0.0279161 16.4174 0.184137 15.9009C0.471472 14.9517 1.07962 14.2286 1.91233 13.7023C3.13699 12.9276 4.43976 12.3148 5.83738 11.9225C6.55014 11.7229 7.26987 11.5428 7.98681 11.3571C8.23509 11.2929 8.48756 11.2427 8.73444 11.1757C8.78466 11.1617 8.84464 11.1114 8.86556 11.0626C9.22263 10.2362 9.61179 9.42514 10.1614 8.70623C10.4264 8.35864 10.7346 8.04456 11.0094 7.70395C11.2786 7.37171 11.6329 7.13998 11.9537 6.86777C12.1978 6.65978 12.4991 6.51879 12.7753 6.34848C12.9887 6.21726 13.1979 6.07907 13.4169 5.95901C13.5271 5.89899 13.654 5.86967 13.774 5.8278C14.2677 5.6547 14.7545 5.45647 15.2581 5.31828C15.696 5.19822 16.1508 5.13401 16.6013 5.06561C16.8872 5.02513 17.1801 5.0014 17.4703 5C17.7255 5 17.9808 5.04188 18.236 5.06282C18.2876 5.06701 18.3406 5.06701 18.3922 5.06282C18.6963 5.04188 18.9892 5.12703 19.2863 5.16612C19.6197 5.21079 19.9489 5.29315 20.2767 5.37132C20.497 5.42437 20.7132 5.49556 20.9308 5.56117C21.0536 5.59746 21.1777 5.63376 21.2977 5.67983C21.977 5.93807 22.6283 6.24937 23.2463 6.63884C23.9367 7.07437 24.5211 7.62158 25.0777 8.20509C25.4473 8.59316 25.7946 8.99938 26.1015 9.4419C26.2828 9.70433 26.5143 9.93327 26.7138 10.1845C26.9021 10.4218 27.0737 10.6703 27.2606 10.909C27.3722 11.0514 27.5033 11.1785 27.6163 11.3194C27.6679 11.3851 27.6944 11.4702 27.739 11.5414C27.9678 11.9085 28.216 12.2631 28.4239 12.6414C28.6247 13.0099 28.806 13.3924 28.9567 13.7847C29.131 14.2398 29.2803 14.706 29.4044 15.1764C29.4491 15.3467 29.53 15.5143 29.509 15.7097C29.4979 15.8186 29.5997 15.9358 29.6262 16.0545C29.6945 16.3728 29.7573 16.6924 29.8075 17.0149C29.8731 17.4281 29.9498 17.8413 29.9763 18.2587C30.0056 18.7389 30.0112 19.2233 29.9763 19.7021C29.9484 20.0734 29.8703 20.4475 29.7587 20.8021C29.5927 21.3284 29.3444 21.8142 29.0167 22.2692C28.6038 22.843 28.0877 23.2785 27.4796 23.6135C26.8505 23.9597 26.181 24.1998 25.4724 24.3213C25.086 24.3883 24.6969 24.4413 24.3035 24.5013H24.3021ZM19.3449 17.8929C19.1747 18.1693 19.0199 18.4569 18.8316 18.7193C18.3699 19.3615 17.8915 19.9924 17.42 20.6276C17.3503 20.7044 17.2806 20.7812 17.2122 20.8593C17.0253 21.0701 17.0239 21.0715 17.2792 21.1902C18.5889 21.803 19.9015 22.4116 21.2084 23.03C22.3257 23.5577 23.4945 23.7824 24.7276 23.6652C25.6747 23.5744 26.5646 23.2994 27.3861 22.8234C28.3597 22.2595 29.0418 21.4638 29.3179 20.3484C29.4742 19.7147 29.4449 19.0795 29.3975 18.4402C29.3821 18.2363 29.3682 18.0381 29.2998 17.8399C29.2538 17.7045 29.2873 17.5398 29.2887 17.389C29.2928 17.1056 29.2496 16.8306 29.1882 16.5542C29.1143 16.2248 29.0487 15.8953 28.9553 15.5701C28.6345 14.4519 28.124 13.4287 27.4935 12.4571C26.937 11.5972 26.3553 10.7555 25.6747 9.98771C24.9884 9.21296 24.3105 8.42984 23.5936 7.68301C22.9715 7.03668 22.2029 6.59975 21.3479 6.31917C20.5654 6.06231 19.7675 5.86828 18.9446 5.83896C18.3169 5.81663 17.6851 5.83896 17.0574 5.88363C16.4325 5.92691 15.8299 6.1028 15.2302 6.27869C14.0501 6.62348 12.9636 7.15394 12.0039 7.9259C11.0192 8.7174 10.3343 9.74482 9.74012 10.842C9.72198 10.8741 9.72198 10.9174 9.71501 10.9551C9.75406 10.9607 9.7973 10.9788 9.83078 10.9677C10.1544 10.8699 10.5059 10.9021 10.8197 10.7597C10.8657 10.7597 10.9132 10.7694 10.9578 10.7625C11.5701 10.6592 12.1811 10.5517 12.7948 10.4512C13.0682 10.4065 13.3458 10.3758 13.6205 10.3395C13.9553 10.2962 14.29 10.2529 14.6248 10.2097C14.7601 10.1915 14.894 10.1692 15.0307 10.1566C15.3892 10.1259 15.749 10.0757 16.1075 10.0798C16.4897 10.084 16.8705 10.1427 17.2527 10.1776C17.3266 10.2069 17.4005 10.2376 17.4744 10.2655C17.8357 10.3967 18.2067 10.5084 18.5582 10.6633C19.1985 10.9439 19.6978 11.3809 19.9614 12.0481C20.119 12.4474 20.2474 12.8536 20.2446 13.2905C20.2418 13.7205 20.2864 14.156 20.2306 14.579C20.1511 15.1834 20.0242 15.7837 19.868 16.3728C19.7299 16.8893 19.5221 17.3876 19.3449 17.8943V17.8929ZM7.12481 22.4437C7.83338 22.4898 8.53498 22.4158 9.22961 22.2958C10.0693 22.1506 10.8867 21.9202 11.6803 21.609C12.0137 21.4777 12.3443 21.3381 12.6707 21.1888C12.997 21.0394 13.322 20.8859 13.6359 20.7128C13.9386 20.5452 14.2566 20.4084 14.5481 20.2172C14.9554 19.9506 15.3808 19.7161 15.7923 19.455C16.7268 18.8617 17.5595 18.1512 18.2583 17.2885C18.6461 16.8097 18.9516 16.2792 19.2305 15.7306C19.5792 15.0438 19.8429 14.3319 19.8931 13.5599C19.9545 12.6233 19.6141 11.8611 18.833 11.3194C18.6057 11.1617 18.356 11.0375 18.1133 10.9048C17.872 10.7722 17.6014 10.7094 17.3405 10.634C17.0713 10.5559 16.7854 10.5042 16.5064 10.4944C16.0461 10.4805 15.5831 10.5126 15.1214 10.521C14.961 10.5238 14.7908 10.447 14.6485 10.5852C14.6388 10.5949 14.615 10.5894 14.5983 10.5908C14.1478 10.6396 13.6931 10.6675 13.2467 10.7443C12.4865 10.8741 11.7166 10.9342 10.9662 11.1282C10.6342 11.2134 10.2855 11.2329 9.94934 11.3055C9.11942 11.4856 8.28949 11.6656 7.46654 11.8736C6.64917 12.0802 5.8332 12.298 5.02838 12.5493C4.22077 12.8019 3.46896 13.1956 2.72273 13.5892C2.34473 13.7889 1.96254 13.9815 1.64173 14.2705C1.52736 14.3738 1.40461 14.4673 1.29442 14.5748C0.601191 15.2574 0.259458 16.095 0.214823 17.0582C0.185532 17.6724 0.265037 18.2671 0.471472 18.8534C0.863419 19.9701 1.50923 20.8705 2.54977 21.4652C2.65159 21.5224 2.76318 21.6452 2.84966 21.6271C3.00588 21.595 3.0533 21.7192 3.15373 21.7583C3.18023 21.7681 3.20534 21.782 3.23323 21.7932C3.71027 21.9817 4.19288 22.1548 4.70199 22.2357C5.15113 22.3069 5.59887 22.3949 6.05079 22.4367C6.40647 22.4702 6.76913 22.4437 7.1276 22.4437H7.12481Z" fill="#1D2A12"/>
<path d="M17.2527 10.1775C16.8705 10.1426 16.4897 10.084 16.1075 10.0798C15.749 10.0756 15.3892 10.1259 15.0307 10.1566C14.8954 10.1678 14.7601 10.1915 14.6248 10.2096C14.29 10.2529 13.9553 10.2962 13.6205 10.3395C13.3457 10.3758 13.0682 10.4065 12.7948 10.4511C12.1825 10.5516 11.5701 10.6591 10.9578 10.7624C10.9132 10.7694 10.8657 10.761 10.8197 10.7596C10.8281 10.7094 10.8225 10.6522 10.8462 10.6089C11.0094 10.3157 11.16 10.0156 11.3469 9.73781C11.6747 9.25202 12.0723 8.82766 12.5214 8.44656C13.0821 7.97055 13.707 7.60481 14.3821 7.32283C15.06 7.04085 15.763 6.83983 16.4743 6.66673C16.9793 6.54389 17.4884 6.45734 18.0059 6.42384C18.2569 6.40709 18.5122 6.43501 18.7647 6.45455C19.1427 6.48247 19.5207 6.51318 19.8973 6.55785C20.8248 6.66813 21.6771 6.98361 22.4554 7.50011C23.0245 7.87841 23.5698 8.28463 24.0134 8.8123C24.3328 9.192 24.6745 9.55494 24.9758 9.9472C25.4822 10.6061 25.962 11.2845 26.4599 11.949C27.0262 12.7056 27.513 13.5097 27.9454 14.3472C28.2593 14.9572 28.4587 15.6078 28.5843 16.2792C28.6652 16.7133 28.707 17.1559 28.7642 17.5942C28.7767 17.6891 28.7837 17.7854 28.7907 17.8818C28.8046 18.1177 28.8311 18.3536 28.8256 18.5895C28.8214 18.824 28.7795 19.0585 28.7656 19.2944C28.7363 19.7705 28.6149 20.2269 28.449 20.6695C28.1965 21.3465 27.6818 21.8085 27.1099 22.2036C26.6064 22.5512 26.0457 22.7815 25.4431 22.9113C24.8126 23.0467 24.1822 23.0998 23.5378 23.0426C23.0259 22.9965 22.5432 22.8541 22.0732 22.6615C21.0591 22.2469 20.0479 21.8295 19.038 21.4065C18.5652 21.2083 18.0965 20.9975 17.6293 20.7867C17.5512 20.7518 17.4884 20.682 17.4186 20.6276C17.8901 19.9924 18.3685 19.3615 18.8302 18.7193C19.0199 18.4569 19.1733 18.1693 19.3435 17.8929C19.4146 17.9153 19.4858 17.9543 19.5569 17.9557C19.96 17.9627 20.3673 18.0018 20.7648 17.9502C21.3493 17.8748 21.8403 17.5816 22.2224 17.1279C22.514 16.7817 22.7316 16.3951 22.8975 15.9707C23.0342 15.6217 23.104 15.2644 23.1277 14.8958C23.1556 14.4407 23.0412 14.0066 22.9045 13.5767C22.7455 13.0783 22.4637 12.6414 22.2113 12.1905C22.0941 11.9811 21.956 11.7773 21.804 11.5916C21.5446 11.2761 21.2991 10.9341 20.9866 10.6815C20.5947 10.3646 20.1762 10.0714 19.6908 9.89137C19.3854 9.77829 19.0785 9.7057 18.7535 9.68337C18.2625 9.64987 17.8245 9.82715 17.388 10.01C17.3308 10.0338 17.2973 10.1189 17.2527 10.1747V10.1775Z" fill="#DCE072"/>
<path d="M17.4186 20.6276C17.4884 20.6806 17.5511 20.7504 17.6292 20.7867C18.0965 20.9975 18.5652 21.2083 19.038 21.4065C20.0479 21.8295 21.0605 22.2469 22.0732 22.6615C22.5432 22.8541 23.0258 22.9965 23.5377 23.0426C24.1821 23.0998 24.8126 23.0468 25.4431 22.9114C26.0456 22.7815 26.6077 22.5512 27.1099 22.2036C27.6818 21.8086 28.1965 21.3465 28.4489 20.6695C28.6135 20.227 28.7363 19.7705 28.7655 19.2945C28.7795 19.0586 28.8213 18.8254 28.8255 18.5895C28.8297 18.3536 28.8046 18.1177 28.7907 17.8818C28.7851 17.7854 28.7767 17.6905 28.7642 17.5942C28.707 17.1559 28.6651 16.7134 28.5842 16.2792C28.4587 15.6078 28.2592 14.9573 27.9454 14.3472C27.513 13.5097 27.0262 12.7056 26.4599 11.949C25.9619 11.2845 25.4821 10.6047 24.9758 9.94722C24.6731 9.55496 24.3328 9.19201 24.0134 8.81232C23.5698 8.28465 23.0258 7.87843 22.4553 7.50013C21.677 6.98363 20.8248 6.66675 19.8972 6.55787C19.5206 6.5132 19.1426 6.48388 18.7646 6.45457C18.5122 6.43502 18.2569 6.4071 18.0058 6.42385C17.4897 6.45736 16.9792 6.54391 16.4743 6.66675C15.7616 6.84124 15.0586 7.04086 14.3821 7.32284C13.7056 7.60482 13.0821 7.97056 12.5214 8.44658C12.0722 8.82628 11.6747 9.25204 11.3469 9.73783C11.16 10.0142 11.008 10.3157 10.8462 10.6089C10.8225 10.6508 10.828 10.708 10.8197 10.7597C10.5058 10.902 10.1543 10.8699 9.83074 10.9677C9.79587 10.9774 9.75402 10.9593 9.71497 10.9551C9.72333 10.9174 9.72333 10.8755 9.74007 10.842C10.3329 9.74481 11.0191 8.71739 12.0039 7.92589C12.9635 7.15393 14.0501 6.62487 15.2301 6.27868C15.8299 6.10279 16.4325 5.9269 17.0573 5.88362C17.685 5.83895 18.3169 5.81522 18.9446 5.83895C19.7675 5.86827 20.5653 6.0637 21.3478 6.31916C22.2029 6.59974 22.9714 7.03528 23.5935 7.683C24.3105 8.42843 24.9884 9.21156 25.6746 9.9877C26.3553 10.7555 26.9369 11.5972 27.4935 12.4571C28.1225 13.4287 28.6344 14.4533 28.9552 15.5701C29.0487 15.8953 29.1143 16.2248 29.1882 16.5542C29.2496 16.8306 29.2942 17.1056 29.2886 17.389C29.2858 17.5398 29.2523 17.7045 29.2998 17.8399C29.3681 18.0395 29.3821 18.2363 29.3974 18.4401C29.4448 19.0795 29.4755 19.7146 29.3179 20.3484C29.0417 21.4652 28.361 22.2608 27.3861 22.8234C26.5645 23.298 25.6746 23.5744 24.7275 23.6652C23.4945 23.7824 22.3256 23.5577 21.2084 23.03C19.9 22.413 18.5889 21.8044 17.2791 21.1902C17.0253 21.0715 17.0253 21.0701 17.2122 20.8593C17.2805 20.7811 17.3503 20.7044 17.42 20.6276H17.4186Z" fill="#A2B34E"/>
<path d="M7.12482 22.4451C6.76496 22.4451 6.4037 22.4717 6.04802 22.4381C5.59609 22.3963 5.14835 22.3083 4.69922 22.2371C4.1901 22.1562 3.70749 21.9831 3.23046 21.7946C3.20396 21.7835 3.17885 21.7709 3.15095 21.7597C3.05053 21.722 3.0031 21.5978 2.84688 21.6285C2.7618 21.6453 2.64882 21.5238 2.54699 21.4666C1.50645 20.8719 0.860644 19.9715 0.468697 18.8548C0.262262 18.2685 0.182756 17.6724 0.212048 17.0596C0.256682 16.0964 0.598416 15.2588 1.29165 14.5762C1.40044 14.4687 1.52458 14.3752 1.63896 14.2719C1.95977 13.9829 2.34335 13.7889 2.71995 13.5907C3.46758 13.197 4.218 12.8033 5.02561 12.5507C5.83042 12.298 6.6464 12.0802 7.46377 11.875C8.28672 11.667 9.11664 11.487 9.94657 11.3069C10.2827 11.2343 10.6314 11.2148 10.9634 11.1296C11.7138 10.9356 12.4838 10.8755 13.2439 10.7457C13.6903 10.6689 14.145 10.6424 14.5955 10.5922C14.6123 10.5908 14.6374 10.5963 14.6457 10.5866C14.788 10.4484 14.9582 10.5252 15.1186 10.5224C15.5803 10.514 16.0434 10.4819 16.5037 10.4958C16.784 10.5042 17.0686 10.5573 17.3378 10.6354C17.5986 10.7108 17.8678 10.775 18.1105 10.9062C18.3532 11.0389 18.6043 11.1645 18.8302 11.3208C19.6099 11.8625 19.9517 12.6247 19.8903 13.5613C19.8387 14.3333 19.5751 15.0452 19.2278 15.732C18.9488 16.2806 18.6433 16.8111 18.2556 17.2899C17.5568 18.1526 16.724 18.8631 15.7895 19.4564C15.3794 19.7175 14.9526 19.9534 14.5453 20.2186C14.2538 20.4098 13.9358 20.5466 13.6331 20.7142C13.3193 20.8873 12.9943 21.0408 12.6679 21.1902C12.3415 21.3395 12.0109 21.4791 11.6776 21.6104C10.8839 21.9216 10.0665 22.152 9.22683 22.2972C8.53081 22.4172 7.83061 22.4912 7.12204 22.4451H7.12482ZM11.3065 11.7368C10.9369 11.7368 10.5673 11.7201 10.199 11.741C9.33145 11.7913 8.51965 12.0467 7.76226 12.4683C7.54746 12.5884 7.34242 12.7252 7.13319 12.8536C7.14854 12.7182 7.08437 12.6889 6.9686 12.7294C6.92536 12.7447 6.88352 12.767 6.83888 12.7796C6.31861 12.929 5.79416 13.07 5.27668 13.2277C5.08698 13.2863 4.91123 13.3882 4.72432 13.4608C4.55973 13.525 4.37422 13.5474 4.22358 13.6339C3.71865 13.9229 3.21651 14.2202 2.72832 14.5385C2.35032 14.7842 2.01975 15.0927 1.73799 15.4487C1.43113 15.8353 1.24004 16.2723 1.1145 16.7497C0.997337 17.195 0.981994 17.6375 1.08242 18.08C1.14658 18.3648 1.24283 18.644 1.33628 18.9218C1.51342 19.4494 1.81471 19.9003 2.18992 20.3079C2.53026 20.6779 2.91523 20.9961 3.33926 21.2586C3.67123 21.4638 4.01854 21.6522 4.42304 21.6857C4.44954 21.6885 4.47604 21.7039 4.50115 21.715C4.58484 21.7513 4.66434 21.8002 4.75082 21.8211C5.44824 21.9928 6.15681 22.0738 6.87515 22.064C7.1583 22.0598 7.44145 22.0515 7.72321 22.0305C8.27416 21.9901 8.82791 21.9579 9.37608 21.8868C10.0163 21.803 10.6384 21.6271 11.2507 21.4163C12.096 21.126 12.8855 20.7169 13.6722 20.3024C14.5955 19.8152 15.5008 19.2987 16.3405 18.6705C16.8538 18.2866 17.381 17.9223 17.7827 17.4141C18.0422 17.0875 18.2946 16.7539 18.5331 16.4105C18.6726 16.2094 18.7772 15.9847 18.8916 15.7683C18.9502 15.6566 19.0018 15.5394 19.0464 15.4207C19.0646 15.3733 19.0436 15.3091 19.0632 15.263C19.1008 15.1723 19.1762 15.0941 19.1999 15.002C19.2933 14.6195 19.3784 14.2356 19.4537 13.8503C19.5137 13.546 19.5067 13.2389 19.3993 12.9457C19.2696 12.5912 19.0395 12.3092 18.7507 12.0649C18.2904 11.6768 17.7744 11.399 17.1885 11.2678C16.8468 11.191 16.4953 11.145 16.1466 11.1212C15.6919 11.0905 15.233 11.0752 14.7769 11.0891C14.4588 11.0989 14.1422 11.1701 13.8228 11.2106C13.7614 11.2175 13.6875 11.2259 13.6373 11.198C13.5118 11.1282 13.4071 11.1631 13.2969 11.2259C13.2481 11.2538 13.1923 11.2762 13.1365 11.2873C12.5953 11.3948 12.0514 11.4967 11.5116 11.6098C11.4376 11.6252 11.3749 11.695 11.3079 11.741L11.3065 11.7368Z" fill="#A2B34E"/>
<path d="M17.2526 10.1776C17.2973 10.1217 17.3293 10.0366 17.3879 10.0129C17.8245 9.83138 18.2625 9.6527 18.7535 9.68621C19.0771 9.70854 19.3853 9.78113 19.6908 9.8942C20.1762 10.0729 20.5946 10.3674 20.9866 10.6843C21.3004 10.937 21.5445 11.279 21.8039 11.5945C21.9574 11.7801 22.0941 11.9825 22.2112 12.1933C22.4637 12.6442 22.7455 13.0811 22.9045 13.5795C23.0412 14.0081 23.1555 14.4422 23.1276 14.8987C23.1053 15.2672 23.0342 15.6246 22.8975 15.9735C22.7315 16.3979 22.5139 16.7846 22.2224 17.1308C21.8402 17.5845 21.3492 17.8776 20.7648 17.953C20.3687 18.0032 19.96 17.9656 19.5569 17.9586C19.4857 17.9586 19.4146 17.9181 19.3435 17.8958C19.5206 17.389 19.7284 16.8907 19.8665 16.3742C20.0241 15.7851 20.1497 15.1834 20.2292 14.5804C20.285 14.1574 20.2403 13.7219 20.2431 13.2919C20.2459 12.8564 20.1176 12.4488 19.96 12.0495C19.6964 11.3823 19.1956 10.9453 18.5568 10.6648C18.2053 10.5098 17.8357 10.3995 17.473 10.2669C17.3977 10.2404 17.3251 10.2083 17.2512 10.179L17.2526 10.1776Z" fill="#A2B34E"/>
<path d="M11.3065 11.7354C11.3749 11.6908 11.4363 11.6196 11.5102 11.6042C12.0514 11.4911 12.594 11.3892 13.1352 11.2817C13.191 11.2706 13.2468 11.2496 13.2956 11.2203C13.4058 11.1575 13.5104 11.124 13.6359 11.1924C13.6847 11.2189 13.7601 11.212 13.8214 11.205C14.1394 11.1659 14.4561 11.0933 14.7755 11.0835C15.2316 11.0696 15.6891 11.0835 16.1452 11.1156C16.4953 11.1394 16.8468 11.1854 17.1871 11.2622C17.7716 11.3934 18.2877 11.6712 18.7494 12.0593C19.0395 12.3036 19.2696 12.5856 19.398 12.9401C19.5054 13.2333 19.5123 13.5404 19.4524 13.8447C19.3756 14.23 19.2906 14.6139 19.1985 14.9964C19.1762 15.0885 19.1009 15.1667 19.0618 15.2574C19.0423 15.3035 19.0632 15.3677 19.0451 15.4151C19.0004 15.5338 18.9488 15.6511 18.8902 15.7627C18.7759 15.9805 18.6699 16.2052 18.5318 16.4049C18.2946 16.7483 18.0422 17.0819 17.7813 17.4085C17.3796 17.9153 16.8524 18.2796 16.3391 18.6649C15.4994 19.2931 14.5942 19.8082 13.6708 20.2968C12.8841 20.7128 12.0946 21.1204 11.2494 21.4107C10.637 21.6215 10.0163 21.7974 9.37471 21.8812C8.82654 21.9523 8.27419 21.9831 7.72183 22.0249C7.44008 22.0459 7.15693 22.0556 6.87378 22.0584C6.15544 22.0682 5.44687 21.9886 4.74945 21.8155C4.66297 21.7946 4.58347 21.7457 4.49978 21.7095C4.47328 21.6983 4.44817 21.6815 4.42167 21.6801C4.01717 21.6466 3.66985 21.4582 3.33788 21.253C2.91386 20.9905 2.52888 20.6723 2.18854 20.3023C1.81334 19.8947 1.51205 19.4438 1.33491 18.9162C1.24146 18.6384 1.14661 18.3592 1.08105 18.0744C0.980622 17.6319 0.995966 17.1894 1.11313 16.7441C1.23867 16.2681 1.43115 15.8297 1.73662 15.4431C2.01838 15.0871 2.34895 14.7786 2.72695 14.5329C3.21514 14.216 3.71588 13.9173 4.22221 13.6283C4.37285 13.5418 4.55836 13.5194 4.72295 13.4552C4.90986 13.3826 5.08561 13.2807 5.2753 13.2221C5.79278 13.0644 6.31724 12.9234 6.83751 12.774C6.88215 12.7614 6.9226 12.7391 6.96723 12.7238C7.083 12.6833 7.14856 12.714 7.13182 12.848C6.38698 13.479 5.73002 14.1783 5.34783 15.0955C5.09676 15.6999 4.88475 16.3113 4.8987 16.9828C4.90428 17.269 5.01168 17.4909 5.23206 17.65C5.43013 17.7924 5.64772 17.9111 5.86532 18.0214C6.37443 18.281 6.87378 18.5616 7.408 18.7696C7.70928 18.8869 8.00777 19.0167 8.33138 19.0627C8.59779 19.1018 8.86281 19.1646 9.13061 19.1772C9.93822 19.2149 10.7472 19.2638 11.5479 19.099C12.7683 18.8478 13.8856 18.3759 14.8313 17.5509C15.0614 17.3499 15.2553 17.1028 15.4366 16.8558C15.551 16.7008 15.6152 16.5068 15.6933 16.3267C15.8174 16.0391 15.837 15.732 15.7798 15.4347C15.7058 15.0522 15.5622 14.6892 15.346 14.3556C15.0824 13.948 14.8048 13.5543 14.4603 13.2095C14.1394 12.8899 13.7545 12.6609 13.3723 12.4264C12.7655 12.0551 12.1253 11.7899 11.4028 11.7633C11.3707 11.7633 11.3386 11.741 11.3065 11.7298V11.7354Z" fill="#DCE072"/>
<path d="M11.3064 11.7354C11.3385 11.7466 11.3692 11.7675 11.4027 11.7689C12.1252 11.794 12.7654 12.0607 13.3722 12.432C13.7544 12.6665 14.1407 12.8954 14.4602 13.2151C14.8047 13.5585 15.0823 13.9536 15.3459 14.3612C15.5621 14.6948 15.7057 15.0564 15.7797 15.4403C15.8369 15.7376 15.8173 16.0461 15.6932 16.3323C15.6151 16.5123 15.5509 16.705 15.4365 16.8613C15.2552 17.1084 15.0613 17.3569 14.8312 17.5565C13.8855 18.3815 12.7682 18.8533 11.5478 19.1046C10.7471 19.2693 9.93812 19.2205 9.13051 19.1828C8.86271 19.1702 8.59769 19.1074 8.33128 19.0683C8.00768 19.0209 7.70918 18.8924 7.4079 18.7752C6.87368 18.5672 6.37573 18.2852 5.86522 18.0269C5.64762 17.9167 5.43003 17.798 5.23196 17.6556C5.01158 17.4979 4.90418 17.2745 4.8986 16.9884C4.88465 16.3183 5.09667 15.7055 5.34774 15.101C5.72992 14.1839 6.38688 13.4831 7.13172 12.8536C7.34095 12.7251 7.54599 12.5883 7.76079 12.4683C8.51818 12.0467 9.32998 11.7913 10.1976 11.741C10.5658 11.7201 10.9354 11.7368 11.3051 11.7368L11.3064 11.7354Z" fill="#5E3007"/>
</g>
<defs>
<clipPath id="clip0_657_21013">
<rect width="30" height="30" fill="white"/>
</clipPath>
</defs>
</svg>
