<svg width="30" height="30" fill="none" xmlns="http://www.w3.org/2000/svg" viewBox="0 0 30 30" ><g clip-path="url(#a)"><path d="M7.636 16.712a3.442 3.442 0 0 0-.195-.118c-.278-.166-.562-.326-.84-.491a3.729 3.729 0 0 1-.728-.598 2.81 2.81 0 0 1-.81-1.561 2.224 2.224 0 0 1 .035-.84c.054-.225.154-.438.231-.656.012-.042.03-.083.042-.125.03-.023.059-.053.088-.077.012 0 .03 0 .042-.011.219-.13.431-.272.65-.397a17.806 17.806 0 0 1 1.45-.763c.135-.065.277-.112.42-.171-.03.189-.078.378-.083.568 0 .26-.036.52.023.78.042.172.036.35.071.52.036.178.089.356.142.533.071.219.148.438.237.645.065.154.165.29.242.432.225.414.527.774.852 1.106.19.189.402.36.615.526.284.225.592.42.917.58.171.083.337.165.509.242.1.048.2.083.301.119.136.047.278.094.414.136.1.03.207.059.308.077.118.023.236.041.36.059.237.035.474.088.716.094.385.012.775 0 1.166-.017.13 0 .266-.024.396-.048.136-.023.272-.059.408-.088.166-.036.331-.071.491-.119.142-.041.278-.094.414-.148.19-.076.384-.148.568-.242.272-.142.538-.296.787-.461.23-.154.449-.332.65-.521a8.21 8.21 0 0 0 .621-.662c.13-.148.243-.314.343-.48.119-.2.23-.408.331-.615.095-.2.178-.402.249-.615.065-.195.106-.396.148-.597.065-.314.065-.627.077-.947.011-.46-.065-.904-.178-1.348-.023-.089-.059-.172-.088-.26.07.017.141.035.207.059.354.118.71.236 1.064.367.284.106.568.218.846.337.296.13.591.278.881.425.249.125.491.267.74.397.065.035.136.059.207.088v.036l.017.018.036.195c.03.29.024.574-.047.858-.024.094-.036.189-.06.278-.03.053-.065.1-.094.153a7.744 7.744 0 0 1-1.32 1.497 9.601 9.601 0 0 1-1.496 1.076c-.402.237-.822.432-1.248.621-.52.225-1.052.409-1.59.562a17.215 17.215 0 0 1-2.716.527c-.526.053-1.053.088-1.579.094-.538 0-1.076-.017-1.609-.065-.526-.047-1.053-.13-1.579-.207a16.33 16.33 0 0 1-1.047-.207c-.284-.065-.562-.136-.846-.207-.23-.059-.461-.124-.692-.19-.16-.046-.32-.094-.485-.135l.018-.018Z" fill="#BAE5FA"/><path d="M7.636 16.712c.16.047.32.095.485.136.23.065.461.124.692.19.284.07.562.147.846.206.349.077.692.154 1.047.207.526.083 1.047.166 1.58.207a15.616 15.616 0 0 0 3.188-.03c.466-.046.928-.123 1.39-.212.443-.083.886-.19 1.324-.314a12.372 12.372 0 0 0 1.591-.561c.426-.184.846-.385 1.248-.621a9.229 9.229 0 0 0 1.497-1.077c.502-.444.946-.94 1.319-1.496.035-.048.065-.1.094-.154.095-.16.195-.314.278-.48.107-.206.207-.425.444-.52.118-.012.242-.053.36-.035.184.03.368.088.545.142.343.142.65.343.94.58-.171-.054-.343-.113-.514-.166-.018-.012-.036-.018-.053-.03a1.363 1.363 0 0 0-.61-.13c-.065 0-.088.06-.047.107.077.076.172.142.26.218.172.107.332.22.509.308.32.171.645.331.97.497.018.012.041.018.065.023a.182.182 0 0 0-.03.042c-.195-.048-.396-.095-.591-.142-.071-.012-.142-.036-.213-.041a6.191 6.191 0 0 0-.467-.042c-.172 0-.225.1-.142.249.024.04.059.076.089.118.284.284.567.573.863.851.154.148.325.284.491.426a5.94 5.94 0 0 1 .053.054h-.07c-.143-.1-.285-.201-.433-.296-.017-.012-.04-.018-.059-.024 0 0-.023-.03-.035-.041-.012-.012-.018-.024-.03-.03-.272-.165-.544-.337-.822-.49a1.57 1.57 0 0 0-.36-.143c-.09-.03-.16.036-.125.119.03.082.083.153.124.236.195.207.385.42.586.627.083.089.177.16.284.255-.13-.06-.243-.107-.35-.16 0 0-.011-.012-.011-.024-.012-.012-.018-.024-.03-.024-.189-.094-.384-.195-.573-.283-.402-.184-.81-.35-1.254-.409a.876.876 0 0 0-.491.054c-.065.03-.1.082-.077.148.03.07.077.142.112.207.125.13.237.266.373.384.201.178.42.343.633.515.018.017.03.035.047.059 0 .006-.006.012-.012.018-.088-.042-.177-.09-.266-.13-.035-.018-.077-.024-.112-.036v-.018c-.19-.094-.385-.16-.598-.142-.106.012-.171.077-.153.178.011.106.053.207.082.313.107.195.196.402.314.586.26.39.538.769.81 1.153.113.16.23.314.35.473v.06c-.06-.054-.12-.101-.172-.154l-.012-.012-.024-.024s-.018-.035-.03-.047a10.574 10.574 0 0 0-.36-.367c-.503-.509-.994-1.023-1.55-1.473a2.07 2.07 0 0 0-.308-.195c-.059-.035-.112 0-.1.06.012.094.053.189.077.283.065.136.124.278.195.408.095.166.201.326.308.491.011.024.017.048.03.071h-.036c-.266-.236-.527-.485-.799-.715a1.42 1.42 0 0 0-.508-.296c-.148-.047-.243.03-.22.183 0 .036.007.077.018.113.03.094.066.183.101.272.065.165.118.337.201.497.219.443.444.88.669 1.318.07.143.147.279.224.42l.053.09v.011c.018.024.03.053.048.077v.012c.018.023.03.053.047.077 0 0 .006.006 0 .011.006.012.018.024.024.042.012.018.017.041.03.059.011.012.017.03.029.041 0 0 0 .006.006.012 0 .042.006.077.012.119-.13-.172-.255-.35-.385-.515-.408-.532-.822-1.059-1.325-1.508-.242-.22-.497-.42-.81-.533a.573.573 0 0 0-.42 0c-.024.012-.06.054-.053.071.035.089.083.178.124.267.083.2.166.402.242.603.148.384.284.763.426 1.147.036.1.065.207.095.308.012.035.024.077.035.112 0 .024.012.053.018.077.036.183.083.36.107.544.041.29.082.58-.042.864-.017-.036-.03-.077-.047-.113a5.89 5.89 0 0 0-.213-1.194c-.053-.195-.124-.39-.183-.592-.018-.03-.03-.065-.048-.094v-.012c0-.018 0-.042-.006-.06-.142-.313-.301-.615-.538-.869-.307-.331-.68-.514-1.141-.509-.243 0-.373.113-.379.361 0 .172.024.343.053.509.012.077.048.154.077.225.036.124.077.248.113.372.017.048.041.1.059.148 0 .012.006.018.012.03.011.018.017.035.03.059 0 .012.005.018.011.03.012.029.03.064.041.094.006.024.018.042.024.065.018.03.03.065.047.095v.018c0 .011.006.023.012.035.006.018.018.035.024.053 0 .006.012.012.012.018l-.018.053-.071-.106a8.174 8.174 0 0 0-.834-1.077c-.207-.224-.426-.431-.698-.567-.1-.048-.201-.101-.337-.066.059.107.112.207.166.314.1.219.207.432.295.656.13.32.255.64.373.965.041.118.077.236.112.354.006.018.018.042.024.06a.21.21 0 0 0 .012.059c.017.059.03.118.047.177 0 .012 0 .024.006.03v.059c.06.302.118.603.118.917 0 .183-.012.372-.023.556-.012.059-.03.118-.042.183-.018-.645-.088-1.272-.313-1.88-.018-.036-.03-.072-.048-.113a.21.21 0 0 0-.023-.065c-.024-.065-.042-.13-.071-.196a4.662 4.662 0 0 0-.74-1.141 4.434 4.434 0 0 0-.75-.657c.052.125.1.237.147.344v.035c0 .012.012.03.018.041l.012.065v.09c.053.378 0 .75-.065 1.117-.071.367-.166.728-.267 1.088-.059.231-.141.456-.218.686-.066.178-.125.361-.19.539h-.017v-.042c.059-.337.124-.668.177-1.005a7.622 7.622 0 0 0 .124-1.639c-.012-.248-.065-.496-.1-.739-.036-.1-.06-.201-.107-.29-.094-.177-.23-.307-.432-.349-.218-.041-.42.024-.615.119a.192.192 0 0 0-.07.094c-.03.136-.066.272-.072.414 0 .361.012.716.018 1.077l.018.165v.095c-.012.03-.018.065-.03.095-.088-.332-.171-.663-.26-.994-.03-.112-.083-.219-.124-.325a1.291 1.291 0 0 0-.337-.592c-.142-.142-.273-.13-.397.036a11.71 11.71 0 0 0-.591.828c-.237.366-.45.739-.674 1.112-.13.213-.249.431-.373.644-.136.237-.266.468-.402.704-.012 0-.024 0-.03-.006.012-.035.018-.065.03-.1.059-.16.124-.32.183-.48.16-.42.32-.84.467-1.265.113-.314.207-.639.302-.958.035-.113.047-.231.071-.35.006-.082.018-.165.018-.248 0-.059-.048-.094-.107-.047-.065.053-.13.1-.177.166-.284.355-.468.774-.669 1.177l-.124.26h-.018s-.005-.036 0-.053c.06-.39.13-.781.107-1.183-.018-.077-.03-.16-.053-.237-.024-.083-.107-.118-.184-.089-.041.018-.088.03-.13.054-.396.236-.745.538-1.094.845-.213.196-.432.39-.645.586v-.06a.922.922 0 0 1 .095-.117c.012-.012.018-.024.03-.036.266-.343.526-.692.715-1.088.042-.083.06-.172.089-.26 0-.054.012-.119-.018-.16-.278-.408-.615-.52-1.07-.408-.314.077-.574.248-.805.461-.124.112-.242.237-.367.355-.118.13-.242.26-.36.39-.03.03-.06.053-.09.083-.005 0-.01-.012-.023-.018a4.69 4.69 0 0 0 .136-.23c.172-.302.337-.616.402-.964.006-.03 0-.066 0-.095.018-.207-.082-.337-.283-.32a1.611 1.611 0 0 0-.462.119c-.467.207-.887.497-1.301.792-.219.166-.438.332-.662.497-.012-.006-.03-.018-.042-.023.278-.308.568-.61.793-.959.053-.088.1-.183.148-.272.005-.011.017-.03.023-.041v-.047c.042-.107.024-.19-.065-.243a.785.785 0 0 0-.19-.089c-.336-.1-.691-.118-1.04-.124-.527-.012-1.053 0-1.58 0-.384 0-.774-.006-1.153-.041a4.6 4.6 0 0 1-1.094-.22c-.018-.005-.036-.017-.06-.017-.076-.023-.153-.041-.23-.065v.006c-.012-.012-.03-.024-.041-.041-.172-.1-.35-.201-.52-.308-.072-.041-.137-.095-.202-.142 0-.006.006-.012.012-.024.095.042.19.083.284.119.236.077.473.16.716.219a6.087 6.087 0 0 0 1.792.13c.757-.048 1.514-.125 2.271-.16.42-.018.846 0 1.266.035.331.03.656.101.982.16.088.018.183.042.272.065l.047.006Z" fill="#3A3838"/><path d="M15.87 7.958c.16.119.337.089.508.036.272-.083.497-.243.722-.414.017-.018.047-.024.088-.048-.082.16-.16.29-.224.426-.06.119-.024.178.1.22.45.135.84 0 1.213-.243.296-.196.526-.456.769-.722-.006.035-.012.077-.024.112-.095.19-.195.385-.302.568-.106.184-.224.361-.343.55a.683.683 0 0 0 .361.036c.36-.048.657-.22.917-.462.06-.059.118-.118.183-.177.012-.012.018-.024.03-.03l.024-.023.082-.095s.018-.018.024-.03c.012-.011.024-.023.03-.035l.035-.047s.018-.03.03-.042c0 0 0-.012.006-.012.017-.023.035-.053.059-.076l.041.04c-.118.243-.23.486-.349.728-.07.154-.148.308-.225.462-.012.03-.03.059-.047.094a.335.335 0 0 0 .302-.047c.154-.1.32-.19.467-.302.509-.402.958-.869 1.39-1.348.024-.024.047-.041.07-.06.007.007.019.013.025.019-.101.165-.196.33-.296.502-.018.024-.03.053-.042.083-.023.018-.047.036-.059.06-.142.194-.272.396-.414.59-.177.231-.367.456-.603.634v.023c.06 0 .124.006.183.012.231-.047.426-.166.615-.296.16-.112.314-.236.474-.355.011-.011.03-.017.065-.011-.065.094-.136.189-.195.29-.107.177-.213.36-.314.544-.024.035-.018.088-.03.136.006.03 0 .065.024.088.071.077.213.095.314.042.136-.077.284-.142.408-.243.426-.337.78-.75 1.13-1.165.147-.171.283-.349.425-.526v.088c-.106.19-.213.385-.32.574-.01.024-.029.053-.04.077 0 0 0 .006-.006.012-.024.035-.042.07-.066.106l-.035.054c-.018.017-.035.03-.047.047a11.61 11.61 0 0 1-.905 1.236c-.071.083-.142.172-.225.266.047.012.089.024.124.03h.19c.017 0 .04-.012.059-.018.053-.018.106-.03.16-.047.159-.083.33-.16.478-.26.485-.332.894-.746 1.29-1.178.278-.307.556-.627.846-.958-.077.397-.29.716-.48 1.041a.123.123 0 0 0-.035.024c-.272.39-.591.733-.928 1.065-.072.07-.148.136-.22.207 0 .005.012.017.018.023.1-.035.201-.07.296-.106.29-.113.544-.29.78-.491a8.347 8.347 0 0 0 1.22-1.284c.112-.142.218-.29.325-.437.006-.006.017-.012.035-.012-.165.497-.42.952-.68 1.396l-.053.088-.054.054c-.236.349-.49.68-.792.976-.089.088-.172.183-.278.295l.266-.094c.325-.13.597-.343.852-.58.55-.509 1.017-1.082 1.46-1.686.125-.171.25-.349.38-.52.005 0 .017 0 .023.006-.024.065-.036.13-.065.189-.219.42-.444.834-.663 1.254l-.053.07v.013a.486.486 0 0 0-.047.07s-.036.024-.048.036a5.935 5.935 0 0 1-1.04 1.2c-.066.054-.125.113-.19.167 0 .005 0 .017.006.023l.255.018h.118c.047 0 .094-.006.142-.012h.083c.03-.006.065-.018.094-.024.243-.03.468-.106.692-.2.734-.314 1.372-.776 1.976-1.296.16-.136.313-.284.473-.42.018-.018.047-.03.065-.041.006 0 .012.011.018.017l-.089.166c-.012.012-.018.03-.03.041 0 0 0 .006-.005.012a.65.65 0 0 0-.048.089s-.006.006-.006.012c-.017.03-.041.065-.059.094 0 0 0 .006-.006.012a2.38 2.38 0 0 0-.1.16s-.03.018-.042.03c-.106.141-.213.283-.32.42-.366.479-.78.904-1.288 1.23a.477.477 0 0 0-.066.059c.107.018.196.035.284.053.036 0 .065 0 .1.006h.261a.211.211 0 0 0 .06-.012c.372-.047.691-.213 1.01-.402a6.192 6.192 0 0 0 1.077-.84c.053-.053.107-.106.166-.154l.018.054-.178.248-.018.018-.035.035s-.018.012-.03.018c-.035.03-.07.06-.1.095-.29.313-.598.609-.94.87-.42.318-.87.59-1.355.786a3.93 3.93 0 0 1-.923.272c-.26.035-.526.059-.793.077a1.342 1.342 0 0 1-.739-.16l-.958-.497c-.384-.195-.769-.396-1.16-.585-.33-.16-.674-.296-1.017-.438a9.652 9.652 0 0 0-.58-.213c-.206-.071-.42-.136-.632-.195a8.791 8.791 0 0 0-.533-.136c-.023-.012-.041-.024-.065-.03-.183-.041-.366-.089-.55-.124-.195-.041-.384-.071-.58-.107-.195-.035-.396-.07-.59-.106.011.03.029.041.052.053.138.087.184.21.136.367h-.017c0-.006 0-.018-.012-.024-.154-.088-.302-.195-.462-.266a3.022 3.022 0 0 0-.585-.213c-.166-.041-.349-.03-.52-.041a14.971 14.971 0 0 0-.515-.03h-.35v.018c.054.018.101.03.167.047H15.893a3.574 3.574 0 0 0-1.094.048c-.23.041-.45.106-.674.171-.125.036-.237.1-.355.148-.19.095-.385.183-.568.29-.148.083-.278.195-.42.29-.012-.03-.018-.06-.03-.083-.041-.071-.017-.118.048-.16.124-.077.242-.165.366-.248h.024c.213-.113.426-.225.639-.331.077-.042.16-.066.236-.101v-.024c-.147.012-.295.024-.437.042-.053 0-.107 0-.154.012a7 7 0 0 0-.349.041c-.19.024-.379.035-.574.065-.195.024-.39.06-.585.095-.231.035-.456.07-.686.118-.26.053-.515.112-.775.171-.006.012-.03.03-.024.042l.053.302c0 .011 0 .023.006.03l.018.058c0 .03 0 .06.012.089.118.432.272.846.52 1.218.071.107.077.19.012.29-.018-.018-.035-.035-.047-.059a3.816 3.816 0 0 1-.396-.793 3.51 3.51 0 0 1-.208-.816l-.053-.337c-.023 0-.035 0-.041.006-.16.041-.314.089-.473.118-.255.054-.397.225-.503.45-.018.024-.036.047-.06.07-.023.036-.053.072-.076.107 0-.035.012-.07.018-.106.053-.118.112-.243.171-.379-.041.012-.065.018-.095.03-.236.083-.479.165-.715.254-.184.071-.361.154-.544.225-.213.095-.426.177-.633.284-.39.201-.775.408-1.154.62-.224.131-.443.279-.662.415-.006 0-.018 0-.024.006-.574.402-1.141.798-1.71 1.2-.602.432-1.2.87-1.815 1.296-.337.236-.692.444-1.041.668-.13.083-.26.16-.39.237-.054.018-.113.041-.178.065.089-.095.16-.183.243-.26.45-.42.887-.852 1.348-1.254.52-.456 1.065-.887 1.61-1.313.289-.231.59-.456.904-.663a81.14 81.14 0 0 1 1.686-1.058c.26-.16.532-.302.81-.438.379-.19.763-.367 1.148-.538.283-.125.573-.237.857-.355.012 0 .024-.012.036-.018h.017c.018-.012.042-.018.06-.03h.011c.042-.017.09-.035.13-.053h.012c.065-.024.136-.041.201-.065h.006c.024 0 .054 0 .077-.012.473-.142.947-.29 1.426-.42.402-.106.81-.183 1.218-.278.06-.012.119-.053.172-.083a.377.377 0 0 1 .053-.047.799.799 0 0 0 .213-.384c.041-.16.083-.32.118-.48.03.107.047.225.089.338.041.112.095.224.166.32.094.123.218.123.319 0 .077-.096.148-.208.207-.314.065-.107.118-.225.171-.338 0 0 .012 0 .024-.011-.012.088-.03.165-.03.248 0 .124 0 .254.006.385 0 .03.024.059.042.082.089.1.23.095.349-.017h.012c.011-.012.023-.018.035-.03.201-.148.35-.337.497-.532.077-.107.148-.213.225-.32.012-.017.023-.03.053-.059-.035.154-.07.284-.095.42-.023.13-.035.266-.047.396 0 .042 0 .083.018.119.024.059.065.088.118.035.077-.07.166-.142.23-.225.22-.29.433-.58.646-.875 0 .024.011.047.017.071 0 .018-.012.03-.012.047-.011.036-.023.077-.041.113v.03l-.018.106v.195l.036.089.035.053-.012-.024Z" fill="#393737"/><path d="m23.796 11.282.958.497c.23.124.479.178.739.16.266-.018.526-.041.793-.077.319-.047.627-.154.922-.272a5.952 5.952 0 0 0 1.355-.787c.337-.26.65-.556.94-.87a.756.756 0 0 1 .1-.094c.013-.006.019-.012.03-.018l.036-.035.018-.018c.041-.03.082-.065.13-.094 0 0 .006 0 .012.005-.024.036-.054.066-.077.101a7.22 7.22 0 0 1-1.095 1.153c-.36.308-.75.58-1.17.799a4.492 4.492 0 0 1-.977.39c-.295.077-.597.113-.899.172-.017 0-.03.012-.047.018-.183-.048-.36-.113-.544-.142-.119-.018-.237.023-.361.035-.018-.018-.035-.047-.06-.06-.106-.052-.212-.105-.319-.153-.094-.041-.189-.083-.277-.124 0 0-.012-.012-.018-.012v-.035c-.03-.09-.06-.172-.089-.26l-.106-.285.006.006ZM.798 16.653v-.006c.024.065.225.136.278.1v-.017c.355.118.722.19 1.095.219.384.03.769.035 1.153.041.527.006 1.053 0 1.58 0 .348.006.697.03 1.04.124.065.018.13.054.19.089.088.06.106.142.065.243-.148-.036-.29-.083-.438-.107a4.064 4.064 0 0 0-.526-.053c-.84-.012-1.686-.006-2.526-.024-.296-.006-.592-.065-.881-.094a3.4 3.4 0 0 1-.834-.22 3.185 3.185 0 0 1-.876-.514s0-.012-.012-.024c.19.071.367.142.55.213.036.054.083.06.137.024l.005.006ZM.639 15.328c.13-.077.26-.154.39-.236.349-.22.704-.432 1.041-.669.61-.426 1.207-.864 1.816-1.295.568-.402 1.141-.799 1.71-1.2.005 0 .017 0 .023-.007-.03.053-.053.107-.083.16-.023.053-.053.106-.077.16-.03.023-.059.053-.088.076-.13.083-.267.166-.397.255-.378.26-.75.526-1.124.792-.307.225-.609.456-.916.675a25.624 25.624 0 0 1-1.857 1.26c-.285.177-.58.343-.882.496a.33.33 0 0 1 .036-.047c.112-.118.23-.23.343-.349.023-.024.035-.053.047-.077l.018.006Z" fill="#B7B6B6"/><path d="M11.705 21.077c.125-.213.249-.432.373-.645.225-.372.438-.75.674-1.111.184-.284.385-.556.592-.829.124-.165.254-.171.396-.035.166.166.272.367.337.591-.035-.047-.07-.1-.112-.147-.065-.071-.13-.148-.207-.207a.191.191 0 0 0-.254.023c-.125.142-.249.284-.355.444-.19.278-.373.556-.544.84-.29.479-.574.97-.858 1.455-.136.23-.26.467-.39.698v-.089c.04-.112.082-.219.124-.331.076-.201.16-.397.236-.598.006-.017-.006-.041-.012-.059ZM5.938 18.31c.414-.297.834-.586 1.302-.793.142-.066.301-.101.461-.119.201-.017.308.107.284.32-.207-.071-.402-.018-.591.065-.604.254-1.124.639-1.65 1.029-.155.112-.302.23-.456.349-.006-.006-.018-.012-.024-.024.1-.106.195-.219.29-.325.124-.136.242-.278.36-.42.019-.018.013-.053.019-.077l.005-.006ZM7.914 18.54c.124-.118.242-.243.367-.355.236-.213.497-.384.804-.461.456-.113.799 0 1.07.408.024.041.013.106.018.16a3.357 3.357 0 0 0-.165-.137.743.743 0 0 0-.45-.183 1.474 1.474 0 0 0-.857.254c-.39.255-.704.586-1 .935-.047.053-.1.106-.148.16l-.018-.036c.107-.19.213-.372.314-.568.03-.059.047-.124.065-.183v.006ZM23.506 14.95c-.042-.071-.09-.136-.113-.207-.024-.066.012-.119.077-.148.16-.071.325-.071.49-.054.444.06.853.225 1.255.409.195.088.384.189.574.283.011 0 .017.018.03.024-.013 0-.019.012-.048.024h.059c.053.059.095.118.154.177.088.089.183.166.26.266-.077-.047-.154-.094-.236-.136-.243-.124-.486-.254-.74-.366a7.78 7.78 0 0 0-.727-.29c-.267-.089-.545-.16-.829-.107-.082.018-.171.018-.212.113l.006.011Z" fill="#B8B7B7"/><path d="M20.069 17.528c-.041-.088-.089-.171-.124-.266-.006-.018.03-.059.053-.07a.604.604 0 0 1 .42 0c.313.112.562.313.81.532.503.45.917.976 1.325 1.508.13.171.255.343.385.514.035.054.07.113.112.16.024.036.06.065.089.095.077.047.077.07.018.106v-.006s.005 0 .011.006c.036.071.065.148.1.22 0 0-.011.005-.017.01l-.177-.247c-.278-.373-.556-.746-.84-1.118a7.807 7.807 0 0 0-.953-1.024 2.788 2.788 0 0 0-.662-.45.682.682 0 0 0-.432-.058c-.035.006-.065.047-.094.077l-.024.011Z" fill="#B6B6B6"/><path d="M9.901 19.267c.35-.301.698-.603 1.095-.845a.5.5 0 0 1 .13-.054c.077-.03.154.006.183.089.024.077.036.16.053.237-.065-.066-.142-.048-.207-.006-.213.142-.437.272-.638.431-.355.296-.693.61-1.042.917a1.03 1.03 0 0 0-.088.077h-.053c.13-.177.266-.349.396-.526.059-.083.124-.172.177-.255.012-.017 0-.041 0-.065h-.006ZM14.468 20.007c-.006-.361-.024-.716-.018-1.077 0-.136.041-.278.07-.414.007-.035.036-.083.072-.094.195-.095.396-.16.615-.119.207.036.343.172.432.35.047.088.07.194.106.289-.047-.065-.094-.13-.148-.183a.561.561 0 0 0-.55-.16c-.083.018-.16.041-.242.065-.154.035-.225.166-.23.32-.013.189-.042.384-.03.573.017.39.053.775.082 1.165 0 .06 0 .119-.006.184-.005-.03-.017-.06-.03-.1-.011.023-.011.035-.029.064-.023-.112-.041-.213-.059-.307v-.391l-.018-.165h-.017Z" fill="#B8B7B7"/><path d="M18.525 18.841c-.023-.076-.065-.147-.077-.224-.023-.172-.059-.343-.053-.509.006-.242.142-.355.379-.36.461-.013.834.177 1.141.508.237.254.397.556.538.87.006.017 0 .04.006.058-.047-.076-.1-.147-.147-.23-.172-.29-.379-.544-.669-.716a1.436 1.436 0 0 0-.822-.207c-.19.006-.337.178-.337.39 0 .119.024.243.041.361v.06ZM22.494 16.434c-.03-.095-.065-.19-.077-.284-.006-.053.047-.094.1-.059.107.06.214.118.308.195.556.45 1.053.964 1.55 1.473.118.124.242.248.36.367.013.012.019.03.03.047l.024.024.012.012.148.218c.059.095.124.184.183.279-.041-.042-.083-.077-.124-.119-.402-.408-.805-.828-1.213-1.23-.325-.32-.65-.645-1.029-.911l-.088-.053c-.095-.06-.107-.053-.178.035l-.006.006Z" fill="#B6B6B6"/><path d="M15.745 21.834c.071-.23.154-.455.219-.686.095-.36.195-.721.266-1.088.071-.367.119-.745.065-1.118v-.089c.036.107.089.213.095.326a5.87 5.87 0 0 1 0 .721c-.012.19-.053.379-.095.568a20.4 20.4 0 0 1-.13.586c-.041.16-.089.319-.136.473-.059.19-.118.384-.183.574-.06.177-.124.355-.19.532h-.023l.035-.207.089-.52c0-.018-.012-.042-.018-.06l.006-.012Z" fill="#B8B7B7"/><path d="M11.392 19.675c.201-.408.379-.822.668-1.177.048-.065.119-.112.178-.165.059-.047.1-.012.106.047 0 .083-.012.166-.018.248-.171.113-.283.284-.378.456-.183.337-.349.68-.527 1.017-.029.06-.064.113-.094.172.024-.16.053-.325.077-.485a.727.727 0 0 0-.012-.113Z" fill="#B7B6B6"/><path d="M25.316 14.56c-.042-.078-.095-.155-.125-.238-.03-.082.036-.141.125-.118.124.036.248.077.36.142.278.16.55.325.823.491.011.006.017.024.03.03.01.011.023.03.035.041 0 0 .035.06.065.083.218.19.431.379.65.568 0 .012-.012.023-.017.035-.213-.148-.426-.301-.645-.443-.314-.201-.639-.39-.964-.574-.077-.041-.166-.065-.249-.095-.065-.023-.094 0-.094.065l.006.012Z" fill="#B8B7B7"/><path d="M17.13 18.404c-.054-.1-.113-.201-.166-.314.136-.035.242.018.337.065.272.136.49.343.698.568.313.337.58.704.834 1.077l.07.106c.036.047.072.089.107.136l.018.047.041.042c.018.03.03.06.048.089-.024-.018-.048-.042-.083-.065 0 .023-.006.047-.006.07-.065-.094-.136-.189-.201-.277-.19-.255-.385-.51-.58-.758a3 3 0 0 0-.674-.638c-.113-.077-.249-.125-.379-.178-.011-.006-.041.024-.065.036v-.006Z" fill="#B6B6B6"/><path d="M21.583 16.96c-.035-.088-.065-.183-.1-.271-.012-.036-.012-.077-.018-.113-.024-.154.07-.23.219-.183.195.059.36.165.508.296.272.236.533.479.799.721v.053c.059.095.124.19.19.284.005.012.005.024.017.065a16.77 16.77 0 0 0-.337-.33c-.255-.243-.509-.48-.805-.663a1.094 1.094 0 0 0-.266-.125c-.19-.059-.266.018-.23.207a.21.21 0 0 0 .011.06h.012Z" fill="#B7B6B6"/><path d="M25.724 13.909c-.03-.042-.06-.077-.09-.119-.082-.142-.029-.248.143-.248.153 0 .313.024.467.041.071.006.142.03.213.042.018.017.03.047.047.059.237.124.473.242.704.378-.041-.006-.089-.006-.13-.017-.16-.042-.32-.095-.485-.13-.243-.054-.485-.101-.733-.077-.054 0-.125-.012-.142.07h.006ZM23.494 16.097c-.03-.107-.071-.207-.083-.314-.012-.1.053-.171.154-.177.212-.024.408.042.597.142-.006 0-.018.012-.024.012h.024c.018.024.03.053.047.07.195.155.39.308.574.474-.083-.047-.16-.1-.248-.136-.22-.095-.432-.195-.657-.272-.083-.03-.195 0-.29.012-.065.011-.1.065-.088.136 0 .012-.012.03-.018.047l.012.006Z" fill="#B8B7B7"/><path d="M16.26 18.711c-.047-.112-.095-.224-.148-.343.278.196.527.414.751.657a4.5 4.5 0 0 1 .74 1.141c.03.06.047.13.07.196-.047-.071-.094-.142-.135-.22a4.167 4.167 0 0 0-1.053-1.283c-.071-.059-.148-.1-.225-.148Z" fill="#B4B3B3"/><path d="M25.546 12.897c-.089-.07-.183-.136-.26-.219-.042-.041-.024-.1.047-.106.213-.012.414.047.61.13.017.012.035.018.053.03.041.035.082.07.13.1.165.112.331.219.497.331.006 0 .011.018.03.042-.125-.048-.237-.095-.35-.13-.219-.071-.443-.136-.662-.202-.024-.005-.053.012-.083.024h-.012Z" fill="#B8B7B7"/><path d="M27.167 10.88c-.089-.018-.172-.03-.284-.053.035-.03.047-.047.065-.06.509-.325.923-.75 1.29-1.23.106-.141.212-.283.319-.42.012-.011.03-.017.041-.03-.041.078-.07.167-.124.238-.302.431-.615.857-1 1.23-.088.089-.183.171-.272.254-.018.018-.03.053-.041.077l.006-.006Z" fill="#B4B3B3"/><path d="M12.427 8.556c-.06.03-.112.07-.171.082-.403.095-.817.172-1.219.278-.48.125-.952.278-1.425.42-.024.006-.054.006-.077.012.07-.035.136-.077.213-.1.242-.083.49-.166.739-.243.177-.053.355-.095.538-.142.249-.065.497-.13.745-.19.142-.035.284-.052.426-.076l.237-.035-.006-.006Z" fill="#B5D8E9"/><path d="m25.292 10.478-.255-.018c0-.006 0-.018-.005-.024.065-.053.124-.112.189-.165a6.102 6.102 0 0 0 1.04-1.2c.013-.019.03-.024.048-.036-.024.053-.035.112-.065.154-.296.443-.61.875-1.006 1.248.018.017.042.03.06.047l-.006-.006Z" fill="#B4B3B3"/><path d="M18.093 22.237c.006-.184.018-.373.024-.556 0-.308-.053-.61-.118-.917v-.06c.012.024.035.042.041.066.13.514.213 1.035.178 1.567-.012.136-.042.278-.065.414h-.036v-.414c0-.035-.012-.065-.018-.1h-.006Z" fill="#B6B6B6"/><path d="M23.653 9.715c-.1.035-.2.07-.295.106 0-.006-.012-.017-.018-.023.07-.065.148-.136.219-.207.337-.332.662-.675.928-1.065.006-.012.024-.018.036-.024-.018.048-.036.1-.065.148-.23.343-.473.68-.77.97-.023.024-.029.065-.04.1l.005-.005Z" fill="#B4B3B3"/><path d="M20.956 21.19c.124-.284.083-.574.042-.864-.024-.183-.071-.36-.107-.544.03.089.071.183.095.272.035.136.07.278.088.414.042.302.119.603.018.905-.012.041-.035.083-.053.118h-.024c-.012-.082-.017-.171-.03-.254 0-.018-.023-.035-.035-.047h.006Z" fill="#B8B7B7"/><path d="m24.428 10.206-.266.094c.1-.112.19-.207.278-.295.296-.296.556-.627.793-.976.011-.018.035-.036.053-.053-.024.047-.042.1-.065.147-.23.367-.48.722-.775 1.047-.006.012-.006.024-.012.042l-.006-.006Z" fill="#B4B3B3"/><path d="M21.991 9.91c-.035-.012-.076-.018-.124-.03.077-.094.148-.177.225-.266.331-.39.633-.804.905-1.236a.18.18 0 0 1 .047-.047c-.035.07-.065.142-.106.207-.249.36-.497.716-.745 1.07l-.036.071c-.053.077-.112.154-.166.231Z" fill="#9BADB5"/><path d="M20.607 8.922a1.91 1.91 0 0 1-.183-.011v-.024a3.39 3.39 0 0 0 .603-.633c.148-.19.278-.39.414-.592.018-.023.042-.04.06-.059-.066.113-.125.237-.202.343-.219.308-.443.616-.668.917-.012.018-.012.036-.018.053l-.006.006Z" fill="#B4B3B3"/><path d="M21.991 9.91c.053-.077.113-.154.166-.23.083.053.16.112.242.165-.053.018-.106.03-.16.047-.017 0-.04.012-.059.018h-.189Z" fill="#BAE5FA"/><path d="M12.693 8.118a.754.754 0 0 1-.213.384c.047-.177.095-.355.142-.514.018.035.047.083.071.13Z" fill="#B8B7B7"/><path d="M21.554 9.348c-.1.053-.243.036-.314-.041-.017-.018-.017-.06-.023-.089.082.036.165.071.248.1.03.012.06.018.089.024v.006ZM14.172 8.33c-.118.107-.26.113-.349.019.118 0 .23-.012.349-.018Z" fill="#B5D8E9"/><path d="M23.133 20.013c-.03-.03-.065-.06-.089-.095-.041-.053-.07-.107-.112-.16 0-.041-.006-.077-.012-.118.07.124.142.248.207.373h.006Z" fill="#6D6C6C"/><path d="M19.022 20.22s0-.042.006-.071l.083.065c.017.023.041.041.041.065.012.059.006.118.012.213-.047-.083-.077-.148-.112-.207l-.036-.071.006.006Z" fill="#D5D4D4"/><path d="M27.273 15.346c.09.07.178.136.267.207-.006.012-.018.023-.024.035a9.129 9.129 0 0 1-.284-.218l.041-.024Z" fill="#8CA7B4"/><path d="M19.886 8.715a.335.335 0 0 1-.302.048c.018-.036.035-.065.047-.095.077.06.166.06.255.047Z" fill="#B5D8E9"/><path d="M11.303 21.675c-.012.035-.018.065-.03.1.013 0 .024 0 .03.006l-.13.26s-.018-.006-.024-.011c.054-.119.107-.237.154-.355Z" fill="#6D6C6C"/><path d="m27.267 15.606.018-.035c.083.07.166.142.254.207v.005l-.266-.177h-.006Z" fill="#D5D4D4"/><path d="m20.2 7.485-.042-.041c.041-.06.077-.125.118-.184l.03.03c-.036.065-.071.13-.107.19v.005Z" fill="#6D6C6C"/><path d="M9.25 19.8v.059c-.064.065-.13.124-.194.19.065-.084.124-.166.189-.25h.006Z" fill="#8CA7B4"/><path d="m20.306 7.296-.03-.03c.053-.089.107-.177.16-.26.006 0 .018.006.023.012-.053.094-.1.189-.153.284v-.006Z" fill="#B8B7B7"/><path d="m24.949 18.433-.148-.218.171.153v.042c-.012.006-.017.017-.03.023h.007Z" fill="#D5D4D4"/><path d="m5.235 18.776.041.024-.183.148c-.006-.006-.012-.018-.024-.024.053-.047.107-.1.16-.148h.006ZM23.517 7.503v-.089c.048-.053.095-.106.136-.16-.047.083-.094.166-.141.243l.005.006ZM14.491 20.267v.296c-.012-.065-.018-.136-.03-.201.012-.03.018-.065.03-.095ZM27.273 15.346l-.041.024c-.06-.042-.113-.09-.172-.13h.071l.142.106ZM29.864 9.514l-.018-.053c.042-.048.083-.09.124-.136.012.005.018.017.03.023-.047.053-.089.107-.136.16v.006ZM24.978 18.41v-.101c.048.06.1.113.148.172-.012.011-.024.017-.03.03-.035-.036-.076-.066-.112-.101h-.006Z" fill="#6D6C6C"/><path d="M5.27 19.131s.018.012.024.024c-.06.053-.113.106-.172.16a52.711 52.711 0 0 0-.023-.024l.171-.154v-.006ZM11.357 22.06v.088c-.024.053-.048.106-.077.16-.012 0-.018-.006-.03-.012.03-.077.036-.166.1-.237h.007Z" fill="#D5D4D4"/><path d="m15.87 7.331-.018-.07c.03-.048.053-.09.083-.137.011 0 .017.012.03.012-.03.065-.066.13-.095.195Z" fill="#6D6C6C"/><path d="M25.09 18.51s.024-.018.03-.03c.042.06.083.113.124.172l-.011.012-.142-.154Z" fill="#8CA7B4"/><path d="M25.286 18.889a3.792 3.792 0 0 1-.154-.16c.006-.006.012-.012.024-.018.047.06.094.119.136.178h-.006ZM9.328 20.113h.053c-.053.053-.1.107-.154.166l-.024-.024.125-.142Z" fill="#D5D4D4"/><path d="M19.01 20.042c-.035-.047-.07-.089-.106-.136l.018-.053c.03.065.059.124.088.19Z" fill="#6D6C6C"/><path d="M25.15 16.31c.077.03.148.065.19.136 0 .006-.013.012-.018.024-.06-.054-.119-.1-.178-.154l.006-.006Z" fill="#D5D4D4"/><path d="M28.604 9.082c.036-.053.071-.106.1-.16-.035.054-.07.107-.1.16Z" fill="#B4B3B3"/><path d="M9.529 9.348c-.065.024-.136.042-.201.065.065-.023.136-.041.2-.065Z" fill="#B5D8E9"/><path d="M17.993 20.675c-.018-.06-.03-.118-.047-.177.017.059.03.118.047.177Z" fill="#B6B6B6"/><path d="M27.652 15.89c-.042-.036-.083-.065-.124-.1v-.006c.041.035.077.07.118.106h.006Z" fill="#E6F3F9"/><path d="M20.909 21.071c.018.036.03.077.047.113-.041.035-.047.035-.053-.006v-.107h.006Z" fill="#B8B7B7"/><path d="M25.552 10.466a1.15 1.15 0 0 0-.142.012c.047 0 .095-.006.142-.012Z" fill="#B4B3B3"/><path d="M18.703 19.362c-.018-.047-.042-.1-.06-.148.018.047.042.1.06.148Z" fill="#6D6C6C"/><path d="M.798 16.653c-.053.03-.1.024-.136-.024.03 0 .065-.006.095-.012.012.012.03.024.041.042v-.006Z" fill="#D5D4D4"/><path d="M19.968 7.692c-.029.03-.053.06-.082.095.03-.03.053-.06.082-.095Z" fill="#6D6C6C"/><path d="M23.08 8.278c.023-.036.041-.071.065-.107-.024.036-.042.071-.065.107Z" fill="#9BADB5"/><path d="m28.71 8.91.06-.094-.06.094Z" fill="#B4B3B3"/><path d="m15.799 7.627.017-.106-.017.106Z" fill="#6D6C6C"/><path d="m9.316 9.42-.13.052c.041-.017.089-.035.13-.053Z" fill="#B5D8E9"/><path d="M25.061 16.257Z" fill="#D5D4D4"/><path d="m27.74 15.943-.088-.053.089.053Z" fill="#E6F3F9"/><path d="m7.524 19.362-.071.071c.017-.024.035-.047.047-.071h.024Z" fill="#D5D4D4"/><path d="M17.697 20.427c.018.035.03.07.048.112-.018-.036-.03-.071-.048-.112Z" fill="#B4B3B3"/><path d="M20.88 19.7c-.013-.036-.024-.078-.036-.113.012.035.023.077.035.112Z" fill="#B8B7B7"/><path d="M15.822 7.49c.012-.035.024-.076.042-.111-.012.035-.024.076-.042.112Z" fill="#6D6C6C"/><path d="m7.394 19.522.053-.089c-.018.03-.036.06-.053.083v.006Z" fill="#D5D4D4"/><path d="M20.158 7.444s-.036.053-.06.077c.018-.024.036-.054.06-.077Z" fill="#6D6C6C"/><path d="m28.782 8.804.047-.089c-.018.03-.036.06-.047.089Z" fill="#B4B3B3"/><path d="M18.791 19.575c-.011-.03-.03-.065-.041-.095.012.03.03.065.041.095Z" fill="#6D6C6C"/><path d="m25.286 8.976.053-.09-.053.09ZM26.303 9.029s.036-.048.047-.071a.503.503 0 0 0-.047.07ZM25.73 10.437c-.03.005-.066.017-.095.023.03-.006.065-.018.094-.024Z" fill="#B4B3B3"/><path d="M20.471 19.196c.018.03.03.065.047.095-.017-.03-.03-.065-.047-.095Z" fill="#B6B6B6"/><path d="m22.725 19.291-.053-.089.053.089ZM18.862 19.729c-.017-.03-.03-.065-.047-.095.018.03.03.065.047.095Z" fill="#6D6C6C"/><path d="m26.356 8.94.054-.07-.054.07Z" fill="#B4B3B3"/><path d="m15.828 7.91-.035-.088.035.089Z" fill="#6D6C6C"/><path d="M23.275 20.362s.024.03.035.047c-.006 0-.011.006-.017.012-.012-.018-.024-.036-.036-.048.006 0 .012-.006.018-.011Z" fill="#B6B6B6"/><path d="m23.15 8.153.042-.077c-.012.024-.03.054-.041.077Z" fill="#9BADB5"/><path d="M22.778 19.38s-.03-.053-.047-.077c.017.023.03.053.047.077Z" fill="#6D6C6C"/><path d="m25.061 16.257-.065-.03c0-.006.012-.018.018-.024.018.018.035.036.053.048l-.006.006Z" fill="#D5D4D4"/><path d="M22.825 19.468s-.03-.053-.047-.076c.018.023.03.053.047.076Z" fill="#6D6C6C"/><path d="m19.022 20.22.036.07-.036-.07Z" fill="#B6B6B6"/><path d="M7.394 19.522s-.018.035-.03.053c-.006 0-.012-.012-.024-.018.018-.012.03-.023.048-.03l.006-.005ZM25.292 18.883l.053.03s-.012.011-.018.023c-.012-.018-.023-.035-.035-.047v-.006Z" fill="#D5D4D4"/><path d="M27.746 15.943s.036.018.054.03c-.006.006-.012.012-.018.023l-.036-.047v-.006Z" fill="#E6F3F9"/><path d="M9.174 9.472s-.042.018-.06.03c.018-.012.042-.018.06-.03Z" fill="#B5D8E9"/><path d="m7.536 19.291.017.035a.106.106 0 0 0-.03.042v-.053l.018-.018-.005-.006Z" fill="#D5D4D4"/><path d="M17.934 20.439s-.018-.042-.024-.06c.006.018.018.042.024.06Z" fill="#B6B6B6"/><path d="M27.593 10.868s-.042.006-.06.012a.21.21 0 0 0 .06-.012Z" fill="#B4B3B3"/><path d="m23.044 8.33.036-.052-.036.053Z" fill="#9BADB5"/><path d="m18.738 19.45-.03-.058c.012.017.018.035.03.059ZM15.87 7.958s-.024-.035-.036-.047c.012.018.024.035.036.047ZM20.063 7.58s-.024.03-.035.047c.011-.018.023-.03.035-.047ZM22.914 19.628s-.018-.03-.03-.041c.012.012.018.03.03.041Z" fill="#6D6C6C"/><path d="M14.22 8.295s-.024.018-.036.03c.012-.012.024-.018.035-.03Z" fill="#B5D8E9"/><path d="M19.868 7.81s-.018.024-.03.03c.012-.012.018-.024.03-.03ZM27.114 15.222l-.036-.036.036.036Z" fill="#6D6C6C"/><path d="M25.244 18.652s.012.024.024.03c-.006 0-.012.006-.024.012 0-.012-.005-.018-.011-.03l.011-.012Z" fill="#8CA7B4"/><path d="M20.028 7.627s-.024.024-.03.035a.155.155 0 0 0 .03-.035Z" fill="#6D6C6C"/><path d="M16.284 18.788s-.012-.03-.018-.041c0 .012.012.03.018.041Z" fill="#B4B3B3"/><path d="m6.199 17.499-.024.041.024-.041Z" fill="#B7B6B6"/><path d="m20.093 7.538-.03.042c.012-.012.018-.024.03-.042Z" fill="#6D6C6C"/><path d="M9.375 19.64s-.018.024-.03.035c.012-.011.018-.023.03-.035Z" fill="#8CA7B4"/><path d="M22.86 19.522s-.017-.024-.023-.042c.006.012.018.024.024.042Z" fill="#6D6C6C"/><path d="M0 16.133s.018 0 .03.005v.012H0V16.132Z" fill="#3A3838"/><path d="M18.88 19.782s-.006-.024-.012-.035c0 .011.006.023.012.035Z" fill="#6D6C6C"/><path d="M28.835 8.698s.017-.03.03-.042c-.012.012-.018.03-.03.042Z" fill="#B4B3B3"/><path d="M15.627 22.716v-.042h.006v.042h-.006Z" fill="#B8B7B7"/><path d="M11.327 20.273v.035h-.012s.012-.023.012-.035Z" fill="#B7B6B6"/><path d="M7.518 19.309v.053h-.024c.006-.018.012-.035.024-.053Z" fill="#B8B7B7"/><path d="M19.07 20.13s-.03-.029-.042-.046c.012.017.03.03.042.047Z" fill="#6D6C6C"/><path d="m9.097 9.502-.035.018c.011 0 .023-.012.035-.018Z" fill="#B5D8E9"/><path d="M23.316 20.462v.012l-.006-.006.006-.006Z" fill="#B6B6B6"/><path d="m19.028 20.09-.018-.048.018.047ZM11.144 22.077l-.006.006h.006v-.006Z" fill="#6D6C6C"/><path d="M25.15 18.711s-.012.012-.024.018v-.018h.024Z" fill="#B6B6B6"/><path d="m9.062 20.042-.006.006h.006v-.006Z" fill="#8CA7B4"/><path d="M18.916 19.853s-.012-.012-.012-.018c0 .006.012.012.012.018Z" fill="#6D6C6C"/><path d="M9.257 10.466c0 .036-.012.071-.018.107-.041.195-.1.39-.118.585a3.293 3.293 0 0 0 0 .639c.041.331.1.656.183.976.053.213.148.42.23.627.13.313.302.61.504.887a5.198 5.198 0 0 0 1.626 1.461c.13.077.272.13.402.195.018.012.03.024.048.03.224.088.45.171.674.26l.024-.024.171.054c.107.023.213.047.32.065.005.012.011.035.023.035.065.012.13.03.195.03.296.017.592.03.888.035.1 0 .2-.012.301-.03.172-.029.35-.053.52-.094.149-.035.296-.077.438-.124.036-.012.06-.047.09-.071 0 0 0-.006.011 0 .041.07.077 0 .107-.006.059-.018.106-.06.16-.089 0 0 0-.006.011 0 .06.036.089 0 .107-.047 0 0 .011-.006.017-.012h.024c.035-.018.065-.036.1-.053.083-.047.172-.089.255-.136a5.181 5.181 0 0 0 1.526-1.32c.083-.112.154-.236.23-.354l.054-.107.106-.177c.018-.018.042-.03.053-.047.119-.272.249-.544.35-.822.124-.338.195-.693.23-1.047.024-.184.041-.367.065-.556v-.361c0-.03-.006-.06-.012-.089v-.07c-.006-.025-.017-.054-.023-.078-.024-.106-.054-.213-.077-.32-.024-.082-.042-.17-.065-.254l-.089-.266c.035 0 .071 0 .106.012l.793.195.242.053c.03.09.066.178.09.26.112.444.188.888.177 1.35-.006.319-.006.632-.077.946-.042.2-.083.402-.148.597-.071.207-.154.414-.248.615-.101.213-.207.42-.332.615-.1.166-.213.332-.343.48-.195.23-.402.455-.62.662-.202.19-.42.36-.651.52-.255.172-.521.32-.787.462-.184.095-.373.165-.568.242a4.874 4.874 0 0 1-.414.148c-.16.047-.331.083-.49.119-.137.03-.273.065-.409.088-.13.024-.266.047-.396.047-.39.012-.775.03-1.166.018-.236-.006-.473-.059-.715-.094-.119-.018-.243-.036-.361-.06a4.681 4.681 0 0 1-.308-.076c-.142-.042-.278-.09-.414-.136a4.576 4.576 0 0 1-.301-.119c-.172-.077-.338-.16-.509-.242a4.79 4.79 0 0 1-.917-.58c-.213-.171-.426-.337-.615-.526-.325-.332-.627-.692-.852-1.106-.077-.148-.177-.284-.242-.432a7.575 7.575 0 0 1-.237-.645 3.912 3.912 0 0 1-.142-.532c-.035-.172-.03-.35-.07-.52-.06-.261-.03-.521-.024-.782 0-.189.053-.378.082-.567v-.018c.296-.112.598-.225.894-.331.106-.036.224-.06.33-.089v-.006Z" fill="#D2EEFB"/><path d="m23.795 11.282.107.284c.03.089.06.172.089.26-.071-.03-.142-.053-.207-.088-.249-.13-.491-.266-.74-.396-.29-.148-.585-.29-.881-.426a11.426 11.426 0 0 0-.846-.338c-.349-.13-.71-.242-1.064-.366-.072-.024-.143-.042-.208-.06-.011-.035-.017-.07-.03-.106a7.58 7.58 0 0 0-.13-.331c.178.047.356.089.533.136.213.06.42.13.633.195.195.065.39.136.58.213.343.142.68.278 1.017.438.39.183.775.39 1.16.585h-.013ZM8.026 10.886v.018c-.141.059-.283.106-.42.171a17.8 17.8 0 0 0-1.45.763c-.217.13-.43.267-.65.397-.011.006-.029.006-.04.011.023-.053.053-.106.076-.16.024-.053.053-.106.083-.159.219-.142.438-.29.662-.414.379-.213.77-.42 1.154-.621.207-.106.42-.19.633-.284l-.053.284.005-.006Z" fill="#8CA7B4"/><path d="M1.082 16.73v.018c-.059.035-.254-.036-.278-.1.077.023.154.04.231.064.018 0 .036.012.06.018h-.013Z" fill="#D5D4D4"/><path d="m14.468 20.007.018.165-.018-.165Z" fill="#6D6C6C"/><path d="m24.783 18.203-.024-.024.024.024Z" fill="#D5D4D4"/><path d="M17.466 11.543c-.035.03-.065.077-.1.094-.325.118-.657.23-.982.35-.047.017-.089.035-.142.035.302-.414.603-.834.9-1.248l-.019-.018c-.408.272-.822.544-1.23.816-.006 0-.018-.012-.024-.018.142-.485.29-.97.432-1.449 0 0-.012-.006-.017-.012-.284.397-.568.793-.846 1.195-.012 0-.018 0-.03-.006V9.756h-.035c-.19.45-.379.905-.568 1.367h-.024c-.16-.456-.313-.911-.473-1.367h-.012c0 .036-.006.071-.006.107.006.426.018.846.024 1.271 0 .018.006.042 0 .06-.012.023-.03.047-.047.053-.018 0-.048-.012-.06-.03l-.485-.857c-.076-.136-.147-.272-.242-.403.012.054.018.107.035.154.119.408.237.822.355 1.23.006.03 0 .06 0 .09-.03-.013-.059-.013-.083-.03-.33-.237-.662-.48-.993-.722-.024-.018-.042-.065-.036-.083a.466.466 0 0 0 .018-.367v-.023c.142-.095.272-.207.42-.29.183-.106.379-.195.568-.29.047 0 .094-.012.136-.012.325-.017.65-.047.976-.047.574 0 1.141.012 1.715.018h.035c.267.03.539.053.805.083.19.017.378.041.568.065.094.011.183.023.272.041h.018c0 .006.005.018.011.024a4.68 4.68 0 0 1-.295.881c-.03.06-.06.095-.13.083-.207-.03-.444.148-.474.284-.076.106-.053.23-.035.343.012.059.059.106.095.16l.005-.006Z" fill="#1588B1"/><path d="M10.925 13.56s-.036.04-.06.059a.685.685 0 0 0-.313.402c-.095.242-.03.455.118.65.148.196.355.273.592.284.047 0 .088 0 .118.06.095.16.195.313.302.467.041.059.1.112.153.166.071.082.136.165.207.242.012.018.018.035.03.053-.136-.065-.278-.118-.402-.195a5.198 5.198 0 0 1-1.627-1.46 4.233 4.233 0 0 1-.502-.888c-.083-.207-.178-.414-.231-.627-.077-.32-.136-.65-.184-.976a2.565 2.565 0 0 1 0-.639c.018-.195.077-.39.119-.585.023-.036.053-.071.077-.107a.626.626 0 0 1 .059-.07c.142-.036.284-.072.426-.113.153-.042.301-.089.455-.124.06-.012.124 0 .183 0 .03.283.113.55.207.816.101.278.237.544.397.792.012.024.035.042.047.06l-.124.526c-.012.018-.024.03-.03.047-.053.32-.065.645-.053.97 0 .065.024.13.03.196l.006-.007Z" fill="#1387B0"/><path d="M18.271 9.762c-.089-.012-.183-.03-.272-.041-.19-.024-.379-.048-.568-.065-.266-.03-.538-.053-.804-.083h-.036c-.574-.006-1.141-.018-1.715-.018-.325 0-.65.03-.976.048a.97.97 0 0 0-.136.011c.118-.053.237-.112.355-.148.225-.065.443-.13.674-.171.36-.06.728-.089 1.094-.047H16c-.06-.018-.113-.036-.166-.048v-.017h.35c.17.005.342.017.514.03.171.011.355 0 .52.04.201.048.396.13.586.213.16.071.307.178.461.267.006 0 .006.017.012.023l-.006.006Z" fill="#1F6984"/><path d="M12.776 9.709s-.047.018-.071.024h-.166c-.165.023-.33.053-.496.077-.19.03-.379.041-.568.076-.302.054-.598.125-.893.184-.03-.095-.054-.195-.083-.29.254-.06.514-.118.775-.172.224-.047.455-.082.686-.118.195-.03.39-.065.585-.094.19-.024.379-.042.574-.066.118-.011.23-.03.349-.041.053 0 .107-.006.154-.012-.172.077-.343.142-.515.225-.112.053-.213.124-.32.19l-.011.017Z" fill="#206A84"/><path d="M19.886 9.715c.041.112.082.219.13.331a.706.706 0 0 1 .03.107 16.246 16.246 0 0 1-.243-.054l-.793-.195c-.035-.006-.07-.006-.106-.012a11.742 11.742 0 0 1-.036-.017l-.177-.42.58.106c.183.036.366.083.55.124.023 0 .041.018.065.03ZM8.026 10.886l.054-.284c.183-.077.36-.16.544-.225.236-.088.473-.171.715-.254.024-.012.054-.018.095-.03a9.797 9.797 0 0 0-.171.379c-.113.03-.225.053-.332.089-.301.106-.597.219-.893.33l-.012-.005Z" fill="#9BADB5"/><path d="M10.44 10.153c-.06 0-.124-.012-.184 0-.154.035-.307.082-.455.124-.142.035-.284.077-.426.112.1-.219.243-.396.503-.45.16-.029.313-.076.473-.118.012 0 .024 0 .041-.006l.054.338h-.006Z" fill="#1F6984"/><path d="M18.69 9.449c.06.142.12.278.178.42-.059-.012-.118-.024-.171-.03-.083-.077-.166-.148-.249-.225-.017.065-.03.119-.047.172h-.1a.044.044 0 0 0-.012-.024c.047-.157.002-.28-.136-.366 0 0-.036-.024-.054-.054l.592.107ZM12.776 9.709c.107-.065.207-.136.32-.19.165-.082.343-.153.514-.224.148-.012.296-.024.438-.041v.023c-.083.03-.16.06-.237.1-.213.107-.426.22-.639.332h-.023c-.03-.071-.089-.03-.136-.03-.077 0-.16.012-.237.024v.006Z" fill="#B4B3B3"/><path d="M10.499 9.792c.03.094.053.195.083.29 0 0 0 .011-.006.017-.018.012-.03.024-.048.036l-.053-.302c0-.012.018-.03.024-.041ZM22.18 9.91l.06-.018c-.018 0-.042.012-.06.018ZM10.528 10.164l.018.06-.018-.06Z" fill="#9BADB5"/><path d="M12.817 16.203c-.1-.1-.207-.2-.307-.307-.018-.018-.024-.036-.036-.06.06-.13.1-.265.178-.39.154-.248.313-.496.485-.733.088-.124.213-.23.32-.343-.042.171-.084.337-.125.509-.071.266-.142.526-.207.792v.048c.337-.474.662-.935.988-1.402.012 0 .018 0 .03.006-.048.544-.09 1.088-.137 1.632h.018c.19-.497.373-1 .568-1.52.165.55.325 1.076.485 1.603h.024c.041-.515.076-1.035.118-1.55.006 0 .018 0 .024-.006l.674 1.278c.006 0 .012 0 .024-.006-.137-.497-.267-.994-.403-1.485 0 0 .012-.006.018-.011l1.254.97c.006-.006.018-.012.024-.018-.249-.42-.539-.817-.81-1.26.496.195.975.379 1.454.562-.355-.373-.71-.734-1.064-1.106l.479.035c.077.024.148.06.224.077.338.095.651.249.953.414.088.047.171.1.26.154-.077.118-.148.242-.23.355-.42.544-.935.976-1.527 1.319-.082.047-.171.089-.254.136l-.1.053h-.024c-.006 0-.012.012-.018.012-.035.018-.07.03-.106.047h-.012c-.089.036-.178.065-.272.1h-.012c-.119.036-.237.072-.361.107a3.85 3.85 0 0 1-1.035.16c-.355 0-.71-.03-1.065-.047-.106-.024-.213-.042-.32-.065-.058-.012-.111-.036-.17-.054l-.007-.006Z" fill="#1688B1"/><path d="M18.377 9.975c0-.041 0-.083.006-.124.23.142.385.36.52.591.137.231.196.486.231.752l-.023.686c-.036.36-.107.71-.23 1.047-.102.278-.232.55-.35.822-.006.018-.035.035-.053.047-.568-.473-1.236-.74-1.964-.881 0-.006.006-.012.012-.024.432-.106.87-.207 1.301-.313v-.024c-.236-.018-.467-.03-.704-.047.012-.018.024-.036.036-.048.207-.195.39-.414.55-.65.035-.053.065-.071.13-.071a.48.48 0 0 0 .485-.574c0-.124-.089-.207-.148-.302.1-.29.178-.585.19-.893l.011.006Z" fill="#1487B0"/><path d="M19.134 11.194a1.856 1.856 0 0 0-.23-.752c-.136-.23-.29-.45-.52-.591 0-.024.011-.047.017-.071.012-.053.03-.106.047-.172.083.077.166.154.249.225.059.077.118.154.171.237.071.106.13.225.19.337.023.106.053.213.076.32.006.023.018.053.024.076v.071c0 .03.006.06.012.089v.36c-.012-.04-.03-.088-.041-.13h.005Z" fill="#3C3C3D"/><path d="M18.318 14.086c-.089-.053-.171-.107-.26-.154a4.547 4.547 0 0 0-.952-.414c-.077-.024-.148-.053-.225-.077.219.018.444.018.662.06.113.017.22.106.32.165.171.1.337.213.508.32l-.053.106v-.006Z" fill="#3E4042"/><path d="M13.308 16.322c.355.018.71.053 1.065.047.349 0 .698-.06 1.035-.16l.36-.106c-.029.024-.052.06-.088.07-.142.048-.29.096-.438.125-.171.042-.349.065-.52.095-.1.017-.201.03-.302.03-.295-.007-.591-.024-.887-.036-.065 0-.13-.018-.195-.03-.012 0-.018-.023-.024-.035h-.006ZM19.058 10.407c-.066-.113-.125-.225-.19-.337-.053-.083-.112-.154-.171-.237.059.012.118.024.171.03l.036.018.088.266c.024.082.048.171.066.254v.006Z" fill="#E6F3F9"/><path d="M19.134 11.194c.012.041.03.088.042.13-.024.183-.041.366-.065.556.006-.231.012-.456.023-.686Z" fill="#6D6C6C"/><path d="M15.775 16.103c.089-.036.177-.065.272-.1-.053.029-.107.07-.16.088-.03.012-.07.077-.106.006l-.006.006ZM16.053 15.996c.035-.017.07-.03.106-.047-.023.047-.053.077-.106.047ZM16.206 15.937c.036-.017.066-.035.101-.053-.035.018-.065.036-.1.053Z" fill="#E6F3F9"/><path d="M19.176 10.963c0-.03-.006-.06-.012-.089 0 .03.006.06.012.089ZM19.158 10.803s-.018-.053-.024-.077c.006.024.018.054.024.077Z" fill="#6D6C6C"/><path d="M16.165 15.955s.012-.012.018-.012c-.006 0-.012.012-.018.012Z" fill="#E6F3F9"/><path d="M12.244 12.968c-.1.024-.207.053-.308.077-.13.03-.266.06-.396.1.248.018.503.036.751.06.16.011.325.03.485.041.107.041.213.077.32.118-.279.178-.557.361-.829.539-.106.065-.207.136-.32.207a.758.758 0 0 0-.348-.497.404.404 0 0 0-.148-.065c-.077-.012-.083-.053-.089-.119a3.87 3.87 0 0 1 .03-.905c.012-.076.03-.147.047-.224.024.011.042.023.065.035.196.172.385.343.58.515.053.047.106.083.166.124l-.006-.006Z" fill="#1788B1"/><path d="M10.57 10.1s0-.012.006-.018c.295-.06.597-.13.893-.184.19-.035.378-.053.568-.077.165-.023.33-.053.496-.077.054-.005.113 0 .166 0-.07.054-.142.107-.213.154-.018.012-.047.006-.07 0-.237-.041-.444 0-.598.207-.03.036-.047.077-.071.119a.522.522 0 0 0 0 .378l-.178.266c-.112.184-.218.373-.343.574a8.265 8.265 0 0 1-.242-.379 4.263 4.263 0 0 1-.414-.952V10.1Z" fill="#1588B1"/><path d="M11.948 14.192c.083-.041.166-.088.254-.124.338-.124.675-.248 1.018-.367a.09.09 0 0 1 .047.012c-.302.385-.61.775-.91 1.16l.017.023c.053-.03.106-.065.16-.094-.119.236-.231.473-.35.721a16.15 16.15 0 0 1-.271-.408c-.06-.089-.107-.19-.154-.284a.335.335 0 0 1-.024-.083.647.647 0 0 0 .219-.55l-.006-.006Z" fill="#1889B2"/><path d="M11.954 11.276c.094.077.19.154.284.225.313.23.62.462.934.692.012.012.024.024.048.042-.018 0-.03.006-.042.006-.331.011-.656.017-.988.035a.36.36 0 0 1-.295-.112c-.107-.107-.22-.207-.326-.308.095-.201.195-.402.29-.603l.06.018h.035v.005Z" fill="#1688B1"/><path d="m11.924 11.276-.059-.017c.06-.095.118-.184.184-.278.011-.018.041-.03.059-.03.082 0 .171.018.254 0a.47.47 0 0 0 .35-.219c.26.32.52.645.774.97.012.018.012.06 0 .065-.018.018-.053.024-.077.018-.243-.089-.485-.183-.733-.272-.213-.083-.432-.16-.645-.237-.024-.005-.053 0-.077-.005 0 0-.006-.012-.012-.018-.006.006-.018.012-.024.018l.006.005Z" fill="#1788B1"/><path d="M11.835 15.648c-.053-.054-.112-.107-.153-.166a7.832 7.832 0 0 1-.302-.467c-.036-.06-.071-.054-.118-.06-.237-.005-.444-.088-.592-.284-.148-.195-.207-.413-.118-.65-.053.438.414.704.745.692.065 0 .1.006.13.077.107.242.225.479.338.721.023.048.04.09.064.137h.006Z" fill="#3C3C3D"/><path d="M18.33 11.176a.489.489 0 0 1-.485.574c-.065 0-.095.017-.13.07-.16.237-.343.456-.55.651-.012.012-.024.03-.036.047h-.16a2.97 2.97 0 0 1 .13-.136c.243-.248.468-.508.651-.804.036-.053.077-.077.148-.077.166 0 .314-.053.403-.213.017-.035.023-.077.03-.112Z" fill="#3E4042"/><path d="M12.244 12.968c-.053-.041-.113-.083-.166-.124-.195-.172-.39-.343-.58-.515.018-.006.036-.012.06-.018.041.012.077.03.118.036a.595.595 0 0 1 .278.124c.19.136.39.26.585.39l.072.048c-.136.024-.255.041-.367.065v-.006Z" fill="#3C3C3D"/><path d="M12.705 10.738a.466.466 0 0 1-.349.219c-.083.012-.165 0-.254 0-.024 0-.053.012-.06.03-.064.088-.118.183-.183.278-.094.2-.195.402-.29.603-.005-.024-.03-.053-.023-.071.148-.36.302-.722.532-1.041.012-.018.053-.042.071-.036.154.048.302.03.444-.017.059-.018.088 0 .106.053l.006-.018Z" fill="#3E4042"/><path d="M13.45 14.376c-.106.112-.225.219-.32.343-.17.236-.33.485-.484.733-.071.119-.119.26-.178.39-.059-.023-.047-.059-.03-.106.196-.461.444-.887.758-1.272.095-.118.201-.23.302-.348.005 0 .017.005.023.011-.03.083-.053.166-.083.249h.012ZM10.925 13.56c-.012-.066-.03-.13-.03-.196-.012-.325 0-.644.053-.97 0-.017.018-.03.03-.047v.858c0 .076.012.16.018.236.005.06-.006.1-.071.118Z" fill="#424547"/><path d="M12.433 12.536c.201.048.396.1.597.148.018 0 .042.012.06.024.017.012.035.03.035.041 0 .018-.018.047-.036.053-.059.012-.13.03-.177.012-.16-.07-.308-.16-.461-.242-.006 0-.012-.018-.018-.03v-.006Z" fill="#2992B8"/><path d="M18.377 9.975a3.089 3.089 0 0 1-.189.893c-.07-.041-.077-.088-.047-.165.083-.225.148-.456.219-.68 0-.018.012-.03.023-.048h-.006ZM11.948 14.192a.647.647 0 0 1-.219.55c-.06-.07-.047-.124.012-.2.083-.107.142-.237.207-.355v.005Z" fill="#424547"/><path d="M16.378 12.489c.23-.178.438-.337.663-.509-.048.136-.533.515-.663.509Z" fill="#2992B8"/><path d="m11.552 12.312-.06.017c-.023-.012-.04-.023-.065-.035.012-.077.024-.16.042-.249l.219.255.018-.018-.16.03h.006Z" fill="#424547"/><path d="M17.466 11.543c-.035-.054-.082-.1-.094-.16-.018-.118-.041-.237.035-.343.03.112.048.225.095.331.036.077.036.13-.035.172Z" fill="#3E4042"/><path d="M13.095 13.364c-.106-.041-.212-.077-.319-.118.148 0 .296.012.45.018 0 .012 0 .018.006.03-.048.023-.09.047-.136.07ZM11.747 10.596c-.053-.124-.036-.254 0-.378.023.088.059.183.07.272 0 .03-.047.07-.07.106Z" fill="#424547"/></g><defs><clipPath id="a"><path fill="#fff" d="M0 0h30v30H0z"/></clipPath></defs></svg>