<svg width="72" height="71" viewBox="0 0 72 71" fill="none" xmlns="http://www.w3.org/2000/svg">
<g clip-path="url(#clip0_149_12415)">
<path d="M6.73857 0.434967H2.73076C1.68226 0.434967 0.832275 1.28495 0.832275 2.33345V68.7794C0.832275 69.8279 1.68226 70.6779 2.73076 70.6779H6.73857C7.78708 70.6779 8.63706 69.8279 8.63706 68.7794V2.33345C8.63706 1.28495 7.78708 0.434967 6.73857 0.434967Z" fill="#FFB200"/>
<path d="M0.832275 62.8736H8.63706V68.7798C8.63706 69.8283 7.78709 70.6783 6.73857 70.6783H2.73076C1.68226 70.6783 0.832275 69.8283 0.832275 68.7798V62.8736Z" fill="#FF0000"/>
<path d="M22.3492 0.434967H18.3414C17.2929 0.434967 16.4429 1.28495 16.4429 2.33345V68.7794C16.4429 69.8279 17.2929 70.6779 18.3414 70.6779H22.3492C23.3977 70.6779 24.2477 69.8279 24.2477 68.7794V2.33345C24.2477 1.28495 23.3977 0.434967 22.3492 0.434967Z" fill="#FFB200"/>
<path d="M37.9578 0.434967H33.95C32.9015 0.434967 32.0515 1.28495 32.0515 2.33345V68.7794C32.0515 69.8279 32.9015 70.6779 33.95 70.6779H37.9578C39.0063 70.6779 39.8563 69.8279 39.8563 68.7794V2.33345C39.8563 1.28495 39.0063 0.434967 37.9578 0.434967Z" fill="#FFB200"/>
<path d="M53.5667 0.434967H49.5589C48.5104 0.434967 47.6604 1.28495 47.6604 2.33345V68.7794C47.6604 69.8279 48.5104 70.6779 49.5589 70.6779H53.5667C54.6152 70.6779 55.4652 69.8279 55.4652 68.7794V2.33345C55.4652 1.28495 54.6152 0.434967 53.5667 0.434967Z" fill="#FFB200"/>
<path d="M69.1773 27.7534H65.1695C64.121 27.7534 63.271 28.6034 63.271 29.6519V41.4645C63.271 42.513 64.121 43.3629 65.1695 43.3629H69.1773C70.2258 43.3629 71.0758 42.513 71.0758 41.4645V29.6519C71.0758 28.6034 70.2258 27.7534 69.1773 27.7534Z" fill="#FFB200"/>
</g>
<defs>
<clipPath id="clip0_149_12415">
<rect width="70.2439" height="70.2439" fill="white" transform="translate(0.832275 0.434967)"/>
</clipPath>
</defs>
</svg>
