<svg width="71" height="71" viewBox="0 0 71 71" fill="none" xmlns="http://www.w3.org/2000/svg">
<g clip-path="url(#clip0_149_12683)">
<path fill-rule="evenodd" clip-rule="evenodd" d="M5.40674 35.2683C5.40674 38.3134 5.83882 41.2351 6.55895 44.0539H49.3143C54.1701 44.0539 58.1 40.124 58.1 35.2683C58.1 30.4125 54.1701 26.4827 49.3143 26.4827H6.55895C5.83882 29.3015 5.40674 32.2231 5.40674 35.2683Z" fill="#343741"/>
<path fill-rule="evenodd" clip-rule="evenodd" d="M64.4988 16.9563C65.7333 15.8247 66.8649 14.6107 67.9143 13.3145C61.4742 5.29014 51.6187 0.146332 40.5286 0.146332C26.6609 0.146332 14.7067 8.21183 9.00732 19.8986H57.0094C59.787 19.8986 62.4618 18.8492 64.4988 16.9563Z" fill="#FEC514"/>
<path fill-rule="evenodd" clip-rule="evenodd" d="M57.0094 50.638H9.00732C14.7067 62.3247 26.6403 70.3902 40.5286 70.3902C51.6187 70.3902 61.4948 65.2464 67.9143 57.2221C66.8649 55.9258 65.7333 54.7119 64.4988 53.5803C62.4618 51.6873 59.787 50.638 57.0094 50.638" fill="#00BFB3"/>
</g>
<defs>
<clipPath id="clip0_149_12683">
<rect width="70.2439" height="70.2439" fill="white" transform="translate(0.723877 0.146332)"/>
</clipPath>
</defs>
</svg>
