<svg width="30" height="30" viewBox="0 0 30 30" fill="none" xmlns="http://www.w3.org/2000/svg">
<path d="M18.9545 9.46366H19.8636L22.4545 6.87275L22.5818 5.77275C21.0976 4.46271 19.3039 3.55267 17.3701 3.1286C15.4364 2.70453 13.4265 2.78042 11.5302 3.34911C9.63397 3.91781 7.914 4.96052 6.53278 6.37876C5.15157 7.797 4.1547 9.54395 3.63635 11.4546C3.92499 11.3363 4.24473 11.3171 4.54544 11.4L9.72726 10.5455C9.72726 10.5455 9.9909 10.1091 10.1273 10.1364C11.2376 8.91699 12.772 8.16811 14.4164 8.04305C16.0608 7.91799 17.6908 8.42621 18.9727 9.46366H18.9545Z" fill="#EA4335"/>
<path d="M26.1455 11.4545C25.55 9.26147 24.3272 7.28993 22.6273 5.7818L18.9909 9.41816C19.7488 10.0374 20.3561 10.8207 20.7672 11.7088C21.1782 12.597 21.3821 13.5669 21.3637 14.5454V15.1909C21.7887 15.1909 22.2095 15.2746 22.6022 15.4372C22.9948 15.5999 23.3516 15.8383 23.6521 16.1388C23.9526 16.4393 24.191 16.7961 24.3537 17.1888C24.5163 17.5814 24.6 18.0022 24.6 18.4273C24.6 18.8523 24.5163 19.2731 24.3537 19.6658C24.191 20.0584 23.9526 20.4152 23.6521 20.7157C23.3516 21.0162 22.9948 21.2546 22.6022 21.4173C22.2095 21.5799 21.7887 21.6636 21.3637 21.6636H14.8909L14.2455 22.3182V26.2L14.8909 26.8454H21.3637C23.1712 26.8595 24.9352 26.2914 26.3948 25.2252C27.8544 24.159 28.932 22.6513 29.4683 20.9252C30.0046 19.199 29.9711 17.3461 29.3727 15.6405C28.7742 13.9349 27.6427 12.4672 26.1455 11.4545V11.4545Z" fill="#4285F4"/>
<path d="M8.40909 26.8091H14.8818V21.6273H8.40909C7.94794 21.6272 7.49219 21.528 7.07273 21.3364L6.16363 21.6182L3.55454 24.2091L3.32727 25.1182C4.79039 26.223 6.57571 26.817 8.40909 26.8091V26.8091Z" fill="#34A853"/>
<path d="M8.40903 9.99999C6.65524 10.0105 4.9485 10.5684 3.52721 11.596C2.10592 12.6235 1.04105 14.0693 0.481339 15.7315C-0.0783746 17.3936 -0.104983 19.189 0.405231 20.867C0.915444 22.545 1.937 24.0217 3.32722 25.0909L7.08176 21.3364C6.60464 21.1208 6.18693 20.7927 5.86449 20.3802C5.54205 19.9677 5.32449 19.4832 5.23048 18.9681C5.13648 18.4531 5.16884 17.9229 5.32478 17.4231C5.48072 16.9233 5.75559 16.4688 6.1258 16.0986C6.49601 15.7284 6.95052 15.4535 7.45032 15.2976C7.95011 15.1416 8.48028 15.1093 8.99533 15.2033C9.51039 15.2973 9.99494 15.5148 10.4074 15.8373C10.8199 16.1597 11.148 16.5774 11.3636 17.0545L15.1181 13.3C14.3301 12.2698 13.3144 11.4358 12.1505 10.8633C10.9866 10.2909 9.70609 9.99537 8.40903 9.99999V9.99999Z" fill="#FBBC05"/>
</svg>
