<svg width="30" height="30" viewBox="0 0 30 30" fill="none" xmlns="http://www.w3.org/2000/svg">
<g clip-path="url(#clip0_270_12891)">
<path fill-rule="evenodd" clip-rule="evenodd" d="M22.0074 20.5373L28.9092 18.9549C29.0155 18.9334 29.116 18.89 29.2047 18.8274C29.2934 18.7648 29.3681 18.6845 29.4239 18.5915C29.4797 18.4985 29.5155 18.3948 29.5292 18.2872C29.5429 18.1796 29.5339 18.0703 29.5029 17.9663L26.5678 5.23628C26.5148 5.0262 26.3807 4.84572 26.1948 4.73441C26.0089 4.62309 25.7864 4.59006 25.5762 4.64251L18.6774 6.22491C18.4685 6.27849 18.2894 6.41257 18.1792 6.59783C18.069 6.78309 18.0366 7.00446 18.0892 7.21354L21.0158 19.9436C21.0688 20.1536 21.203 20.3341 21.3888 20.4454C21.5747 20.5568 21.7972 20.5898 22.0074 20.5373Z" fill="#020A47"/>
<path fill-rule="evenodd" clip-rule="evenodd" d="M19.6292 28.4037L27.9971 20.6566C28.3124 20.3384 28.2329 20.1424 27.7982 20.2986L22.0472 21.6055C21.8094 21.6642 21.5902 21.782 21.4099 21.9478C21.2297 22.1136 21.0941 22.3222 21.0158 22.5543L19.2712 28.1679C19.1519 28.6026 19.311 28.7218 19.6292 28.4037Z" fill="#020A47"/>
<path fill-rule="evenodd" clip-rule="evenodd" d="M4.36265 25.8753L16.893 29.7474C17.1071 29.7874 17.3284 29.7497 17.5173 29.6416C17.7063 29.5334 17.8506 29.3613 17.9244 29.1566L20.0242 22.435C20.0546 22.3302 20.064 22.2204 20.0519 22.1119C20.0397 22.0034 20.0063 21.8984 19.9535 21.8029C19.9007 21.7073 19.8296 21.6232 19.7442 21.5552C19.6588 21.4872 19.5609 21.4367 19.4559 21.4066L6.92557 17.5714C6.71344 17.5107 6.48594 17.5364 6.29271 17.6429C6.09947 17.7493 5.95618 17.9279 5.89415 18.1396L3.8086 24.8469C3.74665 25.0568 3.77013 25.2825 3.87389 25.4752C3.97768 25.6678 4.15334 25.8116 4.36265 25.8753Z" fill="#020A47"/>
<path fill-rule="evenodd" clip-rule="evenodd" d="M0.316601 12.1169L2.85677 23.239C2.93633 23.6736 3.14091 23.6736 3.25173 23.239L4.99631 17.6254C5.05575 17.3862 5.05817 17.1364 5.00341 16.8961C4.94862 16.6558 4.83818 16.4317 4.68091 16.2419L0.674612 11.918C0.396159 11.5913 0.18874 11.6822 0.316601 12.1169Z" fill="#020A47"/>
<path fill-rule="evenodd" clip-rule="evenodd" d="M10.1136 0.227742L0.515508 9.11121C0.361524 9.25779 0.271118 9.45884 0.263681 9.67129C0.256245 9.88371 0.33237 10.0906 0.475729 10.2476L5.27476 15.4379C5.42266 15.5948 5.6265 15.6869 5.84197 15.6944C6.05745 15.7018 6.26716 15.6239 6.42553 15.4777L16.0208 6.57997C16.1761 6.43418 16.2674 6.23287 16.2749 6.02C16.2823 5.80711 16.2053 5.59992 16.0605 5.44363L11.27 0.256151C11.1963 0.177733 11.1078 0.114731 11.0096 0.0708008C10.9113 0.0268705 10.8053 0.00288808 10.6977 0.00024515C10.5902 -0.00239779 10.4831 0.0163516 10.3828 0.055405C10.2826 0.0944582 10.1911 0.153037 10.1136 0.227742Z" fill="#020A47"/>
<path fill-rule="evenodd" clip-rule="evenodd" d="M19.3907 20.3385C19.8283 20.4578 20.1039 20.222 19.9874 19.7703L17.2114 7.7533C17.0921 7.31864 16.734 7.19932 16.4186 7.51467L7.37748 15.9124C7.05924 16.2277 7.1388 16.5828 7.57353 16.7021L19.3907 20.3385Z" fill="#020A47"/>
<path fill-rule="evenodd" clip-rule="evenodd" d="M24.1101 3.57723L13.1652 0.227802C12.7305 0.108485 12.6509 0.267576 13.0061 0.622686L17.0124 4.93233C17.1921 5.1003 17.4095 5.22278 17.6463 5.28949C17.8831 5.35623 18.1324 5.36525 18.3734 5.31583L24.1243 4.01188C24.5477 3.89257 24.5477 3.6937 24.1101 3.57723Z" fill="#020A47"/>
</g>
<defs>
<clipPath id="clip0_270_12891">
<rect width="30" height="30" fill="white"/>
</clipPath>
</defs>
</svg>
