<svg width="71" height="71" viewBox="0 0 71 71" fill="none" xmlns="http://www.w3.org/2000/svg">
<g clip-path="url(#clip0_149_1800)">
<path d="M64.6026 17.6447C64.198 16.3587 63.2443 15.3183 62.0305 14.6825L37.5526 2.96374C36.9168 2.64584 36.1943 2.55914 35.5441 2.55914C34.8938 2.55914 34.1858 2.55914 33.5355 2.71809L9.07206 14.5091C7.87272 15.0727 6.99129 16.113 6.65894 17.4713L0.561135 43.8855C0.315489 45.2438 0.647834 46.6165 1.44257 47.7436L18.3777 68.6814C19.3459 69.6495 20.7041 70.2853 22.0624 70.372H49.098C50.5429 70.5309 51.9012 69.8951 52.7826 68.6814L69.7178 47.7436C70.527 46.6165 70.8449 45.2583 70.6859 43.8855L64.5881 17.6447H64.6026Z" fill="#326DE6"/>
<path d="M60.7446 42.8451C60.6868 42.8451 60.6579 42.8162 60.6579 42.7584C60.6579 42.6717 60.4122 42.6717 60.34 42.6717C60.0221 42.585 59.7042 42.585 59.3718 42.585C59.2129 42.585 59.0539 42.585 58.895 42.4983H58.8083C57.9269 42.4116 56.9587 42.2527 56.0773 42.0215C55.8316 41.9348 55.6004 41.7036 55.5137 41.4579C55.5137 41.3712 55.427 41.3712 55.427 41.3712L54.7913 41.2123C55.1092 38.8859 54.9502 36.4727 54.4734 34.1463C53.9098 31.8199 52.9417 29.5657 51.6701 27.5717L52.1469 27.0948V27.0081C52.1469 26.7625 52.2336 26.4446 52.3926 26.2856C53.1151 25.7221 53.8376 25.1586 54.6323 24.754C54.7913 24.6673 54.9502 24.595 55.1092 24.5083C55.427 24.3494 55.6727 24.1904 55.9906 24.0315C56.0773 23.9448 56.1495 23.9448 56.2362 23.8725C56.3229 23.8003 56.3229 23.7858 56.3229 23.7858C57.0454 23.2223 57.2044 22.2542 56.6408 21.5461C56.3952 21.2282 55.9183 20.9826 55.5137 20.9826C55.1092 20.9826 54.7046 21.1415 54.3867 21.3872L54.3 21.4739C54.2133 21.5606 54.141 21.6328 54.0543 21.6328C53.8087 21.8785 53.5775 22.1097 53.4185 22.3553C53.3318 22.5143 53.1729 22.601 53.1006 22.6732C52.4648 23.309 51.8146 23.9592 51.0921 24.4361C50.9332 24.5228 50.7742 24.595 50.6153 24.595C50.5286 24.595 50.3696 24.595 50.2974 24.5083L49.6616 24.9852C49.0258 24.3494 48.3033 23.6991 47.6531 23.0633C44.6909 20.7369 40.9917 19.292 37.2203 18.8874L37.1336 18.2516L37.0469 18.1649C36.8013 18.0059 36.729 17.7603 36.6423 17.5291C36.6423 16.6476 36.6423 15.7662 36.8013 14.7981V14.7114C36.8013 14.5524 36.888 14.3935 36.888 14.2345C36.9747 13.9166 36.9747 13.5987 37.0469 13.2664V12.7895C37.1336 11.9804 36.4834 11.1856 35.6886 11.1856C35.2118 11.1856 34.7205 11.3446 34.4026 11.6625C34.0847 11.9804 33.9258 12.385 33.9258 12.7895V13.1941C33.9258 13.512 34.0125 13.8299 34.0847 14.1623C34.1714 14.3212 34.1714 14.4802 34.1714 14.6391V14.7258C34.3304 15.6073 34.3304 16.4887 34.3304 17.4568C34.2437 17.7025 34.1714 17.9337 33.9258 18.0926L33.8391 18.1793L33.7524 18.8151C32.8709 18.9018 31.9895 19.0608 31.0214 19.2197C27.25 20.0289 23.7965 22.023 21.1522 24.8407L20.6753 24.5228H20.5886C20.5019 24.5228 20.4297 24.6095 20.2707 24.6095C20.1118 24.6095 19.8661 24.5228 19.7939 24.4505C19.0714 23.887 18.4356 23.2512 17.7854 22.601C17.6987 22.442 17.5397 22.3553 17.4675 22.2831C17.2218 22.0374 17.0629 21.8062 16.8317 21.5606C16.745 21.4739 16.6727 21.4739 16.586 21.4016C16.4993 21.3294 16.4993 21.3149 16.4993 21.3149C16.1814 21.0693 15.7768 20.9103 15.3723 20.9103C14.8954 20.9103 14.4908 21.0693 14.1729 21.4739C13.6961 22.1964 13.855 23.1645 14.4908 23.7136C14.5775 23.7136 14.5775 23.8003 14.5775 23.8003C14.5775 23.8003 14.7365 23.9592 14.8232 23.9592C15.0688 24.1182 15.3867 24.2771 15.7046 24.4361C15.8635 24.5228 16.0225 24.595 16.1814 24.6817C16.9906 25.1586 17.7131 25.6499 18.4212 26.2134C18.5801 26.3723 18.7391 26.6902 18.6668 26.9359V27.0226L19.1436 27.4994C19.0569 27.6584 18.9847 27.7451 18.898 27.904C16.4126 31.8344 15.4445 36.4872 16.167 41.0678L15.5312 41.2267C15.5312 41.3134 15.4445 41.3134 15.4445 41.3134C15.3578 41.5591 15.1266 41.718 14.881 41.877C13.9995 42.1226 13.1181 42.2816 12.15 42.3538H12.0633C11.9043 42.3538 11.7454 42.3538 11.5864 42.4405C11.2685 42.4405 10.9506 42.5272 10.6183 42.5272C10.5316 42.5272 10.4593 42.6139 10.3004 42.6139C10.2426 42.6139 10.1896 42.6428 10.1414 42.7006C9.26 42.8595 8.69646 43.6687 8.8554 44.5502C9.01435 45.2727 9.73684 45.7495 10.4593 45.6773C10.6183 45.6773 10.705 45.6773 10.8639 45.5906C10.9217 45.5906 10.9506 45.5617 10.9506 45.5039C10.9506 45.4172 11.1096 45.4172 11.2685 45.4172C11.5864 45.3305 11.9043 45.1715 12.15 45.0993C12.3089 45.0126 12.4678 44.9403 12.6268 44.9403H12.7135C13.5227 44.6224 14.4041 44.3768 15.2856 44.2178H15.3723C15.6179 44.2178 15.8491 44.3045 16.008 44.4635C16.0947 44.4635 16.0947 44.5502 16.0947 44.5502L16.8172 44.4635C18.0166 48.1482 20.2707 51.4427 23.3919 53.8558C24.1144 54.4194 24.7502 54.8962 25.5594 55.3008L25.2415 55.9366C25.2415 56.0233 25.3282 56.0233 25.3282 56.0233C25.4871 56.2689 25.4871 56.5868 25.4149 56.8325C25.097 57.6417 24.6057 58.4364 24.1288 59.1589V59.2456C24.0421 59.4045 23.9699 59.4912 23.8109 59.6502C23.652 59.8091 23.493 60.127 23.2474 60.4594C23.1607 60.5461 23.1607 60.6183 23.0884 60.705C23.0884 60.705 23.0884 60.7917 23.0017 60.7917C22.5971 61.6009 22.915 62.5546 23.6375 62.9592C23.7965 63.0459 24.0421 63.1181 24.2733 63.1181C24.9091 63.1181 25.4727 62.7135 25.805 62.15C25.805 62.15 25.805 62.0633 25.8917 62.0633C25.8917 61.9766 25.9784 61.9044 26.0506 61.8177C26.1373 61.4998 26.2963 61.2541 26.3685 60.9362L26.5275 60.4594C26.7731 59.5779 27.1633 58.7687 27.5679 57.974C27.7268 57.7284 27.9725 57.5694 28.2037 57.4972C28.2615 57.4972 28.2904 57.4683 28.2904 57.4105L28.6083 56.7747C30.848 57.6561 33.1888 58.0607 35.5875 58.0607C37.0325 58.0607 38.4775 57.9018 39.9224 57.5839C40.8039 57.4249 41.6853 57.107 42.4945 56.8614L42.8124 57.4249C42.8702 57.4249 42.8991 57.4538 42.8991 57.5116C43.1447 57.5983 43.3759 57.7573 43.5349 57.9885C43.9395 58.7977 44.2574 59.5924 44.5753 60.4016V60.4883L44.7342 60.9651C44.8209 61.283 44.8932 61.6009 45.0521 61.8466C45.1388 61.9333 45.1388 62.0055 45.2111 62.0922C45.2111 62.0922 45.2111 62.1789 45.2977 62.1789C45.6156 62.7424 46.1792 63.147 46.8294 63.147C47.0751 63.147 47.234 63.0603 47.4652 62.9881C47.7831 62.8291 48.101 62.5112 48.1877 62.1066C48.2744 61.7021 48.2744 61.2252 48.101 60.8206C48.101 60.7339 48.0143 60.7339 48.0143 60.7339C48.0143 60.6472 47.9276 60.575 47.8554 60.4883C47.6964 60.1704 47.5375 59.9247 47.2918 59.6791C47.2051 59.5201 47.1329 59.4334 46.9739 59.2745V59.1878C46.4104 58.4653 46.0058 57.6561 45.6879 56.8614C45.6012 56.6157 45.6012 56.2978 45.7746 56.0522C45.7746 55.9655 45.8613 55.9655 45.8613 55.9655L45.6156 55.3297C49.7916 52.8443 52.8405 48.9863 54.3578 44.4201L54.9936 44.5068C55.0803 44.5068 55.0803 44.4201 55.0803 44.4201C55.2392 44.2612 55.4848 44.1745 55.716 44.1745H55.8027C56.6842 44.3334 57.5656 44.5791 58.3748 44.897H58.4615C58.6204 44.9837 58.7794 45.0559 58.9383 45.0559C59.2562 45.2149 59.5019 45.3016 59.8198 45.3738C59.9065 45.3738 59.9787 45.4605 60.1377 45.4605C60.1955 45.4605 60.2485 45.4894 60.2966 45.5472C60.4556 45.6339 60.5423 45.6339 60.7012 45.6339C61.4237 45.6339 62.0595 45.1571 62.3051 44.5068C62.0595 43.6976 61.496 43.0618 60.7012 42.9029L60.7446 42.8451ZM37.6394 40.3597L35.4719 41.4001L33.3044 40.3597L32.6686 38.0333L34.2003 36.1115H36.6857L38.2174 38.0333L37.6538 40.3597H37.6394ZM50.7164 35.1434C51.121 36.834 51.1933 38.5102 51.0343 40.2008L43.4048 38.0333C42.6823 37.8744 42.2777 37.1519 42.4367 36.4294C42.5234 36.1837 42.5956 36.0248 42.7546 35.8658L48.7657 30.4038C49.6471 31.8488 50.2974 33.4527 50.6875 35.1434H50.7164ZM46.3815 27.4416L39.8791 32.0945C39.3155 32.4124 38.5208 32.3401 38.1162 31.7766C37.9573 31.6176 37.8706 31.4587 37.8706 31.213L37.3937 23.1067C40.7605 23.5113 43.9684 25.0285 46.3815 27.4416ZM31.8595 23.3523L33.4634 23.0344L32.9865 31.0541C32.9865 31.7766 32.3507 32.3401 31.6283 32.3401C31.3826 32.3401 31.2237 32.2534 30.9925 32.1812L24.4901 27.4416C26.4986 25.4331 29.0706 23.9881 31.8739 23.3523H31.8595ZM22.077 30.4183L28.0158 35.7214C28.5794 36.1982 28.6516 37.0074 28.1748 37.5709C28.0158 37.8166 27.8569 37.8888 27.539 37.9755L19.8372 40.2152C19.5193 36.8484 20.3141 33.3949 22.077 30.4327V30.4183ZM20.7187 43.9722L28.6661 42.6139C29.3018 42.6139 29.9521 43.0185 30.0243 43.6543C30.111 43.8999 30.111 44.2178 29.9376 44.4635L26.8887 51.8473C24.0855 49.9977 21.8313 47.1945 20.7042 43.9866L20.7187 43.9722ZM38.9398 53.9281C37.8128 54.1737 36.6134 54.3327 35.4141 54.3327C33.7235 54.3327 31.9606 54.0148 30.3567 53.5235L34.287 46.3853C34.6916 45.9084 35.3274 45.7495 35.8909 46.0674C36.1366 46.2263 36.2955 46.3853 36.5267 46.6309L40.3848 53.6102C39.9802 53.6969 39.5034 53.7691 38.9398 53.9281ZM48.7223 46.9488C47.523 48.8707 45.8324 50.5613 43.9106 51.7606L40.775 44.3045C40.616 43.6687 40.8617 43.0185 41.4975 42.7006C41.7431 42.6139 41.9743 42.5416 42.2199 42.5416L50.2396 43.8999C49.835 45.027 49.3581 46.0674 48.7079 46.9488H48.7223Z" fill="white"/>
</g>
<defs>
<clipPath id="clip0_149_1800">
<rect width="70.2439" height="70.2439" fill="white" transform="translate(0.481689 0.217682)"/>
</clipPath>
</defs>
</svg>
