<svg width="71" height="71" viewBox="0 0 71 71" fill="none" xmlns="http://www.w3.org/2000/svg">
<g clip-path="url(#clip0_149_10421)">
<path d="M41.2359 7.88345C38.2962 4.38385 35.7485 0.842259 35.2306 0.100345C35.1746 0.0443512 35.0906 0.0443512 35.0346 0.100345C34.5167 0.842259 31.983 4.39785 29.0293 7.88345C3.72021 40.1637 33.0188 61.9452 33.0188 61.9452L33.2708 62.1132C33.4948 65.4728 34.0407 70.3163 34.0407 70.3163H36.2245C36.2245 70.3163 36.7704 65.5008 36.9944 62.1132L37.2463 61.9172C37.2463 61.9172 66.559 40.1637 41.2639 7.88345H41.2359ZM35.1186 61.4413C35.1186 61.4413 33.8027 60.3214 33.4528 59.7475V59.6915L35.0346 24.5415C35.0346 24.4295 35.2026 24.4295 35.2026 24.5415L36.7844 59.6915V59.7475C36.4344 60.3214 35.1186 61.4413 35.1186 61.4413V61.4413Z" fill="#001E2B"/>
</g>
<defs>
<clipPath id="clip0_149_10421">
<rect width="70.2439" height="70.2439" fill="white" transform="translate(0.00878906 0.0583496)"/>
</clipPath>
</defs>
</svg>
