<svg width="71" height="71" viewBox="0 0 71 71" fill="none" xmlns="http://www.w3.org/2000/svg">
<g clip-path="url(#clip0_149_10791)">
<path fill-rule="evenodd" clip-rule="evenodd" d="M16.0215 12.0687C15.2171 12.0687 14.6425 12.1692 14.0679 12.3129V12.4134H14.1684C14.5563 13.1748 15.2171 13.7063 15.7055 14.3671C16.0933 15.1284 16.4237 15.8897 16.8115 16.6511C16.8546 16.608 16.9121 16.5505 16.9121 16.5505C17.5872 16.0765 17.9176 15.3151 17.9176 14.1659C17.6303 13.8356 17.5872 13.4908 17.343 13.1604C17.0558 12.6864 16.4381 12.4422 16.0502 12.0543" fill="#5D87A1"/>
<path fill-rule="evenodd" clip-rule="evenodd" d="M64.7613 53.5829C60.9402 53.4823 57.9811 53.8702 55.496 54.9188C54.7777 55.2061 53.6286 55.2061 53.5424 56.1111C53.9302 56.4989 53.9733 57.1166 54.3037 57.6481C54.8783 58.6105 55.8838 59.889 56.7888 60.5642C57.7944 61.3255 58.7999 62.0868 59.8485 62.762C61.7159 63.9112 63.8132 64.5719 65.6232 65.7211C66.6718 66.3963 67.7204 67.2438 68.7834 67.962C69.3006 68.3499 69.6453 68.9676 70.3061 69.1974V69.0538C69.9757 68.6228 69.8752 68.0051 69.5448 67.5167C69.0707 67.0427 68.5823 66.6117 68.1083 66.1377C66.7149 64.2703 65.0055 62.6471 63.1381 61.3111C61.601 60.2625 58.2684 58.826 57.6507 57.0591C57.6507 57.0591 57.6076 57.0017 57.5501 56.9586C58.5988 56.858 59.8485 56.4845 60.8541 56.1829C62.4773 55.7519 63.9569 55.8525 65.6232 55.4216C66.3845 55.2348 67.1602 54.9906 67.9215 54.7464V54.3155C67.0597 53.4536 66.442 52.3044 65.537 51.5C63.1093 49.4027 60.4231 47.3485 57.6507 45.6248C56.1711 44.6623 54.2606 44.0446 52.6805 43.2402C52.1059 42.9529 51.1578 42.8093 50.8131 42.3352C49.9512 41.2866 49.4771 39.9076 48.8594 38.6578C47.4804 36.0291 46.1301 33.113 44.9379 30.3406C44.076 28.4732 43.5445 26.6201 42.4958 24.8963C37.5687 16.7659 32.225 11.8531 24.0083 7.02652C22.2415 6.02098 20.1442 5.59004 17.8889 5.07291C16.6966 5.01545 15.5044 4.92926 14.2977 4.88616C13.5364 4.55577 12.7607 3.63643 12.0999 3.20548C9.37059 1.49607 2.36057 -2.22442 0.349493 2.70271C-0.94334 5.80551 2.26001 8.86522 3.3661 10.431C4.1849 11.5227 5.23353 12.7724 5.79375 14.0078C6.12414 14.8266 6.2247 15.6741 6.55509 16.536C7.31642 18.6333 8.03466 20.9747 9.0402 22.9427C9.5717 23.9483 10.1319 24.9969 10.8071 25.9019C11.1949 26.4334 11.8557 26.6632 11.9994 27.5251C11.3386 28.4732 11.2811 29.9097 10.8933 31.1019C9.16948 36.5031 9.84463 43.1827 12.2866 47.1474C13.048 48.3397 14.8723 50.9685 17.3 49.9629C19.4547 49.101 18.9663 46.3861 19.5983 43.9872C19.742 43.4126 19.6414 43.0247 19.9287 42.6512V42.7518C20.6039 44.0877 21.2647 45.3806 21.8823 46.7165C23.3619 49.0579 25.9476 51.5 28.0879 53.1088C29.2371 53.9707 30.1421 55.4503 31.5786 55.9818V55.8381H31.478C31.1907 55.4072 30.7598 55.2204 30.3719 54.8901C29.5101 54.0282 28.562 52.9795 27.8868 52.0171C25.8758 49.3452 24.1089 46.3861 22.5431 43.3264C21.7818 41.8468 21.1066 40.2236 20.489 38.744C20.2017 38.1694 20.2017 37.3075 19.7276 37.0202C19.0094 38.0689 17.9607 38.9739 17.4292 40.2667C16.5243 42.3209 16.4237 44.8491 16.0933 47.4778C15.9066 47.5209 15.9928 47.4778 15.9066 47.5784C14.3839 47.1905 13.8524 45.6248 13.2778 44.2888C11.8413 40.8987 11.6115 35.4401 12.8469 31.5329C13.1773 30.5273 14.6137 27.3814 14.0392 26.419C13.7519 25.4997 12.7894 24.9825 12.2723 24.2643C11.6546 23.3593 10.9794 22.2101 10.5485 21.2046C9.39932 18.5327 8.82473 15.5736 7.58935 12.8874C7.01476 11.6376 6.00923 10.3592 5.2048 9.20997C4.29981 7.91714 3.29428 7.01216 2.57604 5.48949C2.33184 4.95799 2.00145 4.0961 2.3893 3.53587C2.48985 3.14802 2.67659 3.00437 3.06444 2.91819C3.68213 2.38669 5.449 3.06183 6.06669 3.34913C7.83356 4.06737 9.31313 4.74252 10.7927 5.73369C11.4679 6.20773 12.1861 7.12707 13.0336 7.35691H14.0392C15.5618 7.6873 17.2856 7.4431 18.7221 7.88841C21.2503 8.7072 23.5487 9.89948 25.6028 11.1779C31.8659 15.1426 37.0228 20.788 40.5135 27.5251C41.0881 28.6168 41.3323 29.6224 41.8494 30.7715C42.855 33.113 44.0903 35.5119 45.0959 37.7959C46.1014 40.0368 47.0495 42.3352 48.486 44.2026C49.2042 45.2082 52.0628 45.7253 53.3556 46.2568C54.3037 46.6878 55.7976 47.0756 56.6595 47.5927C58.2828 48.5983 59.906 49.7475 61.443 50.8392C62.2044 51.4138 64.5889 52.6061 64.7326 53.5685" fill="#00758F"/>
</g>
<defs>
<clipPath id="clip0_149_10791">
<rect width="70.2439" height="70.2439" fill="white" transform="translate(0.0476074 0.246399)"/>
</clipPath>
</defs>
</svg>
