<svg width="72" height="71" viewBox="0 0 72 71" fill="none" xmlns="http://www.w3.org/2000/svg">
<path d="M10.1982 36.6917V8.33864C10.1982 7.55207 10.2897 7.46061 11.0763 7.46061H57.8497C58.1057 7.44232 58.3253 7.62524 58.3435 7.88133C58.3435 8.00938 58.307 8.13742 58.2155 8.22889L56.3497 10.9361C55.1973 12.6922 53.9717 14.4117 52.7827 16.2226L50.7157 19.2043L47.2401 24.3993L44.8438 27.8748C44.6792 28.0943 44.3682 28.1492 44.1487 27.9846C44.1121 27.948 44.0573 27.9114 44.039 27.8748C42.7585 26.3748 41.4781 24.8749 40.2159 23.3566L39.283 22.2957C38.9537 21.8932 38.6062 21.8932 38.3135 22.2957C37.3989 23.5395 36.4843 24.7834 35.5879 26.0273C35.3867 26.2834 35.4233 26.6492 35.6611 26.8687C36.594 27.8748 37.5269 28.8809 38.4415 29.9053C39.5391 31.0577 40.6366 32.3198 41.7159 33.5271C42.5024 34.4052 43.3439 35.2649 44.0939 36.1612C44.2402 36.399 44.5512 36.4722 44.789 36.3258C44.8621 36.2893 44.917 36.2344 44.9536 36.1612C45.3194 35.6124 45.795 35.1734 46.1792 34.6612C46.5633 34.1491 47.2035 33.5088 47.7157 32.832C48.484 31.8991 49.2157 30.9662 50.0389 30.0516L51.1913 28.6248C52.3437 27.2346 53.5144 25.8627 54.6668 24.4724C55.8192 23.0822 57.2277 21.381 58.5265 19.8262C59.5143 18.6738 60.4655 17.4299 61.4715 16.2775C61.5996 16.1312 61.6727 15.9665 61.8008 15.8202C61.8923 15.6738 62.0569 15.619 62.2032 15.6738C62.3496 15.7287 62.4593 15.8568 62.4593 16.0214C62.4593 16.0946 62.4593 16.1677 62.4593 16.2409V65.2094C62.4593 65.9228 62.3861 65.9959 61.6727 65.9959H10.9848C10.2531 65.9959 10.1982 65.9959 10.1982 65.2094V36.6917ZM24.8138 59.5571C25.6003 59.5571 26.3686 59.4656 27.1369 59.2827C29.2222 59.0632 31.1429 57.9839 32.4051 56.301C33.1917 55.2035 33.6307 53.9047 33.7038 52.5511C33.9599 50.6487 33.3563 48.7463 32.0758 47.3195C31.088 46.35 29.899 45.6183 28.6003 45.1976C27.0089 44.594 25.3443 44.283 23.7162 43.7891C22.9114 43.6245 22.1431 43.2952 21.4663 42.8196C20.8626 42.3623 20.6431 41.5391 20.9358 40.8257C21.1919 40.0575 21.8321 39.4721 22.6187 39.2526C23.0943 39.088 23.5882 39.0331 24.1004 39.0514C25.0333 39.0148 25.9662 39.1429 26.8442 39.4355C28.0881 39.8197 29.2405 40.4599 30.2649 41.2831C30.5941 41.5574 30.8319 41.5209 31.088 41.1367C31.3441 40.7526 31.6734 40.277 31.9661 39.8563L32.9173 38.466C33.1551 38.1917 33.1368 37.7892 32.8624 37.5514C32.0758 36.838 31.1795 36.2344 30.21 35.7954C29.2222 35.3015 28.1613 34.9539 27.0454 34.7893C25.0516 34.4052 23.0028 34.5515 21.0822 35.1917C19.9114 35.5576 18.8505 36.1978 17.9908 37.0575C16.6371 38.4112 15.9054 40.277 15.9969 42.1794C15.9603 44.5757 17.3139 46.7707 19.4724 47.8134C20.7895 48.4536 22.1797 48.9292 23.6065 49.2585C24.1918 49.4048 24.7589 49.5146 25.3626 49.6609C26.2772 49.8987 27.1552 50.2463 27.9783 50.7219C28.8564 51.2341 29.1856 52.3499 28.7283 53.2462C28.3076 54.0877 27.5027 54.6913 26.5698 54.8559C25.1613 55.2035 23.698 55.1303 22.326 54.6547C20.8261 54.2157 19.4541 53.4108 18.3383 52.3316C18.1737 52.1304 17.8993 52.1121 17.6981 52.2584C17.6432 52.295 17.6066 52.3499 17.5883 52.4048L15.6676 55.3864C15.4664 55.6242 15.503 55.9718 15.7408 56.173C16.7103 57.0693 17.8078 57.801 18.9968 58.3498C20.8444 59.1546 22.8382 59.5753 24.8504 59.5388L24.8138 59.5571ZM46.7645 51.6365H52.4717C52.9473 51.6365 53.0571 51.5267 53.0571 51.0511C53.1302 49.1304 52.7461 47.228 51.9778 45.472C51.2461 43.7891 49.9474 42.3989 48.2828 41.594C44.9353 40.0209 40.9476 40.8257 38.4598 43.5696C37.6733 44.4659 37.0513 45.5086 36.6306 46.6427C36.155 48.0695 35.9721 49.5878 36.1001 51.0877C36.1916 53.2462 37.0513 55.3132 38.533 56.8864C38.9903 57.3437 39.4842 57.7461 40.0147 58.112C41.1305 58.8985 42.411 59.3741 43.7646 59.5022C44.7158 59.6119 45.6853 59.5753 46.6365 59.3924C48.3743 59.1546 50.0206 58.4778 51.4291 57.4351C51.7034 57.3254 51.8315 56.9961 51.7034 56.74C51.6852 56.6852 51.6486 56.6486 51.612 56.612C51.173 55.8986 50.734 55.2218 50.2766 54.5267C50.1852 54.3255 49.9474 54.234 49.7462 54.3255C49.7096 54.3255 49.6913 54.362 49.673 54.3803C49.3986 54.5267 49.2157 54.7462 48.9596 54.8925C47.7889 55.551 46.4719 55.8803 45.1365 55.8437C42.978 55.8437 41.1305 54.3072 40.7464 52.1853C40.6366 51.7097 40.6732 51.6548 41.1671 51.6548H46.7828L46.7645 51.6365Z" fill="#43B02A"/>
<path d="M44.7156 48.472H41.0388C40.5998 48.472 40.5449 48.3988 40.6181 47.9781C40.9657 45.6916 43.1059 44.1184 45.3924 44.466C45.9229 44.5391 46.4351 44.7221 46.8924 44.9965C48.0265 45.6733 48.7582 46.844 48.8314 48.161C48.8314 48.4537 48.6484 48.4537 48.4472 48.4537H44.7156V48.472Z" fill="#43B02A"/>
</svg>
