<svg width="30" height="30" viewBox="0 0 30 30" fill="none" xmlns="http://www.w3.org/2000/svg">
<g clip-path="url(#clip0_269_12795)">
<path d="M25.831 4.94116L11.2722 20.6912L29.581 12.2647C29.0516 9.44116 27.7281 6.92646 25.831 4.94116Z" fill="#D9411E"/>
<path d="M15.0222 0.264709C12.9928 0.264709 11.0958 0.661768 9.33107 1.41177L7.38989 17.8676L17.1399 0.44118C16.4781 0.308827 15.7722 0.264709 15.0222 0.264709Z" fill="#D9411E"/>
<path d="M29.7132 13.147L12.375 22.8529L28.6544 20.9117C29.4044 19.1029 29.8456 17.1617 29.8456 15.0882C29.8456 14.4264 29.8015 13.7647 29.7132 13.147Z" fill="#D9411E"/>
<path d="M23.3163 27.3529C25.2575 26.0294 26.8457 24.2647 27.9928 22.2353L12.7722 25.2353L23.3163 27.3529Z" fill="#D9411E"/>
<path d="M18.0663 0.573547L9.5957 18.9706L25.3457 4.41178C23.3163 2.51472 20.8457 1.14708 18.0663 0.573547Z" fill="#D9411E"/>
<path d="M16.3015 29.8235C17.9338 29.6912 19.5221 29.2941 20.9338 28.6765L12.375 27.6617L16.3015 29.8235Z" fill="#D9411E"/>
<path d="M1.52216 9C0.860396 10.4559 0.419218 12.0882 0.286865 13.7647L2.58098 17.8676L1.52216 9Z" fill="#D9411E"/>
<path d="M8.05158 1.98529C5.97805 3.08823 4.16923 4.72058 2.8457 6.66176L5.00747 17.4706L8.05158 1.98529Z" fill="#D9411E"/>
</g>
<defs>
<clipPath id="clip0_269_12795">
<rect width="30" height="30" fill="white"/>
</clipPath>
</defs>
</svg>
