<svg width="30" height="30" viewBox="0 0 30 30" fill="none" xmlns="http://www.w3.org/2000/svg">
<g clip-path="url(#clip0_269_12779)">
<path d="M15.1465 29.8078C12.7239 29.809 10.3377 29.2189 8.1948 28.0887C6.05195 26.9586 4.21727 25.3226 2.85001 23.3227C1.48274 21.3228 0.624195 19.0195 0.348886 16.6126C0.0735776 14.2057 0.389824 11.7679 1.27018 9.51095C2.15053 7.25397 3.56839 5.24593 5.4007 3.66112C7.23301 2.07631 9.42441 0.962607 11.7847 0.416676C14.145 -0.129255 16.6028 -0.09092 18.945 0.528354C21.2871 1.14763 23.4427 2.32913 25.2247 3.97031L21.7043 7.66406C20.2993 6.39724 18.5571 5.56499 16.6887 5.26809C14.8203 4.9712 12.906 5.22241 11.1774 5.9913C9.44893 6.76019 7.98043 8.01377 6.9498 9.6002C5.91918 11.1866 5.37065 13.0379 5.37065 14.9297C5.37065 16.8215 5.91918 18.6727 6.9498 20.2592C7.98043 21.8456 9.44893 23.0992 11.1774 23.8681C12.906 24.637 14.8203 24.8882 16.6887 24.5913C18.5571 24.2944 20.2993 23.4621 21.7043 22.1953L25.2247 25.875C22.4798 28.4073 18.8811 29.8116 15.1465 29.8078ZM27.1278 22.3594C26.8046 22.3594 26.4946 22.231 26.266 22.0024C26.0374 21.7739 25.909 21.4639 25.909 21.1406C25.909 20.8174 26.0374 20.5074 26.266 20.2788C26.4946 20.0503 26.8046 19.9219 27.1278 19.9219C27.451 19.9219 27.761 20.0503 27.9896 20.2788C28.2181 20.5074 28.3465 20.8174 28.3465 21.1406C28.3465 21.4639 28.2181 21.7739 27.9896 22.0024C27.761 22.231 27.451 22.3594 27.1278 22.3594Z" fill="#E03875"/>
<path d="M15.0524 18.1453C14.1971 18.1453 13.3768 17.8055 12.772 17.2007C12.1672 16.5959 11.8274 15.7756 11.8274 14.9203C11.8274 14.065 12.1672 13.2447 12.772 12.6399C13.3768 12.0351 14.1971 11.6953 15.0524 11.6953C15.9077 11.6953 16.728 12.0351 17.3328 12.6399C17.9376 13.2447 18.2774 14.065 18.2774 14.9203C18.2774 15.7756 17.9376 16.5959 17.3328 17.2007C16.728 17.8055 15.9077 18.1453 15.0524 18.1453ZM28.529 18.1922C28.2879 18.1922 28.0523 18.1207 27.8519 17.9868C27.6514 17.8529 27.4952 17.6625 27.403 17.4398C27.3107 17.2171 27.2866 16.9721 27.3336 16.7357C27.3806 16.4993 27.4967 16.2821 27.6672 16.1117C27.8376 15.9412 28.0548 15.8251 28.2912 15.7781C28.5276 15.7311 28.7727 15.7552 28.9953 15.8475C29.218 15.9397 29.4084 16.0959 29.5423 16.2963C29.6762 16.4968 29.7477 16.7324 29.7477 16.9734C29.7465 17.2963 29.6177 17.6056 29.3894 17.8339C29.1611 18.0622 28.8518 18.191 28.529 18.1922ZM24.9013 18.0516C24.5781 18.0516 24.2681 17.9232 24.0395 17.6946C23.811 17.4661 23.6825 17.1561 23.6825 16.8328C23.6825 16.5096 23.811 16.1996 24.0395 15.971C24.2681 15.7425 24.5781 15.6141 24.9013 15.6141C25.2245 15.6141 25.5345 15.7425 25.7631 15.971C25.9916 16.1996 26.12 16.5096 26.12 16.8328C26.12 17.1561 25.9916 17.4661 25.7631 17.6946C25.5345 17.9232 25.2245 18.0516 24.9013 18.0516ZM28.529 14.0906C28.2879 14.0906 28.0523 14.0192 27.8519 13.8852C27.6514 13.7513 27.4952 13.561 27.403 13.3383C27.3107 13.1156 27.2866 12.8705 27.3336 12.6341C27.3806 12.3977 27.4967 12.1805 27.6672 12.0101C27.8376 11.8397 28.0548 11.7236 28.2912 11.6766C28.5276 11.6295 28.7727 11.6537 28.9953 11.7459C29.218 11.8382 29.4084 11.9944 29.5423 12.1948C29.6762 12.3952 29.7477 12.6308 29.7477 12.8719C29.7465 13.1947 29.6177 13.504 29.3894 13.7323C29.1611 13.9606 28.8518 14.0894 28.529 14.0906ZM24.9013 14.2313C24.5781 14.2313 24.2681 14.1029 24.0395 13.8743C23.811 13.6457 23.6825 13.3357 23.6825 13.0125C23.6825 12.6893 23.811 12.3793 24.0395 12.1507C24.2681 11.9222 24.5781 11.7938 24.9013 11.7938C25.2245 11.7938 25.5345 11.9222 25.7631 12.1507C25.9916 12.3793 26.12 12.6893 26.12 13.0125C26.12 13.3357 25.9916 13.6457 25.7631 13.8743C25.5345 14.1029 25.2245 14.2313 24.9013 14.2313ZM27.1977 9.98907C26.8745 9.98907 26.5645 9.86067 26.3359 9.63211C26.1074 9.40355 25.979 9.09356 25.979 8.77032C25.979 8.44709 26.1074 8.1371 26.3359 7.90854C26.5645 7.67998 26.8745 7.55157 27.1977 7.55157C27.5209 7.55157 27.8309 7.67998 28.0595 7.90854C28.2881 8.1371 28.4165 8.44709 28.4165 8.77032C28.4165 9.09356 28.2881 9.40355 28.0595 9.63211C27.8309 9.86067 27.5209 9.98907 27.1977 9.98907Z" fill="#E03875"/>
</g>
<defs>
<clipPath id="clip0_269_12779">
<rect width="30" height="30" fill="white"/>
</clipPath>
</defs>
</svg>
