<svg width="21" height="30" viewBox="0 0 21 30" fill="none" xmlns="http://www.w3.org/2000/svg">
<path fill-rule="evenodd" clip-rule="evenodd" d="M7.25321 21.533C8.45557 23.0149 10.3545 24.1437 13.1635 24.2854L18.8779 24.5738L18.6375 29.3374L12.9231 29.0491C8.82373 28.8422 5.64234 27.1179 3.54932 24.5382C1.49186 22.0025 0.592965 18.7766 0.731585 15.6726C0.87022 12.5682 2.05381 9.4357 4.35742 7.10829C6.70129 4.7402 10.0609 3.35427 14.2072 3.56348L13.9668 8.32713C11.0867 8.18181 9.07556 9.12172 7.74741 10.4636C6.379 11.8461 5.58932 13.8078 5.49654 15.8854C5.40375 17.9633 6.01529 20.0073 7.25321 21.533Z" fill="url(#paint0_angular_1030_68536)"/>
<path d="M15.7295 3.11282C16.3943 3.25127 16.7307 3.99796 16.394 4.58768L12.1282 12.0582C11.7229 12.7679 10.6837 12.7182 10.348 11.9732L6.19185 2.74868C5.85614 2.0036 6.50741 1.19228 7.30746 1.3589L15.7295 3.11282Z" fill="#8A67F6"/>
<defs>
<radialGradient id="paint0_angular_1030_68536" cx="0" cy="0" r="1" gradientUnits="userSpaceOnUse" gradientTransform="translate(16.9047 16.3554) rotate(-87.1115) scale(18.6019 19.5927)">
<stop stop-color="white"/>
<stop offset="0.5" stop-color="white"/>
<stop offset="1" stop-color="#6638F2"/>
</radialGradient>
</defs>
</svg>
