<svg width="261" height="211" viewBox="0 0 261 211" fill="none" xmlns="http://www.w3.org/2000/svg">
<g style="mix-blend-mode:multiply" opacity="0.8">
<g opacity="0.03">
<path d="M136.998 60.9673L251.326 135.207C260.433 138.89 259.853 153.89 250.434 160.944L167.979 205.921C167.979 205.921 164.274 207.929 164.229 207.952C161.953 209.224 158.27 209.179 156.038 207.862L54.1195 134.225C51.8428 132.908 51.8428 130.765 54.0972 129.448C54.0972 129.448 55.1463 128.556 55.1686 128.556L136.975 60.9897L136.998 60.9673Z" fill="#FCFDFE"/>
</g>
<g opacity="0.06">
<path d="M134.989 62.1727L249.407 136.301C258.224 139.872 257.041 154.694 247.956 161.502L166.462 206.01C166.462 206.01 162.823 207.974 162.757 207.996C160.502 209.224 156.864 209.179 154.654 207.885L52.468 134.538C50.2136 133.221 50.1912 131.1 52.401 129.783C52.401 129.783 53.4501 128.913 53.4724 128.89L135.011 62.1504L134.989 62.1727Z" fill="#FAFAFD"/>
</g>
<g opacity="0.1">
<path d="M133.003 63.378L247.51 137.395C256.014 140.832 254.273 155.519 245.501 162.082L164.944 206.121C164.944 206.121 161.373 208.041 161.284 208.063C159.029 209.269 155.458 209.202 153.27 207.907L50.7941 134.828C48.5397 133.533 48.5174 131.413 50.7048 130.118C50.7271 130.096 51.7316 129.27 51.7762 129.248L133.047 63.3556L133.003 63.378Z" fill="#F7F8FC"/>
</g>
<g opacity="0.13">
<path d="M130.993 64.5833L245.59 138.488C253.804 141.814 251.482 156.323 243 162.662L163.381 206.255C163.381 206.255 159.877 208.153 159.743 208.153C157.511 209.313 153.984 209.246 151.819 207.974L49.0525 135.185C46.8204 133.89 46.7757 131.792 48.9186 130.498C48.9409 130.475 49.923 129.649 49.9676 129.627L130.993 64.5833Z" fill="#F5F6FC"/>
</g>
<g opacity="0.16">
<path d="M128.985 65.7887L243.671 139.582C251.573 142.774 248.671 157.149 240.524 163.243L161.842 206.367C161.731 206.434 158.405 208.22 158.248 208.242C156.016 209.38 152.557 209.291 150.414 208.041L47.3572 135.542C45.1251 134.27 45.0805 132.194 47.201 130.877C47.2456 130.832 48.1831 130.051 48.2501 130.006L129.008 65.7887H128.985Z" fill="#F2F4FB"/>
</g>
<g opacity="0.19">
<path d="M126.975 66.994L241.75 140.676C249.34 143.756 245.88 157.952 238.023 163.823L160.278 206.479C160.122 206.568 156.908 208.287 156.707 208.309C154.497 209.403 151.06 209.313 148.939 208.063L45.5926 135.855C43.3605 134.582 43.3159 132.529 45.4141 131.212C45.4587 131.167 46.3962 130.386 46.4632 130.341L126.953 66.9717L126.975 66.994Z" fill="#F0F1FA"/>
</g>
<g opacity="0.23">
<path d="M124.989 68.1993L239.854 141.77C247.153 144.716 243.09 158.756 235.568 164.403L158.761 206.612C158.583 206.702 155.458 208.376 155.235 208.398C153.025 209.47 149.654 209.38 147.556 208.13L43.9192 136.212C41.7094 134.962 41.6425 132.908 43.696 131.614C43.763 131.547 44.6558 130.81 44.7451 130.765L124.989 68.2217V68.1993Z" fill="#EDEFF9"/>
</g>
<g opacity="0.26">
<path d="M122.979 69.4047L237.933 142.863C244.92 145.698 240.299 159.582 233.089 164.984L157.22 206.724C157.019 206.836 153.983 208.443 153.738 208.465C151.55 209.492 148.225 209.403 146.149 208.153L42.2216 136.524C40.0119 135.274 39.9449 133.243 41.9761 131.948C42.0431 131.881 42.9136 131.167 43.0252 131.1L123.002 69.4047H122.979Z" fill="#EBEDF8"/>
</g>
<g opacity="0.29">
<path d="M120.972 70.61L236.014 143.957C242.711 146.658 237.488 160.385 230.59 165.564L155.659 206.836C155.435 206.97 152.489 208.51 152.199 208.554C150.011 209.559 146.752 209.447 144.699 208.22L40.4817 136.881C38.2942 135.654 38.2049 133.622 40.1915 132.328C40.2584 132.261 41.129 131.547 41.2183 131.48L120.927 70.61H120.972Z" fill="#E8EAF7"/>
</g>
<g opacity="0.32">
<path d="M118.962 71.8154L234.094 145.051C240.478 147.64 234.697 161.211 228.112 166.144L154.118 206.97C153.872 207.104 151.015 208.599 150.703 208.644C148.537 209.604 145.301 209.492 143.292 208.264L38.7847 137.216C36.5972 135.989 36.5079 134.002 38.4722 132.685C38.5614 132.596 39.3873 131.926 39.4989 131.859L118.962 71.8377V71.8154Z" fill="#E6E8F6"/>
</g>
<g opacity="0.35">
<path d="M116.976 73.0207L232.197 146.145C238.268 148.6 231.907 162.015 225.635 166.725L152.578 207.081C152.31 207.237 149.542 208.666 149.207 208.711C147.042 209.648 143.873 209.514 141.886 208.309L37.0884 137.551C34.9233 136.346 34.8117 134.359 36.7313 133.064C36.8206 132.975 37.6241 132.306 37.7581 132.239L116.953 73.0654L116.976 73.0207Z" fill="#E3E6F5"/>
</g>
<g opacity="0.39">
<path d="M114.967 74.2037L230.278 147.216C236.059 149.56 229.117 162.818 223.158 167.26L151.06 207.148C150.77 207.327 148.092 208.688 147.712 208.733C145.569 209.626 142.444 209.492 140.48 208.286L35.3925 137.819C33.2274 136.613 33.1158 134.649 35.0131 133.355C35.1024 133.265 35.8836 132.618 36.0398 132.529L114.967 74.1814V74.2037Z" fill="#E1E4F5"/>
</g>
<g opacity="0.42">
<path d="M112.957 75.409L228.357 148.31C233.826 150.52 226.326 163.622 220.679 167.841L149.519 207.26C149.207 207.438 146.618 208.755 146.216 208.822C144.073 209.693 141.015 209.536 139.073 208.353L33.6952 138.176C31.5524 136.993 31.4185 135.029 33.2711 133.734C33.3827 133.622 34.1416 132.997 34.2979 132.908L112.98 75.409H112.957Z" fill="#DEE1F4"/>
</g>
<g opacity="0.45">
<path d="M110.949 76.6144L226.438 149.403C231.595 151.502 223.514 164.426 218.18 168.421L147.957 207.394C147.623 207.595 145.123 208.845 144.676 208.912C142.556 209.737 139.542 209.581 137.623 208.398L31.9769 138.488C29.8341 137.328 29.7002 135.386 31.5305 134.091C31.6421 133.98 32.3787 133.377 32.535 133.288L110.949 76.6144Z" fill="#DCDFF3"/>
</g>
<g opacity="0.48">
<path d="M108.962 77.8198L224.541 150.497C229.407 152.462 220.747 165.251 215.724 169.001L146.44 207.505C146.082 207.706 143.672 208.912 143.203 208.979C141.083 209.782 138.114 209.604 136.239 208.443L30.3029 138.823C28.1824 137.663 28.0262 135.743 29.8119 134.448C29.9235 134.337 30.6378 133.756 30.8163 133.645L108.962 77.8198Z" fill="#D9DDF2"/>
</g>
<g opacity="0.52">
<path d="M106.954 79.0251L222.622 151.591C227.176 153.444 217.935 166.055 213.225 169.582L144.878 207.617C144.476 207.84 142.177 208.978 141.686 209.045C139.588 209.804 136.664 209.626 134.811 208.465L28.5848 139.136C26.4643 137.997 26.3081 136.078 28.0714 134.783C28.2053 134.649 28.875 134.091 29.0759 133.98L106.976 78.9804L106.954 79.0251Z" fill="#D7DAF1"/>
</g>
<g opacity="0.55">
<path d="M104.945 80.2304L220.702 152.685C224.966 154.403 215.144 166.881 210.747 170.162L143.337 207.751C142.913 207.996 140.704 209.068 140.168 209.157C138.07 209.894 135.213 209.693 133.382 208.554L26.866 139.515C24.7455 138.377 24.5892 136.48 26.3079 135.185C26.4419 135.051 27.1115 134.515 27.3124 134.404L104.945 80.2527V80.2304Z" fill="#D4D8F0"/>
</g>
<g opacity="0.58">
<path d="M102.936 81.4358L218.782 153.778C222.733 155.386 212.332 167.684 208.269 170.742L141.797 207.862C141.351 208.108 139.23 209.135 138.672 209.224C136.596 209.916 133.784 209.715 131.976 208.577L25.1693 139.828C23.0711 138.712 22.8925 136.837 24.5889 135.542C24.7452 135.386 25.3702 134.872 25.5934 134.761L102.958 81.4581L102.936 81.4358Z" fill="#D2D6EF"/>
</g>
<g opacity="0.61">
<path d="M100.95 82.6411L216.885 154.872C220.524 156.345 209.564 168.488 205.792 171.323L140.257 207.974C139.788 208.242 137.757 209.224 137.177 209.291C135.101 209.961 132.333 209.737 130.57 208.621L23.4732 140.163C21.375 139.046 21.1964 137.194 22.8482 135.899C23.0044 135.743 23.6071 135.252 23.8303 135.118L100.95 82.6411Z" fill="#CFD3EE"/>
</g>
<g opacity="0.65">
<path d="M98.9411 83.8464L214.966 155.966C218.314 157.327 206.752 169.314 203.315 171.903L138.717 208.086C138.226 208.376 136.284 209.291 135.659 209.358C133.606 209.983 130.883 209.76 129.142 208.644L21.7548 140.475C19.6789 139.381 19.478 137.529 21.1075 136.234C21.2637 136.078 21.8441 135.609 22.0896 135.453L98.9411 83.8241V83.8464Z" fill="#CDD1EE"/>
</g>
<g opacity="0.68">
<path d="M96.9307 85.0517L213.045 157.06C216.081 158.287 203.96 170.117 200.813 172.483L137.153 208.219C136.64 208.51 134.787 209.38 134.14 209.469C132.086 210.072 129.43 209.827 127.712 208.733L20.0346 140.854C17.9587 139.761 17.7578 137.93 19.3426 136.636C19.5212 136.457 20.0792 136.011 20.3247 135.877L96.9084 85.074L96.9307 85.0517Z" fill="#CACFED"/>
</g>
<g opacity="0.71">
<path d="M94.923 86.2571L211.127 158.153C213.872 159.269 201.171 170.943 198.337 173.042L135.637 208.309C135.101 208.621 133.338 209.425 132.668 209.514C130.637 210.072 128.025 209.827 126.329 208.755L18.3617 141.167C16.3081 140.096 16.0849 138.265 17.6474 136.993C17.826 136.814 18.3617 136.39 18.6295 136.234L94.9677 86.2794L94.923 86.2571Z" fill="#C8CDEC"/>
</g>
<g opacity="0.74">
<path d="M92.9356 87.4624L209.229 159.247C211.662 160.229 198.381 171.747 195.881 173.622L134.118 208.42C133.56 208.733 131.886 209.492 131.172 209.581C129.14 210.117 126.574 209.849 124.922 208.778L16.6645 141.479C14.6109 140.408 14.3877 138.622 15.9056 137.328C16.0841 137.149 16.5975 136.725 16.8877 136.569L92.958 87.4401L92.9356 87.4624Z" fill="#C5CAEB"/>
</g>
<g opacity="0.77">
<path d="M90.9268 88.6678L207.309 160.341C209.429 161.211 195.59 172.573 193.381 174.202L132.556 208.554C131.975 208.889 130.39 209.581 129.654 209.671C127.645 210.184 125.123 209.894 123.493 208.845L14.9458 141.837C12.9146 140.788 12.669 139.002 14.1645 137.707C14.3654 137.506 14.8342 137.127 15.1243 136.948L90.9268 88.6678Z" fill="#C3C8EA"/>
</g>
<g opacity="0.81">
<path d="M88.919 89.8732L205.39 161.435C207.221 162.171 192.779 173.376 190.904 174.783L131.017 208.666C130.414 209.023 128.941 209.648 128.137 209.76C126.128 210.229 123.673 209.938 122.044 208.889L13.2282 142.149C11.197 141.1 10.9514 139.337 12.4023 138.042C12.6032 137.841 13.0719 137.484 13.3621 137.306L88.8967 89.8509L88.919 89.8732Z" fill="#C0C6E9"/>
</g>
<g opacity="0.84">
<path d="M86.9086 91.0785L203.469 162.528C204.987 163.153 189.987 174.18 188.425 175.363L129.475 208.778C128.828 209.135 127.466 209.715 126.64 209.827C124.631 210.273 122.243 209.983 120.636 208.934L11.5303 142.484C9.49907 141.457 9.23122 139.694 10.6821 138.422C10.883 138.221 11.3294 137.863 11.6419 137.685L86.931 91.0785H86.9086Z" fill="#BEC3E8"/>
</g>
<g opacity="0.87">
<path d="M84.9007 92.2838L201.551 163.622C202.756 164.113 187.176 175.006 185.926 175.943L127.913 208.889C127.244 209.269 125.972 209.782 125.123 209.894C123.137 210.295 120.793 210.005 119.208 208.956L9.81256 142.796C7.80366 141.77 7.51349 140.051 8.94204 138.756C9.16525 138.533 9.56703 138.221 9.90185 138.02L84.923 92.2615L84.9007 92.2838Z" fill="#BBC1E7"/>
</g>
<g opacity="0.9">
<path d="M82.9137 93.4891L199.653 164.716C200.568 165.095 184.408 175.809 183.47 176.524L126.395 209.023C125.703 209.425 124.52 209.871 123.627 210.005C121.641 210.385 119.342 210.072 117.802 209.045L8.11576 143.176C6.10686 142.171 5.81669 140.453 7.2006 139.158C7.42381 138.935 7.82559 138.622 8.16041 138.444L82.9137 93.5115V93.4891Z" fill="#B9BFE7"/>
</g>
<g opacity="0.94">
<path d="M80.9048 94.6945L197.733 165.809C198.336 166.055 181.595 176.635 180.97 177.104L124.833 209.135C124.118 209.537 123.025 209.938 122.109 210.072C120.145 210.407 117.891 210.072 116.373 209.068L6.39696 143.488C4.41038 142.484 4.09789 140.788 5.45948 139.493C5.70501 139.247 6.06214 138.98 6.39696 138.779L80.9048 94.6945Z" fill="#B6BDE6"/>
</g>
<g opacity="0.97">
<path d="M78.8966 95.8998L195.815 166.903C196.127 167.037 178.806 177.439 178.493 177.684L123.293 209.246C122.557 209.67 121.552 210.005 120.615 210.139C118.651 210.452 116.463 210.117 114.968 209.112L4.70132 143.823C2.71475 142.841 2.40224 141.145 3.71919 139.872C3.96472 139.627 4.29955 139.359 4.65669 139.158L78.8966 95.8998Z" fill="#B4BAE5"/>
</g>
<path d="M76.8875 97.1052L193.895 167.997L121.753 209.358C119.476 210.653 115.748 210.63 113.539 209.157L2.98233 144.158C0.616294 142.997 0.638617 140.832 2.91537 139.515L76.8875 97.1052Z" fill="#B1B8E4"/>
</g>
<path d="M229.295 69.7395C229.295 69.5832 229.295 69.427 229.295 69.2707C229.295 69.2707 229.295 69.2484 229.295 69.2261C229.295 69.1815 229.295 69.1368 229.295 69.0922C229.295 68.9582 229.295 68.8243 229.295 68.7127C229.295 68.6681 229.295 68.6234 229.295 68.5565C229.295 68.4449 229.295 68.3333 229.272 68.244C229.272 68.177 229.272 68.0877 229.25 68.0208C229.25 67.9761 229.25 67.9315 229.228 67.8645C229.205 67.7083 229.183 67.552 229.138 67.3735C229.138 67.2618 229.094 67.1726 229.072 67.061C229.027 66.9047 228.982 66.7261 228.938 66.5699C228.938 66.5029 228.893 66.436 228.871 66.369C228.871 66.3244 228.848 66.2797 228.826 66.2351C228.826 66.2351 228.826 66.2128 228.826 66.1904C228.826 66.1904 228.826 66.1681 228.826 66.1458C228.804 66.0565 228.759 65.9895 228.737 65.9226C228.67 65.7663 228.625 65.6101 228.558 65.4538C228.513 65.3646 228.469 65.2753 228.424 65.186C228.357 65.0521 228.29 64.9181 228.223 64.7842C228.223 64.7842 228.223 64.7396 228.201 64.7396C228.156 64.6503 228.112 64.5833 228.067 64.494C228 64.3824 227.933 64.2485 227.844 64.1369C227.844 64.1369 227.844 64.0923 227.822 64.0923C227.71 63.936 227.598 63.7798 227.487 63.6235C227.487 63.6235 227.464 63.5789 227.442 63.5565C227.353 63.4449 227.264 63.3333 227.174 63.2217C227.13 63.1771 227.107 63.1324 227.063 63.1101C227.018 63.0655 226.996 63.0432 226.951 62.9985C226.929 62.9762 226.884 62.9316 226.862 62.9092C226.772 62.7976 226.661 62.7083 226.572 62.6191C226.572 62.6191 226.549 62.5967 226.527 62.5744C226.505 62.5744 226.482 62.5298 226.46 62.5075C226.393 62.4628 226.348 62.3959 226.281 62.3512C226.192 62.2619 226.08 62.195 225.991 62.128C225.991 62.128 225.969 62.128 225.947 62.1057C225.88 62.0387 225.79 61.9941 225.701 61.9494C225.612 61.8825 225.255 61.6816 225.165 61.6146L217.844 61.8601C218.045 61.9717 218.469 62.2396 218.648 62.3735C218.648 62.3735 218.67 62.3735 218.692 62.3958C218.871 62.5298 219.027 62.6637 219.183 62.7976C219.206 62.7976 219.228 62.8423 219.25 62.8646C219.406 62.9985 219.54 63.1548 219.674 63.2887C219.719 63.3333 219.741 63.3557 219.786 63.4003C219.92 63.5565 220.054 63.6905 220.165 63.8467C220.165 63.8467 220.188 63.869 220.21 63.8914C220.344 64.0699 220.456 64.2485 220.589 64.4271C220.656 64.5387 220.723 64.6726 220.813 64.7842C220.857 64.8735 220.924 64.9628 220.969 65.0744C221.036 65.2083 221.103 65.3422 221.17 65.4762C221.214 65.5654 221.259 65.6547 221.304 65.7663C221.371 65.9003 221.415 66.0565 221.46 66.1904C221.505 66.302 221.549 66.3913 221.572 66.5029C221.572 66.5029 221.572 66.5029 221.572 66.5253C221.616 66.6369 221.639 66.7708 221.683 66.9047C221.728 67.061 221.773 67.2172 221.817 67.3735C221.839 67.4851 221.862 67.5967 221.884 67.6859C221.906 67.8422 221.951 67.9984 221.973 68.1547C221.973 68.2886 222.018 68.4002 222.018 68.5341C222.018 68.6458 222.04 68.735 222.04 68.8466C222.04 69.0252 222.063 69.2038 222.063 69.3823C222.063 69.427 222.063 69.4716 222.063 69.5163C222.063 69.7395 222.063 69.9627 222.063 70.1859C222.063 70.2306 222.063 70.2529 222.063 70.2975C222.063 70.5207 222.018 70.7439 221.996 70.9671C221.996 70.9895 221.996 71.0341 221.996 71.0564C221.951 71.2796 221.906 71.5029 221.862 71.7261C221.862 71.7261 221.862 71.7707 221.862 71.793C221.795 72.0386 221.683 72.4403 221.594 72.6859L228.893 72.3511C228.893 72.3511 229.005 72.0386 229.027 71.927C229.049 71.8153 229.094 71.7037 229.116 71.5921C229.116 71.5698 229.116 71.5252 229.116 71.5029C229.116 71.5029 229.116 71.4582 229.116 71.4359C229.116 71.3689 229.138 71.302 229.161 71.235C229.183 71.1234 229.205 71.0118 229.228 70.8779C229.228 70.8332 229.228 70.7886 229.228 70.7439C229.228 70.7216 229.228 70.6993 229.228 70.6547C229.228 70.61 229.228 70.5654 229.228 70.5207C229.228 70.3868 229.25 70.2529 229.272 70.1189C229.272 70.0743 229.272 70.0297 229.272 69.985C229.272 69.9404 229.272 69.9181 229.272 69.8734C229.272 69.8065 229.272 69.7618 229.272 69.6948L229.295 69.7395Z" fill="url(#paint0_linear_100_7044)"/>
<path d="M218.023 61.9717C221.282 63.8914 222.866 68.6011 221.572 72.5073L190.478 165.318L74.6096 97.5516L105.703 4.74045C107.02 0.834261 110.725 -0.79518 113.984 1.12443L218.023 61.9717ZM190.456 156.836L219.183 71.1234C219.92 68.9136 218.938 66.1681 216.996 65.0297L112.957 4.18243C110.993 3.04405 108.806 3.91457 108.069 6.12436L79.3417 91.8374C78.6051 94.0472 79.5872 96.7703 81.5292 97.931L185.568 158.778C187.51 159.917 189.719 159.046 190.456 156.836Z" fill="white"/>
<path d="M216.996 65.0297C218.938 66.1681 219.92 68.9136 219.184 71.1234L190.456 156.836C189.72 159.046 187.532 159.917 185.568 158.778L81.5294 97.931C79.5652 96.7926 78.6054 94.0695 79.342 91.8374L108.069 6.12435C108.806 3.91456 110.993 3.02172 112.958 4.18242L216.996 65.0297Z" fill="#361E5B"/>
<path d="M79.3422 91.8375L86.6411 91.5697C86.6411 91.5697 86.5965 91.6813 86.5965 91.7259L79.3198 91.9938C79.3198 91.9938 79.3422 91.8821 79.3645 91.8375H79.3422Z" fill="#B8B8B8"/>
<path d="M79.275 92.0166L86.5517 91.7487C86.5517 91.7487 86.5293 91.8604 86.507 91.9273L79.208 92.1952C79.208 92.1952 79.2303 92.0836 79.2527 92.0166H79.275Z" fill="#BDBDBD"/>
<path d="M79.2316 92.1946L86.5307 91.9267C86.5307 91.9267 86.5083 92.0383 86.486 92.1053L79.187 92.3731C79.187 92.3731 79.2093 92.2392 79.2316 92.1946Z" fill="#C2C2C2"/>
<path d="M79.1871 92.3731L86.4861 92.1053C86.4861 92.1053 86.4638 92.2392 86.4415 92.2838L79.1648 92.5517C79.1648 92.5517 79.1648 92.4178 79.2094 92.3731H79.1871Z" fill="#C7C7C7"/>
<path d="M79.1633 92.5518L86.44 92.2839C86.44 92.2839 86.44 92.4178 86.4176 92.4848L79.1187 92.7526C79.1187 92.7526 79.1186 92.6187 79.141 92.5518H79.1633Z" fill="#CCCCCC"/>
<path d="M79.1188 92.7526L86.4178 92.4847C86.4178 92.4847 86.4177 92.6186 86.3954 92.7079L79.0964 92.9758C79.0964 92.9758 79.0964 92.8419 79.1188 92.7526Z" fill="#D1D1D1"/>
<path d="M79.0964 92.9758L86.3954 92.708C86.3954 92.708 86.3954 92.8642 86.3954 92.9312L79.1188 93.199C79.1188 93.199 79.1188 93.0428 79.1188 92.9758H79.0964Z" fill="#D6D6D6"/>
<path d="M79.0965 93.199L86.3732 92.9312C86.3732 92.9312 86.3732 93.1098 86.3732 93.199L79.0742 93.4669C79.0742 93.4669 79.0742 93.2883 79.0742 93.199H79.0965Z" fill="#DBDBDB"/>
<path d="M79.0964 93.4669L86.3954 93.1991C86.3954 93.1991 86.3954 93.4 86.3954 93.5116L79.1188 93.7794C79.1188 93.7794 79.1188 93.5785 79.1188 93.4669H79.0964Z" fill="#E0E0E0"/>
<path d="M79.0965 93.7571L86.3732 93.4892C86.3732 93.6231 86.3955 93.7571 86.4179 93.891L79.1189 94.1588C79.1189 94.0249 79.0965 93.891 79.0742 93.7794L79.0965 93.7571Z" fill="#E6E6E6"/>
<path d="M79.1421 94.1588L86.4411 93.891C86.4857 94.1588 86.5304 94.4267 86.6197 94.6945L79.343 94.9624C79.276 94.6945 79.2091 94.4267 79.1644 94.1588H79.1421Z" fill="#EBEBEB"/>
<path d="M79.3199 94.9624L86.5966 94.6945C86.5966 94.6945 86.5966 94.7392 86.5966 94.7615L79.2976 95.0293C79.2976 95.0293 79.2976 94.9847 79.2976 94.9624H79.3199Z" fill="#F0F0F0"/>
<path d="M79.3198 95.0294L86.6188 94.7615C86.7304 95.1187 86.8644 95.4758 87.0429 95.7883L79.7439 96.0561C79.5654 95.7213 79.4314 95.3865 79.3198 95.0294Z" fill="#EBEBEB"/>
<path d="M79.7666 96.0561L87.0656 95.7882C87.1326 95.9222 87.2219 96.0561 87.2888 96.1677L80.0121 96.4356C79.9229 96.3016 79.8559 96.19 79.7889 96.0561H79.7666Z" fill="#E6E6E6"/>
<path d="M79.9894 96.4356L87.266 96.1678C87.266 96.1678 87.4 96.3687 87.4669 96.458L80.1679 96.7258C80.1679 96.7258 80.034 96.5249 79.967 96.4356H79.9894Z" fill="#E0E0E0"/>
<path d="M80.1904 96.7258L87.4894 96.4579C87.4894 96.4579 87.6234 96.6142 87.6903 96.7035L80.4136 96.9713C80.4136 96.9713 80.2797 96.8151 80.2128 96.7258H80.1904Z" fill="#DBDBDB"/>
<path d="M80.3917 96.9713L87.6684 96.7034C87.6684 96.7034 87.8023 96.8373 87.8469 96.9043L80.548 97.1722C80.548 97.1722 80.414 97.0382 80.3694 96.9713H80.3917Z" fill="#D6D6D6"/>
<path d="M80.5706 97.1722L87.8696 96.9043C87.8696 96.9043 87.9812 97.0383 88.0481 97.0829L80.7491 97.3508C80.7491 97.3508 80.6152 97.2392 80.5706 97.1722Z" fill="#D1D1D1"/>
<path d="M80.7712 97.373L88.0702 97.1052C88.0702 97.1052 88.1818 97.2168 88.2488 97.2614L80.9498 97.5293C80.9498 97.5293 80.8159 97.4177 80.7712 97.373Z" fill="#CCCCCC"/>
<path d="M80.9502 97.5293L88.2492 97.2615C88.2492 97.2615 88.3608 97.3508 88.4278 97.4177L81.1288 97.6856C81.1288 97.6856 80.9948 97.5963 80.9502 97.5293Z" fill="#C7C7C7"/>
<path d="M81.1284 97.6632L88.4274 97.3954C88.4274 97.3954 88.5614 97.4847 88.606 97.5293L81.307 97.7972C81.307 97.7972 81.1731 97.7079 81.1284 97.6632Z" fill="#C2C2C2"/>
<path d="M81.3296 97.7972L88.6286 97.5294C88.6286 97.5294 88.7625 97.6186 88.8295 97.641L81.5305 97.9088C81.5305 97.9088 81.3966 97.8195 81.3296 97.7972Z" fill="#BDBDBD"/>
<path d="M81.5066 97.9311L88.8056 97.6633L81.5289 97.9311H81.5066Z" fill="#B8B8B8"/>
<path d="M121.261 0.85666C121.261 0.85666 121.06 0.745056 120.971 0.700413C120.859 0.655771 120.77 0.588804 120.659 0.544162C120.614 0.544162 120.592 0.521844 120.547 0.499523C120.547 0.499523 120.502 0.499523 120.48 0.477202C120.435 0.477202 120.391 0.432558 120.346 0.410237C120.234 0.365595 120.123 0.320954 120.011 0.298633C119.944 0.298633 119.877 0.25399 119.81 0.25399C119.788 0.25399 119.766 0.25399 119.743 0.25399C119.721 0.25399 119.699 0.25399 119.676 0.25399C119.565 0.231669 119.431 0.209346 119.319 0.187025C119.23 0.187025 119.163 0.164703 119.074 0.164703C119.051 0.164703 119.007 0.164703 118.984 0.164703C118.984 0.164703 118.94 0.164703 118.917 0.164703C118.784 0.164703 118.627 0.164703 118.493 0.164703C118.426 0.164703 118.337 0.164703 118.27 0.164703L110.971 0.432558C111.217 0.432558 111.44 0.432559 111.685 0.45488C111.708 0.45488 111.752 0.45488 111.775 0.45488C111.998 0.477201 112.221 0.521842 112.444 0.588805C112.467 0.588805 112.489 0.588805 112.511 0.588805C112.735 0.655769 112.958 0.722733 113.203 0.812017C113.226 0.812017 113.248 0.812018 113.27 0.834339C113.516 0.945944 113.761 1.05755 113.985 1.19148L218.023 62.0388L225.322 61.7709L121.284 0.923621L121.261 0.85666Z" fill="#F9FAFF"/>
<path d="M81.5293 97.9311L88.806 97.6632L192.845 158.511L185.568 158.778L81.5293 97.9311Z" fill="#C6C6C6"/>
<path d="M185.568 158.778L192.845 158.511C192.845 158.511 192.956 158.578 193.023 158.622L185.747 158.89C185.747 158.89 185.613 158.823 185.568 158.778Z" fill="#B8B8B8"/>
<path d="M185.748 158.89L193.025 158.623C193.025 158.623 193.159 158.69 193.226 158.712L185.927 158.98C185.927 158.98 185.793 158.913 185.726 158.89H185.748Z" fill="#B3B3B3"/>
<path d="M185.948 158.979L193.247 158.711C193.247 158.711 193.381 158.778 193.448 158.801L186.149 159.069C186.149 159.069 186.015 159.024 185.948 158.979Z" fill="#ADADAD"/>
<path d="M186.149 159.069L193.448 158.801C193.448 158.801 193.582 158.845 193.649 158.868L186.372 159.136C186.372 159.136 186.238 159.091 186.171 159.069H186.149Z" fill="#A8A8A8"/>
<path d="M186.35 159.136L193.627 158.868C193.627 158.868 193.76 158.912 193.85 158.935L186.573 159.202C186.573 159.202 186.439 159.158 186.35 159.136Z" fill="#A3A3A3"/>
<path d="M186.572 159.18L193.849 158.912C193.849 158.912 194.005 158.935 194.072 158.957L186.773 159.225C186.773 159.225 186.617 159.202 186.55 159.18H186.572Z" fill="#9E9E9E"/>
<path d="M186.795 159.247L194.094 158.979C194.094 158.979 194.251 159.002 194.34 159.002L187.063 159.269C187.063 159.269 186.907 159.269 186.818 159.247H186.795Z" fill="#999999"/>
<path d="M187.041 159.269L194.318 159.002C194.318 159.002 194.496 159.002 194.586 159.002L187.287 159.269C187.287 159.269 187.108 159.269 187.019 159.269H187.041Z" fill="#949494"/>
<path d="M187.288 159.292L194.587 159.024C194.587 159.024 194.676 159.024 194.721 159.024L187.422 159.292C187.422 159.292 187.332 159.292 187.288 159.292Z" fill="#8F8F8F"/>
<path d="M194.43 159.827L122.043 200.608C121.865 200.72 121.686 200.787 121.485 200.898C121.418 200.921 121.373 200.943 121.306 200.965C121.15 201.032 120.994 201.077 120.838 201.144C120.771 201.144 120.726 201.188 120.659 201.188C120.548 201.211 120.436 201.255 120.347 201.278C120.257 201.278 120.19 201.322 120.101 201.345C119.99 201.345 119.878 201.389 119.766 201.412C119.699 201.412 119.61 201.434 119.543 201.456C119.32 201.479 119.097 201.523 118.873 201.546C118.807 201.546 118.74 201.546 118.65 201.546C118.516 201.546 118.382 201.546 118.249 201.568C118.159 201.568 118.07 201.568 117.981 201.568C117.869 201.568 117.757 201.568 117.668 201.568C117.579 201.568 117.49 201.568 117.378 201.568C117.289 201.568 117.177 201.568 117.088 201.568C116.999 201.568 116.909 201.568 116.798 201.546C116.708 201.546 116.597 201.546 116.507 201.501C116.418 201.501 116.329 201.479 116.24 201.456C116.128 201.456 116.016 201.412 115.927 201.412C115.838 201.389 115.771 201.367 115.682 201.367C115.548 201.345 115.436 201.3 115.324 201.278C115.257 201.255 115.191 201.233 115.101 201.233C114.878 201.166 114.677 201.099 114.476 201.01C114.365 200.965 114.275 200.921 114.186 200.876C114.141 200.854 114.097 200.831 114.052 200.809C113.896 200.742 113.762 200.675 113.606 200.586L2.11187 135.341C0.951169 134.649 0.370807 133.756 0.370807 132.864C0.370807 134.493 0.348493 139.56 0.326172 141.167C0.326172 142.06 0.884197 142.953 2.06721 143.622L113.048 208.554C113.182 208.644 113.829 209.023 113.985 209.09C114.03 209.112 114.074 209.135 114.119 209.135C114.208 209.179 114.298 209.224 114.387 209.269C114.387 209.269 114.387 209.269 114.432 209.269C114.632 209.358 114.856 209.425 115.057 209.492C115.057 209.492 115.079 209.492 115.101 209.492C115.146 209.492 115.191 209.514 115.235 209.537C115.369 209.559 115.481 209.603 115.615 209.626C115.637 209.626 115.682 209.626 115.704 209.626C115.749 209.626 115.793 209.626 115.86 209.648C115.972 209.648 116.083 209.693 116.173 209.693C116.217 209.693 116.262 209.693 116.307 209.715C116.351 209.715 116.396 209.715 116.463 209.715C116.552 209.737 116.664 209.737 116.753 209.76C116.798 209.76 116.842 209.76 116.909 209.782C116.954 209.782 116.999 209.782 117.043 209.782C117.155 209.782 117.244 209.782 117.356 209.804C117.4 209.804 117.445 209.804 117.49 209.804C117.534 209.804 117.579 209.804 117.601 209.804C117.713 209.804 117.824 209.804 117.936 209.804C117.981 209.804 118.048 209.804 118.092 209.804C118.115 209.804 118.159 209.804 118.182 209.804C118.315 209.804 118.449 209.782 118.606 209.76C118.65 209.76 118.717 209.76 118.762 209.76C118.762 209.76 118.784 209.76 118.807 209.76C119.03 209.737 119.275 209.693 119.498 209.67H119.521C119.588 209.67 119.632 209.648 119.699 209.626C119.811 209.626 119.945 209.581 120.057 209.559C120.146 209.559 120.213 209.514 120.28 209.492C120.369 209.47 120.481 209.447 120.592 209.425C120.592 209.425 120.637 209.425 120.659 209.425C120.704 209.425 120.726 209.38 120.771 209.38C120.927 209.336 121.083 209.269 121.217 209.202C121.284 209.179 121.329 209.157 121.396 209.135C121.597 209.045 121.775 208.956 121.954 208.845L198.515 164.247L194.408 159.76L194.43 159.827Z" fill="#B1B8E4"/>
<path d="M77.3781 86.6142L196.35 158.734L122.98 200.787C120.659 202.104 116.864 202.081 114.543 200.742L2.11135 134.627C-0.210047 133.265 -0.187726 131.078 2.11135 129.739L77.3558 86.6142H77.3781Z" fill="#F9FAFF"/>
<path d="M79.9451 100.81L76.8425 102.574L70.6819 98.9801L73.7622 97.2168L79.9451 100.81Z" fill="#EFF1FE"/>
<path d="M79.9447 100.81L79.9224 101.793L76.842 103.556V102.574L79.9447 100.81Z" fill="url(#paint1_linear_100_7044)"/>
<path d="M74.6778 103.846L68.4949 107.373L62.3342 103.757L68.5172 100.23L74.6778 103.846Z" fill="#EFF1FE"/>
<path d="M74.6773 103.846V104.806L68.4944 108.333V107.373L74.6773 103.846Z" fill="url(#paint2_linear_100_7044)"/>
<path d="M87.1986 105.051L84.1183 106.837L77.9353 103.221L81.0156 101.458L87.1986 105.051Z" fill="#EFF1FE"/>
<path d="M87.1994 105.051V106.034L84.1191 107.797V106.837L87.1994 105.051Z" fill="url(#paint3_linear_100_7044)"/>
<path d="M81.9319 108.087L75.7713 111.614L69.5884 108.02L75.7713 104.471L81.9319 108.087Z" fill="#EFF1FE"/>
<path d="M81.931 108.087V109.047L75.748 112.596L75.7704 111.614L81.931 108.087Z" fill="url(#paint4_linear_100_7044)"/>
<path d="M94.453 109.292L91.3727 111.078L85.1897 107.484L88.2923 105.699L94.453 109.292Z" fill="#EFF1FE"/>
<path d="M94.4543 109.292V110.275L91.374 112.038V111.078L94.4543 109.292Z" fill="url(#paint5_linear_100_7044)"/>
<path d="M89.1856 112.328L83.025 115.855L76.842 112.261L83.025 108.712L89.1856 112.328Z" fill="#EFF1FE"/>
<path d="M89.1859 112.328V113.31L83.0029 116.837L83.0253 115.855L89.1859 112.328Z" fill="url(#paint6_linear_100_7044)"/>
<path d="M101.73 113.556L98.6277 115.319L92.467 111.703L95.5474 109.94L101.73 113.556Z" fill="#EFF1FE"/>
<path d="M101.73 113.556L101.708 114.538L98.6277 116.301V115.319L101.73 113.556Z" fill="url(#paint7_linear_100_7044)"/>
<path d="M96.4628 116.569L90.2799 120.118L84.0969 116.502L90.2799 112.975L96.4628 116.569Z" fill="#EFF1FE"/>
<path d="M96.463 116.569L96.4406 117.551L90.28 121.078V120.118L96.463 116.569Z" fill="url(#paint8_linear_100_7044)"/>
<path d="M108.984 117.797L105.881 119.583L99.7205 115.967L102.801 114.203L108.984 117.797Z" fill="#EFF1FE"/>
<path d="M108.985 117.797V118.779L105.883 120.542V119.582L108.985 117.797Z" fill="url(#paint9_linear_100_7044)"/>
<path d="M103.718 120.833L97.5347 124.359L91.374 120.766L97.5347 117.216L103.718 120.833Z" fill="#EFF1FE"/>
<path d="M103.716 120.832L103.694 121.792L97.5334 125.341V124.359L103.716 120.832Z" fill="url(#paint10_linear_100_7044)"/>
<path d="M116.239 122.06L113.158 123.823L106.975 120.207L110.078 118.444L116.239 122.06Z" fill="#EFF1FE"/>
<path d="M116.24 122.06V123.02L113.137 124.806L113.159 123.823L116.24 122.06Z" fill="url(#paint11_linear_100_7044)"/>
<path d="M110.97 125.073L104.787 128.6L98.6265 125.006L104.787 121.457L110.97 125.073Z" fill="#EFF1FE"/>
<path d="M110.972 125.074V126.056L104.789 129.582V128.6L110.972 125.074Z" fill="url(#paint12_linear_100_7044)"/>
<path d="M123.494 126.301L120.413 128.065L114.253 124.448L117.333 122.685L123.494 126.301Z" fill="#EFF1FE"/>
<path d="M123.493 126.301V127.261L120.391 129.047L120.413 128.064L123.493 126.301Z" fill="url(#paint13_linear_100_7044)"/>
<path d="M118.226 129.314L112.066 132.864L105.883 129.247L112.066 125.698L118.226 129.314Z" fill="#EFF1FE"/>
<path d="M118.225 129.314V130.297L112.042 133.823L112.065 132.863L118.225 129.314Z" fill="url(#paint14_linear_100_7044)"/>
<path d="M71.0385 110.118L64.8556 113.667L55.012 107.886L61.1949 104.359L71.0385 110.118Z" fill="#EFF1FE"/>
<path d="M71.0379 110.118V111.1L64.855 114.627V113.667L71.0379 110.118Z" fill="url(#paint15_linear_100_7044)"/>
<path d="M78.2923 114.382L72.1317 117.908L65.9487 114.292L72.1317 110.743L78.2923 114.382Z" fill="#EFF1FE"/>
<path d="M78.2926 114.382V115.341L72.1096 118.868L72.1319 117.908L78.2926 114.382Z" fill="url(#paint16_linear_100_7044)"/>
<path d="M85.5474 118.623L79.3868 122.149L73.2039 118.556L79.3868 115.007L85.5474 118.623Z" fill="#EFF1FE"/>
<path d="M85.5472 118.623V119.582L79.3643 123.132L79.3866 122.149L85.5472 118.623Z" fill="url(#paint17_linear_100_7044)"/>
<path d="M92.8235 122.864L86.6406 126.413L80.48 122.797L86.6406 119.248L92.8235 122.864Z" fill="#EFF1FE"/>
<path d="M92.8243 122.864L92.802 123.846L86.6414 127.373V126.413L92.8243 122.864Z" fill="url(#paint18_linear_100_7044)"/>
<path d="M100.078 127.105L93.8952 130.654L87.7346 127.038L93.9175 123.511L100.078 127.105Z" fill="#EFF1FE"/>
<path d="M100.078 127.105V128.087L93.8948 131.614V130.654L100.078 127.105Z" fill="url(#paint19_linear_100_7044)"/>
<path d="M107.332 131.346L101.149 134.895L94.9888 131.279L101.172 127.752L107.332 131.346Z" fill="#EFF1FE"/>
<path d="M107.333 131.346V132.328L101.15 135.855V134.895L107.333 131.346Z" fill="url(#paint20_linear_100_7044)"/>
<path d="M67.4004 116.413L61.2398 119.962L47.8025 112.083L53.9854 108.556L67.4004 116.413Z" fill="#EFF1FE"/>
<path d="M67.4002 116.413V117.373L61.2173 120.922L61.2396 119.962L67.4002 116.413Z" fill="url(#paint21_linear_100_7044)"/>
<path d="M56.5085 118.444L50.3479 121.993L40.4819 116.234L46.6649 112.685L56.5085 118.444Z" fill="#EFF1FE"/>
<path d="M56.5072 118.444V119.426L50.3242 122.953L50.3465 121.993L56.5072 118.444Z" fill="url(#paint22_linear_100_7044)"/>
<path d="M74.6772 120.654L68.4942 124.203L62.3113 120.587L68.4942 117.038L74.6772 120.654Z" fill="#EFF1FE"/>
<path d="M74.6774 120.654L74.6551 121.636L68.4722 125.163L68.4945 124.203L74.6774 120.654Z" fill="url(#paint23_linear_100_7044)"/>
<path d="M63.7618 122.685L57.6012 126.234L51.4182 122.618L57.6012 119.091L63.7618 122.685Z" fill="#EFF1FE"/>
<path d="M63.762 122.685V123.667L57.5791 127.216L57.6014 126.234L63.762 122.685Z" fill="url(#paint24_linear_100_7044)"/>
<path d="M81.9311 124.917L75.7481 128.444L69.5652 124.828L75.7481 121.301L81.9311 124.917Z" fill="#EFF1FE"/>
<path d="M81.931 124.917L81.9087 125.877L75.748 129.426V128.444L81.931 124.917Z" fill="url(#paint25_linear_100_7044)"/>
<path d="M71.039 126.948L64.856 130.497L58.6731 126.881L64.856 123.332L71.039 126.948Z" fill="#EFF1FE"/>
<path d="M71.038 126.948L71.0157 127.908L64.8328 131.457L64.8551 130.497L71.038 126.948Z" fill="url(#paint26_linear_100_7044)"/>
<path d="M89.1856 129.158L83.0027 132.685L76.842 129.069L83.025 125.542L89.1856 129.158Z" fill="#EFF1FE"/>
<path d="M89.1859 129.158L89.1636 130.118L83.0029 133.667V132.685L89.1859 129.158Z" fill="url(#paint27_linear_100_7044)"/>
<path d="M78.2935 131.189L72.1106 134.738L65.95 131.122L72.1106 127.573L78.2935 131.189Z" fill="#EFF1FE"/>
<path d="M78.2926 131.189L78.2702 132.172L72.1096 135.698V134.738L78.2926 131.189Z" fill="url(#paint28_linear_100_7044)"/>
<path d="M96.4405 133.399L90.2576 136.948L84.0969 133.332L90.2799 129.783L96.4405 133.399Z" fill="#EFF1FE"/>
<path d="M96.4407 133.399V134.381L90.2578 137.908V136.948L96.4407 133.399Z" fill="url(#paint29_linear_100_7044)"/>
<path d="M85.5474 135.43L79.3645 138.98L73.2039 135.364L79.3868 131.837L85.5474 135.43Z" fill="#EFF1FE"/>
<path d="M85.5472 135.43V136.39L79.3643 139.939V138.979L85.5472 135.43Z" fill="url(#paint30_linear_100_7044)"/>
<path d="M130.747 130.542L127.667 132.305L121.506 128.712L124.587 126.926L130.747 130.542Z" fill="#EFF1FE"/>
<path d="M130.748 130.542V131.502L127.668 133.288V132.306L130.748 130.542Z" fill="url(#paint31_linear_100_7044)"/>
<path d="M125.481 133.555L119.32 137.105L113.137 133.488L119.32 129.962L125.481 133.555Z" fill="#EFF1FE"/>
<path d="M125.48 133.555V134.538L119.297 138.064L119.319 137.105L125.48 133.555Z" fill="url(#paint32_linear_100_7044)"/>
<path d="M118.226 137.73L118.203 138.689L112.043 142.238V141.279L118.226 137.73Z" fill="url(#paint33_linear_100_7044)"/>
<path d="M103.718 137.64L97.5348 141.189L91.3518 137.573L97.5348 134.047L103.718 137.64Z" fill="#EFF1FE"/>
<path d="M103.717 137.64L103.694 138.622L97.5115 142.149L97.5338 141.189L103.717 137.64Z" fill="url(#paint34_linear_100_7044)"/>
<path d="M118.226 137.73L112.043 141.279L104.788 145.43L98.6055 141.814L105.882 137.663L102.244 135.52L108.427 131.993L112.065 134.114L115.145 135.922L118.226 137.73Z" fill="#EFF1FE"/>
<path d="M112.042 141.279V142.238L104.766 146.412L104.788 145.43L112.042 141.279Z" fill="url(#paint35_linear_100_7044)"/>
<path d="M92.8023 139.694L86.6417 143.221L80.4587 139.604L86.6417 136.078L92.8023 139.694Z" fill="#EFF1FE"/>
<path d="M92.8006 139.694V140.654L86.6177 144.203L86.64 143.22L92.8006 139.694Z" fill="url(#paint36_linear_100_7044)"/>
<path d="M103.671 146.055L97.5106 149.582L87.7117 143.868L93.8946 140.319L103.671 146.055Z" fill="#EFF1FE"/>
<path d="M103.671 146.055V147.015L97.4885 150.542L97.5108 149.582L103.671 146.055Z" fill="url(#paint37_linear_100_7044)"/>
<path d="M52.8692 124.739L46.7085 128.265L33.2712 120.408L39.4542 116.882L52.8692 124.739Z" fill="#EFF1FE"/>
<path d="M52.87 124.739V125.699L46.687 129.248L46.7093 128.265L52.87 124.739Z" fill="url(#paint38_linear_100_7044)"/>
<path d="M89.1633 145.966L83.0027 149.515L47.78 128.913L53.963 125.364L89.1633 145.966Z" fill="#EFF1FE"/>
<path d="M89.1637 145.966V146.948L82.9807 150.475L83.003 149.515L89.1637 145.966Z" fill="url(#paint39_linear_100_7044)"/>
<path d="M96.4395 150.229L90.2566 153.756L84.0959 150.162L90.2566 146.613L96.4395 150.229Z" fill="#EFF1FE"/>
<path d="M96.441 150.229L96.4187 151.189L90.2581 154.738V153.756L96.441 150.229Z" fill="url(#paint40_linear_100_7044)"/>
<path d="M144.542 138.622L141.461 140.386L135.301 136.77L138.381 135.006L144.542 138.622Z" fill="#EFF1FE"/>
<path d="M144.542 138.622V139.582L141.462 141.368V140.386L144.542 138.622Z" fill="url(#paint41_linear_100_7044)"/>
<path d="M141.461 140.386V141.368L135.279 137.752L135.301 136.77L141.461 140.386Z" fill="#FDFCFF"/>
<path d="M139.274 141.636L133.114 145.185L126.931 141.569L133.114 138.02L139.274 141.636Z" fill="#EFF1FE"/>
<path d="M139.275 141.636V142.618L133.092 146.145L133.114 145.185L139.275 141.636Z" fill="url(#paint42_linear_100_7044)"/>
<path d="M133.114 145.185L133.092 146.145L126.931 142.529V141.569L133.114 145.185Z" fill="#FDFCFF"/>
<path d="M151.82 142.863L148.718 144.627L142.557 141.011L145.637 139.247L151.82 142.863Z" fill="#EFF1FE"/>
<path d="M151.819 142.863L151.797 143.823L148.717 145.609V144.627L151.819 142.863Z" fill="url(#paint43_linear_100_7044)"/>
<path d="M148.716 144.627V145.609L142.533 141.993L142.556 141.011L148.716 144.627Z" fill="#FDFCFF"/>
<path d="M146.551 145.877L140.368 149.426L134.208 145.81L140.368 142.283L146.551 145.877Z" fill="#EFF1FE"/>
<path d="M146.551 145.877L146.528 146.837L140.345 150.386L140.368 149.426L146.551 145.877Z" fill="url(#paint44_linear_100_7044)"/>
<path d="M140.369 149.426L140.346 150.386L134.186 146.77L134.208 145.81L140.369 149.426Z" fill="#FDFCFF"/>
<path d="M132.019 145.787L125.836 149.337L119.676 145.72L125.836 142.194L132.019 145.787Z" fill="#EFF1FE"/>
<path d="M132.02 145.787V146.77L125.837 150.319V149.336L132.02 145.787Z" fill="url(#paint45_linear_100_7044)"/>
<path d="M125.836 149.336V150.319L119.676 146.703V145.72L125.836 149.336Z" fill="#FDFCFF"/>
<path d="M139.274 150.051L133.114 153.578L126.931 149.984L133.114 146.435L139.274 150.051Z" fill="#EFF1FE"/>
<path d="M139.275 150.051V151.011L133.092 154.56L133.114 153.577L139.275 150.051Z" fill="url(#paint46_linear_100_7044)"/>
<path d="M133.114 153.577L133.092 154.56L126.931 150.944V149.984L133.114 153.577Z" fill="#FDFCFF"/>
<path d="M163.783 149.872L160.702 151.636L154.519 148.02L157.622 146.256L163.783 149.872Z" fill="#EFF1FE"/>
<path d="M163.783 149.872V150.854L160.703 152.595V151.636L163.783 149.872Z" fill="url(#paint47_linear_100_7044)"/>
<path d="M160.702 151.636V152.595L154.519 149.002V148.02L160.702 151.636Z" fill="#FDFCFF"/>
<path d="M158.515 152.886L152.355 156.435L146.172 152.819L152.355 149.27L158.515 152.886Z" fill="#EFF1FE"/>
<path d="M158.515 152.886V153.868L152.333 157.394L152.355 156.435L158.515 152.886Z" fill="url(#paint48_linear_100_7044)"/>
<path d="M152.355 156.435L152.332 157.394L146.172 153.801V152.819L152.355 156.435Z" fill="#FDFCFF"/>
<path d="M171.058 154.113L167.956 155.877L161.795 152.283L164.875 150.519L171.058 154.113Z" fill="#EFF1FE"/>
<path d="M171.06 154.113L171.038 155.095L167.958 156.859V155.877L171.06 154.113Z" fill="url(#paint49_linear_100_7044)"/>
<path d="M167.957 155.877V156.859L161.774 153.243L161.797 152.283L167.957 155.877Z" fill="#FDFCFF"/>
<path d="M165.769 157.127L159.608 160.676L153.448 157.06L159.608 153.533L165.769 157.127Z" fill="#EFF1FE"/>
<path d="M165.771 157.127V158.109L159.588 161.635L159.61 160.676L165.771 157.127Z" fill="url(#paint50_linear_100_7044)"/>
<path d="M159.608 160.676L159.586 161.635L153.426 158.042L153.448 157.06L159.608 160.676Z" fill="#FDFCFF"/>
<path d="M178.314 158.377L175.211 160.14L169.05 156.524L172.131 154.761L178.314 158.377Z" fill="#EFF1FE"/>
<path d="M178.314 158.377L178.291 159.336L175.211 161.1V160.14L178.314 158.377Z" fill="url(#paint51_linear_100_7044)"/>
<path d="M175.211 160.14V161.1L169.028 157.484L169.05 156.524L175.211 160.14Z" fill="#FDFCFF"/>
<path d="M173.024 161.368L166.863 164.917L160.68 161.301L166.863 157.774L173.024 161.368Z" fill="#EFF1FE"/>
<path d="M173.024 161.368V162.35L166.841 165.876L166.864 164.917L173.024 161.368Z" fill="url(#paint52_linear_100_7044)"/>
<path d="M166.863 164.917L166.841 165.876L160.68 162.283V161.301L166.863 164.917Z" fill="#FDFCFF"/>
<path d="M151.261 157.06L145.078 160.586L138.917 156.993L145.1 153.444L151.261 157.06Z" fill="#EFF1FE"/>
<path d="M151.261 157.06L151.238 158.042L145.078 161.568V160.586L151.261 157.06Z" fill="url(#paint53_linear_100_7044)"/>
<path d="M158.515 161.301L152.332 164.85L146.172 161.234L152.355 157.685L158.515 161.301Z" fill="#EFF1FE"/>
<path d="M158.515 161.301V162.283L152.333 165.81V164.85L158.515 161.301Z" fill="url(#paint54_linear_100_7044)"/>
<path d="M165.769 165.542L159.586 169.091L153.426 165.475L159.608 161.948L165.769 165.542Z" fill="#EFF1FE"/>
<path d="M165.771 165.542V166.524L159.588 170.05V169.091L165.771 165.542Z" fill="url(#paint55_linear_100_7044)"/>
<path d="M143.984 161.211L137.823 164.76L131.64 161.144L137.823 157.618L143.984 161.211Z" fill="#EFF1FE"/>
<path d="M143.985 161.211V162.193L137.802 165.72L137.824 164.76L143.985 161.211Z" fill="url(#paint56_linear_100_7044)"/>
<path d="M151.26 165.475L145.077 169.001L138.895 165.408L145.077 161.859L151.26 165.475Z" fill="#EFF1FE"/>
<path d="M151.261 165.475L151.238 166.434L145.055 169.984L145.078 169.001L151.261 165.475Z" fill="url(#paint57_linear_100_7044)"/>
<path d="M158.515 169.716L152.333 173.265L146.172 169.626L152.333 166.1L158.515 169.716Z" fill="#EFF1FE"/>
<path d="M158.515 169.716L158.493 170.675L152.333 174.225V173.265L158.515 169.716Z" fill="url(#paint58_linear_100_7044)"/>
<path d="M136.73 165.385L130.547 168.912L124.387 165.318L130.547 161.769L136.73 165.385Z" fill="#EFF1FE"/>
<path d="M136.73 165.385L136.708 166.367L130.547 169.894V168.912L136.73 165.385Z" fill="url(#paint59_linear_100_7044)"/>
<path d="M143.984 169.626L137.801 173.175L131.64 169.559L137.801 166.01L143.984 169.626Z" fill="#EFF1FE"/>
<path d="M143.985 169.626L143.963 170.608L137.802 174.135V173.175L143.985 169.626Z" fill="url(#paint60_linear_100_7044)"/>
<path d="M136.752 173.823L130.569 177.372L117.11 169.47L123.293 165.943L136.752 173.823Z" fill="#EFF1FE"/>
<path d="M136.752 173.823V174.783L130.57 178.332V177.372L136.752 173.823Z" fill="url(#paint61_linear_100_7044)"/>
<path d="M151.15 173.934L137.801 181.591L131.641 177.974L144.989 170.318L151.15 173.934Z" fill="#EFF1FE"/>
<path d="M151.15 173.934V174.894L137.802 182.55V181.591L151.15 173.934Z" fill="url(#paint62_linear_100_7044)"/>
<path d="M99.6321 165.765L81.686 176.033L42.9365 153.354L60.8604 143.087L99.6321 165.765Z" fill="#EFF1FE"/>
<path d="M99.6329 165.765L99.6106 165.943L81.6868 176.211V176.032L99.6329 165.765Z" fill="#E4E7FB"/>
<path d="M81.6859 176.033V176.211L42.9365 153.533V153.354L81.6859 176.033Z" fill="#EFF1FE"/>
<path d="M2.13285 134.627C0.972148 133.935 0.391803 133.042 0.391803 132.149C0.391803 133.779 0.369489 138.846 0.347168 140.453C0.347168 141.346 0.905193 142.238 2.08821 142.908L113.582 208.153L113.627 199.849L2.13285 134.605V134.627Z" fill="#EFF1FE"/>
<path d="M221.55 72.5073L192.354 159.626L122.065 199.938C121.886 200.05 121.707 200.117 121.507 200.206C121.44 200.206 121.395 200.251 121.328 200.273C121.172 200.34 121.016 200.385 120.859 200.452C120.792 200.474 120.748 200.496 120.681 200.519C120.569 200.541 120.457 200.586 120.368 200.608C120.279 200.608 120.212 200.653 120.123 200.675C120.011 200.675 119.899 200.72 119.788 200.742C119.721 200.742 119.632 200.764 119.565 200.787C119.341 200.809 119.118 200.854 118.895 200.876C118.828 200.876 118.761 200.876 118.672 200.876C118.538 200.876 118.404 200.876 118.27 200.876C118.181 200.876 118.091 200.876 118.002 200.876C117.891 200.876 117.779 200.876 117.69 200.876C117.6 200.876 117.511 200.876 117.399 200.876C117.31 200.876 117.199 200.876 117.109 200.876C117.02 200.876 116.931 200.876 116.819 200.854C116.73 200.854 116.618 200.854 116.529 200.831C116.44 200.831 116.35 200.809 116.261 200.787C116.15 200.787 116.038 200.742 115.949 200.742C115.859 200.72 115.792 200.697 115.703 200.697C115.569 200.675 115.458 200.63 115.324 200.608C115.257 200.586 115.19 200.563 115.1 200.563C114.877 200.496 114.676 200.429 114.475 200.34C114.364 200.296 114.275 200.251 114.185 200.206C114.141 200.184 114.096 200.162 114.051 200.139C113.895 200.072 113.761 200.005 113.605 199.916L113.047 207.929C113.181 208.019 113.828 208.376 113.984 208.443C114.029 208.465 114.074 208.487 114.118 208.51C114.208 208.554 114.297 208.599 114.386 208.644C114.386 208.644 114.386 208.644 114.431 208.644C114.632 208.733 114.855 208.8 115.056 208.867C115.056 208.867 115.078 208.867 115.1 208.867C115.145 208.867 115.19 208.889 115.234 208.911C115.368 208.934 115.48 208.978 115.614 209.001C115.636 209.001 115.681 209.001 115.703 209.023C115.748 209.023 115.792 209.023 115.859 209.045C115.971 209.068 116.06 209.09 116.172 209.09C116.216 209.09 116.261 209.09 116.306 209.112C116.35 209.112 116.395 209.112 116.462 209.112C116.551 209.135 116.663 209.135 116.752 209.135C116.797 209.135 116.841 209.135 116.908 209.157C116.953 209.157 116.998 209.157 117.042 209.157C117.154 209.157 117.243 209.157 117.355 209.179C117.399 209.179 117.444 209.179 117.489 209.179C117.533 209.179 117.578 209.179 117.6 209.179C117.712 209.179 117.824 209.179 117.935 209.179C117.98 209.179 118.047 209.179 118.091 209.179C118.114 209.179 118.158 209.179 118.181 209.179C118.315 209.179 118.449 209.157 118.605 209.157C118.649 209.157 118.716 209.157 118.761 209.157C118.761 209.157 118.783 209.157 118.806 209.157C119.029 209.135 119.274 209.09 119.498 209.068H119.52C119.52 209.068 119.632 209.045 119.699 209.023C119.81 209.023 119.944 208.978 120.056 208.956C120.145 208.956 120.212 208.911 120.279 208.889C120.368 208.867 120.48 208.844 120.591 208.8C120.591 208.8 120.636 208.8 120.658 208.8C120.703 208.8 120.725 208.778 120.77 208.755C120.926 208.711 121.082 208.644 121.216 208.577C121.283 208.554 121.328 208.532 121.395 208.51C121.596 208.398 121.774 208.331 121.953 208.219L197.8 164.738L228.804 72.2394L221.505 72.5073H221.55Z" fill="#E4E7FB"/>
<path d="M142.691 39.9408L134.543 35.231C133.784 34.7846 133.36 33.7802 133.606 32.9543C133.829 32.1284 134.633 31.8159 135.392 32.2623L143.539 36.9721C144.298 37.4185 144.722 38.4229 144.476 39.2488C144.253 40.0747 143.449 40.3872 142.691 39.9408Z" fill="white"/>
<path d="M162.11 51.1461L150.079 44.2042C149.32 43.7578 148.896 42.7533 149.141 41.9274C149.364 41.1016 150.168 40.7891 150.927 41.2355L162.958 48.1773C163.717 48.6238 164.141 49.6282 163.896 50.4541C163.672 51.28 162.869 51.5925 162.11 51.1461Z" fill="white"/>
<path d="M127.243 74.5162L119.096 69.8065C118.337 69.36 117.913 68.3556 118.158 67.5297C118.381 66.7038 119.185 66.3913 119.944 66.8377L128.091 71.5475C128.85 71.9939 129.274 72.9984 129.029 73.8243C128.805 74.6501 128.002 74.9626 127.243 74.5162Z" fill="white"/>
<path d="M144.565 84.516L132.534 77.5741C131.775 77.1277 131.351 76.1233 131.596 75.2974C131.819 74.4715 132.623 74.159 133.382 74.6054L145.413 81.5473C146.172 81.9937 146.596 82.9982 146.35 83.824C146.127 84.6499 145.324 84.9624 144.565 84.516Z" fill="white"/>
<path d="M118.426 33.1775L113.337 30.2311C112.578 29.7847 112.154 28.7802 112.4 27.9543C112.623 27.1285 113.426 26.816 114.185 27.2624L119.274 30.2088C120.033 30.6552 120.457 31.6596 120.212 32.4855C119.989 33.3114 119.185 33.6239 118.426 33.1775Z" fill="white"/>
<path d="M133.918 49.3826L118.36 40.3872C117.601 39.9407 117.177 38.9363 117.423 38.1104C117.646 37.2845 118.45 36.972 119.208 37.4184L134.766 46.4138C135.525 46.8603 135.949 47.8647 135.704 48.6906C135.481 49.5165 134.677 49.829 133.918 49.3826Z" fill="white"/>
<path d="M119.9 55.7888L114.811 52.8424C114.052 52.396 113.628 51.3915 113.873 50.5656C114.096 49.7398 114.9 49.4273 115.659 49.8737L120.748 52.8201C121.507 53.2665 121.931 54.2709 121.686 55.0968C121.462 55.9227 120.659 56.2352 119.9 55.7888Z" fill="white"/>
<path d="M146.774 100.297L133.159 92.44C132.4 91.9936 131.976 90.9891 132.221 90.1632C132.444 89.3374 133.248 89.0249 134.007 89.4713L147.623 97.3283C148.382 97.7747 148.806 98.7792 148.56 99.6051C148.337 100.431 147.533 100.743 146.774 100.297Z" fill="white"/>
<path d="M114.52 67.1725L111.239 65.2752C110.48 64.8288 110.056 63.8244 110.302 62.9985C110.525 62.1726 111.328 61.8601 112.087 62.3065L115.369 64.2038C116.127 64.6502 116.552 65.6547 116.306 66.4806C116.083 67.3064 115.279 67.6189 114.52 67.1725Z" fill="white"/>
<path d="M111.754 80.0741L107.692 77.7304C106.933 77.284 106.509 76.2795 106.754 75.4537C106.977 74.6278 107.781 74.3153 108.54 74.7617L112.602 77.1054C113.361 77.5518 113.785 78.5563 113.54 79.3822C113.316 80.208 112.513 80.5205 111.754 80.0741Z" fill="white"/>
<path d="M127.556 89.2035L116.841 83.0205C116.083 82.5741 115.658 81.5697 115.904 80.7438C116.127 79.9179 116.931 79.6054 117.69 80.0518L128.404 86.2348C129.163 86.6812 129.587 87.6856 129.341 88.5115C129.118 89.3374 128.315 89.6499 127.556 89.2035Z" fill="white"/>
<path d="M113.628 88.3999L105.927 83.958C105.168 83.5116 104.744 82.5071 104.99 81.6812C105.213 80.8554 106.017 80.5429 106.776 80.9893L114.476 85.4312C115.235 85.8776 115.659 86.882 115.414 87.7079C115.191 88.5338 114.387 88.8463 113.628 88.3999Z" fill="white"/>
<path d="M158.449 107.06L153.494 104.203C152.735 103.757 152.311 102.752 152.556 101.926C152.779 101.101 153.583 100.788 154.342 101.235L159.297 104.092C160.056 104.538 160.48 105.543 160.235 106.368C160.011 107.194 159.208 107.507 158.449 107.06Z" fill="white"/>
<path d="M138.851 66.7261L125.236 58.8691C124.477 58.4227 124.052 57.4182 124.298 56.5923C124.521 55.7665 125.325 55.454 126.084 55.9004L139.7 63.7574C140.459 64.2038 140.883 65.2083 140.637 66.0342C140.414 66.86 139.61 67.1725 138.851 66.7261Z" fill="white"/>
<path d="M140.302 60.2976L116.575 46.5925C115.816 46.1461 115.392 45.1416 115.637 44.3157C115.861 43.4899 116.664 43.1774 117.423 43.6238L141.15 57.3289C141.909 57.7754 142.333 58.7798 142.088 59.6057C141.865 60.4316 141.061 60.7441 140.302 60.2976Z" fill="#937AF6"/>
<path d="M126.641 66.9269L113.026 59.0699C112.267 58.6235 111.843 57.619 112.088 56.7931C112.311 55.9673 113.115 55.6548 113.874 56.1012L127.49 63.9582C128.249 64.4046 128.673 65.4091 128.427 66.235C128.204 67.0608 127.4 67.3733 126.641 66.9269Z" fill="#937AF6"/>
<path d="M149.162 72.6858L144.207 69.8287C143.448 69.3823 143.024 68.3778 143.27 67.552C143.493 66.7261 144.296 66.4136 145.055 66.86L150.011 69.7171C150.77 70.1635 151.194 71.168 150.948 71.9939C150.725 72.8197 149.921 73.1322 149.162 72.6858Z" fill="#937AF6"/>
<path d="M198.805 72.3287L169.519 55.4316C168.761 54.9852 168.336 53.9808 168.582 53.1549C168.805 52.329 169.609 52.0165 170.368 52.4629L199.653 69.36C200.412 69.8064 200.836 70.8109 200.59 71.6368C200.367 72.4626 199.564 72.7751 198.805 72.3287Z" fill="#937AF6"/>
<path d="M125.837 80.9446L109.475 71.5028C108.717 71.0564 108.292 70.0519 108.538 69.2261C108.761 68.4002 109.565 68.0877 110.324 68.5341L126.685 77.9759C127.444 78.4224 127.868 79.4268 127.623 80.2527C127.399 81.0786 126.596 81.3911 125.837 80.9446Z" fill="#19D8CA"/>
<path d="M127.131 30.9454L115.1 24.0035C114.341 23.5571 113.917 22.5526 114.163 21.7268C114.386 20.9009 115.189 20.5884 115.948 21.0348L127.979 27.9767C128.738 28.4231 129.162 29.4275 128.917 30.2534C128.694 31.0793 127.89 31.3918 127.131 30.9454Z" fill="#19D8CA"/>
<path d="M111.261 94.2927L97.3327 86.2572C96.5738 85.8107 96.1496 84.8063 96.3952 83.9804C96.6184 83.1545 97.422 82.842 98.1809 83.2884L112.109 91.324C112.868 91.7705 113.292 92.7749 113.047 93.6008C112.824 94.4267 112.02 94.7392 111.261 94.2927Z" fill="#937AF6"/>
<defs>
<linearGradient id="paint0_linear_100_7044" x1="223.546" y1="61.5573" x2="223.484" y2="72.6731" gradientUnits="userSpaceOnUse">
<stop stop-color="#F9FAFF"/>
<stop offset="0.52" stop-color="#EBEEFE"/>
<stop offset="0.99" stop-color="#E6EAFE"/>
</linearGradient>
<linearGradient id="paint1_linear_100_7044" x1="76.8459" y1="102.167" x2="79.9261" y2="102.184" gradientUnits="userSpaceOnUse">
<stop stop-color="#E6EAFE"/>
<stop offset="0.99" stop-color="#E6EAFE"/>
</linearGradient>
<linearGradient id="paint2_linear_100_7044" x1="68.4986" y1="106.071" x2="74.6591" y2="106.105" gradientUnits="userSpaceOnUse">
<stop stop-color="#E6EAFE"/>
<stop offset="0.99" stop-color="#E6EAFE"/>
</linearGradient>
<linearGradient id="paint3_linear_100_7044" x1="84.1216" y1="106.426" x2="87.1796" y2="106.443" gradientUnits="userSpaceOnUse">
<stop stop-color="#E6EAFE"/>
<stop offset="0.99" stop-color="#E6EAFE"/>
</linearGradient>
<linearGradient id="paint4_linear_100_7044" x1="75.751" y1="110.308" x2="81.9116" y2="110.342" gradientUnits="userSpaceOnUse">
<stop stop-color="#E6EAFE"/>
<stop offset="0.99" stop-color="#E6EAFE"/>
</linearGradient>
<linearGradient id="paint5_linear_100_7044" x1="91.3753" y1="110.663" x2="94.4555" y2="110.68" gradientUnits="userSpaceOnUse">
<stop stop-color="#E6EAFE"/>
<stop offset="0.99" stop-color="#E6EAFE"/>
</linearGradient>
<linearGradient id="paint6_linear_100_7044" x1="83.0269" y1="114.567" x2="89.1651" y2="114.601" gradientUnits="userSpaceOnUse">
<stop stop-color="#E6EAFE"/>
<stop offset="0.99" stop-color="#E6EAFE"/>
</linearGradient>
<linearGradient id="paint7_linear_100_7044" x1="98.6276" y1="114.922" x2="101.708" y2="114.939" gradientUnits="userSpaceOnUse">
<stop stop-color="#E6EAFE"/>
<stop offset="0.99" stop-color="#E6EAFE"/>
</linearGradient>
<linearGradient id="paint8_linear_100_7044" x1="90.2804" y1="118.804" x2="96.441" y2="118.839" gradientUnits="userSpaceOnUse">
<stop stop-color="#E6EAFE"/>
<stop offset="0.99" stop-color="#E6EAFE"/>
</linearGradient>
<linearGradient id="paint9_linear_100_7044" x1="105.881" y1="119.159" x2="108.961" y2="119.176" gradientUnits="userSpaceOnUse">
<stop stop-color="#E6EAFE"/>
<stop offset="0.99" stop-color="#E6EAFE"/>
</linearGradient>
<linearGradient id="paint10_linear_100_7044" x1="97.5325" y1="123.063" x2="103.693" y2="123.098" gradientUnits="userSpaceOnUse">
<stop stop-color="#E6EAFE"/>
<stop offset="0.99" stop-color="#E6EAFE"/>
</linearGradient>
<linearGradient id="paint11_linear_100_7044" x1="113.134" y1="123.418" x2="116.215" y2="123.436" gradientUnits="userSpaceOnUse">
<stop stop-color="#E6EAFE"/>
<stop offset="0.99" stop-color="#E6EAFE"/>
</linearGradient>
<linearGradient id="paint12_linear_100_7044" x1="104.786" y1="127.3" x2="110.947" y2="127.335" gradientUnits="userSpaceOnUse">
<stop stop-color="#E6EAFE"/>
<stop offset="0.99" stop-color="#E6EAFE"/>
</linearGradient>
<linearGradient id="paint13_linear_100_7044" x1="120.409" y1="127.655" x2="123.489" y2="127.673" gradientUnits="userSpaceOnUse">
<stop stop-color="#E6EAFE"/>
<stop offset="0.99" stop-color="#E6EAFE"/>
</linearGradient>
<linearGradient id="paint14_linear_100_7044" x1="112.061" y1="131.537" x2="118.2" y2="131.572" gradientUnits="userSpaceOnUse">
<stop stop-color="#E6EAFE"/>
<stop offset="0.99" stop-color="#E6EAFE"/>
</linearGradient>
<linearGradient id="paint15_linear_100_7044" x1="64.8687" y1="112.345" x2="71.0293" y2="112.38" gradientUnits="userSpaceOnUse">
<stop stop-color="#E6EAFE"/>
<stop offset="0.99" stop-color="#E6EAFE"/>
</linearGradient>
<linearGradient id="paint16_linear_100_7044" x1="72.122" y1="116.604" x2="78.2825" y2="116.639" gradientUnits="userSpaceOnUse">
<stop stop-color="#E6EAFE"/>
<stop offset="0.99" stop-color="#E6EAFE"/>
</linearGradient>
<linearGradient id="paint17_linear_100_7044" x1="79.3753" y1="120.864" x2="85.5358" y2="120.898" gradientUnits="userSpaceOnUse">
<stop stop-color="#E6EAFE"/>
<stop offset="0.99" stop-color="#E6EAFE"/>
</linearGradient>
<linearGradient id="paint18_linear_100_7044" x1="86.6512" y1="125.101" x2="92.8117" y2="125.135" gradientUnits="userSpaceOnUse">
<stop stop-color="#E6EAFE"/>
<stop offset="0.99" stop-color="#E6EAFE"/>
</linearGradient>
<linearGradient id="paint19_linear_100_7044" x1="93.9034" y1="129.338" x2="100.064" y2="129.372" gradientUnits="userSpaceOnUse">
<stop stop-color="#E6EAFE"/>
<stop offset="0.99" stop-color="#E6EAFE"/>
</linearGradient>
<linearGradient id="paint20_linear_100_7044" x1="101.157" y1="133.597" x2="107.317" y2="133.631" gradientUnits="userSpaceOnUse">
<stop stop-color="#E6EAFE"/>
<stop offset="0.99" stop-color="#E6EAFE"/>
</linearGradient>
<linearGradient id="paint21_linear_100_7044" x1="61.2181" y1="118.642" x2="67.3787" y2="118.676" gradientUnits="userSpaceOnUse">
<stop stop-color="#E6EAFE"/>
<stop offset="0.99" stop-color="#E6EAFE"/>
</linearGradient>
<linearGradient id="paint22_linear_100_7044" x1="50.3358" y1="120.679" x2="56.4964" y2="120.714" gradientUnits="userSpaceOnUse">
<stop stop-color="#E6EAFE"/>
<stop offset="0.99" stop-color="#E6EAFE"/>
</linearGradient>
<linearGradient id="paint23_linear_100_7044" x1="68.494" y1="122.901" x2="74.6545" y2="122.936" gradientUnits="userSpaceOnUse">
<stop stop-color="#E6EAFE"/>
<stop offset="0.99" stop-color="#E6EAFE"/>
</linearGradient>
<linearGradient id="paint24_linear_100_7044" x1="57.5894" y1="124.939" x2="63.7499" y2="124.973" gradientUnits="userSpaceOnUse">
<stop stop-color="#E6EAFE"/>
<stop offset="0.99" stop-color="#E6EAFE"/>
</linearGradient>
<linearGradient id="paint25_linear_100_7044" x1="75.7463" y1="127.138" x2="81.9068" y2="127.173" gradientUnits="userSpaceOnUse">
<stop stop-color="#E6EAFE"/>
<stop offset="0.99" stop-color="#E6EAFE"/>
</linearGradient>
<linearGradient id="paint26_linear_100_7044" x1="64.8418" y1="129.175" x2="71.0023" y2="129.21" gradientUnits="userSpaceOnUse">
<stop stop-color="#E6EAFE"/>
<stop offset="0.99" stop-color="#E6EAFE"/>
</linearGradient>
<linearGradient id="paint27_linear_100_7044" x1="83" y1="131.375" x2="89.1605" y2="131.409" gradientUnits="userSpaceOnUse">
<stop stop-color="#E6EAFE"/>
<stop offset="0.99" stop-color="#E6EAFE"/>
</linearGradient>
<linearGradient id="paint28_linear_100_7044" x1="72.1173" y1="133.435" x2="78.2778" y2="133.469" gradientUnits="userSpaceOnUse">
<stop stop-color="#E6EAFE"/>
<stop offset="0.99" stop-color="#E6EAFE"/>
</linearGradient>
<linearGradient id="paint29_linear_100_7044" x1="90.2535" y1="135.634" x2="96.414" y2="135.669" gradientUnits="userSpaceOnUse">
<stop stop-color="#E6EAFE"/>
<stop offset="0.99" stop-color="#E6EAFE"/>
</linearGradient>
<linearGradient id="paint30_linear_100_7044" x1="79.3707" y1="137.672" x2="85.5312" y2="137.706" gradientUnits="userSpaceOnUse">
<stop stop-color="#E6EAFE"/>
<stop offset="0.99" stop-color="#E6EAFE"/>
</linearGradient>
<linearGradient id="paint31_linear_100_7044" x1="127.663" y1="131.892" x2="130.743" y2="131.91" gradientUnits="userSpaceOnUse">
<stop stop-color="#E6EAFE"/>
<stop offset="0.99" stop-color="#E6EAFE"/>
</linearGradient>
<linearGradient id="paint32_linear_100_7044" x1="119.314" y1="135.797" x2="125.475" y2="135.831" gradientUnits="userSpaceOnUse">
<stop stop-color="#E6EAFE"/>
<stop offset="0.99" stop-color="#E6EAFE"/>
</linearGradient>
<linearGradient id="paint33_linear_100_7044" x1="112.059" y1="139.953" x2="118.22" y2="139.987" gradientUnits="userSpaceOnUse">
<stop stop-color="#E6EAFE"/>
<stop offset="0.99" stop-color="#E6EAFE"/>
</linearGradient>
<linearGradient id="paint34_linear_100_7044" x1="97.5283" y1="139.871" x2="103.689" y2="139.906" gradientUnits="userSpaceOnUse">
<stop stop-color="#E6EAFE"/>
<stop offset="0.99" stop-color="#E6EAFE"/>
</linearGradient>
<linearGradient id="paint35_linear_100_7044" x1="104.783" y1="143.818" x2="112.037" y2="143.859" gradientUnits="userSpaceOnUse">
<stop stop-color="#E6EAFE"/>
<stop offset="0.99" stop-color="#E6EAFE"/>
</linearGradient>
<linearGradient id="paint36_linear_100_7044" x1="86.6452" y1="141.909" x2="92.7834" y2="141.943" gradientUnits="userSpaceOnUse">
<stop stop-color="#E6EAFE"/>
<stop offset="0.99" stop-color="#E6EAFE"/>
</linearGradient>
<linearGradient id="paint37_linear_100_7044" x1="97.503" y1="148.286" x2="103.663" y2="148.321" gradientUnits="userSpaceOnUse">
<stop stop-color="#E6EAFE"/>
<stop offset="0.99" stop-color="#E6EAFE"/>
</linearGradient>
<linearGradient id="paint38_linear_100_7044" x1="46.6857" y1="126.976" x2="52.8463" y2="127.01" gradientUnits="userSpaceOnUse">
<stop stop-color="#E6EAFE"/>
<stop offset="0.99" stop-color="#E6EAFE"/>
</linearGradient>
<linearGradient id="paint39_linear_100_7044" x1="82.9954" y1="148.205" x2="89.1559" y2="148.24" gradientUnits="userSpaceOnUse">
<stop stop-color="#E6EAFE"/>
<stop offset="0.99" stop-color="#E6EAFE"/>
</linearGradient>
<linearGradient id="paint40_linear_100_7044" x1="90.249" y1="152.465" x2="96.4096" y2="152.499" gradientUnits="userSpaceOnUse">
<stop stop-color="#E6EAFE"/>
<stop offset="0.99" stop-color="#E6EAFE"/>
</linearGradient>
<linearGradient id="paint41_linear_100_7044" x1="141.456" y1="139.983" x2="144.536" y2="140" gradientUnits="userSpaceOnUse">
<stop stop-color="#E6EAFE"/>
<stop offset="0.99" stop-color="#E6EAFE"/>
</linearGradient>
<linearGradient id="paint42_linear_100_7044" x1="133.109" y1="143.865" x2="139.27" y2="143.899" gradientUnits="userSpaceOnUse">
<stop stop-color="#E6EAFE"/>
<stop offset="0.99" stop-color="#E6EAFE"/>
</linearGradient>
<linearGradient id="paint43_linear_100_7044" x1="148.71" y1="144.22" x2="151.79" y2="144.237" gradientUnits="userSpaceOnUse">
<stop stop-color="#E6EAFE"/>
<stop offset="0.99" stop-color="#E6EAFE"/>
</linearGradient>
<linearGradient id="paint44_linear_100_7044" x1="140.362" y1="148.102" x2="146.522" y2="148.136" gradientUnits="userSpaceOnUse">
<stop stop-color="#E6EAFE"/>
<stop offset="0.99" stop-color="#E6EAFE"/>
</linearGradient>
<linearGradient id="paint45_linear_100_7044" x1="125.853" y1="148.043" x2="131.991" y2="148.077" gradientUnits="userSpaceOnUse">
<stop stop-color="#E6EAFE"/>
<stop offset="0.99" stop-color="#E6EAFE"/>
</linearGradient>
<linearGradient id="paint46_linear_100_7044" x1="133.107" y1="152.28" x2="139.267" y2="152.314" gradientUnits="userSpaceOnUse">
<stop stop-color="#E6EAFE"/>
<stop offset="0.99" stop-color="#E6EAFE"/>
</linearGradient>
<linearGradient id="paint47_linear_100_7044" x1="160.702" y1="151.229" x2="163.76" y2="151.246" gradientUnits="userSpaceOnUse">
<stop stop-color="#E6EAFE"/>
<stop offset="0.99" stop-color="#E6EAFE"/>
</linearGradient>
<linearGradient id="paint48_linear_100_7044" x1="152.354" y1="155.111" x2="158.493" y2="155.145" gradientUnits="userSpaceOnUse">
<stop stop-color="#E6EAFE"/>
<stop offset="0.99" stop-color="#E6EAFE"/>
</linearGradient>
<linearGradient id="paint49_linear_100_7044" x1="167.955" y1="155.466" x2="171.036" y2="155.483" gradientUnits="userSpaceOnUse">
<stop stop-color="#E6EAFE"/>
<stop offset="0.99" stop-color="#E6EAFE"/>
</linearGradient>
<linearGradient id="paint50_linear_100_7044" x1="159.608" y1="159.37" x2="165.769" y2="159.404" gradientUnits="userSpaceOnUse">
<stop stop-color="#E6EAFE"/>
<stop offset="0.99" stop-color="#E6EAFE"/>
</linearGradient>
<linearGradient id="paint51_linear_100_7044" x1="175.208" y1="159.725" x2="178.288" y2="159.742" gradientUnits="userSpaceOnUse">
<stop stop-color="#E6EAFE"/>
<stop offset="0.99" stop-color="#E6EAFE"/>
</linearGradient>
<linearGradient id="paint52_linear_100_7044" x1="166.861" y1="163.607" x2="173.021" y2="163.641" gradientUnits="userSpaceOnUse">
<stop stop-color="#E6EAFE"/>
<stop offset="0.99" stop-color="#E6EAFE"/>
</linearGradient>
<linearGradient id="paint53_linear_100_7044" x1="145.076" y1="159.289" x2="151.237" y2="159.323" gradientUnits="userSpaceOnUse">
<stop stop-color="#E6EAFE"/>
<stop offset="0.99" stop-color="#E6EAFE"/>
</linearGradient>
<linearGradient id="paint54_linear_100_7044" x1="152.352" y1="163.526" x2="158.49" y2="163.56" gradientUnits="userSpaceOnUse">
<stop stop-color="#E6EAFE"/>
<stop offset="0.99" stop-color="#E6EAFE"/>
</linearGradient>
<linearGradient id="paint55_linear_100_7044" x1="159.606" y1="167.785" x2="165.766" y2="167.819" gradientUnits="userSpaceOnUse">
<stop stop-color="#E6EAFE"/>
<stop offset="0.99" stop-color="#E6EAFE"/>
</linearGradient>
<linearGradient id="paint56_linear_100_7044" x1="137.822" y1="163.445" x2="143.982" y2="163.479" gradientUnits="userSpaceOnUse">
<stop stop-color="#E6EAFE"/>
<stop offset="0.99" stop-color="#E6EAFE"/>
</linearGradient>
<linearGradient id="paint57_linear_100_7044" x1="145.074" y1="167.704" x2="151.234" y2="167.738" gradientUnits="userSpaceOnUse">
<stop stop-color="#E6EAFE"/>
<stop offset="0.99" stop-color="#E6EAFE"/>
</linearGradient>
<linearGradient id="paint58_linear_100_7044" x1="152.327" y1="171.941" x2="158.488" y2="171.975" gradientUnits="userSpaceOnUse">
<stop stop-color="#E6EAFE"/>
<stop offset="0.99" stop-color="#E6EAFE"/>
</linearGradient>
<linearGradient id="paint59_linear_100_7044" x1="130.543" y1="167.623" x2="136.704" y2="167.657" gradientUnits="userSpaceOnUse">
<stop stop-color="#E6EAFE"/>
<stop offset="0.99" stop-color="#E6EAFE"/>
</linearGradient>
<linearGradient id="paint60_linear_100_7044" x1="137.819" y1="171.86" x2="143.958" y2="171.894" gradientUnits="userSpaceOnUse">
<stop stop-color="#E6EAFE"/>
<stop offset="0.99" stop-color="#E6EAFE"/>
</linearGradient>
<linearGradient id="paint61_linear_100_7044" x1="130.586" y1="176.038" x2="136.746" y2="176.073" gradientUnits="userSpaceOnUse">
<stop stop-color="#E6EAFE"/>
<stop offset="0.99" stop-color="#E6EAFE"/>
</linearGradient>
<linearGradient id="paint62_linear_100_7044" x1="137.806" y1="178.199" x2="151.132" y2="178.274" gradientUnits="userSpaceOnUse">
<stop stop-color="#E6EAFE"/>
<stop offset="0.99" stop-color="#E6EAFE"/>
</linearGradient>
</defs>
</svg>
