<svg width="78" height="60" viewBox="0 0 78 60" fill="none" xmlns="http://www.w3.org/2000/svg">
<path opacity="0.2" d="M36.5442 60.0003C46.9585 60.0003 55.4009 55.1266 55.4009 49.1144C55.4009 43.1023 46.9585 38.2285 36.5442 38.2285C26.1299 38.2285 17.6875 43.1023 17.6875 49.1144C17.6875 55.1266 26.1299 60.0003 36.5442 60.0003Z" fill="#16D6C7"/>
<path opacity="0.47" d="M36.5445 55.289C42.4522 55.289 47.2414 52.5245 47.2414 49.1142C47.2414 45.704 42.4522 42.9395 36.5445 42.9395C30.6368 42.9395 25.8477 45.704 25.8477 49.1142C25.8477 52.5245 30.6368 55.289 36.5445 55.289Z" fill="url(#paint0_radial_899_63291)"/>
<g opacity="0.3">
<path d="M60.7858 10.5957C61.0206 11.9221 62.0024 15.2519 66.058 17.5572C71.8302 20.2223 75.8309 23.7289 77.1695 27.6411C77.2641 27.8973 77.3952 28.2388 77.5171 28.4827C77.6127 28.3242 77.6605 28.0538 77.6605 27.6716V21.1004C77.6605 17.2431 77.4409 16.3924 77.1665 15.316C75.8278 11.4038 71.8272 7.89709 66.0549 5.23202C61.4505 3.74397 60.3345 8.0648 60.7827 10.5957H60.7858Z" fill="#16D6C7"/>
<path d="M18.4482 2.71344C24.562 0.941812 31.7918 -0.0583499 39.5095 0.0026356C40.528 0.0117834 41.5373 0.0361776 42.5344 0.0819167C49.3099 0.70092 51.7219 7.85757 47.6358 10.9892C45.7605 12.4254 43.501 12.4101 42.5344 12.404C41.5373 12.3583 40.528 12.3339 39.5095 12.3248C31.7918 12.2607 24.562 13.2609 18.4482 15.0325C12.2764 16.5358 11.9105 10.2634 14.0694 6.42746C14.7951 5.13761 16.1429 3.44527 18.4482 2.71039V2.71344Z" fill="#16D6C7"/>
<path d="M0 30.5621C0.16771 28.6076 0.301878 27.0646 2.29001 24.3721C6.48276 18.1851 5.63506 10.998 3.32066 11.3273C2.94865 11.3822 2.55834 11.7847 2.29001 12.0469C0.881241 13.8857 0.0823304 15.8555 0.00609855 17.9138C0.00304928 18.0235 0 18.1303 0 18.237V30.5591V30.5621Z" fill="#16D6C7"/>
</g>
<path d="M50.3537 32.0832L49.0195 32.623L53.63 44.0172L54.9642 43.4774L50.3537 32.0832Z" fill="url(#paint1_linear_899_63291)"/>
<path d="M26.1794 31.0866C28.5617 30.4322 29.9624 27.9705 29.308 25.5882C28.6536 23.206 26.1919 21.8052 23.8096 22.4596C21.4273 23.114 20.0266 25.5758 20.681 27.958C21.3354 30.3403 23.7971 31.741 26.1794 31.0866Z" fill="url(#paint2_radial_899_63291)"/>
<path d="M48.0974 33.3889C48.0974 42.0732 42.9258 49.114 36.5467 49.114C30.1677 49.114 24.9961 42.0732 24.9961 33.3889C24.9961 24.7045 30.1677 22.1035 36.5467 22.1035C42.9258 22.1035 48.0974 24.7045 48.0974 33.3889Z" fill="url(#paint3_radial_899_63291)"/>
<path d="M36.5464 31.3258C40.8998 31.3258 44.4288 29.2876 44.4288 26.7733C44.4288 24.259 40.8998 22.2207 36.5464 22.2207C32.1931 22.2207 28.6641 24.259 28.6641 26.7733C28.6641 29.2876 32.1931 31.3258 36.5464 31.3258Z" fill="url(#paint4_radial_899_63291)"/>
<path d="M30.9682 24.7655C34.048 22.9878 39.0397 22.9878 42.1164 24.7655C43.3879 25.5004 44.1319 26.4213 44.3545 27.3788C44.6686 26.0218 43.9246 24.5978 42.1164 23.555C39.0366 21.7772 34.0449 21.7772 30.9682 23.555C29.16 24.5978 28.416 26.0218 28.7301 27.3788C28.9527 26.4243 29.6967 25.5004 30.9682 24.7655Z" fill="#C3C7E6"/>
<path d="M27.4428 15.9569L28.8698 13.4992C29.7084 12.6302 30.3792 11.4745 30.7207 10.3127L32.1661 7.82449L30.0895 6.63223C30.0225 6.58649 29.9523 6.54685 29.8822 6.51331C29.2906 6.23277 28.507 6.309 27.644 6.80604C25.8084 7.86718 24.3203 10.4438 24.3203 12.5661C24.3203 13.6242 24.6923 14.3713 25.293 14.7189L27.4489 15.96L27.4428 15.9569Z" fill="url(#paint5_radial_899_63291)"/>
<path d="M32.1297 13.2346C33.4281 10.9857 33.4284 8.55504 32.1304 7.80563C30.8324 7.05622 28.7275 8.27181 27.4291 10.5207C26.1307 12.7697 26.1304 15.2003 27.4284 15.9497C28.7264 16.6991 30.8312 15.4835 32.1297 13.2346Z" fill="#BCBEFF"/>
<path d="M48.4555 18.6606C49.9753 12.3351 46.0795 5.97517 39.7539 4.45537C33.4284 2.93558 27.0685 6.8314 25.5487 13.1569C24.0289 19.4825 27.9247 25.8424 34.2503 27.3622C40.5758 28.882 46.9357 24.9862 48.4555 18.6606Z" fill="url(#paint6_radial_899_63291)"/>
<path d="M33.3239 21.4881C33.022 23.8055 31.2748 24.5312 29.4178 23.1133C27.5608 21.6954 26.3014 18.6644 26.6033 16.35C26.9052 14.0326 28.6524 13.3069 30.5094 14.7248C32.3664 16.1427 33.6258 19.1737 33.3239 21.4881Z" fill="url(#paint7_radial_899_63291)"/>
<path d="M31.7939 19.4815C31.6841 20.3231 31.0498 20.5884 30.3759 20.073C29.7021 19.5577 29.2447 18.4569 29.3514 17.6153C29.4612 16.7737 30.0954 16.5084 30.7693 17.0238C31.4432 17.5391 31.9006 18.6399 31.7939 19.4815Z" fill="#16D6C7"/>
<path d="M30.312 22.7774C28.455 21.3595 27.1956 18.3285 27.4975 16.0141C27.6195 15.0688 27.9823 14.3889 28.4977 14.0107C27.528 14.1022 26.7931 14.9255 26.6071 16.3526C26.3052 18.67 27.5676 21.698 29.4216 23.1159C30.5224 23.9575 31.5835 24.0429 32.3275 23.494C31.7207 23.5519 31.0255 23.3232 30.312 22.7774Z" fill="url(#paint8_radial_899_63291)"/>
<path d="M29.5802 23.0396C27.7231 21.6217 26.4638 18.5907 26.7657 16.2763C26.9059 15.203 27.3542 14.4742 27.9823 14.1357C27.2718 14.4285 26.7565 15.1877 26.6071 16.3495C26.3052 18.667 27.5676 21.6949 29.4216 23.1128C30.4187 23.8751 31.3823 24.0154 32.108 23.6251C31.4036 23.9148 30.5041 23.744 29.5802 23.0366V23.0396Z" fill="white"/>
<path d="M54.0773 33.2186C53.5985 35.6428 51.2445 37.2192 48.8203 36.7374C46.3962 36.2587 44.8197 33.9047 45.3015 31.4805C45.7802 29.0563 48.1343 27.4798 50.5584 27.9616C52.9826 28.4404 54.5591 30.7944 54.0773 33.2186Z" fill="url(#paint9_radial_899_63291)"/>
<g style="mix-blend-mode:lighten">
<path d="M48.4555 18.6596C49.9753 12.3341 46.0795 5.97419 39.7539 4.4544C33.4284 2.9346 27.0685 6.83043 25.5487 13.156C24.0289 19.4815 27.9247 25.8414 34.2503 27.3612C40.5758 28.881 46.9357 24.9852 48.4555 18.6596Z" fill="url(#paint10_linear_899_63291)"/>
</g>
<path d="M56.8253 47.1712C56.5722 49.2965 54.6938 53.3246 52.9954 53.1203C51.2969 52.916 50.4187 48.5616 50.6718 46.4363C50.9249 44.3109 52.5075 42.7528 54.209 42.954C55.9074 43.1553 57.0814 45.0458 56.8253 47.1712Z" fill="url(#paint11_radial_899_63291)"/>
<path d="M13.1565 33.4958C12.8973 33.4958 12.6472 33.3556 12.5192 33.1086C12.3362 32.7549 12.4704 32.3219 12.8241 32.1359L22.0604 27.3028C22.4141 27.1167 22.8471 27.254 23.0331 27.6077C23.216 27.9614 23.0819 28.3944 22.7282 28.5804L13.4919 33.4135C13.3852 33.4684 13.2723 33.4958 13.1595 33.4958H13.1565Z" fill="url(#paint12_linear_899_63291)"/>
<path d="M13.3201 36.1789C11.4418 37.2065 7.07521 38.0206 6.25191 36.5204C5.4286 35.0201 8.46263 31.7757 10.341 30.7451C12.2193 29.7175 14.4057 30.0986 15.229 31.5989C16.0523 33.0991 15.1954 35.1513 13.3201 36.1789Z" fill="url(#paint13_radial_899_63291)"/>
<g style="mix-blend-mode:lighten">
<path d="M48.0974 33.3889C48.0974 42.0732 42.9258 49.114 36.5467 49.114C30.1677 49.114 24.9961 42.0732 24.9961 33.3889C24.9961 24.7045 30.1677 22.1035 36.5467 22.1035C42.9258 22.1035 48.0974 24.7045 48.0974 33.3889Z" fill="url(#paint14_linear_899_63291)"/>
</g>
<g style="mix-blend-mode:lighten">
<path d="M54.0773 33.2186C53.5985 35.6428 51.2445 37.2192 48.8203 36.7374C46.3962 36.2587 44.8197 33.9047 45.3015 31.4805C45.7802 29.0563 48.1343 27.4798 50.5584 27.9616C52.9826 28.4404 54.5591 30.7944 54.0773 33.2186Z" fill="url(#paint15_linear_899_63291)"/>
</g>
<path style="mix-blend-mode:lighten" d="M56.8253 47.1712C56.5722 49.2965 54.6938 53.3246 52.9954 53.1203C51.2969 52.916 50.4187 48.5616 50.6718 46.4363C50.9249 44.3109 52.5075 42.7528 54.209 42.954C55.9074 43.1553 57.0814 45.0458 56.8253 47.1712Z" fill="url(#paint16_linear_899_63291)"/>
<path style="mix-blend-mode:lighten" d="M13.3201 36.1789C11.4418 37.2065 7.07521 38.0206 6.25191 36.5204C5.4286 35.0201 8.46263 31.7757 10.341 30.7451C12.2193 29.7175 14.4057 30.0986 15.229 31.5989C16.0523 33.0991 15.1954 35.1513 13.3201 36.1789Z" fill="url(#paint17_linear_899_63291)"/>
<g opacity="0.5">
<path d="M4.51293 34.1757C4.23239 36.4383 3.05842 37.783 1.82652 36.0998C0.243942 33.9379 0.0914783 31.8248 0 30.5624V18.2402C0 20.1674 0.640348 22.0274 1.82652 23.7747C4.43365 28.0863 4.74162 32.3401 4.51293 34.1757Z" fill="#16D6C7"/>
<path d="M41.0979 36.4328C40.1252 36.4602 39.1433 36.4694 38.1523 36.4602C30.4041 36.3962 23.2261 35.271 17.2343 33.3865C11.2485 31.7887 10.8887 38.0489 12.9775 41.9184C14.4655 44.6719 16.478 45.4281 17.2343 45.7117C23.2261 47.5962 30.4041 48.7213 38.1523 48.7854C39.1433 48.7945 40.1252 48.7854 41.0979 48.7579C48.1295 48.2396 49.9713 41.4854 46.6842 38.3355C45.7663 37.4573 44.0526 36.4114 41.0979 36.4358V36.4328Z" fill="#16D6C7"/>
<path d="M77.6594 26.6073C77.6259 31.9375 77.3118 32.9071 76.9154 34.133C75.2688 38.0177 70.9968 41.4512 65.0172 44.0157C59.7815 45.5586 58.3362 40.1217 60.4646 36.0875C61.913 33.3432 64.1664 32.1448 65.0172 31.6935C70.9968 29.1291 75.2688 25.6956 76.9154 21.8108C77.0374 21.5516 77.2051 21.2101 77.3667 20.9753C77.4064 20.9692 77.4612 20.9631 77.5009 20.957C77.6015 21.2406 77.6442 21.3595 77.6564 22.814V26.6043L77.6594 26.6073Z" fill="#16D6C7"/>
</g>
<path d="M43.5951 23.8759L45.0222 21.4181C45.8607 20.5491 46.5316 19.3934 46.8731 18.2316L48.3184 15.7434L46.2419 14.5512C46.1748 14.5054 46.1047 14.4658 46.0345 14.4323C45.443 14.1517 44.6593 14.2279 43.7964 14.725C41.9607 15.7861 40.4727 18.3628 40.4727 20.4851C40.4727 21.5432 40.8447 22.2902 41.4454 22.6379L43.6012 23.8789L43.5951 23.8759Z" fill="url(#paint18_radial_899_63291)"/>
<path d="M48.282 21.1516C49.5804 18.9027 49.5807 16.472 48.2827 15.7226C46.9847 14.9732 44.8799 16.1888 43.5815 18.4377C42.283 20.6867 42.2827 23.1173 43.5807 23.8667C44.8788 24.6161 46.9836 23.4005 48.282 21.1516Z" fill="#C3C7E6"/>
<path d="M42.7579 21.7412C42.7579 19.6219 44.246 17.0422 46.0816 15.9811C46.7189 15.6152 47.3135 15.478 47.8167 15.542C47.28 15.4231 46.6305 15.5481 45.9292 15.9536C44.0935 17.0148 42.6055 19.5914 42.6055 21.7137C42.6055 23.0981 43.2428 23.9458 44.1941 24.0708C43.3251 23.8787 42.7579 23.0524 42.7579 21.7412Z" fill="white"/>
<path style="mix-blend-mode:lighten" d="M43.5951 23.8759L45.0222 21.4181C45.8607 20.5491 46.5316 19.3934 46.8731 18.2316L48.3184 15.7434L46.2419 14.5512C46.1748 14.5054 46.1047 14.4658 46.0345 14.4323C45.443 14.1517 44.6593 14.2279 43.7964 14.725C41.9607 15.7861 40.4727 18.3628 40.4727 20.4851C40.4727 21.5432 40.8447 22.2902 41.4454 22.6379L43.6012 23.8789L43.5951 23.8759Z" fill="url(#paint19_linear_899_63291)"/>
<path d="M48.3055 18.423C48.3055 19.9384 47.2413 21.7802 45.9301 22.5395C44.6189 23.2988 43.5547 22.6828 43.5547 21.1673C43.5547 19.6518 44.6189 17.8101 45.9301 17.0508C47.2413 16.2915 48.3055 16.9075 48.3055 18.423Z" fill="url(#paint20_linear_899_63291)"/>
<path d="M47.2965 16.7617C47.5435 17.0514 47.6868 17.4844 47.6868 18.0424C47.6868 19.5579 46.6226 21.3997 45.3114 22.1589C44.8022 22.4517 44.3326 22.5401 43.9453 22.4486C44.3692 22.9487 45.101 23.0219 45.9334 22.5401C47.2446 21.7808 48.3088 19.9391 48.3088 18.4236C48.3088 17.4935 47.9094 16.905 47.2965 16.7617Z" fill="url(#paint21_linear_899_63291)"/>
<defs>
<radialGradient id="paint0_radial_899_63291" cx="0" cy="0" r="1" gradientUnits="userSpaceOnUse" gradientTransform="translate(36.5445 49.2927) scale(9.92844 5.85778)">
<stop offset="0.13" stop-color="#027F9E"/>
<stop offset="0.27" stop-color="#0690A6"/>
<stop offset="0.58" stop-color="#0EB6B8"/>
<stop offset="0.84" stop-color="#14CDC2"/>
<stop offset="1" stop-color="#16D6C7"/>
</radialGradient>
<linearGradient id="paint1_linear_899_63291" x1="49.0209" y1="38.0438" x2="54.967" y2="38.0438" gradientUnits="userSpaceOnUse">
<stop stop-color="white"/>
<stop offset="0.57" stop-color="#ECEEFC"/>
<stop offset="1" stop-color="#E4E7FB"/>
</linearGradient>
<radialGradient id="paint2_radial_899_63291" cx="0" cy="0" r="1" gradientUnits="userSpaceOnUse" gradientTransform="translate(34.7155 20.4932) rotate(11.2) scale(15.9965)">
<stop stop-color="#EFF1FE"/>
<stop offset="1" stop-color="#C3C7E6"/>
</radialGradient>
<radialGradient id="paint3_radial_899_63291" cx="0" cy="0" r="1" gradientUnits="userSpaceOnUse" gradientTransform="translate(44.5009 31.0597) scale(19.898 27.0408)">
<stop stop-color="#EFF1FE"/>
<stop offset="1" stop-color="#C3C7E6"/>
</radialGradient>
<radialGradient id="paint4_radial_899_63291" cx="0" cy="0" r="1" gradientUnits="userSpaceOnUse" gradientTransform="translate(36.5464 26.8398) scale(7.7787 4.51165)">
<stop stop-color="#16D6C7"/>
<stop offset="0.12" stop-color="#20A9B1"/>
<stop offset="0.26" stop-color="#29809E"/>
<stop offset="0.4" stop-color="#315F8E"/>
<stop offset="0.54" stop-color="#374581"/>
<stop offset="0.68" stop-color="#3B3279"/>
<stop offset="0.83" stop-color="#3E2773"/>
<stop offset="1" stop-color="#3F2472"/>
</radialGradient>
<radialGradient id="paint5_radial_899_63291" cx="0" cy="0" r="1" gradientUnits="userSpaceOnUse" gradientTransform="translate(30.986 5.87601) scale(13.9779 13.9779)">
<stop stop-color="#EFF1FE"/>
<stop offset="1" stop-color="#C3C7E6"/>
</radialGradient>
<radialGradient id="paint6_radial_899_63291" cx="0" cy="0" r="1" gradientUnits="userSpaceOnUse" gradientTransform="translate(44.3563 14.1644) scale(19.9118 19.9118)">
<stop stop-color="#EFF1FE"/>
<stop offset="1" stop-color="#C3C7E6"/>
</radialGradient>
<radialGradient id="paint7_radial_899_63291" cx="0" cy="0" r="1" gradientUnits="userSpaceOnUse" gradientTransform="translate(30.3703 18.8367) rotate(-113.78) scale(4.87884 2.58579)">
<stop stop-color="#16D6C7"/>
<stop offset="0.12" stop-color="#20A9B1"/>
<stop offset="0.26" stop-color="#29809E"/>
<stop offset="0.4" stop-color="#315F8E"/>
<stop offset="0.54" stop-color="#374581"/>
<stop offset="0.68" stop-color="#3B3279"/>
<stop offset="0.83" stop-color="#3E2773"/>
<stop offset="1" stop-color="#3F2472"/>
</radialGradient>
<radialGradient id="paint8_radial_899_63291" cx="0" cy="0" r="1" gradientUnits="userSpaceOnUse" gradientTransform="translate(29.4429 18.9231) scale(4.02809)">
<stop stop-color="#EFF1FE"/>
<stop offset="1" stop-color="#C3C7E6"/>
</radialGradient>
<radialGradient id="paint9_radial_899_63291" cx="0" cy="0" r="1" gradientUnits="userSpaceOnUse" gradientTransform="translate(52.3502 29.4428) rotate(11.2) scale(9.33383)">
<stop stop-color="#EFF1FE"/>
<stop offset="1" stop-color="#C3C7E6"/>
</radialGradient>
<linearGradient id="paint10_linear_899_63291" x1="35.364" y1="27.5772" x2="38.645" y2="4.24107" gradientUnits="userSpaceOnUse">
<stop stop-color="#42E8E0"/>
<stop offset="0.11" stop-color="#6AECE6" stop-opacity="0.79"/>
<stop offset="0.22" stop-color="#91F1ED" stop-opacity="0.58"/>
<stop offset="0.34" stop-color="#B3F5F2" stop-opacity="0.4"/>
<stop offset="0.47" stop-color="#CEF9F7" stop-opacity="0.26"/>
<stop offset="0.59" stop-color="#E3FBFA" stop-opacity="0.14"/>
<stop offset="0.72" stop-color="#F3FDFD" stop-opacity="0.06"/>
<stop offset="0.85" stop-color="#FCFEFE" stop-opacity="0.02"/>
<stop offset="1" stop-color="white" stop-opacity="0"/>
</linearGradient>
<radialGradient id="paint11_radial_899_63291" cx="0" cy="0" r="1" gradientUnits="userSpaceOnUse" gradientTransform="translate(58.1716 45.0093) rotate(6.8) scale(7.95593 13.0581)">
<stop stop-color="#EFF1FE"/>
<stop offset="1" stop-color="#C3C7E6"/>
</radialGradient>
<linearGradient id="paint12_linear_899_63291" x1="12.4368" y1="30.3581" x2="23.1124" y2="30.3581" gradientUnits="userSpaceOnUse">
<stop stop-color="white"/>
<stop offset="0.57" stop-color="#ECEEFC"/>
<stop offset="1" stop-color="#E4E7FB"/>
</linearGradient>
<radialGradient id="paint13_radial_899_63291" cx="0" cy="0" r="1" gradientUnits="userSpaceOnUse" gradientTransform="translate(15.0432 30.0999) rotate(61.27) scale(7.95592 13.0581)">
<stop stop-color="#EFF1FE"/>
<stop offset="1" stop-color="#C3C7E6"/>
</radialGradient>
<linearGradient id="paint14_linear_899_63291" x1="37.6677" y1="49.1537" x2="37.6677" y2="22.1225" gradientUnits="userSpaceOnUse">
<stop stop-color="#42E8E0"/>
<stop offset="0.11" stop-color="#6AECE6" stop-opacity="0.79"/>
<stop offset="0.22" stop-color="#91F1ED" stop-opacity="0.58"/>
<stop offset="0.34" stop-color="#B3F5F2" stop-opacity="0.4"/>
<stop offset="0.47" stop-color="#CEF9F7" stop-opacity="0.26"/>
<stop offset="0.59" stop-color="#E3FBFA" stop-opacity="0.14"/>
<stop offset="0.72" stop-color="#F3FDFD" stop-opacity="0.06"/>
<stop offset="0.85" stop-color="#FCFEFE" stop-opacity="0.02"/>
<stop offset="1" stop-color="white" stop-opacity="0"/>
</linearGradient>
<linearGradient id="paint15_linear_899_63291" x1="46.0817" y1="34.9936" x2="53.3183" y2="29.734" gradientUnits="userSpaceOnUse">
<stop stop-color="#42E8E0"/>
<stop offset="0.11" stop-color="#6AECE6" stop-opacity="0.79"/>
<stop offset="0.22" stop-color="#91F1ED" stop-opacity="0.58"/>
<stop offset="0.34" stop-color="#B3F5F2" stop-opacity="0.4"/>
<stop offset="0.47" stop-color="#CEF9F7" stop-opacity="0.26"/>
<stop offset="0.59" stop-color="#E3FBFA" stop-opacity="0.14"/>
<stop offset="0.72" stop-color="#F3FDFD" stop-opacity="0.06"/>
<stop offset="0.85" stop-color="#FCFEFE" stop-opacity="0.02"/>
<stop offset="1" stop-color="white" stop-opacity="0"/>
</linearGradient>
<linearGradient id="paint16_linear_899_63291" x1="50.9595" y1="47.4477" x2="57.1296" y2="48.1834" gradientUnits="userSpaceOnUse">
<stop stop-color="#42E8E0"/>
<stop offset="0.11" stop-color="#6AECE6" stop-opacity="0.79"/>
<stop offset="0.22" stop-color="#91F1ED" stop-opacity="0.58"/>
<stop offset="0.34" stop-color="#B3F5F2" stop-opacity="0.4"/>
<stop offset="0.47" stop-color="#CEF9F7" stop-opacity="0.26"/>
<stop offset="0.59" stop-color="#E3FBFA" stop-opacity="0.14"/>
<stop offset="0.72" stop-color="#F3FDFD" stop-opacity="0.06"/>
<stop offset="0.85" stop-color="#FCFEFE" stop-opacity="0.02"/>
<stop offset="1" stop-color="white" stop-opacity="0"/>
</linearGradient>
<linearGradient id="paint17_linear_899_63291" x1="16.3666" y1="30.4269" x2="9.50455" y2="28.6698" gradientUnits="userSpaceOnUse">
<stop stop-color="#42E8E0"/>
<stop offset="0.11" stop-color="#6AECE6" stop-opacity="0.79"/>
<stop offset="0.22" stop-color="#91F1ED" stop-opacity="0.58"/>
<stop offset="0.34" stop-color="#B3F5F2" stop-opacity="0.4"/>
<stop offset="0.47" stop-color="#CEF9F7" stop-opacity="0.26"/>
<stop offset="0.59" stop-color="#E3FBFA" stop-opacity="0.14"/>
<stop offset="0.72" stop-color="#F3FDFD" stop-opacity="0.06"/>
<stop offset="0.85" stop-color="#FCFEFE" stop-opacity="0.02"/>
<stop offset="1" stop-color="white" stop-opacity="0"/>
</linearGradient>
<radialGradient id="paint18_radial_899_63291" cx="0" cy="0" r="1" gradientUnits="userSpaceOnUse" gradientTransform="translate(44.1958 13.9535) scale(9.45581 9.4558)">
<stop stop-color="#EFF1FE"/>
<stop offset="1" stop-color="#C3C7E6"/>
</radialGradient>
<linearGradient id="paint19_linear_899_63291" x1="42.29" y1="23.4032" x2="45.6137" y2="14.2737" gradientUnits="userSpaceOnUse">
<stop stop-color="#16D6C7"/>
<stop offset="0.07" stop-color="#38DCCF" stop-opacity="0.85"/>
<stop offset="0.19" stop-color="#6CE5DB" stop-opacity="0.63"/>
<stop offset="0.32" stop-color="#99EDE6" stop-opacity="0.43"/>
<stop offset="0.45" stop-color="#BEF3EF" stop-opacity="0.28"/>
<stop offset="0.58" stop-color="#DAF8F6" stop-opacity="0.16"/>
<stop offset="0.71" stop-color="#EFFCFB" stop-opacity="0.07"/>
<stop offset="0.85" stop-color="#FBFEFE" stop-opacity="0.02"/>
<stop offset="1" stop-color="white" stop-opacity="0"/>
</linearGradient>
<linearGradient id="paint20_linear_899_63291" x1="42.6186" y1="19.7951" x2="47.3724" y2="19.7951" gradientUnits="userSpaceOnUse">
<stop stop-color="#16D6C7"/>
<stop offset="0.12" stop-color="#20A9B1"/>
<stop offset="0.26" stop-color="#29809E"/>
<stop offset="0.4" stop-color="#315F8E"/>
<stop offset="0.54" stop-color="#374581"/>
<stop offset="0.68" stop-color="#3B3279"/>
<stop offset="0.83" stop-color="#3E2773"/>
<stop offset="1" stop-color="#3F2472"/>
</linearGradient>
<linearGradient id="paint21_linear_899_63291" x1="43.9423" y1="19.811" x2="48.3058" y2="19.811" gradientUnits="userSpaceOnUse">
<stop offset="0.13" stop-color="white"/>
<stop offset="0.63" stop-color="#ECEEFC"/>
<stop offset="1" stop-color="#E4E7FB"/>
</linearGradient>
</defs>
</svg>
