<svg width="87" height="100" viewBox="0 0 87 100" fill="none" xmlns="http://www.w3.org/2000/svg">
<path d="M43.2991 0L0 25.0024V74.9977L43.2991 100L86.5986 74.9977V25.0024L43.2991 0ZM43.2991 28.3646L62.0209 39.1734V60.8317L43.2991 71.6353L24.5776 60.8317V39.1734L43.2991 28.3646H43.2991Z" fill="#16D6C7"/>
<path d="M12.2888 32.0732V67.9423L24.5776 60.8317V39.1734L43.2992 28.3646V14.1746L12.2888 32.0732Z" fill="#027F9E"/>
<path d="M86.5986 25.0024L43.2992 0L0 25.0024L12.2888 32.0732L43.2992 14.1746L74.3098 32.0732L86.5986 25.0024Z" fill="#17A6B2"/>
<path d="M86.5985 25.0024L74.3097 32.0732V67.9423L43.2991 85.8278V100L86.5985 74.9977V25.0024Z" fill="#027F9E"/>
<path d="M62.021 60.8317L43.2992 71.6353L24.5776 60.8317L12.2888 67.9423L43.2992 85.8278L74.3098 67.9423L62.021 60.8317Z" fill="#17A6B2"/>
</svg>
