<svg width="356" height="100" viewBox="0 0 356 100" fill="none" xmlns="http://www.w3.org/2000/svg">
<g clip-path="url(#clip0_15_686)">
<path d="M43.2991 0L0 25.0024V74.9977L43.2991 100L86.5986 74.9977V25.0024L43.2991 0ZM43.2991 28.3646L62.0209 39.1734V60.8317L43.2991 71.6353L24.5776 60.8317V39.1734L43.2991 28.3646H43.2991Z" fill="#16D6C7"/>
<path d="M12.2888 32.0732V67.9423L24.5776 60.8317V39.1734L43.2992 28.3646V14.1746L12.2888 32.0732Z" fill="#027F9E"/>
<path d="M86.5986 25.0024L43.2992 0L0 25.0024L12.2888 32.0732L43.2992 14.1746L74.3098 32.0732L86.5986 25.0024Z" fill="#17A6B2"/>
<path d="M86.5985 25.0024L74.3097 32.0732V67.9423L43.2991 85.8278V100L86.5985 74.9977V25.0024Z" fill="#027F9E"/>
<path d="M62.021 60.8317L43.2992 71.6353L24.5776 60.8317L12.2888 67.9423L43.2992 85.8278L74.3098 67.9423L62.021 60.8317Z" fill="#17A6B2"/>
<path d="M109.781 47.8106C109.524 47.8106 109.315 47.7294 109.152 47.5662C108.989 47.4037 108.908 47.1942 108.908 46.9378V28.2239H102.554C102.321 28.2239 102.123 28.1426 101.96 27.9794C101.797 27.8169 101.716 27.6188 101.716 27.3859V24.2436C101.716 23.9878 101.797 23.7784 101.96 23.6152C102.123 23.4526 102.321 23.3708 102.554 23.3708H120.849C121.104 23.3708 121.314 23.4526 121.477 23.6152C121.639 23.7784 121.721 23.9878 121.721 24.2436V27.3859C121.721 27.6188 121.639 27.8169 121.477 27.9794C121.314 28.1426 121.104 28.2239 120.849 28.2239H114.529V46.9378C114.529 47.1942 114.447 47.4037 114.285 47.5662C114.122 47.7294 113.912 47.8106 113.656 47.8106H109.781Z" fill="#361E5B"/>
<path d="M129.297 48.1596C126.62 48.1596 124.497 47.415 122.925 45.9253C121.354 44.436 120.522 42.2713 120.429 39.4312V37.9301C120.522 36.1379 120.929 34.5958 121.651 33.3038C122.372 32.012 123.385 31.023 124.689 30.3361C125.992 29.6498 127.517 29.3061 129.262 29.3061C131.217 29.3061 132.852 29.7077 134.168 30.5107C135.483 31.3137 136.472 32.408 137.135 33.7925C137.799 35.1778 138.13 36.7663 138.13 38.5584V39.3616C138.13 39.5943 138.043 39.7924 137.868 39.955C137.694 40.1181 137.49 40.1994 137.258 40.1994H125.841V40.4788C125.864 41.224 126.009 41.9046 126.277 42.5211C126.544 43.1381 126.929 43.6329 127.429 44.0049C127.93 44.3777 128.529 44.5636 129.227 44.5636C129.809 44.5636 130.286 44.4824 130.659 44.3192C131.031 44.1566 131.34 43.9586 131.584 43.7258C131.828 43.4933 132.009 43.2952 132.125 43.1321C132.335 42.9 132.503 42.7542 132.632 42.6959C132.759 42.6379 132.963 42.6087 133.243 42.6087H136.874C137.106 42.6087 137.298 42.6729 137.45 42.8005C137.601 42.9286 137.665 43.1094 137.642 43.3416C137.618 43.7142 137.426 44.1744 137.065 44.7208C136.704 45.2679 136.175 45.8031 135.477 46.3269C134.779 46.8507 133.911 47.2869 132.876 47.6362C131.84 47.9852 130.647 48.1597 129.297 48.1597L129.297 48.1596ZM125.841 37.022H132.684V36.9524C132.684 36.1142 132.55 35.3873 132.282 34.7703C132.015 34.1539 131.625 33.6704 131.113 33.3213C130.601 32.9721 129.984 32.7975 129.262 32.7975C128.541 32.7975 127.924 32.9721 127.412 33.3213C126.9 33.6704 126.51 34.1539 126.242 34.7703C125.974 35.3873 125.841 36.1142 125.841 36.9524V37.022Z" fill="#361E5B"/>
<path d="M148.255 48.1596C146.812 48.1596 145.572 47.9906 144.537 47.6535C143.501 47.3164 142.663 46.9029 142.023 46.4141C141.382 45.9253 140.906 45.431 140.591 44.9303C140.277 44.4301 140.108 44.0049 140.085 43.6559C140.062 43.4001 140.143 43.1907 140.33 43.0275C140.516 42.8649 140.702 42.7831 140.888 42.7831H144.275C144.345 42.7831 144.414 42.795 144.484 42.818C144.554 42.8413 144.624 42.8999 144.694 42.9925C144.996 43.202 145.31 43.441 145.637 43.7082C145.962 43.9762 146.34 44.203 146.771 44.3891C147.202 44.5756 147.743 44.6685 148.395 44.6685C149.163 44.6685 149.814 44.5114 150.35 44.197C150.885 43.883 151.153 43.4351 151.153 42.8527C151.153 42.4338 151.031 42.0848 150.786 41.8054C150.542 41.526 150.082 41.2703 149.407 41.0372C148.732 40.805 147.731 40.5484 146.404 40.2693C145.148 39.9899 144.077 39.6179 143.192 39.1521C142.308 38.6866 141.644 38.0991 141.202 37.3886C140.76 36.679 140.539 35.8235 140.539 34.8226C140.539 33.9148 140.824 33.0419 141.394 32.204C141.964 31.366 142.808 30.6738 143.926 30.1266C145.043 29.5801 146.439 29.3061 148.115 29.3061C149.395 29.3061 150.518 29.4633 151.484 29.7774C152.45 30.0918 153.259 30.4878 153.911 30.9646C154.562 31.4419 155.057 31.9307 155.395 32.4309C155.732 32.9316 155.912 33.3682 155.936 33.7402C155.959 33.9731 155.889 34.1712 155.726 34.3338C155.563 34.4969 155.377 34.5782 155.168 34.5782H152.061C151.944 34.5782 151.839 34.5608 151.746 34.5259C151.653 34.4909 151.572 34.4386 151.502 34.3687C151.223 34.1825 150.937 33.9671 150.647 33.7227C150.355 33.4783 150.012 33.2634 149.617 33.0769C149.221 32.8909 148.709 32.7975 148.08 32.7975C147.312 32.7975 146.724 32.9666 146.317 33.3038C145.91 33.6414 145.706 34.0666 145.706 34.5782C145.706 34.9044 145.811 35.2066 146.02 35.4859C146.23 35.7653 146.66 36.0216 147.312 36.2541C147.964 36.4869 148.953 36.7313 150.28 36.9874C151.862 37.2664 153.119 37.6857 154.051 38.2441C154.981 38.8028 155.651 39.4488 156.058 40.1821C156.465 40.915 156.669 41.7005 156.669 42.5387C156.669 43.6328 156.343 44.6046 155.691 45.454C155.04 46.3038 154.091 46.9671 152.846 47.444C151.601 47.9209 150.07 48.1596 148.255 48.1596H148.255Z" fill="#361E5B"/>
<path d="M168.4 47.8106C166.956 47.8106 165.723 47.5722 164.699 47.095C163.675 46.6181 162.901 45.8788 162.377 44.8779C161.854 43.8773 161.592 42.6205 161.592 41.1072V33.7751H158.869C158.612 33.7751 158.403 33.6939 158.24 33.5307C158.077 33.3682 157.996 33.1587 157.996 32.9022V30.5281C157.996 30.2722 158.077 30.0627 158.24 29.8996C158.403 29.737 158.612 29.6552 158.869 29.6552H161.592V23.8944C161.592 23.6387 161.679 23.4292 161.854 23.266C162.028 23.1034 162.232 23.0216 162.465 23.0216H165.886C166.142 23.0216 166.352 23.1034 166.515 23.266C166.677 23.4292 166.759 23.6386 166.759 23.8944V29.6552H171.123C171.356 29.6552 171.554 29.737 171.717 29.8996C171.879 30.0628 171.961 30.2722 171.961 30.5281V32.9022C171.961 33.1587 171.879 33.3682 171.717 33.5307C171.554 33.6939 171.356 33.7751 171.123 33.7751H166.759V40.6882C166.759 41.573 166.916 42.2653 167.23 42.7655C167.545 43.2662 168.097 43.5163 168.889 43.5163H171.438C171.67 43.5163 171.868 43.5981 172.031 43.7607C172.194 43.9235 172.276 44.1216 172.276 44.3541V46.9378C172.276 47.1941 172.194 47.4036 172.031 47.5662C171.868 47.7294 171.67 47.8106 171.438 47.8106H168.4H168.4Z" fill="#361E5B"/>
<path d="M184.251 48.1596C182.552 48.1596 181.056 47.8456 179.764 47.2172C178.473 46.5886 177.454 45.6754 176.709 44.4764C175.964 43.2779 175.557 41.8404 175.488 40.1645C175.464 39.7925 175.453 39.3212 175.453 38.7506C175.453 38.1805 175.464 37.709 175.488 37.3364C175.557 35.6377 175.959 34.1888 176.692 32.9895C177.425 31.791 178.443 30.8773 179.747 30.2488C181.05 29.6204 182.552 29.3061 184.251 29.3061C185.81 29.3061 187.137 29.5217 188.231 29.9521C189.325 30.3831 190.221 30.9242 190.919 31.5756C191.618 32.2274 192.136 32.9082 192.473 33.618C192.81 34.3283 192.991 34.9508 193.014 35.4859C193.037 35.719 192.962 35.9224 192.787 36.097C192.613 36.2715 192.409 36.3587 192.176 36.3587H188.441C188.208 36.3587 188.027 36.295 187.899 36.1669C187.771 36.0393 187.649 35.8585 187.533 35.6257C187.207 34.8112 186.788 34.2292 186.276 33.8799C185.764 33.5307 185.124 33.3561 184.356 33.3561C183.308 33.3561 182.482 33.6938 181.877 34.3687C181.271 35.0439 180.945 36.0915 180.899 37.5108C180.876 38.4185 180.876 39.2453 180.899 39.9899C180.969 41.4334 181.301 42.4807 181.894 43.132C182.488 43.784 183.308 44.1097 184.356 44.1097C185.17 44.1097 185.822 43.9352 186.311 43.5859C186.8 43.2369 187.207 42.6554 187.533 41.8403C187.625 41.6078 187.742 41.4274 187.882 41.2992C188.021 41.1716 188.207 41.1071 188.441 41.1071H192.176C192.409 41.1071 192.613 41.1943 192.787 41.3688C192.962 41.5436 193.037 41.7477 193.014 41.9799C192.991 42.3761 192.88 42.8413 192.683 43.3764C192.485 43.9122 192.17 44.459 191.74 45.0174C191.309 45.5762 190.756 46.0942 190.082 46.5711C189.406 47.0483 188.586 47.4326 187.62 47.7233C186.654 48.014 185.531 48.1595 184.251 48.1595V48.1596Z" fill="#361E5B"/>
<path d="M204.396 48.1597C202.464 48.1597 200.846 47.8397 199.543 47.1996C198.239 46.5599 197.244 45.6459 196.558 44.4591C195.871 43.2719 195.493 41.8873 195.423 40.3043C195.4 39.8388 195.388 39.309 195.388 38.7156C195.388 38.1222 195.4 37.6044 195.423 37.1619C195.493 35.5558 195.888 34.1653 196.61 32.9895C197.332 31.8145 198.344 30.9067 199.648 30.2663C200.951 29.6264 202.534 29.3062 204.396 29.3062C206.234 29.3062 207.806 29.6265 209.109 30.2663C210.413 30.9067 211.425 31.8145 212.147 32.9895C212.868 34.1653 213.264 35.5559 213.334 37.1619C213.38 37.6044 213.404 38.1219 213.404 38.7156C213.404 39.3093 213.38 39.8387 213.334 40.3043C213.264 41.8873 212.885 43.2719 212.199 44.4591C211.512 45.6459 210.517 46.5599 209.214 47.1996C207.91 47.8396 206.304 48.1597 204.396 48.1597H204.396ZM204.396 44.3192C205.536 44.3192 206.398 43.9646 206.98 43.2543C207.561 42.5447 207.875 41.5034 207.922 40.1295C207.945 39.7806 207.957 39.315 207.957 38.733C207.957 38.1515 207.945 37.6857 207.922 37.3364C207.875 35.9868 207.561 34.9508 206.98 34.2292C206.398 33.5078 205.536 33.1467 204.396 33.1467C203.256 33.1467 202.388 33.5078 201.795 34.2292C201.201 34.9508 200.881 35.9867 200.835 37.3364C200.811 37.6857 200.8 38.1515 200.8 38.733C200.8 39.315 200.811 39.7806 200.835 40.1295C200.881 41.5034 201.201 42.5447 201.795 43.2543C202.388 43.9646 203.255 44.3192 204.396 44.3192Z" fill="#361E5B"/>
<path d="M217.314 47.8106C217.081 47.8106 216.883 47.7294 216.72 47.5662C216.557 47.4037 216.476 47.1942 216.476 46.9378V30.5282C216.476 30.2722 216.557 30.0628 216.72 29.8997C216.883 29.7371 217.081 29.6552 217.314 29.6552H220.735C220.991 29.6552 221.201 29.7371 221.364 29.8997C221.527 30.0628 221.608 30.2722 221.608 30.5282V31.8898C222.213 31.1452 222.993 30.5282 223.948 30.0393C224.902 29.5505 226.065 29.3061 227.439 29.3061C228.812 29.3061 230.016 29.6149 231.053 30.2313C232.088 30.8483 232.903 31.7447 233.496 32.9198C234.09 34.0953 234.387 35.5209 234.387 37.1968V46.9379C234.387 47.1942 234.3 47.4037 234.125 47.5663C233.95 47.7294 233.746 47.8107 233.514 47.8107H229.813C229.557 47.8107 229.347 47.7294 229.185 47.5663C229.022 47.4037 228.94 47.1943 228.94 46.9379V37.4063C228.94 36.1729 228.644 35.2125 228.05 34.526C227.456 33.8396 226.589 33.4959 225.449 33.4959C224.355 33.4959 223.482 33.8396 222.83 34.526C222.178 35.2126 221.853 36.1729 221.853 37.4063V46.9379C221.853 47.1942 221.771 47.4037 221.608 47.5663C221.445 47.7294 221.247 47.8107 221.015 47.8107H217.314L217.314 47.8106Z" fill="#361E5B"/>
<path d="M246.955 47.8106C245.512 47.8106 244.279 47.5722 243.254 47.095C242.23 46.6181 241.457 45.8788 240.933 44.8779C240.409 43.8773 240.147 42.6205 240.147 41.1072V33.7751H237.424C237.168 33.7751 236.958 33.6939 236.796 33.5307C236.633 33.3682 236.551 33.1587 236.551 32.9022V30.5281C236.551 30.2722 236.633 30.0627 236.796 29.8996C236.958 29.737 237.168 29.6552 237.424 29.6552H240.147V23.8944C240.147 23.6387 240.235 23.4292 240.409 23.266C240.584 23.1034 240.787 23.0216 241.02 23.0216H244.442C244.698 23.0216 244.907 23.1034 245.07 23.266C245.233 23.4292 245.315 23.6386 245.315 23.8944V29.6552H249.679C249.911 29.6552 250.109 29.737 250.273 29.8996C250.435 30.0628 250.517 30.2722 250.517 30.5281V32.9022C250.517 33.1587 250.435 33.3682 250.273 33.5307C250.109 33.6939 249.911 33.7751 249.679 33.7751H245.315V40.6882C245.315 41.573 245.472 42.2653 245.786 42.7655C246.1 43.2662 246.653 43.5163 247.444 43.5163H249.993C250.225 43.5163 250.423 43.5981 250.587 43.7607C250.749 43.9235 250.831 44.1216 250.831 44.3541V46.9378C250.831 47.1941 250.749 47.4036 250.587 47.5662C250.423 47.7294 250.225 47.8106 249.993 47.8106H246.955H246.955Z" fill="#361E5B"/>
<path d="M259.559 48.1596C258.325 48.1596 257.22 47.9209 256.243 47.444C255.265 46.9671 254.485 46.3214 253.904 45.5063C253.321 44.6918 253.031 43.784 253.031 42.7831C253.031 41.1307 253.7 39.8274 255.038 38.8725C256.376 37.9184 258.139 37.2664 260.328 36.9175L264.901 36.2541V35.6257C264.901 34.7177 264.692 34.0197 264.273 33.5308C263.854 33.0419 263.121 32.7975 262.073 32.7975C261.305 32.7975 260.688 32.9491 260.223 33.2514C259.757 33.5542 259.396 33.9498 259.14 34.4387C258.954 34.7413 258.687 34.8926 258.337 34.8926H255.02C254.764 34.8926 254.567 34.8172 254.427 34.6655C254.287 34.5143 254.229 34.3338 254.253 34.1243C254.253 33.7287 254.404 33.2635 254.706 32.7278C255.009 32.1926 255.475 31.6629 256.103 31.1391C256.731 30.6154 257.535 30.179 258.512 29.8299C259.49 29.4807 260.688 29.3061 262.108 29.3061C263.574 29.3061 264.831 29.4807 265.879 29.8299C266.926 30.1791 267.764 30.6679 268.393 31.2962C269.021 31.9247 269.486 32.6524 269.789 33.4783C270.091 34.3048 270.243 35.1952 270.243 36.1493V46.9379C270.243 47.1942 270.161 47.4037 269.999 47.5663C269.835 47.7294 269.626 47.8107 269.37 47.8107H265.949C265.716 47.8107 265.518 47.7294 265.355 47.5663C265.192 47.4037 265.111 47.1943 265.111 46.9379V45.6459C264.808 46.0884 264.4 46.5014 263.889 46.8856C263.377 47.2696 262.766 47.5782 262.056 47.8107C261.346 48.0432 260.514 48.1597 259.56 48.1597L259.559 48.1596ZM260.956 44.5287C261.724 44.5287 262.41 44.3661 263.016 44.0399C263.621 43.7142 264.098 43.214 264.447 42.5387C264.796 41.8637 264.971 41.0145 264.971 39.99V39.3963L261.724 39.9202C260.467 40.1296 259.547 40.444 258.966 40.8629C258.384 41.2818 258.093 41.7942 258.093 42.399C258.093 42.8415 258.227 43.2258 258.495 43.5512C258.762 43.8774 259.117 44.1218 259.559 44.2844C260.001 44.4476 260.467 44.5288 260.956 44.5288L260.956 44.5287Z" fill="#361E5B"/>
<path d="M274.677 26.8622C274.444 26.8622 274.246 26.781 274.083 26.6178C273.92 26.4552 273.839 26.2456 273.839 25.9893V23.1962C273.839 22.9404 273.92 22.7249 274.083 22.5504C274.246 22.3757 274.444 22.2885 274.677 22.2885H278.343C278.598 22.2885 278.814 22.3757 278.988 22.5504C279.163 22.7249 279.25 22.9404 279.25 23.1962V25.9893C279.25 26.2456 279.163 26.4552 278.988 26.6178C278.814 26.781 278.598 26.8622 278.343 26.8622H274.677ZM274.782 47.8106C274.549 47.8106 274.35 47.7294 274.188 47.5662C274.025 47.4037 273.943 47.1942 273.943 46.9378V30.5281C273.943 30.2722 274.025 30.0628 274.188 29.8997C274.35 29.7371 274.549 29.6552 274.782 29.6552H278.273C278.528 29.6552 278.738 29.7371 278.901 29.8997C279.064 30.0628 279.146 30.2722 279.146 30.5281V46.9378C279.146 47.1942 279.064 47.4037 278.901 47.5662C278.738 47.7294 278.529 47.8106 278.273 47.8106H274.782Z" fill="#361E5B"/>
<path d="M284.347 47.8106C284.114 47.8106 283.916 47.7294 283.754 47.5662C283.591 47.4037 283.51 47.1942 283.51 46.9378V30.5282C283.51 30.2722 283.591 30.0628 283.754 29.8997C283.916 29.7371 284.114 29.6552 284.347 29.6552H287.769C288.025 29.6552 288.234 29.7371 288.398 29.8997C288.56 30.0628 288.642 30.2722 288.642 30.5282V31.8898C289.247 31.1452 290.026 30.5282 290.981 30.0393C291.935 29.5505 293.099 29.3061 294.472 29.3061C295.846 29.3061 297.05 29.6149 298.086 30.2313C299.121 30.8483 299.936 31.7447 300.53 32.9198C301.123 34.0953 301.42 35.5209 301.42 37.1968V46.9379C301.42 47.1942 301.333 47.4037 301.159 47.5663C300.984 47.7294 300.78 47.8107 300.547 47.8107H296.847C296.59 47.8107 296.381 47.7294 296.218 47.5663C296.055 47.4037 295.974 47.1943 295.974 46.9379V37.4063C295.974 36.1729 295.677 35.2125 295.083 34.526C294.49 33.8396 293.623 33.4959 292.482 33.4959C291.388 33.4959 290.515 33.8396 289.864 34.526C289.212 35.2126 288.886 36.1729 288.886 37.4063V46.9379C288.886 47.1942 288.804 47.4037 288.642 47.5663C288.479 47.7294 288.281 47.8107 288.048 47.8107H284.347L284.347 47.8106Z" fill="#361E5B"/>
<path d="M313.186 48.1596C310.509 48.1596 308.385 47.415 306.814 45.9253C305.243 44.436 304.411 42.2713 304.318 39.4312V37.9301C304.411 36.1379 304.818 34.5958 305.54 33.3038C306.261 32.012 307.274 31.023 308.577 30.3361C309.881 29.6498 311.406 29.3061 313.151 29.3061C315.106 29.3061 316.741 29.7077 318.056 30.5107C319.371 31.3137 320.361 32.408 321.024 33.7925C321.687 35.1778 322.019 36.7663 322.019 38.5584V39.3616C322.019 39.5943 321.932 39.7924 321.757 39.955C321.583 40.1181 321.379 40.1994 321.146 40.1994H309.73V40.4788C309.753 41.224 309.898 41.9046 310.166 42.5211C310.433 43.1381 310.817 43.6329 311.318 44.0049C311.818 44.3777 312.418 44.5636 313.116 44.5636C313.698 44.5636 314.175 44.4824 314.548 44.3192C314.92 44.1566 315.229 43.9586 315.473 43.7258C315.718 43.4933 315.897 43.2952 316.014 43.1321C316.223 42.9 316.392 42.7542 316.52 42.6959C316.648 42.6379 316.852 42.6087 317.131 42.6087H320.762C320.995 42.6087 321.187 42.6729 321.338 42.8005C321.49 42.9286 321.553 43.1094 321.531 43.3416C321.507 43.7142 321.315 44.1744 320.954 44.7208C320.593 45.2679 320.064 45.8031 319.366 46.3269C318.668 46.8507 317.8 47.2869 316.765 47.6362C315.729 47.9852 314.536 48.1597 313.186 48.1597L313.186 48.1596ZM309.73 37.022H316.573V36.9524C316.573 36.1142 316.438 35.3873 316.171 34.7703C315.903 34.1539 315.513 33.6704 315.002 33.3213C314.489 32.9721 313.872 32.7975 313.151 32.7975C312.429 32.7975 311.813 32.9721 311.301 33.3213C310.788 33.6704 310.398 34.1539 310.131 34.7703C309.863 35.3873 309.73 36.1142 309.73 36.9524V37.022Z" fill="#361E5B"/>
<path d="M325.999 47.8106C325.766 47.8106 325.568 47.7294 325.406 47.5662C325.243 47.4036 325.161 47.1942 325.161 46.9378V30.5281C325.161 30.2956 325.243 30.0917 325.406 29.9171C325.568 29.7426 325.766 29.6552 325.999 29.6552H329.421C329.653 29.6552 329.857 29.7426 330.032 29.9171C330.206 30.0917 330.294 30.2956 330.294 30.5281V31.9247C330.875 31.2034 331.591 30.6448 332.441 30.2487C333.29 29.8532 334.274 29.6552 335.391 29.6552H336.892C337.125 29.6552 337.323 29.737 337.486 29.8996C337.648 30.0627 337.73 30.2721 337.73 30.5281V33.5307C337.73 33.787 337.648 33.9966 337.486 34.1592C337.323 34.3223 337.125 34.4036 336.892 34.4036H333.82C332.795 34.4036 331.992 34.6889 331.411 35.259C330.829 35.8295 330.538 36.638 330.538 37.6856V46.9378C330.538 47.1941 330.456 47.4036 330.294 47.5662C330.131 47.7294 329.921 47.8106 329.665 47.8106H325.999H325.999Z" fill="#361E5B"/>
<path d="M347.506 48.1596C346.063 48.1596 344.823 47.9906 343.788 47.6535C342.752 47.3164 341.914 46.9029 341.274 46.4141C340.634 45.9253 340.157 45.431 339.842 44.9303C339.528 44.4301 339.359 44.0049 339.336 43.6559C339.313 43.4001 339.394 43.1907 339.581 43.0275C339.767 42.8649 339.953 42.7831 340.139 42.7831H343.526C343.596 42.7831 343.665 42.795 343.735 42.818C343.805 42.8413 343.875 42.8999 343.945 42.9925C344.247 43.202 344.561 43.441 344.888 43.7082C345.213 43.9762 345.591 44.203 346.022 44.3891C346.453 44.5756 346.994 44.6685 347.646 44.6685C348.414 44.6685 349.065 44.5114 349.601 44.197C350.136 43.883 350.404 43.4351 350.404 42.8527C350.404 42.4338 350.282 42.0848 350.037 41.8054C349.793 41.526 349.333 41.2703 348.658 41.0372C347.983 40.805 346.982 40.5484 345.656 40.2693C344.399 39.9899 343.328 39.6179 342.444 39.1521C341.559 38.6866 340.896 38.0991 340.453 37.3886C340.011 36.679 339.79 35.8235 339.79 34.8226C339.79 33.9148 340.075 33.0419 340.646 32.204C341.216 31.366 342.06 30.6738 343.177 30.1266C344.294 29.5801 345.691 29.3061 347.366 29.3061C348.646 29.3061 349.77 29.4633 350.736 29.7774C351.701 30.0918 352.51 30.4878 353.162 30.9646C353.814 31.4419 354.308 31.9307 354.646 32.4309C354.983 32.9316 355.164 33.3682 355.187 33.7402C355.21 33.9731 355.14 34.1712 354.978 34.3338C354.815 34.4969 354.629 34.5782 354.419 34.5782H351.312C351.195 34.5782 351.09 34.5608 350.998 34.5259C350.904 34.4909 350.823 34.4386 350.753 34.3687C350.474 34.1825 350.189 33.9671 349.898 33.7227C349.606 33.4783 349.263 33.2634 348.868 33.0769C348.472 32.8909 347.96 32.7975 347.332 32.7975C346.563 32.7975 345.975 32.9666 345.568 33.3038C345.161 33.6414 344.957 34.0666 344.957 34.5782C344.957 34.9044 345.062 35.2066 345.272 35.4859C345.481 35.7653 345.911 36.0216 346.563 36.2541C347.215 36.4869 348.204 36.7313 349.531 36.9874C351.114 37.2664 352.371 37.6857 353.302 38.2441C354.233 38.8028 354.902 39.4488 355.309 40.1821C355.716 40.915 355.92 41.7005 355.92 42.5387C355.92 43.6328 355.594 44.6046 354.943 45.454C354.291 46.3038 353.342 46.9671 352.097 47.444C350.852 47.9209 349.322 48.1596 347.506 48.1596H347.506Z" fill="#361E5B"/>
<path d="M113.779 79.8213C111.59 79.8213 109.733 79.4546 108.209 78.7213C106.683 77.9876 105.502 76.917 104.664 75.508C103.826 74.0994 103.36 72.3821 103.267 70.3565C103.243 69.4019 103.232 68.3779 103.232 67.283C103.232 66.189 103.243 65.1411 103.267 64.1397C103.36 62.1376 103.831 60.4322 104.681 59.0232C105.531 57.6145 106.724 56.538 108.261 55.7924C109.798 55.0476 111.637 54.6749 113.779 54.6749C115.339 54.6749 116.759 54.8728 118.04 55.2684C119.32 55.6649 120.427 56.2349 121.358 56.9801C122.289 57.7253 123.011 58.5985 123.524 59.5995C124.035 60.6006 124.315 61.7185 124.362 62.9523C124.362 63.1616 124.286 63.3364 124.135 63.4762C123.983 63.6156 123.803 63.6855 123.594 63.6855H119.612C119.332 63.6855 119.111 63.6156 118.948 63.4762C118.785 63.3364 118.657 63.104 118.564 62.7774C118.215 61.4038 117.633 60.4611 116.818 59.9487C116.003 59.4367 114.99 59.18 113.779 59.18C112.335 59.18 111.195 59.5765 110.357 60.3678C109.518 61.1595 109.064 62.4751 108.994 64.3144C108.925 66.2236 108.925 68.1796 108.994 70.1817C109.064 72.0214 109.518 73.3371 110.357 74.1284C111.195 74.9205 112.335 75.3161 113.779 75.3161C114.99 75.3161 116.009 75.0539 116.835 74.5299C117.662 74.0064 118.238 73.0693 118.564 71.7186C118.657 71.3695 118.785 71.1307 118.948 71.0023C119.111 70.8749 119.332 70.8105 119.612 70.8105H123.594C123.803 70.8105 123.983 70.8804 124.135 71.0198C124.286 71.1597 124.362 71.3345 124.362 71.5438C124.315 72.7785 124.035 73.8959 123.524 74.8965C123.011 75.898 122.289 76.7711 121.358 77.5159C120.427 78.2616 119.32 78.832 118.04 79.2277C116.759 79.6233 115.339 79.8211 113.779 79.8211L113.779 79.8213Z" fill="#361E5B"/>
<path d="M128.762 79.4721C128.506 79.4721 128.296 79.3907 128.134 79.2278C127.971 79.0649 127.889 78.8556 127.889 78.5989V55.548C127.889 55.2917 127.971 55.0824 128.134 54.9191C128.296 54.7567 128.506 54.6748 128.762 54.6748H132.255C132.487 54.6748 132.686 54.7566 132.849 54.9191C133.011 55.0824 133.093 55.2917 133.093 55.548V78.5989C133.093 78.8556 133.011 79.0649 132.849 79.2278C132.686 79.3906 132.487 79.4721 132.255 79.4721H128.762Z" fill="#361E5B"/>
<path d="M145.806 79.8213C143.873 79.8213 142.255 79.5011 140.951 78.8607C139.647 78.2208 138.652 77.3067 137.965 76.1193C137.278 74.9316 136.9 73.5468 136.83 71.9629C136.806 71.4974 136.795 70.9674 136.795 70.374C136.795 69.7801 136.806 69.2621 136.83 68.8196C136.9 67.2131 137.295 65.8219 138.018 64.6461C138.739 63.4707 139.752 62.5626 141.056 61.9218C142.36 61.2818 143.943 60.9612 145.806 60.9612C147.645 60.9612 149.217 61.2818 150.521 61.9218C151.825 62.5626 152.838 63.4707 153.559 64.6461C154.281 65.8219 154.677 67.2131 154.747 68.8196C154.793 69.2621 154.817 69.7801 154.817 70.374C154.817 70.9674 154.793 71.4974 154.747 71.9629C154.677 73.5468 154.298 74.9316 153.612 76.1193C152.925 77.3067 151.93 78.2208 150.626 78.8607C149.322 79.5011 147.715 79.8213 145.806 79.8213ZM145.806 75.9795C146.947 75.9795 147.808 75.6248 148.391 74.9141C148.972 74.2042 149.287 73.1627 149.334 71.7886C149.357 71.439 149.369 70.9739 149.369 70.3915C149.369 69.8096 149.357 69.3436 149.334 68.9944C149.287 67.6442 148.972 66.6082 148.391 65.886C147.808 65.1646 146.947 64.8035 145.806 64.8035C144.665 64.8035 143.798 65.1646 143.204 65.886C142.61 66.6082 142.29 67.6442 142.244 68.9944C142.22 69.3436 142.209 69.8096 142.209 70.3915C142.209 70.9739 142.22 71.439 142.244 71.7886C142.29 73.1627 142.61 74.2043 143.204 74.9141C143.798 75.6248 144.665 75.9795 145.806 75.9795Z" fill="#361E5B"/>
<path d="M165.155 79.8212C163.804 79.8212 162.611 79.5126 161.575 78.8956C160.539 78.2792 159.735 77.3826 159.165 76.2063C158.595 75.0309 158.309 73.6044 158.309 71.928V62.184C158.309 61.9277 158.391 61.7184 158.554 61.5551C158.716 61.3927 158.915 61.3108 159.148 61.3108H162.85C163.106 61.3108 163.315 61.3926 163.479 61.5551C163.641 61.7184 163.723 61.9277 163.723 62.184V71.7186C163.723 74.3265 164.863 75.6303 167.146 75.6303C168.24 75.6303 169.107 75.2871 169.748 74.5998C170.388 73.9134 170.708 72.9529 170.708 71.7186V62.184C170.708 61.9277 170.79 61.7184 170.952 61.5551C171.115 61.3927 171.325 61.3108 171.581 61.3108H175.283C175.516 61.3108 175.714 61.3926 175.877 61.5551C176.04 61.7184 176.122 61.9277 176.122 62.184V78.5989C176.122 78.8556 176.04 79.0649 175.877 79.2278C175.714 79.3906 175.516 79.4721 175.283 79.4721H171.861C171.604 79.4721 171.395 79.3907 171.232 79.2278C171.069 79.0649 170.987 78.8556 170.987 78.5989V77.2367C170.382 78.0749 169.602 78.7157 168.648 79.1579C167.693 79.6 166.528 79.8212 165.155 79.8212Z" fill="#361E5B"/>
<path d="M187.263 79.8213C186.098 79.8213 185.063 79.6294 184.155 79.2453C183.246 78.8607 182.478 78.3022 181.849 77.5685C181.22 76.8352 180.743 75.962 180.417 74.9491C180.091 73.9365 179.893 72.8131 179.824 71.5788C179.8 71.1367 179.789 70.7351 179.789 70.374C179.789 70.0133 179.8 69.6232 179.824 69.2042C179.87 67.9933 180.062 66.8874 180.4 65.886C180.737 64.8854 181.214 64.0173 181.832 63.284C182.448 62.5507 183.217 61.9803 184.137 61.5727C185.056 61.1656 186.098 60.9613 187.263 60.9613C188.473 60.9613 189.509 61.1656 190.371 61.5727C191.232 61.9803 191.943 62.5102 192.502 63.1617V55.5481C192.502 55.2919 192.583 55.0825 192.746 54.9192C192.909 54.7568 193.118 54.6749 193.375 54.6749H196.972C197.205 54.6749 197.403 54.7568 197.566 54.9192C197.728 55.0825 197.81 55.2919 197.81 55.5481V78.599C197.81 78.8557 197.728 79.065 197.566 79.2279C197.403 79.3907 197.205 79.4722 196.972 79.4722H193.619C193.386 79.4722 193.188 79.3908 193.025 79.2279C192.863 79.065 192.781 78.8557 192.781 78.599V77.4117C192.199 78.11 191.466 78.6864 190.581 79.1405C189.696 79.5945 188.59 79.8214 187.263 79.8214L187.263 79.8213ZM188.869 75.6303C189.731 75.6303 190.423 75.4325 190.947 75.0365C191.471 74.6408 191.856 74.1403 192.1 73.5349C192.345 72.9295 192.478 72.2772 192.502 71.5788C192.548 71.1367 192.571 70.6942 192.571 70.2517C192.571 69.8095 192.548 69.3786 192.502 68.9594C192.478 68.308 192.339 67.6966 192.082 67.1257C191.826 66.5557 191.437 66.0842 190.913 65.7116C190.389 65.3394 189.708 65.1526 188.87 65.1526C187.984 65.1526 187.286 65.3444 186.774 65.7286C186.262 66.1131 185.895 66.6192 185.674 67.2481C185.452 67.8769 185.319 68.5637 185.272 69.3086C185.202 70.0308 185.202 70.7526 185.272 71.474C185.319 72.2196 185.452 72.906 185.674 73.5349C185.895 74.1633 186.262 74.6698 186.774 75.054C187.286 75.4381 187.984 75.6303 188.87 75.6303H188.869Z" fill="#361E5B"/>
<path d="M211.556 76.1486C211.436 76.1486 211.343 76.1134 211.277 76.0422C211.212 75.9716 211.179 75.8815 211.179 75.7723V65.0889C211.179 64.9688 211.212 64.8736 211.277 64.8027C211.343 64.7318 211.436 64.6963 211.556 64.6963H216.039C216.856 64.6963 217.524 64.8299 218.042 65.097C218.56 65.3643 218.943 65.7269 219.188 66.185C219.433 66.6431 219.556 67.1558 219.556 67.723C219.556 68.1702 219.482 68.5548 219.335 68.8763C219.188 69.1982 219.005 69.4599 218.787 69.6615C218.569 69.8636 218.356 70.0189 218.149 70.1279C218.574 70.3352 218.953 70.6735 219.286 71.1423C219.619 71.6115 219.785 72.1786 219.785 72.8438C219.785 73.4437 219.649 73.9947 219.376 74.4963C219.103 74.9979 218.697 75.3988 218.157 75.6988C217.617 75.9989 216.955 76.1487 216.169 76.1487H211.556L211.556 76.1486ZM212.783 69.5389H215.793C216.491 69.5389 217.02 69.3781 217.38 69.0564C217.74 68.7347 217.92 68.2955 217.92 67.7392C217.92 67.183 217.74 66.7575 217.38 66.4633C217.02 66.1687 216.491 66.0215 215.793 66.0215H212.783V69.5388V69.5389ZM212.783 74.8234H215.957C216.655 74.8234 217.195 74.6327 217.577 74.2507C217.958 73.8692 218.149 73.3999 218.149 72.8437C218.149 72.2658 217.958 71.7885 217.577 71.4122C217.195 71.0358 216.655 70.8477 215.957 70.8477H212.783V74.8234Z" fill="#9991B5"/>
<path d="M227.654 76.1486C227.545 76.1486 227.455 76.1134 227.384 76.0422C227.313 75.9716 227.278 75.8815 227.278 75.7723V71.9112L223.335 65.2362L223.303 65.1378C223.292 65.1052 223.286 65.0672 223.286 65.0234C223.286 64.9362 223.319 64.8599 223.384 64.7944C223.45 64.7289 223.526 64.6963 223.613 64.6963H224.464C224.562 64.6963 224.65 64.7206 224.726 64.7698C224.802 64.819 224.857 64.8871 224.89 64.9743L228.08 70.2752L231.27 64.9743C231.325 64.887 231.387 64.8189 231.458 64.7698C231.529 64.7207 231.614 64.6963 231.712 64.6963H232.546C232.645 64.6963 232.726 64.7289 232.792 64.7944C232.857 64.8599 232.89 64.9363 232.89 65.0234C232.89 65.0672 232.884 65.1052 232.873 65.1378C232.862 65.1707 232.846 65.2033 232.824 65.2362L228.898 71.9112V75.7723C228.898 75.8815 228.862 75.9716 228.792 76.0422C228.72 76.1134 228.625 76.1486 228.505 76.1486H227.654Z" fill="#9991B5"/>
<path d="M242.052 76.1486C241.964 76.1486 241.888 76.116 241.823 76.0505C241.757 75.985 241.725 75.9089 241.725 75.8214C241.725 75.7668 241.73 75.7068 241.741 75.6413L245.798 65.0561C245.842 64.9474 245.902 64.8599 245.979 64.7944C246.055 64.7289 246.169 64.6963 246.322 64.6963H247.435C247.587 64.6963 247.702 64.7289 247.778 64.7944C247.854 64.8599 247.915 64.9474 247.958 65.0561L251.999 75.6413C252.021 75.7068 252.032 75.7668 252.032 75.8214C252.032 75.9089 251.999 75.985 251.934 76.0505C251.868 76.116 251.792 76.1486 251.705 76.1486H250.87C250.739 76.1486 250.644 76.116 250.584 76.0505C250.524 75.985 250.483 75.9252 250.461 75.8704L249.561 73.5472H244.195L243.295 75.8704C243.284 75.9252 243.246 75.985 243.181 76.0505C243.116 76.116 243.017 76.1486 242.886 76.1486H242.052H242.052ZM244.669 72.1403H249.087L246.878 66.3323L244.669 72.1403Z" fill="#9991B5"/>
<path d="M257.905 76.1486C257.797 76.1486 257.707 76.1134 257.636 76.0422C257.565 75.9716 257.529 75.8815 257.529 75.7723V66.1522H254.388C254.279 66.1522 254.189 66.117 254.118 66.046C254.047 65.9751 254.012 65.8851 254.012 65.7761V65.0889C254.012 64.9688 254.047 64.8736 254.118 64.8027C254.189 64.7318 254.279 64.6963 254.388 64.6963H262.274C262.394 64.6963 262.489 64.7318 262.56 64.8027C262.631 64.8736 262.667 64.9688 262.667 65.0889V65.7761C262.667 65.8851 262.631 65.9751 262.56 66.046C262.489 66.117 262.394 66.1522 262.274 66.1522H259.149V75.7723C259.149 75.8815 259.114 75.9716 259.043 76.0422C258.972 76.1134 258.876 76.1486 258.756 76.1486H257.905Z" fill="#9991B5"/>
<path d="M270.83 76.3121C269.892 76.3121 269.09 76.1511 268.425 75.8295C267.76 75.508 267.247 75.0116 266.887 74.3407C266.527 73.6699 266.325 72.8274 266.282 71.813C266.271 71.3332 266.265 70.8722 266.265 70.4304C266.265 69.9889 266.271 69.5282 266.282 69.0481C266.325 68.0446 266.536 67.2076 266.912 66.5367C267.288 65.8659 267.812 65.3643 268.482 65.0315C269.153 64.6989 269.935 64.5327 270.83 64.5327C271.714 64.5327 272.491 64.6989 273.161 65.0315C273.832 65.3643 274.358 65.8659 274.74 66.5367C275.122 67.2076 275.329 68.0446 275.362 69.0481C275.384 69.5282 275.394 69.9889 275.394 70.4304C275.394 70.8722 275.384 71.3332 275.362 71.813C275.329 72.8274 275.13 73.6698 274.765 74.3407C274.399 75.0116 273.884 75.508 273.219 75.8295C272.553 76.1511 271.757 76.3121 270.83 76.3121ZM270.83 74.9215C271.659 74.9215 272.338 74.6707 272.867 74.1689C273.396 73.6675 273.682 72.8548 273.726 71.7313C273.748 71.2403 273.759 70.8016 273.759 70.4142C273.759 70.0272 273.748 69.5937 273.726 69.1136C273.704 68.3609 273.565 67.7504 273.309 67.2812C273.052 66.8124 272.712 66.4687 272.286 66.2505C271.861 66.0324 271.376 65.9234 270.83 65.9234C270.285 65.9234 269.799 66.0324 269.374 66.2505C268.949 66.4687 268.608 66.8125 268.351 67.2812C268.095 67.7504 267.951 68.3609 267.918 69.1136C267.907 69.5937 267.902 70.0272 267.902 70.4142C267.902 70.8016 267.907 71.2403 267.918 71.7313C267.962 72.8548 268.251 73.6675 268.785 74.1689C269.319 74.6707 270.001 74.9215 270.83 74.9215H270.83Z" fill="#9991B5"/>
<path d="M280.614 76.1486C280.505 76.1486 280.415 76.1134 280.344 76.0422C280.273 75.9716 280.238 75.8815 280.238 75.7723V65.0889C280.238 64.9688 280.273 64.8736 280.344 64.8027C280.415 64.7318 280.505 64.6963 280.614 64.6963H281.432C281.563 64.6963 281.661 64.7289 281.726 64.7944C281.792 64.8599 281.835 64.9145 281.857 64.958L285.309 71.5677L288.794 64.958C288.816 64.9145 288.857 64.8599 288.917 64.7944C288.976 64.7289 289.072 64.6963 289.203 64.6963H290.004C290.125 64.6963 290.22 64.7318 290.291 64.8027C290.362 64.8736 290.397 64.9688 290.397 65.0889V75.7723C290.397 75.8815 290.362 75.9716 290.291 76.0422C290.22 76.1134 290.124 76.1486 290.004 76.1486H289.203C289.094 76.1486 289.004 76.1134 288.933 76.0422C288.862 75.9716 288.827 75.8815 288.827 75.7723V67.723L286.095 73.0565C286.051 73.1657 285.985 73.2503 285.898 73.3101C285.81 73.3702 285.702 73.3999 285.571 73.3999H285.064C284.922 73.3999 284.813 73.3701 284.736 73.3101C284.66 73.2503 284.595 73.1657 284.54 73.0565L281.792 67.723V75.7723C281.792 75.8815 281.756 75.9716 281.685 76.0422C281.614 76.1134 281.524 76.1486 281.415 76.1486H280.614Z" fill="#9991B5"/>
<path d="M296.058 76.1486C295.938 76.1486 295.845 76.1134 295.78 76.0422C295.715 75.9716 295.682 75.8815 295.682 75.7723V65.0726C295.682 64.9637 295.715 64.8736 295.78 64.8027C295.845 64.7318 295.938 64.6963 296.058 64.6963H296.925C297.045 64.6963 297.138 64.7318 297.203 64.8027C297.269 64.8736 297.302 64.9637 297.302 65.0726V75.7723C297.302 75.8815 297.269 75.9716 297.203 76.0422C297.138 76.1134 297.045 76.1486 296.925 76.1486H296.058Z" fill="#9991B5"/>
<path d="M306.725 76.3121C305.721 76.3121 304.89 76.1268 304.23 75.7559C303.57 75.3853 303.071 74.8671 302.733 74.2017C302.395 73.5365 302.209 72.7619 302.177 71.8785C302.166 71.4312 302.16 70.9514 302.16 70.4387C302.16 69.9262 302.166 69.4352 302.177 68.9663C302.209 68.0829 302.395 67.3086 302.733 66.6431C303.071 65.9779 303.57 65.4598 304.23 65.0889C304.89 64.7183 305.721 64.5327 306.725 64.5327C307.477 64.5327 308.137 64.6365 308.705 64.8435C309.271 65.0509 309.744 65.3288 310.12 65.6777C310.496 66.0271 310.782 66.4169 310.979 66.8476C311.175 67.2785 311.284 67.7229 311.306 68.181C311.317 68.2791 311.287 68.3609 311.216 68.4264C311.145 68.4918 311.06 68.5245 310.962 68.5245H310.062C309.964 68.5245 309.88 68.4975 309.809 68.4427C309.738 68.3884 309.686 68.2902 309.654 68.1481C309.468 67.2974 309.122 66.714 308.615 66.3977C308.107 66.0815 307.477 65.9233 306.725 65.9233C305.842 65.9233 305.143 66.1716 304.631 66.6677C304.118 67.1641 303.846 67.9577 303.813 69.0481C303.78 69.9426 303.78 70.8588 303.813 71.7967C303.846 72.8874 304.118 73.6809 304.631 74.1771C305.143 74.6735 305.842 74.9214 306.725 74.9214C307.477 74.9214 308.107 74.7635 308.615 74.447C309.122 74.1308 309.468 73.5471 309.654 72.6964C309.686 72.5548 309.738 72.4568 309.809 72.4018C309.88 72.3475 309.964 72.3201 310.062 72.3201H310.962C311.06 72.3201 311.145 72.3503 311.216 72.4101C311.287 72.4702 311.317 72.5491 311.306 72.6475C311.284 73.1056 311.175 73.5528 310.979 73.989C310.782 74.4253 310.496 74.818 310.12 75.1669C309.744 75.516 309.271 75.7943 308.705 76.0013C308.137 76.2083 307.477 76.3121 306.725 76.3121V76.3121Z" fill="#9991B5"/>
<path d="M319.355 76.3121C318.799 76.3121 318.272 76.2412 317.776 76.0994C317.28 75.9578 316.838 75.745 316.451 75.4614C316.064 75.1779 315.756 74.8179 315.527 74.3816C315.297 73.9454 315.172 73.4328 315.15 72.8436C315.15 72.7455 315.183 72.6612 315.249 72.59C315.314 72.5193 315.401 72.4839 315.51 72.4839H316.394C316.514 72.4839 316.609 72.5193 316.68 72.59C316.751 72.6612 316.797 72.7513 316.819 72.86C316.863 73.351 317.005 73.7464 317.245 74.0461C317.484 74.3464 317.79 74.5671 318.161 74.7087C318.532 74.8508 318.941 74.9215 319.388 74.9215C320.217 74.9215 320.849 74.6489 321.285 74.1036C321.722 73.5583 321.94 72.833 321.94 71.9274V66.1195H316.132C316.023 66.1195 315.933 66.0843 315.862 66.0131C315.791 65.9425 315.756 65.8524 315.756 65.7432V65.0726C315.756 64.9636 315.791 64.8735 315.862 64.8026C315.933 64.7317 316.023 64.6962 316.132 64.6962H323.184C323.303 64.6962 323.399 64.7317 323.47 64.8026C323.54 64.8735 323.576 64.9688 323.576 65.0888V71.9603C323.576 72.8436 323.407 73.6126 323.069 74.2672C322.731 74.9215 322.251 75.4262 321.629 75.7805C321.008 76.1351 320.249 76.3121 319.355 76.3121H319.355Z" fill="#9991B5"/>
<path d="M327.797 76.1486C327.709 76.1486 327.633 76.116 327.568 76.0505C327.502 75.985 327.47 75.9089 327.47 75.8214C327.47 75.7668 327.475 75.7068 327.486 75.6413L331.544 65.0561C331.587 64.9474 331.647 64.8599 331.724 64.7944C331.8 64.7289 331.914 64.6963 332.067 64.6963H333.18C333.332 64.6963 333.447 64.7289 333.523 64.7944C333.599 64.8599 333.66 64.9474 333.703 65.0561L337.744 75.6413C337.766 75.7068 337.777 75.7668 337.777 75.8214C337.777 75.9089 337.744 75.985 337.679 76.0505C337.613 76.116 337.537 76.1486 337.45 76.1486H336.615C336.484 76.1486 336.389 76.116 336.329 76.0505C336.269 75.985 336.228 75.9252 336.207 75.8704L335.306 73.5472H329.941L329.04 75.8704C329.03 75.9252 328.991 75.985 328.926 76.0505C328.861 76.116 328.762 76.1486 328.631 76.1486H327.797H327.797ZM330.415 72.1403H334.832L332.623 66.3323L330.415 72.1403Z" fill="#9991B5"/>
<path d="M342.358 76.1486C342.238 76.1486 342.145 76.1134 342.08 76.0422C342.014 75.9716 341.982 75.8815 341.982 75.7723V65.0889C341.982 64.9688 342.014 64.8736 342.08 64.8027C342.145 64.7318 342.238 64.6963 342.358 64.6963H346.35C347.582 64.6963 348.558 64.9854 349.278 65.5633C349.998 66.1415 350.358 66.9977 350.358 68.1319C350.358 68.972 350.148 69.6563 349.728 70.1851C349.308 70.7143 348.738 71.0824 348.018 71.2894L350.538 75.6413C350.571 75.7067 350.587 75.7668 350.587 75.8214C350.587 75.9089 350.552 75.985 350.481 76.0504C350.41 76.1159 350.331 76.1486 350.244 76.1486H349.458C349.273 76.1486 349.137 76.0994 349.05 76.0013C348.962 75.9032 348.885 75.8051 348.82 75.7067L346.448 71.5511H343.585V75.7723C343.585 75.8815 343.549 75.9716 343.479 76.0422C343.407 76.1134 343.312 76.1486 343.192 76.1486H342.358H342.358ZM343.585 70.1605H346.284C347.102 70.1605 347.713 69.9889 348.117 69.6452C348.52 69.3018 348.722 68.7918 348.722 68.1156C348.722 67.4504 348.523 66.9431 348.125 66.594C347.726 66.2451 347.113 66.0704 346.284 66.0704H343.585V70.1605H343.585Z" fill="#9991B5"/>
</g>
<defs>
<clipPath id="clip0_15_686">
<rect width="355.92" height="100" fill="white"/>
</clipPath>
</defs>
</svg>
