<svg width="54" height="60" viewBox="0 0 54 60" fill="none" xmlns="http://www.w3.org/2000/svg">
    <path fill-rule="evenodd" clip-rule="evenodd"
        d="M53.1822 15.8723C53.1843 15.8393 53.1854 15.8061 53.1854 15.7728C53.1853 15.6808 53.1768 15.5898 53.1605 15.5008C53.084 15.056 52.8085 14.6641 52.4094 14.4337C52.3645 14.4079 52.3187 14.3844 52.2719 14.3635L27.7749 0.205258C27.3017 -0.068194 26.7186 -0.0683997 26.2451 0.204524L1.58287 14.4287C1.10953 14.7017 0.817765 15.2066 0.817501 15.7531L0.804688 44.2234C0.804511 44.7699 1.0958 45.275 1.56894 45.5485L26.2184 59.7948C26.4511 59.9293 26.7151 60 26.9838 60H27.0158C27.2845 60 27.5486 59.9293 27.7812 59.7948L52.4306 45.5485C52.9038 45.275 53.1952 44.7699 53.1949 44.2234L53.1822 15.8723V15.8723Z"
        fill="#361E5B" />
    <path d="M26.9996 3.28809L3.86719 16.6455V43.3554L26.9996 56.7128L50.1322 43.3554V16.6455L26.9996 3.28809Z"
        fill="#16D6C7" />
    <path d="M50.1325 16.6455V43.3554L27 56.7128V30.003L50.1325 16.6455Z" fill="#027F9E" />
    <path d="M50.1322 16.6455L26.9997 30.003L3.86719 16.6455L26.9997 3.28809L50.1322 16.6455Z" fill="#17A6B2" />
</svg>