<svg xmlns="http://www.w3.org/2000/svg" xmlns:xlink="http://www.w3.org/1999/xlink" viewBox="0 0 671.47 188.66"><defs><style>.cls-2,.cls-3,.cls-4{stroke-width:0}.cls-2{fill:#027f9e}.cls-3{fill:#17a6b2}.cls-4{fill:#361e5b}</style></defs><g id="logoMark"><path id="logoMark_CompoundPathItem_" d="M81.69 0 0 47.17v94.32l81.69 47.17 81.69-47.17V47.17L81.69 0Zm0 53.51 35.32 20.39v40.86l-35.32 20.38-35.32-20.38V73.9l35.32-20.39Z" data-name="logoMark &amp;lt;CompoundPathItem&amp;gt;" style="stroke-width:0;fill:#16d6c7"/><a xlink:href="63.467"><path id="logoMark_PathItem_" d="M23.18 60.51v67.67l23.19-13.42V73.9l35.32-20.39V26.74L23.18 60.51z" class="cls-2" data-name="logoMark &amp;lt;PathItem&amp;gt;"/></a><a xlink:href="51.133"><path id="logoMark_PathItem_-2" d="M163.37 47.17 81.69 0 0 47.17l23.18 13.34 58.51-33.77 58.5 33.77 23.18-13.34z" class="cls-3" data-name="logoMark &amp;lt;PathItem&amp;gt;"/></a><a xlink:href="63.467"><path id="logoMark_PathItem_-3" d="m163.37 47.17-23.18 13.34v67.67l-58.5 33.74v26.74l81.68-47.17V47.17z" class="cls-2" data-name="logoMark &amp;lt;PathItem&amp;gt;"/></a><a xlink:href="51.133"><path id="logoMark_PathItem_-4" d="m117.01 114.76-35.32 20.38-35.32-20.38-23.19 13.42 58.51 33.74 58.5-33.74-23.18-13.42z" class="cls-3" data-name="logoMark &amp;lt;PathItem&amp;gt;"/></a></g><path id="fullLogo" d="M207.11 90.2c-.48 0-.88-.15-1.19-.46-.31-.31-.46-.7-.46-1.19V53.24h-11.99c-.44 0-.81-.15-1.12-.46-.31-.31-.46-.68-.46-1.12v-5.93c0-.48.15-.88.46-1.19s.68-.46 1.12-.46h34.51c.48 0 .88.15 1.19.46.31.31.46.7.46 1.19v5.93c0 .44-.15.81-.46 1.12s-.7.46-1.19.46h-11.92v35.31c0 .48-.15.88-.46 1.19-.31.31-.7.46-1.19.46h-7.31Z" class="cls-4"/><path id="fullLogo-2" d="M243.93 90.86c-5.05 0-9.06-1.4-12.02-4.22-2.96-2.81-4.53-6.89-4.71-12.25v-2.83c.17-3.38.94-6.29 2.31-8.73 1.36-2.44 3.27-4.3 5.73-5.6 2.46-1.29 5.34-1.94 8.63-1.94 3.69 0 6.77.76 9.25 2.27 2.48 1.51 4.35 3.58 5.6 6.19 1.25 2.61 1.88 5.61 1.88 8.99v1.52c0 .44-.16.81-.49 1.12-.33.31-.71.46-1.15.46h-21.54v.53c.04 1.41.32 2.69.82 3.85.5 1.16 1.23 2.1 2.17 2.8.94.7 2.07 1.05 3.39 1.05 1.1 0 2-.15 2.7-.46.7-.31 1.28-.68 1.75-1.12.46-.44.8-.81 1.02-1.12.4-.44.71-.71.96-.82.24-.11.63-.16 1.15-.16h6.85c.44 0 .8.12 1.09.36.29.24.41.58.36 1.02-.04.7-.41 1.57-1.09 2.6-.68 1.03-1.68 2.04-3 3.03-1.32.99-2.95 1.81-4.91 2.47-1.95.66-4.21.99-6.75.99Zm-6.52-21.02h12.91v-.13c0-1.58-.25-2.95-.76-4.12-.51-1.16-1.24-2.07-2.21-2.73-.97-.66-2.13-.99-3.49-.99s-2.53.33-3.49.99c-.97.66-1.7 1.57-2.21 2.73s-.76 2.54-.76 4.12v.13Z" class="cls-4" data-name="fullLogo"/><path id="fullLogo-3" d="M279.69 90.86c-2.72 0-5.06-.32-7.01-.95-1.95-.64-3.54-1.42-4.74-2.34-1.21-.92-2.11-1.85-2.7-2.8-.59-.94-.91-1.75-.95-2.4-.04-.48.11-.88.46-1.19.35-.31.7-.46 1.05-.46h6.39c.13 0 .26.02.4.07.13.04.26.15.4.33.57.4 1.16.85 1.78 1.35.61.51 1.33.93 2.14 1.28s1.83.53 3.06.53c1.45 0 2.68-.3 3.69-.89 1.01-.59 1.51-1.44 1.51-2.54 0-.79-.23-1.45-.69-1.98s-1.33-1.01-2.6-1.45c-1.27-.44-3.16-.92-5.66-1.45-2.37-.53-4.39-1.23-6.06-2.11-1.67-.88-2.92-1.99-3.75-3.33-.83-1.34-1.25-2.95-1.25-4.84 0-1.71.54-3.36 1.61-4.94 1.08-1.58 2.67-2.89 4.78-3.92 2.11-1.03 4.74-1.55 7.9-1.55 2.41 0 4.53.3 6.36.89 1.82.59 3.35 1.34 4.58 2.24 1.23.9 2.16 1.82 2.8 2.77.64.94.98 1.77 1.02 2.47.04.44-.09.81-.4 1.12s-.66.46-1.05.46h-5.86c-.22 0-.42-.03-.59-.1-.18-.07-.33-.16-.46-.3-.53-.35-1.07-.76-1.61-1.22-.55-.46-1.2-.87-1.94-1.22-.75-.35-1.71-.53-2.9-.53-1.45 0-2.56.32-3.33.96-.77.64-1.15 1.44-1.15 2.4 0 .62.2 1.19.59 1.71s1.21 1.01 2.44 1.45c1.23.44 3.1.9 5.6 1.38 2.99.53 5.36 1.32 7.11 2.37 1.76 1.05 3.02 2.27 3.79 3.66a8.973 8.973 0 0 1 1.15 4.45c0 2.06-.62 3.9-1.84 5.5-1.23 1.6-3.02 2.85-5.37 3.75-2.35.9-5.24 1.35-8.66 1.35Z" class="cls-4" data-name="fullLogo"/><path id="fullLogo-4" d="M317.7 90.2c-2.72 0-5.05-.45-6.98-1.35-1.93-.9-3.39-2.29-4.38-4.18-.99-1.89-1.48-4.26-1.48-7.11V63.73h-5.14c-.48 0-.88-.15-1.19-.46-.31-.31-.46-.7-.46-1.19V57.6c0-.48.15-.88.46-1.19s.7-.46 1.19-.46h5.14V45.08c0-.48.16-.88.49-1.19.33-.31.71-.46 1.15-.46h6.45c.48 0 .88.15 1.19.46.31.31.46.7.46 1.19v10.87h8.23c.44 0 .81.15 1.12.46.31.31.46.7.46 1.19v4.48c0 .48-.15.88-.46 1.19s-.68.46-1.12.46h-8.23v13.04c0 1.67.3 2.98.89 3.92.59.94 1.64 1.42 3.13 1.42h4.81c.44 0 .81.15 1.12.46.31.31.46.68.46 1.12v4.87c0 .48-.15.88-.46 1.19s-.68.46-1.12.46h-5.73Z" class="cls-4" data-name="fullLogo"/><path id="fullLogo-5" d="M347.6 90.86c-3.21 0-6.03-.59-8.46-1.78-2.44-1.19-4.36-2.91-5.76-5.17-1.41-2.26-2.17-4.97-2.31-8.13-.04-.7-.07-1.59-.07-2.67s.02-1.97.07-2.67c.13-3.2.89-5.94 2.27-8.2 1.38-2.26 3.3-3.98 5.76-5.17s5.29-1.78 8.5-1.78c2.94 0 5.44.41 7.51 1.22 2.06.81 3.75 1.83 5.07 3.06 1.32 1.23 2.29 2.51 2.93 3.85.64 1.34.98 2.51 1.02 3.52.04.44-.1.82-.43 1.15s-.71.49-1.15.49h-7.05c-.44 0-.78-.12-1.02-.36s-.47-.58-.69-1.02c-.62-1.54-1.41-2.63-2.37-3.29-.97-.66-2.17-.99-3.62-.99-1.98 0-3.54.64-4.68 1.91-1.14 1.27-1.76 3.25-1.84 5.93-.04 1.71-.04 3.27 0 4.68.13 2.72.76 4.7 1.88 5.93 1.12 1.23 2.67 1.84 4.64 1.84 1.54 0 2.77-.33 3.69-.99.92-.66 1.69-1.76 2.31-3.29.17-.44.4-.78.66-1.02s.61-.36 1.05-.36h7.05c.44 0 .82.16 1.15.49.33.33.47.71.43 1.15-.04.75-.25 1.63-.63 2.63-.37 1.01-.97 2.04-1.78 3.1-.81 1.05-1.86 2.03-3.13 2.93-1.27.9-2.82 1.63-4.64 2.17-1.82.55-3.94.82-6.36.82Z" class="cls-4" data-name="fullLogo"/><path id="fullLogo-6" d="M385.61 90.86c-3.65 0-6.7-.6-9.16-1.81s-4.34-2.93-5.63-5.17c-1.3-2.24-2.01-4.85-2.14-7.84-.04-.88-.07-1.88-.07-3s.02-2.1.07-2.93c.13-3.03.88-5.65 2.24-7.87 1.36-2.22 3.27-3.93 5.73-5.14 2.46-1.21 5.44-1.81 8.96-1.81s6.43.6 8.89 1.81c2.46 1.21 4.37 2.92 5.73 5.14 1.36 2.22 2.11 4.84 2.24 7.87.09.83.13 1.81.13 2.93s-.04 2.12-.13 3c-.13 2.99-.85 5.6-2.14 7.84-1.3 2.24-3.17 3.96-5.63 5.17s-5.49 1.81-9.09 1.81Zm0-7.25c2.15 0 3.78-.67 4.87-2.01 1.1-1.34 1.69-3.3 1.78-5.9.04-.66.07-1.54.07-2.63s-.02-1.98-.07-2.63c-.09-2.55-.68-4.5-1.78-5.86-1.1-1.36-2.72-2.04-4.87-2.04s-3.79.68-4.91 2.04c-1.12 1.36-1.72 3.32-1.81 5.86-.04.66-.07 1.54-.07 2.63s.02 1.98.07 2.63c.09 2.59.69 4.56 1.81 5.9 1.12 1.34 2.76 2.01 4.91 2.01Z" class="cls-4" data-name="fullLogo"/><path id="fullLogo-7" d="M409.98 90.2c-.44 0-.81-.15-1.12-.46-.31-.31-.46-.7-.46-1.19V57.59c0-.48.15-.88.46-1.19s.68-.46 1.12-.46h6.45c.48 0 .88.15 1.19.46.31.31.46.7.46 1.19v2.57c1.14-1.4 2.61-2.57 4.41-3.49 1.8-.92 4-1.38 6.59-1.38s4.86.58 6.82 1.75c1.95 1.16 3.49 2.86 4.61 5.07 1.12 2.22 1.68 4.91 1.68 8.07v18.38c0 .48-.16.88-.49 1.19-.33.31-.71.46-1.15.46h-6.98c-.48 0-.88-.15-1.18-.46-.31-.31-.46-.7-.46-1.19V70.58c0-2.33-.56-4.14-1.68-5.43-1.12-1.29-2.76-1.94-4.91-1.94s-3.71.65-4.94 1.94c-1.23 1.3-1.84 3.11-1.84 5.43v17.98c0 .48-.15.88-.46 1.19-.31.31-.68.46-1.12.46H410Z" class="cls-4" data-name="fullLogo"/><path id="fullLogo-8" d="M465.9 90.2c-2.72 0-5.05-.45-6.98-1.35-1.93-.9-3.39-2.29-4.38-4.18-.99-1.89-1.48-4.26-1.48-7.11V63.73h-5.14c-.48 0-.88-.15-1.19-.46-.31-.31-.46-.7-.46-1.19V57.6c0-.48.15-.88.46-1.19s.7-.46 1.19-.46h5.14V45.08c0-.48.16-.88.49-1.19.33-.31.71-.46 1.15-.46h6.46c.48 0 .88.15 1.19.46.31.31.46.7.46 1.19v10.87h8.23c.44 0 .81.15 1.12.46.31.31.46.7.46 1.19v4.48c0 .48-.15.88-.46 1.19s-.68.46-1.12.46h-8.23v13.04c0 1.67.3 2.98.89 3.92.59.94 1.64 1.42 3.13 1.42h4.81c.44 0 .81.15 1.12.46.31.31.46.68.46 1.12v4.87c0 .48-.15.88-.46 1.19s-.68.46-1.12.46h-5.73Z" class="cls-4" data-name="fullLogo"/><path id="fullLogo-9" d="M489.68 90.86c-2.33 0-4.41-.45-6.26-1.35s-3.32-2.12-4.41-3.66a8.632 8.632 0 0 1-1.65-5.14c0-3.12 1.26-5.58 3.79-7.38 2.52-1.8 5.85-3.03 9.98-3.69l8.63-1.25V67.2c0-1.71-.39-3.03-1.18-3.95-.79-.92-2.17-1.38-4.15-1.38-1.45 0-2.61.29-3.49.86-.88.57-1.56 1.32-2.04 2.24-.35.57-.86.86-1.51.86h-6.26c-.48 0-.86-.14-1.12-.43a1.27 1.27 0 0 1-.33-1.02c0-.75.29-1.62.86-2.63.57-1.01 1.45-2.01 2.63-3 1.19-.99 2.7-1.81 4.55-2.47 1.84-.66 4.1-.99 6.78-.99s5.14.33 7.11.99c1.98.66 3.56 1.58 4.74 2.77a11.17 11.17 0 0 1 2.63 4.12c.57 1.56.86 3.24.86 5.04v20.35c0 .48-.15.88-.46 1.19s-.7.46-1.18.46h-6.46c-.44 0-.81-.15-1.12-.46-.31-.31-.46-.7-.46-1.19v-2.44c-.57.83-1.34 1.61-2.31 2.34-.97.72-2.12 1.31-3.46 1.75s-2.91.66-4.71.66Zm2.63-6.85c1.45 0 2.74-.31 3.89-.92 1.14-.61 2.04-1.56 2.7-2.83.66-1.27.99-2.88.99-4.81v-1.12l-6.13.99c-2.37.4-4.11.99-5.2 1.78-1.1.79-1.65 1.76-1.65 2.9 0 .83.25 1.56.76 2.17.5.62 1.17 1.08 2.01 1.38.83.31 1.71.46 2.63.46Z" class="cls-4" data-name="fullLogo"/><path id="fullLogo-10" d="M518.19 50.68c-.44 0-.81-.15-1.12-.46-.31-.31-.46-.7-.46-1.19v-5.27c0-.48.15-.89.46-1.22.31-.33.68-.49 1.12-.49h6.92c.48 0 .89.16 1.22.49.33.33.49.74.49 1.22v5.27c0 .48-.16.88-.49 1.19-.33.31-.74.46-1.22.46h-6.92Zm.2 39.52c-.44 0-.81-.15-1.12-.46-.31-.31-.46-.7-.46-1.19V57.59c0-.48.15-.88.46-1.19s.68-.46 1.12-.46h6.59c.48 0 .88.15 1.19.46.31.31.46.7.46 1.19v30.96c0 .48-.15.88-.46 1.19s-.7.46-1.19.46h-6.59Z" class="cls-4" data-name="fullLogo"/><path id="fullLogo-11" d="M536.44 90.2c-.44 0-.81-.15-1.12-.46-.31-.31-.46-.7-.46-1.19V57.59c0-.48.15-.88.46-1.19s.68-.46 1.12-.46h6.46c.48 0 .88.15 1.19.46.31.31.46.7.46 1.19v2.57c1.14-1.4 2.61-2.57 4.41-3.49 1.8-.92 3.99-1.38 6.59-1.38s4.86.58 6.82 1.75c1.95 1.16 3.49 2.86 4.61 5.07 1.12 2.22 1.68 4.91 1.68 8.07v18.38c0 .48-.17.88-.49 1.19-.33.31-.71.46-1.15.46h-6.98c-.48 0-.88-.15-1.19-.46-.31-.31-.46-.7-.46-1.19V70.58c0-2.33-.56-4.14-1.68-5.43-1.12-1.29-2.76-1.94-4.91-1.94s-3.71.65-4.94 1.94c-1.23 1.3-1.84 3.11-1.84 5.43v17.98c0 .48-.15.88-.46 1.19-.31.31-.68.46-1.12.46h-6.98Z" class="cls-4" data-name="fullLogo"/><path id="fullLogo-12" d="M590.85 90.86c-5.05 0-9.06-1.4-12.02-4.22-2.96-2.81-4.53-6.89-4.71-12.25v-2.83c.17-3.38.94-6.29 2.3-8.73 1.36-2.44 3.27-4.3 5.73-5.6 2.46-1.29 5.34-1.94 8.63-1.94 3.69 0 6.77.76 9.25 2.27 2.48 1.51 4.35 3.58 5.6 6.19 1.25 2.61 1.88 5.61 1.88 8.99v1.52c0 .44-.17.81-.49 1.12-.33.31-.71.46-1.15.46h-21.54v.53c.04 1.41.32 2.69.82 3.85.5 1.16 1.23 2.1 2.17 2.8.94.7 2.07 1.05 3.39 1.05 1.1 0 2-.15 2.7-.46.7-.31 1.28-.68 1.75-1.12.46-.44.8-.81 1.02-1.12.39-.44.71-.71.95-.82.24-.11.63-.16 1.15-.16h6.85c.44 0 .8.12 1.09.36.29.24.41.58.36 1.02-.04.7-.41 1.57-1.09 2.6-.68 1.03-1.68 2.04-3 3.03-1.32.99-2.95 1.81-4.91 2.47-1.95.66-4.21.99-6.75.99Zm-6.53-21.02h12.91v-.13c0-1.58-.25-2.95-.76-4.12-.51-1.16-1.24-2.07-2.21-2.73-.97-.66-2.13-.99-3.49-.99s-2.53.33-3.49.99c-.97.66-1.7 1.57-2.21 2.73s-.76 2.54-.76 4.12v.13Z" class="cls-4" data-name="fullLogo"/><path id="fullLogo-13" d="M615.02 90.2c-.44 0-.81-.15-1.12-.46-.31-.31-.46-.7-.46-1.19V57.59c0-.44.15-.82.46-1.15.31-.33.68-.49 1.12-.49h6.45c.44 0 .82.16 1.15.49.33.33.49.71.49 1.15v2.63c1.1-1.36 2.45-2.41 4.05-3.16 1.6-.75 3.46-1.12 5.57-1.12h2.83c.44 0 .81.15 1.12.46.31.31.46.7.46 1.19v5.66c0 .48-.15.88-.46 1.19s-.68.46-1.12.46h-5.8c-1.93 0-3.45.54-4.55 1.61-1.1 1.08-1.65 2.6-1.65 4.58v17.45c0 .48-.15.88-.46 1.19s-.7.46-1.19.46h-6.92Z" class="cls-4" data-name="fullLogo"/><path id="fullLogo-14" d="M655.59 90.86c-2.72 0-5.06-.32-7.02-.95s-3.53-1.42-4.74-2.34c-1.21-.92-2.11-1.85-2.7-2.8-.59-.94-.91-1.75-.95-2.4-.04-.48.11-.88.46-1.19.35-.31.7-.46 1.05-.46h6.39c.13 0 .26.02.4.07.13.04.26.15.4.33.57.4 1.16.85 1.78 1.35.61.51 1.33.93 2.14 1.28s1.83.53 3.06.53c1.45 0 2.68-.3 3.69-.89 1.01-.59 1.51-1.44 1.51-2.54 0-.79-.23-1.45-.69-1.98s-1.33-1.01-2.6-1.45c-1.27-.44-3.16-.92-5.66-1.45-2.37-.53-4.39-1.23-6.06-2.11-1.67-.88-2.92-1.99-3.75-3.33-.83-1.34-1.25-2.95-1.25-4.84 0-1.71.54-3.36 1.61-4.94 1.08-1.58 2.67-2.89 4.78-3.92 2.11-1.03 4.74-1.55 7.9-1.55 2.41 0 4.53.3 6.36.89 1.82.59 3.35 1.34 4.58 2.24 1.23.9 2.16 1.82 2.8 2.77.64.94.98 1.77 1.02 2.47.04.44-.09.81-.39 1.12s-.66.46-1.05.46h-5.86c-.22 0-.42-.03-.59-.1-.18-.07-.33-.16-.46-.3-.53-.35-1.07-.76-1.61-1.22-.55-.46-1.2-.87-1.94-1.22-.75-.35-1.71-.53-2.9-.53-1.45 0-2.56.32-3.33.96-.77.64-1.15 1.44-1.15 2.4 0 .62.2 1.19.59 1.71.39.53 1.21 1.01 2.44 1.45 1.23.44 3.1.9 5.6 1.38 2.99.53 5.36 1.32 7.11 2.37 1.76 1.05 3.02 2.27 3.79 3.66a8.973 8.973 0 0 1 1.15 4.45c0 2.06-.62 3.9-1.84 5.5-1.23 1.6-3.02 2.85-5.37 3.75-2.35.9-5.24 1.35-8.66 1.35Z" class="cls-4" data-name="fullLogo"/><path id="fullLogo-15" d="M214.65 150.59c-4.13 0-7.63-.69-10.51-2.08-2.88-1.38-5.11-3.4-6.69-6.06-1.58-2.66-2.46-5.9-2.64-9.72-.04-1.8-.07-3.73-.07-5.8s.02-4.04.07-5.93c.18-3.78 1.06-6.99 2.67-9.65 1.6-2.66 3.85-4.69 6.75-6.1 2.9-1.41 6.37-2.11 10.41-2.11 2.94 0 5.62.37 8.04 1.12 2.42.75 4.5 1.82 6.26 3.23 1.76 1.41 3.12 3.05 4.09 4.94.97 1.89 1.49 4 1.58 6.33 0 .39-.14.72-.43.99-.29.26-.63.39-1.02.39h-7.51c-.53 0-.95-.13-1.25-.39-.31-.26-.55-.7-.72-1.32-.66-2.59-1.76-4.37-3.29-5.34-1.54-.97-3.45-1.45-5.73-1.45-2.72 0-4.88.75-6.46 2.24-1.58 1.49-2.44 3.98-2.57 7.45-.13 3.6-.13 7.29 0 11.07.13 3.47.99 5.95 2.57 7.45 1.58 1.49 3.73 2.24 6.46 2.24 2.28 0 4.21-.49 5.77-1.48 1.56-.99 2.65-2.76 3.26-5.3.18-.66.42-1.11.72-1.35.31-.24.72-.36 1.25-.36h7.51c.39 0 .74.13 1.02.39.29.26.43.59.43.99-.09 2.33-.62 4.44-1.58 6.33-.97 1.89-2.33 3.54-4.09 4.94-1.76 1.41-3.84 2.48-6.26 3.23s-5.1 1.12-8.04 1.12Z" class="cls-4" data-name="fullLogo"/><path id="fullLogo-16" d="M242.92 149.93c-.48 0-.88-.15-1.19-.46-.31-.31-.46-.7-.46-1.19v-43.49c0-.48.15-.88.46-1.19s.7-.46 1.19-.46h6.59c.44 0 .81.15 1.12.46.31.31.46.7.46 1.19v43.49c0 .48-.15.88-.46 1.19-.31.31-.68.46-1.12.46h-6.59Z" class="cls-4" data-name="fullLogo"/><path id="fullLogo-17" d="M275.07 150.59c-3.65 0-6.7-.6-9.16-1.81s-4.34-2.93-5.63-5.17c-1.3-2.24-2.01-4.85-2.14-7.84-.04-.88-.07-1.88-.07-3s.02-2.1.07-2.93c.13-3.03.88-5.66 2.24-7.87 1.36-2.22 3.27-3.93 5.73-5.14 2.46-1.21 5.45-1.81 8.96-1.81s6.43.6 8.89 1.81c2.46 1.21 4.37 2.92 5.73 5.14 1.36 2.22 2.11 4.84 2.24 7.87.09.83.13 1.81.13 2.93s-.04 2.12-.13 3c-.13 2.99-.85 5.6-2.14 7.84-1.3 2.24-3.17 3.96-5.63 5.17s-5.49 1.81-9.09 1.81Zm0-7.25c2.15 0 3.78-.67 4.88-2.01 1.1-1.34 1.69-3.3 1.78-5.9.04-.66.07-1.54.07-2.64s-.02-1.98-.07-2.64c-.09-2.55-.68-4.5-1.78-5.86-1.1-1.36-2.72-2.04-4.88-2.04s-3.79.68-4.91 2.04c-1.12 1.36-1.72 3.32-1.81 5.86-.04.66-.07 1.54-.07 2.64s.02 1.98.07 2.64c.09 2.59.69 4.56 1.81 5.9 1.12 1.34 2.76 2.01 4.91 2.01Z" class="cls-4" data-name="fullLogo"/><path id="fullLogo-18" d="M311.58 150.59c-2.55 0-4.8-.58-6.75-1.75-1.96-1.16-3.47-2.85-4.55-5.07-1.08-2.22-1.61-4.91-1.61-8.07v-18.38c0-.48.15-.88.46-1.19s.68-.46 1.12-.46h6.98c.48 0 .88.15 1.19.46.31.31.46.7.46 1.19v17.99c0 4.92 2.15 7.38 6.46 7.38 2.06 0 3.7-.65 4.91-1.94s1.81-3.11 1.81-5.44v-17.99c0-.48.15-.88.46-1.19.31-.31.7-.46 1.19-.46h6.98c.44 0 .81.15 1.12.46.31.31.46.7.46 1.19v30.97c0 .48-.15.88-.46 1.19-.31.31-.68.46-1.12.46h-6.46c-.48 0-.88-.15-1.19-.46-.31-.31-.46-.7-.46-1.19v-2.57a11.055 11.055 0 0 1-4.41 3.62c-1.8.83-4 1.25-6.59 1.25Z" class="cls-4" data-name="fullLogo"/><path id="fullLogo-19" d="M353.28 150.59c-2.2 0-4.15-.36-5.86-1.09-1.71-.73-3.16-1.78-4.35-3.16-1.19-1.38-2.09-3.03-2.7-4.94-.62-1.91-.99-4.03-1.12-6.36-.04-.83-.07-1.59-.07-2.27s.02-1.42.07-2.21c.09-2.28.45-4.37 1.09-6.26.64-1.89 1.54-3.53 2.7-4.91 1.16-1.38 2.61-2.46 4.35-3.23 1.73-.77 3.7-1.15 5.9-1.15s4.24.39 5.86 1.15c1.62.77 2.97 1.77 4.02 3V104.8c0-.48.15-.88.46-1.19s.7-.46 1.19-.46h6.79c.44 0 .81.15 1.12.46.31.31.46.7.46 1.19v43.49c0 .48-.15.88-.46 1.19-.31.31-.68.46-1.12.46h-6.33c-.44 0-.81-.15-1.12-.46s-.46-.7-.46-1.19v-2.24c-1.1 1.32-2.48 2.4-4.15 3.26-1.67.86-3.76 1.28-6.26 1.28Zm3.03-7.91c1.62 0 2.93-.37 3.92-1.12.99-.75 1.71-1.69 2.17-2.83.46-1.14.71-2.37.76-3.69.09-.83.13-1.67.13-2.5s-.04-1.65-.13-2.44a9.36 9.36 0 0 0-.79-3.46c-.48-1.08-1.22-1.96-2.21-2.67-.99-.7-2.27-1.05-3.85-1.05-1.67 0-2.99.36-3.95 1.09-.97.73-1.66 1.68-2.08 2.87-.42 1.19-.67 2.48-.76 3.89-.13 1.36-.13 2.72 0 4.09.09 1.41.34 2.7.76 3.89s1.11 2.14 2.08 2.87c.97.72 2.28 1.09 3.95 1.09Z" class="cls-4" data-name="fullLogo"/></svg>