<svg width="50" height="50" viewBox="0 0 50 50" fill="none" xmlns="http://www.w3.org/2000/svg">
<path d="M7.51896 15.4915C8.56227 15.4915 9.40804 14.6457 9.40804 13.6024C9.40804 12.5591 8.56227 11.7133 7.51896 11.7133C6.47565 11.7133 5.62988 12.5591 5.62988 13.6024C5.62988 14.6457 6.47565 15.4915 7.51896 15.4915Z" fill="#6638F2"/>
<path d="M14.5536 15.4915C15.5969 15.4915 16.4426 14.6457 16.4426 13.6024C16.4426 12.5591 15.5969 11.7133 14.5536 11.7133C13.5103 11.7133 12.6645 12.5591 12.6645 13.6024C12.6645 14.6457 13.5103 15.4915 14.5536 15.4915Z" fill="#6638F2"/>
<path d="M23.4773 13.6024C23.4773 14.6457 22.6315 15.4915 21.5882 15.4915C20.5449 15.4915 19.6991 14.6457 19.6991 13.6024C19.6991 12.5591 20.5449 11.7133 21.5882 11.7133C22.6315 11.7133 23.4773 12.5591 23.4773 13.6024Z" fill="#6638F2"/>
<path d="M28.1517 27.2C28.5118 26.4443 28.1911 25.5397 27.4354 25.1796C26.6797 24.8194 25.7751 25.1401 25.415 25.8958L21.6364 33.8248C21.2763 34.5805 21.597 35.4851 22.3527 35.8452C23.1084 36.2053 24.013 35.8846 24.3731 35.1289L28.1517 27.2Z" fill="#6638F2"/>
<path d="M19.6036 25.7852C20.0248 26.5087 19.7798 27.4366 19.0564 27.8578L14.5599 30.476L19.072 33.1762C19.7904 33.6061 20.0242 34.5369 19.5943 35.2552C19.1644 35.9735 18.2336 36.2074 17.5153 35.7775L10.7999 31.7587C10.3397 31.4833 10.0593 30.9853 10.0625 30.449C10.0657 29.9127 10.3521 29.418 10.8156 29.1482L17.5309 25.238C18.2544 24.8168 19.1823 25.0618 19.6036 25.7852Z" fill="#6638F2"/>
<path d="M30.3969 35.2396C29.9756 34.5161 30.2206 33.5882 30.9441 33.1669L35.4405 30.5488L30.9284 27.8486C30.2101 27.4187 29.9762 26.4879 30.4061 25.7696C30.836 25.0512 31.7668 24.8174 32.4851 25.2473L39.2005 29.266C39.6607 29.5414 39.9411 30.0395 39.9379 30.5758C39.9347 31.1121 39.6483 31.6067 39.1849 31.8766L32.4695 35.7867C31.746 36.208 30.8181 35.963 30.3969 35.2396Z" fill="#6638F2"/>
<path fill-rule="evenodd" clip-rule="evenodd" d="M5.30522 6.59052H44.6948C47.6248 6.59052 50 8.96574 50 11.8957V38.1042C50 41.0342 47.6248 43.4094 44.6948 43.4094H5.30522C2.37523 43.4094 0 41.0342 0 38.1042V11.8957C0 8.96574 2.37523 6.59052 5.30522 6.59052ZM5.30522 9.62207C4.04951 9.62207 3.03155 10.64 3.03155 11.8957V17.5024L46.9684 17.5024V11.8957C46.9684 10.64 45.9505 9.62207 44.6948 9.62207H5.30522ZM3.03155 38.1042V20.534L46.9684 20.534V38.1042C46.9684 39.3599 45.9505 40.3779 44.6948 40.3779H5.30522C4.04951 40.3779 3.03155 39.3599 3.03155 38.1042Z" fill="#6638F2"/>
</svg>
