<svg width="50" height="50" viewBox="0 0 50 50" fill="none" xmlns="http://www.w3.org/2000/svg">
<path d="M36.6774 37.7022C37.4844 37.5449 38.0144 36.7672 37.8657 35.9586C37.7169 35.1499 36.9449 34.6117 36.1347 34.7519L34.185 35.0891C33.3745 35.2293 32.8281 35.9961 32.9601 36.8079C33.0921 37.6198 33.8533 38.1739 34.6665 38.0501C35.3567 37.945 36.0278 37.8289 36.6774 37.7022Z" fill="#6638F2"/>
<path d="M30.8598 38.4985C31.6808 38.4282 32.2913 37.7089 32.2273 36.8874C32.1632 36.0659 31.4486 35.4499 30.6266 35.5077L28.6877 35.644C27.8657 35.7017 27.2442 36.4118 27.2959 37.2342C27.3475 38.0567 28.0529 38.6834 28.8756 38.638C29.5478 38.6009 30.2097 38.5542 30.8598 38.4985Z" fill="#6638F2"/>
<path fill-rule="evenodd" clip-rule="evenodd" d="M47.4998 8.12117C47.4999 8.10984 47.5 8.09851 47.5 8.08717C47.5 3.62075 37.4264 0 25 0C12.8398 0 2.93273 3.46727 2.5138 7.80129C2.5047 7.87158 2.5 7.94345 2.5 8.01654V41.8422C2.5 41.8658 2.50049 41.8894 2.50147 41.9128H2.5C2.5 46.3792 12.5736 50 25 50C37.4264 50 47.5 46.3792 47.5 41.9128L47.4998 19.5373C47.4999 19.526 47.5 19.5147 47.5 19.5034L47.4998 8.12117ZM44.7748 8.08717C44.7129 7.96451 44.5417 7.70471 44.0916 7.32224C43.2909 6.64184 41.9624 5.90004 40.0789 5.22305C36.342 3.87988 31.0104 3 25 3C18.9896 3 13.658 3.87988 9.92111 5.22305C8.03759 5.90004 6.70908 6.64184 5.90842 7.32224C5.45833 7.70471 5.28712 7.96451 5.22518 8.08717C5.28712 8.20984 5.45833 8.46964 5.90842 8.85211C6.70908 9.5325 8.03759 10.2743 9.92111 10.9513C13.658 12.2945 18.9896 13.1743 25 13.1743C31.0104 13.1743 36.342 12.2945 40.0789 10.9513C41.9624 10.2743 43.2909 9.5325 44.0916 8.85211C44.5417 8.46963 44.7129 8.20984 44.7748 8.08717ZM44.7998 11.9318C40.9943 14.4583 33.5547 16.1743 25 16.1743C16.4451 16.1743 9.00542 14.4583 5.2 11.9316L5.2 19.5034H5.22518C5.28712 19.626 5.45833 19.8858 5.90842 20.2683C6.70908 20.9487 8.03759 21.6905 9.92111 22.3675C13.658 23.7106 18.9896 24.5905 25 24.5905C31.0104 24.5905 36.342 23.7106 40.0789 22.3675C41.9624 21.6905 43.2909 20.9487 44.0916 20.2683C44.5417 19.8858 44.7129 19.626 44.7748 19.5034H44.7998V11.9318ZM44.7998 23.348C40.9943 25.8745 33.5547 27.5905 25 27.5905C16.4452 27.5905 9.00542 25.8745 5.2 23.3478L5.2 30.9255C5.26222 30.9933 5.31905 31.0679 5.36941 31.1489C5.63091 31.5697 6.24592 32.1239 7.38205 32.7107C8.48847 33.2822 9.95534 33.816 11.7314 34.2719C15.2801 35.1829 19.9084 35.7438 25.0001 35.7438C25.8285 35.7438 26.5001 36.4153 26.5001 37.2438C26.5001 38.0722 25.8285 38.7438 25.0001 38.7438C19.7099 38.7438 14.8244 38.1632 10.9855 37.1777C9.06776 36.6854 7.3724 36.0822 6.00539 35.3762C5.72879 35.2334 5.45937 35.0831 5.2 34.925L5.2 41.8422C5.2 41.8658 5.19951 41.8894 5.19853 41.9128H5.22518C5.28712 42.0354 5.45833 42.2952 5.90842 42.6777C6.70908 43.3581 8.03759 44.0999 9.92111 44.7769C13.658 46.1201 18.9896 47 25 47C31.0104 47 36.342 46.1201 40.0789 44.7769C41.9624 44.0999 43.2909 43.3581 44.0916 42.6777C44.5417 42.2952 44.7129 42.0354 44.7748 41.9128H44.7998V34.9251C44.7165 34.9759 44.6323 35.0258 44.5473 35.0748C43.4393 35.7138 42.0813 36.2709 40.5502 36.7447C39.7588 36.9896 38.9187 36.5466 38.6738 35.7551C38.4289 34.9637 38.8719 34.1237 39.6633 33.8788C41.0539 33.4485 42.1903 32.971 43.0485 32.476C43.9252 31.9704 44.4092 31.5053 44.6307 31.1489C44.681 31.068 44.7377 30.9935 44.7998 30.9258V23.348Z" fill="#6638F2"/>
</svg>
