<svg width="50" height="50" viewBox="0 0 50 50" fill="none" xmlns="http://www.w3.org/2000/svg">
<path fill-rule="evenodd" clip-rule="evenodd" d="M41.3881 1.73703C37.3478 -1.20742 31.6856 -0.31909 28.7412 3.72116C27.6043 5.28117 27.0387 7.08386 27.0056 8.87787L21.2113 4.65515C20.0799 3.83056 18.4942 4.07933 17.6696 5.2108L12.7189 12.0039L12.7098 12.016L11.3645 13.862C11.0027 14.3584 10.9913 15.0285 11.3359 15.537C11.6806 16.0455 12.3072 16.283 12.9023 16.1309L14.078 15.8303C14.1009 15.8278 14.1238 15.8238 14.1465 15.8182C15.8494 15.3949 17.7187 15.7005 19.2466 16.814C21.9867 18.8109 22.5892 22.6511 20.5922 25.3912C18.5953 28.1313 14.7551 28.7338 12.015 26.7368C10.487 25.6233 9.62365 23.9372 9.5052 22.1863C9.50365 22.1634 9.50056 22.1407 9.49599 22.1185L9.42204 20.9063C9.38464 20.2931 8.96658 19.7694 8.37698 19.597C7.78738 19.4246 7.15303 19.6407 6.79124 20.1371L5.44903 21.9788L5.43212 22.0025L0.486502 28.7887C-0.338082 29.9202 -0.0893091 31.5059 1.04215 32.3305L24.6201 49.5135C25.7515 50.3381 27.3372 50.0893 28.1618 48.9579L32.3845 43.1637C32.9655 44.8613 34.0559 46.4041 35.6159 47.541C39.6561 50.4854 45.3183 49.5971 48.2628 45.5569C51.2072 41.5166 50.3189 35.8544 46.2787 32.9099C44.7187 31.7731 42.916 31.2075 41.1221 31.1743L45.3449 25.38C46.1695 24.2485 45.9207 22.6628 44.7892 21.8382L38.9948 17.6153C40.6924 17.0344 42.2353 15.944 43.3722 14.3839C46.3167 10.3437 45.4284 4.68148 41.3881 1.73703ZM27.8371 13.0889C27.8454 13.0949 27.8537 13.1007 27.8622 13.1061L28.1473 13.3139C28.6437 13.6757 29.3138 13.6871 29.8223 13.3425C30.3307 12.9978 30.5683 12.3712 30.4162 11.7761L30.1049 10.5584L30.1041 10.5553C30.1028 10.5492 30.1014 10.543 30.0998 10.5369C29.7719 9.21761 29.8814 7.7985 30.4652 6.51565C30.6349 6.14257 30.8448 5.78102 31.0956 5.4368C33.0926 2.69668 36.9327 2.09421 39.6728 4.09115C42.413 6.08809 43.0154 9.92824 41.0185 12.6684C39.9049 14.1963 38.2189 15.0597 36.468 15.1782L36.4557 15.1791L36.4461 15.1797L35.1916 15.2562C34.5785 15.2936 34.0547 15.7117 33.8823 16.3013C33.71 16.8909 33.926 17.5252 34.4225 17.887L34.7071 18.0945C34.7151 18.1011 34.7233 18.1074 34.7316 18.1135L42.3577 23.6712C42.584 23.8362 42.6338 24.1533 42.4689 24.3796L36.9111 32.0057C36.9077 32.0104 36.9044 32.0151 36.9012 32.0198C36.8998 32.0218 36.8985 32.0238 36.8972 32.0258L36.6859 32.3157C36.3241 32.8121 36.3127 33.4822 36.6573 33.9906C37.002 34.4991 37.6286 34.7367 38.2237 34.5846L39.4424 34.273C39.4493 34.2716 39.4561 34.27 39.463 34.2683C41.166 33.845 43.0353 34.1506 44.5632 35.2641C47.3033 37.261 47.9057 41.1012 45.9088 43.8413C43.9119 46.5814 40.0717 47.1839 37.3316 45.1869C35.8036 44.0734 34.9403 42.3874 34.8218 40.6365C34.8214 40.6302 34.8208 40.624 34.8202 40.6177L34.82 40.6144L34.7435 39.3599C34.7138 38.8727 34.4436 38.4419 34.0381 38.199C33.9333 38.1363 33.8195 38.086 33.6984 38.0507C33.1088 37.8783 32.4745 38.0944 32.1127 38.5908L31.9004 38.882C31.8957 38.888 31.8911 38.894 31.8865 38.9002L26.3287 46.5265C26.1638 46.7528 25.8466 46.8025 25.6203 46.6376L3.47346 30.4974C3.24717 30.3325 3.19741 30.0154 3.36233 29.7891L7.06581 24.7073C7.64625 26.4074 8.73741 27.9526 10.2993 29.0909C14.3395 32.0353 20.0017 31.147 22.9462 27.1067C25.8906 23.0665 25.0023 17.4043 20.9621 14.4598C19.4002 13.3216 17.5951 12.756 15.7989 12.7241L19.5025 7.6422C19.6674 7.41591 19.9845 7.36616 20.2108 7.53107L27.8371 13.0889Z" fill="#6638F2"/>
</svg>
