<svg width="30" height="30" viewBox="0 0 30 30" fill="none" xmlns="http://www.w3.org/2000/svg">
<g clip-path="url(#clip0_65_492)">
<path d="M7.63592 16.7121C7.57086 16.6707 7.50579 16.6293 7.44073 16.5938C7.16273 16.4282 6.87882 16.2685 6.60083 16.1029C6.32874 15.9373 6.09215 15.7303 5.8733 15.5055C5.64854 15.2807 5.45335 15.0264 5.31731 14.7425C5.1931 14.4941 5.11029 14.2279 5.06297 13.944C5.02157 13.6601 5.0334 13.3762 5.09846 13.1041C5.15169 12.8793 5.25225 12.6664 5.32914 12.4475C5.34097 12.4061 5.35871 12.3647 5.37054 12.3233C5.40012 12.2997 5.42969 12.2701 5.45926 12.2464C5.47109 12.2464 5.48884 12.2464 5.50067 12.2346C5.71952 12.1045 5.93245 11.9625 6.1513 11.8383C6.39381 11.6964 6.63631 11.5603 6.88474 11.4302C7.12133 11.306 7.35792 11.1877 7.60043 11.0753C7.73647 11.0102 7.87843 10.9629 8.02038 10.9038C7.99081 11.093 7.94349 11.2823 7.93758 11.4716C7.93758 11.7318 7.90209 11.9921 7.96124 12.2524C8.00264 12.4239 7.99672 12.6013 8.03221 12.7729C8.0677 12.9503 8.12094 13.1277 8.17417 13.3052C8.24515 13.524 8.32204 13.7429 8.41076 13.9499C8.47583 14.1037 8.57638 14.2397 8.65327 14.3817C8.87803 14.7957 9.17969 15.1565 9.505 15.4878C9.69428 15.677 9.90721 15.8486 10.1201 16.0142C10.4041 16.2389 10.7116 16.4341 11.0369 16.5938C11.2085 16.6766 11.3741 16.7594 11.5456 16.8363C11.6462 16.8837 11.7467 16.9191 11.8473 16.9546C11.9833 17.002 12.1253 17.0493 12.2613 17.0907C12.3619 17.1203 12.4683 17.1498 12.5689 17.1676C12.6872 17.1912 12.8055 17.209 12.9297 17.2267C13.1663 17.2622 13.4029 17.3154 13.6454 17.3214C14.0298 17.3332 14.4202 17.3214 14.8106 17.3036C14.9407 17.3036 15.0768 17.28 15.2069 17.2563C15.3429 17.2326 15.479 17.1971 15.615 17.1676C15.7806 17.1321 15.9463 17.0966 16.106 17.0493C16.2479 17.0079 16.3839 16.9546 16.52 16.9014C16.7093 16.8245 16.9045 16.7535 17.0878 16.6589C17.3599 16.5169 17.6261 16.3632 17.8745 16.1975C18.1052 16.0438 18.324 15.8663 18.5251 15.677C18.744 15.47 18.951 15.2453 19.1462 15.0146C19.2763 14.8667 19.3887 14.7011 19.4892 14.5355C19.6075 14.3344 19.7199 14.1274 19.8205 13.9203C19.9151 13.7192 19.9979 13.5181 20.0689 13.3052C20.1339 13.11 20.1754 12.9089 20.2168 12.7078C20.2818 12.3943 20.2818 12.0808 20.2936 11.7614C20.3055 11.3001 20.2286 10.8565 20.1162 10.4128C20.0925 10.3241 20.0571 10.2413 20.0275 10.1526C20.0985 10.1703 20.1694 10.1881 20.2345 10.2117C20.5894 10.33 20.9443 10.4483 21.2992 10.5785C21.5831 10.6849 21.867 10.7973 22.145 10.9156C22.4407 11.0457 22.7365 11.1936 23.0263 11.3415C23.2747 11.4657 23.5172 11.6076 23.7657 11.7378C23.8307 11.7733 23.9017 11.7969 23.9727 11.8265C23.9727 11.8383 23.9727 11.8501 23.9727 11.862C23.9727 11.862 23.9845 11.8738 23.9904 11.8797C24.0022 11.9448 24.0141 12.0098 24.0259 12.0749C24.0555 12.3647 24.0496 12.6486 23.9786 12.9326C23.9549 13.0272 23.9431 13.1218 23.9194 13.2106C23.8899 13.2638 23.8544 13.3111 23.8248 13.3643C23.4522 13.9203 23.0086 14.4172 22.5058 14.8608C22.0444 15.2689 21.5417 15.6238 21.0093 15.9373C20.6071 16.1739 20.1872 16.3691 19.7613 16.5583C19.2408 16.7831 18.7085 16.9665 18.1702 17.1203C17.7325 17.2445 17.2889 17.345 16.8453 17.4337C16.3839 17.5225 15.9226 17.5994 15.4553 17.6467C14.9289 17.6999 14.4025 17.7354 13.8761 17.7413C13.3378 17.7413 12.7996 17.7236 12.2672 17.6762C11.7408 17.6289 11.2144 17.5461 10.688 17.4692C10.339 17.416 9.99002 17.3391 9.64105 17.2622C9.35713 17.1971 9.07914 17.1262 8.79523 17.0552C8.56455 16.996 8.33387 16.931 8.10319 16.8659C7.94349 16.8186 7.78379 16.7713 7.61818 16.7299L7.63592 16.7121Z" fill="#BAE5FA"/>
<path d="M7.6361 16.7122C7.7958 16.7595 7.9555 16.8068 8.12111 16.8482C8.35179 16.9133 8.58247 16.9724 8.81315 17.0375C9.09706 17.1084 9.37506 17.1853 9.65897 17.2445C10.0079 17.3214 10.351 17.3983 10.7059 17.4515C11.2323 17.5343 11.7528 17.6171 12.2852 17.6585C12.8175 17.7058 13.3557 17.7295 13.894 17.7236C14.4204 17.7236 14.9527 17.6822 15.4732 17.629C15.9405 17.5816 16.4019 17.5047 16.8632 17.416C17.3068 17.3332 17.7505 17.2267 18.1881 17.1025C18.7323 16.9487 19.2646 16.7654 19.7792 16.5406C20.2051 16.3573 20.6251 16.1562 21.0273 15.9196C21.5596 15.6061 22.0624 15.2571 22.5237 14.8431C23.0265 14.3995 23.4701 13.9026 23.8427 13.3466C23.8782 13.2993 23.9078 13.2461 23.9374 13.1928C24.032 13.0331 24.1325 12.8793 24.2154 12.7137C24.3218 12.5067 24.4224 12.2879 24.659 12.1932C24.7773 12.1814 24.9015 12.14 25.0198 12.1577C25.2031 12.1873 25.3865 12.2465 25.5639 12.2997C25.907 12.4417 26.2146 12.6428 26.5044 12.8793C26.3329 12.8261 26.1613 12.767 25.9898 12.7137C25.9721 12.7019 25.9543 12.696 25.9366 12.6842C25.7414 12.6014 25.5403 12.5422 25.3273 12.554C25.2623 12.554 25.2386 12.6132 25.28 12.6605C25.3569 12.7374 25.4516 12.8025 25.5403 12.8793C25.7118 12.9858 25.8715 13.0982 26.049 13.1869C26.3684 13.3584 26.6937 13.5181 27.019 13.6838C27.0367 13.6956 27.0604 13.7015 27.084 13.7074C27.0722 13.7193 27.0604 13.737 27.0545 13.7488C26.8593 13.7015 26.6582 13.6542 26.463 13.6069C26.392 13.595 26.321 13.5714 26.2501 13.5655C26.0963 13.5477 25.9366 13.53 25.7828 13.5241C25.6113 13.5241 25.558 13.6246 25.6408 13.7725C25.6645 13.8139 25.7 13.8494 25.7295 13.8908C26.0135 14.1747 26.2974 14.4645 26.5931 14.7425C26.7469 14.8904 26.9184 15.0264 27.084 15.1684C27.0959 15.1802 27.1077 15.192 27.1195 15.2039C27.1195 15.2039 27.1314 15.2157 27.1373 15.2216C27.1136 15.2216 27.09 15.2216 27.0663 15.2216C26.9243 15.1211 26.7824 15.0205 26.6345 14.9259C26.6168 14.914 26.5931 14.9081 26.5754 14.9022C26.5754 14.9022 26.5517 14.8726 26.5399 14.8608C26.528 14.849 26.5221 14.8372 26.5103 14.8312C26.2382 14.6656 25.9661 14.4941 25.6881 14.3403C25.5758 14.2752 25.4516 14.2338 25.3273 14.1984C25.2386 14.1688 25.1676 14.2338 25.2031 14.3167C25.2327 14.3995 25.2859 14.4704 25.3273 14.5532C25.5225 14.7603 25.7118 14.9732 25.9129 15.1802C25.9957 15.2689 26.0904 15.3399 26.1968 15.4346C26.0667 15.3754 25.9543 15.3281 25.8478 15.2749C25.8478 15.2749 25.836 15.263 25.836 15.2512C25.8242 15.2394 25.8183 15.2275 25.8064 15.2275C25.6172 15.1329 25.422 15.0323 25.2327 14.9436C24.8305 14.7603 24.4224 14.5946 23.9788 14.5355C23.8131 14.5118 23.6475 14.5178 23.4878 14.5887C23.4228 14.6183 23.3873 14.6715 23.4109 14.7366C23.4405 14.8076 23.4878 14.8786 23.5233 14.9436C23.6475 15.0737 23.7599 15.2098 23.896 15.3281C24.0971 15.5055 24.3159 15.6711 24.5288 15.8427C24.5466 15.8604 24.5584 15.8782 24.5762 15.9018C24.5762 15.9077 24.5702 15.9137 24.5643 15.9196C24.4756 15.8782 24.3869 15.8308 24.2982 15.7894C24.2627 15.7717 24.2213 15.7658 24.1858 15.754C24.1858 15.748 24.1858 15.7421 24.1858 15.7362C23.9965 15.6416 23.8013 15.5765 23.5884 15.5943C23.4819 15.6061 23.4169 15.6711 23.4346 15.7717C23.4464 15.8782 23.4878 15.9787 23.5174 16.0852C23.6239 16.2804 23.7126 16.4874 23.8309 16.6708C24.0911 17.0611 24.3691 17.4397 24.6412 17.8241C24.7536 17.9838 24.8719 18.1376 24.9902 18.2973V18.3565C24.931 18.3032 24.8719 18.2559 24.8187 18.2027C24.8187 18.2027 24.8127 18.1968 24.8068 18.1909L24.7832 18.1672C24.7832 18.1672 24.7654 18.1317 24.7536 18.1199C24.6353 17.9957 24.517 17.8715 24.3928 17.7532C23.89 17.2445 23.3991 16.7299 22.8431 16.2804C22.7485 16.2035 22.642 16.1443 22.5355 16.0852C22.4764 16.0497 22.4232 16.0852 22.435 16.1443C22.4468 16.239 22.4882 16.3336 22.5119 16.4282C22.5769 16.5643 22.6361 16.7062 22.7071 16.8364C22.8017 17.002 22.9082 17.1617 23.0146 17.3273C23.0265 17.351 23.0324 17.3746 23.0442 17.3983H23.0087C22.7426 17.1617 22.4823 16.9133 22.2102 16.6826C22.0624 16.5525 21.8908 16.446 21.7016 16.3868C21.5537 16.3395 21.459 16.4164 21.4827 16.5702C21.4827 16.6057 21.4886 16.6471 21.5004 16.6826C21.53 16.7772 21.5655 16.8659 21.601 16.9547C21.6661 17.1203 21.7193 17.2918 21.8021 17.4515C22.021 17.8951 22.2457 18.3328 22.4705 18.7705C22.5415 18.9125 22.6183 19.0485 22.6952 19.1905C22.713 19.22 22.7307 19.2496 22.7485 19.2792C22.7485 19.2792 22.7485 19.2851 22.7485 19.291C22.7662 19.3147 22.7781 19.3443 22.7958 19.3679C22.7958 19.3679 22.7958 19.3738 22.7958 19.3797C22.8135 19.4034 22.8254 19.433 22.8431 19.4566C22.8431 19.4566 22.849 19.4626 22.8431 19.4685C22.849 19.4803 22.8609 19.4921 22.8668 19.5099C22.8786 19.5276 22.8845 19.5513 22.8963 19.569C22.9082 19.5808 22.9141 19.5986 22.9259 19.6104C22.9259 19.6104 22.9259 19.6163 22.9318 19.6223C22.9318 19.6637 22.9378 19.6991 22.9437 19.7405C22.8135 19.569 22.6893 19.3916 22.5592 19.226C22.1511 18.6936 21.737 18.1672 21.2343 17.7177C20.9918 17.4988 20.7374 17.2977 20.424 17.1853C20.2879 17.138 20.146 17.1262 20.004 17.1853C19.9803 17.1972 19.9448 17.2386 19.9508 17.2563C19.9863 17.345 20.0336 17.4338 20.075 17.5225C20.1578 17.7236 20.2406 17.9247 20.3175 18.1258C20.4654 18.5103 20.6014 18.8888 20.7434 19.2733C20.7788 19.3738 20.8084 19.4803 20.838 19.5808C20.8498 19.6163 20.8616 19.6577 20.8735 19.6932C20.8735 19.7169 20.8853 19.7465 20.8912 19.7701C20.9267 19.9535 20.974 20.1309 20.9977 20.3143C21.0391 20.6041 21.0805 20.8939 20.9563 21.1778C20.9385 21.1424 20.9267 21.101 20.909 21.0655C20.8794 20.6633 20.8084 20.2611 20.696 19.8707C20.6428 19.6755 20.5718 19.4803 20.5127 19.2792C20.4949 19.2496 20.4831 19.2141 20.4654 19.1846C20.4654 19.1846 20.4654 19.1786 20.4654 19.1727C20.4654 19.155 20.4654 19.1313 20.4594 19.1136C20.3175 18.8001 20.1578 18.4984 19.9212 18.2441C19.6136 17.9129 19.241 17.7295 18.7796 17.7354C18.5371 17.7354 18.407 17.8478 18.4011 18.0962C18.4011 18.2678 18.4247 18.4393 18.4543 18.6049C18.4661 18.6818 18.5016 18.7587 18.5312 18.8297C18.5667 18.9539 18.6081 19.0781 18.6436 19.2023C18.6613 19.2496 18.685 19.3028 18.7027 19.3502C18.7027 19.362 18.7087 19.3679 18.7146 19.3797C18.7264 19.3975 18.7323 19.4152 18.7441 19.4389C18.7441 19.4507 18.7501 19.4566 18.756 19.4685C18.7678 19.498 18.7855 19.5335 18.7974 19.5631C18.8033 19.5868 18.8151 19.6045 18.821 19.6282C18.8388 19.6577 18.8506 19.6932 18.8684 19.7228C18.8684 19.7228 18.8684 19.7346 18.8684 19.7405C18.8684 19.7524 18.8743 19.7642 18.8802 19.776C18.8861 19.7938 18.8979 19.8115 18.9038 19.8293C18.9038 19.8352 18.9157 19.8411 18.9157 19.847C18.9157 19.847 18.9038 19.8825 18.8979 19.9002C18.8743 19.8648 18.8506 19.8293 18.8269 19.7938C18.5726 19.4152 18.3064 19.0485 17.993 18.7173C17.7859 18.4925 17.5671 18.2855 17.295 18.1495C17.1945 18.1021 17.0939 18.0489 16.9579 18.0844C17.017 18.1909 17.0702 18.2914 17.1235 18.3979C17.224 18.6167 17.3305 18.8297 17.4192 19.0544C17.5493 19.3738 17.6736 19.6932 17.7919 20.0185C17.8333 20.1368 17.8687 20.2551 17.9042 20.3734C17.9102 20.3912 17.922 20.4148 17.9279 20.4326C17.9279 20.4503 17.9338 20.474 17.9397 20.4917C17.9575 20.5509 17.9693 20.61 17.987 20.6692C17.987 20.681 17.987 20.6928 17.993 20.6987C17.993 20.7165 17.993 20.7402 17.993 20.7579C18.0521 21.0596 18.1113 21.3612 18.1113 21.6747C18.1113 21.8581 18.0994 22.0473 18.0876 22.2307C18.0758 22.2898 18.058 22.349 18.0462 22.414C18.0284 21.7693 17.9575 21.1424 17.7327 20.5331C17.715 20.4976 17.7031 20.4622 17.6854 20.4208C17.6795 20.3971 17.6736 20.3734 17.6617 20.3557C17.6381 20.2906 17.6203 20.2256 17.5907 20.1605C17.3956 19.7465 17.159 19.362 16.8514 19.0189C16.6266 18.7705 16.3782 18.5576 16.1002 18.3624C16.1534 18.4866 16.2008 18.599 16.2481 18.7055C16.2481 18.7173 16.2481 18.7291 16.2481 18.7409C16.2481 18.7528 16.2599 18.7705 16.2658 18.7823L16.2777 18.8474C16.2777 18.8474 16.2777 18.9066 16.2777 18.9361C16.3309 19.3147 16.2777 19.6873 16.2126 20.054C16.1416 20.4208 16.047 20.7816 15.9464 21.1424C15.8873 21.373 15.8045 21.5978 15.7276 21.8285C15.6625 22.0059 15.6034 22.1893 15.5383 22.3667C15.5324 22.3667 15.5265 22.3667 15.5206 22.3667C15.5206 22.3549 15.5206 22.3372 15.5206 22.3253C15.5797 21.9882 15.6448 21.657 15.698 21.3198C15.7926 20.7756 15.8459 20.2315 15.8222 19.6814C15.8104 19.433 15.7572 19.1846 15.7217 18.942C15.6862 18.8415 15.6625 18.7409 15.6152 18.6522C15.5206 18.4748 15.3845 18.3446 15.1834 18.3032C14.9646 18.2618 14.7635 18.3269 14.5683 18.4215C14.5387 18.4393 14.5091 18.4807 14.4973 18.5162C14.4677 18.6522 14.4322 18.7883 14.4263 18.9302C14.4263 19.291 14.4381 19.6459 14.4441 20.0067C14.45 20.0599 14.4559 20.1191 14.4618 20.1723C14.4618 20.2019 14.4618 20.2374 14.4618 20.267C14.45 20.2965 14.4441 20.332 14.4322 20.3616C14.3435 20.0304 14.2607 19.6991 14.172 19.3679C14.1424 19.2555 14.0892 19.1491 14.0478 19.0426C13.9827 18.8178 13.8822 18.6167 13.7106 18.4511C13.5687 18.3092 13.4385 18.321 13.3143 18.4866C13.1073 18.7528 12.9062 19.0308 12.7228 19.3147C12.4863 19.6814 12.2733 20.054 12.0486 20.4267C11.9184 20.6396 11.8001 20.8584 11.6759 21.0714C11.5399 21.308 11.4098 21.5387 11.2737 21.7752C11.2619 21.7752 11.2501 21.7752 11.2441 21.7693C11.256 21.7338 11.2619 21.7043 11.2737 21.6688C11.3329 21.5091 11.3979 21.3494 11.4571 21.1897C11.6168 20.7697 11.7765 20.3498 11.9243 19.9239C12.0367 19.6104 12.1314 19.2851 12.226 18.9657C12.2615 18.8533 12.2733 18.735 12.297 18.6167C12.3029 18.5339 12.3147 18.4511 12.3147 18.3683C12.3147 18.3092 12.2674 18.2737 12.2083 18.321C12.1432 18.3742 12.0781 18.4215 12.0308 18.4866C11.7469 18.8415 11.5635 19.2614 11.3624 19.6637C11.321 19.7524 11.2796 19.8352 11.2382 19.9239H11.2205C11.2205 19.9239 11.2146 19.8884 11.2205 19.8707C11.2796 19.4803 11.3506 19.0899 11.3269 18.6877C11.3092 18.6108 11.2974 18.528 11.2737 18.4511C11.2501 18.3683 11.1672 18.3328 11.0904 18.3624C11.049 18.3801 11.0016 18.392 10.9602 18.4156C10.5639 18.6522 10.215 18.9539 9.86599 19.2614C9.65305 19.4566 9.4342 19.6518 9.22127 19.847C9.22127 19.8293 9.22127 19.8115 9.22127 19.7879C9.25084 19.7465 9.28042 19.7051 9.31591 19.6696C9.32774 19.6577 9.33365 19.6459 9.34548 19.6341C9.61165 19.291 9.8719 18.942 10.0612 18.5458C10.1026 18.4629 10.1203 18.3742 10.1499 18.2855C10.1499 18.2323 10.1617 18.1672 10.1322 18.1258C9.85416 17.7177 9.51701 17.6053 9.06157 17.7177C8.74808 17.7946 8.48783 17.9661 8.25715 18.179C8.13294 18.2914 8.01465 18.4156 7.89043 18.5339C7.77214 18.664 7.64793 18.7942 7.52963 18.9243C7.50006 18.9539 7.47048 18.9775 7.44091 19.0071C7.43499 19.0071 7.42908 18.9953 7.41725 18.9894C7.46457 18.9125 7.51189 18.8356 7.55329 18.7587C7.72482 18.457 7.89043 18.1435 7.9555 17.7946C7.96141 17.765 7.9555 17.7295 7.9555 17.6999C7.97324 17.4929 7.87269 17.3628 7.67159 17.3805C7.5178 17.3983 7.3581 17.4338 7.21023 17.4988C6.74296 17.7058 6.323 17.9957 5.90897 18.2914C5.69012 18.457 5.47127 18.6226 5.24651 18.7883C5.23468 18.7823 5.21693 18.7705 5.2051 18.7646C5.4831 18.457 5.77293 18.1554 5.99769 17.8064C6.05092 17.7177 6.09824 17.623 6.14556 17.5343C6.15148 17.5225 6.1633 17.5047 6.16922 17.4929C6.16922 17.4752 6.16922 17.4633 6.16922 17.4456C6.21062 17.3391 6.19288 17.2563 6.10416 17.2031C6.04501 17.1676 5.97995 17.1321 5.91488 17.1144C5.57774 17.0138 5.22285 16.9961 4.87387 16.9902C4.34745 16.9783 3.82103 16.9902 3.29461 16.9902C2.91015 16.9902 2.51977 16.9842 2.14122 16.9487C1.76859 16.9192 1.40187 16.8482 1.04698 16.7299C1.02924 16.724 1.01149 16.7122 0.987831 16.7122C0.910939 16.6885 0.834046 16.6708 0.757153 16.6471V16.653C0.745324 16.6412 0.727579 16.6293 0.715749 16.6116C0.544219 16.5111 0.366775 16.4105 0.195245 16.304C0.124267 16.2626 0.0592037 16.2094 -0.00585938 16.1621C-0.00585938 16.1562 5.54514e-05 16.1502 0.00597028 16.1384C0.100607 16.1798 0.195245 16.2212 0.289882 16.2567C0.526475 16.3336 0.763068 16.4164 1.00558 16.4756C1.59706 16.6116 2.19446 16.6471 2.79777 16.6057C3.55487 16.5584 4.31196 16.4815 5.06906 16.446C5.48901 16.4282 5.91488 16.446 6.33483 16.4815C6.66606 16.5111 6.99138 16.582 7.3167 16.6412C7.40542 16.6589 7.50006 16.6826 7.58878 16.7062L7.6361 16.7122Z" fill="#3A3838"/>
<path d="M15.8694 7.95822C16.0291 8.07652 16.2066 8.04694 16.3781 7.99371C16.6502 7.9109 16.875 7.7512 17.0997 7.57967C17.1175 7.56193 17.147 7.55601 17.1884 7.53235C17.1056 7.69205 17.0287 7.82218 16.9637 7.95822C16.9045 8.07652 16.94 8.13566 17.0642 8.17707C17.5138 8.31311 17.9041 8.17707 18.2768 7.93456C18.5725 7.73937 18.8032 7.47912 19.0457 7.21295C19.0398 7.24844 19.0339 7.28984 19.022 7.32533C18.9274 7.51461 18.8269 7.7098 18.7204 7.89316C18.6139 8.07652 18.4956 8.25396 18.3773 8.44323C18.4956 8.49055 18.6139 8.49647 18.7381 8.47872C19.0989 8.4314 19.3947 8.25987 19.6549 8.01737C19.7141 7.95822 19.7732 7.89907 19.8383 7.83992C19.8501 7.82809 19.856 7.81626 19.8679 7.81035C19.8738 7.80443 19.8797 7.79852 19.8915 7.78669L19.9743 7.69205C19.9743 7.69205 19.9921 7.67431 19.998 7.66248C20.0098 7.65065 20.0216 7.63882 20.0276 7.62699C20.0276 7.62699 20.0512 7.59741 20.063 7.57967C20.063 7.57967 20.0808 7.5501 20.0926 7.53827C20.0926 7.53827 20.0926 7.52644 20.0985 7.52644C20.1163 7.50278 20.134 7.4732 20.1577 7.44954C20.1695 7.46137 20.1873 7.47912 20.1991 7.49095C20.0808 7.73346 19.9684 7.97596 19.8501 8.21847C19.7791 8.37226 19.7022 8.52604 19.6254 8.67983C19.6135 8.7094 19.5958 8.73898 19.578 8.77446C19.6963 8.80995 19.791 8.78629 19.8797 8.72715C20.0335 8.62659 20.1991 8.53787 20.347 8.42549C20.8556 8.02328 21.3052 7.55601 21.7369 7.07691C21.7606 7.05325 21.7843 7.03551 21.8079 7.01776C21.8138 7.02368 21.8257 7.02959 21.8316 7.03551C21.731 7.20112 21.6364 7.36674 21.5358 7.53827C21.5181 7.56193 21.5063 7.5915 21.4944 7.62107C21.4708 7.63882 21.4471 7.65656 21.4353 7.68022C21.2933 7.87541 21.1632 8.07652 21.0213 8.2717C20.8438 8.50238 20.6545 8.72715 20.4179 8.90459C20.4179 8.91051 20.4179 8.92234 20.4179 8.92825C20.4771 8.92825 20.5422 8.93417 20.6013 8.94008C20.832 8.89276 21.0272 8.77446 21.2164 8.64434C21.3761 8.53196 21.5299 8.40775 21.6896 8.28945C21.7015 8.27762 21.7192 8.2717 21.7547 8.27762C21.6896 8.37226 21.6187 8.46689 21.5595 8.56745C21.453 8.74489 21.3466 8.92825 21.246 9.11161C21.2224 9.1471 21.2283 9.20033 21.2164 9.24765C21.2224 9.27723 21.2164 9.31271 21.2401 9.33637C21.3111 9.41327 21.453 9.43101 21.5536 9.37778C21.6896 9.30088 21.8375 9.23582 21.9617 9.13527C22.3876 8.79812 22.7425 8.38409 23.0914 7.97005C23.2393 7.79852 23.3754 7.62107 23.5173 7.44363C23.5173 7.4732 23.5173 7.50278 23.5173 7.53235C23.4108 7.72163 23.3044 7.91681 23.1979 8.10609C23.1861 8.12975 23.1683 8.15932 23.1565 8.18298C23.1565 8.18298 23.1565 8.1889 23.1506 8.19481C23.1269 8.2303 23.1092 8.26579 23.0855 8.30128C23.0737 8.31902 23.0619 8.33677 23.05 8.35451C23.0323 8.37226 23.0145 8.38409 23.0027 8.40183C22.7247 8.83361 22.429 9.24765 22.0977 9.63803C22.0268 9.72084 21.9558 9.80956 21.873 9.9042C21.9203 9.91603 21.9617 9.92786 21.9972 9.93377C22.0623 9.93377 22.1214 9.93377 22.1865 9.93377C22.2042 9.93377 22.2279 9.92194 22.2456 9.91603C22.2989 9.89828 22.3521 9.88645 22.4053 9.86871C22.565 9.7859 22.7366 9.70901 22.8844 9.60845C23.3694 9.27722 23.7776 8.86319 24.1739 8.4314C24.4519 8.12383 24.7298 7.80443 25.0197 7.4732C24.9428 7.8695 24.7298 8.1889 24.5406 8.51421C24.5287 8.52013 24.5169 8.52604 24.5051 8.53787C24.233 8.92825 23.9136 9.27131 23.5765 9.60254C23.5055 9.67352 23.4286 9.73858 23.3576 9.80956C23.3576 9.81547 23.3694 9.8273 23.3754 9.83322C23.4759 9.79773 23.5765 9.76224 23.6711 9.72675C23.9609 9.61437 24.2153 9.43693 24.4519 9.23582C24.9073 8.85727 25.3036 8.41958 25.6703 7.9523C25.7827 7.81035 25.8892 7.66248 25.9956 7.51461C26.0015 7.50869 26.0134 7.50278 26.0311 7.50278C25.8655 7.99962 25.6112 8.45506 25.3509 8.89868C25.3332 8.92825 25.3154 8.95782 25.2977 8.9874C25.2977 8.9874 25.2622 9.02289 25.2444 9.04063C25.0078 9.38961 24.7535 9.72084 24.4519 10.0166C24.3631 10.1053 24.2803 10.1999 24.1739 10.3123C24.2744 10.2768 24.3572 10.2473 24.44 10.2177C24.7653 10.0876 25.0374 9.87462 25.2918 9.63803C25.8418 9.12935 26.3091 8.55562 26.7527 7.9523C26.8769 7.78077 27.0011 7.60333 27.1313 7.4318C27.1372 7.4318 27.149 7.4318 27.1549 7.43771C27.1313 7.50278 27.1194 7.56784 27.0899 7.62699C26.871 8.04694 26.6463 8.46098 26.4274 8.88093C26.4097 8.90459 26.3919 8.92825 26.3742 8.95191C26.3742 8.95191 26.3742 8.95782 26.3742 8.96374C26.3564 8.9874 26.3387 9.01106 26.3269 9.03472C26.3269 9.03472 26.2914 9.05838 26.2795 9.07021C25.9838 9.51382 25.6407 9.92194 25.2385 10.2709C25.1735 10.3241 25.1143 10.3833 25.0492 10.4365C25.0492 10.4424 25.0492 10.4543 25.0552 10.4602C25.138 10.4661 25.2267 10.472 25.3095 10.4779C25.3509 10.4779 25.3864 10.4779 25.4278 10.4779C25.4751 10.4779 25.5224 10.472 25.5698 10.4661C25.5993 10.4661 25.6289 10.4661 25.6526 10.4661C25.6821 10.4602 25.7176 10.4484 25.7472 10.4424C25.9897 10.4129 26.2145 10.336 26.4392 10.2413C27.1727 9.92786 27.8115 9.4665 28.4148 8.94599C28.5745 8.80995 28.7283 8.66208 28.888 8.52604C28.9057 8.5083 28.9353 8.49647 28.953 8.48464C28.959 8.48464 28.9649 8.49647 28.9708 8.50238C28.9412 8.55562 28.9116 8.61476 28.8821 8.668C28.8702 8.67983 28.8643 8.69757 28.8525 8.7094C28.8525 8.7094 28.8525 8.71532 28.8466 8.72123C28.8288 8.75081 28.8111 8.78038 28.7992 8.80995C28.7992 8.80995 28.7933 8.81587 28.7933 8.82178C28.7756 8.85136 28.7519 8.88685 28.7342 8.91642C28.7342 8.91642 28.7342 8.92234 28.7283 8.92825C28.6928 8.98148 28.6573 9.03472 28.6277 9.08795C28.6277 9.08795 28.5981 9.1057 28.5863 9.11752C28.4798 9.25948 28.3734 9.40144 28.2669 9.53748C27.9002 10.0166 27.4862 10.4424 26.9775 10.7678C26.9597 10.7796 26.942 10.7973 26.9124 10.8269C27.0189 10.8447 27.1076 10.8624 27.1963 10.8801C27.2318 10.8801 27.2614 10.8801 27.2969 10.8861C27.3501 10.8861 27.4093 10.8861 27.4625 10.8861C27.4921 10.8861 27.5276 10.8861 27.5571 10.8861C27.5749 10.8861 27.5985 10.8801 27.6163 10.8742C27.9889 10.8269 28.3083 10.6613 28.6277 10.472C29.024 10.2354 29.373 9.9456 29.7042 9.63211C29.7575 9.57888 29.8107 9.52565 29.8698 9.47833C29.8757 9.49607 29.8817 9.51382 29.8876 9.53156C29.8284 9.61437 29.7693 9.69718 29.7101 9.77998C29.7042 9.7859 29.6983 9.79181 29.6924 9.79773C29.6924 9.79773 29.6687 9.82139 29.6569 9.83322C29.6569 9.83322 29.6392 9.84505 29.6273 9.85096C29.5918 9.88054 29.5563 9.91011 29.5268 9.9456C29.2369 10.2591 28.9294 10.5548 28.5863 10.8151C28.1664 11.1345 27.7168 11.4066 27.2318 11.6018C26.9302 11.726 26.6285 11.8265 26.3091 11.8738C26.0489 11.9093 25.7827 11.933 25.5165 11.9507C25.2563 11.9685 25.0078 11.9152 24.7772 11.791C24.4578 11.6254 24.1384 11.4598 23.819 11.2942C23.4345 11.099 23.05 10.8979 22.6597 10.7086C22.3284 10.5489 21.9854 10.4129 21.6423 10.2709C21.453 10.194 21.2578 10.123 21.0627 10.058C20.8556 9.987 20.6427 9.92194 20.4298 9.86279C20.2523 9.80956 20.0749 9.76816 19.8974 9.72675C19.8738 9.71492 19.856 9.70309 19.8324 9.69718C19.649 9.65577 19.4657 9.60845 19.2823 9.57297C19.0871 9.53156 18.8978 9.50199 18.7026 9.4665C18.5075 9.43101 18.3063 9.39552 18.1112 9.36003C18.123 9.38961 18.1407 9.40144 18.1644 9.41327C18.3024 9.50002 18.3477 9.62226 18.3004 9.77998C18.3004 9.77998 18.2886 9.77998 18.2827 9.77998C18.2827 9.77407 18.2827 9.76224 18.2709 9.75633C18.1171 9.6676 17.9692 9.56114 17.8095 9.49016C17.6202 9.40144 17.425 9.32454 17.2239 9.27722C17.0583 9.23582 16.875 9.24765 16.7034 9.23582C16.5319 9.22399 16.3604 9.21216 16.1888 9.20625C16.0705 9.20625 15.9582 9.20625 15.8399 9.20625C15.8399 9.20625 15.8399 9.21808 15.8399 9.22399C15.8931 9.24174 15.9404 9.25357 16.0055 9.27131C15.9818 9.27131 15.9641 9.27131 15.9463 9.27131C15.9286 9.27131 15.9108 9.27131 15.8931 9.27131C15.5264 9.22399 15.1597 9.25357 14.7989 9.31863C14.5682 9.36003 14.3493 9.4251 14.1246 9.49016C14.0004 9.52565 13.888 9.59071 13.7697 9.63803C13.5804 9.73267 13.3852 9.82139 13.2019 9.92786C13.054 10.0107 12.9239 10.123 12.7819 10.2177C12.7701 10.1881 12.7642 10.1585 12.7523 10.1349C12.7109 10.0639 12.7346 10.0166 12.7996 9.97517C12.9239 9.89828 13.0422 9.80956 13.1664 9.72675C13.1723 9.72675 13.1841 9.72675 13.19 9.72675C13.403 9.61437 13.6159 9.50199 13.8288 9.39552C13.9057 9.35412 13.9885 9.33046 14.0654 9.29497C14.0654 9.28905 14.0654 9.27722 14.0654 9.27131C13.9175 9.28314 13.7697 9.29497 13.6277 9.31271C13.5745 9.31271 13.5213 9.31271 13.4739 9.32454C13.3556 9.33637 13.2433 9.3482 13.125 9.36595C12.9357 9.38961 12.7464 9.40144 12.5512 9.43101C12.356 9.45467 12.1608 9.49016 11.9657 9.52565C11.735 9.56114 11.5102 9.59663 11.2795 9.64394C11.0193 9.69718 10.7649 9.75633 10.5047 9.81547C10.4988 9.8273 10.4751 9.84505 10.481 9.85688C10.4988 9.95743 10.5165 10.058 10.5343 10.1585C10.5343 10.1704 10.5343 10.1822 10.5402 10.1881C10.5461 10.2059 10.552 10.2295 10.5579 10.2473C10.5579 10.2768 10.5579 10.3064 10.5698 10.336C10.6881 10.7678 10.8418 11.1818 11.0903 11.5544C11.1612 11.6609 11.1672 11.7437 11.1021 11.8443C11.0843 11.8265 11.0666 11.8088 11.0548 11.7851C10.8951 11.5367 10.759 11.2764 10.6585 10.9925C10.5638 10.7264 10.481 10.4602 10.4515 10.1763C10.4337 10.0639 10.416 9.95743 10.3982 9.83913C10.3746 9.83913 10.3627 9.83913 10.3568 9.84505C10.1971 9.88645 10.0433 9.93377 9.88363 9.96334C9.6293 10.0166 9.48734 10.1881 9.38087 10.4129C9.36313 10.4365 9.34538 10.4602 9.32172 10.4838C9.29807 10.5193 9.26849 10.5548 9.24483 10.5903C9.24483 10.5548 9.25666 10.5193 9.26258 10.4838C9.31581 10.3656 9.37496 10.2413 9.43411 10.1053C9.3927 10.1171 9.36904 10.123 9.33947 10.1349C9.10288 10.2177 8.86037 10.3005 8.62378 10.3892C8.44042 10.4602 8.26297 10.543 8.07961 10.614C7.86668 10.7086 7.65374 10.7914 7.44672 10.8979C7.05635 11.099 6.67188 11.306 6.29333 11.5189C6.06857 11.6491 5.84972 11.7969 5.63087 11.933C5.62496 11.933 5.61313 11.933 5.60721 11.9389C5.03348 12.3411 4.46565 12.7374 3.89783 13.1396C3.29452 13.5714 2.69712 14.0091 2.08198 14.435C1.74483 14.6715 1.38994 14.8786 1.04097 15.1033C0.910842 15.1861 0.780715 15.263 0.650589 15.3399C0.597356 15.3577 0.538208 15.3813 0.473145 15.405C0.561867 15.3103 0.632845 15.2216 0.715652 15.1447C1.16518 14.7248 1.60288 14.293 2.06423 13.8908C2.58474 13.4353 3.1289 13.0036 3.67307 12.5777C3.96289 12.347 4.26455 12.1223 4.57803 11.9152C5.13403 11.5544 5.69594 11.2055 6.26376 10.8565C6.52401 10.6968 6.79609 10.5548 7.07409 10.4188C7.45264 10.2295 7.8371 10.0521 8.22157 9.88054C8.50548 9.75633 8.79531 9.64394 9.07922 9.52565C9.09105 9.52565 9.10288 9.51382 9.11471 9.5079C9.12062 9.5079 9.12654 9.5079 9.13245 9.5079C9.15019 9.49607 9.17385 9.49016 9.1916 9.47833C9.1916 9.47833 9.19751 9.47833 9.20343 9.47833C9.24483 9.46058 9.29215 9.44284 9.33355 9.4251C9.33355 9.4251 9.33947 9.4251 9.34538 9.4251C9.41045 9.40144 9.48142 9.38369 9.54649 9.36003H9.5524C9.57606 9.36003 9.60564 9.36003 9.6293 9.3482C10.1025 9.20625 10.5757 9.05838 11.0548 8.92825C11.457 8.82178 11.8651 8.74489 12.2732 8.65025C12.3324 8.63842 12.3915 8.59702 12.4448 8.56745C12.4625 8.5497 12.4802 8.53196 12.498 8.52013C12.6045 8.41366 12.6754 8.28353 12.7109 8.13566C12.7523 7.97596 12.7937 7.81626 12.8292 7.65656C12.8588 7.76303 12.8765 7.88133 12.9179 7.99371C12.9593 8.10609 13.0126 8.21847 13.0836 8.31311C13.1782 8.43732 13.3024 8.43732 13.403 8.31311C13.4798 8.21847 13.5508 8.10609 13.61 7.99962C13.675 7.89316 13.7283 7.77486 13.7815 7.66248C13.7815 7.66248 13.7933 7.66248 13.8052 7.65065C13.7933 7.73937 13.7756 7.81626 13.7756 7.89907C13.7756 8.02328 13.7756 8.15341 13.7815 8.28353C13.7815 8.31311 13.8052 8.34268 13.8229 8.36634C13.9116 8.46689 14.0536 8.46098 14.1719 8.3486H14.1837C14.1955 8.33677 14.2074 8.33085 14.2192 8.31902C14.4203 8.17115 14.5682 7.98188 14.716 7.78669C14.7929 7.68022 14.8639 7.57375 14.9408 7.46729C14.9526 7.44954 14.9645 7.43771 14.994 7.40814C14.9586 7.56193 14.9231 7.69205 14.8994 7.82809C14.8757 7.95822 14.8639 8.09426 14.8521 8.22439C14.8521 8.26579 14.8521 8.30719 14.8698 8.34268C14.8935 8.40183 14.9349 8.4314 14.9881 8.37817C15.065 8.30719 15.1537 8.23622 15.2188 8.15341C15.4377 7.86358 15.6506 7.57375 15.8635 7.27801C15.8635 7.30167 15.8754 7.32533 15.8813 7.34899C15.8813 7.36674 15.8694 7.37857 15.8694 7.39631C15.8576 7.4318 15.8458 7.4732 15.828 7.50869C15.828 7.52052 15.828 7.52644 15.828 7.53827C15.8221 7.57375 15.8162 7.60924 15.8103 7.64473C15.8103 7.7098 15.8103 7.77486 15.8103 7.83992C15.8221 7.8695 15.834 7.89907 15.8458 7.92864C15.8458 7.92864 15.8694 7.96413 15.8813 7.98188L15.8694 7.95822Z" fill="#393737"/>
<path d="M23.7955 11.2824C24.1149 11.448 24.4343 11.6136 24.7537 11.7792C24.9843 11.9034 25.2328 11.9566 25.493 11.9389C25.7592 11.9212 26.0194 11.8975 26.2856 11.862C26.605 11.8147 26.9126 11.7082 27.2083 11.5899C27.6993 11.3888 28.1429 11.1227 28.5628 10.8033C28.9 10.543 29.2134 10.2473 29.5033 9.93378C29.5328 9.89829 29.5683 9.86871 29.6038 9.83914C29.6157 9.83322 29.6216 9.82731 29.6334 9.82139C29.6452 9.80956 29.6571 9.79773 29.6689 9.7859C29.6689 9.7859 29.6807 9.77407 29.6866 9.76816C29.728 9.73859 29.7694 9.7031 29.8168 9.67352C29.8168 9.67352 29.8227 9.67352 29.8286 9.67944C29.8049 9.71493 29.7754 9.7445 29.7517 9.77999C29.4323 10.2059 29.0597 10.5903 28.6575 10.9334C28.2966 11.241 27.9063 11.513 27.4863 11.7319C27.1728 11.8975 26.8534 12.0335 26.5104 12.1223C26.2146 12.1992 25.913 12.2346 25.6113 12.2938C25.5936 12.2938 25.5817 12.3056 25.564 12.3115C25.3806 12.2642 25.2032 12.1992 25.0198 12.1696C24.9015 12.1518 24.7832 12.1932 24.659 12.2051C24.6413 12.1873 24.6235 12.1577 24.5999 12.1459C24.4934 12.0927 24.3869 12.0395 24.2805 11.9921C24.1858 11.9507 24.0912 11.9093 24.0025 11.8679C24.0025 11.8679 23.9907 11.8561 23.9847 11.8561C23.9847 11.8443 23.9847 11.8324 23.9847 11.8206C23.9552 11.7319 23.9256 11.6491 23.896 11.5604C23.8605 11.4657 23.825 11.3711 23.7896 11.2764L23.7955 11.2824Z" fill="#B7B6B6"/>
<path d="M0.79848 16.653V16.6471C0.822139 16.7121 1.02324 16.7831 1.07648 16.7476C1.07648 16.7476 1.07648 16.7358 1.07648 16.7299C1.43137 16.8482 1.79809 16.9191 2.17072 16.9487C2.55518 16.9783 2.93965 16.9842 3.32411 16.9901C3.85053 16.996 4.37695 16.9901 4.90337 16.9901C5.25234 16.996 5.60132 17.0197 5.94438 17.1143C6.00944 17.1321 6.0745 17.1676 6.13365 17.203C6.22238 17.2622 6.24012 17.345 6.19872 17.4456C6.05085 17.4101 5.90889 17.3627 5.76102 17.3391C5.58357 17.3095 5.40613 17.2918 5.2346 17.2859C4.39469 17.274 3.54887 17.2799 2.70897 17.2622C2.41323 17.2563 2.11749 17.1971 1.82766 17.1676C1.53783 17.138 1.26575 17.0493 0.993669 16.9487C0.674269 16.8245 0.384442 16.653 0.118275 16.4341C0.118275 16.4341 0.118275 16.4223 0.106445 16.4105C0.29572 16.4814 0.473165 16.5524 0.656524 16.6234C0.692013 16.6766 0.739332 16.6825 0.792565 16.6471L0.79848 16.653Z" fill="#B7B6B6"/>
<path d="M0.63868 15.3281C0.768807 15.2512 0.898933 15.1743 1.02906 15.0915C1.37803 14.8726 1.73292 14.6597 2.07007 14.4231C2.6793 13.9972 3.27669 13.5595 3.88592 13.1278C4.45374 12.7256 5.02748 12.3293 5.5953 11.9271C5.60122 11.9271 5.61305 11.9271 5.61896 11.9211C5.58939 11.9744 5.56573 12.0276 5.53616 12.0808C5.5125 12.1341 5.48292 12.1873 5.45926 12.2405C5.42969 12.2642 5.40012 12.2938 5.37054 12.3174C5.24042 12.4002 5.10437 12.4831 4.97425 12.5718C4.5957 12.832 4.22307 13.0982 3.85043 13.3644C3.54286 13.5891 3.2412 13.8198 2.93363 14.0387C2.63198 14.2575 2.32441 14.4763 2.01683 14.6893C1.70926 14.8963 1.39578 15.1033 1.07638 15.2985C0.792466 15.476 0.496724 15.6416 0.195068 15.7954C0.206898 15.7776 0.218728 15.7599 0.230557 15.748C0.342939 15.6297 0.461236 15.5174 0.573617 15.3991C0.597277 15.3754 0.609106 15.3458 0.620936 15.3222L0.63868 15.3281Z" fill="#B7B6B6"/>
<path d="M11.7054 21.0773C11.8296 20.8643 11.9538 20.6455 12.0781 20.4325C12.3028 20.0599 12.5158 19.6814 12.7523 19.3206C12.9357 19.0366 13.1368 18.7646 13.3438 18.4925C13.468 18.3269 13.5982 18.321 13.7401 18.457C13.9057 18.6226 14.0122 18.8237 14.0773 19.0485C14.0418 19.0012 14.0063 18.9479 13.9649 18.9006C13.8998 18.8296 13.8348 18.7527 13.7579 18.6936C13.681 18.6344 13.5686 18.6463 13.5035 18.7172C13.3793 18.8592 13.2551 19.0012 13.1486 19.1609C12.9594 19.4389 12.776 19.7169 12.6045 20.0008C12.3146 20.4799 12.0307 20.9708 11.7468 21.4558C11.6108 21.6865 11.4866 21.9231 11.3564 22.1538C11.3564 22.1242 11.3564 22.0946 11.3564 22.065C11.3978 21.9527 11.4393 21.8462 11.4807 21.7338C11.5575 21.5327 11.6404 21.3375 11.7172 21.1364C11.7232 21.1187 11.7113 21.095 11.7054 21.0773Z" fill="#B8B7B7"/>
<path d="M5.93845 18.3092C6.35249 18.0134 6.77244 17.7236 7.23971 17.5166C7.38167 17.4515 7.54137 17.416 7.70107 17.3983C7.90217 17.3805 8.00864 17.5048 7.98498 17.7177C7.77796 17.6467 7.58277 17.6999 7.3935 17.7827C6.79019 18.0371 6.26968 18.4215 5.74326 18.8119C5.58948 18.9243 5.4416 19.0426 5.28782 19.1609C5.2819 19.155 5.27007 19.1491 5.26416 19.1372C5.36471 19.0308 5.45935 18.9184 5.55399 18.8119C5.6782 18.6759 5.79649 18.5339 5.91479 18.392C5.93254 18.3742 5.92662 18.3387 5.93254 18.3151L5.93845 18.3092Z" fill="#B8B7B7"/>
<path d="M7.91395 18.5398C8.03816 18.4215 8.15646 18.2973 8.28067 18.1849C8.51726 17.972 8.77751 17.8005 9.08508 17.7236C9.54053 17.6112 9.88359 17.7236 10.1557 18.1317C10.1793 18.1731 10.1675 18.2382 10.1734 18.2914C10.1202 18.2441 10.061 18.1968 10.0078 18.1554C9.87767 18.0489 9.7298 17.9779 9.55827 17.972C9.24479 17.9602 8.96087 18.0607 8.70062 18.2264C8.31024 18.4807 7.99676 18.8119 7.70102 19.1609C7.6537 19.2141 7.60046 19.2674 7.55315 19.3206C7.54723 19.3088 7.54132 19.2969 7.5354 19.2851C7.64187 19.0958 7.74833 18.9125 7.84889 18.7173C7.87846 18.6581 7.89621 18.5931 7.91395 18.5339V18.5398Z" fill="#B8B7B7"/>
<path d="M23.5055 14.9495C23.4641 14.8786 23.4168 14.8135 23.3931 14.7425C23.3694 14.6775 23.4049 14.6242 23.47 14.5946C23.6297 14.5237 23.7953 14.5237 23.9609 14.5414C24.4045 14.6006 24.8127 14.7662 25.2149 14.9495C25.4101 15.0383 25.5993 15.1388 25.7886 15.2334C25.8004 15.2334 25.8063 15.2512 25.8182 15.2571C25.8063 15.2571 25.8004 15.2689 25.7709 15.2808H25.83C25.8832 15.3399 25.9246 15.3991 25.9838 15.4582C26.0725 15.5469 26.1671 15.6238 26.244 15.7244C26.1671 15.6771 26.0903 15.6297 26.0075 15.5883C25.7649 15.4641 25.5224 15.334 25.2681 15.2216C25.0315 15.1152 24.789 15.0146 24.5406 14.9318C24.2744 14.8431 23.9964 14.7721 23.7125 14.8253C23.6297 14.8431 23.541 14.8431 23.4996 14.9377L23.5055 14.9495Z" fill="#B8B7B7"/>
<path d="M20.069 17.5284C20.0276 17.4397 19.9802 17.3569 19.9447 17.2622C19.9388 17.2445 19.9743 17.2031 19.998 17.1912C20.134 17.138 20.276 17.1439 20.4179 17.1912C20.7314 17.3036 20.9798 17.5047 21.2283 17.7236C21.731 18.1731 22.1451 18.6995 22.5532 19.2319C22.6833 19.4034 22.8075 19.5749 22.9376 19.7464C22.9731 19.7997 23.0086 19.8588 23.05 19.9061C23.0737 19.9416 23.1092 19.9712 23.1388 20.0008C23.2156 20.0481 23.2156 20.0718 23.1565 20.1073C23.1565 20.1073 23.1565 20.1073 23.1565 20.1013C23.1565 20.1013 23.1624 20.1013 23.1683 20.1073C23.2038 20.1782 23.2334 20.2551 23.2689 20.3261C23.2689 20.3261 23.257 20.332 23.2511 20.3379C23.192 20.2551 23.1328 20.1723 23.0737 20.0895C22.7957 19.7169 22.5177 19.3442 22.2338 18.9716C21.9499 18.599 21.6246 18.2618 21.2815 17.9483C21.0804 17.7709 20.8615 17.6112 20.619 17.4988C20.483 17.4397 20.3351 17.4042 20.1873 17.4397C20.1518 17.4456 20.1222 17.487 20.0926 17.5166L20.069 17.5284Z" fill="#B6B6B6"/>
<path d="M9.90132 19.2673C10.2503 18.9657 10.5993 18.664 10.9956 18.4215C11.037 18.3978 11.0784 18.3801 11.1257 18.3683C11.2026 18.3387 11.2795 18.3742 11.309 18.457C11.3327 18.5339 11.3445 18.6167 11.3623 18.6936C11.2972 18.6285 11.2203 18.6463 11.1553 18.6877C10.9423 18.8296 10.7176 18.9598 10.5165 19.1195C10.1616 19.4152 9.82443 19.7287 9.47545 20.0363C9.44588 20.0599 9.4163 20.0836 9.38673 20.1131C9.36899 20.1131 9.35124 20.1131 9.3335 20.1131C9.46362 19.9357 9.59966 19.7642 9.72979 19.5867C9.78894 19.5039 9.854 19.4152 9.90723 19.3324C9.91906 19.3146 9.90723 19.291 9.90723 19.2673H9.90132Z" fill="#B8B7B7"/>
<path d="M14.4677 20.0067C14.4617 19.6459 14.444 19.291 14.4499 18.9302C14.4499 18.7942 14.4913 18.6522 14.5209 18.5162C14.5268 18.4807 14.5564 18.4334 14.5919 18.4215C14.7871 18.3269 14.9882 18.2618 15.207 18.3032C15.414 18.3387 15.5501 18.4748 15.6388 18.6522C15.6861 18.7409 15.7098 18.8474 15.7453 18.942C15.6979 18.877 15.6506 18.8119 15.5974 18.7587C15.4436 18.6049 15.2603 18.5517 15.0473 18.599C14.9645 18.6167 14.8876 18.6404 14.8048 18.664C14.651 18.6995 14.58 18.8297 14.5741 18.9834C14.5623 19.1727 14.5327 19.3679 14.5446 19.5572C14.5623 19.9476 14.5978 20.332 14.6274 20.7224C14.6274 20.7816 14.6274 20.8407 14.6215 20.9058C14.6155 20.8762 14.6037 20.8466 14.5919 20.8052C14.58 20.8289 14.58 20.8407 14.5623 20.8703C14.5386 20.7579 14.5209 20.6573 14.5032 20.5627C14.5032 20.4621 14.5032 20.3675 14.5032 20.267C14.5032 20.2374 14.5032 20.2019 14.5032 20.1723C14.4972 20.1191 14.4913 20.0599 14.4854 20.0067H14.4677Z" fill="#B8B7B7"/>
<path d="M18.5253 18.8415C18.5017 18.7646 18.4602 18.6936 18.4484 18.6167C18.4248 18.4452 18.3893 18.2736 18.3952 18.108C18.4011 17.8655 18.5371 17.7531 18.7737 17.7472C19.2351 17.7354 19.6077 17.9247 19.9153 18.2559C20.1519 18.5102 20.3116 18.8119 20.4535 19.1254C20.4595 19.1431 20.4535 19.1668 20.4595 19.1845C20.4121 19.1076 20.3589 19.0367 20.3116 18.9539C20.1401 18.664 19.933 18.4097 19.6432 18.2382C19.3889 18.0844 19.1168 18.0193 18.8211 18.0311C18.6318 18.0371 18.4839 18.2086 18.4839 18.4215C18.4839 18.5398 18.5076 18.664 18.5253 18.7823C18.5253 18.8001 18.5253 18.8237 18.5253 18.8415Z" fill="#B6B6B6"/>
<path d="M22.4941 16.4342C22.4645 16.3395 22.429 16.2449 22.4172 16.1503C22.4113 16.097 22.4645 16.0556 22.5178 16.0911C22.6242 16.1503 22.7307 16.2094 22.8253 16.2863C23.3813 16.7358 23.8782 17.2504 24.375 17.7591C24.4933 17.8833 24.6175 18.0075 24.7358 18.1258C24.7476 18.1376 24.7536 18.1554 24.7654 18.1731C24.7713 18.179 24.7831 18.1909 24.789 18.1968C24.789 18.1968 24.795 18.2027 24.8009 18.2086C24.8482 18.2796 24.9014 18.3565 24.9487 18.4275C25.0079 18.5221 25.073 18.6108 25.1321 18.7055C25.0907 18.6641 25.0493 18.6286 25.0079 18.5872C24.6057 18.179 24.2035 17.7591 23.7954 17.3569C23.47 17.0375 23.1447 16.7122 22.7662 16.446C22.7366 16.4283 22.707 16.4105 22.6775 16.3928C22.5828 16.3336 22.571 16.3395 22.5 16.4283L22.4941 16.4342Z" fill="#B6B6B6"/>
<path d="M15.7452 21.8344C15.8162 21.6037 15.899 21.379 15.964 21.1483C16.0587 20.7875 16.1592 20.4267 16.2302 20.06C16.3012 19.6932 16.3485 19.3147 16.2953 18.9421C16.2953 18.9125 16.2953 18.8829 16.2953 18.8533C16.3308 18.9598 16.384 19.0663 16.3899 19.1786C16.4017 19.4212 16.4077 19.6637 16.3899 19.9003C16.3781 20.0895 16.3367 20.2788 16.2953 20.4681C16.2539 20.6633 16.2125 20.8585 16.1651 21.0536C16.1237 21.2133 16.0764 21.373 16.0291 21.5268C15.97 21.7161 15.9108 21.9113 15.8457 22.1006C15.7866 22.278 15.7215 22.4555 15.6565 22.6329C15.6506 22.6329 15.6387 22.6329 15.6328 22.6329C15.6446 22.5619 15.6565 22.4969 15.6683 22.4259C15.6979 22.2544 15.7274 22.0769 15.757 21.9054C15.757 21.8876 15.7452 21.864 15.7393 21.8462L15.7452 21.8344Z" fill="#B8B7B7"/>
<path d="M11.392 19.6754C11.5931 19.2673 11.7705 18.8533 12.0603 18.4984C12.1077 18.4333 12.1786 18.386 12.2378 18.3328C12.2969 18.2855 12.3383 18.3209 12.3443 18.3801C12.3443 18.4629 12.3324 18.5457 12.3265 18.6285C12.155 18.7409 12.0426 18.9124 11.948 19.084C11.7646 19.4211 11.599 19.7642 11.4215 20.1013C11.392 20.1605 11.3565 20.2137 11.3269 20.2728C11.3506 20.1131 11.3801 19.9475 11.4038 19.7878C11.4038 19.7523 11.3979 19.7109 11.392 19.6754Z" fill="#B7B6B6"/>
<path d="M25.3155 14.5591C25.2741 14.4822 25.2209 14.4053 25.1913 14.3225C25.1617 14.2397 25.2268 14.1806 25.3155 14.2042C25.4397 14.2397 25.5639 14.2811 25.6763 14.3462C25.9543 14.5059 26.2264 14.6715 26.4985 14.8371C26.5103 14.843 26.5162 14.8608 26.5281 14.8667C26.5399 14.8785 26.5517 14.8963 26.5636 14.9081C26.5636 14.9081 26.599 14.9672 26.6286 14.9909C26.8475 15.1802 27.0604 15.3695 27.2792 15.5587C27.2792 15.5706 27.2674 15.5824 27.2615 15.5942C27.0486 15.4463 26.8356 15.2926 26.6168 15.1506C26.3033 14.9495 25.978 14.7602 25.6527 14.5769C25.5758 14.5355 25.4871 14.5118 25.4042 14.4822C25.3392 14.4586 25.3096 14.4822 25.3096 14.5473L25.3155 14.5591Z" fill="#B8B7B7"/>
<path d="M17.1292 18.4038C17.076 18.3032 17.0169 18.2027 16.9636 18.0903C17.0997 18.0548 17.2061 18.108 17.3008 18.1554C17.5728 18.2914 17.7917 18.4984 17.9987 18.7232C18.3122 19.0603 18.5784 19.427 18.8327 19.7997C18.8564 19.8352 18.88 19.8707 18.9037 19.9061C18.9392 19.9535 18.9747 19.9949 19.0102 20.0422C19.0102 20.0422 19.022 20.0718 19.0279 20.0895C19.0279 20.0895 19.0575 20.1191 19.0693 20.1309C19.087 20.1605 19.0989 20.1901 19.1166 20.2196C19.093 20.2019 19.0693 20.1782 19.0338 20.1546C19.0338 20.1782 19.0279 20.2019 19.0279 20.2255C18.9628 20.1309 18.8919 20.0363 18.8268 19.9476C18.6375 19.6932 18.4423 19.4389 18.2471 19.1905C18.0579 18.942 17.8272 18.7291 17.5728 18.5517C17.4605 18.4748 17.3244 18.4274 17.1943 18.3742C17.1825 18.3683 17.1529 18.3979 17.1292 18.4097V18.4038Z" fill="#B6B6B6"/>
<path d="M21.5831 16.9606C21.5476 16.8719 21.518 16.7772 21.4825 16.6885C21.4707 16.653 21.4707 16.6116 21.4648 16.5761C21.4411 16.4223 21.5358 16.3455 21.6836 16.3928C21.8788 16.4519 22.0445 16.5584 22.1923 16.6885C22.4644 16.9251 22.7247 17.1676 22.9908 17.4101C22.9908 17.4279 22.9908 17.4515 22.9908 17.4634C23.05 17.558 23.115 17.6526 23.1801 17.7473C23.186 17.7591 23.186 17.7709 23.1978 17.8123C23.0736 17.6881 22.9672 17.5817 22.8607 17.4811C22.6064 17.2386 22.352 17.002 22.0563 16.8186C21.9735 16.7654 21.8848 16.724 21.7901 16.6944C21.6008 16.6353 21.5239 16.7122 21.5594 16.9014C21.5594 16.9192 21.5654 16.9429 21.5713 16.9606H21.5831Z" fill="#B7B6B6"/>
<path d="M25.7235 13.9085C25.6939 13.8671 25.6643 13.8316 25.6348 13.7902C25.5519 13.6483 25.6052 13.5418 25.7767 13.5418C25.9305 13.5418 26.0902 13.5655 26.244 13.5832C26.315 13.5891 26.3859 13.6128 26.4569 13.6246C26.4747 13.6424 26.4865 13.6719 26.5042 13.6838C26.7408 13.808 26.9774 13.9263 27.2081 14.0623C27.1667 14.0564 27.1194 14.0564 27.078 14.0446C26.9183 14.0032 26.7586 13.9499 26.593 13.9144C26.3504 13.8612 26.1079 13.8139 25.8595 13.8376C25.8063 13.8376 25.7353 13.8257 25.7176 13.9085H25.7235Z" fill="#B8B7B7"/>
<path d="M23.4936 16.097C23.464 15.9905 23.4226 15.89 23.4108 15.7835C23.399 15.683 23.464 15.612 23.5646 15.6061C23.7775 15.5824 23.9727 15.6475 24.162 15.748C24.1561 15.748 24.1442 15.7598 24.1383 15.7598C24.1442 15.7598 24.1561 15.7598 24.162 15.7598C24.1797 15.7835 24.1916 15.8131 24.2093 15.8308C24.4045 15.9846 24.5997 16.1384 24.783 16.304C24.7002 16.2567 24.6233 16.2035 24.5346 16.168C24.3158 16.0733 24.1028 15.9728 23.8781 15.8959C23.7953 15.8663 23.6829 15.8959 23.5883 15.9077C23.5232 15.9195 23.4877 15.9728 23.4995 16.0438C23.4995 16.0556 23.4877 16.0733 23.4818 16.0911L23.4936 16.097Z" fill="#B8B7B7"/>
<path d="M16.2599 18.7113C16.2126 18.599 16.1653 18.4866 16.1121 18.3683C16.3901 18.5635 16.6385 18.7823 16.8632 19.0248C17.1708 19.3679 17.4133 19.7524 17.6026 20.1664C17.6322 20.2255 17.6499 20.2965 17.6736 20.3616C17.6263 20.2906 17.5789 20.2196 17.5375 20.1427C17.2773 19.64 16.9165 19.22 16.4847 18.8592C16.4137 18.8001 16.3368 18.7587 16.2599 18.7113Z" fill="#B4B3B3"/>
<path d="M25.5462 12.8971C25.4574 12.8261 25.3628 12.761 25.2859 12.6782C25.2445 12.6368 25.2623 12.5777 25.3332 12.5718C25.5462 12.5599 25.7473 12.6191 25.9425 12.7019C25.9602 12.7137 25.9779 12.7196 25.9957 12.7315C26.0371 12.7669 26.0785 12.8024 26.1258 12.832C26.2914 12.9444 26.457 13.0509 26.6227 13.1632C26.6286 13.1632 26.6345 13.181 26.6522 13.2046C26.528 13.1573 26.4156 13.11 26.3033 13.0745C26.0844 13.0035 25.8597 12.9385 25.6408 12.8734C25.6171 12.8675 25.5876 12.8852 25.558 12.8971H25.5462Z" fill="#B8B7B7"/>
<path d="M27.1667 10.8801C27.078 10.8624 26.9952 10.8506 26.8828 10.8269C26.9183 10.7973 26.9301 10.7796 26.9479 10.7678C27.4566 10.4424 27.8706 10.0166 28.2373 9.53748C28.3438 9.39552 28.4502 9.25357 28.5567 9.11753C28.5685 9.1057 28.5863 9.09978 28.5981 9.08795C28.5567 9.16484 28.5271 9.25357 28.4739 9.32454C28.1722 9.75633 27.8588 10.1822 27.4743 10.5548C27.3856 10.6436 27.2909 10.7264 27.2022 10.8092C27.1845 10.8269 27.1726 10.8624 27.1608 10.8861L27.1667 10.8801Z" fill="#B4B3B3"/>
<path d="M12.427 8.5556C12.3679 8.58518 12.3146 8.62658 12.2555 8.63841C11.8533 8.73305 11.4392 8.80994 11.037 8.91641C10.5579 9.04062 10.0847 9.1944 9.61156 9.33636C9.5879 9.34227 9.55833 9.34227 9.53467 9.34819C9.60565 9.3127 9.67071 9.2713 9.7476 9.24764C9.99011 9.16483 10.2385 9.08202 10.487 9.00513C10.6644 8.9519 10.8418 8.91049 11.0252 8.86317C11.2736 8.79811 11.522 8.73305 11.7705 8.6739C11.9124 8.63841 12.0544 8.62067 12.1963 8.59701C12.2732 8.58518 12.356 8.57335 12.4329 8.56152L12.427 8.5556Z" fill="#B5D8E9"/>
<path d="M25.2917 10.4779C25.2089 10.472 25.1202 10.4661 25.0374 10.4602C25.0374 10.4543 25.0374 10.4425 25.0315 10.4365C25.0966 10.3833 25.1557 10.3242 25.2208 10.2709C25.623 9.91604 25.966 9.51383 26.2618 9.07022C26.2736 9.05247 26.2914 9.04656 26.3091 9.03473C26.2854 9.08796 26.2736 9.14711 26.244 9.18851C25.9483 9.63213 25.6348 10.0639 25.2385 10.4365C25.2563 10.4543 25.2799 10.4661 25.2977 10.4839L25.2917 10.4779Z" fill="#B4B3B3"/>
<path d="M18.0934 22.2366C18.0993 22.0532 18.1112 21.864 18.1171 21.6806C18.1171 21.373 18.0638 21.0714 17.9988 20.7638C17.9988 20.7461 17.9988 20.7224 17.9988 20.7047C18.0106 20.7283 18.0343 20.7461 18.0402 20.7697C18.1703 21.2843 18.2531 21.8048 18.2176 22.3371C18.2058 22.4732 18.1762 22.6151 18.1526 22.7512C18.1407 22.7512 18.1289 22.7512 18.1171 22.7512C18.1171 22.6151 18.1171 22.4732 18.1171 22.3371C18.1171 22.3017 18.1052 22.2721 18.0993 22.2366H18.0934Z" fill="#B6B6B6"/>
<path d="M23.6533 9.71492C23.5528 9.75041 23.4522 9.7859 23.3576 9.82139C23.3576 9.81547 23.3458 9.80364 23.3398 9.79773C23.4108 9.73266 23.4877 9.66169 23.5587 9.59071C23.8958 9.25948 24.2212 8.91642 24.4873 8.52604C24.4932 8.51421 24.511 8.5083 24.5228 8.50238C24.5051 8.5497 24.4873 8.60293 24.4577 8.65025C24.2271 8.99331 23.9846 9.33046 23.6888 9.62028C23.6652 9.64394 23.6592 9.68535 23.6474 9.72083L23.6533 9.71492Z" fill="#B4B3B3"/>
<path d="M20.9562 21.1896C21.0804 20.9057 21.039 20.6159 20.9976 20.3261C20.9739 20.1427 20.9266 19.9653 20.8911 19.7819C20.9207 19.8706 20.9621 19.9653 20.9858 20.054C21.0212 20.19 21.0567 20.332 21.0745 20.468C21.1159 20.7697 21.1928 21.0714 21.0922 21.373C21.0804 21.4144 21.0567 21.4558 21.039 21.4913C21.0331 21.4913 21.0272 21.4913 21.0153 21.4913C21.0035 21.4085 20.9976 21.3198 20.9858 21.237C20.9858 21.2192 20.9621 21.2015 20.9503 21.1896H20.9562Z" fill="#B8B7B7"/>
<path d="M24.4283 10.2058C24.3455 10.2354 24.2627 10.265 24.1621 10.3004C24.2627 10.1881 24.3514 10.0934 24.4401 10.0047C24.7358 9.70896 24.9961 9.37773 25.2327 9.02876C25.2445 9.01101 25.2682 8.99327 25.2859 8.97552C25.2623 9.02284 25.2445 9.07608 25.2209 9.1234C24.9902 9.49011 24.7418 9.845 24.446 10.1703C24.4401 10.1821 24.4401 10.194 24.4342 10.2117L24.4283 10.2058Z" fill="#B4B3B3"/>
<path d="M21.9914 9.91007C21.9559 9.89824 21.9145 9.89232 21.8672 9.88049C21.9441 9.78586 22.0151 9.70305 22.0919 9.61433C22.4232 9.22395 22.7248 8.80991 22.9969 8.37813C23.0087 8.36038 23.0265 8.34264 23.0442 8.33081C23.0087 8.40179 22.9792 8.47277 22.9378 8.53783C22.6893 8.89863 22.4409 9.25352 22.1925 9.60841C22.1807 9.63207 22.1688 9.65573 22.157 9.67939C22.1038 9.75628 22.0446 9.83318 21.9914 9.91007Z" fill="#9BADB5"/>
<path d="M20.6072 8.92234C20.548 8.92234 20.483 8.91642 20.4238 8.91051C20.4238 8.90459 20.4238 8.89276 20.4238 8.88685C20.6604 8.70349 20.8497 8.48464 21.0271 8.25396C21.175 8.06469 21.3051 7.86358 21.4412 7.66248C21.4589 7.63882 21.4826 7.62108 21.5003 7.60333C21.4353 7.71571 21.3761 7.83993 21.2992 7.94639C21.0804 8.25396 20.8556 8.56153 20.6308 8.86319C20.619 8.88094 20.619 8.89868 20.6131 8.91642L20.6072 8.92234Z" fill="#B4B3B3"/>
<path d="M21.9912 9.91012C22.0444 9.83323 22.1036 9.75634 22.1568 9.67944C22.2396 9.73268 22.3165 9.79182 22.3993 9.84506C22.3461 9.8628 22.2929 9.87463 22.2396 9.89238C22.2219 9.89238 22.1982 9.90421 22.1805 9.91012C22.1154 9.91012 22.0563 9.91012 21.9912 9.91012Z" fill="#BAE5FA"/>
<path d="M12.6932 8.11792C12.6577 8.26579 12.5926 8.39592 12.4802 8.50238C12.5275 8.32494 12.5749 8.14749 12.6222 7.98779C12.6399 8.02328 12.6695 8.0706 12.6932 8.11792Z" fill="#B8B7B7"/>
<path d="M21.5537 9.3482C21.4531 9.40144 21.3112 9.38369 21.2402 9.3068C21.2225 9.28906 21.2225 9.24765 21.2166 9.21808C21.2994 9.25357 21.3822 9.28906 21.465 9.31863C21.4946 9.33046 21.5241 9.33638 21.5537 9.34229V9.3482Z" fill="#B5D8E9"/>
<path d="M14.172 8.33081C14.0537 8.43728 13.9117 8.44319 13.823 8.34856C13.9413 8.34856 14.0537 8.33673 14.172 8.33081Z" fill="#B5D8E9"/>
<path d="M23.1329 20.0126C23.1033 19.9831 23.0678 19.9535 23.0441 19.918C23.0027 19.8648 22.9732 19.8115 22.9318 19.7583C22.9318 19.7169 22.9258 19.6814 22.9199 19.64C22.9909 19.7642 23.0619 19.8884 23.1269 20.0126H23.1329Z" fill="#6D6C6C"/>
<path d="M19.022 20.2197C19.022 20.2197 19.022 20.1783 19.0279 20.1487C19.0575 20.1723 19.0871 20.196 19.1108 20.2137C19.1285 20.2374 19.1522 20.2551 19.1522 20.2788C19.164 20.338 19.1581 20.3971 19.164 20.4917C19.1167 20.4089 19.0871 20.3439 19.0516 20.2847C19.0398 20.2611 19.0279 20.2374 19.0161 20.2137L19.022 20.2197Z" fill="#D5D4D4"/>
<path d="M27.2733 15.3458C27.3621 15.4168 27.4508 15.4819 27.5395 15.5528C27.5336 15.5647 27.5218 15.5765 27.5158 15.5883C27.4212 15.5174 27.3266 15.4464 27.2319 15.3695C27.2438 15.3636 27.2615 15.3517 27.2733 15.3458Z" fill="#8CA7B4"/>
<path d="M19.8856 8.71529C19.7969 8.77444 19.7023 8.79809 19.584 8.76261C19.6017 8.72712 19.6195 8.69754 19.6313 8.66797C19.7082 8.72712 19.7969 8.72712 19.8856 8.71529Z" fill="#B5D8E9"/>
<path d="M11.3032 21.6747C11.2914 21.7102 11.2855 21.7397 11.2736 21.7752C11.2855 21.7752 11.2973 21.7752 11.3032 21.7811L11.1731 22.0414C11.1731 22.0414 11.1553 22.0355 11.1494 22.0296C11.2026 21.9113 11.2559 21.793 11.3032 21.6747Z" fill="#6D6C6C"/>
<path d="M27.2673 15.606C27.2673 15.606 27.2792 15.5824 27.2851 15.5706C27.3679 15.6415 27.4507 15.7125 27.5394 15.7776C27.5394 15.7776 27.5394 15.7776 27.5394 15.7835C27.4507 15.7243 27.362 15.6652 27.2733 15.606H27.2673Z" fill="#D5D4D4"/>
<path d="M20.1991 7.48502C20.1991 7.48502 20.1695 7.45544 20.1577 7.44361C20.1991 7.38447 20.2346 7.3194 20.276 7.26025C20.2878 7.27208 20.2997 7.28391 20.3056 7.28983C20.2701 7.35489 20.2346 7.41995 20.1991 7.4791V7.48502Z" fill="#6D6C6C"/>
<path d="M9.25085 19.7997C9.25085 19.7997 9.25085 19.8352 9.25085 19.8588C9.18579 19.9239 9.12073 19.983 9.05566 20.0481C9.12073 19.9653 9.17988 19.8825 9.24494 19.7997H9.25085Z" fill="#8CA7B4"/>
<path d="M20.3057 7.29575C20.3057 7.29575 20.282 7.27209 20.2761 7.26617C20.3294 7.17745 20.3826 7.08873 20.4358 7.00592C20.4417 7.00592 20.4536 7.01184 20.4595 7.01775C20.4063 7.11239 20.3589 7.20702 20.3057 7.30166V7.29575Z" fill="#B8B7B7"/>
<path d="M24.9487 18.4334C24.9013 18.3624 24.8481 18.2855 24.8008 18.2145C24.8599 18.2678 24.9132 18.3151 24.9723 18.3683C24.9723 18.3802 24.9723 18.3979 24.9723 18.4097C24.9605 18.4156 24.9546 18.4275 24.9427 18.4334H24.9487Z" fill="#D5D4D4"/>
<path d="M5.23471 18.7764C5.23471 18.7764 5.26428 18.7942 5.27611 18.8001C5.21696 18.8474 5.15781 18.8947 5.09275 18.948C5.08684 18.942 5.08092 18.9302 5.06909 18.9243C5.12233 18.877 5.17556 18.8237 5.22879 18.7764H5.23471Z" fill="#6D6C6C"/>
<path d="M23.5174 7.50276C23.5174 7.50276 23.5174 7.44361 23.5174 7.41403C23.5647 7.3608 23.612 7.30757 23.6534 7.25433C23.6061 7.33714 23.5588 7.41995 23.5115 7.49684L23.5174 7.50276Z" fill="#6D6C6C"/>
<path d="M14.4912 20.267C14.4912 20.3675 14.4912 20.4622 14.4912 20.5627C14.4794 20.4976 14.4735 20.4267 14.4617 20.3616C14.4735 20.332 14.4794 20.2965 14.4912 20.267Z" fill="#6D6C6C"/>
<path d="M27.2732 15.3458C27.2732 15.3458 27.2437 15.3636 27.2318 15.3695C27.1727 15.3281 27.1195 15.2808 27.0603 15.2394C27.084 15.2394 27.1076 15.2394 27.1313 15.2394C27.1786 15.2749 27.2259 15.3104 27.2732 15.3458Z" fill="#6D6C6C"/>
<path d="M29.8639 9.5138C29.8639 9.5138 29.8521 9.47831 29.8462 9.46056C29.8876 9.41325 29.929 9.37184 29.9704 9.32452C29.9822 9.33044 29.9881 9.34227 30 9.34818C29.9527 9.40142 29.9113 9.45465 29.8639 9.50788V9.5138Z" fill="#6D6C6C"/>
<path d="M24.9783 18.4097C24.9783 18.4097 24.9783 18.3801 24.9783 18.3683C24.9783 18.3505 24.9783 18.3328 24.9783 18.3091C25.0256 18.3683 25.0788 18.4215 25.1261 18.4807C25.1143 18.4925 25.1025 18.4984 25.0966 18.5102C25.0611 18.4748 25.0197 18.4452 24.9842 18.4097H24.9783Z" fill="#6D6C6C"/>
<path d="M5.27016 19.1313C5.27016 19.1313 5.28791 19.1431 5.29382 19.1549C5.23467 19.2082 5.18144 19.2614 5.12229 19.3146C5.11638 19.3087 5.10455 19.2969 5.09863 19.291C5.15778 19.2378 5.21101 19.1904 5.27016 19.1372V19.1313Z" fill="#D5D4D4"/>
<path d="M11.3565 22.0591C11.3565 22.0591 11.3565 22.1183 11.3565 22.1479C11.3328 22.2011 11.3091 22.2543 11.2796 22.3076C11.2677 22.3076 11.2618 22.3017 11.25 22.2957C11.2796 22.2188 11.2855 22.1301 11.3506 22.0591H11.3565Z" fill="#D5D4D4"/>
<path d="M15.8696 7.33123C15.8696 7.33123 15.8577 7.28391 15.8518 7.26025C15.8814 7.21293 15.905 7.17153 15.9346 7.12421C15.9464 7.12421 15.9524 7.13604 15.9642 7.13604C15.9346 7.2011 15.8991 7.26616 15.8696 7.33123Z" fill="#6D6C6C"/>
<path d="M25.0906 18.5102C25.0906 18.5102 25.1142 18.4925 25.1202 18.4807C25.1616 18.5398 25.203 18.593 25.2444 18.6522C25.2444 18.6522 25.2384 18.6581 25.2325 18.664L25.0906 18.5102Z" fill="#8CA7B4"/>
<path d="M25.2859 18.8888C25.2326 18.8356 25.1794 18.7823 25.1321 18.7291C25.138 18.7232 25.1439 18.7173 25.1557 18.7114C25.2031 18.7705 25.2504 18.8297 25.2918 18.8888H25.2859Z" fill="#D5D4D4"/>
<path d="M9.32758 20.1132C9.32758 20.1132 9.36307 20.1132 9.38081 20.1132C9.32758 20.1664 9.28026 20.2196 9.22703 20.2788C9.22111 20.2729 9.20928 20.261 9.20337 20.2551C9.24477 20.2078 9.28618 20.1605 9.32758 20.1132Z" fill="#D5D4D4"/>
<path d="M19.0103 20.0422C18.9748 19.9949 18.9393 19.9535 18.9038 19.9061C18.9097 19.8884 18.9156 19.8706 18.9216 19.8529C18.9511 19.918 18.9807 19.9771 19.0103 20.0422Z" fill="#6D6C6C"/>
<path d="M25.15 16.3099C25.2269 16.3395 25.2978 16.375 25.3392 16.446C25.3392 16.4519 25.3274 16.4578 25.3215 16.4696C25.2623 16.4164 25.2032 16.3691 25.144 16.3159L25.15 16.3099Z" fill="#D5D4D4"/>
<path d="M28.604 9.082C28.6395 9.02877 28.675 8.97554 28.7046 8.9223C28.6691 8.97554 28.6336 9.02877 28.604 9.082Z" fill="#B4B3B3"/>
<path d="M9.52874 9.34821C9.46368 9.37186 9.3927 9.38961 9.32764 9.41327C9.3927 9.38961 9.46368 9.37186 9.52874 9.34821Z" fill="#B5D8E9"/>
<path d="M17.9929 20.6751C17.9751 20.6159 17.9633 20.5568 17.9456 20.4976C17.9633 20.5568 17.9751 20.6159 17.9929 20.6751Z" fill="#B6B6B6"/>
<path d="M27.6518 15.89C27.6104 15.8545 27.569 15.8249 27.5276 15.7894C27.5276 15.7894 27.5276 15.7894 27.5276 15.7835C27.569 15.819 27.6045 15.8545 27.6459 15.89H27.6518Z" fill="#E6F3F9"/>
<path d="M20.909 21.0714C20.9267 21.1068 20.9386 21.1482 20.9563 21.1837C20.9149 21.2192 20.909 21.2192 20.9031 21.1778C20.9031 21.1423 20.9031 21.1068 20.9031 21.0714H20.909Z" fill="#B8B7B7"/>
<path d="M25.5521 10.4661C25.5048 10.4661 25.4575 10.472 25.4102 10.4779C25.4575 10.4779 25.5048 10.472 25.5521 10.4661Z" fill="#B4B3B3"/>
<path d="M18.7027 19.362C18.685 19.3147 18.6613 19.2614 18.6436 19.2141C18.6613 19.2614 18.685 19.3147 18.7027 19.362Z" fill="#6D6C6C"/>
<path d="M0.798395 16.653C0.745161 16.6826 0.697842 16.6766 0.662354 16.6293C0.691928 16.6293 0.727417 16.6234 0.756991 16.6175C0.76882 16.6293 0.786565 16.6412 0.798395 16.6589V16.653Z" fill="#D5D4D4"/>
<path d="M19.9685 7.69202C19.939 7.72159 19.9153 7.75116 19.8857 7.78665C19.9153 7.75708 19.939 7.72751 19.9685 7.69202Z" fill="#6D6C6C"/>
<path d="M23.0796 8.27761C23.1032 8.24212 23.121 8.20663 23.1447 8.17114C23.121 8.20663 23.1032 8.24212 23.0796 8.27761Z" fill="#9BADB5"/>
<path d="M28.7104 8.91049C28.7282 8.88092 28.7519 8.84543 28.7696 8.81586C28.7519 8.84543 28.7282 8.88092 28.7104 8.91049Z" fill="#B4B3B3"/>
<path d="M15.7986 7.62697C15.8045 7.59149 15.8104 7.556 15.8163 7.52051C15.8104 7.556 15.8045 7.59149 15.7986 7.62697Z" fill="#6D6C6C"/>
<path d="M9.31592 9.41919C9.27451 9.43693 9.22719 9.45468 9.18579 9.47242C9.22719 9.45468 9.27451 9.43693 9.31592 9.41919Z" fill="#B5D8E9"/>
<path d="M25.061 16.2567C25.061 16.2567 25.1202 16.2922 25.1498 16.3099C25.1202 16.2922 25.0906 16.2745 25.061 16.2567Z" fill="#D5D4D4"/>
<path d="M27.7406 15.9432C27.7406 15.9432 27.6814 15.9078 27.6519 15.89C27.6814 15.9078 27.711 15.9255 27.7406 15.9432Z" fill="#E6F3F9"/>
<path d="M7.52361 19.362C7.52361 19.362 7.4763 19.4093 7.45264 19.433C7.47038 19.4093 7.48813 19.3857 7.49996 19.362C7.50587 19.362 7.51178 19.362 7.52361 19.362Z" fill="#D5D4D4"/>
<path d="M17.6973 20.4266C17.715 20.4621 17.7268 20.4976 17.7446 20.539C17.7268 20.5035 17.715 20.468 17.6973 20.4266Z" fill="#B4B3B3"/>
<path d="M20.8792 19.6991C20.8674 19.6636 20.8556 19.6222 20.8438 19.5867C20.8556 19.6222 20.8674 19.6636 20.8792 19.6991Z" fill="#B8B7B7"/>
<path d="M15.8223 7.49092C15.8341 7.45543 15.8459 7.41403 15.8637 7.37854C15.8518 7.41403 15.84 7.45543 15.8223 7.49092Z" fill="#6D6C6C"/>
<path d="M7.39355 19.5217C7.4113 19.4921 7.42904 19.4626 7.44679 19.433C7.42904 19.4626 7.4113 19.4921 7.39355 19.5158V19.5217Z" fill="#D5D4D4"/>
<path d="M20.1578 7.4436C20.1578 7.4436 20.1223 7.49684 20.0986 7.5205C20.1164 7.49684 20.1341 7.46726 20.1578 7.4436Z" fill="#6D6C6C"/>
<path d="M28.7815 8.80399L28.8288 8.71527C28.8111 8.74485 28.7933 8.77442 28.7815 8.80399Z" fill="#B4B3B3"/>
<path d="M18.7914 19.5749C18.7796 19.5453 18.7618 19.5099 18.75 19.4803C18.7618 19.5099 18.7796 19.5453 18.7914 19.5749Z" fill="#6D6C6C"/>
<path d="M25.2859 8.97556C25.2859 8.97556 25.3214 8.91641 25.3391 8.88684C25.3214 8.91641 25.3036 8.94599 25.2859 8.97556Z" fill="#B4B3B3"/>
<path d="M26.3032 9.0288C26.3032 9.0288 26.3387 8.98148 26.3505 8.95782C26.3328 8.98148 26.3151 9.00514 26.3032 9.0288Z" fill="#B4B3B3"/>
<path d="M25.7294 10.4365C25.6998 10.4424 25.6643 10.4543 25.6348 10.4602C25.6643 10.4543 25.6998 10.4424 25.7294 10.4365Z" fill="#B4B3B3"/>
<path d="M20.4712 19.1964C20.4889 19.2259 20.5008 19.2614 20.5185 19.291C20.5008 19.2614 20.4889 19.2259 20.4712 19.1964Z" fill="#B6B6B6"/>
<path d="M22.7249 19.291C22.7071 19.2614 22.6894 19.2318 22.6716 19.2023C22.6894 19.2318 22.7071 19.2614 22.7249 19.291Z" fill="#6D6C6C"/>
<path d="M18.8623 19.7287C18.8445 19.6992 18.8327 19.6637 18.8149 19.6341C18.8327 19.6637 18.8445 19.6992 18.8623 19.7287Z" fill="#6D6C6C"/>
<path d="M26.3564 8.94006C26.3564 8.94006 26.3919 8.89274 26.4097 8.86908C26.3919 8.89274 26.3742 8.9164 26.3564 8.94006Z" fill="#B4B3B3"/>
<path d="M15.828 7.91087L15.7925 7.82214C15.8043 7.85172 15.8161 7.88129 15.828 7.91087Z" fill="#6D6C6C"/>
<path d="M23.2748 20.3616C23.2748 20.3616 23.2985 20.3911 23.3103 20.4089C23.3044 20.4089 23.2985 20.4148 23.2926 20.4207C23.2807 20.403 23.2689 20.3852 23.2571 20.3734C23.263 20.3734 23.2689 20.3675 23.2748 20.3616Z" fill="#B6B6B6"/>
<path d="M23.1506 8.15337C23.1506 8.15337 23.1802 8.10014 23.192 8.07648C23.1802 8.10014 23.1625 8.12971 23.1506 8.15337Z" fill="#9BADB5"/>
<path d="M22.778 19.3797C22.778 19.3797 22.7485 19.3265 22.7307 19.3029C22.7485 19.3265 22.7603 19.3561 22.778 19.3797Z" fill="#6D6C6C"/>
<path d="M25.0612 16.2567C25.0612 16.2567 25.0198 16.239 24.9961 16.2272C24.9961 16.2212 25.0079 16.2094 25.0138 16.2035C25.0316 16.2212 25.0493 16.239 25.0671 16.2508L25.0612 16.2567Z" fill="#D5D4D4"/>
<path d="M22.8254 19.4684C22.8254 19.4684 22.7958 19.4152 22.7781 19.3915C22.7958 19.4152 22.8077 19.4448 22.8254 19.4684Z" fill="#6D6C6C"/>
<path d="M19.022 20.2197C19.022 20.2197 19.0456 20.267 19.0575 20.2906C19.0456 20.267 19.0338 20.2433 19.022 20.2197Z" fill="#B6B6B6"/>
<path d="M7.39357 19.5217C7.39357 19.5217 7.37582 19.5572 7.36399 19.5749C7.35808 19.5749 7.35216 19.5631 7.34033 19.5572C7.35808 19.5453 7.36991 19.5335 7.38765 19.5276L7.39357 19.5217Z" fill="#D5D4D4"/>
<path d="M25.2917 18.8829L25.345 18.9124C25.345 18.9124 25.3332 18.9243 25.3272 18.9361C25.3154 18.9184 25.3036 18.9006 25.2917 18.8888V18.8829Z" fill="#D5D4D4"/>
<path d="M27.7463 15.9432C27.7463 15.9432 27.7818 15.961 27.7996 15.9728C27.7937 15.9787 27.7877 15.9846 27.7818 15.9965C27.77 15.9787 27.7582 15.9669 27.7463 15.9492V15.9432Z" fill="#E6F3F9"/>
<path d="M9.17389 9.47241C9.17389 9.47241 9.13249 9.49016 9.11475 9.50199C9.13249 9.49016 9.15615 9.48424 9.17389 9.47241Z" fill="#B5D8E9"/>
<path d="M7.53551 19.291C7.53551 19.291 7.54734 19.3147 7.55326 19.3265C7.54143 19.3383 7.5296 19.3502 7.52368 19.3679C7.52368 19.3502 7.52368 19.3324 7.52368 19.3147C7.52368 19.3147 7.53551 19.3028 7.54143 19.2969L7.53551 19.291Z" fill="#D5D4D4"/>
<path d="M17.9338 20.4385C17.9338 20.4385 17.9161 20.3971 17.9102 20.3793C17.9161 20.3971 17.9279 20.4207 17.9338 20.4385Z" fill="#B6B6B6"/>
<path d="M27.5926 10.8683C27.5926 10.8683 27.5512 10.8742 27.5334 10.8801C27.5512 10.8801 27.5749 10.8742 27.5926 10.8683Z" fill="#B4B3B3"/>
<path d="M23.0442 8.33082C23.0442 8.33082 23.0678 8.29533 23.0797 8.27759C23.0678 8.29533 23.056 8.31308 23.0442 8.33082Z" fill="#9BADB5"/>
<path d="M18.7381 19.4507C18.7381 19.4507 18.7203 19.4152 18.7085 19.3915C18.7203 19.4093 18.7262 19.427 18.7381 19.4507Z" fill="#6D6C6C"/>
<path d="M15.8695 7.95821C15.8695 7.95821 15.8458 7.92272 15.834 7.91089C15.8458 7.92863 15.8576 7.94638 15.8695 7.95821Z" fill="#6D6C6C"/>
<path d="M20.0631 7.57965C20.0631 7.57965 20.0394 7.60922 20.0276 7.62697C20.0394 7.60922 20.0512 7.5974 20.0631 7.57965Z" fill="#6D6C6C"/>
<path d="M22.9141 19.6281C22.9141 19.6281 22.8964 19.5986 22.8845 19.5867C22.8964 19.5986 22.9023 19.6163 22.9141 19.6281Z" fill="#6D6C6C"/>
<path d="M14.2193 8.29535C14.2193 8.29535 14.1957 8.31309 14.1838 8.32492C14.1957 8.31309 14.2075 8.30718 14.2193 8.29535Z" fill="#B5D8E9"/>
<path d="M19.868 7.8103C19.868 7.8103 19.8502 7.83396 19.8384 7.83988C19.8502 7.82805 19.8561 7.81622 19.868 7.8103Z" fill="#6D6C6C"/>
<path d="M27.1136 15.2216C27.1136 15.2216 27.09 15.1979 27.0781 15.1861C27.09 15.1979 27.1018 15.2098 27.1136 15.2216Z" fill="#6D6C6C"/>
<path d="M25.2445 18.6522C25.2445 18.6522 25.2563 18.6759 25.2682 18.6818C25.2622 18.6818 25.2563 18.6877 25.2445 18.6936C25.2445 18.6818 25.2386 18.6759 25.2327 18.6641C25.2327 18.6641 25.2386 18.6581 25.2445 18.6522Z" fill="#8CA7B4"/>
<path d="M20.0276 7.62695C20.0276 7.62695 20.004 7.65061 19.998 7.66244C20.0099 7.65061 20.0217 7.63878 20.0276 7.62695Z" fill="#6D6C6C"/>
<path d="M16.2836 18.7882C16.2836 18.7882 16.2718 18.7587 16.2659 18.7468C16.2659 18.7587 16.2777 18.7764 16.2836 18.7882Z" fill="#B4B3B3"/>
<path d="M6.19871 17.4988C6.19871 17.4988 6.18096 17.5284 6.17505 17.5402C6.18096 17.5284 6.19279 17.5107 6.19871 17.4988Z" fill="#B7B6B6"/>
<path d="M20.0926 7.53827C20.0926 7.53827 20.0748 7.56193 20.063 7.57967C20.0748 7.56784 20.0807 7.55601 20.0926 7.53827Z" fill="#6D6C6C"/>
<path d="M9.37503 19.64C9.37503 19.64 9.35729 19.6637 9.34546 19.6755C9.35729 19.6637 9.3632 19.6518 9.37503 19.64Z" fill="#8CA7B4"/>
<path d="M22.8608 19.5217C22.8608 19.5217 22.8431 19.498 22.8372 19.4803C22.8431 19.4921 22.8549 19.5039 22.8608 19.5217Z" fill="#6D6C6C"/>
<path d="M0 16.1325C0 16.1325 0.0177445 16.1325 0.0295741 16.1384C0.0295741 16.1384 0.0295741 16.1443 0.0295741 16.1503C0.0177445 16.1503 0.0118297 16.1503 0 16.1503V16.1384V16.1325Z" fill="#3A3838"/>
<path d="M18.8802 19.7819C18.8802 19.7819 18.8743 19.7583 18.8684 19.7465C18.8684 19.7583 18.8743 19.7701 18.8802 19.7819Z" fill="#6D6C6C"/>
<path d="M28.8347 8.69753C28.8347 8.69753 28.8525 8.66796 28.8643 8.65613C28.8525 8.66796 28.8465 8.6857 28.8347 8.69753Z" fill="#B4B3B3"/>
<path d="M15.627 22.7157V22.6743C15.627 22.6743 15.627 22.6743 15.6329 22.6743V22.7157C15.6329 22.7157 15.6329 22.7157 15.627 22.7157Z" fill="#B8B7B7"/>
<path d="M11.3268 20.2729C11.3268 20.2729 11.3268 20.2965 11.3268 20.3084H11.3149C11.3149 20.3084 11.3268 20.2847 11.3268 20.2729Z" fill="#B7B6B6"/>
<path d="M7.5178 19.3088C7.5178 19.3088 7.5178 19.3443 7.5178 19.362C7.51189 19.362 7.50597 19.362 7.49414 19.362C7.50006 19.3443 7.50597 19.3265 7.5178 19.3088Z" fill="#B8B7B7"/>
<path d="M19.0695 20.1309C19.0695 20.1309 19.0399 20.1014 19.0281 20.0836C19.0399 20.1014 19.0577 20.1132 19.0695 20.1309Z" fill="#6D6C6C"/>
<path d="M9.09701 9.50195C9.09701 9.50195 9.07335 9.51378 9.06152 9.5197C9.07335 9.5197 9.08518 9.50787 9.09701 9.50195Z" fill="#B5D8E9"/>
<path d="M23.3162 20.4622V20.4681V20.474L23.3103 20.4681L23.3162 20.4622Z" fill="#B6B6B6"/>
<path d="M19.028 20.0895C19.028 20.0895 19.0162 20.0599 19.0103 20.0422C19.0162 20.0599 19.0221 20.0717 19.028 20.0895Z" fill="#6D6C6C"/>
<path d="M11.1436 22.0769L11.1377 22.0828H11.1436V22.0769Z" fill="#6D6C6C"/>
<path d="M25.1499 18.7114C25.1499 18.7114 25.1381 18.7232 25.1262 18.7291C25.1262 18.7291 25.1262 18.7173 25.1262 18.7114C25.1321 18.7114 25.138 18.7114 25.144 18.7114H25.1499Z" fill="#B6B6B6"/>
<path d="M9.06158 20.0422L9.05566 20.0481H9.06158V20.0422Z" fill="#8CA7B4"/>
<path d="M18.9156 19.8529C18.9156 19.8529 18.9038 19.8411 18.9038 19.8351C18.9038 19.8411 18.9156 19.847 18.9156 19.8529Z" fill="#6D6C6C"/>
<path d="M9.25681 10.4661C9.25681 10.5016 9.24498 10.5371 9.23906 10.5725C9.19766 10.7677 9.13851 10.9629 9.12077 11.1581C9.10302 11.371 9.09711 11.584 9.12077 11.7969C9.16217 12.1281 9.22132 12.4535 9.30413 12.7729C9.35736 12.9858 9.452 13.1928 9.5348 13.3998C9.66493 13.7133 9.83646 14.0091 10.0376 14.2871C10.4753 14.8904 11.0194 15.3754 11.6641 15.748C11.7943 15.8249 11.9362 15.8781 12.0663 15.9432C12.0841 15.955 12.0959 15.9669 12.1137 15.9728C12.3384 16.0615 12.5632 16.1443 12.788 16.233C12.788 16.233 12.8057 16.2153 12.8116 16.2094C12.8708 16.2271 12.924 16.2449 12.9831 16.2626C13.0896 16.2863 13.1961 16.3099 13.3025 16.3277C13.3085 16.3395 13.3144 16.3632 13.3262 16.3632C13.3913 16.375 13.4563 16.3927 13.5214 16.3927C13.8171 16.4105 14.1129 16.4223 14.4086 16.4282C14.5092 16.4282 14.6097 16.4164 14.7103 16.3986C14.8818 16.3691 15.0593 16.3454 15.2308 16.304C15.3787 16.2685 15.5265 16.2271 15.6685 16.1798C15.704 16.168 15.7276 16.1325 15.7572 16.1088C15.7572 16.1088 15.7572 16.1029 15.769 16.1088C15.8104 16.1798 15.8459 16.1088 15.8755 16.1029C15.9346 16.0852 15.982 16.0438 16.0352 16.0142C16.0352 16.0142 16.0352 16.0083 16.047 16.0142C16.1062 16.0497 16.1357 16.0142 16.1535 15.9669C16.1535 15.9669 16.1653 15.961 16.1712 15.955C16.1772 15.955 16.189 15.955 16.1949 15.955C16.2304 15.9373 16.26 15.9195 16.2954 15.9018C16.3783 15.8545 16.467 15.8131 16.5498 15.7658C17.1413 15.4227 17.6559 14.9909 18.0758 14.4468C18.1586 14.3344 18.2296 14.2102 18.3065 14.0919C18.3242 14.0564 18.342 14.0209 18.3597 13.9854C18.3952 13.9263 18.4307 13.8671 18.4662 13.808C18.4839 13.7902 18.5076 13.7784 18.5194 13.7606C18.6377 13.4886 18.7678 13.2165 18.8684 12.9385C18.9926 12.6013 19.0636 12.2464 19.0991 11.8916C19.1227 11.7082 19.1405 11.5248 19.1641 11.3356C19.1641 11.2173 19.1641 11.093 19.1641 10.9748C19.1641 10.9452 19.1582 10.9156 19.1523 10.886C19.1523 10.8624 19.1523 10.8387 19.1523 10.8151C19.1464 10.7914 19.1346 10.7618 19.1287 10.7382C19.105 10.6317 19.0754 10.5252 19.0518 10.4188C19.0281 10.336 19.0104 10.2472 18.9867 10.1644C18.9571 10.0757 18.9275 9.98698 18.898 9.89825C18.9335 9.89825 18.969 9.89825 19.0044 9.91008C19.2706 9.97515 19.5309 10.0402 19.797 10.1053C19.8798 10.123 19.9626 10.1408 20.0395 10.1585C20.0691 10.2472 20.1046 10.336 20.1283 10.4188C20.2406 10.8624 20.3175 11.306 20.3057 11.7673C20.2998 12.0867 20.2998 12.4002 20.2288 12.7137C20.1874 12.9148 20.146 13.1159 20.0809 13.3111C20.01 13.5181 19.9272 13.7251 19.8325 13.9263C19.732 14.1392 19.6255 14.3462 19.5013 14.5414C19.4007 14.707 19.2884 14.8726 19.1582 15.0205C18.963 15.2512 18.756 15.4759 18.5372 15.683C18.3361 15.8722 18.1172 16.0438 17.8865 16.2035C17.6322 16.375 17.366 16.5229 17.0999 16.6648C16.9165 16.7595 16.7272 16.8304 16.532 16.9073C16.396 16.9606 16.26 17.0138 16.118 17.0552C15.9583 17.1025 15.7868 17.138 15.6271 17.1735C15.491 17.2031 15.355 17.2386 15.219 17.2622C15.0888 17.2859 14.9528 17.3095 14.8227 17.3095C14.4323 17.3214 14.0478 17.3391 13.6574 17.3273C13.4208 17.3214 13.1843 17.2681 12.9417 17.2326C12.8234 17.2149 12.6992 17.1972 12.5809 17.1735C12.4745 17.1498 12.3739 17.1262 12.2734 17.0966C12.1314 17.0552 11.9954 17.0079 11.8593 16.9606C11.7588 16.9251 11.6523 16.8837 11.5577 16.8423C11.3861 16.7654 11.2205 16.6826 11.049 16.5998C10.7237 16.4401 10.4161 16.2508 10.1322 16.0201C9.91927 15.8486 9.70633 15.683 9.51706 15.4937C9.19174 15.1624 8.89009 14.8016 8.66532 14.3876C8.58843 14.2397 8.48788 14.1037 8.42282 13.9558C8.33409 13.7488 8.2572 13.53 8.18622 13.3111C8.12708 13.1396 8.07976 12.9621 8.04427 12.7788C8.00878 12.6072 8.01469 12.4298 7.97329 12.2583C7.91414 11.998 7.94372 11.7378 7.94963 11.4775C7.94963 11.2882 8.00286 11.099 8.03244 10.9097C8.03244 10.9097 8.03244 10.8979 8.03244 10.8919C8.32818 10.7796 8.62984 10.6672 8.92558 10.5607C9.03204 10.5252 9.15034 10.5016 9.25681 10.472V10.4661Z" fill="#D2EEFB"/>
<path d="M23.7954 11.2823C23.8309 11.377 23.8664 11.4716 23.9019 11.5662C23.9315 11.655 23.9611 11.7378 23.9906 11.8265C23.9197 11.7969 23.8487 11.7733 23.7836 11.7378C23.5352 11.6076 23.2927 11.4716 23.0443 11.3415C22.7544 11.1936 22.4587 11.0517 22.163 10.9156C21.885 10.7914 21.601 10.679 21.3171 10.5785C20.9682 10.4483 20.6074 10.336 20.2525 10.2118C20.1815 10.1881 20.1105 10.1703 20.0454 10.1526C20.0336 10.1171 20.0277 10.0816 20.0159 10.0461C19.9745 9.93375 19.9331 9.82729 19.8857 9.7149C20.0632 9.76222 20.2406 9.80363 20.4181 9.85095C20.631 9.91009 20.838 9.98107 21.051 10.0461C21.2462 10.1112 21.4413 10.1822 21.6306 10.2591C21.9737 10.401 22.3108 10.5371 22.648 10.6968C23.0383 10.8801 23.4228 11.0871 23.8073 11.2823H23.7954Z" fill="#8CA7B4"/>
<path d="M8.02645 10.886C8.02645 10.886 8.02645 10.8979 8.02645 10.9038C7.8845 10.9629 7.74254 11.0102 7.6065 11.0753C7.36399 11.1877 7.1274 11.306 6.89081 11.4302C6.64238 11.5603 6.39987 11.6964 6.15737 11.8383C5.93852 11.9684 5.72558 12.1045 5.50674 12.2346C5.49491 12.2405 5.47716 12.2405 5.46533 12.2464C5.48899 12.1932 5.51857 12.14 5.54222 12.0867C5.56588 12.0335 5.59546 11.9803 5.62503 11.927C5.84388 11.7851 6.06273 11.6372 6.28749 11.513C6.66604 11.3001 7.05642 11.093 7.44088 10.8919C7.6479 10.7855 7.86084 10.7027 8.07377 10.608C8.05603 10.7027 8.03828 10.7973 8.02054 10.8919L8.02645 10.886Z" fill="#8CA7B4"/>
<path d="M1.08244 16.7299C1.08244 16.7299 1.08244 16.7417 1.08244 16.7476C1.02329 16.7831 0.828103 16.7122 0.804443 16.6471C0.881336 16.6708 0.958229 16.6885 1.03512 16.7122C1.05287 16.7122 1.07061 16.724 1.09427 16.7299H1.08244Z" fill="#D5D4D4"/>
<path d="M14.4678 20.0067C14.4737 20.0599 14.4796 20.1191 14.4855 20.1723C14.4796 20.1191 14.4737 20.0599 14.4678 20.0067Z" fill="#6D6C6C"/>
<path d="M24.7832 18.2027C24.7832 18.2027 24.7654 18.1849 24.7595 18.179C24.7654 18.1849 24.7773 18.1968 24.7832 18.2027Z" fill="#D5D4D4"/>
<path d="M17.4664 11.5426C17.4309 11.5721 17.4014 11.6195 17.3659 11.6372C17.0406 11.7555 16.7093 11.8679 16.384 11.9862C16.3367 12.0039 16.2953 12.0217 16.2421 12.0217C16.5437 11.6076 16.8454 11.1877 17.1411 10.7736C17.1411 10.7736 17.1293 10.7618 17.1234 10.7559C16.7152 11.028 16.3012 11.3001 15.8931 11.5721C15.8872 11.5721 15.8753 11.5603 15.8694 11.5544C16.0114 11.0694 16.1593 10.5844 16.3012 10.1053C16.3012 10.1053 16.2894 10.0994 16.2835 10.0934C15.9996 10.4897 15.7156 10.886 15.4376 11.2882C15.4258 11.2882 15.4199 11.2882 15.4081 11.2823V9.75629H15.3726C15.1833 10.2058 14.994 10.6613 14.8048 11.1226C14.7988 11.1226 14.7929 11.1226 14.7811 11.1226C14.6214 10.6672 14.4676 10.2117 14.3079 9.75629C14.3079 9.75629 14.302 9.75629 14.2961 9.75629C14.2961 9.79178 14.2902 9.82727 14.2902 9.86276C14.2961 10.2886 14.3079 10.7086 14.3138 11.1344C14.3138 11.1522 14.3197 11.1758 14.3138 11.1936C14.302 11.2173 14.2843 11.2409 14.2665 11.2468C14.2488 11.2468 14.2192 11.235 14.2074 11.2173C14.0477 10.9333 13.882 10.6435 13.7223 10.3596C13.6455 10.2236 13.5745 10.0875 13.4798 9.9574C13.4917 10.0106 13.4976 10.0639 13.5153 10.1112C13.6336 10.5193 13.7519 10.9333 13.8702 11.3415C13.8761 11.371 13.8702 11.4006 13.8702 11.4302C13.8406 11.4184 13.8111 11.4184 13.7874 11.4006C13.4562 11.164 13.1249 10.9215 12.7937 10.679C12.7701 10.6613 12.7523 10.6139 12.7582 10.5962C12.8115 10.472 12.8233 10.3537 12.776 10.2295C12.776 10.2236 12.776 10.2117 12.776 10.2058C12.9179 10.1112 13.0481 9.9988 13.1959 9.91599C13.3793 9.80952 13.5745 9.7208 13.7637 9.62616C13.8111 9.62616 13.8584 9.61434 13.8998 9.61434C14.2251 9.59659 14.5504 9.56702 14.8757 9.56702C15.4495 9.56702 16.0173 9.57885 16.591 9.58476C16.6029 9.58476 16.6147 9.58476 16.6265 9.58476C16.8927 9.61434 17.1648 9.63799 17.4309 9.66757C17.6202 9.68531 17.8095 9.70897 17.9988 9.73263C18.0934 9.74446 18.1821 9.75629 18.2708 9.77404C18.2708 9.77404 18.2827 9.77404 18.2886 9.77404C18.2886 9.77995 18.2945 9.79178 18.3004 9.79769C18.2235 10.0994 18.1407 10.3951 18.0047 10.679C17.9751 10.7382 17.9455 10.7736 17.8746 10.7618C17.6675 10.7322 17.4309 10.9097 17.4014 11.0457C17.3245 11.1522 17.3481 11.2764 17.3659 11.3888C17.3777 11.4479 17.425 11.4952 17.4605 11.5485L17.4664 11.5426Z" fill="#1588B1"/>
<path d="M10.9246 13.5595C10.9246 13.5595 10.8891 13.6009 10.8654 13.6187C10.7057 13.7133 10.6052 13.8494 10.5519 14.0209C10.4573 14.2634 10.5224 14.4763 10.6702 14.6715C10.8181 14.8667 11.0251 14.9436 11.2617 14.9554C11.309 14.9554 11.3504 14.9554 11.38 15.0146C11.4747 15.1743 11.5752 15.3281 11.6817 15.4819C11.7231 15.541 11.7822 15.5942 11.8355 15.6475C11.9064 15.7303 11.9715 15.8131 12.0425 15.89C12.0543 15.9077 12.0602 15.9255 12.0721 15.9432C11.936 15.8782 11.7941 15.8249 11.6698 15.748C11.0251 15.3754 10.481 14.8904 10.0433 14.2871C9.84216 14.0091 9.67063 13.7192 9.54051 13.3998C9.4577 13.1928 9.36306 12.9858 9.30983 12.7729C9.23294 12.4535 9.17379 12.1222 9.12647 11.7969C9.09689 11.5899 9.10281 11.3711 9.12647 11.1581C9.14421 10.9629 9.20336 10.7677 9.24477 10.5726C9.26842 10.5371 9.298 10.5016 9.32166 10.4661C9.3394 10.4424 9.35715 10.4188 9.38081 10.3951C9.52276 10.3596 9.66472 10.3241 9.80667 10.2827C9.96046 10.2413 10.1083 10.194 10.2621 10.1585C10.3213 10.1467 10.3863 10.1585 10.4455 10.1585C10.475 10.4424 10.5579 10.7086 10.6525 10.9748C10.753 11.2528 10.8891 11.5189 11.0488 11.7673C11.0606 11.791 11.0843 11.8088 11.0961 11.8265C11.0547 12.0039 11.0133 12.1755 10.9719 12.3529C10.9601 12.3707 10.9482 12.3825 10.9423 12.4002C10.8891 12.7196 10.8773 13.045 10.8891 13.3703C10.8891 13.4353 10.9127 13.5004 10.9187 13.5655L10.9246 13.5595Z" fill="#1387B0"/>
<path d="M18.271 9.76221C18.1823 9.75038 18.0877 9.73263 17.9989 9.72081C17.8097 9.69715 17.6204 9.67349 17.4311 9.65574C17.1649 9.62617 16.8929 9.60251 16.6267 9.57293C16.6149 9.57293 16.603 9.57293 16.5912 9.57293C16.0175 9.56702 15.4496 9.55519 14.8759 9.55519C14.5506 9.55519 14.2253 9.58476 13.9 9.60251C13.8526 9.60251 13.8053 9.60842 13.7639 9.61434C13.8822 9.56111 14.0005 9.50196 14.1188 9.46647C14.3436 9.4014 14.5624 9.33634 14.7931 9.29494C15.1539 9.23579 15.5206 9.20622 15.8873 9.24762C15.9051 9.24762 15.9228 9.24762 15.9406 9.24762C15.9583 9.24762 15.9761 9.24762 15.9997 9.24762C15.9406 9.22987 15.8873 9.21213 15.8341 9.2003C15.8341 9.2003 15.8341 9.18847 15.8341 9.18256C15.9524 9.18256 16.0648 9.18256 16.1831 9.18256C16.3546 9.18847 16.5261 9.2003 16.6977 9.21213C16.8692 9.22396 17.0526 9.21213 17.2182 9.25353C17.4193 9.30085 17.6145 9.38366 17.8037 9.46647C17.9634 9.53745 18.1113 9.64391 18.2651 9.73263C18.271 9.73263 18.271 9.75038 18.2769 9.75629L18.271 9.76221Z" fill="#1F6984"/>
<path d="M12.776 9.709C12.776 9.709 12.7287 9.72675 12.705 9.73266C12.6518 9.73266 12.5926 9.73266 12.5394 9.73266C12.3738 9.75632 12.2082 9.7859 12.0425 9.80956C11.8533 9.83913 11.664 9.85096 11.4747 9.88645C11.1731 9.93968 10.8773 10.0107 10.5816 10.0698C10.552 9.97517 10.5284 9.87462 10.4988 9.77998C10.7531 9.72083 11.0134 9.66169 11.2736 9.60845C11.4984 9.56113 11.7291 9.52564 11.9597 9.49016C12.1549 9.46058 12.3501 9.42509 12.5453 9.39552C12.7346 9.37186 12.9239 9.35411 13.119 9.33046C13.2373 9.31863 13.3497 9.30088 13.468 9.28905C13.5213 9.28905 13.5745 9.28314 13.6218 9.27722C13.4503 9.35411 13.2787 9.41918 13.1072 9.50199C12.9948 9.55522 12.8943 9.6262 12.7878 9.69126L12.776 9.709Z" fill="#206A84"/>
<path d="M19.8857 9.7149C19.9271 9.82728 19.9685 9.93375 20.0158 10.0461C20.0277 10.0816 20.0395 10.1171 20.0454 10.1526C19.9626 10.1349 19.8798 10.1171 19.8029 10.0994C19.5367 10.0343 19.2765 9.96924 19.0103 9.90418C18.9748 9.89826 18.9393 9.89826 18.9039 9.89235C18.892 9.88643 18.8802 9.88052 18.8684 9.8746C18.8092 9.73265 18.7501 9.59661 18.6909 9.45465C18.8861 9.49014 19.0754 9.52563 19.2706 9.56112C19.4539 9.59661 19.6373 9.64393 19.8206 9.68533C19.8443 9.68533 19.8621 9.70307 19.8857 9.7149Z" fill="#9BADB5"/>
<path d="M8.02637 10.886C8.04411 10.7914 8.06186 10.6968 8.0796 10.6021C8.26296 10.5252 8.44041 10.4424 8.62376 10.3774C8.86036 10.2886 9.09695 10.2058 9.33946 10.123C9.36312 10.1112 9.39269 10.1053 9.4341 10.0934C9.36903 10.2295 9.3158 10.3478 9.26257 10.472C9.15018 10.5016 9.0378 10.5252 8.93134 10.5607C8.62968 10.6672 8.33394 10.7796 8.0382 10.8919L8.02637 10.886Z" fill="#9BADB5"/>
<path d="M10.4397 10.1526C10.3805 10.1526 10.3155 10.1407 10.2563 10.1526C10.1025 10.1881 9.94874 10.2354 9.80087 10.2768C9.65891 10.3123 9.51696 10.3537 9.375 10.3892C9.47555 10.1703 9.61751 9.99287 9.87776 9.93964C10.0375 9.91007 10.1912 9.86275 10.3509 9.82134C10.3628 9.82134 10.3746 9.82134 10.3923 9.81543C10.4101 9.92781 10.4278 10.0402 10.4456 10.1526H10.4397Z" fill="#1F6984"/>
<path d="M18.6908 9.44875C18.75 9.59071 18.8091 9.72675 18.8683 9.8687C18.8091 9.85688 18.75 9.84505 18.6968 9.83913C18.614 9.76224 18.5311 9.69126 18.4483 9.61437C18.4306 9.67943 18.4188 9.73266 18.401 9.7859C18.3655 9.7859 18.336 9.7859 18.3005 9.7859C18.3005 9.77998 18.2946 9.76815 18.2886 9.76224C18.336 9.60451 18.2906 9.48227 18.1526 9.39552C18.1526 9.39552 18.1171 9.37186 18.0994 9.34229C18.2946 9.37777 18.4957 9.41326 18.6908 9.44875Z" fill="#B4B3B3"/>
<path d="M12.7761 9.70898C12.8826 9.64392 12.9831 9.57294 13.0955 9.51971C13.2611 9.4369 13.4386 9.36592 13.6101 9.29494C13.758 9.28311 13.9059 9.27128 14.0478 9.25354C14.0478 9.25945 14.0478 9.27128 14.0478 9.2772C13.965 9.30677 13.8881 9.33635 13.8112 9.37775C13.5983 9.48422 13.3854 9.5966 13.1724 9.70898C13.1665 9.70898 13.1547 9.70898 13.1488 9.70898C13.1192 9.638 13.06 9.67941 13.0127 9.67941C12.9358 9.67941 12.853 9.69124 12.7761 9.70307V9.70898Z" fill="#B4B3B3"/>
<path d="M10.4988 9.79181C10.5283 9.88645 10.552 9.987 10.5816 10.0816C10.5816 10.0816 10.5816 10.0935 10.5756 10.0994C10.5579 10.1112 10.5461 10.123 10.5283 10.1349C10.5106 10.0343 10.4928 9.93377 10.4751 9.83321C10.4751 9.82138 10.4928 9.80364 10.4988 9.79181Z" fill="#9BADB5"/>
<path d="M22.1807 9.91008C22.1807 9.91008 22.2221 9.89825 22.2398 9.89233C22.2221 9.89233 22.1984 9.90416 22.1807 9.91008Z" fill="#9BADB5"/>
<path d="M10.5283 10.1644C10.5283 10.1644 10.5402 10.2058 10.5461 10.2236C10.5402 10.2058 10.5342 10.1822 10.5283 10.1644Z" fill="#9BADB5"/>
<path d="M12.8174 16.2035C12.7169 16.1029 12.6104 16.0024 12.5099 15.8959C12.4921 15.8782 12.4862 15.8604 12.4744 15.8368C12.5335 15.7066 12.5749 15.5706 12.6518 15.4464C12.8056 15.198 12.9653 14.9495 13.1368 14.7129C13.2255 14.5887 13.3498 14.4823 13.4562 14.3699C13.4148 14.5414 13.3734 14.707 13.332 14.8786C13.261 15.1447 13.1901 15.405 13.125 15.6711C13.125 15.6771 13.125 15.6889 13.125 15.7185C13.4621 15.2453 13.7875 14.7839 14.1128 14.3166C14.1246 14.3166 14.1305 14.3166 14.1423 14.3226C14.095 14.8667 14.0536 15.4109 14.0063 15.9551C14.0122 15.9551 14.0181 15.9551 14.024 15.9551C14.2133 15.4582 14.3967 14.9554 14.5919 14.4349C14.7575 14.985 14.9172 15.5114 15.0769 16.0379C15.0828 16.0379 15.0946 16.0379 15.1005 16.0379C15.142 15.5233 15.1774 15.0028 15.2188 14.4882C15.2248 14.4882 15.2366 14.4882 15.2425 14.4823C15.4673 14.9081 15.692 15.334 15.9168 15.7599C15.9227 15.7599 15.9286 15.7599 15.9405 15.7539C15.8044 15.2571 15.6743 14.7603 15.5382 14.2693C15.5382 14.2693 15.5501 14.2634 15.556 14.2575C15.9759 14.5828 16.39 14.9022 16.8099 15.2275C16.8158 15.2216 16.8277 15.2157 16.8336 15.2098C16.5852 14.7898 16.2953 14.3935 16.0233 13.9499C16.5201 14.1451 16.9992 14.3285 17.4783 14.5118C17.1234 14.1392 16.7685 13.7784 16.4136 13.4058C16.5733 13.4176 16.733 13.4294 16.8927 13.4413C16.9696 13.4649 17.0406 13.5004 17.1175 13.5181C17.4546 13.6128 17.7681 13.7666 18.0698 13.9322C18.1585 13.9795 18.2413 14.0327 18.33 14.086C18.2532 14.2043 18.1822 14.3285 18.0994 14.4409C17.6794 14.985 17.1648 15.4168 16.5733 15.7599C16.4905 15.8072 16.4018 15.8486 16.319 15.8959C16.2835 15.9136 16.2539 15.9314 16.2185 15.9491C16.2125 15.9491 16.2007 15.9491 16.1948 15.9491C16.1889 15.9491 16.183 15.961 16.177 15.961C16.1416 15.9787 16.1061 15.9905 16.0706 16.0083C16.0706 16.0083 16.0647 16.0083 16.0587 16.0083C15.97 16.0438 15.8813 16.0733 15.7867 16.1088H15.7748C15.6565 16.1443 15.5382 16.1798 15.414 16.2153C15.0769 16.3159 14.7279 16.3691 14.3789 16.375C14.024 16.375 13.6692 16.3454 13.3143 16.3277C13.2078 16.304 13.1013 16.2863 12.9949 16.2626C12.9357 16.2508 12.8825 16.2271 12.8233 16.2094L12.8174 16.2035Z" fill="#1688B1"/>
<path d="M18.3773 9.97516C18.3773 9.93376 18.3773 9.89236 18.3832 9.85095C18.6139 9.99291 18.7677 10.2118 18.9037 10.4424C19.0398 10.6731 19.0989 10.9275 19.1344 11.1936L19.1108 11.8797C19.0753 12.2405 19.0043 12.5895 18.8801 12.9267C18.7795 13.2047 18.6494 13.4767 18.5311 13.7488C18.5252 13.7666 18.4956 13.7843 18.4779 13.7961C17.9101 13.323 17.2417 13.0568 16.5142 12.9148C16.5142 12.9089 16.5201 12.903 16.526 12.8912C16.9578 12.7847 17.3955 12.6842 17.8273 12.5777C17.8273 12.5718 17.8273 12.5659 17.8273 12.554C17.5907 12.5363 17.36 12.5245 17.1234 12.5067C17.1352 12.489 17.147 12.4712 17.1589 12.4594C17.3659 12.2642 17.5493 12.0454 17.709 11.8088C17.7444 11.7555 17.774 11.7378 17.8391 11.7378C18.1526 11.7378 18.3773 11.4775 18.3241 11.164C18.3241 11.0398 18.2354 10.957 18.1762 10.8624C18.2768 10.5726 18.3537 10.2768 18.3655 9.96925L18.3773 9.97516Z" fill="#1487B0"/>
<path d="M19.1345 11.1936C19.1049 10.9275 19.0398 10.6731 18.9038 10.4425C18.7678 10.2118 18.614 9.99292 18.3833 9.85097C18.3833 9.82731 18.3951 9.80365 18.401 9.77999C18.4129 9.72676 18.4306 9.67352 18.4484 9.60846C18.5312 9.68535 18.614 9.76225 18.6968 9.83322C18.7559 9.91012 18.8151 9.98701 18.8683 10.0698C18.9393 10.1763 18.9984 10.2946 19.0576 10.407C19.0813 10.5134 19.1108 10.6199 19.1345 10.7264C19.1404 10.75 19.1522 10.7796 19.1581 10.8033C19.1581 10.8269 19.1581 10.8506 19.1581 10.8742C19.1581 10.9038 19.1641 10.9334 19.17 10.963C19.17 11.0813 19.17 11.2055 19.17 11.3238C19.1581 11.2824 19.1404 11.235 19.1286 11.1936H19.1345Z" fill="#3C3C3D"/>
<path d="M18.3182 14.0859C18.2294 14.0327 18.1466 13.9795 18.0579 13.9322C17.7563 13.7665 17.4428 13.6128 17.1056 13.5181C17.0287 13.4945 16.9578 13.4649 16.8809 13.4412C17.0997 13.459 17.3245 13.459 17.5433 13.5004C17.6557 13.5181 17.7622 13.6068 17.8627 13.666C18.0343 13.7665 18.1999 13.8789 18.3714 13.9854C18.3537 14.0209 18.3359 14.0564 18.3182 14.0919V14.0859Z" fill="#3E4042"/>
<path d="M13.3083 16.3218C13.6632 16.3395 14.0181 16.375 14.373 16.3691C14.722 16.3691 15.071 16.3099 15.4081 16.2094C15.5264 16.1739 15.6447 16.1384 15.7689 16.1029C15.7393 16.1266 15.7157 16.1621 15.6802 16.1739C15.5382 16.2212 15.3904 16.2685 15.2425 16.2981C15.071 16.3395 14.8935 16.3632 14.722 16.3927C14.6214 16.4105 14.5209 16.4223 14.4203 16.4223C14.1246 16.4164 13.8289 16.3986 13.5331 16.3868C13.468 16.3868 13.403 16.3691 13.3379 16.3572C13.3261 16.3572 13.3202 16.3336 13.3143 16.3218H13.3083Z" fill="#E6F3F9"/>
<path d="M19.0576 10.4069C18.9925 10.2945 18.9334 10.1822 18.8683 10.0698C18.8151 9.98698 18.7559 9.916 18.6968 9.83319C18.7559 9.84502 18.8151 9.85685 18.8683 9.86277C18.8801 9.86868 18.892 9.87459 18.9038 9.88051C18.9334 9.96923 18.9629 10.058 18.9925 10.1467C19.0162 10.2295 19.0398 10.3182 19.0576 10.401V10.4069Z" fill="#E6F3F9"/>
<path d="M19.1345 11.1936C19.1463 11.235 19.1641 11.2823 19.1759 11.3237C19.1522 11.5071 19.1345 11.6904 19.1108 11.8797C19.1168 11.649 19.1227 11.4243 19.1345 11.1936Z" fill="#6D6C6C"/>
<path d="M15.7749 16.1029C15.8636 16.0674 15.9523 16.0379 16.047 16.0024C15.9938 16.032 15.9405 16.0734 15.8873 16.0911C15.8577 16.1029 15.8163 16.168 15.7808 16.097L15.7749 16.1029Z" fill="#E6F3F9"/>
<path d="M16.0527 15.9965C16.0882 15.9787 16.1237 15.9669 16.1592 15.9492C16.1355 15.9965 16.106 16.0261 16.0527 15.9965Z" fill="#E6F3F9"/>
<path d="M16.2065 15.9373C16.242 15.9196 16.2716 15.9018 16.3071 15.8841C16.2716 15.9018 16.242 15.9196 16.2065 15.9373Z" fill="#E6F3F9"/>
<path d="M19.1759 10.9629C19.1759 10.9334 19.17 10.9038 19.1641 10.8742C19.1641 10.9038 19.17 10.9334 19.1759 10.9629Z" fill="#6D6C6C"/>
<path d="M19.1582 10.8032C19.1582 10.8032 19.1404 10.75 19.1345 10.7263C19.1404 10.75 19.1523 10.7796 19.1582 10.8032Z" fill="#6D6C6C"/>
<path d="M16.1653 15.9551C16.1653 15.9551 16.1771 15.9432 16.183 15.9432C16.1771 15.9432 16.1712 15.9551 16.1653 15.9551Z" fill="#E6F3F9"/>
<path d="M12.2437 12.9681C12.1431 12.9917 12.0366 13.0213 11.9361 13.045C11.806 13.0745 11.6699 13.1041 11.5398 13.1455C11.7882 13.1632 12.0425 13.181 12.291 13.2047C12.4507 13.2165 12.6163 13.2342 12.776 13.2461C12.8825 13.2875 12.9889 13.3229 13.0954 13.3644C12.8174 13.5418 12.5394 13.7252 12.2673 13.9026C12.1608 13.9677 12.0603 14.0386 11.9479 14.1096C11.8947 13.8967 11.7882 13.7252 11.5989 13.6128C11.5516 13.5832 11.4984 13.5536 11.4511 13.5477C11.3742 13.5359 11.3683 13.4945 11.3623 13.4294C11.3328 13.1278 11.3505 12.8261 11.3919 12.5244C11.4037 12.4476 11.4215 12.3766 11.4392 12.2997C11.4629 12.3115 11.4806 12.3233 11.5043 12.3352C11.6995 12.5067 11.8888 12.6782 12.084 12.8498C12.1372 12.8971 12.1904 12.9326 12.2496 12.974L12.2437 12.9681Z" fill="#1788B1"/>
<path d="M10.5698 10.0993C10.5698 10.0993 10.5698 10.0875 10.5757 10.0816C10.8715 10.0224 11.1731 9.95147 11.4689 9.89824C11.6582 9.86275 11.8474 9.845 12.0367 9.82134C12.2023 9.79768 12.3679 9.76811 12.5335 9.74445C12.5868 9.73854 12.6459 9.74445 12.6992 9.74445C12.6282 9.79768 12.5572 9.85092 12.4862 9.89824C12.4685 9.91007 12.4389 9.90415 12.4152 9.89824C12.1787 9.85683 11.9716 9.89824 11.8179 10.1053C11.7883 10.1407 11.7705 10.1821 11.7469 10.2236C11.7055 10.3478 11.6936 10.4779 11.7469 10.6021C11.6877 10.6908 11.6286 10.7795 11.5694 10.8683C11.457 11.0516 11.3506 11.2409 11.2264 11.442C11.1436 11.3178 11.0608 11.1936 10.9839 11.0635C10.8005 10.7677 10.6763 10.4424 10.5698 10.1112V10.0993Z" fill="#1588B1"/>
<path d="M11.948 14.1924C12.0308 14.151 12.1137 14.1037 12.2024 14.0682C12.5395 13.944 12.8767 13.8198 13.2197 13.7015C13.2316 13.7015 13.2434 13.7015 13.267 13.7133C12.9654 14.0978 12.6578 14.4881 12.3562 14.8726L12.3739 14.8963C12.4271 14.8667 12.4804 14.8312 12.5336 14.8016C12.4153 15.0382 12.3029 15.2748 12.1846 15.5232C12.09 15.3872 12.0013 15.2512 11.9126 15.1151C11.8534 15.0264 11.8061 14.9258 11.7588 14.8312C11.7469 14.8075 11.741 14.778 11.7351 14.7484C11.8948 14.6005 11.9717 14.4172 11.954 14.1983L11.948 14.1924Z" fill="#1889B2"/>
<path d="M11.9538 11.2764C12.0484 11.3533 12.1431 11.4302 12.2377 11.5012C12.5512 11.7318 12.8588 11.9625 13.1723 12.1932C13.1841 12.205 13.1959 12.2169 13.2196 12.2346C13.2018 12.2346 13.19 12.2405 13.1782 12.2405C12.8469 12.2524 12.5216 12.2583 12.1904 12.276C12.0662 12.2819 11.9775 12.2464 11.8947 12.1636C11.7882 12.0572 11.6758 11.9566 11.5693 11.8561C11.664 11.655 11.7645 11.4539 11.8592 11.2527C11.8769 11.2587 11.9006 11.2646 11.9183 11.2705C11.9301 11.2705 11.942 11.2705 11.9538 11.2705V11.2764Z" fill="#1688B1"/>
<path d="M11.9244 11.2764C11.9244 11.2764 11.883 11.2646 11.8652 11.2587C11.9244 11.164 11.9835 11.0753 12.0486 10.9807C12.0604 10.9629 12.09 10.9511 12.1077 10.9511C12.1905 10.9511 12.2793 10.9688 12.3621 10.9511C12.504 10.9333 12.6282 10.8624 12.7111 10.7322C12.9713 11.0516 13.2316 11.377 13.4859 11.7023C13.4977 11.72 13.4977 11.7614 13.4859 11.7673C13.4682 11.7851 13.4327 11.791 13.409 11.7851C13.1665 11.6964 12.924 11.6017 12.6756 11.513C12.4626 11.4302 12.2438 11.3533 12.0308 11.2764C12.0072 11.2705 11.9776 11.2764 11.954 11.2705C11.954 11.2705 11.948 11.2587 11.9421 11.2527C11.9362 11.2587 11.9244 11.2646 11.9185 11.2705L11.9244 11.2764Z" fill="#1788B1"/>
<path d="M11.8355 15.6475C11.7822 15.5942 11.7231 15.541 11.6817 15.4818C11.5752 15.3281 11.4747 15.1743 11.38 15.0146C11.3445 14.9554 11.309 14.9613 11.2617 14.9554C11.0251 14.9495 10.8181 14.8667 10.6702 14.6715C10.5224 14.4763 10.4632 14.2575 10.5519 14.0209C10.4987 14.4586 10.966 14.7247 11.2972 14.7129C11.3623 14.7129 11.3978 14.7188 11.4273 14.7898C11.5338 15.0323 11.6521 15.2689 11.7645 15.5114C11.7881 15.5587 11.8059 15.6001 11.8295 15.6475H11.8355Z" fill="#3C3C3D"/>
<path d="M18.3301 11.1758C18.3775 11.4834 18.1527 11.7496 17.8451 11.7496C17.7801 11.7496 17.7505 11.7673 17.715 11.8206C17.5553 12.0572 17.3719 12.276 17.1649 12.4712C17.1531 12.483 17.1413 12.5008 17.1294 12.5185C17.0821 12.5185 17.0348 12.5185 16.9697 12.5185C17.017 12.4653 17.0584 12.4239 17.0999 12.3825C17.3424 12.134 17.5671 11.8738 17.7505 11.5781C17.786 11.5248 17.8274 11.5012 17.8984 11.5012C18.064 11.5012 18.2118 11.4479 18.3006 11.2882C18.3183 11.2527 18.3242 11.2113 18.3301 11.1758Z" fill="#3E4042"/>
<path d="M12.2438 12.9681C12.1906 12.9267 12.1314 12.8853 12.0782 12.8439C11.883 12.6723 11.6878 12.5008 11.4985 12.3293C11.5163 12.3234 11.534 12.3174 11.5577 12.3115C11.5991 12.3234 11.6346 12.3411 11.676 12.347C11.7824 12.3588 11.8712 12.4121 11.954 12.4712C12.1433 12.6073 12.3444 12.7315 12.5395 12.8616C12.5573 12.8734 12.575 12.8853 12.6105 12.9089C12.4745 12.9326 12.3562 12.9503 12.2438 12.974V12.9681Z" fill="#3C3C3D"/>
<path d="M12.7052 10.7382C12.6283 10.8683 12.5041 10.9334 12.3562 10.957C12.2734 10.9689 12.1906 10.957 12.1019 10.957C12.0782 10.957 12.0486 10.9689 12.0427 10.9866C11.9776 11.0753 11.9244 11.17 11.8593 11.2646C11.7647 11.4657 11.6642 11.6668 11.5695 11.8679C11.5636 11.8443 11.5399 11.8147 11.5459 11.7969C11.6937 11.4361 11.8475 11.0753 12.0782 10.7559C12.09 10.7382 12.1314 10.7145 12.1492 10.7204C12.303 10.7678 12.4508 10.75 12.5928 10.7027C12.6519 10.685 12.6815 10.7027 12.6993 10.7559L12.7052 10.7382Z" fill="#3E4042"/>
<path d="M13.4502 14.3758C13.3437 14.4882 13.2254 14.5946 13.1308 14.7189C12.9593 14.9554 12.7996 15.2039 12.6458 15.4523C12.5748 15.5706 12.5275 15.7125 12.4683 15.8427C12.4092 15.819 12.421 15.7835 12.4388 15.7362C12.634 15.2748 12.8824 14.849 13.1959 14.4645C13.2905 14.3462 13.397 14.2338 13.4975 14.1155C13.5034 14.1155 13.5153 14.1215 13.5212 14.1274C13.4916 14.2102 13.4679 14.293 13.4384 14.3758H13.4502Z" fill="#424547"/>
<path d="M10.9246 13.5595C10.9128 13.4945 10.8951 13.4294 10.8951 13.3643C10.8832 13.039 10.8951 12.7196 10.9483 12.3943C10.9483 12.3766 10.966 12.3647 10.9779 12.347C10.9779 12.6309 10.9779 12.9207 10.9779 13.2046C10.9779 13.2815 10.9897 13.3643 10.9956 13.4412C11.0015 13.5004 10.9897 13.5418 10.9246 13.5595Z" fill="#424547"/>
<path d="M12.4329 12.5363C12.634 12.5836 12.8292 12.6368 13.0303 12.6841C13.048 12.6841 13.0717 12.696 13.0894 12.7078C13.1072 12.7196 13.1249 12.7374 13.1249 12.7492C13.1249 12.7669 13.1072 12.7965 13.0894 12.8024C13.0303 12.8143 12.9593 12.832 12.912 12.8143C12.7523 12.7433 12.6044 12.6546 12.4506 12.5717C12.4447 12.5717 12.4388 12.554 12.4329 12.5422V12.5363Z" fill="#2992B8"/>
<path d="M18.3774 9.97516C18.3655 10.2827 18.2887 10.5785 18.1881 10.8683C18.1171 10.8269 18.1112 10.7796 18.1408 10.7027C18.2236 10.4779 18.2887 10.2472 18.3596 10.0225C18.3596 10.0047 18.3715 9.9929 18.3833 9.97516H18.3774Z" fill="#424547"/>
<path d="M11.9479 14.1924C11.9657 14.4113 11.8888 14.5946 11.7291 14.7425C11.6699 14.6715 11.6818 14.6183 11.7409 14.5414C11.8237 14.4349 11.8829 14.3048 11.9479 14.1865V14.1924Z" fill="#424547"/>
<path d="M16.3782 12.489C16.6089 12.3115 16.8159 12.1518 17.0406 11.9803C16.9933 12.1163 16.5083 12.4949 16.3782 12.489Z" fill="#2992B8"/>
<path d="M11.5517 12.3115C11.5517 12.3115 11.5162 12.3233 11.4926 12.3293C11.4689 12.3174 11.4511 12.3056 11.4275 12.2938C11.4393 12.2169 11.4511 12.1341 11.4689 12.0453C11.5458 12.1341 11.6168 12.2169 11.6877 12.2997C11.6937 12.2938 11.6996 12.2879 11.7055 12.2819L11.5458 12.3115H11.5517Z" fill="#424547"/>
<path d="M17.4665 11.5426C17.431 11.4894 17.3837 11.4421 17.3719 11.3829C17.3541 11.2646 17.3305 11.1463 17.4074 11.0399C17.437 11.1522 17.4547 11.2646 17.502 11.3711C17.5375 11.448 17.5375 11.5012 17.4665 11.5426Z" fill="#3E4042"/>
<path d="M13.0955 13.3643C12.9891 13.3229 12.8826 13.2874 12.7761 13.246C12.924 13.246 13.0719 13.2579 13.2256 13.2638C13.2256 13.2756 13.2257 13.2815 13.2316 13.2934C13.1842 13.317 13.1428 13.3407 13.0955 13.3643Z" fill="#424547"/>
<path d="M11.7467 10.5962C11.6935 10.472 11.7112 10.3419 11.7467 10.2177C11.7704 10.3064 11.8059 10.401 11.8177 10.4897C11.8177 10.5193 11.7704 10.5607 11.7467 10.5962Z" fill="#424547"/>
</g>
<defs>
<clipPath id="clip0_65_492">
<rect width="30" height="30" fill="white"/>
</clipPath>
</defs>
</svg>
