<svg width="30" height="30" viewBox="0 0 30 30" fill="none" xmlns="http://www.w3.org/2000/svg">
<path d="M24.375 18.125C24.375 19.3682 23.72 19.9775 22.5 19.999V20.0001H7.49997V19.999C6.27997 19.9775 5.62495 19.3682 5.62495 18.125C5.62495 16.8818 6.27997 16.2726 7.49997 16.251V16.25H22.5V16.251C23.72 16.2726 24.375 16.8818 24.375 18.125ZM22.5 20.9385V20.9375H7.49997V20.9385C6.27997 20.96 5.62495 21.5694 5.62495 22.8126C5.62495 24.0558 6.27997 24.665 7.49997 24.6866V24.6876H22.5V24.6866C23.7199 24.665 24.375 24.0558 24.375 22.8126C24.375 21.5694 23.72 20.96 22.5 20.9385ZM27.1876 10.6271V10.6261C25.9676 10.6476 25.3125 11.2569 25.3125 12.5001V22.8126C25.3125 24.0558 25.9675 24.665 27.1876 24.6866V24.6844C29.0175 24.6199 30 22.7922 30 19.0624V14.3751C30.0001 11.8887 29.0175 10.6702 27.1876 10.6271ZM2.81253 10.6261V10.6271C0.982469 10.6702 0 11.8886 0 14.3751V19.0625C0 22.7923 0.982469 24.6199 2.81253 24.6845V24.6867C4.03254 24.6651 4.68745 24.0559 4.68745 22.8127V12.5001C4.68745 11.2569 4.03254 10.6476 2.81253 10.6261ZM27.1876 9.68755C27.1876 6.57947 25.55 5.05646 22.5 5.00259V5H7.49997V5.00259C4.45001 5.05646 2.81253 6.57947 2.81253 9.68755V9.6891C4.64249 9.72142 5.62495 10.6352 5.62495 12.5001C5.62495 14.3648 6.60753 15.2787 8.43748 15.3111V15.3126H21.5625V15.3111C23.3926 15.2787 24.375 14.3648 24.375 12.5001C24.375 10.6352 25.3575 9.72142 27.1876 9.6891V9.68755Z" fill="#E42528"/>
</svg>
