<svg width="48" height="48" viewBox="0 0 48 48" fill="none" xmlns="http://www.w3.org/2000/svg">
<path fill-rule="evenodd" clip-rule="evenodd" d="M24 0C37.255 0 48 10.745 48 24V44C48 45.0609 47.5786 46.0783 46.8284 46.8284C46.0783 47.5786 45.0609 48 44 48H29L28.997 47.662C28.9 41.873 26.303 37.858 21.58 35.743L48 24L47.361 23.782C41.644 21.784 36.857 18.857 33 15C29.143 11.143 26.216 6.356 24.218 0.639L24 0L8 36C8 37.333 8.333 38.333 9 39C9.667 39.667 10.667 40 12 40L12.374 40.002C19.915 40.082 23 42.592 23 48H4C2.93913 48 1.92172 47.5786 1.17157 46.8284C0.421427 46.0783 0 45.0609 0 44V4C0 2.93913 0.421427 1.92172 1.17157 1.17157C1.92172 0.421427 2.93913 0 4 0L24 0ZM38.414 9.586C36.852 8.024 34.953 7.391 34.172 8.172C33.391 8.953 34.024 10.852 35.586 12.414C37.148 13.976 39.047 14.609 39.828 13.828C40.609 13.047 39.976 11.148 38.414 9.586Z" fill="#1AB394"/>
</svg>
