<svg width="16" height="16" viewBox="0 0 16 16" fill="none" xmlns="http://www.w3.org/2000/svg">
    <path d="M8 14.5C8.23125 14.5 8.84375 14.275 9.4875 12.9875C9.7625 12.4344 10 11.7625 10.175 11H5.825C6 11.7625 6.2375 12.4344 6.5125 12.9875C7.15625 14.275 7.76875 14.5 8 14.5ZM5.57812 9.5H10.4219C10.4719 9.02187 10.5 8.51875 10.5 8C10.5 7.48125 10.4719 6.97813 10.4219 6.5H5.57812C5.52812 6.97813 5.5 7.48125 5.5 8C5.5 8.51875 5.52812 9.02187 5.57812 9.5ZM5.825 5H10.175C10 4.2375 9.7625 3.56563 9.4875 3.0125C8.84375 1.725 8.23125 1.5 8 1.5C7.76875 1.5 7.15625 1.725 6.5125 3.0125C6.2375 3.56563 6 4.2375 5.825 5ZM11.9281 6.5C11.975 6.98438 11.9969 7.4875 11.9969 8C11.9969 8.5125 11.9719 9.01562 11.9281 9.5H14.325C14.4375 9.01875 14.5 8.51562 14.5 8C14.5 7.48438 14.4406 6.98125 14.325 6.5H11.9312H11.9281ZM13.7656 5C13.0969 3.71563 12.0125 2.68437 10.6906 2.08125C11.1313 2.88125 11.4813 3.87812 11.7094 5H13.7688H13.7656ZM4.2875 5C4.51562 3.87812 4.86563 2.88437 5.30625 2.08125C3.98438 2.68437 2.9 3.71563 2.23125 5H4.29063H4.2875ZM1.675 6.5C1.5625 6.98125 1.5 7.48438 1.5 8C1.5 8.51562 1.55937 9.01875 1.675 9.5H4.07188C4.025 9.01562 4.00313 8.5125 4.00313 8C4.00313 7.4875 4.02813 6.98438 4.07188 6.5H1.675ZM10.6906 13.9187C12.0125 13.3156 13.0969 12.2844 13.7656 11H11.7094C11.4813 12.1219 11.1313 13.1156 10.6906 13.9187ZM5.30937 13.9187C4.86875 13.1187 4.51875 12.1219 4.29063 11H2.23125C2.9 12.2844 3.98438 13.3156 5.30625 13.9187H5.30937ZM8 16C5.87827 16 3.84344 15.1571 2.34315 13.6569C0.842855 12.1566 0 10.1217 0 8C0 5.87827 0.842855 3.84344 2.34315 2.34315C3.84344 0.842855 5.87827 0 8 0C10.1217 0 12.1566 0.842855 13.6569 2.34315C15.1571 3.84344 16 5.87827 16 8C16 10.1217 15.1571 12.1566 13.6569 13.6569C12.1566 15.1571 10.1217 16 8 16Z" fill="#291A3F"/>
</svg>
