<svg width="60" height="60" viewBox="0 0 60 60" fill="none" xmlns="http://www.w3.org/2000/svg">
<path fill-rule="evenodd" clip-rule="evenodd" d="M28.6536 1.94887C28.0118 2.05057 27.9328 2.23349 28.1454 3.12716C28.5064 4.64389 28.1133 5.72961 27.2033 5.72961C26.4086 5.72961 25.075 4.82571 24.8914 4.16235C24.6462 3.27655 24.5667 3.22523 23.6093 3.33338C22.3231 3.47867 22.2211 3.58603 22.5487 4.44885C22.7763 5.04862 23.1839 5.4058 23.9356 5.6646C25.2579 6.1197 25.653 6.58503 25.3643 7.34694C25.0169 8.26406 23.82 8.36355 21.7164 7.65013C20.2422 7.15016 19.5804 7.30113 18.4736 8.38984C17.207 9.63581 15.9563 9.71074 14.895 8.60424L14.4635 8.1545L14.3502 8.29444C14.2861 8.37363 14.1915 8.68783 14.1321 9.01826C13.87 10.4807 13.3312 10.9142 12.112 10.6436C11.2023 10.4416 10.6971 10.5676 10.6971 10.9962C10.6971 11.3045 11.2303 11.3511 12.4054 11.1455C12.7991 11.0765 13.2914 11.0194 13.4992 11.0183C13.707 11.0172 14.0611 10.9751 14.2863 10.9249C16.0561 10.5298 17.2087 10.7237 17.6037 11.4833C17.6555 11.5829 17.7948 12.0492 17.9134 12.5196C18.2938 14.0303 18.8522 14.6712 19.6569 14.5202C20.2126 14.416 20.3312 14.0401 20.175 12.8774C20.0198 11.7219 20.1186 11.2824 20.6391 10.8122C21.6166 9.92908 23.1535 9.87855 24.4374 10.6874C24.9338 11 25.1356 11.0619 25.8337 11.1149C27.2201 11.2206 28.1629 11.9252 28.584 13.1707C28.8806 14.0475 28.7144 14.7593 27.9633 15.8287C27.0983 17.0608 27.3725 18.0722 28.9223 19.3651C30.8257 20.9528 30.8609 21.6381 29.2094 24.9348C28.4405 26.4699 28.3344 26.7652 28.2286 27.6666C28.1154 28.6317 28.0647 28.7144 27.3584 29.0821C26.2574 29.6554 26.2493 30.0728 27.325 30.8063C28.1689 31.3819 28.4915 31.842 28.3361 32.2486C28.1355 32.7731 27.6258 32.7525 26.7197 32.1833C25.0619 31.142 24.3941 30.986 23.2566 31.3748C22.3712 31.6775 22.1528 32.0243 22.2833 32.9203C22.425 33.8936 22.5706 34.0677 24.1092 35.1061C24.6114 35.445 25.1639 35.8275 25.3371 35.9563C25.8276 36.3209 25.9104 36.347 26.7512 36.4013C27.1855 36.4294 27.9057 36.4988 28.3515 36.5554C29.7157 36.7292 30.179 36.5148 29.5846 35.985C28.9009 35.3753 29.273 34.6022 30.3115 34.4748C30.4847 34.4536 30.8814 34.3494 31.1931 34.2431C31.7126 34.0659 31.8045 34.0531 32.2964 34.0901C32.6947 34.12 33.0604 34.0959 33.7132 33.9969C34.743 33.8406 36.1773 33.8557 37.9621 34.0415C38.5554 34.1033 39.5549 34.1518 40.2919 34.1546L41.5828 34.1595L42.1809 33.9136C43.4642 33.386 44.4311 33.5146 45.2034 34.3157C45.8759 35.0134 45.7282 34.9723 47.7221 35.0162C50.0842 35.0681 50.1868 35.1132 50.8711 36.3949C51.1614 36.9386 51.2792 37.0952 51.5337 37.2764C52.7732 38.1589 52.7989 38.6679 51.7179 40.9396C50.9404 42.5734 50.8206 42.893 50.684 43.6991C50.5394 44.5517 50.4625 44.7235 49.9727 45.285C49.4449 45.8902 49.4192 45.9438 49.2908 46.709C49.0652 48.0537 48.4456 48.7496 45.9903 50.4165C45.4652 50.7729 44.7533 51.3288 44.387 51.6682C43.4896 52.4998 43.3945 52.5374 41.9291 52.639C39.8164 52.7855 39.6363 52.8573 38.8304 53.8739C38.2146 54.6511 38.0671 54.7408 36.3564 55.3796C33.6726 56.3818 33.0014 56.4931 32.548 56.0106C32.018 55.4462 32.5141 54.5404 34.5661 52.3257C35.7003 51.1018 36.495 50.1236 36.8172 49.5551L37.0491 49.1458L37.0705 48.2605C37.1013 46.9823 36.9616 46.6293 36.2691 46.2375C35.4366 45.7665 35.0286 45.4773 34.6121 45.0632C34.3593 44.8119 33.7593 44.2819 33.2787 43.8852C32.602 43.3265 32.3393 43.0646 32.1134 42.7231C31.8605 42.3411 31.7633 42.2515 31.3826 42.0514C30.4444 41.5578 30.2804 41.0658 30.4622 39.2914C30.5655 38.2834 30.508 38.2442 28.8633 38.2008C28.1706 38.1825 27.3613 38.1326 27.0651 38.09C26.389 37.9925 26.2662 38.0246 25.8416 38.4091C24.7085 39.4353 22.7968 39.4554 19.3517 38.4775C17.0502 37.8242 16.3535 37.4126 16.0183 36.5082C15.789 35.8892 15.5928 35.7129 14.8486 35.4565C13.791 35.0919 12.8186 34.0745 11.0211 31.4519C10.6888 30.9671 10.1929 30.3319 9.91913 30.0403C9.30913 29.3911 9.18351 29.127 8.90236 27.9023C8.67568 26.9153 8.61916 26.7341 8.19193 25.6274C7.5887 24.0645 7.58161 23.0808 8.16391 21.7234C8.32337 21.3517 8.48205 20.8244 8.5828 20.3309C8.92692 18.6463 8.76934 18.2731 7.40766 17.5464C6.42269 17.0208 6.3602 17.0677 5.63087 18.8834C-0.416231 33.9347 6.94942 51.1712 21.6277 56.318C39.8861 62.7202 58.3377 47.6998 56.8535 27.6424C55.7854 13.2095 44.4711 2.12597 30.5949 1.91959C29.7118 1.90637 28.8383 1.91959 28.6536 1.94887ZM32.0463 2.14344C42.1455 2.92912 51.5814 10.12 54.1752 19.0073C54.3695 19.673 54.2599 20.7704 54.0143 20.6186C53.9872 20.602 53.9321 20.7517 53.8915 20.9513C53.8511 21.1509 53.7626 21.4412 53.6951 21.5965C53.6274 21.7517 53.5968 21.8871 53.6269 21.897C53.7096 21.9246 53.6367 22.3142 53.5381 22.372C53.4909 22.3997 53.452 22.4563 53.4519 22.4979C53.4515 22.5395 53.4092 22.6544 53.3577 22.7532C53.3061 22.8521 53.2787 22.9568 53.2968 22.9861C53.3149 23.0153 53.2722 23.2027 53.202 23.4023C53.1318 23.602 53.0744 23.8105 53.0744 23.8656C53.0744 23.9205 53.001 24.1198 52.9113 24.3084C52.8217 24.4971 52.6814 24.7931 52.5997 24.9662C52.5179 25.1394 52.3934 25.5169 52.323 25.8051C52.1919 26.3416 52.0932 26.5253 51.6803 27.002C51.5148 27.1929 51.423 27.3762 51.3736 27.614C51.2807 28.0611 50.5557 29.1944 50.5557 28.8923C50.5557 28.7448 49.9982 29.3579 49.8081 29.7146C49.7045 29.909 49.5471 30.1364 49.458 30.22C49.369 30.3035 49.2963 30.3969 49.2963 30.4273C49.2963 30.5505 48.6019 31.525 48.417 31.6613C48.3077 31.7417 48.1171 31.9684 47.9932 32.165C47.6777 32.6658 47.5548 32.7868 47.1338 33.0113C46.9306 33.1195 46.7216 33.2734 46.6693 33.3532C46.617 33.433 46.5474 33.4984 46.5149 33.4984C46.4821 33.4984 46.3507 33.5826 46.2227 33.6854C45.9806 33.8799 45.7873 33.8891 45.5812 33.7161C44.8437 33.0969 43.1908 33.073 41.8031 33.6616C41.2347 33.9028 40.4265 33.9237 38.1439 33.7564C35.9758 33.5974 34.6368 33.5879 33.7748 33.7255C33.4149 33.7828 32.8137 33.8226 32.3715 33.8184C31.6707 33.8115 31.5466 33.8282 31.0492 33.996C30.7474 34.0978 30.3304 34.2 30.1226 34.223C29.1307 34.3325 28.7098 34.9724 29.0286 35.8866C29.1671 36.2839 29.0423 36.2998 27.2359 36.1151L26.0493 35.9938L24.969 35.2818C22.8445 33.8812 22.8048 33.8455 22.6263 33.1746C22.3719 32.2187 22.564 31.8677 23.5016 31.5753C24.5215 31.2573 25.0873 31.4198 26.7221 32.4994C27.4649 32.9899 27.4759 33.0075 27.1474 33.1764C26.0735 33.7288 26.3073 35.1905 27.4708 35.1971C28.5643 35.2032 29.0168 34.168 28.2911 33.3202L28.0634 33.0541L28.3216 32.7739C28.8203 32.2329 28.6464 31.4738 27.9062 30.9608C26.5151 29.9963 26.4581 29.7979 27.4281 29.2926C28.1939 28.8937 28.3833 28.6061 28.3906 27.8313C28.3964 27.2047 28.5719 26.6834 29.2438 25.2954C30.9157 21.8415 30.9655 20.8494 29.5244 19.6818C27.541 18.0747 27.2149 17.2088 28.1031 15.908C28.8812 14.7683 29.0312 14.2137 28.8006 13.3286C28.4359 11.9285 27.3829 11.0849 25.8408 10.9573C25.1258 10.8983 25.0218 10.8659 24.5242 10.5476C23.4081 9.83353 22.1545 9.75388 21.0271 10.3253C20.1613 10.764 19.8114 11.4921 19.9573 12.5514C20.1643 14.0538 20.0892 14.3247 19.4658 14.3247C18.7763 14.3247 18.3812 13.764 18.0624 12.3326C17.7004 10.7072 16.9051 10.2899 14.7212 10.5789C13.8825 10.6899 13.8913 10.7034 14.1909 9.77749C14.5109 8.78874 14.483 8.80999 15.0505 9.12137C16.429 9.87792 17.3932 9.73089 18.5712 8.58457C19.729 7.45792 20.2531 7.34757 21.8902 7.88641C23.335 8.36182 24.0984 8.42605 24.7705 8.12884C25.4819 7.81416 25.8049 7.11175 25.5354 6.46649C25.3629 6.05374 25.0866 5.88955 23.7306 5.39368C23.1606 5.18526 22.661 4.53889 22.661 4.00965C22.661 3.70851 22.7474 3.66018 23.4819 3.55077C24.3861 3.41618 24.4949 3.47206 24.6767 4.16534C24.9607 5.24933 26.993 6.26295 27.8366 5.74142C28.3935 5.3973 28.6065 4.35109 28.3584 3.17942C28.1859 2.36478 28.2385 2.21601 28.7271 2.13605C29.1474 2.06741 31.1252 2.07166 32.0463 2.14344ZM26.2627 3.2235C26.1193 3.36691 26.1738 3.71087 26.3712 3.90843C26.7997 4.33677 27.1399 3.83759 26.7868 3.29874C26.6786 3.13361 26.3935 3.09268 26.2627 3.2235ZM20.0122 4.68183C17.9985 5.39273 16.0997 6.68641 16.0997 7.34741C16.0997 8.13718 16.8812 8.04556 17.7232 7.15709C18.5024 6.33489 19.4054 6.01722 20.8568 6.05452C21.8682 6.08066 21.877 6.06853 21.4355 5.2583C21.0077 4.47372 20.8185 4.39721 20.0122 4.68183ZM20.9868 4.94252C21.1601 5.12953 21.3645 5.63437 21.3171 5.7581C21.2908 5.82658 21.122 5.84374 20.5397 5.83729C19.2067 5.82265 18.3725 6.13087 17.588 6.92804C17.029 7.49586 16.7995 7.64666 16.5788 7.59125C15.7084 7.37291 17.7093 5.81336 19.9845 4.93701C20.4982 4.73913 20.7998 4.7407 20.9868 4.94252ZM21.8665 11.428C21.2868 11.7167 21.2042 12.0094 21.3744 13.1692C21.617 14.824 20.9412 15.7415 19.4797 15.7415C18.0598 15.7415 17.1078 14.8544 16.7094 13.1598C16.4339 11.988 16.2394 11.9124 14.5866 12.3354C13.619 12.5832 13.4472 12.614 11.755 12.8461C9.98194 13.0893 9.11881 13.6303 8.50063 14.8861C8.20436 15.4877 8.26591 15.6678 8.9425 16.1808C10.3701 17.2631 10.708 18.3283 10.3508 20.6215C10.3023 20.9332 10.231 21.4423 10.1923 21.753C10.1537 22.0636 10.0602 22.4603 9.98446 22.6345C9.75856 23.1551 9.79178 23.6675 10.0863 24.2018C10.2173 24.4394 10.3634 24.7832 10.4111 24.9659C10.5227 25.3947 10.6518 25.6398 10.9255 25.9429C11.0829 26.1171 11.1428 26.2387 11.1328 26.3641C11.101 26.7655 11.1435 26.889 11.4212 27.2016C11.5771 27.3771 11.7046 27.5485 11.7046 27.5825C11.7046 27.6166 11.7995 27.6898 11.9157 27.745C12.1315 27.848 12.3343 28.1164 12.3343 28.2991C12.3343 28.3552 12.4122 28.4307 12.5073 28.4669C12.7747 28.5685 12.8881 28.7021 12.9331 28.9685C12.9557 29.1029 13.0249 29.2775 13.0864 29.3564C13.1481 29.4354 13.2641 29.6274 13.3444 29.7833C13.4828 30.0523 13.4922 30.0586 13.5291 29.9092C13.561 29.78 13.5754 29.771 13.6092 29.8591C13.6319 29.9182 13.7617 30.0232 13.8977 30.0926C14.0336 30.162 14.3396 30.4285 14.5776 30.6851C14.8157 30.9416 15.1273 31.2243 15.2704 31.3134C15.4134 31.4025 15.5914 31.5741 15.666 31.6948C15.7405 31.8154 15.905 31.9752 16.0316 32.0499C16.1698 32.1313 16.2337 32.2028 16.1918 32.2288C16.1507 32.2543 16.2562 32.3571 16.4484 32.4786C16.6279 32.5924 16.8445 32.787 16.9296 32.9112C17.1921 33.2942 17.9622 33.6449 18.2764 33.5243C18.492 33.4415 18.9306 33.7732 19.2755 34.28C19.6739 34.8656 19.9168 35.0307 20.3186 34.9893C20.7272 34.9471 20.6983 35.1215 20.6155 33.2013C20.5523 31.7357 20.621 31.3578 21.0367 30.8855C21.5019 30.3571 22.626 29.905 23.7815 29.7815C24.7612 29.6769 24.8171 29.652 25.1062 29.1944C25.4149 28.7056 25.6836 28.4471 26.2284 28.1153C26.7682 27.7864 26.8607 27.6545 27.0427 26.9538C27.2275 26.2421 27.3894 25.8764 28.0948 24.5755C29.5978 21.804 29.6291 21.3604 28.3935 20.3402C26.2837 18.598 25.8714 17.0466 27.055 15.3051C28.2377 13.5648 27.5735 12.3006 25.4001 12.155C24.5552 12.0983 24.4085 12.0552 23.9705 11.7337C23.3039 11.2443 22.4765 11.1241 21.8665 11.428ZM23.3851 11.6206C23.5582 11.7016 23.8558 11.868 24.0463 11.9906C24.4437 12.2463 24.8546 12.3412 25.5638 12.3412C26.6597 12.3412 27.5095 13.0534 27.5095 13.9719C27.5095 14.2591 27.384 14.521 26.9231 15.1962C25.6652 17.0383 26.1481 18.8014 28.3934 20.5654C29.4361 21.3846 29.3533 21.8966 27.6863 24.9376C27.1425 25.9292 27.0493 26.1478 26.8456 26.9094C26.6783 27.5345 26.5571 27.7047 26.1204 27.927C25.6398 28.1716 25.2058 28.5589 24.9616 28.9609C24.6766 29.4302 24.633 29.4541 23.9757 29.5046C22.4569 29.6214 21.2055 30.1072 20.3381 30.9172L20.0617 31.1752L19.8973 31.0269C19.8069 30.9452 19.5842 30.8114 19.4024 30.7294C19.1264 30.605 19.0718 30.5532 19.0718 30.4164C19.0718 30.1628 17.9612 29.1098 17.831 29.24C17.673 29.3981 16.5531 28.5883 16.5531 28.316C16.5531 28.0942 16.166 27.7053 15.9451 27.7053C15.758 27.7053 15.145 27.2439 15.0428 27.0261C14.8758 26.6705 14.8564 26.4546 14.9894 26.4337C15.0935 26.4173 15.0649 26.3596 14.7924 26.0367C14.617 25.8289 14.4243 25.5773 14.3642 25.4779C14.304 25.3782 14.1433 25.1529 14.0072 24.9771C13.8233 24.7397 13.7454 24.5675 13.7047 24.3081C13.6427 23.9117 13.5321 23.7343 13.5281 24.0249L13.5258 24.2106L13.4403 24.0217C13.3934 23.9178 13.2567 23.7568 13.1366 23.6639C12.9857 23.5471 12.8848 23.3925 12.8098 23.1635C12.7502 22.9812 12.5564 22.6243 12.3793 22.3706L12.057 21.9092L12.1702 21.7177C12.2798 21.5323 12.2793 21.5172 12.1567 21.2313C12.0822 21.0575 12.0438 20.8655 12.0635 20.7639C12.0873 20.6408 12.0673 20.5802 11.9936 20.5521C11.9155 20.522 11.8998 20.4633 11.9286 20.3092C11.9613 20.1346 11.9305 20.0639 11.7098 19.8089C11.4319 19.4877 11.4288 19.4734 11.4236 18.4429C11.4217 18.0541 11.4356 17.9834 11.4979 18.0651C11.6051 18.2057 11.5967 18.1188 11.473 17.81C11.3863 17.5932 11.3598 17.5675 11.3252 17.6666C11.2882 17.7719 11.2693 17.7607 11.1744 17.5775C11.0463 17.3295 11.0806 16.7219 11.2506 16.2257C11.3505 15.9338 11.3493 15.9085 11.2152 15.5331C10.9885 14.8985 10.9718 14.6046 11.1429 14.2512C11.2797 13.9686 11.2925 13.9585 11.328 14.1048C11.3584 14.2299 11.3888 14.1706 11.4776 13.8118C11.6103 13.2758 11.6319 13.2635 12.901 13.001C14.0297 12.7677 14.4298 12.6688 15.1034 12.4571C16.0593 12.1567 16.2516 12.2592 16.4791 13.1897C16.9433 15.0894 17.9963 15.996 19.6484 15.9183C20.5312 15.8765 21.0265 15.5754 21.4164 14.8425C21.5658 14.5616 21.5878 14.0782 21.5212 12.5476C21.4773 11.5366 22.3145 11.1203 23.3851 11.6206ZM7.80121 18.4019C8.14281 18.6344 8.26607 18.8489 8.26072 19.2022C8.25489 19.5891 8.06111 20.4014 7.94761 20.5149C7.90133 20.5612 7.86355 20.6485 7.86355 20.7092C7.86355 20.7696 7.78232 20.9102 7.68299 21.0215L7.50227 21.2238L7.4626 21.0249C7.44072 20.9155 7.42278 20.7446 7.42278 20.6451C7.42278 20.5286 7.39003 20.4641 7.331 20.4641C7.09204 20.4641 6.75705 18.5062 6.96107 18.3022C7.06276 18.2004 7.59861 18.264 7.80121 18.4019ZM28.1122 33.5809C28.5058 33.9193 28.3366 34.6746 27.8334 34.8254C27.1567 35.0282 26.6232 34.5606 26.812 33.9305C26.9547 33.454 27.7242 33.247 28.1122 33.5809ZM33.5859 35.8998C33.3088 35.9676 32.906 36.0443 32.6908 36.0703C32.4756 36.0963 32.2798 36.1373 32.2557 36.1614C32.1877 36.2294 32.4249 36.4569 32.5724 36.4652C32.6632 36.4704 32.6456 36.4857 32.5154 36.5145C32.2486 36.5736 33.0064 36.7483 33.7672 36.8032C34.3512 36.8454 34.7434 36.6759 34.6464 36.4231C34.6267 36.3721 34.7139 36.2889 34.8715 36.2087C35.1601 36.0615 35.178 36.0185 35.0135 35.8694C34.8565 35.7274 34.2366 35.7406 33.5859 35.8998ZM28.5296 38.764C28.5684 38.788 28.8653 38.8021 29.1893 38.7954C29.8508 38.7815 29.9174 38.8248 29.7727 39.1744L29.6916 39.3699L29.1613 39.3268C28.7532 39.2938 28.6416 39.3015 28.678 39.3602C28.7142 39.4189 28.5746 39.4277 28.07 39.3984C27.3805 39.3585 27.1136 39.3087 27.1627 39.2291C27.1791 39.2028 27.0866 39.1636 26.9574 39.1418C26.5983 39.0819 26.5265 39.0165 26.6123 38.8284L26.684 38.6712L27.5715 38.6957C28.0595 38.7093 28.4907 38.74 28.5296 38.764Z" fill="#6796B6"/>
<path fill-rule="evenodd" clip-rule="evenodd" d="M25.8722 0.106713C22.6294 0.721592 19.9363 1.48854 18.8598 2.10342C18.7166 2.18528 18.4436 2.30177 18.2532 2.36253C17.8522 2.49036 16.8882 2.96104 16.5215 3.20803C16.383 3.30122 16.0444 3.49784 15.7691 3.64471C15.1133 3.99465 12.877 5.4862 12.5546 5.7886C12.416 5.91847 12.2035 6.09038 12.0823 6.17066C11.9611 6.25079 11.5076 6.65897 11.0745 7.07771C10.6413 7.49645 10.1457 7.93848 9.97321 8.06001C9.80052 8.18153 9.55983 8.42128 9.4383 8.59271C9.31677 8.76414 8.94101 9.19311 8.60335 9.54573C8.26569 9.89851 7.98941 10.2155 7.98941 10.2503C7.98941 10.2851 7.82649 10.4994 7.62735 10.7267C7.06033 11.3738 6.00389 12.8605 5.72903 13.3986C5.66339 13.527 5.51179 13.7773 5.39216 13.9549C5.12265 14.355 4.02749 16.5628 3.80631 17.1521C3.71658 17.391 3.58593 17.679 3.51619 17.792C3.33248 18.089 2.42968 20.7955 2.12665 21.9578C1.71941 23.5187 1.44062 24.9895 1.44077 25.5765C1.44077 25.823 1.34931 26.419 1.22039 27.0127L1 28.0274V29.8224C1 31.6683 1.0244 31.9076 1.32633 33.0261C1.3638 33.1646 1.41669 33.5471 1.44408 33.8761C1.56655 35.3521 1.7882 36.6807 2.0662 37.6041C2.13184 37.8222 2.20489 38.0997 2.22881 38.2209C2.52775 39.7419 4.63355 44.8223 5.37374 45.8085C5.45166 45.9124 5.58027 46.1249 5.65961 46.2808C5.89322 46.7401 7.17036 48.6087 7.49827 48.9708C7.6645 49.1543 7.80051 49.3292 7.80051 49.3594C7.80051 49.3896 8.0272 49.6584 8.30425 49.9567C8.58131 50.255 8.808 50.5313 8.808 50.5704C8.808 50.6874 10.8908 52.7652 11.2323 52.9889C11.4054 53.1022 11.6604 53.3138 11.799 53.4588C11.9375 53.6039 12.1783 53.8097 12.3342 53.9162C12.49 54.0228 12.734 54.2155 12.8763 54.3444C13.1753 54.6152 15.0671 55.8918 15.4845 56.1045C15.6392 56.1834 15.8509 56.312 15.9548 56.3904C16.1724 56.5547 18.3618 57.6376 18.9182 57.8563C19.1238 57.937 19.5046 58.0875 19.7644 58.1908C21.4677 58.8672 23.1132 59.3488 24.8648 59.6835C25.2284 59.7529 25.6959 59.8457 25.9037 59.8898C26.4308 60.0017 32.5219 60.0447 33.1087 59.9408C33.3364 59.9004 33.8628 59.8469 34.2784 59.8217C36.936 59.6611 42.7073 57.7193 44.4792 56.3896C44.5831 56.3117 44.7956 56.1831 44.9515 56.1037C45.2222 55.9662 46.3835 55.2132 46.7146 54.9606C46.8011 54.8946 46.9979 54.7493 47.152 54.6378C47.306 54.5262 47.5963 54.2863 47.7968 54.1045C47.9975 53.9227 48.1956 53.7739 48.237 53.7739C48.3556 53.7739 52.3664 49.7512 52.6316 49.3662C52.7628 49.1757 52.9339 48.9632 53.0118 48.8939C53.1385 48.7814 53.3534 48.4824 54.2874 47.1197C54.4341 46.9056 54.6718 46.5372 54.8157 46.3011C55.1341 45.7781 56.8524 42.3387 56.8524 42.2242C56.8524 42.1792 56.9337 41.9613 57.0331 41.74C57.1326 41.5188 57.3992 40.7569 57.6259 40.047C58.3093 37.9064 58.3152 37.8845 58.7175 36.017C58.7735 35.7573 58.8621 35.3748 58.9145 35.167C58.967 34.9592 59.0321 34.35 59.0595 33.8132C59.0957 33.0996 59.1482 32.7018 59.2544 32.3334C59.4932 31.5054 59.4761 28.0987 59.2281 27.1233C59.1035 26.6326 59.0562 26.2906 59.0562 25.8772C59.0562 25.4629 58.9973 25.0374 58.8406 24.3183C58.722 23.7742 58.606 23.2299 58.5829 23.1087C58.3811 22.0521 57.3581 18.6861 57.069 18.1268C57.0183 18.0289 56.9059 17.7522 56.8193 17.5121C56.4103 16.3782 54.3118 12.5369 53.9269 12.2174C53.8694 12.1696 53.6547 11.8719 53.4499 11.5557C53.2451 11.2396 53.0028 10.9115 52.9115 10.8266C52.8202 10.742 52.6378 10.5167 52.5062 10.3262C52.3746 10.1357 52.0635 9.78154 51.8149 9.53912C51.5664 9.29669 51.2558 8.9425 51.1245 8.75202C50.872 8.38523 50.2316 7.74454 50.1176 7.74454C50.0803 7.74454 49.7175 7.42387 49.311 7.03206C48.9046 6.64008 48.4729 6.25315 48.3517 6.17223C48.2305 6.09116 48.018 5.91942 47.8795 5.79065C47.7409 5.66188 47.3867 5.39427 47.0924 5.19608C46.798 4.99804 46.4863 4.76931 46.3997 4.68809C46.3131 4.60686 46.0439 4.43023 45.8015 4.29532C45.3397 4.03857 44.8817 3.76403 44.3533 3.42716C43.9819 3.1904 42.5961 2.49177 42.3698 2.42707C42.2832 2.40236 41.9715 2.27233 41.6771 2.13821C40.5728 1.63494 39.2008 1.15009 37.962 0.825489C37.0416 0.584323 35.1838 0.189043 34.956 0.186209C34.8604 0.18495 34.6122 0.142919 34.4044 0.0927023C33.8595 -0.0389002 26.5767 -0.0269364 25.8722 0.106713ZM33.1844 1.72593C46.5319 3.39048 56.5109 14.3078 57.3624 28.1776C58.4947 46.6213 42.5207 61.2682 25.0851 57.7736C7.88694 54.3268 -1.71296 35.1338 5.38192 18.3812C6.2057 16.4357 6.33289 16.365 7.62609 17.1311C9.13999 18.0281 9.36022 18.4829 9.06333 20.0988C8.89426 21.0191 8.77761 21.4449 8.54699 21.9845C8.01649 23.2258 8.05081 24.0086 8.70992 25.6903C8.89977 26.175 9.14519 26.9735 9.28073 27.5479C9.58911 28.8554 9.70025 29.0964 10.2717 29.699C10.5291 29.9704 10.9623 30.5184 11.2345 30.9167C13.0624 33.5926 14.1078 34.7087 15.095 35.038C15.941 35.3203 16.1579 35.524 16.455 36.3147C16.7452 37.0876 17.6381 37.5457 20.1107 38.191C22.9945 38.9433 24.5551 38.9131 25.4669 38.0868C26.0739 37.5366 26.1989 37.5098 27.3054 37.6924C27.7 37.7575 28.3574 37.7968 29.1494 37.8026C30.9866 37.816 30.9966 37.828 30.8838 39.8896C30.8199 41.0587 30.8818 41.1969 31.6582 41.618C32.1289 41.8733 32.2186 41.9524 32.484 42.3453C32.6603 42.6065 32.9712 42.9435 33.2467 43.1721C33.5025 43.3844 33.9101 43.7222 34.1525 43.9228C34.3949 44.1233 34.8058 44.4884 35.0655 44.7341C35.3525 45.0057 35.801 45.3345 36.2089 45.5729C37.3977 46.2672 37.5842 46.6104 37.5842 48.1026C37.5842 49.6672 37.1942 50.3274 34.7173 52.9553C33.3119 54.4464 32.7382 55.331 32.9844 55.6277C33.2171 55.9079 33.6532 55.8201 35.6108 55.0988C37.6404 54.3509 37.824 54.2481 38.4343 53.5167C39.3223 52.453 39.6375 52.3024 41.1972 52.1966C43.1424 52.0645 43.2521 52.0266 44.1751 51.1679C44.5264 50.8411 45.0787 50.3965 45.4021 50.18C47.9012 48.5083 48.6409 47.7188 48.7931 46.5608C48.8871 45.8463 49.0083 45.5705 49.4524 45.0614C49.9662 44.4722 50.089 44.2162 50.2058 43.4908C50.3341 42.693 50.3982 42.5181 51.1188 40.9975C52.2057 38.7042 52.2269 38.3821 51.3287 37.806C50.9553 37.5665 50.7061 37.2509 50.3881 36.6152C49.8708 35.5808 49.4806 35.4395 47.2183 35.4669C45.7142 35.4851 45.6425 35.4613 44.9156 34.7023C44.3561 34.1178 44.1828 34.0372 43.5032 34.0452C43.0376 34.0507 42.8518 34.0994 41.9605 34.4493C41.4942 34.6324 39.9632 34.6483 38.4658 34.4855C36.0725 34.2253 34.6528 34.2053 33.5535 34.4166C33.1702 34.4902 32.85 34.5085 32.4209 34.4814C31.8831 34.4474 31.7781 34.4597 31.3819 34.6033C31.1395 34.6911 30.7053 34.8024 30.4173 34.8507C29.5636 34.9937 29.4664 35.2548 30.0583 35.8159C31.0642 36.7693 30.3203 37.2081 28.1748 36.9266C27.7644 36.8729 27.0343 36.8062 26.5523 36.7783L25.6759 36.7279L25.3175 36.4721C25.1204 36.3314 24.4917 35.8954 23.9202 35.5029C22.1997 34.3215 21.9566 33.9879 21.8637 32.6809C21.7776 31.4667 22.6225 30.8307 24.3295 30.8247C25.1314 30.8219 25.2484 30.8658 26.5937 31.676C27.4787 32.2089 27.6396 32.2749 27.8198 32.1784C28.1575 31.9977 27.9174 31.6543 27.0124 31.0239C25.7252 30.1267 25.7742 29.452 27.1773 28.7512C27.7166 28.4817 27.7973 28.3572 27.8567 27.7025C27.9381 26.8063 28.056 26.4628 28.8287 24.8718C30.4941 21.4427 30.4826 21.2595 28.4871 19.4896C26.8424 18.0306 26.6804 16.9528 27.8549 15.2832C29.0339 13.6075 27.9256 11.6323 25.7112 11.4626C24.9265 11.4023 24.8201 11.369 24.2074 10.9894C23.1073 10.3081 21.9769 10.3007 21.0464 10.969C20.4803 11.3756 20.3821 11.7992 20.5644 13.0494C20.7577 14.3757 20.2963 15.0478 19.3008 14.8903C18.4073 14.7491 17.9566 14.1962 17.6208 12.83C17.1937 11.0913 16.5596 10.7767 14.5066 11.2847C13.4752 11.5399 11.2053 11.7737 10.6161 11.6854C9.89309 11.5769 9.8816 10.9361 10.5925 10.3635C10.862 10.1466 11.3371 10.1085 12.312 10.2259C13.3239 10.3478 13.6063 10.0185 13.8144 8.47433C14.0093 7.02844 14.4754 6.8345 15.0418 7.96414C15.6901 9.25702 16.9952 9.35179 18.1272 8.18815C19.38 6.90046 20.1715 6.74319 22.1439 7.39003C23.7244 7.90825 24.3458 7.92494 24.8363 7.46244C25.4097 6.92155 25.0628 6.42946 23.8189 6.01938C22.8806 5.71005 22.5309 5.3897 22.1608 4.50076C21.6917 3.37379 21.9114 3.02857 23.1017 3.02306C23.3268 3.02212 23.6781 2.99394 23.8823 2.96041C24.6017 2.84266 25.056 3.09406 25.1478 3.66092C25.2569 4.33468 25.5402 4.64039 26.5465 5.16979C27.6983 5.7757 28.2686 4.74838 27.7364 3.02668C27.4606 2.13459 27.6161 1.76024 28.3003 1.66973C28.4714 1.64722 28.6538 1.61778 28.7058 1.60424C28.9545 1.54017 32.4582 1.63525 33.1844 1.72593ZM26.8846 2.66147C27.6972 3.20897 27.6771 4.72209 26.8572 4.72209C26.1885 4.72209 25.6833 4.16608 25.6833 3.43015C25.6833 2.64226 26.285 2.25737 26.8846 2.66147ZM21.1749 4.05432C21.4239 4.15821 21.6142 4.40064 21.9385 5.02575C22.2708 5.6666 22.6285 6.04221 23.1782 6.32745C23.8727 6.6881 23.9931 6.84394 23.7583 7.07881C23.6049 7.23214 23.3113 7.20002 22.1074 6.89825C19.9353 6.35374 19.282 6.47841 18.0359 7.67559C17.2584 8.42254 16.9275 8.57225 16.357 8.43545C15.3426 8.19208 15.1641 7.08558 16.0143 6.31155C17.4605 4.99521 20.3755 3.72027 21.1749 4.05432ZM49.5166 7.4297C49.6871 7.60286 49.8126 7.74454 49.7952 7.74454C49.7779 7.74454 49.6241 7.60286 49.4536 7.4297C49.2832 7.25654 49.1577 7.11486 49.175 7.11486C49.1923 7.11486 49.3461 7.25654 49.5166 7.4297ZM11.0748 7.32171C11.0748 7.33147 10.9119 7.4944 10.7128 7.68377L10.3507 8.02789L10.6948 7.66583C11.0147 7.32942 11.0748 7.27496 11.0748 7.32171ZM23.4795 10.9918C23.6353 11.0533 23.9711 11.2396 24.2255 11.4058C24.7229 11.7309 24.736 11.7343 25.7791 11.8241C27.2238 11.9483 27.9823 12.6793 27.9812 13.9469C27.9807 14.5904 27.9253 14.7319 27.3523 15.5525C26.2252 17.1666 26.6364 18.342 29.0313 20.3518C30.0135 21.176 29.9141 21.9817 28.4824 24.8023C27.7987 26.1494 27.6712 26.4499 27.5052 27.1054C27.2856 27.972 27.1639 28.1681 26.6403 28.4992C26.16 28.8028 25.9004 29.0531 25.6355 29.4684C25.1917 30.1637 25.1173 30.2075 24.2363 30.2922C22.9509 30.4156 21.746 30.9318 21.467 31.4785C21.2337 31.9358 21.3324 33.5116 21.6377 34.2015C21.819 34.6114 22.3054 35.0532 23.3765 35.7801C24.7531 36.7147 24.9277 36.8924 24.9277 37.3592C24.9277 38.4797 22.2735 38.361 18.661 37.079C17.4813 36.6604 17.3406 36.5508 16.9308 35.7337C16.5396 34.9534 16.3296 34.7739 15.4884 34.5005C14.4941 34.1773 13.3698 32.9833 11.6456 30.4191C11.4323 30.1017 11.0605 29.6258 10.8195 29.3614C10.3028 28.7945 10.1283 28.4512 9.94614 27.6423C9.81548 27.0619 9.56676 26.2762 9.09576 24.9558C8.6882 23.8137 8.69261 23.1203 9.11244 22.2652C9.39769 21.684 9.75251 19.8512 9.75251 18.9585C9.75251 18.1548 9.22421 17.4088 8.25026 16.8372C6.80657 15.99 6.80342 15.1063 8.23924 13.657C9.39973 12.4858 9.79863 12.3269 12.0193 12.1502C13.0811 12.0659 13.9018 11.9388 14.6325 11.7457C16.3119 11.3021 16.8732 11.5492 17.1807 12.8677C17.5575 14.484 18.3667 15.3233 19.5517 15.3271C20.6993 15.3309 21.1673 14.5356 20.9384 12.9709C20.8709 12.5096 20.8588 12.2241 20.8984 12.0263C20.9298 11.8705 20.9565 11.7227 20.9581 11.698C20.9956 11.0825 22.5825 10.6379 23.4795 10.9918ZM59.2911 29.955C59.2774 30.0856 59.2661 29.9942 59.2657 29.7518C59.2654 29.5093 59.2766 29.4024 59.2906 29.5142C59.3045 29.626 59.3048 29.8243 59.2911 29.955ZM27.318 33.9286C27.0098 34.1781 27.3564 34.5615 27.7344 34.3892C27.9294 34.3004 27.9491 33.9766 27.7654 33.8783C27.5908 33.7848 27.48 33.7973 27.318 33.9286ZM44.0028 34.7871C44.1011 34.8378 44.3334 35.0451 44.5192 35.2477C45.2872 36.0849 45.4728 36.1463 47.4072 36.2006C49.3117 36.2543 49.359 36.2762 49.9012 37.3538C50.0657 37.6808 50.33 38.0717 50.5535 38.3182C51.1598 38.9872 51.1813 38.8657 50.0293 41.2748C49.5486 42.2804 49.4763 42.4785 49.3888 43.0307C49.2723 43.7654 49.167 43.9927 48.6957 44.5273C48.2006 45.0888 48.0551 45.4046 47.9409 46.1655C47.7678 47.3175 47.3299 47.7822 44.8142 49.4843C44.4443 49.7344 43.8694 50.192 43.5366 50.501C42.7901 51.1943 42.6684 51.2371 41.2049 51.3206C39.898 51.395 39.6285 51.4459 39.0593 51.7253C38.6123 51.9446 38.5165 52.0327 37.6245 53.0449C37.1502 53.583 36.4033 53.9628 35.8189 53.9628C35.3333 53.9628 35.3495 53.6859 35.8717 53.0652C36.0344 52.8719 36.4521 52.3775 36.8 51.9666C38.3542 50.1308 38.497 49.7862 38.4505 47.9807C38.4019 46.0886 38.1979 45.7586 36.504 44.8325C36.1901 44.6609 35.7857 44.3615 35.4784 44.073C35.1993 43.8112 34.6079 43.3056 34.164 42.9495C33.5201 42.433 33.301 42.2145 33.0795 41.8693C32.8069 41.4438 32.6336 41.2956 32.0431 40.9838C31.5535 40.7251 31.465 40.4574 31.5146 39.3858C31.5521 38.5768 31.5384 38.4001 31.3492 37.2391C31.0482 35.3929 31.2322 35.0725 32.5936 35.0725C32.8311 35.0725 33.279 35.0165 33.5889 34.948C34.2929 34.7923 35.9562 34.7763 37.2869 34.9121C40.9308 35.2841 41.4601 35.2857 42.4707 34.9271C43.1638 34.681 43.7026 34.6317 44.0028 34.7871Z" fill="#2F2C40"/>
<path fill-rule="evenodd" clip-rule="evenodd" d="M29.304 2.49765C28.788 2.53527 28.8009 2.5041 28.7962 3.73371C28.788 5.84926 28.1324 6.53388 26.5155 6.11467C26.2328 6.04147 25.9719 5.98149 25.9357 5.98149C25.8917 5.98149 25.8832 6.17465 25.9099 6.56395C26.0426 8.48462 24.6205 9.06313 21.794 8.23841C20.2416 7.7852 19.9272 7.86265 18.8514 8.96239C18.3546 9.47022 18.0475 9.7287 17.7652 9.8762C17.2915 10.1237 17.2944 10.0988 17.694 10.486C18.0996 10.8793 18.2223 11.1513 18.4106 12.0746C18.6482 13.2392 18.8544 13.7064 19.2125 13.8917C19.6471 14.1163 19.7901 13.8488 19.6541 13.0646C19.5267 12.3307 19.5717 11.3814 19.7514 11.0126C20.4708 9.53523 22.8624 9.17711 24.6605 10.2775C25.1559 10.5807 25.2091 10.5981 25.7939 10.651C27.4635 10.8018 28.5423 11.597 29.0204 13.0295C29.3472 14.0085 29.172 14.8598 28.4146 15.9727C27.5685 17.2162 27.8125 17.9153 29.5861 19.3295C31.2012 20.6177 31.2362 21.8136 29.7516 24.9859C29.4973 25.5292 29.2296 26.1012 29.1567 26.2571C28.8935 26.8194 28.8256 27.1133 28.7932 27.8313C28.7365 29.0864 28.6309 29.3115 27.9328 29.6654C27.6185 29.8247 27.5543 29.9059 27.6508 30.0222C27.739 30.1285 28.3147 30.4254 28.4855 30.4526C29.2082 30.5682 29.6878 30.5979 30.8467 30.5995C31.5913 30.6004 32.2997 30.5757 32.4209 30.5447C32.8814 30.427 33.1136 30.4156 33.1136 30.5113C33.1136 30.616 33.2434 30.6252 33.5544 30.5425C33.6756 30.5104 33.8952 30.4528 34.0424 30.4145C34.196 30.3747 34.31 30.3078 34.31 30.2574C34.31 30.1561 34.3644 30.1359 34.9973 30.004C35.254 29.9505 35.7074 29.7976 36.0047 29.6643C36.3021 29.5309 36.6162 29.4004 36.7027 29.3742C36.7893 29.3479 36.9664 29.2728 37.0963 29.2073C37.2938 29.1076 37.3324 29.1034 37.3324 29.1816C37.3324 29.3101 37.7477 29.0677 37.7888 28.9153C37.8048 28.8559 38.0416 28.6812 38.315 28.5271C38.5885 28.373 38.9782 28.125 39.1811 27.9761C39.3996 27.8159 39.6191 27.7054 39.7194 27.7054C39.8349 27.7054 39.9673 27.6237 40.1375 27.4472C40.2743 27.3052 40.5365 27.1034 40.7202 26.9985C40.9038 26.8939 41.173 26.6648 41.3184 26.4896C41.4637 26.3144 41.74 25.9992 41.9324 25.7891C42.6771 24.9752 42.8106 24.7955 42.8106 24.6066C42.8106 24.3618 43.3716 23.4813 43.5032 23.5196C43.6281 23.5561 44.0122 22.9585 44.2952 22.2875C44.4149 22.0036 44.5669 21.6954 44.6329 21.6027C44.699 21.51 44.8289 21.1706 44.9214 20.8486C45.0142 20.5267 45.1555 20.1171 45.2358 19.9386C45.422 19.5246 45.635 18.3325 45.5341 18.27C45.4836 18.2388 45.4798 18.0919 45.521 17.7552C45.599 17.1183 45.6319 17.0008 45.7325 17.0008C45.9159 17.0008 45.9758 15.8751 45.8016 15.701C45.7419 15.6414 45.7071 15.4863 45.7071 15.2804C45.707 14.7401 45.5823 13.593 45.4811 13.2015C45.4195 12.964 45.4072 12.8081 45.4461 12.7608C45.551 12.6332 45.3828 11.3967 45.2607 11.3967C45.1706 11.3967 45.019 11.0465 45.0529 10.9169C45.1351 10.603 43.819 7.60228 43.6904 7.81039C43.6649 7.85179 43.5361 7.71704 43.3767 7.48202C43.2279 7.26273 43.0398 7.0033 42.9584 6.90539C42.8772 6.80747 42.8106 6.66107 42.8106 6.57985C42.8106 6.25824 41.7032 5.4565 40.3549 4.80227C38.2884 3.79951 36.2349 3.1544 33.8018 2.7437C32.8164 2.5773 30.1845 2.43326 29.304 2.49765ZM23.5267 4.00431C22.8667 4.20722 23.5918 5.15992 24.4083 5.16229C24.6532 5.16307 24.6512 5.1785 24.4573 4.81376C24.3716 4.65256 24.2833 4.42383 24.2609 4.30514C24.1911 3.93268 24.0062 3.85681 23.5267 4.00431ZM22.2443 12.0169C21.9864 12.1791 21.9516 12.3511 22.0361 13.0469C22.1953 14.3549 22.025 15 21.2544 16.0094L20.8816 16.4977L20.926 16.8902C20.9783 17.352 21.211 18.0737 21.6327 19.0819C21.9566 19.8567 22.047 20.0178 22.4078 20.4641C22.5337 20.6199 22.7467 20.8861 22.881 21.0556C23.0819 21.3094 23.1321 21.344 23.1644 21.2519C23.21 21.1219 23.6231 21.5847 23.5913 21.73C23.5688 21.8325 24.4308 22.4893 24.5356 22.4493C24.5797 22.4326 24.8012 22.5458 25.0277 22.7008C25.3396 22.9145 25.4049 22.9828 25.2969 22.9828C25.0702 22.9828 25.2379 23.0997 25.7103 23.2712C25.9411 23.3551 26.257 23.4235 26.4124 23.4235C26.7194 23.4235 27.1316 23.566 27.1316 23.6723C27.1316 23.7675 27.3602 23.7537 27.5688 23.6458C27.9872 23.4294 28.7058 22.187 28.7058 21.6798C28.7058 21.3628 28.7345 21.3976 27.6176 20.3569C25.761 18.6268 25.4274 16.8031 26.649 15.0613C27.336 14.0818 27.3725 13.6623 26.8192 13.1088C26.4579 12.7477 26.2972 12.6979 25.3371 12.6509C24.3814 12.6038 24.1723 12.5473 23.5184 12.1588C23.0506 11.8809 22.5495 11.8251 22.2443 12.0169Z" fill="#E1EAF0"/>
<path fill-rule="evenodd" clip-rule="evenodd" d="M19.9844 4.93692C17.7092 5.81328 15.7082 7.37283 16.5786 7.59117C16.7993 7.64658 17.0288 7.49577 17.5878 6.92796C18.3724 6.13079 19.2065 5.82256 20.5396 5.8372C21.3912 5.84665 21.4125 5.83295 21.2413 5.3851C21.0038 4.76313 20.7086 4.65782 19.9844 4.93692ZM22.2287 11.49C21.6297 11.6331 21.4904 11.8413 21.5211 12.5475C21.5877 14.0781 21.5656 14.5615 21.4162 14.8424C21.0263 15.5753 20.5311 15.8765 19.6483 15.9182C17.9961 15.9959 16.9432 15.0894 16.4789 13.1896C16.2515 12.2591 16.0591 12.1566 15.1033 12.457C14.4297 12.6687 14.0295 12.7676 12.9008 13.0009C11.6317 13.2635 11.6101 13.2757 11.4774 13.8117C11.3886 14.1705 11.3583 14.2299 11.3279 14.1047C11.2923 13.9585 11.2795 13.9685 11.1427 14.2511C10.9716 14.6045 10.9883 14.8984 11.215 15.533C11.3491 15.9084 11.3504 15.9338 11.2504 16.2256C11.0804 16.7218 11.0461 17.3294 11.1742 17.5774C11.2692 17.7606 11.288 17.7718 11.325 17.6665C11.3597 17.5675 11.3861 17.5931 11.4729 17.8099C11.5966 18.1187 11.6049 18.2056 11.4977 18.0651C11.4354 17.9834 11.4215 18.054 11.4234 18.4429C11.4286 19.4733 11.4318 19.4877 11.7096 19.8088C11.9303 20.0638 11.9612 20.1345 11.9284 20.3091C11.8996 20.4632 11.9154 20.5219 11.9934 20.552C12.0671 20.5801 12.0871 20.6408 12.0633 20.7639C12.0437 20.8654 12.0821 21.0574 12.1565 21.2312C12.2792 21.5171 12.2796 21.5322 12.1701 21.7177L12.0569 21.9091L12.3791 22.3705C12.5562 22.6242 12.75 22.9811 12.8097 23.1634C12.8846 23.3924 12.9855 23.547 13.1365 23.6638C13.2566 23.7567 13.3932 23.9177 13.4401 24.0216L13.5256 24.2105L13.528 24.0248C13.5319 23.7342 13.6426 23.9116 13.7046 24.308C13.7452 24.5674 13.8231 24.7396 14.007 24.977C14.1432 25.1529 14.3039 25.3781 14.364 25.4778C14.4242 25.5773 14.6168 25.8288 14.7922 26.0366C15.0647 26.3595 15.0933 26.4173 14.9893 26.4336C14.8563 26.4546 14.8756 26.6704 15.0427 27.026C15.1448 27.2439 15.7578 27.7053 15.945 27.7053C16.1658 27.7053 16.5529 28.0941 16.5529 28.3159C16.5529 28.5882 17.6728 29.398 17.8309 29.2399C17.961 29.1097 19.0716 30.1627 19.0716 30.4163C19.0716 30.5531 19.1263 30.6049 19.4022 30.7293C19.584 30.8113 19.8068 30.9451 19.8971 31.0268L20.0615 31.1751L20.3379 30.9171C21.2053 30.1072 22.4568 29.6214 23.9756 29.5046C24.6328 29.454 24.6764 29.4301 24.9615 28.9608C25.2056 28.5588 25.6396 28.1715 26.1202 27.9269C26.5569 27.7046 26.6781 27.5345 26.8455 26.9093C27.0492 26.1478 27.1424 25.9291 27.6861 24.9375C28.2744 23.8642 28.8047 22.8098 28.8592 22.6049C28.8822 22.5183 28.7926 22.6458 28.6599 22.8882C27.9364 24.211 26.9919 25.3755 26.6424 25.3755C26.3677 25.3755 25.364 25.029 24.7872 24.7349C24.5009 24.5888 24.2345 24.4753 24.1955 24.4826C24.1564 24.49 24.036 24.4133 23.9279 24.3122C23.688 24.0881 23.3176 23.8642 23.1867 23.8642C23.1337 23.8642 22.9566 23.7296 22.7933 23.5651C22.6299 23.4006 22.413 23.1924 22.311 23.1022C21.3667 22.2678 20.3976 20.9875 20.1057 20.1882C20.0283 19.9763 19.8822 19.6463 19.781 19.4549C19.6799 19.2636 19.5486 18.9095 19.4893 18.6678C19.4301 18.4263 19.338 18.0912 19.2848 17.9232C19.1516 17.5031 19.1335 17.4081 19.0957 16.9266C19.057 16.4325 19.0539 16.4355 19.8069 16.2382C21.3936 15.8226 21.8995 14.8314 21.6351 12.656C21.5312 11.8018 22.3044 11.3088 23.2905 11.6006C23.4 11.6331 23.3904 11.6213 23.259 11.5619C22.9621 11.4279 22.5955 11.4023 22.2287 11.49Z" fill="#8ED3B8"/>
<path fill-rule="evenodd" clip-rule="evenodd" d="M28.7058 1.60421C28.6538 1.61775 28.4714 1.64719 28.3002 1.6697C27.6161 1.76021 27.4606 2.13456 27.7364 3.02665C28.2686 4.74835 27.6983 5.77566 26.5464 5.16976C25.5402 4.64036 25.2569 4.33465 25.1478 3.66089C25.056 3.09403 24.6017 2.84263 23.8823 2.96038C23.6781 2.99391 23.3267 3.02209 23.1016 3.02303C21.9114 3.02854 21.6916 3.37376 22.1607 4.50072C22.5308 5.38967 22.8806 5.71002 23.8188 6.01935C25.0628 6.42943 25.4097 6.92152 24.8362 7.46241C24.3457 7.92491 23.7244 7.90822 22.1439 7.39C20.1714 6.74316 19.3799 6.90042 18.1272 8.18811C16.9952 9.35176 15.69 9.25699 15.0418 7.96411C14.4754 6.83446 14.0093 7.0284 13.8144 8.4743C13.6063 10.0184 13.3239 10.3477 12.312 10.2259C11.3371 10.1085 10.862 10.1466 10.5925 10.3635C9.88157 10.936 9.89306 11.5769 10.6161 11.6853C11.2053 11.7737 13.4751 11.5399 14.5065 11.2847C16.5596 10.7767 17.1937 11.0912 17.6208 12.8299C17.9565 14.1962 18.4072 14.749 19.3007 14.8902C20.2963 15.0478 20.7577 14.3756 20.5644 13.0494C20.3821 11.7992 20.4803 11.3755 21.0464 10.9689C21.9769 10.3007 23.1073 10.3081 24.2073 10.9894C24.82 11.3689 24.9264 11.4023 25.7112 11.4626C27.9256 11.6323 29.0338 13.6074 27.8549 15.2832C26.6804 16.9527 26.8424 18.0306 28.4871 19.4896C30.4826 21.2594 30.494 21.4427 28.8287 24.8717C28.0559 26.4628 27.938 26.8062 27.8566 27.7024C27.7973 28.3571 27.7165 28.4817 27.1772 28.7512C25.7741 29.452 25.7252 30.1267 27.0124 31.0238C27.9174 31.6543 28.1575 31.9976 27.8198 32.1783C27.6396 32.2748 27.4787 32.2089 26.5937 31.676C25.2484 30.8658 25.1314 30.8219 24.3295 30.8247C22.6225 30.8307 21.7776 31.4666 21.8637 32.6808C21.9566 33.9879 22.1996 34.3214 23.9202 35.5029C24.4916 35.8953 25.1204 36.3314 25.3175 36.4721L25.6759 36.7279L26.5523 36.7783C27.0343 36.8061 27.7644 36.8729 28.1748 36.9266C30.3203 37.208 31.0642 36.7693 30.0583 35.8158C29.4664 35.2548 29.5635 34.9936 30.4172 34.8507C30.7053 34.8024 31.1395 34.6911 31.3819 34.6032C31.7781 34.4597 31.8831 34.4474 32.4209 34.4814C32.85 34.5085 33.1702 34.4902 33.5535 34.4165C34.6527 34.2053 36.0725 34.2253 38.4658 34.4855C39.9631 34.6482 41.4942 34.6323 41.9605 34.4493C42.8518 34.0993 43.0375 34.0507 43.5032 34.0452C44.1828 34.0371 44.3561 34.1177 44.9155 34.7022C45.6425 35.4613 45.7141 35.4851 47.2183 35.4668C49.4805 35.4394 49.8708 35.5808 50.3881 36.6152C50.7061 37.2509 50.9552 37.5665 51.3286 37.8059C52.2269 38.3821 52.2056 38.7041 51.1188 40.9974C50.3981 42.5181 50.3341 42.693 50.2058 43.4908C50.089 44.2162 49.9662 44.4721 49.4524 45.0614C49.0083 45.5705 48.8871 45.8463 48.7931 46.5608C48.6409 47.7188 47.9012 48.5082 45.4021 50.18C45.0786 50.3965 44.5264 50.841 44.175 51.1678C43.2521 52.0265 43.1424 52.0645 41.1971 52.1965C39.6374 52.3023 39.3223 52.453 38.4343 53.5167C37.824 54.248 37.6404 54.3508 35.6108 55.0987C32.2534 56.3359 32.0319 55.8044 34.7173 52.9553C37.1941 50.3274 37.5842 49.6671 37.5842 48.1025C37.5842 46.6104 37.3977 46.2672 36.2088 45.5728C35.801 45.3345 35.3525 45.0056 35.0655 44.7341C34.8058 44.4884 34.3949 44.1233 34.1525 43.9228C33.91 43.7222 33.5025 43.3844 33.2467 43.172C32.9712 42.9435 32.6603 42.6064 32.484 42.3453C32.2186 41.9523 32.1288 41.8733 31.6582 41.618C30.8818 41.1969 30.8199 41.0587 30.8838 39.8895C30.9965 37.828 30.9866 37.816 29.1494 37.8026C28.3574 37.7968 27.7 37.7574 27.3054 37.6924C26.1989 37.5098 26.0739 37.5366 25.4669 38.0868C24.5551 38.913 22.9944 38.9433 20.1107 38.191C17.6381 37.5457 16.7452 37.0876 16.4549 36.3147C16.1579 35.524 15.9409 35.3203 15.095 35.038C14.1078 34.7087 13.0624 33.5926 11.2344 30.9166C10.9622 30.5183 10.529 29.9704 10.2717 29.699C9.70022 29.0964 9.58908 28.8554 9.2807 27.5478C9.14516 26.9734 8.89974 26.175 8.70989 25.6903C8.05078 24.0086 8.01646 23.2257 8.54697 21.9845C8.77758 21.4449 8.89423 21.019 9.0633 20.0988C9.36019 18.4829 9.13996 18.0281 7.62606 17.1311C6.33286 16.3649 6.20567 16.4356 5.38189 18.3812C-1.71299 35.1337 7.88691 54.3267 25.0851 57.7736C41.546 61.0728 56.9181 48.2211 57.3978 30.7592C57.8348 14.8518 45.838 1.80193 30.5948 1.60327C29.6078 1.59051 28.7577 1.59083 28.7058 1.60421ZM32.1092 1.76525C46.0787 2.84861 56.8034 14.5526 57.2061 29.1535C57.7172 47.6915 41.0926 61.7047 23.8258 57.2902C9.82946 53.7119 0.943458 39.292 3.71309 24.6513C4.32372 21.4233 5.69894 17.4403 6.36356 16.9746C6.76404 16.6943 8.55216 17.7589 8.87487 18.47C9.13005 19.0318 8.88982 20.7108 8.39033 21.8559C7.79907 23.2114 7.83905 23.991 8.59907 25.9301C8.75256 26.3217 8.9742 27.0603 9.09164 27.5716C9.40679 28.9445 9.48912 29.1277 10.0768 29.762C10.3535 30.0607 10.7527 30.5632 10.9635 30.8785C12.7968 33.6192 13.9926 34.8946 15.0418 35.2283C15.8089 35.4725 15.983 35.6364 16.2652 36.3802C16.579 37.2069 17.2346 37.575 19.6414 38.2753C22.6868 39.1618 24.621 39.1323 25.6844 38.1834C26.2014 37.7222 26.2415 37.7163 27.6038 37.9041C27.8463 37.9375 28.5471 37.9659 29.1613 37.967L30.2779 37.969L30.4712 38.1422C30.7266 38.3709 30.799 38.706 30.7217 39.3012C30.5181 40.869 30.6716 41.3151 31.584 41.808C31.9459 42.0033 32.0599 42.1094 32.3264 42.4976C32.4996 42.75 32.7858 43.0739 32.9625 43.2175C33.7846 43.8858 34.4462 44.4545 34.9095 44.8914C35.2196 45.1838 35.673 45.5202 36.0842 45.7628C37.2599 46.4566 37.3638 46.6518 37.3638 48.1698V49.2087L37.1661 49.5869C36.8346 50.2208 35.831 51.4553 34.515 52.8483C32.8952 54.5629 32.438 55.3748 32.8567 55.7937C33.2039 56.1408 33.6046 56.0654 35.8841 55.2251C37.9401 54.467 37.9853 54.4402 38.6876 53.554C39.4355 52.6104 39.8035 52.4662 41.7401 52.3588C43.1373 52.2814 43.3532 52.1973 44.2427 51.384C44.5806 51.0749 45.2962 50.5186 45.833 50.1474C48.272 48.4608 48.8181 47.8482 49.0053 46.5893C49.1104 45.8821 49.225 45.6364 49.7033 45.094C50.1675 44.5672 50.2837 44.3235 50.3931 43.6465C50.5348 42.7704 50.5841 42.6343 51.3409 41.0229C52.3934 38.7825 52.4383 38.3101 51.6499 37.7656C51.0991 37.3851 50.9458 37.2126 50.6511 36.6421C49.9958 35.3733 49.6809 35.2445 47.3127 35.276C45.7977 35.2963 45.6891 35.262 45.0733 34.5691C44.3939 33.8046 43.4114 33.6415 42.3241 34.1127C41.4573 34.4883 40.5728 34.5258 38.1824 34.2878C35.8528 34.0557 34.5618 34.0456 33.4984 34.2512C33.3118 34.2874 32.8081 34.3169 32.3788 34.3169C31.6956 34.3169 31.5535 34.3358 31.2372 34.4689C31.0387 34.5525 30.6552 34.6517 30.3851 34.6892C29.4039 34.8257 29.241 35.2061 29.8707 35.8911C30.6211 36.7073 30.0303 37.0393 28.2965 36.7761C28.054 36.7392 27.4252 36.6819 26.8989 36.6487C25.7952 36.579 25.6877 36.5439 25.0119 36.032C24.7405 35.8264 24.1693 35.4253 23.7425 35.1405C22.4986 34.3111 22.2478 34.0173 22.0998 33.2165C21.8769 32.0113 22.1096 31.5365 23.0898 31.1956C24.4139 30.7351 25.0788 30.8784 26.8339 32.0023C27.3817 32.3532 27.6803 32.4489 27.8922 32.3414C28.3853 32.0913 28.142 31.6167 27.1945 30.9796C25.9654 30.1531 25.9753 29.5337 27.2279 28.9046C27.8554 28.5896 27.9273 28.4765 28.0155 27.6661C28.1148 26.7537 28.1392 26.6853 28.9872 24.9347C30.6009 21.6037 30.6066 21.0746 29.0423 19.7548C27.0746 18.0945 26.8148 17.1355 27.9017 15.5435C29.2262 13.6036 28.1935 11.5284 25.8033 11.3266C25.167 11.2727 25.0385 11.2409 24.6758 11.0475C23.3115 10.3196 22.7364 10.1815 21.9218 10.3862C20.7706 10.6757 20.2845 11.286 20.3539 12.3544C20.4727 14.1842 20.474 14.0578 20.3355 14.278C19.9561 14.8808 19.0931 14.8937 18.4837 14.3057C18.1398 13.9739 17.9679 13.5958 17.7426 12.6755C17.5428 11.8598 17.4402 11.5866 17.2538 11.3741C16.8681 10.9348 15.6965 10.8217 14.5065 11.1089C13.1831 11.4284 10.9622 11.6088 10.5375 11.4313C10.0886 11.2438 10.3598 10.5913 10.9862 10.3522C11.2547 10.2495 11.3035 10.2497 11.923 10.3559C13.336 10.598 13.7037 10.3004 13.942 8.7205C14.1451 7.37504 14.4338 7.20393 14.9081 8.14766C15.1561 8.64132 15.3964 8.84471 15.9269 9.00984C16.8834 9.30752 17.4163 9.13467 18.3205 8.23329C19.5056 7.05218 20.2149 6.92608 22.1256 7.55639C23.8557 8.12703 24.7621 8.05006 25.1503 7.29932C25.4528 6.71435 25.107 6.30144 23.989 5.91278C22.999 5.56866 22.6023 5.20785 22.2804 4.3592C21.9677 3.53496 22.1074 3.28435 22.9234 3.20501C24.7978 3.02272 24.8258 3.03137 25.0236 3.85609C25.1619 4.43303 25.5158 4.80801 26.313 5.22328C27.8398 6.01825 28.4607 5.04791 27.8514 2.81886C27.6699 2.15486 27.8571 1.86143 28.5239 1.76462C29.0343 1.69048 31.1494 1.69079 32.1092 1.76525ZM26.0118 2.61642C25.535 2.95046 25.5662 3.9115 26.0693 4.38754C26.8397 5.11671 27.6666 4.618 27.4464 3.557C27.2803 2.75699 26.5214 2.25955 26.0118 2.61642ZM26.911 2.97769C27.4272 3.49387 27.3482 4.47019 26.79 4.47019C26.2374 4.47019 25.7505 3.76731 25.8976 3.18155C26.0123 2.72409 26.5494 2.6161 26.911 2.97769ZM19.8588 4.18179C17.3861 5.01911 15.4825 6.3907 15.4825 7.33522C15.4825 8.69012 16.7973 8.86549 18.0359 7.67556C19.282 6.47838 19.9353 6.35371 22.1074 6.89822C23.3113 7.19999 23.6049 7.23211 23.7582 7.07878C23.9931 6.84391 23.8727 6.68807 23.1781 6.32742C22.6284 6.04217 22.2708 5.66657 21.9385 5.02572C21.3538 3.89812 21.0547 3.77691 19.8588 4.18179ZM21.1381 4.30678C21.2428 4.36094 21.4169 4.58715 21.5866 4.88924C21.7393 5.16094 21.9688 5.54048 22.0968 5.73253C22.6999 6.63753 22.644 6.70932 21.5037 6.4946C19.8634 6.18574 18.9092 6.44296 17.8909 7.46823C17.1639 8.20008 16.7735 8.36836 16.2803 8.1623C15.5036 7.83785 15.5343 6.97221 16.3455 6.32726C18.0556 4.96716 20.4573 3.95479 21.1381 4.30678ZM49.4536 7.42967C49.6241 7.60283 49.7779 7.74451 49.7952 7.74451C49.8125 7.74451 49.6871 7.60283 49.5166 7.42967C49.3461 7.25651 49.1923 7.11483 49.175 7.11483C49.1577 7.11483 49.2831 7.25651 49.4536 7.42967ZM10.6948 7.6658L10.3507 8.02786L10.7127 7.68374C11.0491 7.36387 11.1036 7.30373 11.0569 7.30373C11.0471 7.30373 10.8842 7.46666 10.6948 7.6658ZM21.9997 10.9138C21.5211 11.073 20.9708 11.4873 20.9581 11.6979C20.9565 11.7226 20.9297 11.8705 20.8984 12.0263C20.8587 12.224 20.8708 12.5096 20.9384 12.9708C21.1673 14.5356 20.6993 15.3309 19.5517 15.3271C18.3666 15.3233 17.5575 14.4839 17.1806 12.8677C16.8732 11.5492 16.3118 11.302 14.6325 11.7456C13.9017 11.9388 13.0811 12.0658 12.0193 12.1502C9.79861 12.3268 9.39971 12.4858 8.23921 13.657C6.80339 15.1062 6.80654 15.99 8.25023 16.8372C9.22418 17.4088 9.75248 18.1548 9.75248 18.9584C9.75248 19.8511 9.39766 21.684 9.11242 22.2652C8.69258 23.1203 8.68817 23.8137 9.09573 24.9558C9.56673 26.2762 9.81545 27.0619 9.94611 27.6423C10.1282 28.4511 10.3028 28.7945 10.8195 29.3613C11.0605 29.6258 11.4323 30.1017 11.6456 30.419C13.3698 32.9832 14.4941 34.1772 15.4884 34.5004C16.3296 34.7739 16.5396 34.9533 16.9308 35.7336C17.3406 36.5508 17.4813 36.6604 18.661 37.079C22.2735 38.361 24.9277 38.4797 24.9277 37.3592C24.9277 36.8924 24.7531 36.7147 23.3765 35.7801C22.3054 35.0531 21.819 34.6114 21.6376 34.2015C21.3324 33.5115 21.2337 31.9358 21.467 31.4784C21.7459 30.9317 22.9508 30.4156 24.2363 30.2921C25.1172 30.2074 25.1917 30.1637 25.6355 29.4684C25.9004 29.0531 26.16 28.8028 26.6403 28.4991C27.1638 28.1681 27.2855 27.9719 27.5051 27.1053C27.6712 26.4498 27.7987 26.1493 28.4824 24.8023C29.9141 21.9817 30.0134 21.176 29.0313 20.3517C26.6363 18.342 26.2251 17.1665 27.3523 15.5525C27.9253 14.7319 27.9807 14.5904 27.9812 13.9468C27.9823 12.6793 27.2238 11.9482 25.779 11.824C24.736 11.7343 24.7229 11.7308 24.2255 11.4058C23.4303 10.8863 22.6207 10.7075 21.9997 10.9138ZM23.3036 11.1437C23.5259 11.2123 23.8662 11.382 24.0602 11.5208C24.5527 11.8736 24.6708 11.909 25.5314 11.9633C26.8584 12.0471 27.5364 12.5178 27.7975 13.5369C27.9613 14.1762 27.8618 14.488 27.1671 15.5127C26.111 17.0703 26.5463 18.5334 28.5608 20.1964C29.8661 21.2741 29.8428 21.7071 28.3187 24.6702C27.5912 26.0848 27.4793 26.3453 27.3197 26.9951C27.1171 27.8197 27.0308 27.9685 26.5913 28.2501C25.9305 28.6736 25.6904 28.8991 25.4253 29.3454C25.0769 29.9318 25.0083 29.9696 24.1005 30.0751C21.9312 30.3271 21.0484 30.9919 21.0615 32.3635C21.0799 34.2948 21.3803 34.8242 23.1347 36.017C24.474 36.9277 24.682 37.1599 24.4605 37.4978C23.9175 38.3267 17.8956 36.9735 17.4056 35.9125C16.9532 34.933 16.9168 34.8746 16.6273 34.6624C16.4652 34.5436 16.0985 34.3611 15.8125 34.2567C15.5265 34.1524 15.1842 34.0118 15.0522 33.9443C14.5574 33.6919 13.3709 32.292 12.1124 30.4758C11.7405 29.939 11.2613 29.3141 11.0477 29.0871C10.5926 28.6033 10.4116 28.2495 10.2444 27.5164C10.1186 26.9651 9.84205 26.0961 9.37279 24.7773C8.99105 23.7041 8.98821 23.2306 9.35862 22.4583C9.6352 21.8822 9.65551 21.7975 9.91887 20.1177C10.1822 18.4383 9.88723 17.5382 8.85141 16.8599C8.67164 16.7421 8.3546 16.5345 8.14681 16.3983C7.19961 15.7776 7.29674 15.0621 8.49313 13.8448C9.57822 12.7405 9.86693 12.6228 12.0193 12.4047C13.4326 12.2617 13.7371 12.2113 14.718 11.9586C16.2676 11.5596 16.6586 11.7461 17.0001 13.0475C17.4005 14.5738 17.9978 15.2507 19.1532 15.4878C20.6149 15.7875 21.399 14.7829 21.1174 12.9708C20.8793 11.4382 21.7908 10.6764 23.3036 11.1437ZM59.2657 29.7517C59.266 29.9941 59.2774 30.0856 59.2911 29.9549C59.3048 29.8243 59.3045 29.6259 59.2906 29.5142C59.2766 29.4024 59.2654 29.5093 59.2657 29.7517ZM27.4004 33.67C27.0437 33.7349 26.9002 34.2172 27.1602 34.4771C27.4943 34.8113 28.0761 34.5776 28.0761 34.1091C28.0761 33.7895 27.7849 33.6003 27.4004 33.67ZM27.7653 33.8783C27.949 33.9765 27.9294 34.3003 27.7343 34.3891C27.3564 34.5615 27.0097 34.178 27.318 33.9285C27.4799 33.7972 27.5908 33.7848 27.7653 33.8783ZM42.4707 34.927C41.46 35.2856 40.9308 35.2841 37.2868 34.9121C35.9562 34.7762 34.2929 34.7923 33.5889 34.948C33.2789 35.0164 32.8311 35.0725 32.5935 35.0725C31.2322 35.0725 31.0482 35.3928 31.3491 37.239C31.5384 38.4 31.5521 38.5768 31.5146 39.3858C31.465 40.4573 31.5535 40.7251 32.043 40.9837C32.6335 41.2956 32.8068 41.4437 33.0795 41.8692C33.301 42.2144 33.5201 42.4329 34.164 42.9494C34.6079 43.3055 35.1993 43.8111 35.4784 44.0729C35.7857 44.3615 36.1901 44.6609 36.504 44.8325C38.1978 45.7586 38.4018 46.0885 38.4505 47.9807C38.4969 49.7862 38.3541 50.1307 36.7999 51.9666C36.452 52.3774 36.0344 52.8719 35.8716 53.0652C35.3495 53.6859 35.3333 53.9628 35.8189 53.9628C36.4032 53.9628 37.1502 53.5829 37.6245 53.0449C38.5164 52.0327 38.6123 51.9445 39.0592 51.7252C39.6285 51.4458 39.898 51.395 41.2049 51.3205C42.6684 51.2371 42.7901 51.1943 43.5365 50.501C43.8693 50.192 44.4442 49.7344 44.8142 49.4842C47.3299 47.7822 47.7678 47.3175 47.9408 46.1655C48.0551 45.4045 48.2006 45.0888 48.6956 44.5272C49.167 43.9926 49.2723 43.7653 49.3888 43.0307C49.4763 42.4784 49.5485 42.2804 50.0293 41.2748C51.1813 38.8657 51.1597 38.9872 50.5535 38.3182C50.33 38.0716 50.0657 37.6808 49.9012 37.3538C49.359 36.2761 49.3116 36.2542 47.4072 36.2006C45.4728 36.1462 45.2872 36.0849 44.5192 35.2477C43.929 34.604 43.5483 34.5445 42.4707 34.927ZM43.787 35.127C43.9421 35.1973 44.1448 35.3782 44.3131 35.5965C44.8578 36.3024 45.5526 36.5832 46.7597 36.5848C48.5566 36.5872 49.0648 36.7237 49.275 37.2605C49.3385 37.4231 49.5394 37.8511 49.7212 38.2119C50.0943 38.9521 50.1058 39.0327 49.9145 39.5682C49.6954 40.1812 49.4816 40.449 49.0815 40.6113C48.7923 40.7287 48.7234 40.7879 48.6631 40.9704C48.6234 41.0905 48.5751 41.173 48.5557 41.1534C48.5362 41.1341 48.4891 41.1808 48.4509 41.2575C48.4125 41.3345 48.1795 41.4961 47.9296 41.6191C47.6811 41.7414 47.4177 41.919 47.3444 42.0134C47.271 42.108 47.1913 42.1796 47.1674 42.1727C47.0975 42.1523 46.2889 42.5532 46.2399 42.6325C46.2153 42.6722 46.2767 42.6558 46.3762 42.5962L46.5571 42.4877L46.4014 42.6162C46.3158 42.6869 46.2235 42.7309 46.1963 42.7141C46.1692 42.6974 46.0634 42.7431 45.9613 42.8158C45.8591 42.8885 45.6866 42.979 45.5778 43.017C45.4601 43.058 45.4089 43.1037 45.4514 43.13C45.4919 43.155 45.413 43.2068 45.2688 43.2501C45.1292 43.292 44.9484 43.3979 44.8672 43.4854C44.7099 43.6551 44.3803 43.7581 43.9871 43.7605C43.6818 43.7625 43.5331 43.8426 43.2198 44.1737C43.0046 44.401 42.9037 44.4542 42.5272 44.5381C42.124 44.6278 42.0595 44.6655 41.7716 44.9786C41.489 45.2857 41.4248 45.3241 41.1441 45.3537C40.9045 45.379 40.8003 45.4258 40.6983 45.5536C40.6131 45.6605 40.4234 45.7647 40.1711 45.8433C39.4468 46.0685 39.2412 46.0081 38.447 45.3362C38.1851 45.1146 37.7125 44.8271 37.1341 44.5376C36.4349 44.1877 36.1306 43.9941 35.7896 43.6822C35.5472 43.4604 35.0372 43.0444 34.6562 42.7574C33.7869 42.1027 33.5933 41.9213 33.3331 41.5183C33.0959 41.1508 32.824 40.9238 32.4364 40.7693C31.9029 40.557 31.8556 40.4356 31.8649 39.3038C31.8718 38.4359 31.8486 38.1889 31.6745 37.2787C31.3517 35.5902 31.443 35.3878 32.5279 35.3869C32.8294 35.3865 33.2257 35.3327 33.5543 35.2475C34.1663 35.0885 36.0919 35.0571 37.049 35.1904C37.536 35.2581 39.5134 35.4612 40.4807 35.5427C41.1715 35.6009 41.9918 35.4871 42.7189 35.2321C43.4467 34.9769 43.4548 34.976 43.787 35.127Z" fill="#2B6151"/>
<path fill-rule="evenodd" clip-rule="evenodd" d="M28.5241 1.76464C27.8572 1.86145 27.6701 2.15488 27.8516 2.81888C28.4608 5.04793 27.8399 6.01827 26.3131 5.2233C25.5159 4.80803 25.1621 4.43305 25.0237 3.85611C24.826 3.03139 24.7979 3.02274 22.9236 3.20503C22.1075 3.28437 21.9679 3.53498 22.2805 4.35922C22.6024 5.20787 22.9991 5.56868 23.9891 5.9128C25.1071 6.30146 25.453 6.71437 25.1504 7.29934C24.7622 8.05008 23.8558 8.12705 22.1257 7.55641C20.215 6.9261 19.5057 7.0522 18.3206 8.23331C17.4164 9.1347 16.8835 9.30754 15.9271 9.00986C15.3966 8.84473 15.1562 8.64134 14.9082 8.14768C14.4339 7.20395 14.1452 7.37506 13.9422 8.72053C13.7038 10.3004 13.3361 10.5981 11.9231 10.356C11.3036 10.2497 11.2548 10.2495 10.9863 10.3522C10.3599 10.5913 10.0887 11.2438 10.5376 11.4313C10.9624 11.6089 13.1832 11.4285 14.5067 11.1089C15.6966 10.8218 16.8683 10.9348 17.2539 11.3741C17.4403 11.5867 17.543 11.8598 17.7427 12.6755C17.968 13.5958 18.1399 13.9739 18.4839 14.3058C19.0932 14.8937 19.9562 14.8808 20.3356 14.2781C20.4741 14.0578 20.4728 14.1842 20.354 12.3544C20.2846 11.286 20.7707 10.6757 21.9219 10.3862C22.7365 10.1815 23.3116 10.3196 24.6759 11.0475C25.0386 11.241 25.1671 11.2728 25.8034 11.3266C28.1936 11.5284 29.2263 13.6037 27.9018 15.5435C26.815 17.1355 27.0747 18.0945 29.0424 19.7548C30.6067 21.0746 30.601 21.6037 28.9873 24.9347C28.1393 26.6854 28.1149 26.7537 28.0156 27.6661C27.9274 28.4765 27.8555 28.5897 27.228 28.9047C25.9754 29.5337 25.9655 30.1532 27.1947 30.9796C28.1422 31.6167 28.3854 32.0913 27.8923 32.3414C27.6804 32.449 27.3818 32.3532 26.834 32.0024C25.0789 30.8784 24.414 30.7351 23.0899 31.1956C22.1097 31.5366 21.877 32.0113 22.0999 33.2165C22.2479 34.0173 22.4987 34.3111 23.7426 35.1405C24.1694 35.4253 24.7406 35.8264 25.012 36.032C25.6878 36.5439 25.7954 36.579 26.899 36.6487C27.4253 36.682 28.0542 36.7393 28.2966 36.7761C30.0304 37.0393 30.6212 36.7073 29.8708 35.8911C29.2411 35.2062 29.404 34.8257 30.3852 34.6892C30.6554 34.6517 31.0388 34.5526 31.2373 34.469C31.5536 34.3358 31.6957 34.3169 32.3789 34.3169C32.8082 34.3169 33.312 34.2875 33.4985 34.2513C34.5619 34.0457 35.8529 34.0557 38.1825 34.2878C40.5729 34.5258 41.4575 34.4883 42.3242 34.1127C43.4115 33.6416 44.394 33.8047 45.0734 34.5691C45.6892 35.262 45.7978 35.2964 47.3128 35.2761C49.681 35.2446 49.9959 35.3733 50.6512 36.6421C50.9459 37.2126 51.0992 37.3852 51.65 37.7656C52.4384 38.3102 52.3935 38.7826 51.341 41.023C50.5842 42.6343 50.5349 42.7705 50.3932 43.6465C50.2838 44.3236 50.1676 44.5672 49.7034 45.094C49.2252 45.6364 49.1106 45.8822 49.0054 46.5893C48.8182 47.8482 48.2721 48.4609 45.8331 50.1474C45.2963 50.5186 44.5807 51.075 44.2428 51.384C43.3533 52.1974 43.1374 52.2814 41.7402 52.3589C39.8036 52.4662 39.4356 52.6104 38.6877 53.554C37.9854 54.4403 37.9402 54.467 35.8842 55.2252C33.6048 56.0655 33.204 56.1409 32.8569 55.7938C32.4381 55.3749 32.8953 54.5629 34.5151 52.8483C35.8311 51.4553 36.8347 50.2208 37.1662 49.5869L37.3639 49.2088V48.1698C37.3639 46.6518 37.26 46.4566 36.0843 45.7628C35.6731 45.5203 35.2197 45.1839 34.9096 44.8914C34.4463 44.4545 33.7847 43.8858 32.9627 43.2175C32.7859 43.074 32.4997 42.75 32.3265 42.4977C32.06 42.1095 31.946 42.0034 31.5841 41.808C30.6717 41.3151 30.5182 40.869 30.7218 39.3013C30.7991 38.7061 30.7267 38.3709 30.4713 38.1422L30.278 37.969L29.1614 37.967C28.5472 37.9659 27.8464 37.9375 27.6039 37.9042C26.2416 37.7164 26.2015 37.7222 25.6845 38.1834C24.6212 39.1323 22.687 39.1618 19.6415 38.2754C17.2347 37.575 16.5791 37.207 16.2653 36.3802C15.9831 35.6364 15.809 35.4725 15.0419 35.2284C13.9927 34.8946 12.7969 33.6192 10.9636 30.8785C10.7528 30.5632 10.3536 30.0608 10.0769 29.762C9.48923 29.1277 9.4069 28.9445 9.09175 27.5716C8.97432 27.0603 8.75267 26.3217 8.59919 25.9301C7.83917 23.991 7.79918 23.2114 8.39045 21.8559C8.62044 21.3284 8.69742 21.0537 8.8764 20.1178C9.1766 18.5499 8.97164 18.1287 7.50559 17.2999C6.33676 16.6392 6.28245 16.6732 5.49598 18.5599C-1.2233 34.679 7.50292 53.117 23.8259 57.2902C41.0927 61.7047 57.7173 47.6915 57.2062 29.1535C56.8035 14.5526 46.0788 2.84863 32.1093 1.76527C31.1495 1.69081 29.0344 1.6905 28.5241 1.76464ZM33.0192 2.04375C46.0604 3.64265 55.8561 14.1633 56.8535 27.6423C58.3377 47.6997 39.8861 62.7202 21.6277 56.318C6.94943 51.1711 -0.416215 33.9347 5.63089 18.8834C6.36021 17.0677 6.42271 17.0208 7.40768 17.5464C8.76936 18.273 8.92693 18.6463 8.58281 20.3308C8.48207 20.8243 8.32339 21.3517 8.16392 21.7234C7.58163 23.0808 7.58871 24.0645 8.19194 25.6274C8.61918 26.734 8.67569 26.9152 8.90238 27.9022C9.18353 29.1269 9.30915 29.3911 9.91915 30.0403C10.1929 30.3318 10.6888 30.967 11.0211 31.4519C12.8187 34.0745 13.791 35.0919 14.8486 35.4565C15.5929 35.7129 15.789 35.8892 16.0184 36.5082C16.3535 37.4125 17.0502 37.8242 19.3517 38.4775C22.7968 39.4554 24.7085 39.4352 25.8416 38.409C26.2662 38.0246 26.389 37.9925 27.0651 38.0899C27.3614 38.1326 28.1707 38.1825 28.8633 38.2007C30.508 38.2442 30.5655 38.2834 30.4622 39.2913C30.2804 41.0658 30.4444 41.5577 31.3826 42.0514C31.7633 42.2515 31.8606 42.341 32.1134 42.7231C32.3393 43.0645 32.602 43.3265 33.2787 43.8852C33.7593 44.2819 34.3593 44.8119 34.6121 45.0631C35.0286 45.4773 35.4367 45.7665 36.2691 46.2375C36.9616 46.6293 37.1014 46.9822 37.0705 48.2605L37.0491 49.1458L36.8172 49.5551C36.495 50.1235 35.7003 51.1017 34.5661 52.3257C32.5142 54.5404 32.018 55.4462 32.548 56.0105C33.0014 56.493 33.6726 56.3817 36.3565 55.3796C38.0671 54.7408 38.2146 54.6511 38.8305 53.8739C39.6363 52.8573 39.8164 52.7855 41.9291 52.6389C43.3945 52.5374 43.4896 52.4998 44.387 51.6681C44.7534 51.3287 45.4652 50.7729 45.9904 50.4165C48.4456 48.7496 49.0652 48.0536 49.2908 46.7089C49.4193 45.9437 49.4449 45.8902 49.9727 45.2849C50.4625 44.7234 50.5395 44.5517 50.684 43.6991C50.8206 42.8929 50.9404 42.5734 51.7179 40.9395C52.7989 38.6678 52.7732 38.1589 51.5337 37.2764C51.2792 37.0952 51.1614 36.9386 50.8711 36.3948C50.1868 35.1131 50.0842 35.0681 47.7221 35.0162C45.7282 34.9722 45.8759 35.0133 45.2034 34.3156C44.4311 33.5145 43.4642 33.3859 42.181 33.9136L41.5828 34.1595L40.2919 34.1546C39.5549 34.1518 38.5554 34.1033 37.9621 34.0414C36.1773 33.8557 34.7431 33.8405 33.7132 33.9969C33.0604 34.0959 32.6947 34.12 32.2965 34.0901C31.8045 34.0531 31.7126 34.0658 31.1931 34.2431C30.8814 34.3493 30.4847 34.4535 30.3116 34.4748C29.2731 34.6021 28.9009 35.3752 29.5846 35.9849C30.179 36.5148 29.7157 36.7292 28.3515 36.5554C27.9057 36.4987 27.1855 36.4293 26.7512 36.4013C25.9104 36.347 25.8276 36.3208 25.3371 35.9563C25.1639 35.8275 24.6114 35.445 24.1092 35.106C22.5706 34.0677 22.425 33.8936 22.2833 32.9203C22.1528 32.0242 22.3712 31.6774 23.2567 31.3747C24.3942 30.9859 25.0619 31.1419 26.7197 32.1832C27.6258 32.7525 28.1355 32.7731 28.3361 32.2486C28.4915 31.8419 28.1689 31.3818 27.325 30.8063C26.2493 30.0727 26.2574 29.6554 27.3584 29.0821C28.0647 28.7143 28.1154 28.6317 28.2286 27.6666C28.3344 26.7652 28.4405 26.4699 29.2095 24.9347C30.8609 21.638 30.8257 20.9528 28.9223 19.3651C27.3725 18.0722 27.0983 17.0608 27.9633 15.8286C28.7144 14.7593 28.8806 14.0474 28.584 13.1706C28.1629 11.9251 27.2202 11.2205 25.8338 11.1149C25.1356 11.0618 24.9338 11 24.4375 10.6873C23.1535 9.8785 21.6167 9.92903 20.6391 10.8122C20.1187 11.2824 20.0198 11.7219 20.175 12.8773C20.3312 14.04 20.2126 14.416 19.6569 14.5202C18.8522 14.6711 18.2939 14.0303 17.9134 12.5195C17.7948 12.0492 17.6555 11.5829 17.6037 11.4832C17.2088 10.7237 16.0561 10.5297 14.2863 10.9249C14.0612 10.9751 13.707 11.0171 13.4992 11.0182C13.2914 11.0193 12.7991 11.0765 12.4054 11.1454C11.2303 11.351 10.6971 11.3044 10.6971 10.9962C10.6971 10.5675 11.2023 10.4416 12.112 10.6436C13.3312 10.9142 13.8701 10.4806 14.1322 9.0182C14.1915 8.68778 14.2861 8.37357 14.3502 8.29439L14.4635 8.15445L14.895 8.60419C15.9563 9.71069 17.207 9.63576 18.4736 8.38979C19.5804 7.30108 20.2422 7.15011 21.7165 7.65007C23.8201 8.3635 25.0169 8.26401 25.3643 7.34688C25.653 6.58498 25.2579 6.11964 23.9356 5.66455C23.1839 5.40575 22.7764 5.04856 22.5487 4.4488C22.2211 3.58598 22.3232 3.47862 23.6093 3.33332C24.5667 3.22518 24.6462 3.2765 24.8915 4.16229C25.075 4.82566 26.4087 5.72956 27.2033 5.72956C28.1134 5.72956 28.5064 4.64384 28.1455 3.1271C27.8601 1.92773 27.9566 1.88019 30.5949 1.91954C31.5226 1.93324 32.5463 1.98581 33.0192 2.04375ZM26.0628 2.89444C25.5787 3.3785 26.0825 4.47021 26.7901 4.47021C27.3483 4.47021 27.4273 3.49389 26.9111 2.97771C26.6588 2.72537 26.27 2.68727 26.0628 2.89444ZM26.7868 3.29869C27.1399 3.83754 26.7997 4.33671 26.3712 3.90838C26.1738 3.71082 26.1193 3.36685 26.2627 3.22344C26.3935 3.09263 26.6786 3.13356 26.7868 3.29869ZM19.7959 4.43054C18.1279 5.0366 16.2502 6.17537 15.8578 6.8189C15.5658 7.29793 15.7707 7.94933 16.2805 8.16232C16.7737 8.36838 17.1641 8.2001 17.891 7.46825C18.9094 6.44298 19.8635 6.18576 21.5038 6.49462C22.6441 6.70934 22.7 6.63755 22.0969 5.73255C21.969 5.5405 21.7394 5.16096 21.5867 4.88926C21.1653 4.139 20.8329 4.05383 19.7959 4.43054ZM21.0076 4.62967C21.1987 4.76348 21.7303 5.75679 21.7053 5.9331C21.6851 6.07447 21.6768 6.07572 20.8568 6.05447C19.4054 6.01716 18.5024 6.33484 17.7232 7.15704C16.8812 8.04551 16.0997 8.13713 16.0997 7.34736C16.0997 6.41229 20.2621 4.10751 21.0076 4.62967ZM22.1193 11.0784C21.2305 11.2907 20.9413 11.8368 21.1175 12.9708C21.3991 14.7829 20.615 15.7875 19.1534 15.4878C17.9979 15.2507 17.4007 14.5738 17.0002 13.0475C16.6587 11.7461 16.2677 11.5596 14.7181 11.9586C13.7372 12.2113 13.4327 12.2617 12.0194 12.4048C9.86704 12.6228 9.57833 12.7405 8.49324 13.8448C7.29686 15.0622 7.19973 15.7776 8.14692 16.3983C8.35471 16.5345 8.67176 16.7421 8.85153 16.8599C9.88735 17.5382 10.1824 18.4383 9.91899 20.1177C9.65563 21.7975 9.63532 21.8822 9.35873 22.4583C8.98833 23.2306 8.99116 23.7042 9.3729 24.7773C9.84217 26.0961 10.1188 26.9651 10.2445 27.5164C10.4117 28.2495 10.5927 28.6034 11.0478 29.0871C11.2615 29.3141 11.7406 29.9391 12.1125 30.4759C13.371 32.292 14.5575 33.6919 15.0523 33.9443C15.1843 34.0118 15.5266 34.1524 15.8126 34.2568C16.0986 34.3611 16.4653 34.5436 16.6274 34.6624C16.9169 34.8746 16.9533 34.933 17.4057 35.9125C17.8957 36.9735 23.9177 38.3267 24.4606 37.4979C24.6821 37.1599 24.4741 36.9277 23.1348 36.017C21.3804 34.8243 21.08 34.2949 21.0616 32.3635C21.0485 30.9919 21.9313 30.3271 24.1006 30.0751C25.0084 29.9696 25.077 29.9318 25.4254 29.3454C25.6905 28.8992 25.9306 28.6736 26.5914 28.2501C27.0309 27.9685 27.1172 27.8197 27.3198 26.9952C27.4794 26.3453 27.5913 26.0848 28.3188 24.6702C29.8429 21.7071 29.8662 21.2741 28.5609 20.1964C26.5464 18.5334 26.1111 17.0704 27.1673 15.5127C27.862 14.4881 27.9614 14.1762 27.7976 13.5369C27.5366 12.5178 26.8586 12.0471 25.5315 11.9634C24.6709 11.9091 24.5528 11.8736 24.0603 11.5209C23.4855 11.1094 22.7202 10.9348 22.1193 11.0784ZM23.3509 11.3899C23.5235 11.4554 23.8023 11.6101 23.9705 11.7337C24.4085 12.0551 24.5552 12.0983 25.4001 12.1549C26.5738 12.2337 27.1136 12.515 27.4727 13.2358C27.8001 13.8927 27.7093 14.3423 27.055 15.3051C25.8714 17.0466 26.2837 18.598 28.3936 20.3401C29.6291 21.3603 29.5978 21.804 28.0948 24.5755C27.3894 25.8764 27.2276 26.2421 27.0427 26.9538C26.8608 27.6544 26.7682 27.7864 26.2284 28.1152C25.6836 28.447 25.4149 28.7055 25.1062 29.1943C24.8171 29.6519 24.7613 29.6768 23.7815 29.7815C22.626 29.9049 21.5019 30.357 21.0367 30.8855C20.621 31.3577 20.5523 31.7357 20.6155 33.2013C20.6983 35.1215 20.7272 34.947 20.3186 34.9892C19.9168 35.0306 19.6739 34.8655 19.2755 34.2799C18.9306 33.7732 18.492 33.4415 18.2764 33.5243C17.9622 33.6449 17.1921 33.2941 16.9297 32.9111C16.8445 32.7869 16.6279 32.5924 16.4484 32.4786C16.2562 32.357 16.1507 32.2542 16.1918 32.2287C16.2337 32.2028 16.1698 32.1313 16.0316 32.0499C15.905 31.9751 15.7405 31.8153 15.6661 31.6948C15.5914 31.574 15.4134 31.4024 15.2705 31.3133C15.1274 31.2242 14.8157 30.9415 14.5777 30.6851C14.3396 30.4285 14.0336 30.162 13.8978 30.0925C13.7618 30.0231 13.6319 29.9181 13.6092 29.8591C13.5754 29.7709 13.561 29.7799 13.5291 29.9092C13.4922 30.0585 13.4828 30.0523 13.3444 29.7832C13.2641 29.6274 13.1481 29.4353 13.0864 29.3563C13.0249 29.2774 12.9558 29.1029 12.9331 28.9684C12.8881 28.7021 12.7747 28.5684 12.5073 28.4669C12.4122 28.4307 12.3343 28.3551 12.3343 28.2991C12.3343 28.1163 12.1315 27.8479 11.9157 27.745C11.7995 27.6897 11.7046 27.6165 11.7046 27.5825C11.7046 27.5485 11.5771 27.3771 11.4212 27.2015C11.1436 26.8889 11.1011 26.7655 11.1328 26.3641C11.1428 26.2386 11.0829 26.1171 10.9255 25.9428C10.6518 25.6398 10.5227 25.3947 10.4111 24.9659C10.3634 24.7831 10.2173 24.4393 10.0863 24.2018C9.79179 23.6675 9.75858 23.1551 9.98448 22.6345C10.0602 22.4602 10.1537 22.0635 10.1923 21.753C10.231 21.4422 10.3023 20.9331 10.3508 20.6214C10.708 18.3283 10.3702 17.263 8.94252 16.1808C8.26593 15.6678 8.20438 15.4877 8.50064 14.886C9.11883 13.6303 9.98196 13.0892 11.755 12.846C13.4472 12.614 13.619 12.5831 14.5866 12.3353C16.2394 11.9124 16.4339 11.9879 16.7094 13.1597C17.1079 14.8544 18.0598 15.7414 19.4797 15.7414C20.9412 15.7414 21.617 14.824 21.3744 13.1692C21.2447 12.2853 21.2494 12.1216 21.4133 11.83C21.7026 11.3154 22.6115 11.1089 23.3509 11.3899ZM11.1023 27.4148C11.1938 27.3797 11.3669 27.5647 11.4035 27.7368C11.4365 27.8921 11.2268 28.3353 11.1209 28.334C11.0252 28.3328 10.8303 28.212 10.9175 28.2081C10.9521 28.2065 10.9307 28.1763 10.87 28.1409C10.7868 28.0924 10.7617 28.0028 10.7684 27.7807C10.7783 27.4596 10.8665 27.2828 10.9666 27.3829C11 27.4163 11.0611 27.4306 11.1023 27.4148ZM13.1568 29.9857C13.3839 30.2221 13.5563 30.4291 13.5398 30.4458C13.5099 30.4756 13.6402 30.499 13.74 30.4817C13.7685 30.4768 13.7753 30.4995 13.7551 30.5322C13.7065 30.6108 14.3637 31.2748 14.745 31.5323L15.0461 31.7357L15.0055 32.0422C14.9789 32.2429 14.9893 32.364 15.0359 32.3926C15.0749 32.4168 15.0937 32.4581 15.0775 32.4842C15.0612 32.5105 15.2076 32.5102 15.4027 32.4837C15.996 32.4033 16.3121 32.5628 16.6938 33.1353C16.9147 33.4665 17.5943 33.7543 18.2144 33.7792C18.4947 33.7903 18.8207 34.0893 18.819 34.3336C18.8182 34.4476 18.8064 34.4564 18.757 34.3799C18.6504 34.215 18.6806 34.4861 18.7929 34.7034C18.944 34.9955 19.3432 35.1416 20.1028 35.1827C20.8014 35.2203 20.7556 35.1959 21.1812 35.757C21.3169 35.936 21.444 36.0252 21.6324 36.074C21.8237 36.1236 21.9302 36.1998 22.0264 36.3555C22.1805 36.6047 22.4211 36.7205 22.7069 36.6829C23.2223 36.6152 23.7816 37.0102 23.614 37.3236C23.5114 37.5153 22.7184 37.5232 22.0004 37.3395C21.73 37.2704 21.3642 37.2024 21.1875 37.1885C21.0109 37.1747 20.6539 37.0876 20.3941 36.9951C20.1344 36.9027 19.681 36.747 19.3867 36.6492C19.0923 36.5516 18.7239 36.4125 18.5681 36.34C18.4122 36.2678 18.1701 36.1801 18.0302 36.1453C17.6519 36.0515 17.5327 35.8994 17.3109 35.2269C17.0657 34.4833 16.975 34.3953 16.1753 34.1244C15.0973 33.7592 14.4752 33.3256 14.4752 32.9393C14.4752 32.9119 14.3565 32.7644 14.2113 32.6116C14.0664 32.4586 13.9459 32.3136 13.9437 32.2893C13.9417 32.2651 13.9045 32.2098 13.8612 32.1665C13.8179 32.1233 13.7825 32.051 13.7825 32.006C13.7825 31.961 13.7495 31.9241 13.709 31.9241C13.6687 31.9241 13.6534 31.9062 13.6753 31.8843C13.6972 31.8624 13.6818 31.7845 13.6409 31.7111C13.6001 31.6378 13.5656 31.5572 13.5643 31.5321C13.5631 31.507 13.463 31.3974 13.3418 31.2885C12.4577 30.4946 12.4024 30.4245 12.2488 29.9032C12.1732 29.6467 12.1751 29.6052 12.2647 29.5387C12.3395 29.4832 12.3412 29.4748 12.2713 29.5068C12.1975 29.5405 12.1931 29.5323 12.2507 29.4698C12.3099 29.4059 12.3664 29.4188 12.534 29.5348L12.7436 29.6796L12.5861 29.4958L12.4287 29.3119L12.5861 29.4339C12.6727 29.501 12.9295 29.7494 13.1568 29.9857ZM27.0879 33.5585C26.5486 33.8873 26.7211 34.7378 27.3511 34.8561C27.941 34.9667 28.3577 34.6102 28.3082 34.0373C28.2596 33.4752 27.6298 33.228 27.0879 33.5585ZM27.966 33.7999C28.131 33.9433 28.1083 34.2905 27.9216 34.4771C27.4698 34.9289 26.7407 34.3559 27.1329 33.8574C27.3236 33.615 27.7215 33.5874 27.966 33.7999ZM42.719 35.2321C41.9919 35.4871 41.1716 35.601 40.4808 35.5427C39.5135 35.4612 37.5362 35.2581 37.0491 35.1904C36.092 35.0571 34.1664 35.0886 33.5544 35.2476C33.2259 35.3327 32.8295 35.3866 32.528 35.3869C31.4431 35.3878 31.3518 35.5903 31.6746 37.2787C31.8488 38.1889 31.8719 38.4359 31.865 39.3038C31.8557 40.4356 31.9031 40.557 32.4366 40.7694C32.8241 40.9238 33.096 41.1508 33.3332 41.5184C33.448 41.6961 33.6367 41.9292 33.7527 42.0363C34.1357 42.3898 35.0958 43.1036 34.996 42.9605C34.9422 42.8832 34.702 42.6746 34.4624 42.497C33.8326 42.03 33.7403 41.9363 33.6002 41.6211C33.3943 41.1579 33.2485 40.9978 32.8488 40.7961C32.3552 40.5469 32.1858 40.3575 32.1305 39.9938C32.0603 39.5303 32.0781 38.7785 32.1658 38.5138C32.221 38.3465 32.2325 38.1105 32.2026 37.7518C32.1674 37.328 32.1771 37.2144 32.2557 37.1358C32.3087 37.0829 32.3363 37.0237 32.3171 37.0045C32.2244 36.912 32.7246 36.8997 32.9384 36.9892C33.0672 37.0432 33.2742 37.0875 33.3985 37.0875C33.7044 37.0875 34.1907 37.2148 34.148 37.2836C34.08 37.3938 34.4884 37.3365 34.6337 37.2155C34.7154 37.1475 34.7602 37.0908 34.7335 37.0895C34.65 37.0861 34.8684 36.7226 35.0163 36.619C35.0947 36.5642 35.286 36.5208 35.4499 36.5208C35.7145 36.5208 35.8691 36.4702 36.6083 36.1419C36.7122 36.0957 36.8221 36.0641 36.8523 36.0716C36.8827 36.079 36.9557 36.0414 37.0149 35.9881C37.074 35.9345 37.1412 35.9098 37.1643 35.933C37.1876 35.9561 37.2065 35.9465 37.2065 35.9117C37.2065 35.8574 37.5495 35.8029 37.7417 35.8267C37.829 35.8376 38.6686 35.8768 39.1379 35.8919C39.3517 35.8988 39.5536 35.8878 39.5865 35.8675C39.6194 35.8472 40.0396 35.8171 40.5202 35.8007C41.0006 35.7844 41.4647 35.7562 41.5513 35.7381C42.0327 35.6376 42.3456 35.5542 42.4014 35.5114C42.5152 35.4242 43.1439 35.2614 43.3674 35.2614C43.6714 35.2614 44.0796 35.5183 44.3417 35.8746C44.7631 36.4474 45.0019 36.585 45.5696 36.5817L45.9275 36.5795L45.5648 36.4546C45.0202 36.2673 44.618 35.9915 44.3132 35.5966C43.8336 34.9748 43.6029 34.9222 42.719 35.2321ZM35.0135 35.8694C35.178 36.0184 35.1601 36.0614 34.8715 36.2086C34.7139 36.2889 34.6267 36.372 34.6464 36.423C34.7434 36.6758 34.3512 36.8454 33.7672 36.8032C33.0064 36.7482 32.2486 36.5735 32.5154 36.5145C32.6456 36.4857 32.6632 36.4704 32.5724 36.4652C32.4249 36.4569 32.1877 36.2294 32.2557 36.1614C32.2798 36.1373 32.4756 36.0962 32.6908 36.0702C32.906 36.0443 33.3088 35.9676 33.5859 35.8997C34.2366 35.7406 34.8566 35.7274 35.0135 35.8694ZM46.4943 36.6892C46.8399 36.7638 47.1049 36.7736 47.7221 36.7338C48.6975 36.6711 48.2585 36.5999 46.8721 36.5962L46.0535 36.594L46.4943 36.6892ZM48.6254 36.7542C48.9445 36.8365 49.4073 37.5394 49.5197 38.1126C49.5439 38.2358 49.8052 38.5897 49.8762 38.5952C49.9008 38.5971 49.8016 38.3649 49.6559 38.0792C49.5101 37.7935 49.3387 37.4259 49.2751 37.2624C49.1546 36.9529 48.8577 36.7027 48.6278 36.7169C48.5144 36.724 48.5143 36.7256 48.6254 36.7542Z" fill="#418070"/>
<path fill-rule="evenodd" clip-rule="evenodd" d="M28.7272 2.13598C28.2385 2.21594 28.1859 2.36471 28.3585 3.17935C28.6066 4.35102 28.3936 5.39723 27.8366 5.74135C26.993 6.26288 24.9607 5.24926 24.6768 4.16527C24.4949 3.47199 24.3862 3.41611 23.4819 3.5507C22.7474 3.66011 22.661 3.70844 22.661 4.00958C22.661 4.53882 23.1607 5.18519 23.7307 5.39361C25.0867 5.88948 25.3629 6.05367 25.5355 6.46642C25.805 7.11168 25.482 7.81409 24.7706 8.12877C24.0984 8.42598 23.3351 8.36175 21.8903 7.88634C20.2531 7.3475 19.7291 7.45785 18.5713 8.5845C17.3933 9.73082 16.4291 9.87785 15.0506 9.1213C14.4831 8.80992 14.5109 8.78867 14.1909 9.77742C13.8913 10.7034 13.8825 10.6898 14.7212 10.5788C16.9051 10.2898 17.7004 10.7071 18.0625 12.3325C18.3812 13.7639 18.7764 14.3246 19.4659 14.3246C20.0892 14.3246 20.1643 14.0537 19.9573 12.5513C19.6466 10.2949 22.3056 9.12822 24.5242 10.5475C25.0218 10.8658 25.1259 10.8982 25.8409 10.9573C27.383 11.0848 28.4359 11.9284 28.8007 13.3285C29.0313 14.2137 28.8813 14.7682 28.1031 15.908C27.215 17.2087 27.541 18.0747 29.5245 19.6818C30.9655 20.8493 30.9158 21.8414 29.2438 25.2953C28.5719 26.6833 28.3964 27.2047 28.3906 27.8312C28.3834 28.606 28.194 28.8936 27.4281 29.2925C26.4581 29.7978 26.5151 29.9962 27.9062 30.9607C28.6464 31.4737 28.8203 32.2328 28.3216 32.7739L28.0635 33.0541L28.2911 33.3201C29.0168 34.168 28.5644 35.2031 27.4708 35.197C26.3073 35.1904 26.0735 33.7288 27.1475 33.1764C27.476 33.0075 27.465 32.9898 26.7221 32.4993C25.0873 31.4197 24.5215 31.2573 23.5016 31.5753C22.564 31.8676 22.372 32.2186 22.6264 33.1745C22.8049 33.8454 22.8446 33.8811 24.9691 35.2817L26.0493 35.9937L27.2359 36.1151C29.0423 36.2997 29.1671 36.2838 29.0286 35.8865C28.7098 34.9724 29.1308 34.3325 30.1227 34.2229C30.3305 34.1999 30.7475 34.0978 31.0492 33.9959C31.5467 33.8281 31.6707 33.8114 32.3716 33.8183C32.8138 33.8226 33.4149 33.7828 33.7748 33.7255C34.6368 33.5879 35.9758 33.5973 38.144 33.7563C40.4266 33.9236 41.2347 33.9027 41.8032 33.6615C43.1908 33.073 44.8437 33.0969 45.5812 33.716C45.7873 33.889 45.9806 33.8799 46.2227 33.6853C46.3507 33.5825 46.4822 33.4983 46.5149 33.4983C46.5475 33.4983 46.6171 33.433 46.6693 33.3532C46.7216 33.2733 46.9306 33.1194 47.1339 33.0112C47.5548 32.7868 47.6778 32.6657 47.9932 32.165C48.1171 31.9683 48.3077 31.7417 48.417 31.6612C48.602 31.5249 49.2963 30.5505 49.2963 30.4272C49.2963 30.3968 49.3691 30.3035 49.458 30.2199C49.5471 30.1363 49.7045 29.909 49.8081 29.7146C49.9983 29.3579 50.5557 28.7447 50.5557 28.8922C50.5557 29.1943 51.2808 28.061 51.3736 27.614C51.4231 27.3761 51.5149 27.1929 51.6803 27.0019C52.0932 26.5253 52.1919 26.3415 52.323 25.8051C52.3934 25.5168 52.5179 25.1393 52.5998 24.9662C52.6815 24.793 52.8217 24.4971 52.9113 24.3083C53.001 24.1197 53.0744 23.9204 53.0744 23.8655C53.0744 23.8104 53.1319 23.602 53.2021 23.4022C53.2723 23.2026 53.3149 23.0153 53.2968 22.986C53.2787 22.9567 53.3061 22.852 53.3578 22.7532C53.4092 22.6543 53.4516 22.5394 53.4519 22.4978C53.4521 22.4563 53.4909 22.3996 53.5382 22.3719C53.6367 22.3141 53.7096 21.9245 53.6269 21.897C53.5969 21.8871 53.6274 21.7517 53.6951 21.5965C53.7626 21.4411 53.8511 21.1508 53.8916 20.9512C53.9322 20.7516 53.9873 20.6019 54.0144 20.6186C54.2599 20.7703 54.3695 19.673 54.1752 19.0072C52.0494 11.7231 44.6759 4.95189 36.6398 2.90387C34.0583 2.24601 30.291 1.88033 28.7272 2.13598ZM32.7358 2.35935C38.4139 2.95644 43.6341 5.41754 47.3794 9.26329C48.4968 10.4106 48.8614 11.0204 48.9846 11.9476C49.0204 12.216 49.1022 12.7048 49.1666 13.0338C49.2384 13.4004 49.2875 13.9489 49.2935 14.4506C49.2989 14.9008 49.311 15.6375 49.3204 16.0877C49.3299 16.5379 49.303 17.1188 49.2608 17.3786C49.2186 17.6383 49.1651 18.0633 49.1418 18.3231C49.0613 19.2196 48.8468 20.3018 48.6673 20.7159C48.5697 20.941 48.3989 21.4227 48.2876 21.7863C48.0819 22.4594 47.6406 23.4235 47.5384 23.4235C47.5074 23.4235 47.4364 23.5576 47.3805 23.7213C47.2332 24.154 46.4219 25.4809 46.0806 25.8477C45.7579 26.1944 45.6 26.4459 45.705 26.4459C45.821 26.4459 45.7758 26.553 45.4611 27.023C45.1431 27.4983 43.8182 28.9097 43.8182 28.7732C43.8182 28.7312 43.6952 28.8066 43.5449 28.9409C43.3945 29.0751 43.1679 29.2642 43.0411 29.3608C42.9144 29.4575 42.8107 29.5864 42.8107 29.6472C42.8107 29.7982 42.4273 30.1535 41.8976 30.4935C41.6552 30.6492 41.2113 30.9495 40.9109 31.1611C40.609 31.3738 40.3546 31.514 40.3417 31.475C40.3108 31.3827 39.8647 31.609 39.5746 31.8637C39.4553 31.9685 39.2206 32.1017 39.0534 32.1598C38.8758 32.2213 38.794 32.2745 38.8568 32.2877C39.0239 32.3225 37.6627 32.9845 37.2695 33.0596C37.079 33.0959 36.3631 33.1529 35.6785 33.1861C34.9939 33.2194 34.1438 33.2924 33.7894 33.3483C33.4351 33.4043 32.7201 33.4552 32.2006 33.4615C31.425 33.4709 31.1829 33.497 30.8468 33.608C30.423 33.748 29.3502 33.9019 29.2 33.8443C28.9225 33.7377 28.7467 33.1808 28.8295 32.6704C28.9893 31.6864 28.793 31.3111 27.7469 30.6018C26.8195 29.9729 26.814 29.806 27.7055 29.333C28.3555 28.9879 28.4405 28.8436 28.522 27.9445C28.6138 26.9331 28.6601 26.7903 29.4226 25.1689C31.1133 21.5741 31.093 20.8054 29.2682 19.3271C28.3341 18.5704 27.7028 17.667 27.6998 17.0825C27.6979 16.7374 27.7644 16.5951 28.2968 15.8044C29.8639 13.4761 28.4112 10.8435 25.5525 10.8312C25.3714 10.8304 25.1603 10.7744 24.9858 10.6808C24.8328 10.5988 24.4926 10.4154 24.23 10.2733C23.1641 9.69619 21.9575 9.67589 20.936 10.2176C19.9572 10.7367 19.659 11.4372 19.8531 12.7616C20.0271 13.9476 19.9592 14.1959 19.4605 14.1959C18.882 14.1959 18.5111 13.637 18.1983 12.2941C17.809 10.622 17.0736 10.1448 15.0953 10.2804C14.4845 10.3222 14.3881 10.2623 14.487 9.90162C14.6284 9.38545 14.6921 9.36199 15.3567 9.58143C16.6564 10.0106 17.6422 9.7557 18.6758 8.72334C19.8182 7.58237 20.1884 7.50586 21.954 8.0466C24.2495 8.74947 25.587 8.38977 25.7272 7.03156C25.8078 6.25044 25.4056 5.82572 24.1878 5.40589C23.3379 5.11293 22.8557 4.63438 22.8513 4.07884C22.8494 3.85295 22.9851 3.78746 23.6368 3.70025C24.2728 3.61524 24.3632 3.66452 24.5151 4.1788C24.8764 5.40258 26.9477 6.40629 27.9227 5.83029C28.4989 5.48995 28.7377 4.31796 28.4885 3.05341C28.3279 2.23814 28.4416 2.19548 30.6579 2.24003C31.2986 2.25294 32.2337 2.30662 32.7358 2.35935ZM22.7747 11.5859C23.0048 11.6183 23.296 11.7132 23.4673 11.8121C24.4361 12.3703 24.3921 12.355 25.2029 12.4178C26.2884 12.5019 26.335 12.512 26.6692 12.7367C27.4601 13.2688 27.5939 14.0356 27.0373 14.8458C26.2081 16.0525 26.096 16.3468 26.137 17.21C26.1903 18.3335 26.9288 19.5237 28.2346 20.5907C29.1319 21.3238 29.1745 21.8384 28.4484 23.1716C28.3446 23.3621 28.3065 23.4612 28.3638 23.392C28.421 23.3227 28.5973 23.0017 28.7553 22.6786C29.2625 21.6418 29.1846 21.187 28.3934 20.5654C26.1482 18.8013 25.6652 17.0382 26.9231 15.1961C27.6742 14.0959 27.7008 13.643 27.056 12.9375C26.6437 12.4863 26.3922 12.3945 25.4081 12.3366C24.5359 12.2851 24.6571 12.3245 23.5158 11.7222C23.2877 11.6019 23.0963 11.5548 22.7917 11.5445L22.3776 11.5301L22.7747 11.5859ZM21.6052 12.4041C21.6052 12.5253 21.6181 12.5749 21.634 12.5143C21.6497 12.4537 21.6497 12.3545 21.634 12.2939C21.6181 12.2333 21.6052 12.2829 21.6052 12.4041ZM21.7381 13.7579C21.7384 14.035 21.7494 14.1405 21.7626 13.9923C21.776 13.8443 21.7758 13.6177 21.7623 13.4886C21.7488 13.3597 21.7379 13.4809 21.7381 13.7579ZM21.6414 14.4821C21.6194 14.6033 21.5843 14.7591 21.5635 14.8284C21.5427 14.8976 21.5702 14.8588 21.6244 14.742C21.6787 14.625 21.7138 14.4691 21.7025 14.3956C21.6877 14.3002 21.67 14.3251 21.6414 14.4821ZM6.96111 18.3021C6.75709 18.5062 7.09208 20.464 7.33104 20.464C7.39008 20.464 7.42282 20.5285 7.42282 20.645C7.42282 20.7445 7.44076 20.9155 7.46265 21.0249L7.50232 21.2237L7.68303 21.0214C7.78236 20.9101 7.86359 20.7695 7.86359 20.7091C7.86359 20.6485 7.90137 20.5611 7.94765 20.5148C8.20834 20.2541 8.34152 18.9918 8.1375 18.7163C7.86485 18.3483 7.16213 18.101 6.96111 18.3021ZM25.0259 31.8984C25.7108 32.2446 26.1027 32.4804 26.3371 32.6877L26.5955 32.9163L26.3441 33.1983C25.9517 33.6384 25.3817 33.6368 24.3824 33.1931C24.0764 33.0571 23.6768 32.8977 23.4947 32.839C22.8815 32.6412 22.8748 32.3052 23.478 32.005C24.1053 31.6925 24.5571 31.6615 25.0259 31.8984ZM26.6124 38.8284C26.5266 39.0165 26.5984 39.0818 26.9574 39.1418C27.0867 39.1635 27.1791 39.2027 27.1627 39.229C27.1136 39.3086 27.3806 39.3584 28.0701 39.3984C28.5746 39.4277 28.7142 39.4188 28.678 39.3601C28.6417 39.3014 28.7533 39.2937 29.1613 39.3267L29.6917 39.3699L29.7727 39.1744C29.9174 38.8247 29.8508 38.7814 29.1893 38.7953C28.8654 38.8021 28.5685 38.7879 28.5296 38.764C28.4907 38.7399 28.0595 38.7092 27.5715 38.6957L26.684 38.6711L26.6124 38.8284Z" fill="#A4B9D3"/>
<path fill-rule="evenodd" clip-rule="evenodd" d="M10.8417 27.4035C10.726 27.5504 10.7456 28.0684 10.8698 28.1408C10.9306 28.1763 10.952 28.2065 10.9174 28.208C10.8302 28.212 11.0251 28.3327 11.1208 28.334C11.2267 28.3352 11.4364 27.8921 11.4033 27.7367C11.3668 27.5647 11.1936 27.3797 11.1022 27.4148C11.0609 27.4306 10.9999 27.4162 10.9665 27.3829C10.9275 27.3438 10.8827 27.3512 10.8417 27.4035ZM12.586 29.4957L12.7434 29.6796L12.5339 29.5348C12.3663 29.4188 12.3098 29.4059 12.2506 29.4698C12.1929 29.5323 12.1974 29.5404 12.2712 29.5068C12.3411 29.4748 12.3393 29.4831 12.2646 29.5387C12.175 29.6051 12.1731 29.6467 12.2487 29.9031C12.4023 30.4245 12.4576 30.4946 13.3416 31.2884C13.4628 31.3974 13.563 31.5069 13.5642 31.5321C13.5655 31.5571 13.6 31.6377 13.6407 31.7111C13.6817 31.7845 13.6971 31.8624 13.6752 31.8843C13.6533 31.9061 13.6686 31.9241 13.7089 31.9241C13.7494 31.9241 13.7824 31.9609 13.7824 32.0059C13.7824 32.051 13.8178 32.1232 13.8611 32.1665C13.9044 32.2098 13.9416 32.2651 13.9436 32.2893C13.9458 32.3135 14.0662 32.4585 14.2112 32.6115C14.3564 32.7644 14.4751 32.9119 14.4751 32.9393C14.4751 33.3256 15.0972 33.7591 16.1752 34.1243C16.9749 34.3953 17.0655 34.4833 17.3108 35.2269C17.5326 35.8994 17.6518 36.0515 18.0301 36.1453C18.17 36.1801 18.4121 36.2678 18.568 36.34C18.7238 36.4124 19.0922 36.5516 19.3865 36.6492C19.6809 36.7469 20.1343 36.9026 20.394 36.995C20.6538 37.0876 21.0108 37.1747 21.1874 37.1885C21.364 37.2024 21.7299 37.2704 22.0003 37.3395C22.7183 37.5232 23.5112 37.5153 23.6139 37.3236C23.7815 37.0101 23.2222 36.6152 22.7068 36.6829C22.4209 36.7205 22.1804 36.6046 22.0263 36.3554C21.9301 36.1998 21.8235 36.1236 21.6323 36.074C21.4438 36.0252 21.3168 35.9359 21.1811 35.7569C20.7555 35.1959 20.8013 35.2203 20.1026 35.1827C19.3431 35.1416 18.9439 34.9955 18.7927 34.7033C18.6805 34.4861 18.6503 34.215 18.7569 34.3798C18.8063 34.4563 18.8181 34.4475 18.8189 34.3335C18.8206 34.0892 18.4946 33.7903 18.2142 33.7791C17.5942 33.7542 16.9146 33.4665 16.6937 33.1353C16.312 32.5627 15.9959 32.4033 15.4026 32.4837C15.2075 32.5102 15.0611 32.5105 15.0773 32.4842C15.0936 32.4581 15.0748 32.4168 15.0358 32.3926C14.9892 32.3639 14.9788 32.2429 15.0054 32.0422L15.046 31.7357L14.7449 31.5323C14.3636 31.2747 13.7064 30.6107 13.755 30.5322C13.7752 30.4994 13.7684 30.4768 13.7399 30.4817C13.6401 30.499 13.5098 30.4755 13.5397 30.4458C13.5735 30.4119 12.8297 29.6228 12.586 29.4339L12.4286 29.3119L12.586 29.4957ZM42.779 35.3662C42.6059 35.4191 42.4359 35.4843 42.4012 35.511C42.3455 35.5542 42.034 35.6373 41.5512 35.738C41.4646 35.7561 41.0005 35.7843 40.5201 35.8007C40.0395 35.8171 39.6193 35.8471 39.5864 35.8674C39.5535 35.8877 39.3515 35.8988 39.1378 35.8918C38.6685 35.8767 37.8288 35.8375 37.7416 35.8267C37.5494 35.8029 37.2064 35.8574 37.2064 35.9117C37.2064 35.9465 37.1875 35.9561 37.1642 35.9329C37.1411 35.9098 37.0738 35.9345 37.0148 35.988C36.9556 36.0414 36.8826 36.079 36.8522 36.0716C36.822 36.0641 36.7121 36.0957 36.6082 36.1418C35.869 36.4702 35.7144 36.5207 35.4498 36.5207C35.2859 36.5207 35.0946 36.5642 35.0162 36.619C34.8682 36.7225 34.6499 37.086 34.7333 37.0895C34.7601 37.0907 34.7152 37.1474 34.6335 37.2154C34.4882 37.3365 34.0799 37.3938 34.1479 37.2836C34.1906 37.2148 33.7043 37.0874 33.3984 37.0874C33.2741 37.0874 33.0671 37.0432 32.9383 36.9892C32.7245 36.8996 32.2242 36.9119 32.317 37.0045C32.3362 37.0237 32.3086 37.0829 32.2556 37.1358C32.177 37.2143 32.1672 37.328 32.2025 37.7517C32.2324 38.1105 32.2209 38.3465 32.1657 38.5138C32.078 38.7784 32.0602 39.5303 32.1304 39.9937C32.1857 40.3575 32.355 40.5469 32.8487 40.7961C33.2498 40.9985 33.3964 41.16 33.599 41.6228C33.7164 41.8912 33.9587 42.1307 34.5622 42.5751C34.6837 42.6645 34.9671 42.9149 35.1919 43.1315C35.9807 43.8914 36.3428 44.1519 37.1903 44.5693C37.7319 44.8359 38.1769 45.1072 38.4432 45.3327C39.2412 46.0084 39.446 46.0688 40.1711 45.8433C40.4234 45.7647 40.6131 45.6605 40.6983 45.5536C40.8003 45.4258 40.9045 45.379 41.1441 45.3537C41.4248 45.3241 41.489 45.2857 41.7716 44.9785C42.0595 44.6654 42.124 44.6278 42.5272 44.5381C42.9037 44.4542 43.0046 44.401 43.2198 44.1737C43.5331 43.8426 43.6818 43.7625 43.9871 43.7604C44.3803 43.7581 44.7099 43.6551 44.8672 43.4854C44.9484 43.3979 45.1291 43.292 45.2688 43.2501C45.413 43.2068 45.4918 43.155 45.4514 43.13C45.4089 43.1037 45.46 43.058 45.5778 43.0169C45.6866 42.979 45.8591 42.8885 45.9613 42.8158C46.0634 42.743 46.1692 42.6974 46.1963 42.7141C46.2235 42.7309 46.3158 42.6868 46.4014 42.6162L46.5571 42.4877L46.3762 42.5962C46.2767 42.6558 46.2153 42.6722 46.2399 42.6325C46.2889 42.5532 47.0975 42.1522 47.1674 42.1727C47.1913 42.1796 47.271 42.108 47.3444 42.0134C47.4177 41.9189 47.6811 41.7414 47.9296 41.6191C48.1795 41.4961 48.4124 41.3345 48.4509 41.2575C48.4891 41.1808 48.5362 41.1341 48.5557 41.1534C48.5751 41.1729 48.6234 41.0905 48.6631 40.9703C48.7233 40.7879 48.7923 40.7287 49.0815 40.6113C49.7467 40.3413 50.3446 38.8976 49.9076 38.616C49.7658 38.5245 49.5448 38.2412 49.5211 38.1206C49.4426 37.7198 49.0993 37.0821 48.8461 36.8671C48.7107 36.752 48.6193 36.7424 47.7861 36.7564C47.1676 36.7668 46.7279 36.7414 46.4192 36.6777C46.1689 36.626 45.7949 36.5837 45.5879 36.5837C44.9986 36.5837 44.7657 36.451 44.3416 35.8745C43.9243 35.3073 43.4633 35.1573 42.779 35.3662Z" fill="#288C68"/>
<path fill-rule="evenodd" clip-rule="evenodd" d="M29.178 2.24224C28.4442 2.30175 28.3598 2.40092 28.4884 3.05343C28.7376 4.31797 28.4988 5.48996 27.9226 5.8303C26.9476 6.4063 24.8762 5.40259 24.515 4.17882C24.3631 3.66453 24.2727 3.61525 23.6367 3.70026C22.985 3.78747 22.8493 3.85296 22.8512 4.07885C22.8556 4.63439 23.3378 5.11294 24.1877 5.4059C25.4055 5.82574 25.8077 6.25045 25.7271 7.03157C25.5868 8.38978 24.2494 8.74948 21.9539 8.04661C20.1883 7.50587 19.8181 7.58238 18.6757 8.72335C17.642 9.75571 16.6563 10.0106 15.3566 9.58144C14.692 9.362 14.6283 9.38546 14.4869 9.90163C14.388 10.2623 14.4844 10.3223 15.0952 10.2804C17.0734 10.1448 17.8089 10.622 18.1982 12.2941C18.511 13.637 18.8819 14.1959 19.4604 14.1959C19.9591 14.1959 20.0269 13.9476 19.853 12.7616C19.6589 11.4373 19.9571 10.7367 20.9359 10.2176C21.9574 9.6759 23.164 9.6962 24.2299 10.2733C24.4925 10.4155 24.8326 10.5988 24.9857 10.6809C25.1602 10.7744 25.3713 10.8304 25.5524 10.8312C27.5064 10.8397 28.9577 12.1806 28.9577 13.9777C28.9577 14.6492 28.8221 15.0237 28.2967 15.8044C27.7643 16.5951 27.6978 16.7374 27.6997 17.0825C27.7027 17.667 28.334 18.5704 29.2681 19.3271C31.0929 20.8054 31.1132 21.5741 29.4225 25.1689C28.66 26.7904 28.6137 26.9331 28.5219 27.9446C28.4404 28.8436 28.3554 28.9879 27.7054 29.333C26.8139 29.806 26.8194 29.9729 27.7468 30.6018C28.7928 31.3111 28.9891 31.6864 28.8294 32.6704C28.7466 33.1808 28.9224 33.7377 29.1999 33.8443C29.3501 33.9019 30.4229 33.748 30.8467 33.608C31.1828 33.497 31.4249 33.4709 32.2005 33.4615C32.72 33.4552 33.435 33.4043 33.7893 33.3483C34.1437 33.2924 34.9937 33.2194 35.6784 33.1861C36.363 33.1529 37.0789 33.0959 37.2694 33.0596C37.6626 32.9845 39.0238 32.3225 38.8567 32.2878C38.7938 32.2745 38.8757 32.2213 39.0533 32.1598C39.2205 32.1017 39.4552 31.9685 39.5745 31.8637C39.8646 31.609 40.3107 31.3828 40.3416 31.475C40.3545 31.514 40.6089 31.3738 40.9108 31.1611C41.2112 30.9495 41.6551 30.6492 41.8975 30.4935C42.4272 30.1535 42.8106 29.7982 42.8106 29.6472C42.8106 29.5864 42.9143 29.4575 43.041 29.3609C43.1677 29.2642 43.3944 29.0751 43.5448 28.9409C43.6951 28.8066 43.818 28.7312 43.818 28.7732C43.818 28.9097 45.143 27.4983 45.461 27.023C45.7757 26.553 45.8209 26.4459 45.7049 26.4459C45.5999 26.4459 45.7578 26.1944 46.0805 25.8477C46.4217 25.4809 47.2331 24.1541 47.3804 23.7213C47.4363 23.5576 47.5073 23.4235 47.5383 23.4235C47.6405 23.4235 48.0817 22.4594 48.2875 21.7863C48.3988 21.4227 48.5696 20.941 48.6672 20.7159C48.8466 20.3019 49.0612 19.2196 49.1416 18.3231C49.1649 18.0634 49.2185 17.6383 49.2606 17.3786C49.3028 17.1188 49.3298 16.538 49.3203 16.0877C49.3109 15.6375 49.2987 14.9008 49.2934 14.4506C49.2874 13.9489 49.2383 13.4004 49.1665 13.0338C49.1021 12.7048 49.0203 12.216 48.9845 11.9476C48.6739 9.61135 43.9802 5.74955 39.2368 3.92789C36.0686 2.7112 31.9346 2.01839 29.178 2.24224ZM32.6614 2.6136C36.3346 2.9829 40.7038 4.54261 42.4485 6.10752C42.6939 6.32759 42.8106 6.47981 42.8106 6.57977C42.8106 6.661 42.8771 6.8074 42.9584 6.90532C43.0398 7.00323 43.2279 7.26266 43.3766 7.48194C43.5361 7.71697 43.6649 7.85172 43.6904 7.81032C43.819 7.60221 45.135 10.6029 45.0528 10.9168C45.019 11.0464 45.1706 11.3966 45.2606 11.3966C45.3828 11.3966 45.5509 12.6332 45.4461 12.7607C45.4072 12.8081 45.4195 12.9639 45.481 13.2015C45.5822 13.593 45.7069 14.7401 45.7071 15.2803C45.7071 15.4862 45.7419 15.6413 45.8015 15.701C45.9758 15.8751 45.9158 17.0008 45.7324 17.0008C45.6318 17.0008 45.5989 17.1182 45.521 17.7551C45.4798 18.0918 45.4835 18.2387 45.5341 18.2699C45.635 18.3324 45.422 19.5245 45.2358 19.9385C45.1555 20.117 45.0141 20.5266 44.9214 20.8486C44.8288 21.1705 44.699 21.5099 44.6328 21.6026C44.5669 21.6953 44.4148 22.0036 44.2952 22.2874C44.0121 22.9585 43.628 23.556 43.5032 23.5195C43.3716 23.4812 42.8106 24.3617 42.8106 24.6065C42.8106 24.7954 42.6771 24.9752 41.9323 25.789C41.7399 25.9992 41.4637 26.3143 41.3184 26.4895C41.1729 26.6647 40.9037 26.8938 40.7202 26.9985C40.5365 27.1033 40.2742 27.3051 40.1374 27.4471C39.9672 27.6236 39.8349 27.7053 39.7193 27.7053C39.619 27.7053 39.3996 27.8158 39.1811 27.976C38.9782 28.125 38.5884 28.3729 38.315 28.527C38.0415 28.6811 37.8048 28.8559 37.7887 28.9152C37.7476 29.0676 37.3324 29.31 37.3324 29.1816C37.3324 29.1033 37.2938 29.1076 37.0962 29.2072C36.9664 29.2727 36.7893 29.3478 36.7027 29.3741C36.6161 29.4004 36.3021 29.5309 36.0047 29.6642C35.7073 29.7975 35.254 29.9504 34.9972 30.0039C34.3644 30.1358 34.3099 30.156 34.3099 30.2574C34.3099 30.3077 34.1959 30.3746 34.0423 30.4145C33.8951 30.4527 33.6755 30.5103 33.5543 30.5424C33.2434 30.6251 33.1135 30.616 33.1135 30.5113C33.1135 30.4156 32.8813 30.4269 32.4209 30.5447C32.2997 30.5757 31.5913 30.6004 30.8467 30.5994C29.6878 30.5979 29.2081 30.5681 28.4854 30.4526C28.3146 30.4253 27.7389 30.1284 27.6508 30.0222C27.5543 29.9058 27.6185 29.8246 27.9327 29.6653C28.6309 29.3114 28.7365 29.0863 28.7932 27.8312C28.8256 27.1132 28.8934 26.8193 29.1566 26.257C29.2295 26.1012 29.4973 25.5291 29.7515 24.9859C31.2361 21.8136 31.2012 20.6176 29.5861 19.3295C27.8124 17.9152 27.5684 17.2161 28.4146 15.9727C30.076 13.5314 28.7908 10.9216 25.7938 10.651C25.209 10.5981 25.1558 10.5806 24.6604 10.2774C22.8624 9.17703 20.4707 9.53516 19.7513 11.0125C19.5717 11.3814 19.5267 12.3306 19.654 13.0645C19.79 13.8488 19.6471 14.1162 19.2125 13.8916C18.8543 13.7063 18.6481 13.2391 18.4106 12.0745C18.2223 11.1512 18.0995 10.8792 17.694 10.486C17.2943 10.0987 17.2915 10.1236 17.7651 9.87613C18.0474 9.72863 18.3545 9.47015 18.8513 8.96231C19.9271 7.86258 20.2415 7.78513 21.794 8.23834C24.6204 9.06306 26.0426 8.48455 25.9099 6.56387C25.8831 6.17458 25.8916 5.98142 25.9357 5.98142C25.9719 5.98142 26.2327 6.0414 26.5155 6.1146C28.1323 6.53381 28.788 5.84919 28.7961 3.73363C28.7985 3.10128 28.8264 2.62446 28.8632 2.58794C29.011 2.44059 31.0794 2.4546 32.6614 2.6136ZM24.0879 3.99637C24.1608 4.04753 24.2387 4.18637 24.2609 4.30507C24.2833 4.42376 24.3716 4.65249 24.4572 4.81369C24.6511 5.17843 24.6532 5.163 24.4082 5.16221C23.5917 5.15985 22.8666 4.20715 23.5267 4.00424C23.911 3.88602 23.9298 3.88586 24.0879 3.99637ZM22.1148 11.7036C21.6902 11.9027 21.6249 12.0575 21.6915 12.7061C21.9188 14.9183 21.4432 15.8097 19.807 16.2382C19.0539 16.4355 19.0571 16.4325 19.0958 16.9266C19.1336 17.4082 19.1517 17.5031 19.2849 17.9232C19.3381 18.0912 19.4302 18.4264 19.4894 18.6678C19.5487 18.9095 19.68 19.2637 19.7811 19.4549C19.8823 19.6464 20.0284 19.9763 20.1058 20.1882C20.3977 20.9876 21.3667 22.2679 22.3111 23.1022C22.4131 23.1924 22.63 23.4006 22.7934 23.5652C22.9567 23.7297 23.1338 23.8643 23.1868 23.8643C23.3176 23.8643 23.688 24.0881 23.928 24.3123C24.0361 24.4133 24.1565 24.49 24.1956 24.4826C24.2346 24.4754 24.501 24.5889 24.7873 24.7349C25.3641 25.029 26.3678 25.3755 26.6425 25.3755C27.2509 25.3755 28.9577 22.6529 28.9577 21.6821C28.9577 21.2927 28.7971 21.0505 28.2345 20.5907C26.9287 19.5237 26.1902 18.3335 26.1369 17.21C26.0959 16.3469 26.208 16.0525 27.0371 14.8459C27.5938 14.0356 27.46 13.2688 26.6691 12.7368C26.3349 12.512 26.2883 12.5019 25.2027 12.4178C24.3911 12.3549 24.4385 12.3715 23.4598 11.8078C23.0516 11.5728 22.4869 11.529 22.1148 11.7036ZM23.5183 12.1587C24.1723 12.5472 24.3813 12.6037 25.337 12.6508C26.2971 12.6979 26.4578 12.7476 26.8191 13.1087C27.3724 13.6622 27.3359 14.0817 26.6489 15.0612C25.4274 16.8031 25.7609 18.6268 27.6175 20.3568C28.7344 21.3975 28.7058 21.3627 28.7058 21.6797C28.7058 22.1869 27.9872 23.4293 27.5687 23.6458C27.3602 23.7536 27.1316 23.7674 27.1316 23.6722C27.1316 23.5659 26.7193 23.4235 26.4123 23.4235C26.257 23.4235 25.941 23.355 25.7103 23.2711C25.2378 23.0997 25.0702 22.9827 25.2969 22.9827C25.4049 22.9827 25.3395 22.9144 25.0277 22.7008C24.8012 22.5457 24.5797 22.4325 24.5356 22.4492C24.4308 22.4892 23.5687 21.8324 23.5912 21.73C23.623 21.5847 23.21 21.1219 23.1643 21.2519C23.132 21.344 23.0818 21.3093 22.881 21.0556C22.7467 20.886 22.5337 20.6198 22.4078 20.464C22.047 20.0177 21.9566 19.8567 21.6326 19.0819C21.2109 18.0736 20.9782 17.352 20.926 16.8901L20.8816 16.4977L21.2543 16.0093C22.0249 15 22.1952 14.3549 22.0361 13.0469C21.9974 12.7283 21.9841 12.3939 22.0068 12.3039C22.1216 11.8464 22.8715 11.7745 23.5183 12.1587ZM23.9816 31.7727C22.9974 32.073 22.7563 32.6009 23.4946 32.839C23.6767 32.8978 24.0762 33.0571 24.3823 33.1931C25.3816 33.6368 25.9516 33.6384 26.344 33.1983L26.5954 32.9163L26.3369 32.6878C26.1025 32.4804 25.7107 32.2446 25.0258 31.8985C24.7906 31.7796 24.1942 31.7078 23.9816 31.7727Z" fill="#BEC4D1"/>
</svg>