<svg width="579" height="413" viewBox="0 0 579 413" fill="none" xmlns="http://www.w3.org/2000/svg">
<g clip-path="url(#clip0_2079_410)">
<mask id="mask0_2079_410" style="mask-type:luminance" maskUnits="userSpaceOnUse" x="0" y="0" width="579" height="413">
<path d="M578.857 0H0V412.916H578.857V0Z" fill="white"/>
</mask>
<g mask="url(#mask0_2079_410)">
<path d="M504.127 245.804V223.803C504.127 215.077 498.437 209.769 487.815 211.665C477.193 213.562 471.504 220.96 471.504 229.681V251.682C471.504 260.407 477.193 265.721 487.815 263.824C498.437 261.735 504.127 254.341 504.127 245.804ZM492.366 247.701C492.366 250.355 490.851 252.633 487.815 253.202H487.622C484.591 253.772 483.071 252.063 483.071 249.409V227.407C483.071 224.753 484.591 222.475 487.622 221.906H487.815C490.851 221.337 492.366 223.045 492.366 225.699V247.701Z" fill="#EA3A40"/>
</g>
<mask id="mask1_2079_410" style="mask-type:luminance" maskUnits="userSpaceOnUse" x="0" y="0" width="579" height="413">
<path d="M578.857 0H0V412.916H578.857V0Z" fill="white"/>
</mask>
<g mask="url(#mask1_2079_410)">
<path d="M447.417 242.011L429.209 266.098V273.684L461.833 267.994V257.565L449.884 259.65L445.521 260.408L456.331 246.186C459.748 241.63 461.833 238.407 461.833 232.147V230.82C461.833 224.561 458.039 217.356 445.521 219.629C434.522 221.525 429.209 227.978 429.209 238.976V240.115L440.777 238.03C440.777 232.528 442.674 230.444 445.14 230.062L445.709 229.874C448.175 229.493 450.072 231.013 450.072 234.994V235.564C450.072 238.218 449.126 239.734 447.417 242.011Z" fill="#EA3A40"/>
</g>
<mask id="mask2_2079_410" style="mask-type:luminance" maskUnits="userSpaceOnUse" x="0" y="0" width="579" height="413">
<path d="M578.857 0H0V412.916H578.857V0Z" fill="white"/>
</mask>
<g mask="url(#mask2_2079_410)">
<path d="M450.453 319.395L446.09 320.153L456.712 306.119C460.124 301.568 462.021 298.344 462.021 292.273V290.946C462.021 284.875 458.228 277.67 445.902 279.755C435.092 281.651 429.779 287.91 429.779 298.721V299.859L441.158 297.775C441.158 292.273 443.055 290.376 445.333 289.807L445.902 289.619C448.368 289.238 450.072 290.565 450.072 294.739V295.308C450.072 297.775 449.126 299.29 447.418 301.568L429.59 325.273V332.671L461.644 326.981V316.74L450.453 319.395Z" fill="#EA3A40"/>
</g>
<mask id="mask3_2079_410" style="mask-type:luminance" maskUnits="userSpaceOnUse" x="0" y="0" width="579" height="413">
<path d="M578.857 0H0V412.916H578.857V0Z" fill="white"/>
</mask>
<g mask="url(#mask3_2079_410)">
<path d="M23.3286 180.751C23.3286 179.993 23.1403 179.424 22.5709 179.042C22.1897 178.666 21.432 178.473 20.8626 178.666L1.32716 182.078C0.75772 182.078 0.381156 182.078 0 181.89C0 182.078 0 182.078 0.188282 182.078L23.5169 198.008V180.751H23.3286Z" fill="#EA3A40"/>
</g>
<path d="M60.8841 47.4147L28.4537 53.1045V78.1414L60.8841 72.4516V47.4147Z" fill="#EA3A40"/>
<mask id="mask4_2079_410" style="mask-type:luminance" maskUnits="userSpaceOnUse" x="0" y="0" width="579" height="413">
<path d="M578.857 0H0V412.916H578.857V0Z" fill="white"/>
</mask>
<g mask="url(#mask4_2079_410)">
<path d="M578.857 369.464V239.164C578.857 238.025 578.476 236.891 577.906 236.128L554.196 204.456C554.578 203.129 554.766 201.99 554.766 200.663V175.626C554.766 173.541 554.389 171.644 553.631 169.748C553.25 168.802 552.681 168.039 552.111 167.093C551.923 166.905 537.889 147.37 537.889 147.177L549.645 145.092C550.403 144.904 550.973 144.711 551.354 144.141C551.735 143.576 552.111 143.007 552.111 142.245V125.938C552.111 125.175 551.923 124.799 551.735 124.418L513.991 69.0352L513.798 68.8469C513.991 69.228 514.18 69.6046 514.18 70.174V87.6246C514.18 88.3823 513.991 89.14 513.422 89.5212C512.852 90.0906 512.283 90.4672 511.525 90.4672L467.141 98.623C466.383 98.8159 465.814 99.1924 465.438 99.7619C465.056 100.331 464.675 101.089 464.675 101.847V113.419C464.675 114.177 464.868 114.746 465.438 115.123C465.814 115.504 466.572 115.692 467.141 115.504L500.715 109.626C502.988 109.245 505.073 109.245 506.97 109.814C508.866 110.384 510.575 111.141 512.095 112.469C513.61 113.796 514.749 115.316 515.507 117.212C516.457 119.109 516.834 121.194 516.834 123.472V150.212C516.834 152.49 516.457 154.763 515.507 156.853C514.561 159.126 513.422 161.022 512.095 162.731C510.575 164.439 508.866 165.954 506.97 167.282C505.073 168.42 502.988 169.371 500.715 169.748L445.521 179.419C443.813 179.8 442.867 179.042 442.867 177.146V159.883C442.867 159.126 443.055 158.368 443.624 157.799C444.194 157.229 444.763 156.853 445.521 156.66L492.559 148.316C493.317 148.127 493.886 147.746 494.456 147.37C495.025 146.8 495.214 146.231 495.214 145.473V133.712C495.214 132.955 495.025 132.385 494.456 132.004C493.886 131.627 493.317 131.435 492.559 131.627L459.178 137.505C456.901 137.887 454.816 137.887 452.919 137.317C451.022 136.748 449.126 135.99 447.799 134.658C446.279 133.331 445.14 131.816 444.382 129.919C443.624 128.023 443.055 125.938 443.055 123.66V118.728C443.055 118.54 442.867 118.351 442.867 118.351L417.072 86.4857L416.879 86.2974C417.072 86.674 417.26 87.0551 417.26 87.6246V106.402C417.26 107.16 417.072 107.918 416.503 108.487C415.933 109.057 415.364 109.433 414.606 109.626L368.325 117.782C367.568 117.97 366.998 118.351 366.429 118.728C365.864 119.297 365.671 119.867 365.671 120.624V166.712C365.671 167.474 365.864 168.039 366.429 168.42C366.998 168.802 367.568 168.99 368.325 168.802L395.64 164.058C396.398 163.87 396.967 163.677 397.344 163.112C397.725 162.542 398.106 161.973 398.106 161.215V135.99C398.106 135.228 398.294 134.47 398.864 133.901C399.433 133.331 400.003 132.955 400.76 132.762L419.915 129.35C420.672 129.161 421.242 129.35 421.811 129.731C422.381 130.107 422.569 130.677 422.569 131.435V166.524C422.569 168.802 422.192 171.075 421.242 173.164C420.296 175.437 419.157 177.334 417.83 179.042C416.314 180.751 414.606 182.266 412.709 183.593C410.813 184.732 408.728 185.678 406.45 186.059L357.515 194.596C355.242 194.973 353.153 194.973 351.256 194.403C349.359 193.834 347.463 193.076 346.136 191.749C344.62 190.422 343.481 188.906 342.724 187.01C341.966 185.113 341.396 183.024 341.396 180.751V135.228L316.548 109.057L316.36 108.868C317.117 109.814 317.875 110.953 318.444 112.092C319.395 113.989 319.772 116.074 319.772 118.351V198.766C319.772 199.524 319.583 200.286 319.014 200.851C318.444 201.42 317.875 201.801 317.117 201.99L297.963 205.406C297.205 205.595 296.636 205.406 296.255 205.025C295.874 204.649 295.497 204.079 295.497 203.317V132.762C295.497 132.004 295.309 131.435 294.739 131.058C294.17 130.677 293.6 130.489 292.843 130.677L265.528 135.421C264.77 135.609 264.201 135.99 263.631 136.367C263.062 136.936 262.874 137.505 262.874 138.263V208.442C262.874 210.338 261.928 211.284 260.219 211.666L241.061 215.078C239.357 215.459 238.406 214.696 238.406 212.8V118.728C238.406 116.831 239.357 115.885 241.061 115.504L288.099 107.16L267.236 85.728V61.6417C267.236 60.8793 267.048 60.3099 266.667 59.9333L209.769 0.188282L209.576 0C209.769 0.376564 209.957 0.75772 209.957 1.51544V71.6941C209.957 72.4518 210.146 73.0212 210.715 73.3978C211.284 73.779 211.854 73.9672 212.612 73.779L248.082 67.5197C248.84 67.3315 249.409 67.5197 249.786 67.8963C250.167 68.2775 250.544 68.8469 250.544 69.6046V88.3823C250.544 89.14 250.355 89.8977 249.786 90.4672C249.409 91.0366 248.647 91.4178 248.082 91.606L188.337 102.04C186.629 102.416 185.683 101.658 185.683 99.7619V65.4349C185.683 65.242 185.49 65.0537 185.49 65.0537L131.627 13.8456C131.435 13.6527 131.435 13.6527 131.246 13.6527C131.435 14.0339 131.627 14.415 131.627 15.1728V85.3468C131.627 86.1045 131.816 86.674 132.385 87.0551C132.955 87.4317 133.524 87.6246 134.282 87.4317L169.748 81.1771C170.505 80.9842 171.075 81.1771 171.456 81.5536C171.837 81.9348 172.214 82.5042 172.214 83.4502V102.416C172.214 103.174 172.025 103.936 171.456 104.506C171.075 105.07 170.317 105.452 169.748 105.64L110.003 116.074C108.106 116.455 107.16 115.692 107.16 113.796V50.0692L81.1771 26.9289C81.1771 26.9289 80.9842 26.9289 80.9842 26.7406C82.1231 27.8795 83.2619 29.2067 84.0197 30.915C84.9703 32.8116 85.3468 34.8964 85.3468 37.1742V117.589C85.3468 118.351 85.1585 119.109 84.5891 119.678C84.0197 120.248 83.4502 120.624 82.6925 120.813L63.5383 124.229C62.7806 124.418 62.2111 124.229 61.6417 123.848C61.0722 123.472 60.884 122.902 60.884 122.144V96.5381C60.884 95.7804 60.6911 95.2109 60.1216 94.8298C59.7451 94.4532 58.9874 94.2604 58.4179 94.4532L31.1033 99.1924C30.3455 99.3807 29.7761 99.7619 29.2067 100.331C28.6372 100.901 28.4489 101.658 28.4489 102.416V127.834C28.4489 129.731 27.5029 130.677 25.7946 131.058L6.6358 134.282C6.07096 134.47 5.50152 134.282 5.12036 134.093C5.12036 134.282 5.30864 134.282 5.30864 134.282C5.30864 134.282 29.9644 152.297 29.9644 152.49C30.1573 152.678 30.3455 152.49 30.3455 152.49L69.6046 145.473C70.3669 145.28 70.9318 145.473 71.5012 145.85C72.0707 146.231 72.2635 146.8 72.2635 147.558V166.905C72.2635 167.663 72.0707 168.42 71.5012 168.99C70.9318 169.559 70.3669 169.936 69.6046 170.129L50.0692 173.541C49.3115 173.729 48.7421 174.11 48.1726 174.491C47.6032 175.061 47.4149 175.626 47.4149 176.388V246.562C47.4149 247.32 47.2266 248.077 46.6572 248.647C46.276 249.216 45.5183 249.598 44.9489 249.786L25.7946 253.202C25.4135 253.202 24.844 253.202 24.4675 253.01L52.5353 270.841C52.7281 271.03 52.9164 271.03 53.1047 271.03L68.6586 268.375C70.9318 267.994 73.0212 267.994 74.9178 268.563C76.8144 269.133 78.5228 270.079 80.0382 271.218C81.5536 272.357 82.6925 274.065 83.4502 275.962C84.4008 277.858 84.7774 279.943 84.7774 282.221V348.602C84.7774 350.879 84.4008 353.153 83.4502 355.242C82.5042 357.515 81.3654 359.412 80.0382 361.12C78.5228 362.828 76.8144 364.344 74.9178 365.671C73.0212 366.81 70.9318 367.756 68.6586 368.137L19.7237 376.674C17.4505 377.051 15.3611 377.051 13.4645 376.481C12.5185 376.293 11.7607 375.912 10.9984 375.535C11.1913 375.723 80.2265 411.382 80.4193 411.382C81.3653 411.952 82.3159 412.328 83.4502 412.517C85.3468 412.898 87.2434 413.086 89.3329 412.709L135.039 404.554C137.129 404.172 139.026 403.415 140.922 402.276C142.819 401.137 144.334 399.81 145.661 398.106C146.988 396.398 148.127 394.501 148.885 392.605C149.643 390.515 150.024 388.43 150.024 386.345V385.395L171.075 397.725C171.456 397.913 172.025 398.106 172.783 397.913L190.61 394.689C192.318 394.313 193.076 393.362 193.076 391.654V369.845C193.076 369.083 193.269 368.518 193.839 367.949C194.403 367.379 194.973 366.998 195.542 366.998L224.372 361.878C226.457 361.497 228.354 360.739 230.25 359.6L230.443 359.412L231.013 359.793L260.219 379.328C261.165 379.898 262.116 380.274 263.255 380.656C265.151 381.225 267.048 381.225 269.133 380.844L320.722 371.742C321.48 371.549 322.049 371.361 322.43 370.603C322.995 370.034 323.188 369.464 323.188 368.707V350.879L344.62 366.998C344.997 367.186 345.566 367.379 346.136 367.186L363.967 363.963C365.671 363.586 366.429 362.636 366.429 360.932V331.532L394.313 354.48L394.501 354.673V216.028C394.501 212.612 397.344 209.2 400.572 208.63L536.75 185.49C540.162 184.92 542.817 187.198 542.817 190.803V330.393C542.817 333.805 540.162 337.222 536.75 337.792L401.518 361.69C400.572 361.878 399.621 361.878 398.864 361.497L399.052 361.69L399.245 361.878L442.867 397.725C443.813 398.671 445.333 399.052 446.848 398.671L573.167 376.481C576.198 375.723 578.857 372.688 578.857 369.464ZM170.505 225.13C170.505 225.888 170.317 226.646 169.748 227.215C169.178 227.784 168.609 228.166 167.851 228.354L148.697 231.77C147.939 231.959 147.37 231.77 146.8 231.389C146.231 231.008 146.042 230.439 146.042 229.681V196.681C146.042 195.923 145.85 195.354 145.28 194.973C144.904 194.596 144.146 194.403 143.576 194.596L116.074 199.147C115.316 199.335 114.746 199.717 114.177 200.286C113.607 200.851 113.419 201.42 113.419 202.183V235.182C113.419 237.079 112.469 238.025 110.765 238.406L91.606 241.823C89.9023 242.199 88.9517 241.442 88.9517 239.545V145.092C88.9517 143.195 89.9023 142.245 91.606 141.868L110.765 138.451C112.469 138.075 113.419 138.833 113.419 140.729V172.595C113.419 174.491 114.365 175.061 116.074 174.868L143.384 170.129C144.146 169.936 144.715 169.559 145.092 168.99C145.473 168.42 145.85 167.663 145.85 166.905V135.039C145.85 134.282 146.042 133.524 146.612 132.955C147.177 132.385 147.746 132.004 148.509 131.816L167.663 128.404C168.42 128.211 168.99 128.404 169.559 128.78C170.129 129.161 170.317 129.731 170.317 130.489V225.13H170.505ZM180.751 303.46C180.751 305.738 180.369 308.015 179.423 310.1C178.473 312.373 177.334 314.27 176.007 315.978C174.491 317.687 172.783 319.202 170.887 320.529C168.99 321.861 166.905 322.619 164.627 322.995L133.901 328.497C133.143 328.685 132.573 329.066 132.004 329.447C131.435 330.012 131.246 330.582 131.246 331.344V354.673C131.246 356.569 130.3 357.515 128.592 357.896L109.438 361.308C107.729 361.69 106.779 360.932 106.779 359.035V264.77C106.779 262.874 107.729 261.923 109.438 261.547L164.627 251.871C166.905 251.494 168.99 251.494 170.887 252.064C172.783 252.633 174.491 253.579 176.007 254.718C177.527 255.857 178.661 257.56 179.423 259.457C180.369 261.358 180.751 263.443 180.751 265.716V303.46ZM216.786 216.974C216.786 218.871 215.835 219.821 214.132 220.198L194.973 223.615C193.269 223.991 192.318 223.233 192.318 221.337V126.884C192.318 124.987 193.269 124.041 194.973 123.66L214.132 120.248C215.835 119.867 216.786 120.624 216.786 122.521V216.974ZM270.272 330.205C270.272 330.963 270.084 331.721 269.514 332.29C268.945 332.859 268.375 333.241 267.617 333.429L212.423 343.1C210.146 343.481 208.061 343.481 206.164 342.912C204.268 342.342 202.371 341.585 201.044 340.258C199.528 338.93 198.389 337.41 197.632 335.514C196.869 333.617 196.3 331.532 196.3 329.255V262.874C196.3 260.596 196.681 258.323 197.632 256.233C198.389 253.96 199.528 252.064 201.044 250.355C202.559 248.647 204.268 247.132 206.164 245.804C208.061 244.477 210.146 243.719 212.423 243.338L267.617 233.667C268.375 233.474 268.945 233.667 269.514 234.044C270.084 234.425 270.272 234.994 270.272 235.752V253.767C270.272 254.53 270.084 255.287 269.514 255.664C268.945 256.233 268.375 256.614 267.617 256.614L221.337 264.77C220.96 264.77 220.579 265.151 220.579 265.528V281.082C220.579 281.458 220.767 281.651 221.337 281.458L260.789 274.442C261.547 274.253 262.116 274.442 262.685 274.823C263.255 275.199 263.443 275.769 263.443 276.531V290.753C263.443 292.65 262.493 293.6 260.789 293.977L221.337 300.994C220.96 300.994 220.579 301.375 220.579 301.756V317.117C220.579 317.687 220.767 317.875 221.337 317.687L267.617 309.531C268.375 309.343 268.945 309.531 269.514 309.912C270.084 310.289 270.272 310.858 270.272 311.616V330.205ZM373.639 311.997C373.639 312.755 373.45 313.512 372.881 314.082C372.311 314.651 371.742 315.032 370.984 315.221L351.825 318.633C351.068 318.826 350.498 318.633 350.122 318.256C349.741 317.875 349.359 317.306 349.359 316.36V246.181C349.359 245.423 349.171 244.854 348.602 244.477C348.032 244.096 347.463 243.908 346.705 244.096L319.395 248.84C318.637 249.028 318.068 249.409 317.498 249.974C316.929 250.544 316.741 251.113 316.741 251.871V322.049C316.741 323.946 315.79 324.892 314.082 325.273L294.928 328.685C293.219 329.066 292.273 328.309 292.273 326.412V232.147C292.273 230.439 293.219 229.304 294.928 228.923L357.327 217.925C359.605 217.544 361.69 217.544 363.586 218.113C365.483 218.683 367.191 219.629 368.707 220.767C369.088 221.149 369.657 221.525 370.034 222.095C370.791 223.045 371.554 224.184 372.119 225.511C373.069 227.408 373.45 229.493 373.45 231.77V311.997H373.639Z" fill="#EA3A40"/>
</g>
<path d="M28.2609 300.048V351.449L60.6913 345.759V294.358L28.2609 300.048Z" fill="#EA3A40"/>
<path d="M130.3 305.738L157.234 300.994V275.769L130.3 280.513V305.738Z" fill="#EA3A40"/>
<mask id="mask5_2079_410" style="mask-type:luminance" maskUnits="userSpaceOnUse" x="0" y="0" width="579" height="413">
<path d="M578.857 0H0V412.916H578.857V0Z" fill="white"/>
</mask>
<g mask="url(#mask5_2079_410)">
<path d="M572.216 398.487V398.675C572.216 399.626 571.459 400.191 570.513 400.191H568.616V397.16H570.513C571.647 396.967 572.216 397.536 572.216 398.487ZM573.736 398.864V398.294C573.736 396.59 572.409 395.451 570.701 395.451H566.908V405.504H568.616V401.711H570.701L572.409 405.504H574.113L572.409 401.522C573.167 401.141 573.736 400.191 573.736 398.864ZM563.303 400.572C563.303 396.59 566.338 393.555 570.32 393.555C574.306 393.555 577.337 396.59 577.337 400.572C577.337 404.553 574.306 407.589 570.32 407.589C566.527 407.589 563.303 404.365 563.303 400.572ZM561.976 400.572C561.976 405.316 565.769 408.916 570.32 408.916C575.063 408.916 578.668 405.123 578.668 400.572C578.668 396.021 574.871 392.228 570.32 392.228C565.769 392.035 561.976 395.828 561.976 400.572Z" fill="#EA3A40"/>
</g>
<mask id="mask6_2079_410" style="mask-type:luminance" maskUnits="userSpaceOnUse" x="0" y="0" width="579" height="413">
<path d="M578.857 0H0V412.916H578.857V0Z" fill="white"/>
</mask>
<g mask="url(#mask6_2079_410)">
<path d="M480.578 301.931L485.042 292.576C486.424 289.316 487.811 286.06 489.042 282.827L489.349 282.772C489.198 286.211 488.89 291.346 488.89 294.753V300.466L480.578 301.931ZM506.428 297.375L501.197 298.298V269.583L484.734 272.485L468.115 304.925V314.449L488.886 310.784V322.045L501.197 319.873V308.612L506.428 307.689V297.375Z" fill="#EA3A40"/>
</g>
</g>
<defs>
<clipPath id="clip0_2079_410">
<rect width="578.857" height="412.916" fill="white"/>
</clipPath>
</defs>
</svg>
