<svg width="783" height="50" viewBox="0 0 783 50" fill="none" xmlns="http://www.w3.org/2000/svg">
<path d="M766.674 19.3334H754.679C752.013 19.3334 750.347 17.6667 750.347 15.3334C750.347 13.0001 752.346 11.6667 754.679 11.6667H776.336L781.334 0.666748H754.679C743.683 0.666748 737.353 7.33342 737.353 16.0001C737.353 25.3334 743.35 30.6667 753.013 30.6667H765.008C767.673 30.6667 769.339 32.3334 769.339 34.6667C769.339 37.0001 767.673 38.6668 765.008 38.6668H739.019V49.6667H765.008C776.003 49.6667 782.334 43.3334 782.334 34.0001C782.334 24.6667 776.669 19.3334 766.674 19.3334ZM719.027 19.3334H707.032C704.367 19.3334 702.701 17.6667 702.701 15.3334C702.701 13.0001 704.7 11.6667 707.032 11.6667H728.69L733.688 0.666748H707.032C696.037 0.666748 689.706 7.33342 689.706 16.0001C689.706 25.3334 695.704 30.6667 705.366 30.6667H717.361C720.027 30.6667 721.693 32.3334 721.693 34.6667C721.693 37.0001 720.027 38.6668 717.361 38.6668H691.372V49.6667H717.361C728.357 49.6667 734.687 43.3334 734.687 34.0001C734.687 24.6667 729.023 19.3334 719.027 19.3334ZM643.06 49.3334H684.042V38.3334H656.054V30.3334H683.376V19.3334H656.054V11.6667H684.042V0.666748H643.06V49.3334ZM617.404 21.3334H603.743V11.6667H617.404C621.402 11.6667 623.401 14.0001 623.401 16.6667C623.068 19.3334 621.069 21.3334 617.404 21.3334ZM636.396 16.3334C636.396 7.00008 629.732 0.666748 619.07 0.666748H591.082V49.3334H604.076V32.3334H608.741L623.401 49.3334H639.394L623.401 31.6668C631.398 30.0001 636.396 24.0001 636.396 16.3334ZM566.426 22.3334H552.432V11.6667H566.426C570.424 11.6667 572.423 14.0001 572.423 17.0001C572.09 20.0001 570.091 22.3334 566.426 22.3334ZM567.758 0.666748H539.437V49.3334H552.432V33.3334H567.425C578.42 33.3334 585.084 26.3334 585.084 17.0001C585.084 7.33342 578.42 0.666748 567.758 0.666748ZM537.105 0.666748H520.445L507.784 15.3334L495.123 0.666748H478.13L499.454 24.6668L477.797 49.3334H494.456L507.451 34.0001L520.778 49.3334H537.771L515.78 24.3334L537.105 0.666748ZM434.815 49.3334H475.797V38.3334H447.809V30.3334H475.131V19.3334H447.809V11.6667H475.797V0.666748H434.815V49.3334ZM389.168 30.3334L369.176 0.666748H352.85V49.3334H365.844V18.3334L386.169 49.3334H401.829V0.666748H389.168V30.3334ZM313.533 28.6668L320.197 12.3334L326.861 28.6668H313.533ZM312.2 0.666748L290.876 49.3334H305.203L309.202 39.3334H331.859L336.19 49.3334H350.851L328.86 0.666748H312.2ZM269.552 25.3334V24.3334C269.552 17.0001 273.55 12.0001 281.88 12.0001H296.54V0.666748H280.88C264.887 0.666748 256.557 11.0001 256.557 24.3334V25.3334C256.557 40.3334 265.887 49.0001 280.214 49.0001H284.546L289.877 38.0001H282.213C274.55 38.3334 269.552 34.0001 269.552 25.3334ZM236.899 0.666748V49.3334H249.894V0.666748H236.899ZM210.91 21.3334H197.249V11.6667H210.91C214.909 11.6667 216.908 14.0001 216.908 16.6667C216.908 19.3334 214.909 21.3334 210.91 21.3334ZM229.902 16.3334C229.902 7.00008 223.238 0.666748 212.576 0.666748H184.588V49.3334H197.583V32.3334H202.247L216.908 49.3334H233.234L217.241 31.6668C225.237 30.0001 229.902 24.0001 229.902 16.3334ZM134.943 49.3334H175.925V38.3334H147.937V30.3334H175.259V19.3334H147.937V11.6667H175.925V0.666748H134.943V49.3334ZM93.6268 31.3334L82.6315 0.666748H62.3068V49.3334H74.9681V14.3334L87.6294 49.3334H99.2911L112.286 14.3334V49.3334H124.947V0.666748H104.622L93.6268 31.3334ZM22.9902 28.6668L29.654 12.3334L36.3179 28.6668H22.9902ZM21.3243 0.666748L0 49.3334H14.3272L18.3255 39.3334H40.9826L45.314 49.3334H59.9745L38.317 0.666748H21.3243Z" fill="#006FCF"/>
</svg>
