<svg width="202" height="36" viewBox="0 0 202 36" fill="none" xmlns="http://www.w3.org/2000/svg">
<g clip-path="url(#clip0_100_7563)">
<path d="M180.462 22.2398C180.462 14.6062 183.431 9.67845 190.805 9.67845C198.178 9.67845 201.147 14.22 201.147 21.7571V24.4617H185.347C185.729 27.8434 187.07 30.5493 192.624 30.5493C198.178 30.5493 196.456 30.5493 199.52 29.6791V33.9298C195.784 34.8965 194.444 34.8966 192.624 34.8966C181.803 34.8966 180.462 27.0698 180.462 22.3364V22.2398ZM158.149 31.7079V26.8779C162.556 29.5826 164.758 30.5493 168.302 30.5493C171.844 30.5493 172.514 29.1964 172.514 27.6503C172.514 26.1031 171.269 25.041 166.864 24.0755C159.969 22.5295 158.149 20.3076 158.149 16.4419C158.149 12.5774 161.597 9.67845 166.672 9.67845C171.749 9.67845 173.088 10.5486 175.387 12.1912V16.5384C171.844 14.7993 168.78 14.0269 166.194 14.0269C163.608 14.0269 162.938 15.0902 162.938 16.2488C162.938 17.4086 163.513 18.5684 167.631 19.6305C174.717 21.5628 177.303 23.1088 177.303 27.5526C177.303 31.9988 173.856 34.8 168.302 34.8C162.746 34.8 161.596 34.0276 158.149 31.7079ZM56.3487 22.2398C56.3487 14.6062 60.0828 9.67845 67.0744 9.67845C74.0659 9.67845 77.0349 13.6407 77.0349 19.3409H72.2459C72.054 16.3466 71.097 14.0269 67.2651 14.0269C63.4356 14.0269 61.0411 15.9591 61.0411 22.2398C61.0411 28.5193 62.7646 30.4516 67.2651 30.4516C71.7668 30.4516 72.054 28.1331 72.2459 25.1388H77.0349C77.0349 30.9355 73.2996 34.8 67.0744 34.8C60.8492 34.8 56.3487 29.7757 56.3487 22.2398ZM128.556 22.2398C128.556 29.3895 125.779 34.8 118.021 34.8C110.264 34.8 112.275 33.5436 110.839 31.4183V34.3172H106.051V0.5H110.839V13.0602C112.275 10.936 114.67 9.67845 118.021 9.67845C125.779 9.67845 128.556 15.1867 128.556 22.2398ZM31.2573 26.2491C31.279 22.1095 34.0573 17.7948 39.877 17.7948C45.7184 17.7948 45.1439 18.7603 46.5801 20.6926V14.4131H34.1309V10.0659H51.369V29.3895H54.2415V34.2195H46.5801V31.8057C45.1439 33.7367 43.2285 34.7022 39.877 34.7022C34.0573 34.7022 31.279 30.4841 31.2573 26.2491ZM131.717 26.2491C131.737 22.1095 134.516 17.7948 140.335 17.7948C146.177 17.7948 145.602 18.7603 147.039 20.6926V14.4131H134.589V10.0659H151.827V29.3895H154.701V34.2195H147.039V31.8057C145.602 33.7367 143.687 34.7022 140.335 34.7022C134.516 34.7022 131.737 30.4841 131.717 26.2491ZM86.3232 20.1133H90.0585L96.7616 10.1612H102.603L94.3684 22.3364L102.603 34.4126H96.7616L90.0585 24.5583H86.3232V34.3172H81.5342V0.5H86.3232V20.1133ZM20.7223 17.2155V16.3466C25.5113 15.6695 26.7556 12.7705 26.7556 9.5819C26.7556 6.39328 23.9785 1.37017 17.1789 1.37017H13.3482V5.71741H17.1789C20.8177 5.71741 21.9666 6.87724 21.9666 9.96931C21.9666 13.0602 20.8177 14.7028 17.1789 14.7028H5.20887V34.3172H17.1789C25.0309 34.3172 27.7127 29.7757 27.7127 25.1388C27.7127 20.5007 26.2777 17.8914 20.7223 17.2155ZM46.4835 26.2974C46.4835 23.8812 44.7601 22.2398 41.2166 22.2398C37.6732 22.2398 35.9509 23.979 35.9509 26.2974C35.9509 28.6171 37.6732 30.4516 41.2166 30.4516C44.7601 30.4516 46.4835 28.7124 46.4835 26.2974ZM146.943 26.2974C146.943 23.8812 145.22 22.2398 141.675 22.2398C138.133 22.2398 136.408 23.979 136.408 26.2974C136.408 28.6171 138.133 30.4516 141.675 30.4516C145.22 30.4516 146.943 28.7124 146.943 26.2974ZM123.767 22.2398C123.767 16.4419 122.044 14.0269 117.351 14.0269C112.659 14.0269 110.935 16.4419 110.935 22.2398C110.935 28.0366 112.659 30.4516 117.351 30.4516C122.044 30.4516 123.767 28.0366 123.767 22.2398ZM17.2754 29.9688H10.092V19.0512H17.2754C21.584 19.0512 23.0215 20.2098 23.0215 24.7514C23.0215 29.2917 21.584 29.9688 17.2754 29.9688ZM31.2573 26.2491V26.2974V26.2009V26.2491ZM131.717 26.2491L131.716 26.2974V26.2009L131.717 26.2491ZM196.36 20.1133C196.264 15.8626 194.636 14.1234 190.805 14.1234C186.974 14.1234 185.442 16.2488 185.251 20.1133H196.36ZM0.80249 1.46672V6.00828H5.30301V10.8383H9.99663V1.46672H0.80249Z" fill="#091C35"/>
</g>
<defs>
<clipPath id="clip0_100_7563">
<rect width="200.345" height="35" fill="white" transform="translate(0.80249 0.5)"/>
</clipPath>
</defs>
</svg>
