<svg width="224" height="50" viewBox="0 0 224 50" fill="none" xmlns="http://www.w3.org/2000/svg">
<path d="M2.41082 47.5892H42.0553H2.41082Z" fill="black"/>
<path d="M2.41082 32.5297H42.0553H2.41082Z" fill="black"/>
<path fill-rule="evenodd" clip-rule="evenodd" d="M0 32.5297C0 31.1983 1.07936 30.1189 2.41082 30.1189H42.0553C43.3868 30.1189 44.4662 31.1983 44.4662 32.5297C44.4662 33.8612 43.3868 34.9405 42.0553 34.9405H2.41082C1.07936 34.9405 0 33.8612 0 32.5297Z" fill="black"/>
<path fill-rule="evenodd" clip-rule="evenodd" d="M39.6445 17.4703C39.6445 16.1388 40.7239 15.0595 42.0553 15.0595C47.538 15.0595 51.9665 19.5189 51.9665 25C51.9665 30.4811 47.538 34.9405 42.0553 34.9405C40.7239 34.9405 39.6445 33.8612 39.6445 32.5297C39.6445 31.1983 40.7239 30.1189 42.0553 30.1189C44.8573 30.1189 47.1448 27.836 47.1448 25C47.1448 22.164 44.8573 19.8811 42.0553 19.8811C40.7239 19.8811 39.6445 18.8017 39.6445 17.4703Z" fill="black"/>
<path d="M2.41082 17.4703H42.0553H2.41082Z" fill="black"/>
<path fill-rule="evenodd" clip-rule="evenodd" d="M0 17.4703C0 16.1388 1.07936 15.0595 2.41082 15.0595H42.0553C43.3868 15.0595 44.4662 16.1388 44.4662 17.4703C44.4662 18.8017 43.3868 19.8811 42.0553 19.8811H2.41082C1.07936 19.8811 0 18.8017 0 17.4703Z" fill="black"/>
<path fill-rule="evenodd" clip-rule="evenodd" d="M39.6445 2.41082C39.6445 1.07936 40.7239 0 42.0553 0C47.538 0 51.9665 4.45944 51.9665 9.94054C51.9665 15.4217 47.538 19.8811 42.0553 19.8811C40.7239 19.8811 39.6445 18.8017 39.6445 17.4703C39.6445 16.1388 40.7239 15.0595 42.0553 15.0595C44.8573 15.0595 47.1448 12.7765 47.1448 9.94054C47.1448 7.10454 44.8573 4.82163 42.0553 4.82163C40.7239 4.82163 39.6445 3.74227 39.6445 2.41082Z" fill="black"/>
<path fill-rule="evenodd" clip-rule="evenodd" d="M42.0553 30.1189C40.7239 30.1189 39.6445 31.1983 39.6445 32.5297C39.6445 33.8612 40.7239 34.9405 42.0553 34.9405C44.8573 34.9405 47.1448 37.2235 47.1448 40.0595C47.1448 42.8955 44.8573 45.1784 42.0553 45.1784H2.41082C1.07936 45.1784 0 46.2577 0 47.5892C0 48.9206 1.07936 50 2.41082 50H42.0553C47.538 50 51.9665 45.5406 51.9665 40.0595C51.9665 34.5784 47.538 30.1189 42.0553 30.1189ZM42.0553 50C43.3868 50 44.4662 48.9206 44.4662 47.5892C44.4662 46.2577 43.3868 45.1784 42.0553 45.1784C40.7239 45.1784 39.6445 46.2577 39.6445 47.5892C39.6445 48.9206 40.7239 50 42.0553 50Z" fill="black"/>
<path d="M44.4662 47.5892C44.4662 46.2577 43.3868 45.1784 42.0553 45.1784C40.7239 45.1784 39.6445 46.2577 39.6445 47.5892C39.6445 48.9206 40.7239 50 42.0553 50C43.3868 50 44.4662 48.9206 44.4662 47.5892Z" fill="black"/>
<path d="M92.1551 29.8824H97.8453C97.7311 31.7474 97.2173 33.4031 96.3038 34.8494C95.403 36.2958 94.1406 37.4249 92.5167 38.2369C90.9054 39.0489 88.9643 39.4549 86.6933 39.4549C84.9171 39.4549 83.3249 39.1504 81.9166 38.5414C80.5083 37.9197 79.3031 37.0316 78.3008 35.8771C77.3112 34.7226 76.5563 33.327 76.0361 31.6903C75.5159 30.0537 75.2559 28.2204 75.2559 26.1905V24.2684C75.2559 22.2384 75.5223 20.4051 76.0551 18.7685C76.6007 17.1192 77.3746 15.7172 78.3769 14.5627C79.3919 13.4082 80.6035 12.5201 82.0118 11.8984C83.42 11.2768 84.9932 10.9659 86.7314 10.9659C89.0404 10.9659 90.9879 11.3846 92.5738 12.2219C94.1724 13.0593 95.4094 14.2138 96.2848 15.6855C97.1729 17.1572 97.7057 18.8319 97.8834 20.7096H92.1741C92.1107 19.5932 91.8887 18.648 91.5081 17.8741C91.1275 17.0875 90.5502 16.4975 89.7763 16.1042C89.015 15.6982 88.0001 15.4952 86.7314 15.4952C85.7798 15.4952 84.9488 15.6728 84.2383 16.0281C83.5279 16.3833 82.9316 16.9225 82.4495 17.6457C81.9674 18.3689 81.6058 19.2823 81.3647 20.3861C81.1363 21.4772 81.0222 22.7586 81.0222 24.2303V26.1905C81.0222 27.6241 81.13 28.8865 81.3457 29.9776C81.5614 31.056 81.8912 31.9695 82.3353 32.718C82.792 33.4538 83.3756 34.0121 84.0861 34.3927C84.8093 34.7606 85.6783 34.9446 86.6933 34.9446C87.8859 34.9446 88.8691 34.7543 89.6431 34.3737C90.417 33.9931 91.0069 33.4285 91.4129 32.6799C91.8316 31.9314 92.079 30.9989 92.1551 29.8824Z" fill="black"/>
<path d="M107.037 18.483V39.0742H101.537V18.483H107.037ZM101.195 13.1164C101.195 12.3171 101.474 11.6574 102.032 11.1372C102.59 10.617 103.339 10.3569 104.278 10.3569C105.204 10.3569 105.946 10.617 106.504 11.1372C107.075 11.6574 107.361 12.3171 107.361 13.1164C107.361 13.9157 107.075 14.5754 106.504 15.0956C105.946 15.6157 105.204 15.8758 104.278 15.8758C103.339 15.8758 102.59 15.6157 102.032 15.0956C101.474 14.5754 101.195 13.9157 101.195 13.1164Z" fill="black"/>
<path d="M117.047 22.9743V39.0742H111.566V18.483H116.724L117.047 22.9743ZM123.251 18.3498L123.156 23.431C122.89 23.393 122.566 23.3612 122.186 23.3359C121.818 23.2978 121.481 23.2788 121.177 23.2788C120.403 23.2788 119.731 23.3803 119.16 23.5833C118.601 23.7736 118.132 24.059 117.751 24.4396C117.383 24.8203 117.104 25.2833 116.914 25.8289C116.736 26.3744 116.635 26.9961 116.61 27.6939L115.506 27.3513C115.506 26.0192 115.639 24.7949 115.905 23.6784C116.172 22.5493 116.559 21.566 117.066 20.7287C117.586 19.8913 118.221 19.2443 118.969 18.7875C119.718 18.3308 120.574 18.1024 121.539 18.1024C121.843 18.1024 122.154 18.1278 122.471 18.1785C122.788 18.2166 123.048 18.2737 123.251 18.3498Z" fill="black"/>
<path d="M131.32 22.9743V39.0742H125.839V18.483H130.997L131.32 22.9743ZM137.524 18.3498L137.429 23.431C137.163 23.393 136.839 23.3612 136.459 23.3359C136.091 23.2978 135.754 23.2788 135.45 23.2788C134.676 23.2788 134.004 23.3803 133.433 23.5833C132.874 23.7736 132.405 24.059 132.024 24.4396C131.656 24.8203 131.377 25.2833 131.187 25.8289C131.009 26.3744 130.908 26.9961 130.883 27.6939L129.779 27.3513C129.779 26.0192 129.912 24.7949 130.178 23.6784C130.445 22.5493 130.832 21.566 131.339 20.7287C131.859 19.8913 132.494 19.2443 133.242 18.7875C133.991 18.3308 134.847 18.1024 135.812 18.1024C136.116 18.1024 136.427 18.1278 136.744 18.1785C137.061 18.2166 137.321 18.2737 137.524 18.3498Z" fill="black"/>
<path d="M152.292 34.1453V18.483H157.773V39.0742H152.616L152.292 34.1453ZM152.901 29.9205L154.519 29.8824C154.519 31.2526 154.36 32.5277 154.043 33.7076C153.726 34.8748 153.25 35.8898 152.616 36.7525C151.981 37.6025 151.182 38.2686 150.218 38.7507C149.254 39.2201 148.118 39.4549 146.811 39.4549C145.809 39.4549 144.883 39.3153 144.033 39.0362C143.195 38.7444 142.472 38.294 141.863 37.685C141.267 37.0633 140.798 36.2704 140.455 35.3062C140.125 34.3293 139.96 33.1557 139.96 31.7855V18.483H145.441V31.8236C145.441 32.4325 145.511 32.9464 145.65 33.365C145.803 33.7837 146.012 34.1263 146.278 34.3927C146.545 34.6591 146.856 34.8494 147.211 34.9636C147.579 35.0778 147.985 35.1349 148.429 35.1349C149.558 35.1349 150.446 34.9065 151.093 34.4498C151.753 33.9931 152.216 33.3714 152.482 32.5848C152.762 31.7855 152.901 30.8974 152.901 29.9205Z" fill="black"/>
<path d="M173.093 33.3841C173.093 32.9908 172.978 32.6355 172.75 32.3184C172.522 32.0012 172.097 31.7094 171.475 31.4429C170.866 31.1638 169.984 30.9101 168.83 30.6817C167.789 30.4533 166.819 30.1679 165.918 29.8253C165.03 29.4701 164.256 29.0451 163.596 28.5503C162.949 28.0555 162.442 27.4719 162.074 26.7995C161.706 26.1143 161.522 25.3341 161.522 24.4587C161.522 23.596 161.706 22.784 162.074 22.0227C162.454 21.2615 162.994 20.5891 163.691 20.0055C164.402 19.4092 165.265 18.9461 166.28 18.6163C167.307 18.2737 168.462 18.1024 169.743 18.1024C171.532 18.1024 173.067 18.3879 174.349 18.9588C175.643 19.5297 176.632 20.3163 177.317 21.3186C178.015 22.3082 178.364 23.4374 178.364 24.7061H172.883C172.883 24.1732 172.769 23.6974 172.541 23.2788C172.325 22.8474 171.983 22.5112 171.513 22.2701C171.056 22.0164 170.46 21.8895 169.724 21.8895C169.115 21.8895 168.589 21.9974 168.145 22.2131C167.701 22.416 167.358 22.6952 167.117 23.0504C166.889 23.393 166.774 23.7736 166.774 24.1922C166.774 24.5094 166.838 24.7949 166.965 25.0486C167.104 25.2897 167.326 25.5117 167.631 25.7147C167.935 25.9177 168.329 26.108 168.811 26.2856C169.306 26.4506 169.915 26.6028 170.638 26.7424C172.122 27.0469 173.448 27.4465 174.615 27.9413C175.782 28.4234 176.708 29.0831 177.394 29.9205C178.079 30.7451 178.421 31.8299 178.421 33.1747C178.421 34.0882 178.218 34.9256 177.812 35.6868C177.406 36.448 176.823 37.1141 176.061 37.685C175.3 38.2432 174.387 38.6809 173.321 38.9981C172.268 39.3026 171.082 39.4549 169.762 39.4549C167.847 39.4549 166.223 39.1123 164.89 38.4272C163.571 37.7421 162.569 36.873 161.884 35.82C161.211 34.7543 160.875 33.6632 160.875 32.5467H166.07C166.096 33.2953 166.286 33.8979 166.641 34.3546C167.009 34.8114 167.472 35.1412 168.03 35.3442C168.601 35.5472 169.217 35.6487 169.876 35.6487C170.587 35.6487 171.177 35.5536 171.646 35.3633C172.116 35.1603 172.471 34.8938 172.712 34.564C172.966 34.2214 173.093 33.8281 173.093 33.3841Z" fill="black"/>
<path d="M208.09 29.8824H213.78C213.666 31.7474 213.152 33.4031 212.239 34.8494C211.338 36.2958 210.076 37.4249 208.452 38.2369C206.84 39.0489 204.899 39.4549 202.628 39.4549C200.852 39.4549 199.26 39.1504 197.852 38.5414C196.443 37.9197 195.238 37.0316 194.236 35.8771C193.246 34.7226 192.491 33.327 191.971 31.6903C191.451 30.0537 191.191 28.2204 191.191 26.1905V24.2684C191.191 22.2384 191.457 20.4051 191.99 18.7685C192.536 17.1192 193.31 15.7172 194.312 14.5627C195.327 13.4082 196.538 12.5201 197.947 11.8984C199.355 11.2768 200.928 10.9659 202.666 10.9659C204.975 10.9659 206.923 11.3846 208.509 12.2219C210.107 13.0593 211.344 14.2138 212.22 15.6855C213.108 17.1572 213.641 18.8319 213.818 20.7096H208.109C208.046 19.5932 207.824 18.648 207.443 17.8741C207.062 17.0875 206.485 16.4975 205.711 16.1042C204.95 15.6982 203.935 15.4952 202.666 15.4952C201.715 15.4952 200.884 15.6728 200.173 16.0281C199.463 16.3833 198.867 16.9225 198.384 17.6457C197.902 18.3689 197.541 19.2823 197.3 20.3861C197.071 21.4772 196.957 22.7586 196.957 24.2303V26.1905C196.957 27.6241 197.065 28.8865 197.281 29.9776C197.496 31.056 197.826 31.9695 198.27 32.718C198.727 33.4538 199.311 34.0121 200.021 34.3927C200.744 34.7606 201.613 34.9446 202.628 34.9446C203.821 34.9446 204.804 34.7543 205.578 34.3737C206.352 33.9931 206.942 33.4285 207.348 32.6799C207.767 31.9314 208.014 30.9989 208.09 29.8824Z" fill="black"/>
<path d="M223.6 11.3656V39.0742H217.91V11.3656H223.6Z" fill="black"/>
</svg>
