<svg xmlns="http://www.w3.org/2000/svg" x="0" y="0" viewBox="0 0 97.462151 9.3003" width="216" height="50" style="enable-background:new 0 0 97.462151 9.3003" xml:space="preserve">
	<style>.st1{fill:url(#GRADIENT_00000126310102337621159900000013528823456160883852_)}</style>
	<switch>
		<g>
			<g id="LOGO">
				<path id="SOLID" d="m39.681957 8.648028-.013596.545843H34.22039V.102766h5.447971v.546366h-4.786057v3.675027h3.982979v.533295h-3.982979v3.790575h4.799653zm9.686806-.013071v.558914h-4.966961V.102766h.661911v8.532191h4.30505zm10.782406-5.891361c-.209171-.572001-.505096-1.061337-.886723-1.468124-.380634-.406787-.837627-.72046-1.370922-.941075-.533295-.220674-1.120941-.331011-1.76405-.331011-.642056 0-1.228653.111388-1.759846.334105s-.987137.536448-1.36882.941134c-.381626.404686-.676559.892971-.886726 1.464972-.210163.571476-.314724 1.206701-.314724 1.904685 0 .702713.104561 1.339515.314724 1.911516.210167.571476.5051 1.059819.886726 1.464447.381683.40521.837627.717891 1.36882.937981.531193.2212 1.11779.330953 1.759846.330953.643108 0 1.230755-.109753 1.76405-.330953.533295-.22009.990288-.53277 1.370922-.937981.381626-.404628.677551-.892971.886723-1.464447.210167-.572001.314724-1.208803.314724-1.911516 0-.697985-.104557-1.33321-.314724-1.904686zm-.629502 3.61701c-.175667.503464-.423485.930625-.745564 1.281486-.32103.351327-.705868.618997-1.155502.803066-.450691.184538-.94738.276602-1.491127.276602-.539543 0-1.034134-.092064-1.483768-.276602-.449699-.18407-.836578-.451739-1.159706-.803066-.323074-.35086-.574047-.778022-.751812-1.281486-.177765-.503522-.266678-1.073888-.266678-1.712325 0-.633649.088913-1.203549.266678-1.709114.177765-.505098.428738-.933311.751812-1.284638.323128-.351327.710007-.620106 1.159706-.806219.449635-.186639.944225-.279696 1.483768-.279696.543747 0 1.040436.093057 1.491127.279696.449635.186113.834473.454892 1.155502.806219.322079.351327.569897.77954.745564 1.284638.175663.505565.263523 1.075465.263523 1.709114.000001.638437-.08786 1.208803-.263523 1.712325zm11.477738 1.303703c.04287 0 .079468.015162.109795.044964l.256187.276581c-.188217.201293-.393173.382194-.612762.542706-.220634.160511-.463234.298018-.726746.411473s-.552116.201292-.866867.262987c-.314743.062218-.660866.093588-1.037308.093588-.629494 0-1.206711-.110318-1.731636-.330956-.524933-.220637-.975616-.533295-1.352058-.937971-.377495-.404676-.669235-.894053-.877327-1.468129-.208088-.574076-.311611-1.211938-.311611-1.914632 0-.689623.106659-1.31912.321026-1.889013.214363-.569371.514473-1.058747.899277-1.467606.385857-.409382.848045-.726222 1.388657-.951042.539574-.22482 1.13456-.33723 1.786018-.33723.620087 0 1.171158.096202 1.650078.289129.479965.192404.917053.464803 1.311272.815627l-.199722.289129c-.034508.051761-.087837.07738-.159988.07738-.051239 0-.134888-.047055-.250961-.141689-.116066-.094111-.276054-.197633-.482056-.311089-.204956-.113456-.461143-.217501-.767525-.311611-.306381-.094634-.673416-.141689-1.101097-.141689-.548981 0-1.050903.094634-1.506821.282855s-.848047.458529-1.176386.809354c-.327293.351347-.583488.779551-.767525 1.285136-.184044.505061-.276062 1.072864-.276062 1.70236 0 .642568.093063 1.216644.279198 1.721705.187172.505584.442322.932743.76857 1.281998.325203.349256.708969.616426 1.152336.803079.443367.186131.922287.279196 1.43676.279196.325203 0 .614853-.021437.870003-.064309.254097-.04235.489372-.106659.703735-.192405.213318-.085745.413048-.190836.597084-.314749.184036-.124435.365982-.269784.545845-.437092.021957-.017254.04287-.030848.064827-.041827.020913-.010456.042878-.016208.06379-.016208zm5.186035 1.529562h-.661911V.102766h.661911v9.091105zM87.507126.662203h-3.193489v8.531669h-.661911V.662203h-3.212318V.102766h7.067719v.559437zm6.588989 4.786058v3.745611h-.65564V5.448261L90.074447.102766h.578262c.059601 0 .108749.014117.147438.041827.038689.028233.071106.067446.096199.119207l2.602692 4.175906c.05542.098294.106659.193973.153709.285993.047058.09202.087837.182993.122345.272921.034508-.089928.072151-.180902.115028-.272921.04287-.09202.092018-.187699.148483-.285993L96.640244.2638c.02092-.047055.052284-.085745.093071-.11607.040779-.029802.090973-.044964.151619-.044964h.577217l-3.366036 5.345495zM30.344259.000029l-2.810184 9.29658h-.569544l2.810053-9.29658h.569675zM25.538958 3.42271 24.504294.000005h-.569679l1.319534 4.365012.284809-.942307z" style="fill:#010002"/>
				<linearGradient id="GRADIENT_00000114755702062864128680000013914303603975020180_" gradientUnits="userSpaceOnUse" x1="13.392678" y1="9.556154" x2="14.730975" y2="-.445853">
					<stop offset="0" style="stop-color:#209bc4"/>
					<stop offset="1" style="stop-color:#4dc9c0"/>
				</linearGradient>
				<path id="GRADIENT" style="fill:url(#GRADIENT_00000114755702062864128680000013914303603975020180_)" d="M19.209438 8.177373v.748598c0 .20678-.167606.374329-.374329.374329h-5.533838c-.206663 0-.37427-.167548-.37427-.374329V.37427c0-.206721.167607-.37427.37427-.37427h5.428114c.206779 0 .374329.167549.374329.37427v.748599c0 .20678-.167549.374328-.374329.374328h-4.305187v2.404354h3.472931c.20672 0 .374329.167549.374329.37427v.748599c0 .206779-.167608.374328-.374329.374328h-3.472931v2.404355h4.410912c.206722 0 .374328.167549.374328.37427zM28.553173 0h-.882872c-.16498 0-.31052.10806-.358274.265976l-2.062426 6.824081L23.187116.265976C23.139421.10806 22.993881 0 22.828842 0h-.882872c-.200825 0-.34473.193819-.286642.386063l2.613762 8.648203c.047696.157974.193236.266034.358273.266034h1.236418c.165037 0 .310577-.10806.358274-.266034l2.61376-8.648203C28.897961.193819 28.754057 0 28.553173 0zM.522203 3.342041H0v.522262h.522203v-.522262zm.516833 2.024365h.678835v-.678835h-.678835v.678835zm.044251-3.381201H.566455v.516833h.516832v-.516833zm6.239529 2.145836-.000817-.000409c-.000117.000117-.000175.00035-.000292.000409h.001109zm2.596538-2.864909c.401767.412567.607554.977446.565288 1.551782-.036253.508718-.254884 1.013991-.640188 1.51185v.977971c0 2.205047-1.787518 3.992565-3.992565 3.992565H1.763057v-.605336h.50971v-.557231h-.858936v-.855082H.887483v-.727874h.727816v.420448h.533179V5.812658h.499027V4.65015h-.374738V3.487583h-.537265V2.325075h.840838V1.162508H1.370281V.432007h.558982V0h3.922626c.922686 0 1.768019.317759 2.443819.843582.561317-.154355 1.184634-.016989 1.623646.42255zm-5.774594.758406c1.424924-.222017 2.480306.314665 3.304506.731785.273566.139352.50253.250739.704931.326049-.365397-.92327-1.250545-1.585175-2.302308-1.585175H4.14476v.527341zm2.34504 5.6851c-.122188-.376431-.497042-.62571-.904238-.574453-.359324.045302-.638903.317875-.711002.667918h.977329c.222134 0 .43335-.038589.637911-.093465zm3.688-4.914784c.037889-.487468-.134623-.967813-.473982-1.319782-.521853-.522788-1.364033-.538375-1.904802-.035203l.185822.18588c.175956-.131354.389741-.201993.609305-.201292.564295-.000058 1.021814.457227 1.021873 1.021522.000058.271055-.107593.531077-.299311.722737-.574102.57743-1.236125.24747-2.002704-.14735-.535573-.271639-1.14155-.580699-1.879524-.704931-.854499-.138593-1.717813.006597-2.639448.439888-.17362.081731-.248171.288803-.166381.462481.004845.010217.641355 1.108858.641472 1.109092.095334.163695.304157.220907.469604.128668.000058 0 .691329-.375029 1.136063-.779715.060773-.055285.154822-.050848.210049.009866.055284.060773.050847.154822-.009867.210049-.280046.249455-.899626.672005-.899626.672005l-.031583.017456v3.216878h.420156c.094808-.6131.662139-1.040204 1.279267-.956138.438546.059781.795011.366389.928874.775862.275434-.11098.525823-.269713.74206-.466627.092999-.643516.335448-1.467423.970149-1.941873 1.050303-.786369 1.635322-1.621077 1.692534-2.419473zm-3.03094.80832c-.161594.000584-.292072.132054-.291488.29359l.466627.233868c.074784-.05546.118802-.142971.11851-.236028-.000642-.161536-.132113-.292072-.293649-.29143zM.219536 8.838916h.605336v-.605335H.219536v.605335z"/>
			</g>
		</g>
	</switch>
</svg>