<svg width="146" height="50" viewBox="0 0 146 50" fill="none" xmlns="http://www.w3.org/2000/svg">
<path d="M50.3115 26.1993C50.3162 24.1624 49.6913 22.1739 48.5216 20.5061C47.3522 18.8384 45.6956 17.573 43.779 16.8834C43.9535 15.9944 44.0413 15.0906 44.0416 14.1846C44.0434 11.1859 43.094 8.26385 41.3303 5.83862C39.5666 3.4134 37.0794 1.60989 34.2259 0.687429C31.3728 -0.235039 28.3004 -0.22896 25.4507 0.704792C22.6011 1.63855 20.1209 3.45188 18.3668 5.88405C17.0727 4.88124 15.487 4.32745 13.85 4.30665C12.2129 4.28585 10.6137 4.79911 9.29448 5.76869C7.97529 6.7383 7.00805 8.1114 6.53922 9.68005C6.07042 11.2487 6.12559 12.9273 6.69639 14.4618C4.77524 15.162 3.11463 16.4338 1.93788 18.1061C0.761145 19.7784 0.124748 21.7709 0.114291 23.8156C0.108961 25.8596 0.737372 27.8549 1.91301 29.5268C3.08863 31.1989 4.75368 32.4654 6.67888 33.1519C6.50847 34.0406 6.42152 34.943 6.41922 35.8478C6.41636 38.843 7.36481 41.7618 9.1278 44.1834C10.8908 46.6047 13.3773 48.4037 16.2287 49.321C19.08 50.238 22.149 50.226 24.9931 49.2862C27.8372 48.3468 30.3094 46.5282 32.0532 44.0929C33.3437 45.0983 34.9265 45.6553 36.5621 45.6798C38.1977 45.7043 39.7965 45.1946 41.1161 44.2283C42.4361 43.2617 43.4047 41.8913 43.875 40.3248C44.3456 38.7581 44.2925 37.0811 43.7236 35.5473C45.6457 34.8482 47.3076 33.5767 48.4848 31.9044C49.6624 30.232 50.2987 28.2388 50.3086 26.1935" fill="white"/>
<path d="M19.849 21.537L30.8338 26.5523L41.9207 16.8426C42.0802 16.0414 42.1596 15.2263 42.157 14.4093C42.1564 11.7645 41.3094 9.1893 39.7398 7.06053C38.1704 4.93177 35.9609 3.36119 33.4342 2.57863C30.9079 1.79607 28.1974 1.84259 25.6994 2.7114C23.2014 3.58022 21.047 5.22568 19.5514 7.40706L17.7046 16.9593L19.849 21.537Z" fill="#FEC514"/>
<path d="M8.47899 33.1695C8.31703 33.9832 8.23589 34.8109 8.23682 35.6407C8.23688 38.2966 9.08824 40.8824 10.666 43.0187C12.2437 45.1552 14.4646 46.7296 17.0029 47.5109C19.5412 48.2922 22.2631 48.2394 24.7692 47.3601C27.2752 46.481 29.4334 44.8215 30.927 42.6254L32.7563 33.0936L30.3143 28.4255L19.2887 23.4014L8.47899 33.1695Z" fill="#00BFB3"/>
<path d="M8.41197 14.1613L15.9394 15.9381L17.5878 7.37788C16.564 6.60154 15.3162 6.17773 14.0314 6.16991C12.7465 6.16206 11.4936 6.57067 10.4604 7.3345C9.42721 8.0983 8.66922 9.17626 8.29994 10.4069C7.93066 11.6376 7.96996 12.9548 8.41197 14.1613Z" fill="#F04E98"/>
<path d="M7.75836 15.9526C6.10677 16.51 4.66991 17.5681 3.64764 18.98C2.62536 20.3918 2.06848 22.0872 2.05445 23.8302C2.05326 25.5147 2.56483 27.1598 3.52117 28.5466C4.47747 29.9335 5.83325 30.9964 7.40825 31.5939L17.97 22.0475L16.0298 17.9045L7.75836 15.9526Z" fill="#1BA9F5"/>
<path d="M32.8584 42.6253C33.8807 43.3976 35.1254 43.8189 36.4065 43.8256C37.6876 43.8324 38.9366 43.4248 39.9668 42.6633C40.9973 41.9018 41.7536 40.8272 42.1232 39.6004C42.4926 38.3738 42.4553 37.0603 42.0167 35.8565L34.4952 34.106L32.8584 42.6253Z" fill="#93C90E"/>
<path d="M34.3874 32.1249L42.6675 34.0593C44.3201 33.5035 45.7578 32.4458 46.7805 31.0334C47.8031 29.6213 48.3592 27.9252 48.3714 26.1818C48.37 24.5008 47.8573 22.8599 46.9018 21.477C45.946 20.094 44.5926 19.0343 43.0206 18.4385L32.1904 27.9207L34.3874 32.1249Z" fill="#0077CC"/>
<path d="M70.3002 35.13L71.3038 35.0279L71.3739 37.0702C69.1404 37.4075 66.8869 37.5928 64.6284 37.6246C62.1388 37.6246 60.3745 36.9039 59.3358 35.4626C58.2972 34.0213 57.7787 31.7786 57.7808 28.7346C57.7808 22.6719 60.1907 19.6395 65.0106 19.6376C67.3447 19.6376 69.0856 20.2892 70.2331 21.5924C71.3809 22.8956 71.9565 24.9379 71.9603 27.7193L71.8232 29.6916H60.4095C60.4095 31.6056 60.7558 33.0235 61.4482 33.9455C62.1408 34.8674 63.3446 35.3284 65.0602 35.3284C66.7798 35.3343 68.5263 35.268 70.3002 35.13ZM69.3666 27.626C69.3666 25.5039 69.0272 24.0052 68.3483 23.1299C67.6694 22.2547 66.5627 21.8161 65.0281 21.8141C63.4934 21.8141 62.3401 22.2751 61.5678 23.197C60.7958 24.119 60.3979 25.5953 60.3745 27.626H69.3666Z" fill="#1C1E23"/>
<path d="M75.5781 37.4875V14.7302H78.1719V37.4875H75.5781Z" fill="#1C1E23"/>
<path d="M94.5073 25.2045V33.9281C94.5073 34.8034 96.6605 34.7567 96.6605 34.7567L96.5292 37.0499C94.7057 37.0499 93.1973 37.2016 92.2929 36.3234C90.3343 37.1935 88.2126 37.6361 86.0696 37.6218C84.4804 37.6218 83.2696 37.1716 82.4372 36.2709C81.6048 35.3702 81.1894 34.076 81.1914 32.3876C81.1914 30.7033 81.6183 29.4633 82.4722 28.6677C83.3262 27.8721 84.6634 27.3859 86.4839 27.2089L91.9136 26.6924V25.2045C91.9136 24.0374 91.6606 23.1952 91.155 22.6778C90.8778 22.4177 90.5511 22.2164 90.194 22.086C89.8368 21.9557 89.4573 21.8989 89.0777 21.9192H82.2622V19.6348H88.9055C90.8662 19.6348 92.29 20.0851 93.1769 20.9856C94.0639 21.8862 94.5073 23.2925 94.5073 25.2045ZM83.8493 32.2592C83.8493 34.3812 84.7246 35.4423 86.4752 35.4423C88.0545 35.4406 89.6221 35.1713 91.1112 34.6458L91.9048 34.3686V28.6618L86.7961 29.1461C85.7575 29.2395 85.0076 29.5391 84.5467 30.0448C84.0857 30.5504 83.8531 31.2885 83.8493 32.2592Z" fill="#1C1E23"/>
<path d="M104.634 21.9542C102.119 21.9542 100.862 22.8295 100.862 24.5801C100.862 25.3892 101.154 25.9601 101.737 26.2927C102.321 26.6253 103.635 26.9715 105.679 27.3314C107.733 27.6912 109.186 28.1931 110.038 28.8369C110.89 29.4808 111.317 30.6904 111.319 32.4663C111.319 34.244 110.748 35.5473 109.606 36.3759C108.464 37.2045 106.798 37.6197 104.608 37.6217C103.178 37.6217 98.4052 37.0907 98.4052 37.0907L98.5453 34.8442C101.288 35.1068 103.269 35.3023 104.608 35.3023C105.947 35.3023 106.965 35.0893 107.669 34.6633C108.372 34.2373 108.722 33.5225 108.722 32.5189C108.722 31.5152 108.43 30.8354 107.823 30.4765C107.216 30.1177 105.909 29.7792 103.882 29.4554C101.854 29.1315 100.41 28.6589 99.5577 28.0374C98.7057 27.416 98.2769 26.2606 98.2769 24.5772C98.2769 22.8937 98.8604 21.6596 100.06 20.8426C101.259 20.0257 102.729 19.6318 104.503 19.6318C105.909 19.6318 110.79 19.9907 110.79 19.9907V22.2518C108.214 22.1381 106.108 21.9542 104.634 21.9542Z" fill="#1C1E23"/>
<path d="M123.82 22.2284H118.321V30.4969C118.321 32.4788 118.464 33.7812 118.752 34.4035C119.044 35.0279 119.727 35.3371 120.809 35.3371L123.887 35.13L124.062 37.2744C122.897 37.49 121.717 37.6175 120.532 37.6566C118.735 37.6566 117.49 37.2181 116.798 36.3408C116.105 35.4635 115.76 33.7917 115.762 31.3254V22.2284H113.317V19.9819H115.774V14.6893H118.332V19.9819H123.82V22.2284Z" fill="#1C1E23"/>
<path d="M127.427 17.7733V14.7623H130.021V17.7733H127.427ZM127.427 37.4875V19.9819H130.021V37.4875H127.427Z" fill="#1C1E23"/>
<path d="M141.256 19.6348C142.551 19.6901 143.841 19.8294 145.119 20.052L145.947 20.1541L145.845 22.2635C144.49 22.0918 143.127 21.9886 141.761 21.9543C139.8 21.9543 138.469 22.4211 137.766 23.3547C137.064 24.2883 136.712 26.0175 136.71 28.5422C136.71 31.0709 137.039 32.829 137.696 33.8172C138.354 34.8054 139.725 35.3014 141.81 35.3052L145.895 34.9959L146 37.1404C144.41 37.4096 142.804 37.5716 141.192 37.6247C138.496 37.6247 136.634 36.9323 135.607 35.5473C134.58 34.1624 134.067 31.8283 134.067 28.5451C134.067 25.2599 134.62 22.954 135.727 21.6275C136.834 20.301 138.677 19.6367 141.256 19.6348Z" fill="#1C1E23"/>
</svg>
