<svg width="130" height="36" viewBox="0 0 130 36" fill="none" xmlns="http://www.w3.org/2000/svg">
<g clip-path="url(#clip0_109_14184)">
<path d="M25.2612 15.9507H14.385C14.1048 15.9507 13.8784 16.1771 13.8784 16.4574V21.7751C13.8784 22.0553 14.1048 22.2853 14.385 22.2853H18.6285V28.8929C18.6285 28.8929 17.6763 29.2163 15.0426 29.2163C11.9346 29.2163 7.59416 28.0809 7.59416 18.5377C7.59416 8.99457 12.1142 7.737 16.3576 7.737C20.0297 7.737 21.6143 8.38375 22.6203 8.69634C22.9365 8.79335 23.2276 8.47717 23.2276 8.19691L24.442 3.05883C24.442 2.92589 24.3989 2.76779 24.248 2.66359C23.8384 2.37256 21.3448 0.974857 15.0426 0.974857C7.7846 0.971264 0.336182 4.06129 0.336182 18.9078C0.336182 33.7543 8.86251 35.9677 16.0486 35.9677C21.9987 35.9677 25.6062 33.4238 25.6062 33.4238C25.7535 33.3411 25.7715 33.1327 25.7715 33.0393V16.4609C25.7715 16.1807 25.5451 15.9543 25.2648 15.9543L25.2612 15.9507Z" fill="#100E0F"/>
<path d="M81.3095 2.74972C81.3095 2.46586 81.0867 2.2395 80.8065 2.2395H74.6839C74.4036 2.2395 74.1773 2.46946 74.1773 2.74972V14.5817H64.6341V2.74972C64.6341 2.46586 64.4077 2.2395 64.1275 2.2395H58.0049C57.7247 2.2395 57.4983 2.46946 57.4983 2.74972V34.7926C57.4983 35.0765 57.7247 35.3064 58.0049 35.3064H64.1275C64.4077 35.3064 64.6341 35.0765 64.6341 34.7926V21.0851H74.1773L74.1593 34.789C74.1593 35.0729 74.3857 35.3028 74.6659 35.3028H80.8029C81.0831 35.3028 81.3059 35.0729 81.3095 34.789V2.74972Z" fill="#100E0F"/>
<path d="M36.8165 6.95363C36.8165 4.74749 35.0487 2.96533 32.8677 2.96533C30.6867 2.96533 28.9189 4.74749 28.9189 6.95363C28.9189 9.15977 30.6867 10.9419 32.8677 10.9419C35.0487 10.9419 36.8165 9.15617 36.8165 6.95363Z" fill="#100E0F"/>
<path d="M36.3781 28.034V13.2414C36.3781 12.9612 36.1517 12.7312 35.8715 12.7312H29.7669C29.4866 12.7312 29.2351 13.0186 29.2351 13.3025V34.4944C29.2351 35.116 29.6232 35.3028 30.1262 35.3028H35.6272C36.2308 35.3028 36.3781 35.0082 36.3781 34.4836V28.034Z" fill="#100E0F"/>
<path d="M104.578 12.7817H98.5022C98.2219 12.7817 97.9955 13.0116 97.9955 13.2955V29.0079C97.9955 29.0079 96.4505 30.1362 94.2623 30.1362C92.0742 30.1362 91.4885 29.1409 91.4885 26.9958V13.2919C91.4885 13.008 91.2621 12.7781 90.9819 12.7781H84.8162C84.5395 12.7781 84.3096 13.008 84.3096 13.2919V28.0306C84.3096 34.4011 87.8595 35.9605 92.7461 35.9605C96.7523 35.9605 99.9861 33.7472 99.9861 33.7472C99.9861 33.7472 100.141 34.9149 100.209 35.0515C100.277 35.188 100.46 35.3281 100.654 35.3281L104.578 35.3102C104.855 35.3102 105.085 35.0802 105.085 34.7999V13.2919C105.085 13.008 104.855 12.7781 104.574 12.7781L104.578 12.7817Z" fill="#100E0F"/>
<path d="M121.189 12.0593C117.736 12.0593 115.39 13.6008 115.39 13.6008V2.74972C115.39 2.46586 115.163 2.2395 114.883 2.2395H108.742C108.462 2.2395 108.236 2.46946 108.236 2.74972V34.7926C108.236 35.0765 108.462 35.3064 108.742 35.3064H113.004C113.194 35.3064 113.342 35.2058 113.449 35.0334C113.554 34.8609 113.708 33.5566 113.708 33.5566C113.708 33.5566 116.22 35.9352 120.973 35.9352C126.553 35.9352 129.755 33.1039 129.755 23.2266C129.755 13.3492 124.642 12.0593 121.189 12.0593ZM118.792 30.1109C116.683 30.0462 115.257 29.0904 115.257 29.0904V18.9436C115.257 18.9436 116.665 18.0777 118.397 17.9232C120.585 17.7256 122.694 18.3867 122.694 23.6074C122.694 29.112 121.742 30.1971 118.796 30.1109H118.792Z" fill="#100E0F"/>
<path d="M53.9771 12.7276H49.3852C49.3852 12.7276 49.378 6.66249 49.378 6.6589C49.378 6.42894 49.2594 6.31396 48.9935 6.31396H42.7344C42.4901 6.31396 42.3607 6.42176 42.3607 6.65531V12.9252C42.3607 12.9252 39.224 13.6833 39.012 13.7444C38.8 13.8055 38.6455 13.9995 38.6455 14.2331V18.1747C38.6455 18.4585 38.8719 18.6849 39.1521 18.6849H42.3607V28.1634C42.3607 35.2058 47.3012 35.8956 50.632 35.8956C52.1554 35.8956 53.9771 35.407 54.2789 35.2956C54.4622 35.2273 54.5664 35.0405 54.5664 34.8357V30.5024C54.5699 30.2186 54.3328 29.9922 54.0633 29.9922C53.7938 29.9922 53.1112 30.1 52.4069 30.1C50.1505 30.1 49.3852 29.0509 49.3852 27.6927C49.3852 26.3345 49.3852 18.6849 49.3852 18.6849H53.9771C54.2574 18.6849 54.4837 18.4549 54.4837 18.1747V13.2378C54.4837 12.9539 54.2574 12.7276 53.9771 12.7276Z" fill="#100E0F"/>
</g>
<defs>
<clipPath id="clip0_109_14184">
<rect width="129.415" height="35" fill="white" transform="translate(0.336182 0.971191)"/>
</clipPath>
</defs>
</svg>
