<svg width="605" height="129" viewBox="0 0 605 129" fill="none"
    xmlns="http://www.w3.org/2000/svg">
    <g clip-path="url(#clip0_1019_5996)">
        <g filter="url(#filter0_iiii_1019_5996)">
            <path d="M115.24 0H13.76C6.16056 0 0 6.16056 0 13.76V115.24C0 122.839 6.16056 129 13.76 129H115.24C122.839 129 129 122.839 129 115.24V13.76C129 6.16056 122.839 0 115.24 0Z" fill="url(#paint0_linear_1019_5996)" style=""/>
        </g>
        <g filter="url(#filter1_d_1019_5996)">
            <g filter="url(#filter2_iiii_1019_5996)">
                <path d="M29.2266 48.787C29.2266 42.2459 29.2266 38.9754 30.4996 36.4769C31.6193 34.2793 33.4061 32.4926 35.6037 31.3728C38.1021 30.0998 41.3727 30.0998 47.9138 30.0998H83.5368C90.0779 30.0998 93.3484 30.0998 95.8466 31.3728C98.0444 32.4926 99.8311 34.2793 100.951 36.4769C102.224 38.9754 102.224 42.2459 102.224 48.787V62.0361V72.7379C102.224 74.6979 102.224 75.6775 102.382 76.6292C102.523 77.4738 102.756 78.3006 103.077 79.0944C103.439 79.9889 103.951 80.8246 104.974 82.4955L109.695 90.2069C110.18 90.9986 110.436 91.9089 110.436 92.8373C110.436 95.9889 107.575 98.367 104.476 97.7901L85.6705 94.2881C85.0352 94.17 84.7175 94.1108 84.3974 94.0692C84.1132 94.0326 83.8274 94.0059 83.5412 93.9902C83.2191 93.9725 82.8958 93.9725 82.2496 93.9725H65.7251H47.9138C41.3727 93.9725 38.1021 93.9725 35.6037 92.6994C33.4061 91.5795 31.6193 89.7929 30.4996 87.5955C29.2266 85.0969 29.2266 81.8263 29.2266 75.2852V48.787Z" fill="url(#paint1_linear_1019_5996)" style=""/>
            </g>
            <g filter="url(#filter3_dii_1019_5996)">
                <path d="M50.7785 69.701C54.6085 69.701 57.7133 66.5962 57.7133 62.7662C57.7133 58.9363 54.6085 55.8315 50.7785 55.8315C46.9485 55.8315 43.8438 58.9363 43.8438 62.7662C43.8438 66.5962 46.9485 69.701 50.7785 69.701Z" fill="#EDE9E0" style="fill:#EDE9E0;fill:color(display-p3 0.9294 0.9137 0.8784);fill-opacity:1;"/>
            </g>
            <g filter="url(#filter4_dii_1019_5996)">
                <path d="M82.8957 69.701C86.7257 69.701 89.8305 66.5962 89.8305 62.7662C89.8305 58.9363 86.7257 55.8315 82.8957 55.8315C79.0657 55.8315 75.9609 58.9363 75.9609 62.7662C75.9609 66.5962 79.0657 69.701 82.8957 69.701Z" fill="#EDE9E0" style="fill:#EDE9E0;fill:color(display-p3 0.9294 0.9137 0.8784);fill-opacity:1;"/>
            </g>
            <g filter="url(#filter5_dii_1019_5996)">
                <path d="M66.8019 53.6417C70.6319 53.6417 73.7367 50.5369 73.7367 46.7069C73.7367 42.877 70.6319 39.7722 66.8019 39.7722C62.972 39.7722 59.8672 42.877 59.8672 46.7069C59.8672 50.5369 62.972 53.6417 66.8019 53.6417Z" fill="#EDE9E0" style="fill:#EDE9E0;fill:color(display-p3 0.9294 0.9137 0.8784);fill-opacity:1;"/>
            </g>
            <g filter="url(#filter6_dii_1019_5996)">
                <path d="M66.8019 85.7606C70.6319 85.7606 73.7367 82.6558 73.7367 78.8258C73.7367 74.9958 70.6319 71.8911 66.8019 71.8911C62.972 71.8911 59.8672 74.9958 59.8672 78.8258C59.8672 82.6558 62.972 85.7606 66.8019 85.7606Z" fill="#EDE9E0" style="fill:#EDE9E0;fill:color(display-p3 0.9294 0.9137 0.8784);fill-opacity:1;"/>
            </g>
        </g>
        <path d="M594.609 94.0491V37.0472H604.446V94.0491H594.609Z" fill="#1B1B1B" style="fill:#1B1B1B;fill:color(display-p3 0.1055 0.1055 0.1055);fill-opacity:1;"/>
        <path d="M564.723 94.6135C562.735 94.6135 560.853 94.3446 559.079 93.8072C557.305 93.2699 555.721 92.4902 554.322 91.4691C552.927 90.394 551.799 89.0774 550.936 87.5185C550.13 85.906 549.727 84.0246 549.727 81.8747C549.727 79.1335 550.267 76.903 551.339 75.1829C552.415 73.4091 553.867 72.0655 555.693 71.1516C557.575 70.2377 559.7 69.6197 562.062 69.2972C564.429 68.9211 566.9 68.7329 569.48 68.7329H577.784C577.784 66.8515 577.49 65.239 576.897 63.8954C576.309 62.4977 575.365 61.396 574.075 60.5897C572.842 59.7835 571.229 59.3804 569.238 59.3804C567.948 59.3804 566.738 59.5416 565.61 59.8641C564.537 60.133 563.594 60.5897 562.788 61.2347C562.038 61.8261 561.498 62.6054 561.175 63.5729H551.097C551.476 61.369 552.226 59.488 553.355 57.9291C554.54 56.3166 555.963 54.9996 557.628 53.9785C559.349 52.9574 561.232 52.2047 563.272 51.721C565.315 51.1836 567.383 50.9147 569.48 50.9147C575.664 50.9147 580.15 52.6885 582.944 56.236C585.794 59.7835 587.217 64.7552 587.217 71.1516V94.0491H578.51L578.268 88.5666C577.034 90.394 575.555 91.738 573.833 92.5979C572.116 93.4577 570.447 93.9955 568.835 94.2104C567.222 94.4792 565.852 94.6135 564.723 94.6135ZM566.658 86.6316C568.81 86.6316 570.717 86.2285 572.382 85.4222C574.051 84.616 575.365 83.4872 576.333 82.036C577.357 80.5847 577.865 78.9186 577.865 77.0372V75.6666H570.125C568.835 75.6666 567.545 75.7202 566.255 75.8279C565.021 75.8815 563.892 76.0967 562.868 76.4729C561.849 76.7954 561.014 77.3061 560.369 78.0047C559.78 78.7034 559.482 79.6979 559.482 80.9879C559.482 82.2779 559.805 83.326 560.45 84.1322C561.151 84.9385 562.038 85.5565 563.11 85.9866C564.239 86.4167 565.424 86.6316 566.658 86.6316Z" fill="#1B1B1B" style="fill:#1B1B1B;fill:color(display-p3 0.1055 0.1055 0.1055);fill-opacity:1;"/>
        <path d="M504.281 94.0491V37.0472H525.727C530.025 37.0472 533.734 37.7191 536.854 39.0628C540.022 40.3528 542.469 42.422 544.191 45.2709C545.964 48.1198 546.851 51.8552 546.851 56.4778C546.851 60.8852 545.884 64.5673 543.949 67.5234C542.014 70.4795 539.377 72.7104 536.047 74.2153C532.714 75.6666 528.896 76.3922 524.599 76.3922H514.359V94.0491H504.281ZM514.359 67.3622H524.437C528.146 67.3622 531.129 66.4753 533.387 64.7016C535.644 62.9278 536.773 60.1329 536.773 56.3166C536.773 52.9839 535.83 50.4845 533.951 48.8184C532.069 47.0983 529.166 46.2384 525.244 46.2384H514.359V67.3622Z" fill="#1B1B1B" style="fill:#1B1B1B;fill:color(display-p3 0.1055 0.1055 0.1055);fill-opacity:1;"/>
        <path d="M444.334 94.0489L431.031 51.5596H441.916L450.462 83.2452L459.573 51.5596H471.183L480.293 83.2452L488.759 51.5596H499.482L486.179 94.0489H474.408L465.216 63.4114L456.106 94.0489H444.334Z" fill="#1B1B1B" style="fill:#1B1B1B;fill:color(display-p3 0.1055 0.1055 0.1055);fill-opacity:1;"/>
        <path d="M410.124 94.6135C405.717 94.6135 401.954 93.6996 398.837 91.8722C395.773 90.0449 393.435 87.5185 391.822 84.2935C390.264 81.0149 389.484 77.2255 389.484 72.9254C389.484 68.6252 390.291 64.8359 391.903 61.5572C393.569 58.2246 395.934 55.618 398.998 53.7366C402.115 51.8552 405.85 50.9147 410.204 50.9147C413.429 50.9147 416.251 51.5061 418.67 52.6885C421.089 53.8172 423.104 55.3761 424.717 57.3647C426.386 59.3533 427.619 61.6108 428.425 64.1372C429.232 66.6636 429.611 69.3242 429.554 72.1191C429.502 72.7641 429.449 73.4091 429.393 74.0541C429.341 74.6455 429.26 75.2905 429.151 75.9891H399.321C399.482 77.8705 399.966 79.5902 400.772 81.1491C401.632 82.708 402.814 83.944 404.319 84.8579C405.879 85.7717 407.814 86.2285 410.124 86.2285C411.47 86.2285 412.76 86.0672 413.994 85.7447C415.231 85.3686 416.308 84.8309 417.219 84.1322C418.186 83.4336 418.831 82.5467 419.154 81.4716H428.99C428.292 84.5354 427.002 87.0347 425.12 88.9697C423.241 90.9047 420.984 92.329 418.347 93.2429C415.767 94.1567 413.026 94.6135 410.124 94.6135ZM399.482 68.6522H419.96C419.96 66.8785 419.557 65.266 418.75 63.8147C417.944 62.3635 416.791 61.2347 415.284 60.4285C413.832 59.5686 412.059 59.1385 409.962 59.1385C407.705 59.1385 405.826 59.5952 404.319 60.5091C402.814 61.423 401.659 62.6054 400.852 64.0566C400.046 65.5079 399.589 67.0397 399.482 68.6522Z" fill="#1B1B1B" style="fill:#1B1B1B;fill:color(display-p3 0.1055 0.1055 0.1055);fill-opacity:1;"/>
        <path d="M373.774 94.049V51.5597H383.611V94.049H373.774ZM378.693 46.6415C376.812 46.6415 375.306 46.0772 374.177 44.9484C373.049 43.8197 372.484 42.3418 372.484 40.514C372.484 38.7404 373.076 37.2892 374.258 36.1604C375.441 34.9779 376.919 34.3867 378.693 34.3867C380.413 34.3867 381.891 34.951 383.127 36.0798C384.363 37.2085 384.981 38.6867 384.981 40.514C384.981 42.3418 384.39 43.8197 383.208 44.9484C382.025 46.0772 380.52 46.6415 378.693 46.6415Z" fill="#1B1B1B" style="fill:#1B1B1B;fill:color(display-p3 0.1055 0.1055 0.1055);fill-opacity:1;"/>
        <path d="M342.243 94.0489L326.844 51.5596H337.728L348.935 85.6639L360.061 51.5596H370.865L355.466 94.0489H342.243Z" fill="#1B1B1B" style="fill:#1B1B1B;fill:color(display-p3 0.1055 0.1055 0.1055);fill-opacity:1;"/>
        <path d="M302.375 94.0491V51.5597H311.324L311.889 57.1229C312.964 55.5104 314.173 54.274 315.517 53.4141C316.915 52.5002 318.392 51.8552 319.951 51.4791C321.564 51.103 323.176 50.9147 324.789 50.9147C325.38 50.9147 325.917 50.9147 326.401 50.9147C326.939 50.9147 327.369 50.9417 327.691 50.9954V60.3479H325.111C322.316 60.3479 319.951 60.8852 318.016 61.9604C316.081 63.0355 314.63 64.5674 313.663 66.556C312.695 68.5446 312.211 70.9904 312.211 73.8929V94.0491H302.375Z" fill="#1B1B1B" style="fill:#1B1B1B;fill:color(display-p3 0.1055 0.1055 0.1055);fill-opacity:1;"/>
        <path d="M277.093 94.6135C272.686 94.6135 268.923 93.6996 265.806 91.8722C262.742 90.0449 260.404 87.5185 258.791 84.2935C257.232 81.0149 256.453 77.2255 256.453 72.9254C256.453 68.6252 257.259 64.8359 258.872 61.5572C260.538 58.2246 262.903 55.618 265.967 53.7366C269.084 51.8552 272.82 50.9147 277.174 50.9147C280.399 50.9147 283.221 51.5061 285.639 52.6885C288.058 53.8172 290.074 55.3761 291.686 57.3647C293.352 59.3533 294.589 61.6108 295.395 64.1372C296.201 66.6636 296.577 69.3242 296.524 72.1191C296.47 72.7641 296.416 73.4091 296.362 74.0541C296.309 74.6455 296.228 75.2905 296.121 75.9891H266.289C266.451 77.8705 266.934 79.5902 267.741 81.1491C268.6 82.708 269.783 83.944 271.288 84.8579C272.847 85.7717 274.782 86.2285 277.093 86.2285C278.437 86.2285 279.727 86.0672 280.963 85.7447C282.2 85.3686 283.274 84.8309 284.188 84.1322C285.156 83.4336 285.801 82.5467 286.123 81.4716H295.959C295.261 84.5354 293.971 87.0347 292.089 88.9697C290.208 90.9047 287.95 92.329 285.317 93.2429C282.737 94.1567 279.996 94.6135 277.093 94.6135ZM266.451 68.6522H286.929C286.929 66.8785 286.526 65.266 285.72 63.8147C284.914 62.3635 283.758 61.2347 282.253 60.4285C280.802 59.5686 279.028 59.1385 276.932 59.1385C274.674 59.1385 272.793 59.5952 271.288 60.5091C269.783 61.423 268.628 62.6054 267.821 64.0566C267.015 65.5079 266.558 67.0397 266.451 68.6522Z" fill="#1B1B1B" style="fill:#1B1B1B;fill:color(display-p3 0.1055 0.1055 0.1055);fill-opacity:1;"/>
        <path d="M243.729 94.5328C239.053 94.5328 235.64 93.2428 233.49 90.6628C231.34 88.0828 230.265 84.5087 230.265 79.9397V60.2672H223.734V51.5597H230.265V39.6273H240.101V51.5597H253.001V60.2672H240.101V78.0853C240.101 79.4829 240.263 80.7459 240.585 81.8747C240.908 83.0034 241.499 83.8903 242.359 84.5353C243.219 85.1803 244.401 85.5298 245.906 85.5834C247.196 85.5834 248.298 85.3686 249.212 84.9384C250.126 84.5087 250.878 84.0245 251.469 83.4872L254.775 90.9853C253.754 91.8456 252.598 92.5442 251.308 93.0816C250.072 93.6193 248.809 93.9954 247.519 94.2103C246.229 94.4256 244.966 94.5328 243.729 94.5328Z" fill="#1B1B1B" style="fill:#1B1B1B;fill:color(display-p3 0.1055 0.1055 0.1055);fill-opacity:1;"/>
        <path d="M180.461 94.0491V51.5597H189.652L190.217 56.9616C191.345 55.4567 192.662 54.274 194.167 53.4141C195.672 52.5542 197.258 51.9358 198.924 51.5597C200.591 51.1296 202.149 50.9147 203.6 50.9147C207.632 50.9147 210.803 51.8016 213.114 53.5754C215.479 55.3491 217.145 57.7142 218.113 60.6704C219.08 63.6265 219.564 66.9321 219.564 70.5872V94.0491H209.728V72.1997C209.728 70.6408 209.621 69.136 209.405 67.6847C209.19 66.1799 208.76 64.8358 208.115 63.6535C207.524 62.4711 206.664 61.5302 205.535 60.8316C204.407 60.133 202.902 59.7835 201.02 59.7835C198.709 59.7835 196.747 60.4015 195.135 61.6379C193.522 62.8742 192.313 64.5404 191.507 66.6366C190.7 68.6792 190.297 71.0174 190.297 73.651V94.0491H180.461Z" fill="#1B1B1B" style="fill:#1B1B1B;fill:color(display-p3 0.1055 0.1055 0.1055);fill-opacity:1;"/>
        <path d="M161.25 94.0491V37.0472H171.328V94.0491H161.25Z" fill="#1B1B1B" style="fill:#1B1B1B;fill:color(display-p3 0.1055 0.1055 0.1055);fill-opacity:1;"/>
    </g>
    <defs>
        <filter id="filter0_iiii_1019_5996" x="-5.16" y="-5.16" width="139.32" height="139.32" filterUnits="userSpaceOnUse" color-interpolation-filters="sRGB">
            <feFlood flood-opacity="0" result="BackgroundImageFix"/>
            <feBlend mode="normal" in="SourceGraphic" in2="BackgroundImageFix" result="shape"/>
            <feColorMatrix in="SourceAlpha" type="matrix" values="0 0 0 0 0 0 0 0 0 0 0 0 0 0 0 0 0 0 127 0" result="hardAlpha"/>
            <feOffset dx="5.16"/>
            <feGaussianBlur stdDeviation="3.44"/>
            <feComposite in2="hardAlpha" operator="arithmetic" k2="-1" k3="1"/>
            <feColorMatrix type="matrix" values="0 0 0 0 0.792157 0 0 0 0 0.694118 0 0 0 0 0.678431 0 0 0 0.33 0"/>
            <feBlend mode="normal" in2="shape" result="effect1_innerShadow_1019_5996"/>
            <feColorMatrix in="SourceAlpha" type="matrix" values="0 0 0 0 0 0 0 0 0 0 0 0 0 0 0 0 0 0 127 0" result="hardAlpha"/>
            <feOffset dy="-5.16"/>
            <feGaussianBlur stdDeviation="3.44"/>
            <feComposite in2="hardAlpha" operator="arithmetic" k2="-1" k3="1"/>
            <feColorMatrix type="matrix" values="0 0 0 0 0.792157 0 0 0 0 0.694118 0 0 0 0 0.678431 0 0 0 0.33 0"/>
            <feBlend mode="normal" in2="effect1_innerShadow_1019_5996" result="effect2_innerShadow_1019_5996"/>
            <feColorMatrix in="SourceAlpha" type="matrix" values="0 0 0 0 0 0 0 0 0 0 0 0 0 0 0 0 0 0 127 0" result="hardAlpha"/>
            <feOffset dy="5.16"/>
            <feGaussianBlur stdDeviation="3.44"/>
            <feComposite in2="hardAlpha" operator="arithmetic" k2="-1" k3="1"/>
            <feColorMatrix type="matrix" values="0 0 0 0 1 0 0 0 0 1 0 0 0 0 1 0 0 0 0.33 0"/>
            <feBlend mode="normal" in2="effect2_innerShadow_1019_5996" result="effect3_innerShadow_1019_5996"/>
            <feColorMatrix in="SourceAlpha" type="matrix" values="0 0 0 0 0 0 0 0 0 0 0 0 0 0 0 0 0 0 127 0" result="hardAlpha"/>
            <feOffset dx="-5.16"/>
            <feGaussianBlur stdDeviation="3.44"/>
            <feComposite in2="hardAlpha" operator="arithmetic" k2="-1" k3="1"/>
            <feColorMatrix type="matrix" values="0 0 0 0 1 0 0 0 0 1 0 0 0 0 1 0 0 0 0.33 0"/>
            <feBlend mode="normal" in2="effect3_innerShadow_1019_5996" result="effect4_innerShadow_1019_5996"/>
        </filter>
        <filter id="filter1_d_1019_5996" x="14.1765" y="21.7148" width="104.861" height="91.427" filterUnits="userSpaceOnUse" color-interpolation-filters="sRGB">
            <feFlood flood-opacity="0" result="BackgroundImageFix"/>
            <feColorMatrix in="SourceAlpha" type="matrix" values="0 0 0 0 0 0 0 0 0 0 0 0 0 0 0 0 0 0 127 0" result="hardAlpha"/>
            <feOffset dx="-3.225" dy="3.44"/>
            <feGaussianBlur stdDeviation="5.91251"/>
            <feComposite in2="hardAlpha" operator="out"/>
            <feColorMatrix type="matrix" values="0 0 0 0 0 0 0 0 0 0 0 0 0 0 0 0 0 0 0.33 0"/>
            <feBlend mode="normal" in2="BackgroundImageFix" result="effect1_dropShadow_1019_5996"/>
            <feBlend mode="normal" in="SourceGraphic" in2="effect1_dropShadow_1019_5996" result="shape"/>
        </filter>
        <filter id="filter2_iiii_1019_5996" x="25.9417" y="25.72" width="88.8757" height="75.4416" filterUnits="userSpaceOnUse" color-interpolation-filters="sRGB">
            <feFlood flood-opacity="0" result="BackgroundImageFix"/>
            <feBlend mode="normal" in="SourceGraphic" in2="BackgroundImageFix" result="shape"/>
            <feColorMatrix in="SourceAlpha" type="matrix" values="0 0 0 0 0 0 0 0 0 0 0 0 0 0 0 0 0 0 127 0" result="hardAlpha"/>
            <feOffset dx="4.37983"/>
            <feGaussianBlur stdDeviation="2.91989"/>
            <feComposite in2="hardAlpha" operator="arithmetic" k2="-1" k3="1"/>
            <feColorMatrix type="matrix" values="0 0 0 0 0.0666667 0 0 0 0 0.584314 0 0 0 0 0.270588 0 0 0 1 0"/>
            <feBlend mode="normal" in2="shape" result="effect1_innerShadow_1019_5996"/>
            <feColorMatrix in="SourceAlpha" type="matrix" values="0 0 0 0 0 0 0 0 0 0 0 0 0 0 0 0 0 0 127 0" result="hardAlpha"/>
            <feOffset dy="-4.37983"/>
            <feGaussianBlur stdDeviation="2.91989"/>
            <feComposite in2="hardAlpha" operator="arithmetic" k2="-1" k3="1"/>
            <feColorMatrix type="matrix" values="0 0 0 0 0.0668373 0 0 0 0 0.583805 0 0 0 0 0.271471 0 0 0 1 0"/>
            <feBlend mode="normal" in2="effect1_innerShadow_1019_5996" result="effect2_innerShadow_1019_5996"/>
            <feColorMatrix in="SourceAlpha" type="matrix" values="0 0 0 0 0 0 0 0 0 0 0 0 0 0 0 0 0 0 127 0" result="hardAlpha"/>
            <feOffset dy="3.28488"/>
            <feGaussianBlur stdDeviation="2.18992"/>
            <feComposite in2="hardAlpha" operator="arithmetic" k2="-1" k3="1"/>
            <feColorMatrix type="matrix" values="0 0 0 0 1 0 0 0 0 1 0 0 0 0 1 0 0 0 0.22 0"/>
            <feBlend mode="normal" in2="effect2_innerShadow_1019_5996" result="effect3_innerShadow_1019_5996"/>
            <feColorMatrix in="SourceAlpha" type="matrix" values="0 0 0 0 0 0 0 0 0 0 0 0 0 0 0 0 0 0 127 0" result="hardAlpha"/>
            <feOffset dx="-3.28488"/>
            <feGaussianBlur stdDeviation="2.18992"/>
            <feComposite in2="hardAlpha" operator="arithmetic" k2="-1" k3="1"/>
            <feColorMatrix type="matrix" values="0 0 0 0 1 0 0 0 0 1 0 0 0 0 1 0 0 0 0.44 0"/>
            <feBlend mode="normal" in2="effect3_innerShadow_1019_5996" result="effect4_innerShadow_1019_5996"/>
        </filter>
        <filter id="filter3_dii_1019_5996" x="42.3838" y="54.7365" width="16.6046" height="16.4244" filterUnits="userSpaceOnUse" color-interpolation-filters="sRGB">
            <feFlood flood-opacity="0" result="BackgroundImageFix"/>
            <feColorMatrix in="SourceAlpha" type="matrix" values="0 0 0 0 0 0 0 0 0 0 0 0 0 0 0 0 0 0 127 0" result="hardAlpha"/>
            <feOffset dx="0.729975" dy="-0.54748"/>
            <feGaussianBlur stdDeviation="0.27374"/>
            <feComposite in2="hardAlpha" operator="out"/>
            <feColorMatrix type="matrix" values="0 0 0 0 0.0784314 0 0 0 0 0.596078 0 0 0 0 0.282353 0 0 0 0.66 0"/>
            <feBlend mode="normal" in2="BackgroundImageFix" result="effect1_dropShadow_1019_5996"/>
            <feBlend mode="normal" in="SourceGraphic" in2="effect1_dropShadow_1019_5996" result="shape"/>
            <feColorMatrix in="SourceAlpha" type="matrix" values="0 0 0 0 0 0 0 0 0 0 0 0 0 0 0 0 0 0 127 0" result="hardAlpha"/>
            <feOffset dx="-0.54748" dy="0.54748"/>
            <feGaussianBlur stdDeviation="0.364987"/>
            <feComposite in2="hardAlpha" operator="arithmetic" k2="-1" k3="1"/>
            <feColorMatrix type="matrix" values="0 0 0 0 1 0 0 0 0 1 0 0 0 0 1 0 0 0 0.25 0"/>
            <feBlend mode="normal" in2="shape" result="effect2_innerShadow_1019_5996"/>
            <feColorMatrix in="SourceAlpha" type="matrix" values="0 0 0 0 0 0 0 0 0 0 0 0 0 0 0 0 0 0 127 0" result="hardAlpha"/>
            <feOffset dx="-1.45995" dy="1.45995"/>
            <feGaussianBlur stdDeviation="1.09496"/>
            <feComposite in2="hardAlpha" operator="arithmetic" k2="-1" k3="1"/>
            <feColorMatrix type="matrix" values="0 0 0 0 0.722168 0 0 0 0 0.48793 0 0 0 0 0.455246 0 0 0 0.66 0"/>
            <feBlend mode="normal" in2="effect2_innerShadow_1019_5996" result="effect3_innerShadow_1019_5996"/>
        </filter>
        <filter id="filter4_dii_1019_5996" x="74.501" y="54.7365" width="16.6046" height="16.4244" filterUnits="userSpaceOnUse" color-interpolation-filters="sRGB">
            <feFlood flood-opacity="0" result="BackgroundImageFix"/>
            <feColorMatrix in="SourceAlpha" type="matrix" values="0 0 0 0 0 0 0 0 0 0 0 0 0 0 0 0 0 0 127 0" result="hardAlpha"/>
            <feOffset dx="0.729975" dy="-0.54748"/>
            <feGaussianBlur stdDeviation="0.27374"/>
            <feComposite in2="hardAlpha" operator="out"/>
            <feColorMatrix type="matrix" values="0 0 0 0 0.0784314 0 0 0 0 0.596078 0 0 0 0 0.282353 0 0 0 0.66 0"/>
            <feBlend mode="normal" in2="BackgroundImageFix" result="effect1_dropShadow_1019_5996"/>
            <feBlend mode="normal" in="SourceGraphic" in2="effect1_dropShadow_1019_5996" result="shape"/>
            <feColorMatrix in="SourceAlpha" type="matrix" values="0 0 0 0 0 0 0 0 0 0 0 0 0 0 0 0 0 0 127 0" result="hardAlpha"/>
            <feOffset dx="-0.54748" dy="0.54748"/>
            <feGaussianBlur stdDeviation="0.364987"/>
            <feComposite in2="hardAlpha" operator="arithmetic" k2="-1" k3="1"/>
            <feColorMatrix type="matrix" values="0 0 0 0 1 0 0 0 0 1 0 0 0 0 1 0 0 0 0.25 0"/>
            <feBlend mode="normal" in2="shape" result="effect2_innerShadow_1019_5996"/>
            <feColorMatrix in="SourceAlpha" type="matrix" values="0 0 0 0 0 0 0 0 0 0 0 0 0 0 0 0 0 0 127 0" result="hardAlpha"/>
            <feOffset dx="-1.45995" dy="1.45995"/>
            <feGaussianBlur stdDeviation="1.09496"/>
            <feComposite in2="hardAlpha" operator="arithmetic" k2="-1" k3="1"/>
            <feColorMatrix type="matrix" values="0 0 0 0 0.722168 0 0 0 0 0.48793 0 0 0 0 0.455246 0 0 0 0.66 0"/>
            <feBlend mode="normal" in2="effect2_innerShadow_1019_5996" result="effect3_innerShadow_1019_5996"/>
        </filter>
        <filter id="filter5_dii_1019_5996" x="58.4072" y="38.6772" width="16.6046" height="16.4244" filterUnits="userSpaceOnUse" color-interpolation-filters="sRGB">
            <feFlood flood-opacity="0" result="BackgroundImageFix"/>
            <feColorMatrix in="SourceAlpha" type="matrix" values="0 0 0 0 0 0 0 0 0 0 0 0 0 0 0 0 0 0 127 0" result="hardAlpha"/>
            <feOffset dx="0.729975" dy="-0.54748"/>
            <feGaussianBlur stdDeviation="0.27374"/>
            <feComposite in2="hardAlpha" operator="out"/>
            <feColorMatrix type="matrix" values="0 0 0 0 0.0784314 0 0 0 0 0.596078 0 0 0 0 0.282353 0 0 0 0.66 0"/>
            <feBlend mode="normal" in2="BackgroundImageFix" result="effect1_dropShadow_1019_5996"/>
            <feBlend mode="normal" in="SourceGraphic" in2="effect1_dropShadow_1019_5996" result="shape"/>
            <feColorMatrix in="SourceAlpha" type="matrix" values="0 0 0 0 0 0 0 0 0 0 0 0 0 0 0 0 0 0 127 0" result="hardAlpha"/>
            <feOffset dx="-0.54748" dy="0.54748"/>
            <feGaussianBlur stdDeviation="0.364987"/>
            <feComposite in2="hardAlpha" operator="arithmetic" k2="-1" k3="1"/>
            <feColorMatrix type="matrix" values="0 0 0 0 1 0 0 0 0 1 0 0 0 0 1 0 0 0 0.25 0"/>
            <feBlend mode="normal" in2="shape" result="effect2_innerShadow_1019_5996"/>
            <feColorMatrix in="SourceAlpha" type="matrix" values="0 0 0 0 0 0 0 0 0 0 0 0 0 0 0 0 0 0 127 0" result="hardAlpha"/>
            <feOffset dx="-1.45995" dy="1.45995"/>
            <feGaussianBlur stdDeviation="1.09496"/>
            <feComposite in2="hardAlpha" operator="arithmetic" k2="-1" k3="1"/>
            <feColorMatrix type="matrix" values="0 0 0 0 0.722168 0 0 0 0 0.48793 0 0 0 0 0.455246 0 0 0 0.66 0"/>
            <feBlend mode="normal" in2="effect2_innerShadow_1019_5996" result="effect3_innerShadow_1019_5996"/>
        </filter>
        <filter id="filter6_dii_1019_5996" x="58.4072" y="70.7961" width="16.6046" height="16.4244" filterUnits="userSpaceOnUse" color-interpolation-filters="sRGB">
            <feFlood flood-opacity="0" result="BackgroundImageFix"/>
            <feColorMatrix in="SourceAlpha" type="matrix" values="0 0 0 0 0 0 0 0 0 0 0 0 0 0 0 0 0 0 127 0" result="hardAlpha"/>
            <feOffset dx="0.729975" dy="-0.54748"/>
            <feGaussianBlur stdDeviation="0.27374"/>
            <feComposite in2="hardAlpha" operator="out"/>
            <feColorMatrix type="matrix" values="0 0 0 0 0.0784314 0 0 0 0 0.596078 0 0 0 0 0.282353 0 0 0 0.66 0"/>
            <feBlend mode="normal" in2="BackgroundImageFix" result="effect1_dropShadow_1019_5996"/>
            <feBlend mode="normal" in="SourceGraphic" in2="effect1_dropShadow_1019_5996" result="shape"/>
            <feColorMatrix in="SourceAlpha" type="matrix" values="0 0 0 0 0 0 0 0 0 0 0 0 0 0 0 0 0 0 127 0" result="hardAlpha"/>
            <feOffset dx="-0.54748" dy="0.54748"/>
            <feGaussianBlur stdDeviation="0.364987"/>
            <feComposite in2="hardAlpha" operator="arithmetic" k2="-1" k3="1"/>
            <feColorMatrix type="matrix" values="0 0 0 0 1 0 0 0 0 1 0 0 0 0 1 0 0 0 0.25 0"/>
            <feBlend mode="normal" in2="shape" result="effect2_innerShadow_1019_5996"/>
            <feColorMatrix in="SourceAlpha" type="matrix" values="0 0 0 0 0 0 0 0 0 0 0 0 0 0 0 0 0 0 127 0" result="hardAlpha"/>
            <feOffset dx="-1.45995" dy="1.45995"/>
            <feGaussianBlur stdDeviation="1.09496"/>
            <feComposite in2="hardAlpha" operator="arithmetic" k2="-1" k3="1"/>
            <feColorMatrix type="matrix" values="0 0 0 0 0.722168 0 0 0 0 0.48793 0 0 0 0 0.455246 0 0 0 0.66 0"/>
            <feBlend mode="normal" in2="effect2_innerShadow_1019_5996" result="effect3_innerShadow_1019_5996"/>
        </filter>
        <linearGradient id="paint0_linear_1019_5996" x1="64.5" y1="0" x2="64.5" y2="129" gradientUnits="userSpaceOnUse">
            <stop offset="0.100539" stop-color="#ECE8E1" style="stop-color:#ECE8E1;stop-color:color(display-p3 0.9255 0.9098 0.8824);stop-opacity:1;"/>
            <stop offset="0.171048" stop-color="#EAE6DE" style="stop-color:#EAE6DE;stop-color:color(display-p3 0.9176 0.9020 0.8706);stop-opacity:1;"/>
            <stop offset="0.326166" stop-color="#EDE8DF" style="stop-color:#EDE8DF;stop-color:color(display-p3 0.9294 0.9098 0.8745);stop-opacity:1;"/>
            <stop offset="0.520831" stop-color="#EDE7E1" style="stop-color:#EDE7E1;stop-color:color(display-p3 0.9294 0.9059 0.8824);stop-opacity:1;"/>
            <stop offset="0.699493" stop-color="#EBE6E1" style="stop-color:#EBE6E1;stop-color:color(display-p3 0.9216 0.9020 0.8824);stop-opacity:1;"/>
            <stop offset="1" stop-color="#D8D0C8" style="stop-color:#D8D0C8;stop-color:color(display-p3 0.8471 0.8157 0.7843);stop-opacity:1;"/>
        </linearGradient>
        <linearGradient id="paint1_linear_1019_5996" x1="65.7251" y1="30.0998" x2="65.7251" y2="93.9725" gradientUnits="userSpaceOnUse">
            <stop offset="0.100539" stop-color="#84DCA7" style="stop-color:#84DCA7;stop-color:color(display-p3 0.5178 0.8623 0.6547);stop-opacity:1;"/>
            <stop offset="0.171048" stop-color="#6CBA8B" style="stop-color:#6CBA8B;stop-color:color(display-p3 0.4235 0.7294 0.5451);stop-opacity:1;"/>
            <stop offset="0.326166" stop-color="#5AC585" style="stop-color:#5AC585;stop-color:color(display-p3 0.3544 0.7733 0.5209);stop-opacity:1;"/>
            <stop offset="0.520831" stop-color="#2BBE66" style="stop-color:#2BBE66;stop-color:color(display-p3 0.1700 0.7453 0.3986);stop-opacity:1;"/>
            <stop offset="0.699493" stop-color="#139E4A" style="stop-color:#139E4A;stop-color:color(display-p3 0.0750 0.6179 0.2908);stop-opacity:1;"/>
            <stop offset="1" stop-color="#00AC44" style="stop-color:#00AC44;stop-color:color(display-p3 0.0000 0.6751 0.2683);stop-opacity:1;"/>
        </linearGradient>
        <clipPath id="clip0_1019_5996">
            <rect width="604.688" height="129" fill="white" style="fill:white;fill-opacity:1;"/>
        </clipPath>
    </defs>
</svg>
