<svg width="265" height="50" viewBox="0 0 265 50" fill="none" xmlns="http://www.w3.org/2000/svg">
<g filter="url(#filter0_dii_248_12707)">
<path d="M0.247559 10.94C0.248685 8.15444 0.248635 6.35842 0.912663 4.98667C1.49676 3.78003 2.42858 2.79889 3.57493 2.18408C4.87815 1.48514 6.58372 1.48511 9.99575 1.48511L39.6797 1.48513C43.0916 1.48513 44.7973 1.48516 46.1005 2.1841C47.2468 2.79891 48.1787 3.78006 48.7627 4.98669C49.4268 6.35845 49.4268 8.15446 49.4255 10.94L49.7525 38.2539C49.7525 41.8455 49.7525 43.6415 49.0884 45.0133C48.5045 46.2198 47.5726 47.2009 46.4263 47.8158C45.1231 48.5148 43.4174 48.5148 40.0055 48.5148H10.3215C6.90946 48.5148 5.20387 48.5148 3.90065 47.8158C2.75429 47.2009 1.82248 46.2198 1.23839 45.0131C0.574363 43.6415 0.57441 41.8455 0.57441 38.2539L0.247559 10.94Z" fill="url(#paint0_linear_248_12707)"/>
<path d="M8.42554 17.9683C8.42554 14.9199 8.42556 13.3956 8.98918 12.2313C9.48497 11.2071 10.2761 10.3744 11.2491 9.85254C12.3553 9.25928 13.8033 9.25928 16.6995 9.25928H32.4719C35.3679 9.25928 36.816 9.25928 37.9224 9.85254C38.8954 10.3744 39.6865 11.2071 40.1823 12.2313C40.7459 13.3956 40.7459 14.9199 40.7459 17.9683V29.1305C40.7459 30.0439 40.7459 30.5003 40.816 30.9439C40.8781 31.3377 40.9813 31.7228 41.1236 32.0929C41.2838 32.5097 41.5103 32.8991 41.9632 33.678L44.0536 37.2716C44.2682 37.6407 44.3818 38.0649 44.3818 38.4976C44.3818 39.9664 43.115 41.0746 41.7429 40.8058L33.4167 39.1738C33.1353 39.1186 32.9947 39.0912 32.8531 39.0719C32.7271 39.0545 32.6006 39.0424 32.4739 39.035C32.3313 39.0266 32.1882 39.0266 31.9018 39.0266H16.6995C13.8033 39.0266 12.3553 39.0266 11.2491 38.4335C10.2761 37.9115 9.48497 37.0788 8.98918 36.0545C8.42556 34.8902 8.42554 33.3659 8.42554 30.3176V17.9683Z" fill="url(#paint1_linear_248_12707)"/>
<path d="M21.0302 24.4831C21.0302 26.2681 19.6555 27.7151 17.9598 27.7151C16.2641 27.7151 14.8894 26.2681 14.8894 24.4831C14.8894 22.6982 16.2641 21.2512 17.9598 21.2512C19.6555 21.2512 21.0302 22.6982 21.0302 24.4831Z" fill="#EDE9E0"/>
<path d="M35.2509 24.4831C35.2509 26.2679 33.8764 27.7152 32.1806 27.7152C30.4849 27.7152 29.1101 26.2679 29.1101 24.4831C29.1101 22.6982 30.4849 21.2512 32.1806 21.2512C33.8764 21.2512 35.2509 22.6982 35.2509 24.4831Z" fill="#EDE9E0"/>
<path d="M28.1407 16.9988C28.1407 18.7837 26.766 20.2306 25.0702 20.2306C23.3744 20.2306 21.9998 18.7837 21.9998 16.9988C21.9998 15.2138 23.3744 13.7668 25.0702 13.7668C26.766 13.7668 28.1407 15.2138 28.1407 16.9988Z" fill="#EDE9E0"/>
<path d="M28.1407 31.9675C28.1407 33.7524 26.7659 35.1995 25.0702 35.1995C23.3744 35.1995 21.9998 33.7524 21.9998 31.9675C21.9998 30.1826 23.3744 28.7356 25.0702 28.7356C26.7659 28.7356 28.1407 30.1826 28.1407 31.9675Z" fill="#EDE9E0"/>
</g>
<path d="M68.8992 12.4243V36.6667H63.7737V12.4243H68.8992Z" fill="url(#paint2_linear_248_12707)"/>
<path d="M78.064 26.1553V36.6667H73.0214V18.4849H77.8273V21.6927H78.0404C78.4428 20.6353 79.1175 19.7988 80.0645 19.1832C81.0115 18.5598 82.1597 18.2481 83.5091 18.2481C84.7717 18.2481 85.8726 18.5243 86.8117 19.0767C87.7508 19.6291 88.4807 20.4183 89.0015 21.4441C89.5224 22.4621 89.7828 23.6774 89.7828 25.09V36.6667H84.7402V25.9896C84.7481 24.8769 84.464 24.0088 83.8879 23.3854C83.3118 22.7541 82.5187 22.4385 81.5086 22.4385C80.83 22.4385 80.2302 22.5844 79.7094 22.8764C79.1965 23.1684 78.794 23.5945 78.502 24.1548C78.2179 24.7072 78.0719 25.3741 78.064 26.1553Z" fill="url(#paint3_linear_248_12707)"/>
<path d="M126.439 36.6667V18.4849H131.328V21.6572H131.518C131.849 20.5287 132.405 19.6765 133.187 19.1004C133.968 18.5164 134.867 18.2244 135.885 18.2244C136.138 18.2244 136.41 18.2402 136.702 18.2718C136.994 18.3034 137.251 18.3468 137.472 18.402V22.8764C137.235 22.8054 136.907 22.7423 136.489 22.687C136.071 22.6318 135.688 22.6042 135.341 22.6042C134.599 22.6042 133.936 22.766 133.352 23.0895C132.776 23.4052 132.319 23.8471 131.979 24.4153C131.648 24.9834 131.482 25.6384 131.482 26.3802V36.6667H126.439Z" fill="url(#paint4_linear_248_12707)"/>
<path d="M157.583 18.4849L151.226 36.6667H145.545L139.188 18.4849H144.515L148.291 31.4939H148.48L152.244 18.4849H157.583Z" fill="url(#paint5_linear_248_12707)"/>
<path d="M160.163 36.6667V18.4849H165.206V36.6667H160.163ZM162.697 16.1411C161.947 16.1411 161.304 15.8925 160.767 15.3954C160.238 14.8903 159.974 14.2866 159.974 13.5843C159.974 12.8898 160.238 12.294 160.767 11.7969C161.304 11.2918 161.947 11.0393 162.697 11.0393C163.446 11.0393 164.085 11.2918 164.614 11.7969C165.151 12.294 165.419 12.8898 165.419 13.5843C165.419 14.2866 165.151 14.8903 164.614 15.3954C164.085 15.8925 163.446 16.1411 162.697 16.1411Z" fill="url(#paint6_linear_248_12707)"/>
<path d="M192.624 36.6667L187.676 18.4849H192.778L195.595 30.7008H195.761L198.696 18.4849H203.703L206.686 30.6297H206.84L209.61 18.4849H214.7L209.764 36.6667H204.425L201.3 25.232H201.075L197.95 36.6667H192.624Z" fill="url(#paint7_linear_248_12707)"/>
<path d="M243.668 37.01C242.508 37.01 241.475 36.8087 240.567 36.4063C239.659 35.9959 238.941 35.3922 238.413 34.5952C237.892 33.7903 237.631 32.788 237.631 31.5886C237.631 30.5784 237.817 29.7301 238.188 29.0436C238.559 28.357 239.064 27.8046 239.703 27.3864C240.342 26.9681 241.068 26.6525 241.881 26.4394C242.702 26.2263 243.562 26.0764 244.461 25.9896C245.519 25.8791 246.371 25.7765 247.018 25.6818C247.665 25.5792 248.135 25.4293 248.427 25.232C248.719 25.0347 248.865 24.7427 248.865 24.3561V24.285C248.865 23.5354 248.628 22.9553 248.155 22.545C247.689 22.1346 247.026 21.9295 246.166 21.9295C245.258 21.9295 244.536 22.1307 244 22.5332C243.463 22.9277 243.108 23.4249 242.934 24.0246L238.271 23.6458C238.507 22.541 238.973 21.5862 239.667 20.7813C240.362 19.9684 241.258 19.345 242.354 18.911C243.459 18.4691 244.738 18.2481 246.19 18.2481C247.2 18.2481 248.166 18.3665 249.09 18.6032C250.021 18.84 250.846 19.2069 251.564 19.7041C252.29 20.2012 252.862 20.8404 253.28 21.6217C253.698 22.3951 253.907 23.3223 253.907 24.4034V36.6667H249.125V34.1454H248.983C248.691 34.7136 248.301 35.2147 247.811 35.6487C247.322 36.0748 246.734 36.4102 246.048 36.6548C245.361 36.8916 244.568 37.01 243.668 37.01ZM245.112 33.5298C245.854 33.5298 246.509 33.3838 247.077 33.0919C247.646 32.792 248.091 32.3895 248.415 31.8845C248.739 31.3794 248.9 30.8073 248.9 30.1681V28.2386C248.743 28.3412 248.525 28.4359 248.249 28.5227C247.981 28.6017 247.677 28.6766 247.338 28.7476C246.999 28.8108 246.659 28.87 246.32 28.9252C245.981 28.9725 245.673 29.016 245.397 29.0554C244.805 29.1422 244.288 29.2803 243.846 29.4697C243.404 29.6591 243.061 29.9156 242.816 30.2391C242.571 30.5548 242.449 30.9493 242.449 31.4228C242.449 32.1094 242.698 32.6342 243.195 32.9972C243.7 33.3523 244.339 33.5298 245.112 33.5298Z" fill="url(#paint8_linear_248_12707)"/>
<path d="M262.862 12.4243V36.6667H257.82V12.4243H262.862Z" fill="url(#paint9_linear_248_12707)"/>
<path d="M94.9645 14.1288V18.4849H92.4787V22.2727H94.9645V31.7424C94.9566 32.934 95.2052 33.9205 95.7102 34.7017C96.2153 35.483 96.9216 36.059 97.8291 36.4299C98.7445 36.8008 99.8098 36.9626 101.025 36.9153C101.68 36.8916 102.236 36.8245 102.694 36.714C103.152 36.6114 103.507 36.5207 103.759 36.4418L102.966 32.6894C102.84 32.7131 102.659 32.7486 102.422 32.7959C102.185 32.8354 101.948 32.8551 101.712 32.8551C101.372 32.8551 101.072 32.8038 100.812 32.7012C100.56 32.5987 100.362 32.4211 100.22 32.1686C100.078 31.9082 100.007 31.5451 100.007 31.0796V22.2727H103.428V18.4849H100.007V14.1288H94.9645Z" fill="url(#paint10_linear_248_12707)"/>
<path d="M109.974 35.8854C111.323 36.643 112.933 37.0218 114.804 37.0218C116.303 37.0218 117.625 36.7929 118.769 36.3352C119.921 35.8696 120.86 35.2225 121.586 34.3939C122.32 33.5575 122.805 32.5789 123.042 31.4583L118.378 31.1506C118.205 31.6083 117.952 31.995 117.621 32.3106C117.289 32.6263 116.891 32.863 116.425 33.0208C115.96 33.1787 115.447 33.2576 114.886 33.2576C114.042 33.2576 113.312 33.08 112.697 32.7249C112.081 32.3698 111.604 31.8648 111.264 31.2098C110.933 30.5548 110.767 29.7775 110.767 28.8779L123.149 28.866V27.4811C123.149 25.9344 122.932 24.5849 122.498 23.4328C122.064 22.2727 121.456 21.31 120.675 20.5445C119.901 19.779 118.994 19.2069 117.952 18.8281C116.918 18.4415 115.802 18.2481 114.602 18.2481C112.819 18.2481 111.264 18.6427 109.938 19.4318C108.621 20.221 107.599 21.3218 106.873 22.7344C106.147 24.1469 105.784 25.7884 105.784 27.6586C105.784 29.5762 106.147 31.2374 106.873 32.6421C107.599 34.0388 108.632 35.12 109.974 35.8854ZM110.772 25.741C110.802 25.0881 110.97 24.4923 111.276 23.9536C111.607 23.3618 112.065 22.8922 112.649 22.545C113.241 22.1899 113.92 22.0123 114.685 22.0123C115.419 22.0123 116.062 22.1741 116.615 22.4976C117.175 22.8133 117.613 23.2513 117.929 23.8116C118.244 24.3719 118.402 25.015 118.402 25.741H110.772Z" fill="url(#paint11_linear_248_12707)"/>
<path d="M172.702 35.8854C174.051 36.643 175.661 37.0218 177.531 37.0218C179.031 37.0218 180.353 36.7929 181.497 36.3352C182.649 35.8696 183.588 35.2225 184.314 34.3939C185.048 33.5575 185.533 32.5789 185.77 31.4583L181.106 31.1506C180.933 31.6083 180.68 31.995 180.349 32.3106C180.017 32.6263 179.619 32.863 179.153 33.0208C178.687 33.1787 178.175 33.2576 177.614 33.2576C176.77 33.2576 176.04 33.08 175.424 32.7249C174.809 32.3698 174.331 31.8648 173.992 31.2098C173.661 30.5548 173.495 29.7775 173.495 28.8779L185.877 28.866V27.4811C185.877 25.9344 185.66 24.5849 185.226 23.4328C184.791 22.2727 184.184 21.31 183.403 20.5445C182.629 19.779 181.722 19.2069 180.68 18.8281C179.646 18.4415 178.53 18.2481 177.33 18.2481C175.547 18.2481 173.992 18.6427 172.666 19.4318C171.348 20.221 170.327 21.3218 169.601 22.7344C168.874 24.1469 168.511 25.7884 168.511 27.6586C168.511 29.5762 168.874 31.2374 169.601 32.6421C170.327 34.0388 171.36 35.12 172.702 35.8854ZM173.5 25.741C173.53 25.0881 173.698 24.4923 174.004 23.9536C174.335 23.3618 174.793 22.8922 175.377 22.545C175.969 22.1899 176.648 22.0123 177.413 22.0123C178.147 22.0123 178.79 22.1741 179.342 22.4976C179.903 22.8133 180.341 23.2513 180.656 23.8116C180.972 24.3719 181.13 25.015 181.13 25.741H173.5Z" fill="url(#paint12_linear_248_12707)"/>
<path d="M217.485 12.4243V36.6667H222.61V28.8068H226.919C228.781 28.8068 230.367 28.4636 231.677 27.777C232.995 27.0904 234.001 26.1316 234.696 24.9006C235.39 23.6695 235.737 22.2491 235.737 20.6392C235.737 19.0294 235.394 17.6089 234.708 16.3778C234.029 15.1389 233.043 14.1722 231.748 13.4778C230.454 12.7754 228.888 12.4243 227.049 12.4243H217.485ZM222.61 24.6993V16.6146H226.067C227.061 16.6146 227.882 16.7843 228.529 17.1236C229.176 17.455 229.657 17.9246 229.973 18.5322C230.296 19.132 230.458 19.8343 230.458 20.6392C230.458 21.4362 230.296 22.1425 229.973 22.7581C229.657 23.3657 229.176 23.8431 228.529 24.1903C227.889 24.5297 227.077 24.6993 226.09 24.6993H222.61Z" fill="url(#paint13_linear_248_12707)"/>
<defs>
<filter id="filter0_dii_248_12707" x="0.193773" y="1.44477" width="49.6057" height="47.1239" filterUnits="userSpaceOnUse" color-interpolation-filters="sRGB">
<feFlood flood-opacity="0" result="BackgroundImageFix"/>
<feColorMatrix in="SourceAlpha" type="matrix" values="0 0 0 0 0 0 0 0 0 0 0 0 0 0 0 0 0 0 127 0" result="hardAlpha"/>
<feOffset dx="0.0268929" dy="-0.0201697"/>
<feGaussianBlur stdDeviation="0.0100848"/>
<feComposite in2="hardAlpha" operator="out"/>
<feColorMatrix type="matrix" values="0 0 0 0 0.0784314 0 0 0 0 0.596078 0 0 0 0 0.282353 0 0 0 0.66 0"/>
<feBlend mode="normal" in2="BackgroundImageFix" result="effect1_dropShadow_248_12707"/>
<feBlend mode="normal" in="SourceGraphic" in2="effect1_dropShadow_248_12707" result="shape"/>
<feColorMatrix in="SourceAlpha" type="matrix" values="0 0 0 0 0 0 0 0 0 0 0 0 0 0 0 0 0 0 127 0" result="hardAlpha"/>
<feOffset dx="-0.0201697" dy="0.0201697"/>
<feGaussianBlur stdDeviation="0.0134464"/>
<feComposite in2="hardAlpha" operator="arithmetic" k2="-1" k3="1"/>
<feColorMatrix type="matrix" values="0 0 0 0 1 0 0 0 0 1 0 0 0 0 1 0 0 0 0.25 0"/>
<feBlend mode="normal" in2="shape" result="effect2_innerShadow_248_12707"/>
<feColorMatrix in="SourceAlpha" type="matrix" values="0 0 0 0 0 0 0 0 0 0 0 0 0 0 0 0 0 0 127 0" result="hardAlpha"/>
<feOffset dx="-0.0537857" dy="0.0537857"/>
<feGaussianBlur stdDeviation="0.0403393"/>
<feComposite in2="hardAlpha" operator="arithmetic" k2="-1" k3="1"/>
<feColorMatrix type="matrix" values="0 0 0 0 0.722168 0 0 0 0 0.48793 0 0 0 0 0.455246 0 0 0 0.66 0"/>
<feBlend mode="normal" in2="effect2_innerShadow_248_12707" result="effect3_innerShadow_248_12707"/>
</filter>
<linearGradient id="paint0_linear_248_12707" x1="25" y1="1.48511" x2="25" y2="48.5148" gradientUnits="userSpaceOnUse">
<stop offset="0.100539" stop-color="#ECE8E1"/>
<stop offset="0.171048" stop-color="#EAE6DE"/>
<stop offset="0.326166" stop-color="#EDE8DF"/>
<stop offset="0.520831" stop-color="#EDE7E1"/>
<stop offset="0.699493" stop-color="#EBE6E1"/>
<stop offset="1" stop-color="#D8D0C8"/>
</linearGradient>
<linearGradient id="paint1_linear_248_12707" x1="22.497" y1="1.48522" x2="22.497" y2="45.1469" gradientUnits="userSpaceOnUse">
<stop offset="0.100539" stop-color="#84DCA7"/>
<stop offset="0.171048" stop-color="#6CBA8B"/>
<stop offset="0.326166" stop-color="#5AC585"/>
<stop offset="0.520831" stop-color="#2BBE66"/>
<stop offset="0.699493" stop-color="#139E4A"/>
<stop offset="1" stop-color="#00AC44"/>
</linearGradient>
<linearGradient id="paint2_linear_248_12707" x1="163.333" y1="1.66675" x2="163.333" y2="48.3334" gradientUnits="userSpaceOnUse">
<stop offset="0.105769"/>
<stop offset="1" stop-color="#4DC08A"/>
</linearGradient>
<linearGradient id="paint3_linear_248_12707" x1="163.333" y1="1.66675" x2="163.333" y2="48.3334" gradientUnits="userSpaceOnUse">
<stop offset="0.105769"/>
<stop offset="1" stop-color="#4DC08A"/>
</linearGradient>
<linearGradient id="paint4_linear_248_12707" x1="163.333" y1="1.66675" x2="163.333" y2="48.3334" gradientUnits="userSpaceOnUse">
<stop offset="0.105769"/>
<stop offset="1" stop-color="#4DC08A"/>
</linearGradient>
<linearGradient id="paint5_linear_248_12707" x1="163.333" y1="1.66675" x2="163.333" y2="48.3334" gradientUnits="userSpaceOnUse">
<stop offset="0.105769"/>
<stop offset="1" stop-color="#4DC08A"/>
</linearGradient>
<linearGradient id="paint6_linear_248_12707" x1="163.333" y1="1.66675" x2="163.333" y2="48.3334" gradientUnits="userSpaceOnUse">
<stop offset="0.105769"/>
<stop offset="1" stop-color="#4DC08A"/>
</linearGradient>
<linearGradient id="paint7_linear_248_12707" x1="163.333" y1="1.66675" x2="163.333" y2="48.3334" gradientUnits="userSpaceOnUse">
<stop offset="0.105769"/>
<stop offset="1" stop-color="#4DC08A"/>
</linearGradient>
<linearGradient id="paint8_linear_248_12707" x1="163.333" y1="1.66675" x2="163.333" y2="48.3334" gradientUnits="userSpaceOnUse">
<stop offset="0.105769"/>
<stop offset="1" stop-color="#4DC08A"/>
</linearGradient>
<linearGradient id="paint9_linear_248_12707" x1="163.333" y1="1.66675" x2="163.333" y2="48.3334" gradientUnits="userSpaceOnUse">
<stop offset="0.105769"/>
<stop offset="1" stop-color="#4DC08A"/>
</linearGradient>
<linearGradient id="paint10_linear_248_12707" x1="163.333" y1="1.66675" x2="163.333" y2="48.3334" gradientUnits="userSpaceOnUse">
<stop offset="0.105769"/>
<stop offset="1" stop-color="#4DC08A"/>
</linearGradient>
<linearGradient id="paint11_linear_248_12707" x1="163.333" y1="1.66675" x2="163.333" y2="48.3334" gradientUnits="userSpaceOnUse">
<stop offset="0.105769"/>
<stop offset="1" stop-color="#4DC08A"/>
</linearGradient>
<linearGradient id="paint12_linear_248_12707" x1="163.333" y1="1.66675" x2="163.333" y2="48.3334" gradientUnits="userSpaceOnUse">
<stop offset="0.105769"/>
<stop offset="1" stop-color="#4DC08A"/>
</linearGradient>
<linearGradient id="paint13_linear_248_12707" x1="163.333" y1="1.66675" x2="163.333" y2="48.3334" gradientUnits="userSpaceOnUse">
<stop offset="0.105769"/>
<stop offset="1" stop-color="#4DC08A"/>
</linearGradient>
</defs>
</svg>
