<svg width="57" height="50" viewBox="0 0 57 50" fill="none" xmlns="http://www.w3.org/2000/svg">
<g clip-path="url(#clip0_100_7554)">
<path d="M20.1913 45.0026V25.045C16.7844 24.903 1.08198 24.961 0.25375 25.111V45.0026H20.1913ZM25.2428 19.9796H45.1963C45.3324 16.8527 45.2784 0.864242 45.1343 0.0400112H25.2428V19.9776V19.9796ZM37.6642 50.002V45.0206C38.9606 45.0206 40.2209 45.0286 41.4833 45.0186C42.7337 45.0086 43.986 45.0666 45.2003 44.9866V25.061H25.2548V45.0426H32.8569V50H37.6642V50.002ZM20.2093 7.44208H15.2239C15.2239 8.73845 15.2319 10.0008 15.2219 11.2612C15.2099 12.5115 15.27 13.7639 15.1879 14.9742H5.21714V10.0448H0.239746V19.9756H20.2093V7.44208ZM20.1913 4.9894V0.00600168C18.5649 0.00600168 16.9724 0.00600168 15.378 0.00600168C15.35 0.00600168 15.316 0.0200056 15.292 0.0380106C15.266 0.0560157 15.2459 0.0840235 15.256 0.0740207V4.9894H20.1913ZM54.4709 0.826231V4.9854H55.2472V0.832233H56.0594V4.97339H56.8356C56.8356 3.34494 56.8356 1.75049 56.8356 0.154043C56.8356 0.126035 56.8176 0.0940263 56.7996 0.0700196C56.7816 0.0440123 56.7516 0.0260073 56.7716 0.0420118H52.8585V4.96339H53.6587V0.826231H54.4709ZM50.2678 4.9874V0.768215H51.7982V0C50.4518 0.0300084 49.1414 -0.0400112 47.8691 0.0400112V0.810227H49.4375V4.9874H50.2678Z" fill="white"/>
<path d="M20.1912 45.0027H0.253662V25.1111C1.08189 24.961 16.7843 24.905 20.1912 25.0451V45.0007V45.0027ZM15.1878 34.9979V30.0145C13.5594 30.0145 11.9649 30.0145 10.3725 30.0145C10.3445 30.0145 10.3125 30.0325 10.2885 30.0485C10.2625 30.0665 10.2445 30.0965 10.2585 30.0805V34.9959H15.1898L15.1878 34.9979Z" fill="black"/>
<path d="M25.2427 19.9775V0.0379639H45.1342C45.2783 0.862195 45.3323 16.8507 45.1963 19.9775H25.2427ZM30.3281 9.8087C30.1861 10.6589 30.1901 14.2459 30.3281 14.9741H35.4275C35.4275 13.2777 35.4275 11.6192 35.4275 9.95874C35.4275 9.93073 35.4095 9.89873 35.3915 9.87472C35.3735 9.84871 35.3435 9.83071 35.3195 9.8087H30.3261H30.3281Z" fill="black"/>
<path d="M37.6641 50H32.8568V45.0426H25.2546V25.061H45.2002V44.9826C43.9859 45.0626 42.7335 45.0046 41.4832 45.0146C40.2208 45.0266 38.9605 45.0166 37.6641 45.0166V49.998V50ZM40.1968 39.9972V30.0464C37.182 29.9284 31.0803 29.9704 30.26 30.1104V39.9692H32.8628V37.4185C34.4232 37.4185 35.9496 37.4185 37.4781 37.4185C37.5061 37.4185 37.5381 37.4345 37.5641 37.4505C37.5901 37.4685 37.6101 37.4965 37.6681 37.5585V39.9972H40.1988H40.1968Z" fill="black"/>
<path d="M20.2093 7.44214V19.9776H0.239746V10.0469H5.21714V14.9762H15.1879C15.27 13.7659 15.2099 12.5136 15.2219 11.2632C15.2339 10.0009 15.2239 8.7405 15.2239 7.44414H20.2093V7.44214Z" fill="black"/>
<path d="M20.1914 4.98938H15.256V0.0740005C15.246 0.0860039 15.266 0.0559955 15.2921 0.0379904C15.3161 0.0219859 15.3481 0.00598145 15.3781 0.00598145C16.9705 0.00598145 18.565 0.00598145 20.1914 0.00598145V4.98938Z" fill="black"/>
<path d="M54.4708 0.826175H53.6586V4.96333H52.8584V0.0439556H56.7715C56.7535 0.0279511 56.7815 0.0439556 56.7995 0.0719634C56.8175 0.0959702 56.8355 0.127979 56.8355 0.155987C56.8355 1.75243 56.8355 3.34688 56.8355 4.97534H56.0593V0.832176H55.2471V4.98534H54.4708V0.826175Z" fill="black"/>
<path d="M50.2678 4.9874H49.4376V0.810227H47.8691V0.0400112C49.1395 -0.0400112 50.4519 0.0300084 51.7982 0V0.768215H50.2678V4.9874Z" fill="black"/>
</g>
<defs>
<clipPath id="clip0_100_7554">
<rect width="56.5958" height="50" fill="white" transform="translate(0.239746)"/>
</clipPath>
</defs>
</svg>
