<?xml version="1.0" encoding="UTF-8" standalone="no"?><!DOCTYPE svg PUBLIC "-//W3C//DTD SVG 1.1//EN" "http://www.w3.org/Graphics/SVG/1.1/DTD/svg11.dtd"><svg width="100%" height="100%" viewBox="0 0 4761 824" version="1.1" xmlns="http://www.w3.org/2000/svg" xmlns:xlink="http://www.w3.org/1999/xlink" xml:space="preserve" xmlns:serif="http://www.serif.com/" style="fill-rule:evenodd;clip-rule:evenodd;stroke-linejoin:round;stroke-miterlimit:2;"><path d="M259.762,742.321l0,-72.921c0,-6.217 -2.958,-12.033 -7.924,-15.767l-2.238,-2.946l-2.704,-2.358c-8.363,-4.754 -10.167,-5.767 -11.004,-6.179l-131.159,-74.633l0,-304.421l125.525,-71.331c0,-0 8.796,-5.022 9.25,-5.296c0.28,-0.175 0.455,-0.284 0.63,-0.395c0.291,-0.186 0.587,-0.376 1.37,-0.885l130.655,-74.261l125.579,71.528c7.087,4.043 9.641,5.476 10.775,6.029l131.096,74.603l-0,99.358c-0,7.087 3.841,13.637 10.075,17.183l64.387,36.625c13.446,7.65 30.263,-1.9 30.263,-17.183l-0.034,-165.363c0.079,-8.928 -2.287,-17.885 -6.825,-25.758c-4.596,-7.955 -11.229,-14.537 -19.337,-19.154l-8.271,-4.657c-101.329,-57.656 -151.104,-85.977 -151.7,-86.317l-8.271,-4.592l-149.229,-84.869c-6.717,-4.705 -16.3,-7.841 -26.021,-8.305c-10.008,-0.459 -19.883,1.895 -28.613,6.844l-8.366,4.878l-143.413,81.482c-3.708,2.077 -4.929,2.763 -6.15,3.45c-0.604,0.339 -1.204,0.678 -2.1,1.184l-8.175,4.71l-149.733,85.159c-7.679,3.653 -15.067,10.334 -20.171,18.465c-5.158,8.104 -7.929,17.532 -7.929,27.188l-0,181.892l0.037,181.6c-0.087,8.9 2.28,17.859 6.825,25.754c4.601,7.955 11.251,14.546 19.359,19.15l8.225,4.642c103.558,58.929 151.217,86.046 151.804,86.375l8.246,4.575l34.466,21.779c13.651,8.109 30.8,-1.412 30.8,-16.862Zm410.063,-277.538c-13.446,-7.621 -30.233,1.925 -30.233,17.196l-0,18.538l-332.684,-189.188l-11.183,-6.408c-10.129,-5.754 -22.629,-5.15 -32.058,1.45l-8.855,4.921l-49.091,27.808c-13.384,7.558 -15.767,8.904 -18.146,10.25l-1.654,0.933c-14.396,8.192 -18.9,26.125 -10.467,40.446l11.258,19.104l11.363,19.313c8.337,14.158 26.6,18.575 41.1,10.229c19.304,-10.967 20.192,-11.471 21.029,-12.046c0.058,-0.037 0.113,-0.075 0.171,-0.117l20.383,-11.533l40.321,22.933l-0.037,356.121c-0,16.109 13.266,29.175 29.637,29.175c7.508,0 14.688,-2.787 20.171,-7.787c30.321,-24.1 35.508,-28.221 40.692,-32.346l3.433,-2.729c7.708,-6.113 11.762,-15.567 10.921,-25.229l0.058,-257.534l239.259,136.492c14.912,8.45 31.624,2.754 43.008,-11.563l30.354,-30.454c3.683,-3.716 5.742,-8.687 5.742,-13.866l-0,-60.421c-0,-7.096 -3.854,-13.65 -10.104,-17.196l-64.388,-36.492Z"/><path d="M959.083,580.837c-3.775,0 -7.079,-1.391 -9.912,-4.158c-2.825,-2.779 -4.25,-6.017 -4.25,-9.712l-0,-360.727c-0,-4.063 1.425,-7.396 4.25,-9.983c2.833,-2.595 6.137,-3.888 9.912,-3.888l79.271,-0c4.154,-0 7.546,1.293 10.192,3.888c2.641,2.587 3.958,5.92 3.958,9.983l0,287.472l169.871,0c4.146,0 7.642,1.384 10.467,4.159c2.833,2.779 4.25,6.2 4.25,10.271l-0,58.825c-0,4.07 -1.417,7.404 -4.25,9.987c-2.825,2.588 -6.321,3.883 -10.467,3.883l-263.292,0Zm303.467,0c-3.017,0 -5.762,-1.2 -8.208,-3.612c-2.463,-2.404 -3.684,-5.083 -3.684,-8.046c0,-2.212 0.196,-3.879 0.567,-4.992l131.929,-355.725c3.771,-10.729 11.317,-16.093 22.646,-16.093l88.329,0c11.321,0 18.875,5.364 22.646,16.093l131.929,355.725c0.379,1.113 0.567,2.78 0.567,4.992c-0,2.963 -1.229,5.642 -3.684,8.046c-2.454,2.412 -5.191,3.612 -8.208,3.612l-73.612,0c-9.05,0 -15.471,-4.07 -19.246,-12.212l-20.388,-53.825l-148.337,-0l-20.388,53.825c-3.775,8.142 -10.196,12.212 -19.254,12.212l-73.604,0Zm137.029,-149.287l100.784,-0l-50.392,-141.52l-50.392,141.52Zm307.458,149.287c-4.154,0 -7.645,-1.295 -10.479,-3.879c-2.825,-2.587 -4.241,-5.921 -4.241,-9.991l-0,-360.172c-0,-4.063 1.416,-7.49 4.241,-10.26c2.834,-2.777 6.325,-4.166 10.479,-4.166l63.984,0c9.433,0 16.233,4.071 20.379,12.205l97.392,170.926l97.954,-170.926c4.146,-8.134 10.95,-12.205 20.379,-12.205l63.988,0c4.149,0 7.641,1.389 10.475,4.166c2.825,2.77 4.241,6.197 4.241,10.26l0,360.172c0,4.07 -1.416,7.404 -4.241,9.991c-2.834,2.584 -6.325,3.879 -10.475,3.879l-71.913,0c-3.775,0 -7.075,-1.387 -9.908,-4.158c-2.829,-2.779 -4.246,-6.017 -4.246,-9.712l-0,-202.013l-61.15,109.892c-4.904,8.504 -11.513,12.758 -19.821,12.758l-30.571,0c-7.554,0 -14.158,-4.254 -19.821,-12.758l-60.583,-109.892l0,202.013c0,4.07 -1.417,7.404 -4.242,9.991c-2.833,2.584 -6.325,3.879 -10.479,3.879l-71.342,0Zm469.942,0c-3.771,0 -7.075,-1.387 -9.9,-4.158c-2.833,-2.779 -4.25,-6.017 -4.25,-9.712l0,-360.172c0,-4.063 1.317,-7.491 3.959,-10.26c2.645,-2.778 6.045,-4.166 10.191,-4.166l174.963,-0c47.937,-0 83.608,9.618 107.016,28.861c23.4,19.235 35.105,46.612 35.105,82.132c-0,17.759 -4.817,33.113 -14.434,46.055c-9.629,12.95 -20.3,22.387 -31.996,28.308c15.48,6.654 28.496,17.662 39.071,33.017c10.567,15.354 15.854,32.654 15.854,51.891c0,37.359 -12.558,66.409 -37.658,87.129c-25.096,20.713 -61.054,31.075 -107.867,31.075l-180.054,0Zm163.075,-234.758c13.967,0 24.725,-3.7 32.279,-11.104c7.546,-7.4 11.33,-17.013 11.33,-28.85c-0,-11.476 -3.684,-20.816 -11.046,-28.029c-7.359,-7.221 -18.217,-10.824 -32.563,-10.824l-70.771,0l0,78.807l70.771,0Zm5.1,159.829c14.721,0 26.146,-4.166 34.259,-12.491c8.112,-8.317 12.175,-18.584 12.175,-30.796c-0,-12.579 -4.155,-23.029 -12.459,-31.363c-8.308,-8.312 -19.625,-12.479 -33.975,-12.479l-75.871,0l0,87.129l75.871,0Zm232.167,74.929c-3.779,0 -7.075,-1.387 -9.908,-4.158c-2.834,-2.779 -4.25,-6.017 -4.25,-9.712l-0,-360.172c-0,-4.063 1.325,-7.49 3.966,-10.26c2.638,-2.777 6.038,-4.166 10.192,-4.166l148.917,0c55.862,0 99.266,13.038 130.229,39.129c30.941,26.076 47.183,63.539 48.683,112.373c0.379,10.729 0.575,24.971 0.575,42.733c0,17.758 -0.196,31.813 -0.575,42.175c-3.775,101.367 -62.471,152.058 -176.087,152.058l-151.742,0Zm148.904,-83.254c23.771,0 41.321,-5.55 52.658,-16.65c11.317,-11.091 17.359,-28.862 18.113,-53.279c0.758,-10.725 1.133,-24.6 1.133,-41.621c0,-17.021 -0.375,-30.708 -1.133,-41.062c-0.754,-23.679 -7.271,-41.163 -19.529,-52.446c-12.275,-11.285 -30.288,-16.927 -54.075,-16.927l-53.792,0l0,221.985l56.625,0Zm221.942,83.254c-3.021,0 -5.759,-1.2 -8.209,-3.612c-2.462,-2.404 -3.683,-5.088 -3.683,-8.046c0,-2.212 0.183,-3.879 0.567,-4.992l131.921,-355.725c3.779,-10.729 11.333,-16.093 22.654,-16.093l88.329,-0c11.325,-0 18.871,5.364 22.646,16.093l131.929,355.725c0.379,1.113 0.558,2.78 0.558,4.992c0,2.958 -1.225,5.642 -3.675,8.046c-2.446,2.412 -5.183,3.612 -8.212,3.612l-73.6,0c-9.063,0 -15.484,-4.07 -19.254,-12.212l-20.388,-53.825l-148.35,-0l-20.383,53.825c-3.767,8.142 -10.179,12.212 -19.238,12.212l-73.612,0Zm137.025,-149.287l100.783,-0l-50.392,-141.52l-50.391,141.52Z"/><path d="M3452.5,586.375c-4.167,-0 -7.667,-1.296 -10.5,-3.883c-2.833,-2.588 -4.25,-5.917 -4.25,-9.988l-0,-284.143l-99.633,-0c-4.155,-0 -7.642,-1.294 -10.479,-3.881c-2.834,-2.595 -4.251,-5.92 -4.251,-9.99l0.001,-62.158c-0.001,-4.063 1.416,-7.491 4.249,-10.26c2.838,-2.778 6.325,-4.167 10.48,-4.167l307.466,0c4.125,0 7.625,1.389 10.459,4.167c2.833,2.769 4.25,6.197 4.25,10.26l-0,62.158c-0,4.07 -1.417,7.395 -4.25,9.99c-2.834,2.587 -6.334,3.881 -10.459,3.881l-99.666,-0l-0,284.143c-0,4.071 -1.417,7.4 -4.25,9.988c-2.834,2.587 -6.334,3.883 -10.459,3.883l-78.708,-0Zm271.75,-0c-3.792,-0 -7.083,-1.392 -9.917,-4.158c-2.833,-2.78 -4.25,-6.017 -4.25,-9.713l0,-360.172c0,-4.063 1.334,-7.491 3.959,-10.26c2.666,-2.778 6.041,-4.167 10.208,-4.167l267.25,0c4.167,0 7.625,1.389 10.458,4.167c2.834,2.769 4.25,6.197 4.25,10.26l0,54.944c0,4.071 -1.416,7.396 -4.25,9.983c-2.833,2.595 -6.291,3.888 -10.458,3.888l-178.917,0l0,70.482l166.459,0c4.166,0 7.625,1.388 10.458,4.158c2.833,2.78 4.25,6.196 4.25,10.267l0,50.504c0,4.071 -1.417,7.488 -4.25,10.267c-2.833,2.771 -6.292,4.167 -10.458,4.167l-166.459,-0l0,72.141l183.459,0c4.125,0 7.625,1.388 10.458,4.154c2.833,2.78 4.25,6.2 4.25,10.271l-0,54.946c-0,4.071 -1.417,7.4 -4.25,9.988c-2.833,2.587 -6.333,3.883 -10.458,3.883l-271.792,-0Zm499.375,5.554c-36.583,0 -67.75,-5.175 -93.417,-15.537c-25.666,-10.355 -45.083,-24.042 -58.333,-41.071c-13.208,-17.009 -20.167,-35.513 -20.917,-55.496c0,-3.321 1.209,-6.1 3.667,-8.321c2.458,-2.217 5.375,-3.325 8.792,-3.325l75.291,0c4.542,0 8.209,0.738 11.042,2.221c2.833,1.475 5.958,4.062 9.333,7.762c4.917,8.88 12.542,16.188 22.959,21.925c10.375,5.738 24.208,8.6 41.583,8.6c20.417,0 36.083,-3.054 47,-9.15c10.958,-6.108 16.417,-14.52 16.417,-25.258c-0,-7.758 -2.834,-14.146 -8.5,-19.137c-5.625,-5 -14.709,-9.446 -27.167,-13.325c-12.458,-3.88 -30.375,-8.23 -53.792,-13.038c-45.666,-8.879 -79.833,-22.387 -102.458,-40.517c-22.667,-18.125 -34,-44.025 -34,-77.687c0,-22.943 6.5,-43.384 19.542,-61.326c13.041,-17.949 31.541,-31.908 55.5,-41.899c23.958,-9.99 51.791,-14.981 83.5,-14.981c33.208,-0 62,5.641 86.375,16.918c24.333,11.292 43,25.345 56.041,42.176c13,16.839 19.917,33.392 20.667,49.674c0,3.325 -1.125,6.2 -3.417,8.605c-2.25,2.404 -5.083,3.6 -8.458,3.6l-79.292,-0c-8.291,-0 -14.708,-3.325 -19.25,-9.988c-2.291,-7.77 -8.125,-14.333 -17.541,-19.697c-9.459,-5.365 -21.167,-8.047 -35.125,-8.047c-15.834,0 -28.125,2.778 -36.792,8.325c-8.667,5.547 -13.042,13.69 -13.042,24.415c0,10.729 5.667,19.15 17,25.254c11.334,6.108 32.459,12.296 63.417,18.592c35.5,6.283 63.708,14.146 84.625,23.583c20.958,9.425 36.458,21.646 46.458,36.621c10,14.992 15,33.954 15,56.887c0,25.159 -7.375,46.988 -22.083,65.484c-14.708,18.5 -35.083,32.646 -61.167,42.454c-26.041,9.808 -55.875,14.704 -89.458,14.704Zm329,-5.554c-4.167,-0 -7.667,-1.296 -10.458,-3.883c-2.875,-2.588 -4.292,-5.917 -4.292,-9.988l0,-284.143l-99.625,-0c-4.167,-0 -7.625,-1.294 -10.458,-3.881c-2.834,-2.595 -4.25,-5.92 -4.25,-9.99l-0,-62.158c-0,-4.063 1.416,-7.491 4.25,-10.26c2.833,-2.778 6.291,-4.167 10.458,-4.167l307.458,0c4.125,0 7.625,1.389 10.459,4.167c2.833,2.769 4.25,6.197 4.25,10.26l-0,62.158c-0,4.07 -1.417,7.395 -4.25,9.99c-2.834,2.587 -6.334,3.881 -10.459,3.881l-99.666,-0l-0,284.143c-0,4.071 -1.417,7.4 -4.25,9.988c-2.834,2.587 -6.292,3.883 -10.459,3.883l-78.708,-0Z"/></svg>