<svg width="450" height="300" viewBox="0 0 450 300" xmlns="http://www.w3.org/2000/svg">
<style type="text/css">
	.st1{fill:#54565A;}
</style>
<g id="layer_1">
	<g>
		<path class="st1" d="M93.3,106.2c0-2,1.6-3.6,3.6-3.6H108c2,0,5.1,0.4,7,0.8c0,0,2.9,0.7,5,3.8l26.5,41.2c1.1,1.6,2.7,4.4,3.7,6.1
			c0,0,5.4,9.1,10.2,20.8c-2.5-12.5-3.1-18.4-3.1-25.9v-43.2c0-2,1.6-3.6,3.6-3.6h13c2,0,3.6,1.6,3.6,3.6v86.2c0,2-1.6,3.6-3.6,3.6
			h-11.2c-2,0-5.1-0.4-7-0.8c0,0-2.9-0.7-5-3.8l-26.5-41.2c-1.1-1.6-2.7-4.4-3.7-6.1c0,0-5.4-9.1-10.2-20.8
			c2.3,12.5,3.1,18.4,3.1,25.7v43.3c0,2-1.6,3.6-3.6,3.6h-13c-2,0-3.6-1.6-3.6-3.6V106.2z"/>
		<g>
			<path class="st1" d="M189.1,152.5c0-2,1.6-3.6,3.6-3.6h33.7c2,0,3.6,1.6,3.6,3.6v9.1c0,2-1.6,3.6-3.6,3.6h-33.7
				c-2,0-3.6-1.6-3.6-3.6V152.5z"/>
			<path class="st1" d="M240.8,135.5c0-2,1.6-3.6,3.6-3.6h13c2,0,3.6,1.6,3.6,3.6v56.9c0,2-1.6,3.6-3.6,3.6h-13
				c-2,0-3.6-1.6-3.6-3.6V135.5z M260.8,111c0,5.6-4.5,10-10,10s-10-4.5-10-10c0-5.6,4.5-10.1,10-10.1S260.8,105.5,260.8,111"/>
			<path class="st1" d="M266.5,195.9c6.7-11.8,16.3-27.4,24.9-40.4l1.9-2.9c1.1-1.6,2.3-3.4,2.6-4c0.4-0.6,0.4-1.5,0-2.1
				c-0.4-0.6-1.6-2.4-2.7-4c0,0-4.8-7-7.3-10.9c-4.3-6.5-9.9-15.5-12.8-20.5l-1.8-3.1c-1-1.7-2.1-3.6-2.5-4.3
				c-0.4-0.6,0.9-1.2,2.8-1.2h18.5c2,0,3.9,0.6,4.2,1.2c0.4,0.7,1.4,2.6,2.4,4.4c0,0,9.3,14.4,17,25.5c3.7,5.3,13.8,18.5,14.9,20.1
				c0,0,10.1,14,15.3,22.3c3.4,5.5,7.1,10.4,9.6,14.7c0.9,1.6,1.6,2.6,3,5.1h-22.4c-2,0-4.3-1.4-5.2-3.2c0,0-3.3-6.3-7.2-13.2
				c-5-8.8-7.2-12.8-11.2-19.2l-0.7,1.1c-1,1.7-2.6,4.4-3.6,6.1c0,0-9.7,16.8-14.4,25.7c-0.7,1.4-2.9,2.6-4.9,2.6H266.5z"/>
			<path class="st1" d="M316.9,128.2c0,0,7.6-12.7,13.2-23.1c0.7-1.4,2.9-2.5,4.9-2.5h16.4c2,0,3.2,0.5,2.8,1.2
				c-0.4,0.6-1.5,2.5-2.6,4.2l-18.7,29.5l-4,6.5L316.9,128.2"/>
		</g>
	</g>
</g>
</svg>
