<svg width="159" height="51" viewBox="0 0 159 51" fill="none" xmlns="http://www.w3.org/2000/svg">
<g clip-path="url(#clip0_100_7580)">
<path d="M41.3429 25.3599C41.7914 27.4827 41.7914 27.7056 41.7914 27.9856C41.7914 31.617 37.7114 33.6284 32.3486 33.6284C20.2257 33.6284 9.60857 26.5341 9.60857 21.8399C9.60821 21.1865 9.74142 20.5399 10 19.9399C5.64286 20.1627 0 20.9456 0 25.917C0 34.0741 19.3314 44.1313 34.64 44.1313C46.3714 44.1313 49.3343 38.8256 49.3343 34.6341C49.3343 31.337 46.4771 27.5941 41.3343 25.3599M32.9086 28.3199C36.1486 28.3199 40.84 27.6513 40.84 23.7941C40.8491 23.4968 40.8223 23.1994 40.76 22.9084L38.8314 14.5199C38.3829 12.677 37.9914 11.8399 34.7514 10.2199C32.2371 8.93414 26.7514 6.81128 25.1429 6.81128C23.6343 6.81128 23.1857 8.76557 21.3971 8.76557C19.6657 8.75699 18.3829 7.32842 16.7629 7.32842C15.1971 7.32842 14.1914 8.38842 13.4086 10.5684C13.4086 10.5684 11.2314 16.7141 10.9514 17.6084C10.9052 17.7718 10.8859 17.9417 10.8943 18.1113C10.8943 20.4999 20.3 28.3341 32.9086 28.3341" fill="#EE0000"/>
<path d="M41.3429 25.3597C41.7915 27.4826 41.7915 27.7054 41.7915 27.9854C41.7915 31.6169 37.7115 33.6283 32.3486 33.6283C20.2258 33.6283 9.60864 26.534 9.60864 21.8397C9.60829 21.1863 9.74149 20.5398 10.0001 19.9397L10.9515 17.594C10.9053 17.7574 10.886 17.9272 10.8944 18.0969C10.8944 20.4854 20.3001 28.3197 32.9086 28.3197C36.1486 28.3197 40.8401 27.6511 40.8401 23.794C40.8492 23.4966 40.8223 23.1992 40.7601 22.9083L41.3315 25.3597H41.3429Z" fill="black"/>
<path d="M58.4485 35.1227H63.1428V28.1855H66.7142L70.3113 35.137H75.5456L71.3399 27.4912C72.4069 27.0569 73.3196 26.3133 73.9606 25.3561C74.6017 24.3989 74.9417 23.2718 74.9371 22.1198C74.9371 18.6912 72.2399 16.0427 68.2056 16.0427H58.4485V35.1227ZM67.7685 20.0484C69.3228 20.0484 70.1942 21.0312 70.1942 22.2027C70.1942 23.3741 69.3228 24.357 67.7685 24.357H63.1428V20.0484H67.7685ZM75.3742 27.9255C75.3742 32.1227 78.8028 35.3941 83.2228 35.3941C85.4354 35.4648 87.5909 34.6846 89.2456 33.2141L86.3313 30.6255C85.6485 31.3341 84.6399 31.7141 83.4428 31.7141C82.6902 31.7353 81.9487 31.5283 81.3159 31.1204C80.6831 30.7125 80.1885 30.1226 79.8971 29.4284H90.1828V28.3341C90.1828 23.7627 87.1028 20.4569 82.9056 20.4569C81.918 20.4413 80.9372 20.6234 80.0209 20.9925C79.1047 21.3616 78.2716 21.9102 77.5706 22.6062C76.8696 23.3021 76.3149 24.1312 75.9392 25.0448C75.5634 25.9583 75.3743 26.9378 75.3828 27.9255M82.8113 24.057C83.494 24.0634 84.1566 24.2891 84.7013 24.7006C85.2461 25.1121 85.6442 25.6878 85.8371 26.3427H79.8171C80.2513 24.897 81.3428 24.057 82.8142 24.057M102.814 35.1227H107.177V15.0884L102.766 16.0427V21.4712C101.644 20.8352 100.375 20.5061 99.0856 20.517C94.8885 20.517 91.5913 23.7627 91.5913 27.9055C91.5773 28.8792 91.7575 29.8458 92.1216 30.749C92.4856 31.6521 93.0261 32.4736 93.7114 33.1653C94.3968 33.857 95.2132 34.4051 96.1129 34.7775C97.0126 35.1499 97.9776 35.3391 98.9513 35.3341C100.342 35.3406 101.698 34.9009 102.82 34.0798V35.1427L102.814 35.1227ZM95.9256 27.8998C95.9256 25.8284 97.5599 24.2455 99.7142 24.2455C100.835 24.2218 101.925 24.6205 102.766 25.3627V30.4055C102.358 30.7878 101.878 31.0856 101.354 31.2818C100.83 31.4779 100.273 31.5685 99.7142 31.5484C97.5885 31.5484 95.9256 29.9684 95.9256 27.897M113.788 35.1198H118.477V27.6541H126.328V35.1227H131.014V16.0427H126.328V23.3741H118.477V16.0427H113.788V35.1227V35.1198ZM137.748 35.3655C139.16 35.4176 140.552 35.0259 141.728 34.2455V35.1198H146.088V25.8827C146.088 22.3655 143.717 20.4312 139.766 20.4312C137.557 20.4312 135.377 20.9484 133.031 22.0112L134.614 25.2541C136.303 24.5455 137.72 24.1112 138.974 24.1112C140.8 24.1112 141.728 24.8198 141.728 26.2627V26.9712C140.66 26.6954 139.561 26.5581 138.457 26.5627C134.743 26.5627 132.514 28.117 132.514 30.897C132.514 33.4312 134.531 35.3684 137.748 35.3684M136.4 30.8141C136.4 29.8627 137.354 29.3855 138.8 29.3855C139.681 29.3902 140.559 29.5005 141.414 29.7141V31.5684C140.571 32.0283 139.623 32.2626 138.663 32.2484C137.234 32.2484 136.4 31.7027 136.4 30.8027M150.114 30.7227C150.114 33.8027 151.966 35.2941 155.346 35.2941C156.386 35.2677 157.419 35.121 158.426 34.857V31.2855C157.778 31.4856 157.103 31.582 156.426 31.5712C155.034 31.5712 154.517 31.1341 154.517 29.8284V24.3827H158.571V20.7027H154.537V16.0427L150.123 16.997V20.7112H147.206V24.3827H150.123V30.7341L150.114 30.7227Z" fill="black"/>
</g>
<defs>
<clipPath id="clip0_100_7580">
<rect width="158.571" height="50" fill="white" transform="translate(0 0.471191)"/>
</clipPath>
</defs>
</svg>
