<svg width="208" height="50" viewBox="0 0 208 50" fill="none" xmlns="http://www.w3.org/2000/svg">
<path fill-rule="evenodd" clip-rule="evenodd" d="M53.988 18.7355H57.0123C57.4603 18.7355 58.0204 18.7355 58.4684 18.7355C59.0283 18.7355 59.4764 18.6232 59.9244 18.3989C60.3725 18.1745 60.7086 17.9502 60.9325 17.6137C61.1566 17.277 61.3806 16.716 61.3806 16.1552C61.3806 15.5942 61.2685 15.0332 61.0446 14.6967C60.8205 14.3602 60.4845 14.0235 60.1485 13.9114C59.8125 13.687 59.3645 13.5748 58.9164 13.5748C58.4684 13.4626 57.9083 13.4626 57.4603 13.4626H54.1V18.7355H53.988ZM48.8357 8.9751H57.9083C59.1404 8.9751 60.2605 9.08729 61.2685 9.31167C62.3887 9.53604 63.2847 9.98479 64.0687 10.4335C64.8529 10.9945 65.5249 11.6676 65.9729 12.6773C66.4209 13.5748 66.645 14.8089 66.645 16.1552C66.645 17.838 66.197 19.2964 65.3009 20.4182C64.4049 21.5402 63.1727 22.3255 61.4926 22.662L67.4291 32.6468H61.2685L56.3402 23.223H53.764V32.6468H48.6116V8.9751H48.8357Z" fill="#425277"/>
<path fill-rule="evenodd" clip-rule="evenodd" d="M74.0379 24.4571C74.0379 25.6912 74.3739 26.7009 75.0458 27.4862C75.7179 28.2714 76.7261 28.608 77.9581 28.608C79.1902 28.608 80.1983 28.2714 80.8704 27.4862C81.5424 26.7009 81.8784 25.6912 81.8784 24.4571C81.8784 23.223 81.5424 22.2132 80.8704 21.428C80.1983 20.6427 79.1902 20.3062 77.9581 20.3062C76.7261 20.3062 75.7179 20.6427 75.0458 21.428C74.3739 22.3255 74.0379 23.223 74.0379 24.4571ZM69.1094 24.4571C69.1094 23.1107 69.3335 21.9889 69.7815 20.9792C70.2295 19.9695 70.9015 19.072 71.6857 18.2867C72.4697 17.5014 73.4778 16.9405 74.4859 16.6039C75.6059 16.1552 76.7261 16.043 77.9581 16.043C79.1902 16.043 80.3103 16.2673 81.4303 16.6039C82.5505 17.0527 83.4465 17.6137 84.2306 18.2867C85.0147 19.072 85.6867 19.9695 86.1347 20.9792C86.5828 21.9889 86.8068 23.223 86.8068 24.4571C86.8068 25.8034 86.5828 26.9252 86.1347 27.9349C85.6867 28.9446 85.0147 29.8421 84.2306 30.6274C83.4465 31.4127 82.4384 31.9737 81.4303 32.3102C80.3103 32.7589 79.1902 32.8712 77.9581 32.8712C76.7261 32.8712 75.6059 32.6469 74.4859 32.3102C73.3657 31.8614 72.4697 31.3006 71.6857 30.6274C70.9015 29.8421 70.2295 28.9446 69.7815 27.9349C69.3335 26.9252 69.1094 25.8034 69.1094 24.4571Z" fill="#425277"/>
<path fill-rule="evenodd" clip-rule="evenodd" d="M105.288 32.6468H100.472V30.403H100.36C100.136 30.7395 99.9117 31.0761 99.6877 31.3005C99.4636 31.637 99.1277 31.8615 98.6796 32.198C98.2316 32.4223 97.7836 32.6468 97.3355 32.759C96.7755 32.8711 96.3274 32.9833 95.6554 32.9833C94.4233 32.9833 93.4153 32.759 92.6311 32.4223C91.8471 32.0858 91.287 31.5248 90.839 30.8518C90.391 30.1786 90.167 29.3933 89.9429 28.3836C89.831 27.4861 89.719 26.4763 89.719 25.3545V16.3794H94.6473V24.3448C94.6473 24.7936 94.6473 25.2423 94.6473 25.8033C94.6473 26.252 94.7594 26.813 94.9833 27.1495C95.2074 27.4861 95.4314 27.9348 95.7674 28.1593C96.1035 28.3836 96.5515 28.608 97.2235 28.608C97.8956 28.608 98.3436 28.4958 98.7917 28.2713C99.2397 28.047 99.4636 27.7105 99.6877 27.3738C99.9117 27.0373 100.024 26.5886 100.136 26.0276C100.248 25.5788 100.248 25.018 100.248 24.457V16.3794H105.288V32.6468Z" fill="#425277"/>
<path fill-rule="evenodd" clip-rule="evenodd" d="M119.737 20.4182H115.369V25.8034C115.369 26.2521 115.369 26.7009 115.481 27.0374C115.481 27.3739 115.593 27.7104 115.817 27.9349C115.929 28.1592 116.153 28.3836 116.489 28.6079C116.825 28.7202 117.273 28.8324 117.721 28.8324C117.945 28.8324 118.281 28.8324 118.729 28.7202C119.177 28.7202 119.513 28.4959 119.737 28.3836V32.5346C119.177 32.7589 118.617 32.8711 118.057 32.9834C117.497 33.0956 116.825 33.0956 116.265 33.0956C115.481 33.0956 114.697 32.9834 113.913 32.8711C113.24 32.6468 112.569 32.4224 112.008 31.9736C111.448 31.6371 111.112 31.0761 110.776 30.4031C110.44 29.7299 110.328 29.0567 110.328 28.1592V20.4182H107.192V16.3795H110.328V11.5554H115.257V16.3795H119.625V20.4182H119.737Z" fill="#425277"/>
<path fill-rule="evenodd" clip-rule="evenodd" d="M133.29 22.6618C133.29 21.7643 133.066 21.0913 132.506 20.5303C131.946 19.9693 131.162 19.6328 130.266 19.6328C129.706 19.6328 129.258 19.745 128.81 19.8573C128.362 20.0816 128.026 20.306 127.69 20.5303C127.354 20.8668 127.13 21.0913 127.018 21.54C126.906 21.8766 126.794 22.3253 126.682 22.6618H133.29ZM137.547 29.842C136.763 30.8517 135.754 31.637 134.522 32.1979C133.29 32.7588 132.058 32.9832 130.714 32.9832C129.482 32.9832 128.362 32.7588 127.242 32.4223C126.122 31.9735 125.226 31.4125 124.442 30.7395C123.658 29.9541 122.985 29.0566 122.537 28.047C122.089 27.0373 121.865 25.8032 121.865 24.5691C121.865 23.2228 122.089 22.101 122.537 21.0913C122.985 20.0816 123.658 19.1841 124.442 18.3988C125.226 17.6134 126.234 17.0525 127.242 16.7159C128.362 16.2671 129.482 16.155 130.714 16.155C131.834 16.155 132.954 16.3793 133.85 16.7159C134.746 17.1646 135.531 17.7256 136.203 18.3988C136.875 19.1841 137.323 20.0816 137.659 21.0913C137.995 22.101 138.219 23.335 138.219 24.5691V26.1398H126.682C126.906 27.1495 127.354 27.8225 128.026 28.3835C128.698 28.9445 129.482 29.281 130.49 29.281C131.274 29.281 131.946 29.0566 132.506 28.72C133.066 28.3835 133.514 27.8225 133.962 27.2616L137.547 29.842Z" fill="#425277"/>
<path fill-rule="evenodd" clip-rule="evenodd" d="M150.539 15.482L145.276 23.6717H150.539V15.482ZM150.539 27.9349H140.347V23.6717L149.868 8.9751H155.244V23.6717H158.269V27.9349H155.244V32.6468H150.427V27.9349H150.539Z" fill="#FFC63C"/>
<path fill-rule="evenodd" clip-rule="evenodd" d="M161.516 8.9751H169.245L174.734 24.4571L180.222 8.9751H187.95V32.6468H182.799V14.4723H182.686L176.525 32.6468H172.605L166.669 14.4723V32.6468H161.516V8.9751Z" fill="#425277"/>
<path fill-rule="evenodd" clip-rule="evenodd" d="M203.072 22.6618C203.072 21.7643 202.847 21.0913 202.287 20.5303C201.728 19.9693 200.943 19.6328 200.047 19.6328C199.487 19.6328 199.039 19.745 198.591 19.8573C198.143 20.0816 197.807 20.306 197.471 20.5303C197.135 20.8668 196.911 21.0913 196.798 21.54C196.688 21.8766 196.575 22.3253 196.463 22.6618H203.072ZM207.327 29.842C206.544 30.8517 205.536 31.637 204.303 32.1979C203.072 32.7588 201.839 32.9832 200.495 32.9832C199.264 32.9832 198.144 32.7588 197.023 32.4223C195.903 31.9735 195.007 31.4125 194.223 30.7395C193.439 29.9541 192.767 29.0566 192.318 28.047C191.87 27.0373 191.647 25.8032 191.647 24.5691C191.647 23.2228 191.87 22.101 192.318 21.0913C192.767 20.0816 193.439 19.1841 194.223 18.3988C195.007 17.6134 196.015 17.0525 197.023 16.7159C198.144 16.2671 199.264 16.155 200.495 16.155C201.616 16.155 202.736 16.3793 203.632 16.7159C204.528 17.1646 205.311 17.7256 205.984 18.3988C206.656 19.1841 207.104 20.0816 207.44 21.0913C207.775 22.101 208 23.335 208 24.5691V26.1398H196.463C196.687 27.1495 197.135 27.8225 197.807 28.3835C198.479 28.9445 199.264 29.281 200.271 29.281C201.055 29.281 201.728 29.0566 202.287 28.72C202.847 28.3835 203.295 27.8225 203.744 27.2616L207.327 29.842Z" fill="#425277"/>
<path fill-rule="evenodd" clip-rule="evenodd" d="M39.0911 2.13157C39.0911 0.897505 40.0992 0 41.2192 0C42.4514 0 43.3474 1.00969 43.3474 2.13157C43.3474 3.36564 42.3393 4.26315 41.2192 4.26315C40.0992 4.37533 39.0911 3.36564 39.0911 2.13157Z" fill="#FF6400"/>
<path fill-rule="evenodd" clip-rule="evenodd" d="M0 2.13157C0 1.00969 1.00808 0 2.12816 0C3.36025 0 4.36833 1.00969 4.36833 2.13157C4.36833 3.36564 3.36025 4.37533 2.12816 4.37533C1.00808 4.37533 0 3.36564 0 2.13157Z" fill="#FF6400"/>
<path fill-rule="evenodd" clip-rule="evenodd" d="M30.9146 46.7825C30.9146 45.5484 31.9225 44.6509 33.0427 44.6509C34.2747 44.6509 35.1708 45.6606 35.1708 46.7825C35.1708 48.0166 34.1628 48.9141 33.0427 48.9141C31.9225 48.9141 30.9146 48.0166 30.9146 46.7825Z" fill="#FF6400"/>
<path fill-rule="evenodd" clip-rule="evenodd" d="M27.7782 9.19953C28.1142 9.53609 28.1142 9.98485 27.7782 10.2092L24.0819 13.9114C23.7459 14.248 23.8578 14.4724 24.306 14.6967C26.4341 15.4821 28.1142 17.1649 28.7863 19.1842C28.8982 19.5209 29.2343 19.633 29.5703 19.4087L33.2666 15.7064C33.6026 15.3699 34.0507 15.3699 34.2747 15.7064L37.523 18.9599C37.859 19.2964 38.0829 19.1842 38.0829 18.7355V5.83388C38.0829 5.6095 37.971 5.49732 37.7469 5.49732H24.754C24.3059 5.49732 24.3058 5.7217 24.5299 6.05825L27.7782 9.19953ZM19.0415 14.5845C19.3775 14.4724 19.4895 14.1357 19.2656 13.7992L15.5693 10.097C15.2332 9.76046 15.2332 9.31171 15.5693 9.08734L18.8176 5.83388C19.1536 5.49732 19.0415 5.27295 18.5935 5.27295H5.8245C5.60048 5.49732 5.37646 5.6095 5.37646 5.83388V18.7355C5.37646 19.1842 5.60048 19.1842 5.9365 18.9599L9.18475 15.7064C9.52078 15.3699 9.96881 15.3699 10.1928 15.7064L13.8891 19.4087C14.2252 19.7452 14.4491 19.633 14.6732 19.1842C15.3452 17.0527 17.0253 15.3699 19.0415 14.5845ZM22.0657 29.3934C21.6177 29.3934 21.5058 29.7299 21.6177 30.0666L23.7459 34.7784C23.8578 35.115 23.7459 35.5638 23.4098 35.7881L19.2656 37.6953C18.9295 37.9196 18.9295 38.1441 19.2656 38.2563L31.3625 42.6316C31.5865 42.7438 31.8105 42.6316 31.8105 42.4073L36.2908 30.2909C36.4029 29.9544 36.2908 29.7299 35.8428 29.9544L31.6984 31.8616C31.3625 32.0859 30.9144 31.8616 30.6903 31.5249L28.3383 26.4764C28.2262 26.1399 27.8902 26.1399 27.6662 26.3644C26.9942 27.2619 26.0981 28.0471 24.978 28.6081C24.3058 28.9446 23.4098 29.1691 22.6258 29.2812C22.6258 29.2812 22.2898 29.3934 22.0657 29.3934Z" fill="#FFC63C"/>
<path fill-rule="evenodd" clip-rule="evenodd" d="M16.2412 21.7645C16.2412 18.7354 18.7055 16.3794 21.6176 16.3794C24.6419 16.3794 26.994 18.8476 26.994 21.7645C26.994 24.7936 24.5299 27.2618 21.6176 27.2618C18.7055 27.1495 16.2412 24.7936 16.2412 21.7645Z" fill="#FF6400"/>
</svg>
