<svg width="168" height="51" viewBox="0 0 168 51" fill="none" xmlns="http://www.w3.org/2000/svg">
<g clip-path="url(#clip0_109_14180)">
<path d="M1.74805 25.6182C1.74805 39.1476 12.9245 50.324 26.4539 50.324C39.9833 50.324 51.1598 39.1476 51.1598 25.6182C51.1598 12.0887 39.9833 1.05933 26.4539 1.05933C12.9245 1.05933 1.74805 12.0887 1.74805 25.6182ZM35.5716 37.0887C29.8363 33.5593 22.4833 32.677 13.9539 34.5887C11.8951 34.8829 11.601 31.9417 13.3657 31.6476C22.7775 29.4417 30.7186 30.4711 37.1892 34.4417C38.8069 35.4711 37.1892 37.9711 35.5716 37.0887ZM38.0716 30.4711C31.4539 26.3534 21.3069 25.177 13.5128 27.5299C11.0128 28.2652 10.1304 24.4417 12.4833 23.8534C21.4539 21.2064 32.4833 22.5299 40.1304 27.2358C42.1892 28.5593 40.1304 31.7946 38.0716 30.4711ZM12.3363 20.0299C9.83628 20.9123 8.21864 16.6476 11.0128 15.6182C19.6892 12.9711 34.3951 13.4123 43.5128 18.8534C46.0128 20.177 43.6598 24.2946 41.0128 22.824C33.0716 18.1182 19.8363 17.677 12.3363 20.0299ZM68.0716 33.4123C65.5716 33.4123 63.2186 32.5299 61.1598 30.4711C61.0128 30.4711 61.0128 30.6182 61.0128 30.6182L58.6598 33.4123C58.5128 33.5593 58.5128 33.7064 58.6598 33.8534C61.3069 36.2064 64.5422 37.3829 68.0716 37.3829C73.0716 37.3829 76.1598 34.5887 76.1598 30.4711C76.1598 26.9417 73.9539 25.0299 68.8069 23.7064C64.5422 22.677 63.8069 21.9417 63.8069 20.4711C63.8069 19.0005 65.2775 18.1182 67.1892 18.1182C69.101 18.1182 70.8657 18.8534 72.9245 20.324C72.9245 20.324 73.0716 20.4711 73.2186 20.4711C73.3657 20.4711 73.3657 20.324 73.3657 20.324L75.4245 17.3829C75.5716 17.2358 75.5716 17.2358 75.4245 17.0887C73.0716 15.177 70.2775 14.1476 67.1892 14.1476C62.6304 14.1476 59.3951 16.9417 59.3951 20.9123C59.3951 25.177 62.3363 26.5005 67.0422 27.677C71.1598 28.5593 71.748 29.4417 71.748 30.9123C71.748 32.5299 70.2775 33.4123 68.0716 33.4123ZM82.0422 22.0887V20.177C82.0422 20.0299 81.8951 19.8829 81.748 19.8829H77.9245C77.7775 19.8829 77.6304 20.0299 77.6304 20.177V41.7946C77.6304 41.9417 77.7775 42.0887 77.9245 42.0887H81.748C81.8951 42.0887 82.0422 41.9417 82.0422 41.7946V35.0299C83.5128 36.6476 85.1304 37.3829 87.3363 37.3829C91.3069 37.3829 95.2775 34.2946 95.2775 28.4123C95.2775 22.5299 91.3069 19.5887 87.3363 19.5887C85.1304 19.5887 83.5128 20.324 82.0422 22.0887ZM86.4539 33.5593C83.8069 33.5593 81.8951 31.3534 81.8951 28.4123C81.8951 25.4711 83.8069 23.4123 86.4539 23.4123C89.101 23.4123 90.8657 25.4711 90.8657 28.4123C90.8657 31.3534 89.101 33.5593 86.4539 33.5593ZM96.4539 28.5593C96.4539 33.5593 100.425 37.3829 105.572 37.3829C110.719 37.3829 114.689 33.4123 114.689 28.4123C114.689 23.4123 110.866 19.5887 105.719 19.5887C100.572 19.5887 96.4539 23.5593 96.4539 28.5593ZM100.866 28.4123C100.866 25.4711 102.777 23.4123 105.572 23.4123C108.366 23.4123 110.425 25.6182 110.425 28.5593C110.425 31.5005 108.513 33.5593 105.719 33.5593C102.925 33.5593 100.866 31.3534 100.866 28.4123ZM121.454 19.8829V15.6182C121.454 15.4711 121.454 15.324 121.307 15.324H117.483C117.336 15.324 117.189 15.4711 117.189 15.6182V19.8829H115.277C115.13 19.8829 114.983 20.0299 114.983 20.177V23.4123C114.983 23.5593 115.13 23.7064 115.277 23.7064H117.189V32.2358C117.189 35.6182 118.807 37.3829 122.189 37.3829C123.513 37.3829 124.836 37.0887 125.866 36.5005C126.013 36.5005 126.013 36.3534 126.013 36.2064V33.1182C126.013 32.9711 126.013 32.824 125.866 32.824H125.572C124.836 33.2652 123.954 33.4123 123.219 33.4123C122.042 33.4123 121.454 32.824 121.454 31.6476V23.7064H125.866C126.013 23.7064 126.16 23.5593 126.16 23.4123V20.177C126.16 20.0299 126.013 19.8829 125.866 19.8829H121.454ZM140.425 19.4417C140.425 17.824 141.013 17.2358 142.336 17.2358C143.072 17.2358 143.807 17.2358 144.542 17.5299H144.689C144.689 17.5299 144.836 17.3829 144.836 17.2358V14.1476C144.836 14.0005 144.836 13.8534 144.689 13.8534C143.954 13.5593 142.925 13.4123 141.454 13.4123C137.925 13.4123 136.16 15.4711 136.16 19.1476V19.8829H134.248C134.101 19.8829 133.954 20.0299 133.954 20.177V23.4123C133.954 23.5593 134.101 23.7064 134.248 23.7064H136.16V36.7946C136.16 36.9417 136.307 37.0887 136.454 37.0887H140.277C140.425 37.0887 140.425 36.9417 140.425 36.7946V23.7064H144.101L149.542 36.7946C148.954 38.1182 148.366 38.4123 147.483 38.4123C146.748 38.4123 146.013 38.2652 145.277 37.824H145.13L144.983 37.9711L143.66 40.7652C143.66 40.9123 143.66 41.2064 143.807 41.2064C145.13 41.9417 146.307 42.2358 147.777 42.2358C150.572 42.2358 152.189 40.9123 153.513 37.3829L160.13 20.324V20.0299C160.13 19.8829 159.983 19.8829 159.836 19.8829H155.866C155.719 19.8829 155.719 20.0299 155.719 20.177L151.601 31.6476L147.189 20.177C147.189 20.0299 147.042 19.8829 146.895 19.8829H140.425V19.4417ZM128.219 19.8829C128.072 19.8829 127.925 20.0299 127.925 20.177V36.7946C127.925 36.9417 128.072 37.0887 128.219 37.0887H132.042C132.189 37.0887 132.189 36.9417 132.189 36.7946V20.177C132.189 20.0299 132.189 19.8829 132.042 19.8829H128.219ZM127.336 15.0299C127.336 16.5005 128.66 17.824 130.13 17.824C131.601 17.824 132.777 16.5005 132.777 15.0299C132.777 13.5593 131.601 12.3829 130.13 12.3829C128.66 12.3829 127.336 13.5593 127.336 15.0299ZM163.366 25.177C164.836 25.177 166.16 24.0005 166.16 22.5299C166.16 21.0593 164.836 19.8829 163.366 19.8829C161.895 19.8829 160.719 21.0593 160.719 22.5299C160.719 24.0005 161.895 25.177 163.366 25.177ZM163.366 20.177C164.689 20.177 165.866 21.2064 165.866 22.5299C165.866 23.8534 164.689 24.8829 163.366 24.8829C162.042 24.8829 161.013 23.8534 161.013 22.5299C161.013 21.2064 162.042 20.177 163.366 20.177ZM163.954 22.824C164.395 22.677 164.689 22.3829 164.689 21.9417C164.689 21.3534 164.101 21.0593 163.513 21.0593H162.336V23.8534H162.925V22.9711H163.513L164.101 23.8534H164.836L163.954 22.824ZM163.513 21.5005C163.807 21.5005 164.101 21.6476 164.101 21.9417C164.101 22.2358 163.807 22.3829 163.513 22.3829H162.925V21.5005H163.513Z" fill="#1ED760"/>
</g>
<defs>
<clipPath id="clip0_109_14180">
<rect width="166.765" height="50" fill="white" transform="translate(0.571533 0.471191)"/>
</clipPath>
</defs>
</svg>
