<svg width="166" height="50" viewBox="0 0 166 50" fill="none" xmlns="http://www.w3.org/2000/svg">
<g clip-path="url(#clip0_100_7551)">
<path fill-rule="evenodd" clip-rule="evenodd" d="M102.353 14.0595C102.046 14.0616 101.75 14.1806 101.528 14.3922C101.305 14.6038 101.172 14.8921 101.154 15.1984L101.211 37.416C101.228 37.7215 101.361 38.009 101.583 38.2204C101.804 38.4319 102.098 38.5513 102.405 38.5549H106.001C106.308 38.5513 106.602 38.4319 106.823 38.2204C107.045 38.009 107.178 37.7215 107.195 37.416L107.143 15.1984C107.126 14.8921 106.992 14.6038 106.77 14.3922C106.547 14.1806 106.252 14.0616 105.944 14.0595H102.353ZM104.107 0.00517678C103.177 0.00517678 102.284 0.373851 101.627 1.03011C100.969 1.68635 100.599 2.57644 100.599 3.50453C100.599 4.4326 100.969 5.32268 101.627 5.97893C102.284 6.63518 103.177 7.00385 104.107 7.00385C104.584 7.02974 105.061 6.95841 105.509 6.79424C105.957 6.63006 106.367 6.3765 106.714 6.04901C107.061 5.72153 107.337 5.327 107.525 4.88951C107.714 4.45203 107.811 3.98078 107.811 3.50453C107.811 3.02826 107.714 2.557 107.525 2.11951C107.337 1.68203 107.061 1.2875 106.714 0.960012C106.367 0.632525 105.957 0.378963 105.509 0.214794C105.061 0.0506249 104.584 -0.0206994 104.107 0.00517678ZM73.3643 14.5927C72.4561 14.5927 72.0928 15.1776 72.4561 15.9385L83.1518 37.97C83.2476 38.1588 83.3971 38.3151 83.5818 38.4191C83.7667 38.5232 83.9781 38.5704 84.1896 38.5549H84.4906C84.702 38.5691 84.913 38.5213 85.0974 38.4174C85.2818 38.3134 85.4318 38.1579 85.5286 37.97L96.1983 15.9541C96.5615 15.1931 96.1983 14.6082 95.2953 14.6082H92.5137C91.8495 14.6082 91.1852 14.6082 90.8842 15.2501L84.3609 29.0404H84.2986L78.0142 15.2501C77.9199 15.046 77.7656 14.8753 77.572 14.7607C77.3783 14.646 77.1542 14.5929 76.9295 14.6082L73.3643 14.5927ZM112.146 15.9385C111.783 15.1776 112.146 14.5927 113.049 14.5927H116.614C116.839 14.5777 117.064 14.631 117.258 14.7456C117.453 14.86 117.608 15.0304 117.704 15.2346L123.983 29.0249H124.045L130.569 15.2346C130.87 14.5927 131.534 14.5927 132.203 14.5927H134.98C135.888 14.5927 136.251 15.1776 135.888 15.9385L125.192 37.97C125.097 38.1588 124.947 38.3151 124.762 38.4191C124.578 38.5232 124.366 38.5704 124.154 38.5549H123.853C123.642 38.5704 123.43 38.5232 123.246 38.4191C123.061 38.3151 122.911 38.1588 122.815 37.97L112.146 15.9385ZM140.304 14.5927C140.115 14.5696 139.923 14.599 139.75 14.6775C139.576 14.756 139.428 14.8807 139.32 15.0379C139.213 15.1953 139.151 15.3788 139.142 15.5687C139.132 15.7587 139.175 15.9475 139.266 16.1146L149.084 37.1779L143.683 48.4369C143.583 48.6047 143.533 48.7972 143.538 48.9922C143.543 49.1871 143.604 49.3766 143.712 49.539C143.82 49.7013 143.973 49.8297 144.151 49.9094C144.33 49.9893 144.527 50.0171 144.721 49.9898H148.354C148.574 49.9784 148.787 49.9073 148.97 49.7841C149.152 49.661 149.298 49.4906 149.392 49.291L165.121 16.1146C165.542 15.3537 165.058 14.5927 164.083 14.5927H160.658C160.405 14.5555 160.148 14.5973 159.92 14.7122C159.692 14.8272 159.507 15.0097 159.386 15.2346L152.146 30.7953H152.09L145.297 15.2346C145.189 15.0516 145.038 14.8978 144.857 14.7859C144.676 14.6741 144.471 14.6078 144.259 14.5927H140.304Z" fill="black"/>
<path fill-rule="evenodd" clip-rule="evenodd" d="M20.1853 19.8485C19.4948 20.5482 18.6722 21.1038 17.7654 21.4829C16.8587 21.8621 15.8856 22.0574 14.9027 22.0574C13.9198 22.0574 12.9467 21.8621 12.0399 21.4829C11.1331 21.1038 10.3106 20.5482 9.62006 19.8485C8.21644 18.4244 7.42957 16.5049 7.42957 14.5049C7.42957 12.5049 8.21644 10.5853 9.62006 9.16112C10.3102 8.46084 11.1326 7.90475 12.0395 7.52519C12.9464 7.14563 13.9196 6.95016 14.9027 6.95016C15.8857 6.95016 16.859 7.14563 17.7659 7.52519C18.6728 7.90475 19.4951 8.46084 20.1853 9.16112L25.424 14.4634L20.1853 19.8485ZM56.8194 5.44326C55.4459 3.69103 53.68 2.2861 51.6641 1.34172C49.6482 0.397331 47.4387 -0.0600904 45.2137 0.00632483C41.4342 0.162051 37.8601 1.76794 35.2334 4.49051L30.2691 9.51322L25.3048 4.49051C19.8073 -1.07071 10.8572 -1.47976 5.16826 3.86916C3.33517 5.59484 1.97845 7.76462 1.22938 10.1685C0.480311 12.5724 0.364262 15.1291 0.892468 17.591C1.21895 19.1906 1.82717 20.7196 2.68872 22.1062C3.81373 23.9684 5.34909 25.5488 7.17764 26.7271C9.0062 27.9054 11.0797 28.6503 13.2398 28.905C15.4 29.1599 17.5898 28.9176 19.6422 28.1971C21.6945 27.4763 23.5551 26.2963 25.0822 24.7471L30.3053 19.3774L36.0306 25.1716C36.1479 25.2897 36.2875 25.3834 36.4412 25.4472C36.5948 25.5112 36.7597 25.5441 36.926 25.5441C37.0925 25.5441 37.2573 25.5112 37.411 25.4472C37.5647 25.3834 37.7043 25.2897 37.8216 25.1716L40.8913 22.0649C41.1281 21.8237 41.2607 21.4993 41.2607 21.1612C41.2607 20.8232 41.1281 20.4988 40.8913 20.2576L35.1298 14.4272L40.3322 9.16112C41.2387 8.24019 42.3695 7.57149 43.6131 7.221C44.8568 6.8705 46.1703 6.85029 47.424 7.16238C48.1279 7.32882 48.8007 7.60676 49.417 7.98569C50.4 8.58203 51.2354 9.39318 51.8606 10.3583C52.4857 11.3235 52.8845 12.4176 53.0269 13.5588C53.1692 14.7 53.0518 15.8587 52.6829 16.9479C52.3143 18.0372 51.7038 19.0288 50.8975 19.8485L30.2691 40.7162L22.1367 32.5193C22.0198 32.4013 21.8809 32.3078 21.7275 32.244C21.5742 32.1801 21.4098 32.1472 21.244 32.1472C21.0779 32.1472 20.9135 32.1801 20.7603 32.244C20.607 32.3078 20.4679 32.4013 20.3509 32.5193L17.2813 35.626C17.042 35.8659 16.9076 36.1909 16.9076 36.5297C16.9076 36.8685 17.042 37.1934 17.2813 37.4332L29.3322 49.6275C29.4495 49.7456 29.5891 49.8393 29.7428 49.9032C29.8965 49.9671 30.0613 50 30.2276 50C30.3941 50 30.559 49.9671 30.7126 49.9032C30.8663 49.8393 31.0059 49.7456 31.1232 49.6275L55.7375 24.7522C57.3073 23.1649 58.4913 21.2376 59.1976 19.1197C59.9041 17.0016 60.1141 14.7494 59.8115 12.5372C59.4778 9.94432 58.4432 7.49162 56.8194 5.44326Z" fill="#00BFAC"/>
</g>
<defs>
<clipPath id="clip0_100_7551">
<rect width="164.706" height="50" fill="white" transform="translate(0.566895)"/>
</clipPath>
</defs>
</svg>
