<svg width="30" height="30" viewBox="0 0 30 30" fill="none" xmlns="http://www.w3.org/2000/svg">
<path d="M14.2093 13.3959C14.2094 13.768 14.0991 14.1318 13.8925 14.4412C13.6858 14.7507 13.392 14.9919 13.0483 15.1345C12.7045 15.277 12.3262 15.3143 11.9612 15.2418C11.5962 15.1694 11.2609 14.9903 10.9977 14.7272C10.7345 14.4642 10.5552 14.129 10.4824 13.764C10.4097 13.3991 10.4468 13.0208 10.5891 12.6769C10.7314 12.3331 10.9725 12.0391 11.2818 11.8323C11.5911 11.6254 11.9548 11.5149 12.327 11.5148C12.826 11.5148 13.3045 11.713 13.6575 12.0657C14.0104 12.4184 14.2089 12.8969 14.2093 13.3959ZM16.6422 13.3959C16.642 13.7682 16.7522 14.1322 16.9589 14.442C17.1656 14.7517 17.4594 14.9931 17.8034 15.1358C18.1473 15.2784 18.5258 15.3159 18.891 15.2434C19.2562 15.1709 19.5918 14.9917 19.8551 14.7285C20.1185 14.4653 20.2979 14.1299 20.3706 13.7648C20.4434 13.3996 20.4061 13.0211 20.2637 12.677C20.1213 12.333 19.88 12.039 19.5705 11.8321C19.2609 11.6252 18.8969 11.5148 18.5246 11.5148C18.2774 11.5146 18.0327 11.5632 17.8043 11.6576C17.576 11.7521 17.3685 11.8906 17.1937 12.0653C17.0189 12.24 16.8802 12.4474 16.7856 12.6757C16.691 12.904 16.6423 13.1487 16.6422 13.3959Z" fill="#419EDA"/>
<path d="M29.4526 15.4374C29.3143 15.4482 29.1756 15.4535 29.0368 15.4531C28.2085 15.4523 27.3914 15.2621 26.6479 14.8971C26.8898 13.5019 26.9975 12.0867 26.9696 10.671C26.1651 9.50462 25.2491 8.41918 24.2345 7.43002C24.6838 6.58406 25.3487 5.87189 26.1618 5.36568L26.5156 5.14638L26.2395 4.83469C24.8505 3.25986 23.1338 2.00783 21.2099 1.16631L20.8272 1L20.7299 1.40355C20.5024 2.33488 20.0317 3.18916 19.3661 3.8792C18.1086 3.21113 16.7888 2.66747 15.4255 2.25594C14.0642 2.66653 12.7463 3.20934 11.4907 3.87662C10.8274 3.18786 10.3587 2.33548 10.1323 1.40643L10.0335 1.00159L9.65202 1.16725C7.73054 2.01225 6.0148 3.26327 4.62274 4.83433L4.34698 5.14602L4.70013 5.36503C5.51046 5.86855 6.17369 6.57685 6.62291 7.41849C5.6114 8.40483 4.69711 9.48619 3.89267 10.6476C3.86014 12.0724 3.96507 13.4969 4.20601 14.9016C3.46667 15.2633 2.65461 15.4519 1.83151 15.4528C1.69244 15.4533 1.55342 15.448 1.41478 15.4371L1 15.4047L1.03852 15.8188C1.241 17.9105 1.90152 19.932 2.97318 21.7396L3.18378 22.0983L3.49971 21.8292C4.23269 21.2089 5.11749 20.7947 6.06334 20.6291C6.67922 21.8874 7.41392 23.0839 8.25741 24.2024C9.60702 24.6762 10.9992 25.0186 12.4147 25.2247C12.556 26.1841 12.4364 27.1639 12.0686 28.0612L11.9106 28.4458L12.3164 28.5357C13.3392 28.7628 14.3836 28.8783 15.4313 28.8801L18.5455 28.5357L18.9517 28.4458L18.7943 28.0612C18.4259 27.1629 18.3067 26.1819 18.4492 25.2215C19.8589 25.0153 21.2455 24.6741 22.5898 24.2024C23.4345 23.0833 24.1698 21.8856 24.7855 20.6259C25.7358 20.7902 26.6252 21.2049 27.3619 21.8273L27.6781 22.095L27.8891 21.7393C28.9609 19.932 29.6208 17.9104 29.8215 15.8188L29.86 15.405L29.4526 15.4374ZM19.8827 20.4981C16.9645 21.3007 13.8837 21.3007 10.9655 20.4981C9.33436 17.9752 8.3983 15.0663 8.25194 12.0656C9.18922 10.9024 10.2759 9.86788 11.4839 8.989C12.6988 8.1055 14.024 7.38462 15.4258 6.84468C16.8243 7.384 18.1466 8.10288 19.3597 8.98324C20.5731 9.86883 21.6645 10.9104 22.6059 12.081C22.5272 13.5742 22.254 15.0506 21.7933 16.4731C21.3328 17.8916 20.6906 19.2445 19.8827 20.4981Z" fill="#419EDA"/>
</svg>
