<svg width="771" height="282" viewBox="0 0 771 282" fill="none" xmlns="http://www.w3.org/2000/svg">
<g clip-path="url(#clip0_191_9784)">
<mask id="mask0_191_9784" style="mask-type:luminance" maskUnits="userSpaceOnUse" x="0" y="81" width="771" height="201">
<path d="M770.9 81.1001H0V281.9H770.9V81.1001Z" fill="white"/>
</mask>
<g mask="url(#mask0_191_9784)">
<path d="M0 134.3C0 128.4 1.1 122.3 3.3 116C5.5 109.8 8.9 104.1 13.3 99.0001C17.7 93.9001 23.2 89.8001 29.8 86.5001C36.4 83.2001 44.1 81.6001 52.8 81.6001V88.6001C47.2 88.6001 41.7 89.8001 36.2 92.3001C30.7 94.8001 25.8 98.1001 21.5 102.3C17.2 106.5 13.7 111.3 11 116.8C8.3 122.3 6.9 128.1 6.9 134.3C6.9 140.5 8.3 148.3 11.1 154.1C13.9 159.9 17.5 164.6 21.9 168.5C26.3 172.4 31.3 175.4 36.7 177.4C42.1 179.4 47.5 180.4 52.8 180.3H88V134.4H95V187.3H52.8C50 187.3 46.7 186.9 43 186.2C39.3 185.5 35.5 184.3 31.5 182.6C27.6 181 23.7 178.8 19.9 176.1C16.1 173.4 12.7 170.1 9.7 166.2C6.7 162.3 4.3 157.7 2.5 152.4C0.9 147.1 0 141.1 0 134.3Z" fill="#0F1216"/>
<path d="M210.4 81.7002V88.7002H126V81.7002H210.4ZM210.4 137.8H135V179.8H208.7V186.8H128V130.6H210.4V137.9V137.8Z" fill="#0F1216"/>
<path d="M240 81.1001H247.1L324.3 187H315.4L247.1 93.2001V187H240V81.1001Z" fill="#0F1216"/>
<path d="M439.5 81.7002V88.7002H355V81.7002H439.5ZM439.5 137.8H364.1V179.8H437.8V186.8H357.1V130.6H439.5V137.9V137.8Z" fill="#0F1216"/>
<path d="M546.6 88.6002H507.8C497.4 88.6002 489.5 90.5002 484.1 94.2002C478.7 98.0002 476.1 103.1 476.1 109.6C476.1 116.1 477.1 117.5 479 120.2C480.9 122.9 483.3 125 486.3 126.6C489.3 128.2 492.7 129.2 496.4 129.8C500.2 130.4 504 130.6 507.8 130.6H518.4C522.8 130.6 526.7 131.4 530.2 133.1C533.7 134.8 536.6 137 539.1 139.7C541.5 142.4 543.4 145.4 544.7 148.8C546 152.2 546.6 155.5 546.6 158.9C546.6 162.3 545.9 166.3 544.4 169.7C543 173.1 541 176.1 538.5 178.7C536 181.3 533 183.4 529.6 184.9C526.2 186.4 522.4 187.1 518.4 187.1H507.8V180.1H518.4C521.3 180.1 524 179.4 526.6 178.4C529.2 177.4 531.4 175.9 533.4 174.1C535.4 172.2 536.9 170 538 167.5C539.1 165 539.7 162.1 539.7 158.9C539.7 155.7 539.1 152.7 537.8 150.1C536.5 147.5 534.9 145.3 532.9 143.5C530.9 141.7 528.6 140.3 526.1 139.3C523.5 138.3 521 137.8 518.5 137.8H507.9C505.8 137.8 503.3 137.6 500.6 137.5C497.9 137.5 495.1 137.1 492.2 136.6C489.3 136.1 486.5 135.3 483.7 134.1C480.9 133 478.5 131.4 476.4 129.3C474.3 127.2 472.5 124.6 471.2 121.4C469.8 118.2 469.2 114.3 469.2 109.5C469.2 104.7 470.4 99.3002 472.7 95.6002C475 91.9002 478 89.0002 481.7 86.9002C485.4 84.8002 489.5 83.3002 494.1 82.5002C498.7 81.7002 503.3 81.2002 507.9 81.2002H546.7V88.5002L546.6 88.6002Z" fill="#0F1216"/>
<path d="M584.5 186.9H577.4V81.4001H584.5V186.9Z" fill="#0F1216"/>
<path d="M693.1 88.6002H654.3C643.9 88.6002 636 90.5002 630.6 94.2002C625.2 98.0002 622.6 103.1 622.6 109.6C622.6 116.1 623.6 117.5 625.5 120.2C627.4 122.9 629.8 125 632.8 126.6C635.8 128.2 639.2 129.2 642.9 129.8C646.7 130.4 650.5 130.6 654.3 130.6H664.9C669.3 130.6 673.2 131.4 676.7 133.1C680.2 134.8 683.1 137 685.6 139.7C688 142.4 689.9 145.4 691.2 148.8C692.5 152.2 693.2 155.5 693.2 158.9C693.2 162.3 692.5 166.3 691 169.7C689.6 173.1 687.6 176.1 685.1 178.7C682.6 181.3 679.6 183.4 676.2 184.9C672.8 186.4 669 187.1 665 187.1H654.4V180.1H665C667.9 180.1 670.6 179.4 673.2 178.4C675.8 177.4 678 175.9 680 174.1C681.9 172.2 683.5 170 684.6 167.5C685.7 165 686.3 162.1 686.3 158.9C686.3 155.7 685.7 152.7 684.4 150.1C683.1 147.5 681.5 145.3 679.5 143.5C677.5 141.7 675.2 140.3 672.7 139.3C670.2 138.3 667.6 137.8 665.1 137.8H654.5C652.4 137.8 649.9 137.6 647.2 137.5C644.5 137.5 641.7 137.1 638.8 136.6C635.9 136.1 633.1 135.3 630.3 134.1C627.5 133 625.1 131.4 623 129.3C620.9 127.2 619.1 124.6 617.8 121.4C616.4 118.2 615.8 114.3 615.8 109.5C615.8 104.7 617 99.3002 619.3 95.6002C621.6 91.9002 624.6 89.0002 628.3 86.9002C632 84.8002 636.1 83.3002 640.7 82.5002C645.3 81.7002 649.9 81.2002 654.5 81.2002H693.3V88.5002L693.1 88.6002Z" fill="#0F1216"/>
<path d="M518.6 204.6C522.1 204.6 525.4 205.3 528.5 206.6C531.6 207.9 534.4 209.8 536.7 212.1C539 214.4 540.9 217.2 542.2 220.3C543.5 223.4 544.2 226.8 544.2 230.3C544.2 233.8 543.5 237.3 542.1 240.4C540.7 243.5 538.8 246.3 536.5 248.8L500.5 281.7H493L533 244.9C535 243.1 536.5 240.9 537.5 238.3C538.6 235.7 539.1 233.1 539.1 230.2C539.1 227.3 538.6 224.7 537.4 222.2C536.3 219.7 534.8 217.5 533 215.6C531.2 213.7 529 212.2 526.5 211.2C524 210.1 521.3 209.6 518.5 209.6C515.7 209.6 513 210.1 510.5 211.2C508 212.3 505.8 213.8 504 215.6C502.1 217.5 500.6 219.7 499.6 222.2C498.5 224.7 498 227.3 498 230.2H492.9C492.9 226.6 493.6 223.3 494.9 220.2C496.2 217.1 498.1 214.4 500.4 212C502.8 209.7 505.5 207.8 508.6 206.5C511.7 205.1 515 204.4 518.6 204.4V204.6Z" fill="#B455FF"/>
<path d="M592.9 281.9C589.3 281.9 586 281.2 582.9 279.9C579.8 278.6 577.1 276.7 574.7 274.3C572.4 272 570.5 269.2 569.2 266.1C567.9 263 567.2 259.6 567.2 256.1V230.4C567.2 226.8 567.9 223.5 569.2 220.4C570.5 217.3 572.4 214.6 574.7 212.2C577.1 209.9 579.8 208.1 582.9 206.7C586 205.4 589.3 204.7 592.9 204.7C596.5 204.7 599.8 205.4 602.9 206.8C606 208.2 608.8 210 611.1 212.3C613.4 214.6 615.3 217.4 616.6 220.5C617.9 223.6 618.6 227 618.6 230.5V256.2H613.5V230.5C613.5 227.7 613 225 611.9 222.5C610.8 220 609.4 217.8 607.5 215.9C605.6 214 603.4 212.5 600.9 211.5C598.4 210.4 595.7 209.9 592.9 209.9C590.1 209.9 587.4 210.4 584.9 211.5C582.4 212.6 580.2 214.1 578.4 215.9C576.5 217.8 575 220 574 222.4C572.9 224.9 572.4 227.5 572.4 230.3V255.9C572.4 258.7 572.9 261.4 574 263.9C575.1 266.4 576.6 268.6 578.4 270.5C580.3 272.4 582.5 273.8 584.9 274.9C587.4 276 590 276.5 592.9 276.5V281.7V281.9Z" fill="#B455FF"/>
<path d="M667.1 204.6C670.6 204.6 673.9 205.3 677 206.6C680.1 207.9 682.9 209.8 685.2 212.1C687.5 214.4 689.4 217.2 690.7 220.3C692 223.4 692.7 226.8 692.7 230.3C692.7 233.8 692 237.3 690.6 240.4C689.2 243.5 687.3 246.3 685 248.8L649 281.7H641.5L681.5 244.9C683.5 243.1 685 240.9 686 238.3C687.1 235.7 687.6 233.1 687.6 230.2C687.6 227.3 687.1 224.7 685.9 222.2C684.8 219.7 683.3 217.5 681.5 215.6C679.7 213.7 677.5 212.2 675 211.2C672.5 210.1 669.8 209.6 667 209.6C664.2 209.6 661.5 210.1 659 211.2C656.5 212.3 654.3 213.8 652.5 215.6C650.6 217.5 649.1 219.7 648.1 222.2C647 224.7 646.5 227.3 646.5 230.2H641.4C641.4 226.6 642.1 223.3 643.4 220.2C644.7 217.1 646.6 214.4 648.9 212C651.3 209.7 654 207.8 657.1 206.5C660.2 205.1 663.5 204.4 667.1 204.4V204.6Z" fill="#B455FF"/>
<path d="M728.2 250.8H770.9V281.7H765.6V256H715.8L767.2 204.6L770.9 208.1L728.2 250.7V250.8Z" fill="#B455FF"/>
</g>
<path d="M326.7 2H328.2V8.8H326.7V4.1L324.4 7.2L322.1 4.1V8.8H320.6V2H322.1L324.4 5.1L326.7 2ZM317.6 8.8H316.1V3.4H314V2H319.7V3.4H317.6V8.8Z" fill="#0F1216"/>
<path d="M245.3 1.40005L261.7 18.6L278.2 1.60005H287.3L266 22.7001L287.9 44.8H278.6L261.7 27L244.5 44.6H235.2L257.3 22.7001L236.2 1.30005H245.3V1.40005Z" fill="#0F1216"/>
<path d="M290.7 22.7999L312 1.69995H302.9L286.4 18.7L278.3 10.4L274 14.7L282 22.7999L259.9 44.7H269.2L286.4 27.2L303.3 45H312.6L290.7 22.9V22.7999Z" fill="#E17D00"/>
<path d="M261 1.5L269.7 10.3L274.1 5.8L270.1 1.5H261Z" fill="#E17D00"/>
<path d="M185 30.0001C185 34.0001 185.2 35.4001 186.3 36.5001C187.3 37.5001 188.6 37.8001 192.8 37.8001H215.2C219.4 37.9001 220.6 37.7001 221.7 36.7001C222.7 35.6001 223 34.2001 223 30.2001V15.5001C223.1 11.5001 222.8 10.1001 221.8 9.0001C220.8 8.0001 219.5 7.7001 215.3 7.7001H192.9C188.7 7.6001 187.5 7.8001 186.4 8.8001C185.4 9.9001 185.1 11.3001 185.1 15.3001V30.0001H185ZM229.9 31.5001C229.9 36.4001 229 39.2001 226.8 41.3001C224.5 43.5001 221.7 44.4001 216.9 44.4001H191C186.2 44.2001 183.4 43.3001 181.1 41.1001C178.9 39.0001 178.1 36.2001 178.1 31.2001V14.0001C178.2 9.1001 179.1 6.3001 181.3 4.2001C183.6 2.0001 186.4 1.1001 191.2 1.1001H217.1C221.9 1.3001 224.7 2.2001 227 4.4001C229.2 6.5001 230 9.3001 230 14.3001V31.6001L229.9 31.5001Z" fill="#0F1216"/>
<path d="M165.8 0.900098H174L145.5 44.1001H140.8L112.7 0.600098H120.9L143.1 35.3001L165.8 0.900098Z" fill="#0F1216"/>
<path d="M68.2 6.90005V18.8L107.4 19L106.5 25.5L68 25.3V37.2001L109 37.4001V43.9001L61 43.6L61.2 0.300049L107.4 0.600049V7.10005L68.1 6.90005H68.2Z" fill="#0F1216"/>
<path d="M7 36.8L37.2 37C41.4 37 42.6 36.8 43.7 35.7C44.7 34.6 45 33.2 45 29.2V14.5C45.1 10.5 44.8 9.1 43.8 8C42.8 7 41.5 6.7 37.3 6.7L7.1 6.5L6.9 36.8H7ZM39.2 0.2C44 0.2 46.8 1.1 49.1 3.4C51.3 5.6 52.1 8.3 52.1 13.3V30.6C52 35.5 51.1 38.3 48.9 40.4C46.6 42.6 43.8 43.5 39 43.5L0 43.3L0.3 0L39.2 0.2Z" fill="#0F1216"/>
</g>
<defs>
<clipPath id="clip0_191_9784">
<rect width="771" height="281.9" fill="white"/>
</clipPath>
</defs>
</svg>
