<svg width="771" height="201" viewBox="0 0 771 201" fill="none" xmlns="http://www.w3.org/2000/svg">
<g clip-path="url(#clip0_190_9784)">
<path d="M0 53.18C0 47.2301 1.12 41.13 3.35 34.89C5.58 28.66 8.91 23.0001 13.33 17.93C17.75 12.86 23.26 8.70005 29.87 5.44005C36.48 2.18005 44.15 0.550049 52.9 0.550049V7.53005C47.32 7.53005 41.78 8.76005 36.29 11.23C30.8 13.7 25.89 17.02 21.56 21.21C17.23 25.4 13.72 30.24 11.02 35.73C8.32 41.22 6.97 47.0401 6.97 53.18C6.97 60.63 8.37 67.21 11.16 72.93C13.95 78.65 17.56 83.47 21.98 87.38C26.4 91.29 31.33 94.24 36.78 96.24C42.22 98.24 47.6 99.2 52.9 99.1H88.08V53.18H95.06V106.08H52.9C50.11 106.08 46.85 105.71 43.13 104.96C39.41 104.22 35.59 103.03 31.68 101.4C27.77 99.77 23.91 97.61 20.1 94.91C16.28 92.21 12.89 88.91 9.91 85C6.93 81.09 4.54 76.51 2.72 71.25C0.91 65.99 0 59.97 0 53.17L0 53.18Z" fill="#0F1216"/>
<path d="M210.36 0.560059V7.54006H125.91V0.560059H210.36ZM210.36 56.6701H134.98V98.6901H208.68V105.67H128V49.4201H210.36V56.6801V56.6701Z" fill="#0F1216"/>
<path d="M239.95 0H247.07L324.26 105.95H315.33L247.07 12.14V105.94H239.95V0Z" fill="#0F1216"/>
<path d="M439.42 0.560059V7.54006H354.97V0.560059H439.42ZM439.42 56.6701H364.04V98.6901H437.74V105.67H357.06V49.4201H439.42V56.6801V56.6701Z" fill="#0F1216"/>
<path d="M546.62 7.54003H507.81C497.39 7.54003 489.5 9.42003 484.15 13.18C478.8 16.94 476.12 22.06 476.12 28.55C476.12 32.91 477.07 36.43 478.98 39.12C480.89 41.81 483.33 43.94 486.31 45.52C489.29 47.1 492.66 48.16 496.43 48.72C500.2 49.28 503.99 49.55 507.81 49.55H518.42C522.79 49.55 526.72 50.39 530.21 52.07C533.7 53.75 536.65 55.94 539.07 58.65C541.49 61.35 543.35 64.39 544.65 67.74C545.95 71.1 546.6 74.46 546.6 77.81C546.6 81.64 545.88 85.25 544.44 88.65C543 92.06 541.02 95.06 538.51 97.68C536 100.29 533.02 102.35 529.58 103.84C526.14 105.33 522.41 106.08 518.41 106.08H507.8V99.1H518.41C521.29 99.01 524.01 98.45 526.58 97.43C529.14 96.41 531.4 94.97 533.35 93.1C535.3 91.24 536.84 89.03 537.96 86.47C539.08 83.91 539.63 81.05 539.63 77.89C539.63 74.73 539 71.7 537.75 69.1C536.49 66.5 534.87 64.28 532.87 62.47C530.87 60.66 528.59 59.26 526.03 58.28C523.47 57.3 520.94 56.81 518.42 56.81H507.81C505.67 56.72 503.25 56.62 500.55 56.53C497.85 56.44 495.06 56.14 492.17 55.62C489.28 55.11 486.47 54.29 483.72 53.17C480.97 52.05 478.53 50.44 476.39 48.34C474.25 46.24 472.5 43.61 471.16 40.43C469.81 37.26 469.14 33.29 469.14 28.54C469.14 22.94 470.3 18.3 472.63 14.62C474.96 10.94 477.96 8.04003 481.63 5.95003C485.3 3.85003 489.45 2.38003 494.05 1.54003C498.65 0.700029 503.24 0.280029 507.8 0.280029H546.61V7.54003H546.62Z" fill="#0F1216"/>
<path d="M584.44 105.81H577.32V0.280029H584.44V105.81Z" fill="#0F1216"/>
<path d="M693.04 7.54003H654.23C643.81 7.54003 635.92 9.42003 630.57 13.18C625.22 16.94 622.54 22.06 622.54 28.55C622.54 32.91 623.49 36.43 625.4 39.12C627.31 41.81 629.75 43.94 632.73 45.52C635.71 47.1 639.08 48.16 642.85 48.72C646.62 49.28 650.41 49.55 654.23 49.55H664.84C669.21 49.55 673.14 50.39 676.63 52.07C680.12 53.75 683.07 55.94 685.49 58.65C687.91 61.35 689.77 64.39 691.07 67.74C692.37 71.1 693.02 74.46 693.02 77.81C693.02 81.64 692.3 85.25 690.86 88.65C689.42 92.06 687.44 95.06 684.93 97.68C682.42 100.29 679.44 102.35 676 103.84C672.56 105.33 668.83 106.08 664.83 106.08H654.22V99.1H664.83C667.71 99.01 670.43 98.45 673 97.43C675.56 96.41 677.82 94.97 679.77 93.1C681.72 91.24 683.26 89.03 684.38 86.47C685.5 83.91 686.05 81.05 686.05 77.89C686.05 74.73 685.42 71.7 684.17 69.1C682.91 66.5 681.29 64.28 679.29 62.47C677.29 60.66 675.01 59.26 672.45 58.28C669.89 57.3 667.36 56.81 664.84 56.81H654.23C652.09 56.72 649.67 56.62 646.97 56.53C644.27 56.44 641.48 56.14 638.59 55.62C635.7 55.11 632.89 54.29 630.14 53.17C627.39 52.05 624.95 50.44 622.81 48.34C620.67 46.24 618.92 43.61 617.58 40.43C616.23 37.26 615.56 33.29 615.56 28.54C615.56 22.94 616.72 18.3 619.05 14.62C621.38 10.94 624.38 8.04003 628.05 5.95003C631.72 3.85003 635.87 2.38003 640.47 1.54003C645.07 0.700029 649.66 0.280029 654.22 0.280029H693.03V7.54003H693.04Z" fill="#0F1216"/>
<path d="M518.57 123.48C522.06 123.48 525.37 124.15 528.49 125.5C531.61 126.84 534.35 128.68 536.7 131C539.05 133.32 540.9 136.05 542.24 139.17C543.58 142.3 544.26 145.64 544.26 149.21C544.26 152.78 543.55 156.22 542.14 159.35C540.73 162.48 538.85 165.29 536.5 167.77L500.53 200.66H493.07L533.07 163.89C535.02 162.08 536.53 159.89 537.61 157.34C538.68 154.79 539.22 152.1 539.22 149.28C539.22 146.46 538.67 143.81 537.56 141.32C536.45 138.84 534.97 136.65 533.13 134.77C531.28 132.89 529.1 131.41 526.58 130.34C524.06 129.27 521.39 128.73 518.57 128.73C515.75 128.73 513.1 129.27 510.61 130.34C508.13 131.42 505.94 132.89 504.06 134.77C502.18 136.65 500.7 138.83 499.63 141.32C498.55 143.81 498.02 146.46 498.02 149.28H492.88C492.88 145.72 493.55 142.38 494.89 139.26C496.23 136.14 498.08 133.41 500.43 131.09C502.78 128.77 505.5 126.92 508.59 125.55C511.68 124.18 515 123.5 518.56 123.5L518.57 123.48Z" fill="#B455FF"/>
<path d="M592.92 200.75C589.36 200.75 586.04 200.08 582.95 198.73C579.86 197.38 577.14 195.54 574.79 193.18C572.44 190.83 570.59 188.09 569.25 184.96C567.91 181.83 567.23 178.49 567.23 174.92V149.19C567.23 145.63 567.9 142.28 569.25 139.15C570.59 136.02 572.44 133.3 574.79 130.98C577.14 128.66 579.86 126.83 582.95 125.48C586.04 124.14 589.36 123.46 592.92 123.46C596.48 123.46 599.82 124.14 602.94 125.51C606.06 126.88 608.8 128.73 611.15 131.05C613.5 133.38 615.35 136.1 616.69 139.22C618.03 142.34 618.7 145.69 618.7 149.24V174.93H613.56V149.24C613.56 146.42 613.02 143.77 611.95 141.28C610.88 138.8 609.4 136.61 607.52 134.73C605.64 132.85 603.44 131.37 600.92 130.3C598.4 129.23 595.73 128.69 592.91 128.69C590.09 128.69 587.44 129.23 584.95 130.3C582.46 131.37 580.28 132.85 578.4 134.73C576.52 136.61 575.04 138.79 573.97 141.27C572.9 143.75 572.36 146.4 572.36 149.22V174.87C572.36 177.69 572.9 180.35 573.97 182.87C575.04 185.39 576.52 187.58 578.4 189.46C580.28 191.34 582.46 192.81 584.95 193.89C587.43 194.96 590.09 195.5 592.91 195.5V200.74L592.92 200.75Z" fill="#B455FF"/>
<path d="M667.07 123.48C670.56 123.48 673.87 124.15 676.99 125.5C680.11 126.84 682.85 128.68 685.2 131C687.55 133.32 689.4 136.05 690.74 139.17C692.08 142.3 692.76 145.64 692.76 149.21C692.76 152.78 692.05 156.22 690.64 159.35C689.23 162.48 687.35 165.29 685 167.77L649.03 200.66H641.57L681.57 163.89C683.52 162.08 685.03 159.89 686.11 157.34C687.18 154.79 687.72 152.1 687.72 149.28C687.72 146.46 687.17 143.81 686.06 141.32C684.95 138.84 683.47 136.65 681.63 134.77C679.78 132.89 677.6 131.41 675.08 130.34C672.56 129.27 669.89 128.73 667.07 128.73C664.25 128.73 661.6 129.27 659.11 130.34C656.63 131.42 654.44 132.89 652.56 134.77C650.68 136.65 649.2 138.83 648.13 141.32C647.05 143.81 646.52 146.46 646.52 149.28H641.38C641.38 145.72 642.05 142.38 643.39 139.26C644.73 136.14 646.58 133.41 648.93 131.09C651.28 128.77 654 126.92 657.09 125.55C660.18 124.18 663.5 123.5 667.06 123.5L667.07 123.48Z" fill="#B455FF"/>
<path d="M728.22 169.72H770.94V200.65H765.6V174.96H715.83L767.24 123.58L770.94 127.1L728.22 169.72Z" fill="#B455FF"/>
</g>
<defs>
<clipPath id="clip0_190_9784">
<rect width="770.94" height="200.75" fill="white"/>
</clipPath>
</defs>
</svg>
