<svg width="71" height="70" viewBox="0 0 71 70" fill="none" xmlns="http://www.w3.org/2000/svg">
<path d="M5.16887 52.477C5.48636 53.027 5.94685 53.4818 6.50195 53.7935L33.7731 69.4633L33.774 69.4625C34.3234 69.7836 34.9491 69.953 35.5863 69.953C36.2235 69.953 36.8492 69.7836 37.3986 69.4625L64.6707 53.7927C65.2247 53.4799 65.6847 53.0255 66.0032 52.4765C66.3216 51.9275 66.487 51.3038 66.4821 50.6699V19.3303L66.4813 19.3295C66.4861 18.6954 66.3206 18.0715 66.002 17.5224C65.6834 16.9732 65.2232 16.5187 64.669 16.2059L37.397 0.536122V0.535256C36.848 0.214075 36.2227 0.0447235 35.5859 0.0447235C34.9491 0.0447235 34.3238 0.214075 33.7748 0.535256V0.536122L6.50366 16.2059C5.94917 16.5185 5.48871 16.9729 5.16992 17.5221C4.85113 18.0713 4.6856 18.6953 4.69046 19.3295L4.68962 19.3303V50.6699C4.68348 51.304 4.84871 51.9282 5.168 52.477" fill="#009639"/>
<path d="M26.8543 46.93C26.8543 47.8558 26.4848 48.7436 25.827 49.3982C25.1693 50.0528 24.2772 50.4205 23.3471 50.4205C22.4169 50.4205 21.5248 50.0528 20.8671 49.3982C20.2094 48.7436 19.8398 47.8558 19.8398 46.93L19.8407 46.9309L19.8441 22.9704C19.8753 22.4851 20.0039 22.011 20.2223 21.5761C20.4407 21.1411 20.7445 20.7541 21.1158 20.438C21.487 20.1218 21.9181 19.883 22.3837 19.7354C22.8492 19.5879 23.3398 19.5347 23.8263 19.5791C24.7305 19.5675 25.6264 19.7518 26.4519 20.1192C27.2774 20.4865 28.0128 21.0281 28.607 21.7064L29.6669 22.9687L44.3188 40.4193V23.0679H44.3171C44.3171 22.6095 44.4079 22.1556 44.5841 21.7321C44.7604 21.3086 45.0187 20.9239 45.3444 20.5997C45.6701 20.2756 46.0567 20.0185 46.4822 19.8431C46.9077 19.6677 47.3638 19.5774 47.8244 19.5774C48.2849 19.5774 48.741 19.6677 49.1665 19.8431C49.592 20.0185 49.9787 20.2756 50.3043 20.5997C50.63 20.9239 50.8883 21.3086 51.0646 21.7321C51.2409 22.1556 51.3316 22.6095 51.3316 23.0679H51.3307L51.3273 47.0266C51.296 47.5118 51.1674 47.9859 50.949 48.4208C50.7305 48.8557 50.4267 49.2427 50.0555 49.5588C49.6843 49.875 49.2532 50.1139 48.7877 50.2614C48.3221 50.409 47.8316 50.4622 47.3451 50.4179C46.4409 50.4297 45.5449 50.2455 44.7193 49.8782C43.8938 49.5109 43.1585 48.9691 42.5644 48.2906L26.8526 29.5777V46.9309L26.8543 46.93Z" fill="white"/>
</svg>
