<svg width="30" height="30" viewBox="0 0 30 30" fill="none" xmlns="http://www.w3.org/2000/svg">
<g clip-path="url(#clip0_65_54107)">
<path d="M2.52248 0H0.810811C0.363012 0 0 0.363012 0 0.810811V29.1888C0 29.6366 0.363012 29.9996 0.810811 29.9996H2.52248C2.97028 29.9996 3.33329 29.6366 3.33329 29.1888V0.810811C3.33329 0.363012 2.97028 0 2.52248 0Z" fill="#FFB200"/>
<path d="M0 26.6665H3.33329V29.1889C3.33329 29.6367 2.97028 29.9997 2.52248 29.9997H0.810811C0.363012 29.9997 0 29.6367 0 29.1889V26.6665Z" fill="#FF0000"/>
<path d="M9.18947 0H7.4778C7.03 0 6.66699 0.363012 6.66699 0.810811V29.1888C6.66699 29.6366 7.03 29.9996 7.4778 29.9996H9.18947C9.63727 29.9996 10.0003 29.6366 10.0003 29.1888V0.810811C10.0003 0.363012 9.63727 0 9.18947 0Z" fill="#FFB200"/>
<path d="M15.8557 0H14.1441C13.6963 0 13.3333 0.363012 13.3333 0.810811V29.1888C13.3333 29.6366 13.6963 29.9996 14.1441 29.9996H15.8557C16.3035 29.9996 16.6665 29.6366 16.6665 29.1888V0.810811C16.6665 0.363012 16.3035 0 15.8557 0Z" fill="#FFB200"/>
<path d="M22.522 0H20.8103C20.3625 0 19.9995 0.363012 19.9995 0.810811V29.1888C19.9995 29.6366 20.3625 29.9996 20.8103 29.9996H22.522C22.9698 29.9996 23.3328 29.6366 23.3328 29.1888V0.810811C23.3328 0.363012 22.9698 0 22.522 0Z" fill="#FFB200"/>
<path d="M29.189 11.6672H27.4773C27.0295 11.6672 26.6665 12.0302 26.6665 12.478V17.523C26.6665 17.9708 27.0295 18.3338 27.4773 18.3338H29.189C29.6368 18.3338 29.9998 17.9708 29.9998 17.523V12.478C29.9998 12.0302 29.6368 11.6672 29.189 11.6672Z" fill="#FFB200"/>
</g>
<defs>
<clipPath id="clip0_65_54107">
<rect width="30" height="30" fill="white"/>
</clipPath>
</defs>
</svg>
