<svg width="30" height="30" viewBox="0 0 30 30" fill="none" xmlns="http://www.w3.org/2000/svg">
<g clip-path="url(#clip0_686_21135)">
<path d="M6.34377 1.68138C5.36702 1.66017 4.45743 1.74147 3.55609 1.90524C3.34754 1.94295 3.32044 1.92056 3.27685 1.71908C3.19202 1.33616 3.10483 0.955593 3.02 0.572669C3.00821 0.520828 3.00703 0.466629 3.00114 0.412431C2.99054 0.322885 3.03178 0.278113 3.12014 0.261618C3.81883 0.137904 4.51516 0.0189031 5.23035 0.0177248C5.68514 0.0177248 6.13994 0.0071208 6.59473 5.14383e-05C7.38415 -0.0105526 8.16531 0.0731015 8.9453 0.189746C10.3933 0.405361 11.773 0.848374 13.0997 1.45752C13.6676 1.71908 14.2179 2.02071 14.7563 2.34001C14.761 2.34237 14.7646 2.34472 14.7693 2.34826C14.9649 2.4814 15.1428 2.48964 15.3584 2.35415C16.2715 1.77799 17.2388 1.30435 18.2592 0.95088C19.3125 0.58563 20.3823 0.279291 21.4958 0.134369C22.1344 0.0507152 22.7706 0.0141902 23.4116 0.0247942C24.1444 0.0353982 24.8785 -0.00230502 25.6113 0.0554281C26.1003 0.0931313 26.5833 0.159112 27.0582 0.282826C27.1336 0.302856 27.163 0.334668 27.156 0.414787C27.1442 0.547927 27.11 0.675175 27.0782 0.802424C26.9957 1.12997 26.9074 1.45516 26.8272 1.78389C26.8001 1.89582 26.7495 1.93823 26.6317 1.91349C25.411 1.65664 24.1727 1.63189 22.9367 1.68963C21.7868 1.74265 20.6592 1.96769 19.5552 2.31055C18.8483 2.5297 18.1567 2.78302 17.4933 3.11293C17.2259 3.24607 16.9561 3.37331 16.6862 3.49938C16.5885 3.54533 16.5849 3.58775 16.6697 3.65373C17.5581 4.3536 18.3299 5.17247 19.0545 6.03257C19.5305 6.59576 19.9334 7.21787 20.3175 7.85057C20.737 8.54219 21.1081 9.25855 21.4145 10.0055C21.8587 11.0907 22.1827 12.2124 22.3971 13.3659C22.555 14.2189 22.6398 15.0755 22.6634 15.9426C22.7023 17.4154 22.5456 18.8635 22.1709 20.2832C21.874 21.4037 21.4816 22.4959 20.955 23.5339C20.3965 24.6344 19.7214 25.6559 18.9296 26.6009C18.2415 27.4233 17.4992 28.1962 16.6521 28.8572C16.1737 29.2295 15.7071 29.6183 15.2005 29.9529C15.111 30.0118 15.0403 30.0189 14.9484 29.9565C14.0128 29.3108 13.1127 28.6192 12.3021 27.8227C11.7082 27.2395 11.1816 26.5973 10.6785 25.9328C10.0257 25.0704 9.47785 24.1466 9.0101 23.1758C8.42688 21.9681 8.01096 20.7003 7.75764 19.3819C7.62568 18.6961 7.53378 18.0045 7.48783 17.3047C7.44306 16.6248 7.4301 15.9462 7.4784 15.2675C7.53731 14.4428 7.66339 13.6286 7.83069 12.818C8.10051 11.5101 8.54588 10.2707 9.13028 9.07357C9.78773 7.72686 10.6313 6.50975 11.621 5.38926C12.1277 4.81664 12.6932 4.30411 13.2847 3.82104C13.6028 3.56065 13.6028 3.5689 13.2223 3.39688C12.8217 3.21543 12.4293 3.01278 12.0275 2.83486C11.2923 2.50732 10.5194 2.29288 9.74413 2.08551C9.13263 1.92174 8.51053 1.82512 7.88371 1.75561C7.35351 1.6967 6.82213 1.65782 6.34848 1.68138H6.34377ZM11.2923 9.89126C11.2817 10.0491 11.3041 10.2047 11.323 10.3602C11.4078 11.0553 11.6576 11.6845 12.0723 12.2477C12.3751 12.6577 12.7074 13.0418 13.0526 13.4153C13.6181 14.0268 14.2273 14.5912 14.8871 15.099C15.0756 15.2439 15.078 15.2345 15.2629 15.0908C16.0853 14.4463 16.8488 13.7405 17.5275 12.9452C17.7938 12.633 18.0695 12.3243 18.2768 11.9685C18.7116 11.2238 18.9308 10.4274 18.84 9.55429C18.767 8.8556 18.5243 8.22407 18.1461 7.64203C17.7549 7.04113 17.273 6.51329 16.7723 6.00429C16.2809 5.50473 15.7389 5.06289 15.1828 4.63755C15.0945 4.57039 15.0249 4.58217 14.946 4.64344C14.4347 5.03815 13.9268 5.43757 13.4662 5.89001C12.9901 6.35658 12.5742 6.87382 12.1736 7.40756C11.6187 8.14749 11.3053 8.964 11.2923 9.89244V9.89126ZM20.9809 16.2007C20.9879 15.7694 20.9632 15.3406 20.9208 14.9117C20.8807 14.5076 20.8536 14.1022 20.7653 13.7064C20.6463 13.1726 20.5685 12.6283 20.3929 12.1075C20.3764 12.0592 20.3929 11.985 20.3222 11.9779C20.2622 11.972 20.2374 12.0356 20.2091 12.0804C20.096 12.263 19.9947 12.4539 19.8698 12.6295C19.1817 13.6027 18.3864 14.4828 17.5381 15.3182C17.2836 15.568 17.002 15.7965 16.7911 16.084C16.235 16.844 15.9145 17.6829 15.9192 18.6467C15.9334 21.2199 15.9239 23.7932 15.9251 26.3664C15.9251 26.6056 15.9263 26.8459 15.9063 27.0851C15.9027 27.1216 15.8933 27.1688 15.9334 27.1923C15.977 27.2183 16.0064 27.1794 16.0335 27.1546C16.202 27.005 16.3787 26.8671 16.539 26.7081C16.8606 26.3864 17.1564 26.0412 17.458 25.7007C18.1696 24.8995 18.7741 24.0194 19.2795 23.0792C20.4318 20.9348 20.9585 18.6278 20.9785 16.2007H20.9809ZM14.1955 19.0626C14.1778 18.7562 14.2226 18.444 14.1802 18.14C14.0506 17.1927 13.65 16.3821 12.956 15.7129C12.2844 15.0649 11.6093 14.4168 11.0319 13.6781C10.6372 13.1738 10.2237 12.6825 9.92205 12.1122C9.89612 12.0639 9.87374 11.9803 9.81011 11.9932C9.75238 12.005 9.75356 12.0887 9.73942 12.144C9.66755 12.4186 9.59332 12.6919 9.52616 12.9676C9.32351 13.8018 9.20215 14.6501 9.15973 15.5043C9.12203 16.2608 9.14206 17.0184 9.22925 17.7748C9.34 18.735 9.51909 19.6764 9.80894 20.599C10.1954 21.8302 10.7539 22.9802 11.4443 24.0665C12.1713 25.2117 13.0373 26.2427 14.067 27.1322C14.0953 27.157 14.1248 27.2006 14.166 27.1806C14.2202 27.1535 14.1955 27.0934 14.1955 27.0474C14.1955 24.3858 14.1955 21.7254 14.1955 19.0638V19.0626Z" fill="url(#paint0_radial_686_21135)"/>
</g>
<defs>
<radialGradient id="paint0_radial_686_21135" cx="0" cy="0" r="1" gradientUnits="userSpaceOnUse" gradientTransform="translate(20.5 9.5) rotate(110.41) scale(22.9401 32.9231)">
<stop stop-color="#2CF6EB"/>
<stop offset="0.630588" stop-color="#6833F8"/>
<stop offset="1" stop-color="#0658F8"/>
</radialGradient>
<clipPath id="clip0_686_21135">
<rect width="30" height="30" fill="white"/>
</clipPath>
</defs>
</svg>
