<svg xmlns="http://www.w3.org/2000/svg" viewBox="0 0 200 200" width="200" height="200">
  <path fill="#361e5b" d="M187.27,52.91c0-.11,.01-.22,.01-.33,0-.31-.03-.61-.08-.91-.26-1.48-1.17-2.79-2.5-3.56-.15-.09-.3-.16-.46-.23L102.58,.68c-1.58-.91-3.52-.91-5.1,0L15.28,48.1c-1.58,.91-2.55,2.59-2.55,4.41l-.04,94.9c0,1.82,.97,3.51,2.55,4.42l82.16,47.49c.78,.45,1.66,.68,2.55,.68h.11c.9,0,1.78-.24,2.55-.68l82.16-47.49c1.58-.91,2.55-2.6,2.55-4.42l-.04-94.5Z"/>
  <polygon fill="#16d6c7" points="100 16 27.25 58 27.25 142 100 184 172.75 142 172.75 58 100 16"/>
  <polygon fill="#027f9e" points="172.75 58 172.75 142 100 184 100 100.01 172.75 58"/>
  <polygon fill="#17a6b2" points="172.75 58 100 100.01 27.25 58 100 16 172.75 58"/>
</svg>