<svg width="30" height="30" viewBox="0 0 30 30" fill="none" xmlns="http://www.w3.org/2000/svg">
<g clip-path="url(#clip0_678_21503)">
<path d="M8.20312 2.82816C3.67188 2.82816 0 2.19503 0 1.41394V16.6891C0 17.4703 3.67188 18.1035 8.20312 18.1035C12.7344 18.1035 16.4062 17.4702 16.4062 16.6891V1.41441C16.4062 2.1955 12.7344 2.82816 8.20312 2.82816Z" fill="#B9CED9"/>
<path d="M0 1.41437V16.6891C0 17.4703 3.67188 18.1034 8.20312 18.1034V2.82812C3.67266 2.82812 0 2.19546 0 1.41437Z" fill="#A1BDCC"/>
<path d="M15.2749 2.13156V17.4062C15.9937 17.1961 16.4063 16.9509 16.4063 16.6892V1.41437C16.4063 1.67609 15.9938 1.92187 15.2749 2.13156Z" fill="#A1BDCC"/>
<path d="M8.20312 2.82875C12.7336 2.82875 16.4062 2.19551 16.4062 1.41437C16.4062 0.633237 12.7336 0 8.20312 0C3.67266 0 0 0.633237 0 1.41437C0 2.19551 3.67266 2.82875 8.20312 2.82875Z" fill="#8AADBF"/>
<path d="M0 11.0312C0 11.8125 3.67188 12.4456 8.20312 12.4456C12.7344 12.4456 16.4062 11.8125 16.4062 11.0312V12.1628C16.4062 12.9441 12.7344 13.5772 8.20312 13.5772C3.67188 13.5772 0 12.9444 0 12.1633V11.0312Z" fill="#789EB2"/>
<path d="M16.4062 5.94019C16.4062 6.72144 12.7344 7.35456 8.20312 7.35456C3.67188 7.35456 0 6.72128 0 5.94019V7.07175C0 7.853 3.67188 8.48597 8.20312 8.48597C12.7344 8.48597 16.4062 7.85284 16.4062 7.07175V5.94019Z" fill="#789EB2"/>
<path d="M28.125 10.3125H12.1875C11.152 10.3125 10.3125 11.152 10.3125 12.1875V28.125C10.3125 29.1605 11.152 30 12.1875 30H28.125C29.1605 30 30 29.1605 30 28.125V12.1875C30 11.152 29.1605 10.3125 28.125 10.3125Z" fill="#F80000"/>
<path d="M14.5764 16.4037H16.3636L17.4336 18.8664L18.4832 16.4037H20.1143L18.2443 20.1133L20.1457 23.9062H18.3689L17.2155 21.3191L16.0625 23.9062H14.4413L16.3843 19.9787L14.5764 16.4037Z" fill="white"/>
<path d="M21.3615 23.9062V16.4037H25.4552V17.5572H22.9304V19.4062H25.2585V20.5597H22.9304V22.752H25.5383V23.9062H21.3615Z" fill="white"/>
</g>
<defs>
<clipPath id="clip0_678_21503">
<rect width="30" height="30" fill="white"/>
</clipPath>
</defs>
</svg>
