<svg width="71" height="71" viewBox="0 0 71 71" fill="none" xmlns="http://www.w3.org/2000/svg">
<path d="M47.6389 2.7561C33.819 2.7561 24.5278 10.7166 24.5278 26.3808V35.9287C25.9538 35.3091 27.4803 34.9532 29.0333 34.8782C30.6099 34.8149 32.1744 35.1778 33.5622 35.9287V26.3808C33.5622 16.2959 39.1415 10.9734 47.5689 10.9734C55.9962 10.9734 61.5756 16.2959 61.5756 26.3808V50.7991H70.6099V26.3808C70.6099 10.7166 61.2721 2.7561 47.5222 2.7561" fill="black"/>
<path d="M28.5195 39.3837C26.86 39.2975 25.2332 39.8677 23.9906 40.9711L15.4932 35.4151C15.7218 34.7315 15.8169 34.0103 15.7734 33.2908C15.778 31.7662 15.3301 30.2744 14.4864 29.0045C13.6427 27.7346 12.4412 26.7435 11.034 26.1569C9.6267 25.5702 8.07701 25.4143 6.58111 25.7089C5.0852 26.0036 3.71035 26.7354 2.63064 27.8119C1.55092 28.8883 0.814893 30.2609 0.515747 31.7559C0.216601 33.2509 0.367791 34.8011 0.950173 36.2101C1.53255 37.6191 2.51994 38.8237 3.7873 39.6712C5.05467 40.5187 6.54502 40.9711 8.06966 40.9711C8.88839 41.0184 9.70833 40.9024 10.4818 40.6299C11.2553 40.3573 11.9669 39.9337 12.5752 39.3837L21.0726 45.2198C20.8623 45.9073 20.7754 46.6265 20.8158 47.3442C20.7729 48.062 20.8599 48.7816 21.0726 49.4685L12.5752 55.328C11.3022 54.2908 9.71167 53.7222 8.06966 53.7173C6.54602 53.7173 5.05659 54.1691 3.78972 55.0156C2.52285 55.862 1.53545 57.0652 0.952379 58.4729C0.369305 59.8805 0.216746 61.4295 0.513995 62.9239C0.811243 64.4182 1.54495 65.7909 2.62233 66.8683C3.69971 67.9457 5.07238 68.6794 6.56675 68.9766C8.06112 69.2739 9.61007 69.1213 11.0177 68.5382C12.4254 67.9552 13.6286 66.9678 14.475 65.7009C15.3215 64.434 15.7734 62.9446 15.7734 61.4209C15.8187 60.7014 15.7236 59.9798 15.4932 59.2966L23.9906 53.4605C25.272 54.496 26.872 55.0568 28.5195 55.0479C29.53 55.0479 30.5307 54.8485 31.464 54.461C32.3974 54.0736 33.2451 53.5058 33.9586 52.7901C34.6721 52.0745 35.2373 51.225 35.6219 50.2905C36.0065 49.356 36.2029 48.3548 36.1998 47.3442C36.2129 45.2771 35.4167 43.2869 33.9814 41.7993C32.5461 40.3116 30.5857 39.4446 28.5195 39.3837" fill="#018BFF"/>
</svg>
