<svg width="30" height="30" viewBox="0 0 30 30" fill="none" xmlns="http://www.w3.org/2000/svg">
<path d="M24.7375 9.80728L26.3802 5.44881C25.6735 4.56707 24.8639 3.77653 23.9517 3.07622C22.5061 1.96629 20.905 1.16457 19.1493 0.67053C18.3192 0.435772 17.4793 0.262914 16.63 0.15278C16.0265 0.0745824 15.419 0.0273347 14.8056 0.0118598C13.7877 -0.0187607 12.7677 0.00988422 11.7459 0.0981238L15.1439 3.96782L13.5706 8.00544C13.973 7.99014 14.3845 8.00231 14.8056 8.04281C16.6685 8.23395 18.3374 8.88949 19.8109 10.009C19.9529 10.1166 20.0892 10.2272 20.2212 10.3415L24.7375 9.80728Z" fill="#5AB552"/>
<path d="M9.26215 3.42868C8.68019 3.67035 8.12243 3.94824 7.58905 4.26251L9.75421 5.09914L9.99242 7.27517C10.0724 7.22379 10.1533 7.17375 10.2351 7.12502C11.3567 6.45566 12.5527 5.99404 13.8236 5.73986L14.4671 4.08718L13.0561 2.48092C11.7538 2.60456 10.4893 2.92063 9.26215 3.42868Z" fill="#5AB552"/>
<path d="M9.21293 5.51434L6.97369 4.6479C6.22844 5.14474 5.53354 5.71747 4.88986 6.3666C3.8104 7.45543 2.95088 8.68897 2.31115 10.0672L4.87883 9.52528L6.44194 11.4346C6.49594 11.3107 6.55291 11.1868 6.61332 11.0635C7.28978 9.67888 8.23506 8.54032 9.44719 7.64771L9.21293 5.51434Z" fill="#5AB552"/>
<path d="M21.7077 19.7184C21.9477 19.3134 22.1466 18.9013 22.3041 18.4821L24.7285 21.4174L28.7961 20.5406C28.564 21.1822 28.2876 21.8102 27.9691 22.4248C27.1322 24.0371 26.0294 25.4368 24.6597 26.6242C23.2686 27.8291 21.6972 28.7085 19.9441 29.2612L19.8394 29.2937L16.8244 26.7444L17.6148 23.2731L17.6739 23.2483C19.4008 22.515 20.7452 21.3379 21.7077 19.7184Z" fill="#5AB552"/>
<path d="M27.5026 7.06856C27.2822 6.69996 27.0488 6.34371 26.8002 6.0003L25.1611 10.3486L20.7719 10.8685C21.7015 11.8528 22.3086 13.0415 22.5934 14.4341C22.8336 15.6085 22.8085 16.7371 22.5173 17.8193L24.9531 20.7666L29.0149 19.893C29.2699 19.0798 29.4576 18.2462 29.5787 17.3905C29.8311 15.6109 29.7812 13.8388 29.4287 12.0752C29.0736 10.2974 28.4316 8.62822 27.5026 7.06856Z" fill="#5AB552"/>
<path d="M2.02779 10.7228L4.65145 10.1698L6.19727 12.0567C5.72414 13.411 5.60562 14.8198 5.84119 16.2825C5.9077 16.698 5.99924 17.1024 6.11481 17.4947L3.3448 16.8627L1.35464 19.2141C1.11593 18.1726 0.997728 17.1078 1.00003 16.0204C1.00365 14.2076 1.33966 12.4578 2.00853 10.7722C2.01479 10.7555 2.02121 10.7389 2.02779 10.7228Z" fill="#5AB552"/>
<path d="M8.09097 21.0399C7.31656 20.1624 6.73034 19.1972 6.33242 18.1444L3.56309 17.512L1.53341 19.9074C1.66742 20.3814 1.82743 20.8502 2.01247 21.3142C2.69172 23.0113 3.66927 24.5137 4.94496 25.8225C5.70554 26.6027 6.53886 27.2769 7.44563 27.8445L7.29681 24.2614L10.0472 22.6879C9.32862 22.2519 8.67638 21.7027 8.09097 21.0399Z" fill="#5AB552"/>
<path d="M10.6464 23.0184C11.2381 23.3126 11.8711 23.5371 12.5444 23.6919C14.0535 24.0418 15.5245 23.9827 16.9572 23.5166L16.1744 26.9632L19.1604 29.4877C17.6667 29.8783 16.1403 30.0454 14.5821 29.9895C12.7637 29.9304 11.0186 29.5455 9.34521 28.833C8.89694 28.6427 8.46396 28.4312 8.04516 28.1987L7.89666 24.5917L10.6464 23.0184Z" fill="#5AB552"/>
</svg>
