<svg width="30" height="30" viewBox="0 0 30 30" fill="none" xmlns="http://www.w3.org/2000/svg">
<g clip-path="url(#clip0_679_21637)">
<path d="M28.8198 21.821C27.2217 22.6569 18.9277 26.0684 17.1411 27.0047C15.3545 27.9411 14.3976 27.9144 13.0003 27.2465C11.6029 26.5785 2.80699 23.0012 1.21295 22.239C0.40978 21.862 0 21.5403 0 21.2391V18.2047C0 18.2047 11.4902 15.7112 13.3445 15.0391C15.1987 14.3671 15.84 14.3507 17.4157 14.9285C18.9913 15.5063 28.4367 17.211 29.9959 17.7765V20.7679C29.9959 21.0793 29.6373 21.3825 28.8198 21.8189V21.821Z" fill="#A32422"/>
<path d="M28.8198 18.801C27.2217 19.6328 18.9277 23.0442 17.1411 23.9642C15.3544 24.8841 14.3976 24.8759 13.0002 24.2101C11.6029 23.5442 2.80696 19.9668 1.21292 19.2107C-0.381125 18.4547 -0.411859 17.9261 1.15145 17.3155C2.71476 16.7049 11.4902 13.2689 13.3445 12.5928C15.1987 11.9166 15.84 11.9023 17.4156 12.4821C18.9912 13.062 27.2503 16.3423 28.8014 16.9139C30.3524 17.4856 30.4241 17.9548 28.8198 18.7846V18.801Z" fill="#DC382C"/>
<path d="M28.8198 16.8791C27.2217 17.713 18.9277 21.1224 17.1411 22.0423C15.3545 22.9623 14.4058 22.9541 13.0085 22.2841C11.6111 21.6141 2.80699 18.0572 1.21295 17.2971C0.40978 16.916 0 16.5964 0 16.2931V13.2689C0 13.2689 11.4902 10.7672 13.3445 10.0952C15.1987 9.42316 15.84 9.40472 17.4157 9.99071C18.9913 10.5767 28.4367 12.265 29.9959 12.8346V15.826C29.9959 16.1374 29.6373 16.4488 28.8198 16.8791Z" fill="#A32422"/>
<path d="M28.8199 13.8446C27.2217 14.6806 18.9278 18.0899 17.1411 19.0099C15.3545 19.9299 14.3977 19.9237 13.0003 19.2558C11.603 18.5878 2.80704 15.0248 1.21299 14.2626C-0.38105 13.5004 -0.409735 12.982 1.15153 12.3715C2.71279 11.7609 11.4903 8.31669 13.3445 7.659C15.1988 7.0013 15.8401 6.96032 17.4157 7.53196C18.9913 8.10361 27.2504 11.4126 28.8014 11.9678C30.3525 12.5231 30.4242 13.0107 28.8199 13.8385V13.8446Z" fill="#DC382C"/>
<path d="M28.8198 11.7507C27.2217 12.5866 18.9277 15.9981 17.1411 16.916C15.3545 17.8339 14.4058 17.8277 13.0085 17.1618C11.6111 16.4959 2.80699 12.9288 1.21295 12.1687C0.40978 11.7917 0 11.47 0 11.1668V8.13234C0 8.13234 11.4902 5.63882 13.3445 4.96883C15.1987 4.29884 15.84 4.27835 17.4157 4.85614C18.9913 5.43393 28.4326 7.13862 29.9918 7.70821V10.6996C29.9959 11.0151 29.6373 11.3225 28.8198 11.7507Z" fill="#A32422"/>
<path d="M28.8198 8.72044C27.2217 9.54 18.9277 12.9719 17.1411 13.8837C15.3544 14.7954 14.3976 14.7934 13.0002 14.1295C11.6029 13.4657 2.80696 9.89446 1.21292 9.13637C-0.381125 8.37828 -0.411859 7.85171 1.15145 7.24114C2.71476 6.63056 11.4902 3.18841 13.3445 2.52047C15.1987 1.85253 15.84 1.83204 17.4156 2.40983C18.9912 2.98762 27.2503 6.272 28.8014 6.8416C30.3524 7.41119 30.4241 7.88449 28.8198 8.71429V8.72044Z" fill="#DC382C"/>
<path d="M15.4692 4.41167L17.4485 3.76217L16.9116 5.04478L18.9257 5.79878L16.3298 6.06923L15.7458 7.47068L14.8074 5.90737L11.8058 5.63691L14.0473 4.82965L13.3732 3.58801L15.4692 4.41167Z" fill="white"/>
<path d="M15.5942 12.5929L10.7424 10.5788L17.6923 9.51135L15.5942 12.5929Z" fill="white"/>
<path d="M8.86758 6.57727C10.9165 6.57727 12.5822 7.22267 12.5822 8.0115C12.5822 8.80033 10.9124 9.44573 8.86758 9.44573C6.82278 9.44573 5.15088 8.80033 5.15088 8.0115C5.15088 7.22267 6.81663 6.57727 8.86758 6.57727Z" fill="white"/>
<path d="M22.0011 6.18188L26.1132 7.80666L22.0052 9.43144L22.0011 6.18188Z" fill="#741113"/>
<path d="M22.001 6.18188L22.0051 9.43144L21.5585 9.6056L17.4484 7.98082L22.001 6.18188Z" fill="#AC2724"/>
</g>
<defs>
<clipPath id="clip0_679_21637">
<rect width="30" height="30" fill="white"/>
</clipPath>
</defs>
</svg>
