<svg width="30" height="30" viewBox="0 0 30 30" fill="none" xmlns="http://www.w3.org/2000/svg">
<g clip-path="url(#clip0_269_12756)">
<path d="M14.9709 27.6632C22.0152 27.6632 27.7257 21.9526 27.7257 14.9083C27.7257 7.86404 22.0152 2.1535 14.9709 2.1535C7.9266 2.1535 2.21606 7.86404 2.21606 14.9083C2.21606 21.9526 7.9266 27.6632 14.9709 27.6632Z" fill="#FCC414"/>
<path d="M14.9613 29.9084C6.71609 29.9084 0.00964355 23.2019 0.00964355 14.9567C0.00964355 6.71158 6.71609 0.00512695 14.9613 0.00512695C23.2064 0.00512695 29.9129 6.71158 29.9129 14.9567C29.9129 23.2019 23.2064 29.9084 14.9613 29.9084ZM14.9613 1.27287C7.41287 1.27287 1.27739 7.41803 1.27739 14.9567C1.27739 22.4954 7.41287 28.6406 14.9613 28.6406C22.5096 28.6406 28.6451 22.5051 28.6451 14.9567C28.6451 7.40835 22.5096 1.27287 14.9613 1.27287Z" fill="black"/>
<path fill-rule="evenodd" clip-rule="evenodd" d="M17.0419 11.318C16.1999 10.9309 15.7257 10.0212 15.8709 9.11157C16.7032 9.49867 17.187 10.4083 17.0419 11.318Z" fill="black"/>
<path fill-rule="evenodd" clip-rule="evenodd" d="M12.1935 19.0116C12.329 19.4568 12.5419 19.8826 12.8322 20.2503H17.1774C17.4677 19.8826 17.6806 19.4568 17.8161 19.0116H12.1935ZM21.3677 14.5406C21.2322 14.6664 21.2226 14.889 21.3484 15.0245L21.3967 15.0729C23.3709 13.389 24.5613 12.0826 23.9709 11.0568C23.3226 10.1471 20.5742 10.5826 17.2064 12.0922C17.3806 11.7535 17.458 11.3761 17.458 10.9987C17.458 10.8632 17.4484 10.7181 17.4193 10.5826C17.3419 10.0987 17.1096 9.63418 16.7419 9.26644C16.5387 9.06321 16.3064 8.89869 16.0645 8.78257L16.0742 8.75353L16.3355 8.19224C16.3742 8.10515 16.3355 7.99869 16.2484 7.95031C16.1613 7.9116 16.0548 7.95031 16.0064 8.0374L15.7258 8.64708C15.2613 8.50192 14.758 8.50192 14.2935 8.64708L14.0129 8.0374C13.9742 7.95031 13.8677 7.9116 13.7709 7.95031C13.6838 7.98902 13.6451 8.09547 13.6838 8.19224L13.9355 8.73418L13.9548 8.77289C13.7032 8.88902 13.4806 9.05353 13.2774 9.25676C12.7838 9.75031 12.5516 10.389 12.5613 11.0374C12.5709 11.3858 12.6484 11.7342 12.8032 12.0535C11.9322 11.6664 7.09352 9.66321 6.12578 11.0277C5.24513 12.2664 7.95481 14.4439 8.68062 15.0632L8.729 15.0148C8.85481 14.8793 8.84513 14.6568 8.70965 14.531C8.35158 14.1922 7.79997 13.6406 7.4032 13.1084C6.89029 12.4019 6.88062 11.9858 7.12255 11.7535C7.89675 11.0277 10.7516 11.9858 11.6322 12.3245C12.4838 12.6535 13.4032 13.0697 14.3419 13.5632C9.81287 16.1858 6.73546 19.3213 7.46126 20.5793C7.9161 21.3632 9.81288 21.2664 12.2419 20.4051L12.1548 20.26C12.0677 20.1245 11.9129 20.0568 11.758 20.1051C10.0742 20.6181 9.01933 20.86 8.65159 20.318C8.14836 19.4374 10.7226 16.4084 14.7193 14.1051L15.0193 13.931C15.1161 13.989 15.2226 14.0471 15.3193 14.1051C19.3161 16.4084 21.8903 19.4374 21.3871 20.318C21.0193 20.86 19.9742 20.6181 18.2806 20.1051C18.1258 20.0568 17.9709 20.1245 17.8838 20.26L17.7967 20.4051C20.2258 21.2664 22.1226 21.3632 22.5774 20.5793C23.3032 19.3213 20.2258 16.1858 15.6967 13.5632C18.8806 11.8793 21.7548 11.1342 22.8096 11.6664C23.7774 12.1503 22.1226 13.8245 21.3677 14.5406V14.5406ZM12.9677 11.3181C12.8226 10.4084 13.3064 9.49869 14.1387 9.1116C14.2838 10.0213 13.8 10.931 12.9677 11.3181ZM17.0419 11.3181C16.2 10.931 15.7258 10.0213 15.8709 9.1116C16.7032 9.49869 17.1871 10.4084 17.0419 11.3181ZM17.7677 16.4858C16.9355 15.8761 16.0064 15.2664 15.0096 14.6858C14.0129 15.2664 13.0838 15.8761 12.2516 16.4858C12.0871 16.96 12.0096 17.4729 12.029 17.9761H17.9903C18.0096 17.4729 17.9322 16.96 17.7677 16.4858V16.4858ZM13.7806 21.2955C14.158 21.6826 14.4484 22.031 15.0096 23.0471C15.5709 22.0406 15.8613 21.6922 16.2387 21.2955H13.7806V21.2955Z" fill="black"/>
<path fill-rule="evenodd" clip-rule="evenodd" d="M17.0419 11.318C16.2 10.9309 15.7258 10.0212 15.8709 9.11157C16.7032 9.49867 17.1871 10.4083 17.0419 11.318ZM12.9677 11.318C12.8226 10.4083 13.3064 9.49867 14.1387 9.11157C14.2838 10.0212 13.8 10.9309 12.9677 11.318ZM8.79675 14.8503C8.79675 14.8503 8.86449 14.6761 8.69997 14.5212C7.94513 13.8148 6.29029 12.1406 7.23868 11.6567C8.29352 11.1245 11.1677 11.889 14.3516 13.5632C12.7451 14.4922 11.6419 15.2664 10.4806 16.2051C9.19352 15.2567 8.96126 15.0535 8.79675 14.8503ZM21.3967 20.3471C21.029 20.889 19.9838 20.6471 18.2903 20.1342C18.2129 20.1148 18.1355 20.1148 18.0677 20.1438C18.5806 19.3987 18.6967 18.0148 18.5129 17.018V16.9987V16.989C18.4548 16.5922 18.3677 16.2825 18.2709 16.1471C20.5161 17.9471 21.7645 19.7083 21.3967 20.3471V20.3471ZM19.6161 16.2245C18.4838 15.2664 17.3226 14.5019 15.7161 13.5729C18.9 11.889 21.7742 11.1438 22.829 11.6761C23.7774 12.16 22.1129 13.8342 21.3677 14.5406C21.2322 14.6664 21.2709 14.7245 21.2709 14.8696C21.1064 15.0729 20.9032 15.2761 19.6161 16.2245ZM11.7967 16.118C11.7 16.2535 11.6129 16.5632 11.5548 16.96V16.989C11.3709 17.9954 11.4871 19.3696 12 20.1148C11.9322 20.0858 11.8548 20.0858 11.7774 20.1051C10.0935 20.618 9.03868 20.86 8.67094 20.318C8.3032 19.689 9.55159 17.9277 11.7967 16.118V16.118Z" fill="white"/>
</g>
<defs>
<clipPath id="clip0_269_12756">
<rect width="30" height="30" fill="white"/>
</clipPath>
</defs>
</svg>
