<svg width="100" height="100" viewBox="0 0 100 100" fill="none" xmlns="http://www.w3.org/2000/svg">
<path d="M99.218 59.9686C94.3797 83.8572 68.4218 98.7596 41.2395 93.2542C14.0572 87.7488 -4.05627 63.9203 0.782035 40.0318C5.62034 16.1432 31.5782 1.24077 58.7605 6.74618C85.9429 12.2516 104.056 36.0801 99.218 59.9686Z" fill="#F2F4FE"/>
<g clip-path="url(#clip0_1885_167224)">
<path fill-rule="evenodd" clip-rule="evenodd" d="M45.6812 34.0791C45.2624 34.0795 44.8478 34.1624 44.461 34.323C44.0742 34.4837 43.7229 34.7189 43.4271 35.0154C43.1312 35.3118 42.8967 35.6636 42.7368 36.0507C42.577 36.4378 42.4949 36.8526 42.4954 37.2714C42.495 37.6901 42.5771 38.1049 42.737 38.4919C42.8969 38.8789 43.1314 39.2307 43.4273 39.527C43.7231 39.8234 44.0744 40.0586 44.4611 40.2192C44.8479 40.3798 45.2624 40.4627 45.6812 40.4631H48.867V37.2714C48.8674 36.8526 48.7854 36.4378 48.6255 36.0507C48.4657 35.6636 48.2311 35.3118 47.9353 35.0154C47.6395 34.7189 47.2881 34.4837 46.9014 34.323C46.5146 34.1624 46.1 34.0795 45.6812 34.0791M45.6812 42.5917H37.1858C36.767 42.5921 36.3525 42.6749 35.9657 42.8356C35.579 42.9962 35.2277 43.2314 34.9319 43.5277C34.636 43.8241 34.4015 44.1759 34.2416 44.5629C34.0817 44.9499 33.9996 45.3646 34 45.7834C33.9995 46.2022 34.0816 46.617 34.2414 47.0041C34.4013 47.3912 34.6358 47.743 34.9317 48.0394C35.2275 48.3359 35.5788 48.5711 35.9656 48.7318C36.3524 48.8924 36.767 48.9753 37.1858 48.9757H45.6812C46.1 48.9753 46.5146 48.8924 46.9014 48.7318C47.2881 48.5711 47.6395 48.3359 47.9353 48.0394C48.2311 47.743 48.4657 47.3912 48.6255 47.0041C48.7854 46.617 48.8674 46.2022 48.867 45.7834C48.8674 45.3646 48.7853 44.9499 48.6254 44.5629C48.4655 44.1759 48.2309 43.8241 47.9351 43.5277C47.6393 43.2314 47.288 42.9962 46.9012 42.8356C46.5145 42.6749 46.0999 42.5921 45.6812 42.5917" fill="#36C5F0"/>
<path fill-rule="evenodd" clip-rule="evenodd" d="M65.8578 45.7834C65.8582 45.3646 65.7761 44.9499 65.6162 44.5629C65.4563 44.1759 65.2217 43.8241 64.9259 43.5277C64.6301 43.2314 64.2788 42.9962 63.8921 42.8356C63.5053 42.6749 63.0908 42.5921 62.672 42.5917C62.2532 42.5921 61.8387 42.6749 61.4519 42.8356C61.0652 42.9962 60.7139 43.2314 60.4181 43.5277C60.1223 43.8241 59.8877 44.1759 59.7278 44.5629C59.5679 44.9499 59.4858 45.3646 59.4862 45.7834V48.9757H62.672C63.0908 48.9753 63.5054 48.8924 63.8922 48.7318C64.279 48.5711 64.6303 48.3359 64.9261 48.0394C65.222 47.743 65.4565 47.3912 65.6164 47.0041C65.7762 46.617 65.8582 46.2022 65.8578 45.7834ZM57.3624 45.7834V37.2714C57.3628 36.8526 57.2808 36.4378 57.1209 36.0507C56.9611 35.6636 56.7266 35.3118 56.4307 35.0154C56.1349 34.7189 55.7835 34.4837 55.3968 34.323C55.01 34.1624 54.5954 34.0795 54.1766 34.0791C53.7578 34.0795 53.3432 34.1624 52.9564 34.323C52.5696 34.4837 52.2183 34.7189 51.9225 35.0154C51.6266 35.3118 51.3921 35.6636 51.2322 36.0507C51.0724 36.4378 50.9903 36.8526 50.9908 37.2714V45.7834C50.9903 46.2022 51.0724 46.617 51.2322 47.0041C51.3921 47.3912 51.6266 47.743 51.9225 48.0394C52.2183 48.3359 52.5696 48.5711 52.9564 48.7318C53.3432 48.8924 53.7578 48.9753 54.1766 48.9757C54.5954 48.9753 55.01 48.8924 55.3968 48.7318C55.7835 48.5711 56.1349 48.3359 56.4307 48.0394C56.7266 47.743 56.9611 47.3912 57.1209 47.0041C57.2808 46.617 57.3628 46.2022 57.3624 45.7834" fill="#2EB67D"/>
<path fill-rule="evenodd" clip-rule="evenodd" d="M54.1766 66.0001C54.5954 65.9997 55.01 65.9168 55.3968 65.7562C55.7835 65.5955 56.1349 65.3603 56.4307 65.0638C56.7266 64.7674 56.9611 64.4156 57.1209 64.0285C57.2808 63.6414 57.3628 63.2266 57.3624 62.8078C57.3628 62.3891 57.2807 61.9743 57.1208 61.5873C56.9609 61.2003 56.7263 60.8485 56.4305 60.5522C56.1347 60.2558 55.7834 60.0206 55.3966 59.86C55.0099 59.6994 54.5953 59.6165 54.1766 59.6161H50.9908V62.8078C50.9903 63.2266 51.0724 63.6414 51.2322 64.0285C51.3921 64.4156 51.6266 64.7674 51.9225 65.0638C52.2183 65.3603 52.5696 65.5955 52.9564 65.7562C53.3432 65.9168 53.7578 65.9997 54.1766 66.0001ZM54.1766 57.4875H62.672C63.0908 57.4871 63.5053 57.4043 63.8921 57.2437C64.2788 57.083 64.6301 56.8478 64.9259 56.5515C65.2217 56.2551 65.4563 55.9033 65.6162 55.5163C65.7761 55.1293 65.8582 54.7146 65.8578 54.2958C65.8582 53.877 65.7762 53.4622 65.6164 53.0751C65.4565 52.688 65.222 52.3362 64.9261 52.0398C64.6303 51.7433 64.279 51.5081 63.8922 51.3474C63.5054 51.1868 63.0908 51.1039 62.672 51.1035H54.1766C53.7578 51.1039 53.3432 51.1868 52.9564 51.3474C52.5696 51.5081 52.2183 51.7433 51.9225 52.0398C51.6266 52.3362 51.3921 52.688 51.2322 53.0751C51.0724 53.4622 50.9903 53.877 50.9908 54.2958C50.9904 54.7146 51.0725 55.1293 51.2324 55.5163C51.3923 55.9033 51.6269 56.2551 51.9227 56.5515C52.2185 56.8478 52.5698 57.083 52.9565 57.2437C53.3433 57.4043 53.7578 57.4871 54.1766 57.4875" fill="#ECB22E"/>
<path fill-rule="evenodd" clip-rule="evenodd" d="M34 54.2958C33.9996 54.7146 34.0817 55.1293 34.2416 55.5163C34.4015 55.9033 34.636 56.2551 34.9319 56.5515C35.2277 56.8478 35.579 57.083 35.9657 57.2437C36.3525 57.4043 36.767 57.4871 37.1858 57.4875C37.6045 57.4871 38.0191 57.4043 38.4058 57.2437C38.7926 57.083 39.1439 56.8478 39.4397 56.5515C39.7355 56.2551 39.9701 55.9033 40.13 55.5163C40.2899 55.1293 40.3719 54.7146 40.3716 54.2958V51.1035H37.1858C36.7669 51.1039 36.3523 51.1868 35.9655 51.3475C35.5786 51.5082 35.2273 51.7435 34.9314 52.04C34.6356 52.3365 34.4011 52.6884 34.2413 53.0755C34.0814 53.4627 33.9995 53.8776 34 54.2964M42.4954 54.2958V62.8078C42.4949 63.2266 42.577 63.6414 42.7368 64.0285C42.8967 64.4156 43.1312 64.7674 43.4271 65.0638C43.7229 65.3603 44.0742 65.5955 44.461 65.7562C44.8478 65.9168 45.2624 65.9997 45.6812 66.0001C46.1 65.9997 46.5146 65.9168 46.9014 65.7562C47.2881 65.5955 47.6395 65.3603 47.9353 65.0638C48.2311 64.7674 48.4657 64.4156 48.6255 64.0285C48.7854 63.6414 48.8674 63.2266 48.867 62.8078V54.2964C48.8674 53.8776 48.7854 53.4628 48.6255 53.0757C48.4657 52.6886 48.2311 52.3368 47.9353 52.0404C47.6395 51.7439 47.2881 51.5087 46.9014 51.348C46.5146 51.1874 46.1 51.1045 45.6812 51.1041C45.2624 51.1045 44.8478 51.1874 44.461 51.348C44.0742 51.5087 43.7229 51.7439 43.4271 52.0404C43.1312 52.3368 42.8967 52.6886 42.7368 53.0757C42.577 53.4628 42.4949 53.8776 42.4954 54.2964" fill="#E01E5A"/>
</g>
<defs>
<clipPath id="clip0_1885_167224">
<rect width="32" height="32" fill="white" transform="translate(34 34)"/>
</clipPath>
</defs>
</svg>
