<svg width="268" height="36" viewBox="0 0 268 36" fill="none" xmlns="http://www.w3.org/2000/svg">
<path d="M15.6183 22.5158C18.221 15.3574 20.8237 8.199 23.4375 1.01108H30.8543C33.4496 8.13993 36.0634 15.3242 38.6809 22.5047C38.7474 22.5047 38.8175 22.5084 38.884 22.5121C39.8291 20.1678 40.6339 17.7681 41.5051 15.3943C42.3838 13.0057 43.2403 10.6134 44.1115 8.22115C44.9791 5.83256 45.8541 3.44766 46.7401 1.02215H54.168C57.9115 11.3186 61.6549 21.6224 65.428 32H58.7052C56.0065 24.9634 53.2893 17.8826 50.5722 10.8017C50.5057 10.7943 50.4393 10.7906 50.3728 10.7833C49.6382 12.5036 49.0179 14.2683 48.3386 16.0108C47.6483 17.7829 46.969 19.555 46.2897 21.3307C45.6067 23.1065 44.9311 24.8785 44.2518 26.6543C43.5725 28.4263 42.8932 30.1984 42.2066 31.9963H35.4063C32.6891 24.9191 29.9757 17.8383 27.2585 10.7611C27.1883 10.7611 27.1219 10.7648 27.0517 10.7685C24.342 17.8309 21.6359 24.8896 18.9113 31.9926H12.1037C8.14976 21.6999 4.19216 11.3776 0.212402 1H7.54431C10.1839 8.1547 12.7497 15.35 15.3894 22.5158H15.6183Z" fill="#FF164C"/>
<path d="M70.5151 1.2251C80.9038 5.20485 91.1743 9.14031 101.486 13.0905V19.9167C91.2186 23.8521 80.9222 27.7949 70.6184 31.7452C70.4191 31.0105 70.3711 25.7349 70.5372 24.4391C77.6882 21.8364 84.8798 19.2226 92.0714 16.6051C92.0714 16.5387 92.0714 16.4722 92.0714 16.4021C84.902 13.7957 77.7325 11.1893 70.5151 8.56439V1.2251Z" fill="#FF164C"/>
<path d="M263.724 32V29.84H258.668V28.048L263.116 20.832H265.724V28.208H267.18V29.84H265.724V32H263.724ZM260.396 28.208H263.724V22.88H263.596L260.396 28.208Z" fill="black"/>
<path d="M257.299 32H249.555V30.048L253.059 26.976C253.656 26.4533 254.093 25.984 254.371 25.568C254.648 25.1413 254.787 24.6827 254.787 24.192V23.984C254.787 23.4933 254.627 23.12 254.307 22.864C253.987 22.5973 253.597 22.464 253.139 22.464C252.563 22.464 252.125 22.6293 251.827 22.96C251.528 23.28 251.315 23.6693 251.187 24.128L249.363 23.424C249.48 23.0507 249.645 22.6987 249.859 22.368C250.072 22.0267 250.339 21.728 250.659 21.472C250.989 21.216 251.373 21.0133 251.811 20.864C252.248 20.7147 252.749 20.64 253.315 20.64C253.901 20.64 254.424 20.7253 254.883 20.896C255.341 21.056 255.725 21.2853 256.035 21.584C256.355 21.8827 256.595 22.2347 256.755 22.64C256.925 23.0453 257.011 23.488 257.011 23.968C257.011 24.4373 256.936 24.864 256.787 25.248C256.637 25.632 256.435 26 256.179 26.352C255.923 26.6933 255.624 27.024 255.283 27.344C254.941 27.6533 254.579 27.968 254.195 28.288L251.843 30.224H257.299V32Z" fill="black"/>
<path d="M243.769 32.192C243.054 32.192 242.435 32.064 241.913 31.808C241.39 31.5413 240.958 31.1627 240.617 30.672C240.275 30.1813 240.019 29.5787 239.849 28.864C239.689 28.1493 239.609 27.3333 239.609 26.416C239.609 25.5093 239.689 24.6987 239.849 23.984C240.019 23.2587 240.275 22.6507 240.617 22.16C240.958 21.6693 241.39 21.296 241.913 21.04C242.435 20.7733 243.054 20.64 243.769 20.64C245.187 20.64 246.233 21.1467 246.905 22.16C247.587 23.1733 247.929 24.592 247.929 26.416C247.929 28.24 247.587 29.6587 246.905 30.672C246.233 31.6853 245.187 32.192 243.769 32.192ZM243.769 30.416C244.483 30.416 244.979 30.1493 245.257 29.616C245.545 29.072 245.689 28.3413 245.689 27.424V25.408C245.689 24.4907 245.545 23.7653 245.257 23.232C244.979 22.688 244.483 22.416 243.769 22.416C243.054 22.416 242.553 22.688 242.265 23.232C241.987 23.7653 241.849 24.4907 241.849 25.408V27.424C241.849 28.3413 241.987 29.072 242.265 29.616C242.553 30.1493 243.054 30.416 243.769 30.416Z" fill="black"/>
<path d="M238.111 32H230.367V30.048L233.871 26.976C234.468 26.4533 234.906 25.984 235.183 25.568C235.46 25.1413 235.599 24.6827 235.599 24.192V23.984C235.599 23.4933 235.439 23.12 235.119 22.864C234.799 22.5973 234.41 22.464 233.951 22.464C233.375 22.464 232.938 22.6293 232.639 22.96C232.34 23.28 232.127 23.6693 231.999 24.128L230.175 23.424C230.292 23.0507 230.458 22.6987 230.671 22.368C230.884 22.0267 231.151 21.728 231.471 21.472C231.802 21.216 232.186 21.0133 232.623 20.864C233.06 20.7147 233.562 20.64 234.127 20.64C234.714 20.64 235.236 20.7253 235.695 20.896C236.154 21.056 236.538 21.2853 236.847 21.584C237.167 21.8827 237.407 22.2347 237.567 22.64C237.738 23.0453 237.823 23.488 237.823 23.968C237.823 24.4373 237.748 24.864 237.599 25.248C237.45 25.632 237.247 26 236.991 26.352C236.735 26.6933 236.436 27.024 236.095 27.344C235.754 27.6533 235.391 27.968 235.007 28.288L232.655 30.224H238.111V32Z" fill="black"/>
<path d="M221.529 32.1921C220.729 32.1921 220.057 32.0587 219.513 31.7921C218.969 31.5147 218.489 31.1361 218.073 30.6561L219.321 29.4401C219.631 29.7921 219.967 30.0694 220.329 30.2721C220.703 30.4747 221.129 30.5761 221.609 30.5761C222.1 30.5761 222.452 30.4907 222.665 30.3201C222.889 30.1494 223.001 29.9147 223.001 29.6161C223.001 29.3707 222.921 29.1787 222.761 29.0401C222.612 28.8907 222.351 28.7894 221.977 28.7361L221.145 28.6241C220.239 28.5067 219.545 28.2507 219.065 27.8561C218.596 27.4507 218.361 26.8641 218.361 26.0961C218.361 25.6907 218.436 25.3281 218.585 25.0081C218.735 24.6774 218.948 24.4001 219.225 24.1761C219.503 23.9414 219.833 23.7654 220.217 23.6481C220.612 23.5201 221.049 23.4561 221.529 23.4561C221.935 23.4561 222.292 23.4881 222.601 23.5521C222.921 23.6054 223.209 23.6907 223.465 23.8081C223.721 23.9147 223.956 24.0534 224.169 24.2241C224.383 24.3841 224.591 24.5654 224.793 24.7681L223.593 25.9681C223.348 25.7121 223.055 25.4987 222.713 25.3281C222.372 25.1574 221.999 25.0721 221.593 25.0721C221.145 25.0721 220.82 25.1521 220.617 25.3121C220.425 25.4721 220.329 25.6801 220.329 25.9361C220.329 26.2134 220.409 26.4267 220.569 26.5761C220.74 26.7147 221.023 26.8161 221.417 26.8801L222.265 26.9921C224.068 27.2481 224.969 28.0694 224.969 29.4561C224.969 29.8614 224.884 30.2347 224.713 30.5761C224.553 30.9067 224.324 31.1947 224.025 31.4401C223.727 31.6747 223.364 31.8614 222.937 32.0001C222.521 32.1281 222.052 32.1921 221.529 32.1921Z" fill="black"/>
<path d="M213.654 32.1921C212.854 32.1921 212.182 32.0587 211.638 31.7921C211.094 31.5147 210.614 31.1361 210.198 30.6561L211.446 29.4401C211.756 29.7921 212.092 30.0694 212.454 30.2721C212.828 30.4747 213.254 30.5761 213.734 30.5761C214.225 30.5761 214.577 30.4907 214.79 30.3201C215.014 30.1494 215.126 29.9147 215.126 29.6161C215.126 29.3707 215.046 29.1787 214.886 29.0401C214.737 28.8907 214.476 28.7894 214.102 28.7361L213.27 28.6241C212.364 28.5067 211.67 28.2507 211.19 27.8561C210.721 27.4507 210.486 26.8641 210.486 26.0961C210.486 25.6907 210.561 25.3281 210.71 25.0081C210.86 24.6774 211.073 24.4001 211.35 24.1761C211.628 23.9414 211.958 23.7654 212.342 23.6481C212.737 23.5201 213.174 23.4561 213.654 23.4561C214.06 23.4561 214.417 23.4881 214.726 23.5521C215.046 23.6054 215.334 23.6907 215.59 23.8081C215.846 23.9147 216.081 24.0534 216.294 24.2241C216.508 24.3841 216.716 24.5654 216.918 24.7681L215.718 25.9681C215.473 25.7121 215.18 25.4987 214.838 25.3281C214.497 25.1574 214.124 25.0721 213.718 25.0721C213.27 25.0721 212.945 25.1521 212.742 25.3121C212.55 25.4721 212.454 25.6801 212.454 25.9361C212.454 26.2134 212.534 26.4267 212.694 26.5761C212.865 26.7147 213.148 26.8161 213.542 26.8801L214.39 26.9921C216.193 27.2481 217.094 28.0694 217.094 29.4561C217.094 29.8614 217.009 30.2347 216.838 30.5761C216.678 30.9067 216.449 31.1947 216.15 31.4401C215.852 31.6747 215.489 31.8614 215.062 32.0001C214.646 32.1281 214.177 32.1921 213.654 32.1921Z" fill="black"/>
<path d="M205.373 32.1921C204.754 32.1921 204.199 32.0907 203.709 31.8881C203.229 31.6747 202.818 31.3814 202.477 31.0081C202.146 30.6241 201.89 30.1654 201.709 29.6321C201.527 29.0881 201.437 28.4801 201.437 27.8081C201.437 27.1467 201.522 26.5494 201.693 26.0161C201.874 25.4827 202.13 25.0294 202.461 24.6561C202.791 24.2721 203.197 23.9787 203.677 23.7761C204.157 23.5627 204.701 23.4561 205.309 23.4561C205.959 23.4561 206.525 23.5681 207.005 23.7921C207.485 24.0161 207.879 24.3201 208.189 24.7041C208.498 25.0881 208.727 25.5361 208.877 26.0481C209.037 26.5494 209.117 27.0881 209.117 27.6641V28.3361H203.565V28.5441C203.565 29.1521 203.735 29.6427 204.077 30.0161C204.418 30.3787 204.925 30.5601 205.597 30.5601C206.109 30.5601 206.525 30.4534 206.845 30.2401C207.175 30.0267 207.469 29.7547 207.725 29.4241L208.829 30.6561C208.487 31.1361 208.018 31.5147 207.421 31.7921C206.834 32.0587 206.151 32.1921 205.373 32.1921ZM205.341 24.9921C204.797 24.9921 204.365 25.1734 204.045 25.5361C203.725 25.8987 203.565 26.3681 203.565 26.9441V27.0721H206.989V26.9281C206.989 26.3521 206.845 25.8881 206.557 25.5361C206.279 25.1734 205.874 24.9921 205.341 24.9921Z" fill="black"/>
<path d="M195.793 32V23.6479H197.841V25.3759H197.921C197.975 25.1519 198.055 24.9386 198.161 24.736C198.279 24.5226 198.428 24.3359 198.609 24.1759C198.791 24.0159 199.004 23.888 199.249 23.792C199.505 23.696 199.799 23.6479 200.129 23.6479H200.577V25.584H199.937C199.244 25.584 198.721 25.6853 198.369 25.888C198.017 26.0906 197.841 26.4213 197.841 26.8799V32H195.793Z" fill="black"/>
<path d="M194.611 32.704C194.611 33.1414 194.531 33.5254 194.371 33.856C194.222 34.1974 193.971 34.48 193.619 34.704C193.267 34.928 192.814 35.0987 192.259 35.216C191.704 35.3334 191.027 35.392 190.227 35.392C189.523 35.392 188.926 35.344 188.435 35.248C187.944 35.1627 187.539 35.0347 187.219 34.864C186.91 34.704 186.686 34.5014 186.547 34.256C186.408 34.0107 186.339 33.7334 186.339 33.424C186.339 32.9547 186.467 32.5867 186.723 32.32C186.99 32.064 187.358 31.8987 187.827 31.824V31.648C187.486 31.5627 187.219 31.3974 187.027 31.152C186.846 30.896 186.755 30.5974 186.755 30.256C186.755 30.0427 186.798 29.856 186.883 29.696C186.968 29.5254 187.08 29.3814 187.219 29.264C187.368 29.1467 187.534 29.0507 187.715 28.976C187.896 28.8907 188.088 28.8267 188.291 28.784V28.72C187.779 28.4854 187.395 28.16 187.139 27.744C186.894 27.328 186.771 26.8427 186.771 26.288C186.771 25.4347 187.064 24.752 187.651 24.24C188.238 23.7174 189.096 23.456 190.227 23.456C190.483 23.456 190.734 23.472 190.979 23.504C191.235 23.536 191.47 23.5894 191.683 23.664V23.392C191.683 22.5814 192.078 22.176 192.867 22.176H194.163V23.744H192.387V23.968C192.824 24.2134 193.15 24.5334 193.363 24.928C193.576 25.3227 193.683 25.776 193.683 26.288C193.683 27.1307 193.39 27.808 192.803 28.32C192.227 28.832 191.368 29.088 190.227 29.088C189.736 29.088 189.31 29.04 188.947 28.944C188.787 29.0187 188.648 29.12 188.531 29.248C188.414 29.3654 188.355 29.5147 188.355 29.696C188.355 30.112 188.718 30.32 189.443 30.32H191.683C192.707 30.32 193.448 30.5334 193.907 30.96C194.376 31.376 194.611 31.9574 194.611 32.704ZM192.691 32.944C192.691 32.6774 192.584 32.4694 192.371 32.32C192.158 32.1707 191.79 32.096 191.267 32.096H188.419C188.131 32.3094 187.987 32.5974 187.987 32.96C187.987 33.28 188.12 33.5307 188.387 33.712C188.654 33.8934 189.107 33.984 189.747 33.984H190.771C191.443 33.984 191.928 33.8987 192.227 33.728C192.536 33.5574 192.691 33.296 192.691 32.944ZM190.227 27.696C191.23 27.696 191.731 27.2694 191.731 26.416V26.144C191.731 25.2907 191.23 24.864 190.227 24.864C189.224 24.864 188.723 25.2907 188.723 26.144V26.416C188.723 27.2694 189.224 27.696 190.227 27.696Z" fill="black"/>
<path d="M177.668 32.0001V23.6481H179.716V25.0401H179.796C179.967 24.5921 180.234 24.2187 180.596 23.9201C180.97 23.6107 181.482 23.4561 182.132 23.4561C182.996 23.4561 183.658 23.7387 184.116 24.3041C184.575 24.8694 184.804 25.6747 184.804 26.7201V32.0001H182.756V26.9281C182.756 26.3307 182.65 25.8827 182.436 25.5841C182.223 25.2854 181.871 25.1361 181.38 25.1361C181.167 25.1361 180.959 25.1681 180.756 25.2321C180.564 25.2854 180.388 25.3707 180.228 25.4881C180.079 25.5947 179.956 25.7334 179.86 25.9041C179.764 26.0641 179.716 26.2561 179.716 26.4801V32.0001H177.668Z" fill="black"/>
<path d="M171.965 32.1921C171.367 32.1921 170.829 32.0907 170.349 31.8881C169.879 31.6854 169.474 31.3921 169.133 31.0081C168.802 30.6241 168.546 30.1654 168.365 29.6321C168.183 29.0881 168.093 28.4801 168.093 27.8081C168.093 27.1361 168.183 26.5334 168.365 26.0001C168.546 25.4667 168.802 25.0134 169.133 24.6401C169.474 24.2561 169.879 23.9627 170.349 23.7601C170.829 23.5574 171.367 23.4561 171.965 23.4561C172.562 23.4561 173.101 23.5574 173.581 23.7601C174.061 23.9627 174.466 24.2561 174.797 24.6401C175.138 25.0134 175.399 25.4667 175.581 26.0001C175.762 26.5334 175.853 27.1361 175.853 27.8081C175.853 28.4801 175.762 29.0881 175.581 29.6321C175.399 30.1654 175.138 30.6241 174.797 31.0081C174.466 31.3921 174.061 31.6854 173.581 31.8881C173.101 32.0907 172.562 32.1921 171.965 32.1921ZM171.965 30.5441C172.509 30.5441 172.935 30.3787 173.245 30.0481C173.554 29.7174 173.709 29.2321 173.709 28.5921V27.0401C173.709 26.4107 173.554 25.9307 173.245 25.6001C172.935 25.2694 172.509 25.1041 171.965 25.1041C171.431 25.1041 171.01 25.2694 170.701 25.6001C170.391 25.9307 170.237 26.4107 170.237 27.0401V28.5921C170.237 29.2321 170.391 29.7174 170.701 30.0481C171.01 30.3787 171.431 30.5441 171.965 30.5441Z" fill="black"/>
<path d="M162.851 32.192C162.115 32.192 161.448 32.0747 160.851 31.84C160.264 31.5947 159.758 31.232 159.331 30.752C158.915 30.272 158.595 29.68 158.371 28.976C158.147 28.2613 158.035 27.4347 158.035 26.496C158.035 25.5573 158.147 24.7253 158.371 24C158.595 23.264 158.915 22.6507 159.331 22.16C159.758 21.6587 160.264 21.28 160.851 21.024C161.448 20.768 162.115 20.64 162.851 20.64C163.854 20.64 164.686 20.8533 165.347 21.28C166.008 21.7067 166.536 22.352 166.931 23.216L165.123 24.176C164.963 23.6747 164.702 23.2747 164.339 22.976C163.976 22.6667 163.48 22.512 162.851 22.512C162.062 22.512 161.432 22.7787 160.963 23.312C160.504 23.8453 160.275 24.592 160.275 25.552V27.312C160.275 28.2827 160.504 29.0293 160.963 29.552C161.432 30.064 162.062 30.32 162.851 30.32C163.48 30.32 163.992 30.1493 164.387 29.808C164.792 29.4667 165.086 29.0453 165.267 28.544L166.979 29.552C166.574 30.384 166.035 31.0347 165.363 31.504C164.691 31.9627 163.854 32.192 162.851 32.192Z" fill="black"/>
<path d="M150.196 30.608H150.116C149.967 31.088 149.684 31.472 149.268 31.76C148.852 32.048 148.367 32.192 147.812 32.192C146.756 32.192 145.946 31.8134 145.38 31.056C144.826 30.2987 144.548 29.216 144.548 27.808C144.548 26.4107 144.826 25.3387 145.38 24.592C145.946 23.8347 146.756 23.456 147.812 23.456C148.367 23.456 148.852 23.6 149.268 23.888C149.684 24.1654 149.967 24.544 150.116 25.024H150.196V20.16H152.244V32H150.196V30.608ZM148.468 30.496C148.959 30.496 149.37 30.3787 149.7 30.144C150.031 29.9094 150.196 29.5734 150.196 29.136V26.48C150.196 26.0747 150.031 25.7494 149.7 25.504C149.37 25.2587 148.959 25.136 148.468 25.136C147.935 25.136 147.503 25.3174 147.172 25.68C146.852 26.032 146.692 26.5067 146.692 27.104V28.544C146.692 29.1414 146.852 29.616 147.172 29.968C147.503 30.32 147.935 30.496 148.468 30.496Z" fill="black"/>
<path d="M142.357 32C141.653 32 141.136 31.824 140.805 31.472C140.474 31.12 140.309 30.624 140.309 29.984V20.16H142.357V30.368H143.461V32H142.357Z" fill="black"/>
<path d="M134.028 32V23.6479H136.076V25.3759H136.156C136.209 25.1519 136.289 24.9386 136.396 24.736C136.513 24.5226 136.662 24.3359 136.844 24.1759C137.025 24.0159 137.238 23.888 137.484 23.792C137.74 23.696 138.033 23.6479 138.364 23.6479H138.812V25.584H138.172C137.478 25.584 136.956 25.6853 136.604 25.888C136.252 26.0906 136.076 26.4213 136.076 26.8799V32H134.028Z" fill="black"/>
<path d="M128.324 32.1921C127.727 32.1921 127.188 32.0907 126.708 31.8881C126.239 31.6854 125.833 31.3921 125.492 31.0081C125.161 30.6241 124.905 30.1654 124.724 29.6321C124.543 29.0881 124.452 28.4801 124.452 27.8081C124.452 27.1361 124.543 26.5334 124.724 26.0001C124.905 25.4667 125.161 25.0134 125.492 24.6401C125.833 24.2561 126.239 23.9627 126.708 23.7601C127.188 23.5574 127.727 23.4561 128.324 23.4561C128.921 23.4561 129.46 23.5574 129.94 23.7601C130.42 23.9627 130.825 24.2561 131.156 24.6401C131.497 25.0134 131.759 25.4667 131.94 26.0001C132.121 26.5334 132.212 27.1361 132.212 27.8081C132.212 28.4801 132.121 29.0881 131.94 29.6321C131.759 30.1654 131.497 30.6241 131.156 31.0081C130.825 31.3921 130.42 31.6854 129.94 31.8881C129.46 32.0907 128.921 32.1921 128.324 32.1921ZM128.324 30.5441C128.868 30.5441 129.295 30.3787 129.604 30.0481C129.913 29.7174 130.068 29.2321 130.068 28.5921V27.0401C130.068 26.4107 129.913 25.9307 129.604 25.6001C129.295 25.2694 128.868 25.1041 128.324 25.1041C127.791 25.1041 127.369 25.2694 127.06 25.6001C126.751 25.9307 126.596 26.4107 126.596 27.0401V28.5921C126.596 29.2321 126.751 29.7174 127.06 30.0481C127.369 30.3787 127.791 30.5441 128.324 30.5441Z" fill="black"/>
<path d="M112.008 32L109.416 20.832H111.528L112.632 26.192L113.32 29.616H113.368L114.168 26.192L115.448 20.832H117.784L119.064 26.192L119.848 29.616H119.896L120.6 26.192L121.736 20.832H123.752L121.08 32H118.696L117.272 26.096L116.584 23.152H116.552L115.832 26.096L114.408 32H112.008Z" fill="black"/>
<path d="M239.936 12.192C239.126 12.192 238.443 12.064 237.888 11.808C237.334 11.5413 236.838 11.168 236.4 10.688L237.792 9.27996C238.091 9.61063 238.422 9.87196 238.784 10.064C239.147 10.256 239.558 10.352 240.016 10.352C240.486 10.352 240.811 10.2826 240.992 10.144C241.174 9.99463 241.264 9.79729 241.264 9.55196C241.264 9.15729 240.982 8.92263 240.416 8.84796L239.504 8.73596C237.616 8.50129 236.672 7.63729 236.672 6.14396C236.672 5.73862 236.747 5.37062 236.896 5.03996C237.056 4.69862 237.275 4.41063 237.552 4.17596C237.84 3.93063 238.182 3.74396 238.576 3.61596C238.982 3.47729 239.435 3.40796 239.936 3.40796C240.374 3.40796 240.758 3.43996 241.088 3.50396C241.43 3.55729 241.728 3.64263 241.984 3.75996C242.251 3.86663 242.491 4.00529 242.704 4.17596C242.928 4.33596 243.147 4.51729 243.36 4.71996L242 6.11196C241.734 5.84529 241.43 5.63729 241.088 5.48796C240.758 5.32796 240.416 5.24796 240.064 5.24796C239.659 5.24796 239.371 5.31196 239.2 5.43996C239.03 5.56796 238.944 5.73863 238.944 5.95196C238.944 6.17596 239.003 6.35196 239.12 6.47996C239.248 6.59729 239.483 6.68263 239.824 6.73596L240.768 6.86396C242.614 7.10929 243.536 7.95196 243.536 9.39196C243.536 9.79729 243.451 10.1706 243.28 10.512C243.11 10.8533 242.864 11.152 242.544 11.408C242.235 11.6533 241.856 11.8453 241.408 11.984C240.971 12.1226 240.48 12.192 239.936 12.192Z" fill="black"/>
<path d="M230.62 12V3.59998H232.988V5.42398H233.068C233.11 5.18931 233.185 4.96531 233.292 4.75198C233.398 4.52798 233.537 4.33064 233.708 4.15998C233.889 3.98931 234.102 3.85598 234.348 3.75998C234.593 3.65331 234.881 3.59998 235.212 3.59998H235.628V5.80798H235.036C234.342 5.80798 233.825 5.89864 233.484 6.07998C233.153 6.26131 232.988 6.59731 232.988 7.08798V12H230.62Z" fill="black"/>
<path d="M225.139 12.192C224.499 12.192 223.929 12.0906 223.427 11.888C222.926 11.6746 222.499 11.3813 222.147 11.008C221.806 10.624 221.545 10.16 221.363 9.61596C221.193 9.07196 221.107 8.46396 221.107 7.79196C221.107 7.13063 221.193 6.53329 221.363 5.99996C221.534 5.45596 221.785 4.99196 222.115 4.60796C222.457 4.22396 222.873 3.93063 223.363 3.72796C223.854 3.51463 224.414 3.40796 225.043 3.40796C225.737 3.40796 226.329 3.52529 226.819 3.75996C227.321 3.99463 227.726 4.30929 228.035 4.70396C228.355 5.09863 228.585 5.55729 228.723 6.07996C228.873 6.59196 228.947 7.13062 228.947 7.69596V8.39996H223.555V8.52796C223.555 9.08263 223.705 9.52529 224.003 9.85596C224.302 10.176 224.771 10.336 225.411 10.336C225.902 10.336 226.302 10.24 226.611 10.048C226.921 9.84529 227.209 9.60529 227.475 9.32796L228.659 10.8C228.286 11.2373 227.795 11.5786 227.187 11.824C226.59 12.0693 225.907 12.192 225.139 12.192ZM225.091 5.15196C224.611 5.15196 224.233 5.31196 223.955 5.63196C223.689 5.94129 223.555 6.35729 223.555 6.87996V7.00796H226.499V6.86396C226.499 6.35196 226.382 5.94129 226.147 5.63196C225.923 5.31196 225.571 5.15196 225.091 5.15196Z" fill="black"/>
<path d="M211.901 3.59996H214.269V5.00796H214.349C214.466 4.53862 214.733 4.15463 215.149 3.85596C215.576 3.55729 216.061 3.40796 216.605 3.40796C217.672 3.40796 218.477 3.78129 219.021 4.52796C219.565 5.27463 219.837 6.36263 219.837 7.79196C219.837 9.22129 219.565 10.3146 219.021 11.072C218.477 11.8186 217.672 12.192 216.605 12.192C216.328 12.192 216.066 12.1493 215.821 12.064C215.576 11.9893 215.352 11.8826 215.149 11.744C214.957 11.5946 214.792 11.424 214.653 11.232C214.514 11.0293 214.413 10.816 214.349 10.592H214.269V15.2H211.901V3.59996ZM215.821 10.272C216.269 10.272 216.637 10.1173 216.925 9.80796C217.224 9.48796 217.373 9.06129 217.373 8.52796V7.07196C217.373 6.53863 217.224 6.11729 216.925 5.80796C216.637 5.48796 216.269 5.32796 215.821 5.32796C215.373 5.32796 215 5.43996 214.701 5.66396C214.413 5.87729 214.269 6.17596 214.269 6.55996V9.03996C214.269 9.42396 214.413 9.72796 214.701 9.95196C215 10.1653 215.373 10.272 215.821 10.272Z" fill="black"/>
<path d="M206.278 12.192C205.659 12.192 205.104 12.0906 204.614 11.888C204.134 11.6853 203.723 11.392 203.382 11.008C203.051 10.624 202.795 10.16 202.614 9.61596C202.432 9.07196 202.342 8.46396 202.342 7.79196C202.342 7.11996 202.432 6.51196 202.614 5.96796C202.795 5.42396 203.051 4.96529 203.382 4.59196C203.723 4.20796 204.134 3.91463 204.614 3.71196C205.104 3.50929 205.659 3.40796 206.278 3.40796C206.896 3.40796 207.446 3.50929 207.926 3.71196C208.416 3.91463 208.827 4.20796 209.158 4.59196C209.499 4.96529 209.76 5.42396 209.942 5.96796C210.123 6.51196 210.214 7.11996 210.214 7.79196C210.214 8.46396 210.123 9.07196 209.942 9.61596C209.76 10.16 209.499 10.624 209.158 11.008C208.827 11.392 208.416 11.6853 207.926 11.888C207.446 12.0906 206.896 12.192 206.278 12.192ZM206.278 10.32C206.747 10.32 207.11 10.176 207.366 9.88796C207.622 9.59996 207.75 9.18929 207.75 8.65596V6.94396C207.75 6.41063 207.622 5.99996 207.366 5.71196C207.11 5.42396 206.747 5.27996 206.278 5.27996C205.808 5.27996 205.446 5.42396 205.19 5.71196C204.934 5.99996 204.806 6.41063 204.806 6.94396V8.65596C204.806 9.18929 204.934 9.59996 205.19 9.88796C205.446 10.176 205.808 10.32 206.278 10.32Z" fill="black"/>
<path d="M200.378 12C199.567 12 198.97 11.8027 198.586 11.408C198.213 11.0134 198.026 10.4427 198.026 9.69603V0.160034H200.394V10.16H201.45V12H200.378Z" fill="black"/>
<path d="M192.546 12.192C191.906 12.192 191.335 12.0906 190.834 11.888C190.332 11.6746 189.906 11.3813 189.554 11.008C189.212 10.624 188.951 10.16 188.77 9.61596C188.599 9.07196 188.514 8.46396 188.514 7.79196C188.514 7.13063 188.599 6.53329 188.77 5.99996C188.94 5.45596 189.191 4.99196 189.522 4.60796C189.863 4.22396 190.279 3.93063 190.77 3.72796C191.26 3.51463 191.82 3.40796 192.45 3.40796C193.143 3.40796 193.735 3.52529 194.226 3.75996C194.727 3.99463 195.132 4.30929 195.442 4.70396C195.762 5.09863 195.991 5.55729 196.13 6.07996C196.279 6.59196 196.354 7.13062 196.354 7.69596V8.39996H190.962V8.52796C190.962 9.08263 191.111 9.52529 191.41 9.85596C191.708 10.176 192.178 10.336 192.818 10.336C193.308 10.336 193.708 10.24 194.018 10.048C194.327 9.84529 194.615 9.60529 194.882 9.32796L196.066 10.8C195.692 11.2373 195.202 11.5786 194.594 11.824C193.996 12.0693 193.314 12.192 192.546 12.192ZM192.498 5.15196C192.018 5.15196 191.639 5.31196 191.362 5.63196C191.095 5.94129 190.962 6.35729 190.962 6.87996V7.00796H193.906V6.86396C193.906 6.35196 193.788 5.94129 193.554 5.63196C193.33 5.31196 192.978 5.15196 192.498 5.15196Z" fill="black"/>
<path d="M182.349 12L179.597 3.59998H181.933L182.973 6.99198L183.757 10.032H183.885L184.669 6.99198L185.677 3.59998H187.917L185.165 12H182.349Z" fill="black"/>
<path d="M175.233 12.192C174.593 12.192 174.023 12.0906 173.521 11.888C173.02 11.6746 172.593 11.3813 172.241 11.008C171.9 10.624 171.639 10.16 171.457 9.61596C171.287 9.07196 171.201 8.46396 171.201 7.79196C171.201 7.13063 171.287 6.53329 171.457 5.99996C171.628 5.45596 171.879 4.99196 172.209 4.60796C172.551 4.22396 172.967 3.93063 173.457 3.72796C173.948 3.51463 174.508 3.40796 175.137 3.40796C175.831 3.40796 176.423 3.52529 176.913 3.75996C177.415 3.99463 177.82 4.30929 178.129 4.70396C178.449 5.09863 178.679 5.55729 178.817 6.07996C178.967 6.59196 179.041 7.13062 179.041 7.69596V8.39996H173.649V8.52796C173.649 9.08263 173.799 9.52529 174.097 9.85596C174.396 10.176 174.865 10.336 175.505 10.336C175.996 10.336 176.396 10.24 176.705 10.048C177.015 9.84529 177.303 9.60529 177.569 9.32796L178.753 10.8C178.38 11.2373 177.889 11.5786 177.281 11.824C176.684 12.0693 176.001 12.192 175.233 12.192ZM175.185 5.15196C174.705 5.15196 174.327 5.31196 174.049 5.63196C173.783 5.94129 173.649 6.35729 173.649 6.87996V7.00796H176.593V6.86396C176.593 6.35196 176.476 5.94129 176.241 5.63196C176.017 5.31196 175.665 5.15196 175.185 5.15196Z" fill="black"/>
<path d="M160.701 0.832031H164.909C165.645 0.832031 166.317 0.949364 166.925 1.18403C167.533 1.4187 168.05 1.7707 168.477 2.24003C168.903 2.6987 169.234 3.28003 169.469 3.98403C169.703 4.67736 169.821 5.48803 169.821 6.41603C169.821 7.34403 169.703 8.16003 169.469 8.86403C169.234 9.55737 168.903 10.1387 168.477 10.608C168.05 11.0667 167.533 11.4134 166.925 11.648C166.317 11.8827 165.645 12 164.909 12H160.701V0.832031ZM164.909 9.84003C165.634 9.84003 166.205 9.63737 166.621 9.23203C167.037 8.8267 167.245 8.17603 167.245 7.28003V5.55203C167.245 4.65603 167.037 4.00536 166.621 3.60003C166.205 3.1947 165.634 2.99203 164.909 2.99203H163.133V9.84003H164.909Z" fill="black"/>
<path d="M155.093 12.192C154.453 12.192 153.882 12.0906 153.381 11.888C152.879 11.6746 152.453 11.3813 152.101 11.008C151.759 10.624 151.498 10.16 151.317 9.61596C151.146 9.07196 151.061 8.46396 151.061 7.79196C151.061 7.13063 151.146 6.53329 151.317 5.99996C151.487 5.45596 151.738 4.99196 152.069 4.60796C152.41 4.22396 152.826 3.93063 153.317 3.72796C153.807 3.51463 154.367 3.40796 154.997 3.40796C155.69 3.40796 156.282 3.52529 156.773 3.75996C157.274 3.99463 157.679 4.30929 157.989 4.70396C158.309 5.09863 158.538 5.55729 158.677 6.07996C158.826 6.59196 158.901 7.13062 158.901 7.69596V8.39996H153.509V8.52796C153.509 9.08263 153.658 9.52529 153.957 9.85596C154.255 10.176 154.725 10.336 155.365 10.336C155.855 10.336 156.255 10.24 156.565 10.048C156.874 9.84529 157.162 9.60529 157.429 9.32796L158.613 10.8C158.239 11.2373 157.749 11.5786 157.141 11.824C156.543 12.0693 155.861 12.192 155.093 12.192ZM155.045 5.15196C154.565 5.15196 154.186 5.31196 153.909 5.63196C153.642 5.94129 153.509 6.35729 153.509 6.87996V7.00796H156.453V6.86396C156.453 6.35196 156.335 5.94129 156.101 5.63196C155.877 5.31196 155.525 5.15196 155.045 5.15196Z" fill="black"/>
<path d="M145.198 12V3.59998H147.566V5.42398H147.646C147.688 5.18931 147.763 4.96531 147.87 4.75198C147.976 4.52798 148.115 4.33064 148.286 4.15998C148.467 3.98931 148.68 3.85598 148.926 3.75998C149.171 3.65331 149.459 3.59998 149.79 3.59998H150.206V5.80798H149.614C148.92 5.80798 148.403 5.89864 148.062 6.07998C147.731 6.26131 147.566 6.59731 147.566 7.08798V12H145.198Z" fill="black"/>
<path d="M141.252 12L140.452 9.34403H136.724L135.924 12H133.46L137.14 0.832031H140.148L143.78 12H141.252ZM138.612 3.04003H138.532L137.3 7.28003H139.86L138.612 3.04003Z" fill="black"/>
<path d="M128.764 12.192C128.124 12.192 127.554 12.0906 127.052 11.888C126.551 11.6746 126.124 11.3813 125.772 11.008C125.431 10.624 125.17 10.16 124.988 9.61596C124.818 9.07196 124.732 8.46396 124.732 7.79196C124.732 7.13063 124.818 6.53329 124.988 5.99996C125.159 5.45596 125.41 4.99196 125.74 4.60796C126.082 4.22396 126.498 3.93063 126.988 3.72796C127.479 3.51463 128.039 3.40796 128.668 3.40796C129.362 3.40796 129.954 3.52529 130.444 3.75996C130.946 3.99463 131.351 4.30929 131.66 4.70396C131.98 5.09863 132.21 5.55729 132.348 6.07996C132.498 6.59196 132.572 7.13062 132.572 7.69596V8.39996H127.18V8.52796C127.18 9.08263 127.33 9.52529 127.628 9.85596C127.927 10.176 128.396 10.336 129.036 10.336C129.527 10.336 129.927 10.24 130.236 10.048C130.546 9.84529 130.834 9.60529 131.1 9.32796L132.284 10.8C131.911 11.2373 131.42 11.5786 130.812 11.824C130.215 12.0693 129.532 12.192 128.764 12.192ZM128.716 5.15196C128.236 5.15196 127.858 5.31196 127.58 5.63196C127.314 5.94129 127.18 6.35729 127.18 6.87996V7.00796H130.124V6.86396C130.124 6.35196 130.007 5.94129 129.772 5.63196C129.548 5.31196 129.196 5.15196 128.716 5.15196Z" fill="black"/>
<path d="M111.992 12L109.464 0.832031H111.864L112.92 6.19203L113.512 9.29603H113.56L114.264 6.19203L115.496 0.832031H118.152L119.4 6.19203L120.088 9.29603H120.136L120.728 6.19203L121.8 0.832031H124.104L121.512 12H118.744L117.336 5.95203L116.792 3.50403H116.744L116.184 5.95203L114.776 12H111.992Z" fill="black"/>
</svg>
