<svg width="60" height="60" viewBox="0 0 60 60" fill="none" xmlns="http://www.w3.org/2000/svg">
<path fill-rule="evenodd" clip-rule="evenodd" d="M45.0157 54.9373L43.824 22.0808L41.6657 13.4184L56.0716 14.9435V54.6886L47.2716 59.7674L45.0157 54.9373Z" fill="#24386C"/>
<path fill-rule="evenodd" clip-rule="evenodd" d="M56.0706 14.9412L47.2706 20.0235L29.1106 16.04L7.85452 24.6945L4.31311 14.9412L17.2504 7.47059L30.1915 0L43.1292 7.47059L56.0706 14.9412Z" fill="#7589BE"/>
<path fill-rule="evenodd" clip-rule="evenodd" d="M4.31372 14.9412L13.1137 20.0235L18.2149 35.1945L35.4388 48.9757L30.1925 59.7647L17.2514 52.2937L4.31372 44.8231V14.9412Z" fill="#B2BFE8"/>
<path fill-rule="evenodd" clip-rule="evenodd" d="M36.0267 41.0039L30.1926 49.6047V59.7655L38.471 54.989L42.7365 48.6196" fill="#24386C"/>
<path fill-rule="evenodd" clip-rule="evenodd" d="M30.1961 39.4471L21.9141 25.1078L23.698 20.3553L30.4796 17.0673L38.4709 25.1081L30.1961 39.4471Z" fill="#7589BE"/>
<path fill-rule="evenodd" clip-rule="evenodd" d="M21.9141 25.1067L30.1926 29.8831V39.4439L22.5361 39.7733L17.9047 33.8596L21.9141 25.1067Z" fill="#B2BFE8"/>
<path fill-rule="evenodd" clip-rule="evenodd" d="M30.1926 29.8824L38.471 25.1063L44.1051 34.4875L37.2871 40.1208L30.1926 39.4435V29.8824Z" fill="#24386C"/>
<path fill-rule="evenodd" clip-rule="evenodd" d="M38.471 54.9882L47.271 59.7651V20.0239L38.7298 15.0945L30.1926 10.1651L21.6514 15.0945L13.1141 20.0239V39.7451L21.6514 44.6745L30.1926 49.6043L38.471 44.8235V54.9882ZM38.471 34.6627L30.1926 39.4431L21.9141 34.6627V25.1059L30.1926 20.3255L38.471 25.1059V34.6627Z" fill="#DC244C"/>
<path d="M30.1961 49.6078V39.4455L21.9608 34.7059V44.8514L30.1961 49.6078Z" fill="url(#paint0_linear_858_10162)"/>
<defs>
<linearGradient id="paint0_linear_858_10162" x1="28.6777" y1="41.3882" x2="20.4714" y2="41.3882" gradientUnits="userSpaceOnUse">
<stop stop-color="#FF3364"/>
<stop offset="1" stop-color="#C91540" stop-opacity="0"/>
</linearGradient>
</defs>
</svg>